g Amulet
v 0.07687385 0.05909972 0.36103
v -0.01951867 -0.002004232 0.2786933
v 0.07687385 0.03259436 0.278608
v -0.02945886 0.02093617 0.3611151
v -0.08986259 -0.09627689 0.2788291
v -0.01951867 -0.002004259 0.443537
v 0.07687385 0.03259433 0.4434517
v -0.1070588 -0.0830512 0.3612509
v -0.115556 -0.2248012 0.2788779
v -0.02404203 -0.08507971 0.452702
v 0.07687385 -0.0200837 0.4525846
v 0.07687385 -0.09269865 0.4942281
v -0.08986259 -0.09627692 0.4436727
v -0.1354028 -0.2248192 0.3612999
v -0.08985885 -0.3533264 0.278829
v -0.01810559 -0.2247652 0.4942311
v 0.07687385 -0.2247652 0.5087892
v 0.07687385 -0.3567481 0.4942286
v -0.07072614 -0.2247652 0.4527916
v -0.115556 -0.2248012 0.4437217
v -0.02402334 -0.3642603 0.4527094
v 0.07687385 -0.4285724 0.4526148
v -0.1070551 -0.3665883 0.3612508
v -0.01947755 -0.4471166 0.2787122
v -0.08985885 -0.3533264 0.4436727
v -0.01947755 -0.4471166 0.443556
v 0.07687385 -0.4810967 0.4434911
v -0.02941399 -0.4700432 0.361134
v 0.07687385 -0.4810967 0.2786473
v 0.07687385 -0.507525 0.3610693
v -0.01951867 -0.002004232 0.2786933
v 0.07687385 -0.4810967 0.2786473
v 0.07687385 0.03259436 0.278608
v -0.01947755 -0.4471166 0.2787122
v -0.08985885 -0.3533264 0.278829
v -0.08986259 -0.09627689 0.2788291
v -0.115556 -0.2248012 0.2788779
v 0.07687385 -0.4810967 0.2786473
v 0.1732701 -0.002004232 0.2786933
v 0.07687385 0.03259436 0.278608
v 0.173229 -0.4471166 0.2787122
v 0.243614 -0.09627689 0.2788291
v 0.243614 -0.3533264 0.278829
v 0.2693112 -0.2248012 0.2788779
v 0.1832103 0.02093617 0.3611151
v 0.07687385 0.03259436 0.278608
v 0.1732701 -0.002004232 0.2786933
v 0.07687385 0.05909972 0.36103
v 0.243614 -0.09627689 0.2788291
v 0.07687385 0.03259433 0.4434517
v 0.2608103 -0.0830512 0.3612509
v 0.2693112 -0.2248012 0.2788779
v 0.1732701 -0.002004259 0.443537
v 0.07687385 -0.0200837 0.4525846
v 0.243614 -0.09627692 0.4436727
v 0.1777935 -0.08507971 0.452702
v 0.07687385 -0.09269865 0.4942281
v 0.2891504 -0.2248192 0.3612999
v 0.243614 -0.3533264 0.278829
v 0.2693112 -0.2248012 0.4437217
v 0.171857 -0.2247652 0.4942311
v 0.07687385 -0.2247652 0.5087892
v 0.07687385 -0.3567481 0.4942286
v 0.2608103 -0.3665883 0.3612508
v 0.173229 -0.4471166 0.2787122
v 0.2244776 -0.2247652 0.4527916
v 0.1777748 -0.3642603 0.4527094
v 0.07687385 -0.4285724 0.4526148
v 0.07687385 -0.4810967 0.4434911
v 0.243614 -0.3533264 0.4436727
v 0.173229 -0.4471166 0.443556
v 0.1831654 -0.4700432 0.361134
v 0.07687385 -0.4810967 0.2786473
v 0.07687385 -0.507525 0.3610693
v -0.09753361 0.06116139 0.4020089
v -0.1162364 0.1687451 0.230632
v -0.0358439 0.07560556 0.3092856
v 0.01741964 0.02226048 0.3234835
v -0.03125324 -0.0241879 0.4215164
v -0.1645729 -0.01135681 0.3444113
v -0.099328 -0.1050484 0.3738817
v 0.01741964 0.02226048 0.3234835
v -0.0358439 0.07560556 0.3092856
v -0.1162364 0.1687451 0.230632
v -0.1883822 0.1953277 0.3218148
v -0.2513467 0.1167553 0.2692638
v -0.2472383 0.3122728 0.1828897
v -0.1650476 0.2360182 0.1113559
v -0.3171299 0.2295196 0.1468485
v -0.1650476 0.2360182 0.1113559
v -0.1751785 0.3033794 -0.1028512
v -0.3381093 0.3399586 -0.09624911
v -0.1534401 0.3383928 -0.3002791
v -0.2586364 0.4076182 -0.06757632
v -0.2286663 0.4600299 -0.3038378
v -0.1751785 0.3033794 -0.1028512
v -0.1534401 0.3383928 -0.3002791
v -0.06020652 0.3522954 -0.4087842
v -0.3076794 0.3961655 -0.3431253
v -0.1555 0.4319748 -0.5207812
v -0.06020652 0.3522954 -0.4087842
v 0.07687385 0.3574344 -0.4513032
v 0.07687385 0.4505674 -0.5975535
v -0.1040346 0.4853122 -0.4376038
v 0.07687385 0.3574344 -0.4513032
v 0.07687385 0.4951024 -0.4916098
v 0.2699879 0.1687451 0.230632
v 0.251285 0.06116139 0.4020089
v 0.1895953 0.07560556 0.3092856
v 0.1363318 0.02226048 0.3234835
v 0.1850047 -0.0241879 0.4215164
v 0.3183243 -0.01135681 0.3444113
v 0.2530794 -0.1050484 0.3738817
v 0.1363318 0.02226048 0.3234835
v 0.1895953 0.07560556 0.3092856
v 0.2699879 0.1687451 0.230632
v 0.3421299 0.1953277 0.3218148
v 0.4050981 0.1167553 0.2692638
v 0.400986 0.3122728 0.1828897
v 0.318799 0.2360182 0.1113559
v 0.4708775 0.2295196 0.1468485
v 0.318799 0.2360182 0.1113559
v 0.3289299 0.3033794 -0.1028512
v 0.4918607 0.3399586 -0.09624911
v 0.3071916 0.3383928 -0.3002791
v 0.4123878 0.4076182 -0.06757632
v 0.382414 0.4600299 -0.3038378
v 0.3289299 0.3033794 -0.1028512
v 0.3071916 0.3383928 -0.3002791
v 0.2139579 0.3522954 -0.4087842
v 0.4614308 0.3961655 -0.3431253
v 0.3092477 0.4319748 -0.5207812
v 0.2139579 0.3522954 -0.4087842
v 0.07687385 0.3574344 -0.4513032
v 0.07687385 0.4505674 -0.5975535
v 0.257786 0.4853122 -0.4376038
v 0.07687385 0.3574344 -0.4513032
v 0.07687385 0.4951024 -0.4916098
vt 0.6088642 0.4699585
vt 0.6342559 0.5345141
vt 0.6484951 0.4699584
vt 0.5986713 0.5137185
vt 0.5851219 0.5838281
vt 0.5708508 0.5006148
vt 0.5795632 0.4699585
vt 0.5615293 0.5570394
vt 0.4959522 0.6108455
vt 0.5429213 0.5031427
vt 0.563337 0.4699585
vt 0.5373278 0.4699585
vt 0.5429213 0.529105
vt 0.4959522 0.5738154
vt 0.4077082 0.5838282
vt 0.4959522 0.5031427
vt 0.4959522 0.4699585
vt 0.4554415 0.4699585
vt 0.4959522 0.524937
vt 0.4959522 0.5434206
vt 0.4495982 0.5031427
vt 0.4300374 0.4699585
vt 0.4308096 0.5570394
vt 0.3593177 0.5345142
vt 0.4495982 0.529105
vt 0.422478 0.5006148
vt 0.4141599 0.4699585
vt 0.3948156 0.5137185
vt 0.3453167 0.4699585
vt 0.3851105 0.4699585
vt 0.2694497 0.600036
vt 0.3825901 0.6226374
vt 0.2612791 0.6226374
vt 0.3745654 0.600036
vt 0.3524164 0.5835346
vt 0.2917128 0.5835346
vt 0.3220644 0.5775093
vt 0.3825901 0.6226374
vt 0.2694497 0.600036
vt 0.2612791 0.6226374
vt 0.3745654 0.600036
vt 0.2917128 0.5835346
vt 0.3524164 0.5835346
vt 0.3220644 0.5775093
vt 0.5986713 0.5137185
vt 0.6484951 0.4699584
vt 0.6342559 0.5345141
vt 0.6088642 0.4699585
vt 0.5851219 0.5838281
vt 0.5795632 0.4699585
vt 0.5615293 0.5570394
vt 0.4959522 0.6108455
vt 0.5708508 0.5006148
vt 0.563337 0.4699585
vt 0.5429213 0.529105
vt 0.5429213 0.5031427
vt 0.5373278 0.4699585
vt 0.4959522 0.5738154
vt 0.4077082 0.5838282
vt 0.4959522 0.5434206
vt 0.4959522 0.5031427
vt 0.4959522 0.4699585
vt 0.4554415 0.4699585
vt 0.4307828 0.5570394
vt 0.3593177 0.5345142
vt 0.4959522 0.524937
vt 0.4495982 0.5031427
vt 0.4300374 0.4699585
vt 0.4141599 0.4699585
vt 0.4495982 0.529105
vt 0.422478 0.5006148
vt 0.3948156 0.5137185
vt 0.3453167 0.4699585
vt 0.3851105 0.4699585
vt 0.480864 0.8390518
vt 0.4971626 0.8610326
vt 0.4971626 0.8390518
vt 0.4971626 0.825229
vt 0.480864 0.825229
vt 0.4664825 0.8390518
vt 0.4664825 0.825229
vt 0.4460006 0.825229
vt 0.4460006 0.8390518
vt 0.4460006 0.8610326
vt 0.480864 0.8610326
vt 0.4664825 0.8610326
vt 0.480864 0.8819765
vt 0.4971626 0.8819765
vt 0.4664825 0.8819765
vt 0.4460006 0.8819765
vt 0.4460006 0.9112492
vt 0.4664825 0.9112492
vt 0.4460006 0.9359193
vt 0.480864 0.9112492
vt 0.480864 0.9359193
vt 0.4971626 0.9112492
vt 0.4971626 0.9359193
vt 0.4971626 0.9548557
vt 0.4664825 0.9359193
vt 0.4664825 0.9548557
vt 0.4460006 0.9548557
vt 0.4460006 0.9764302
vt 0.4664825 0.9764302
vt 0.480864 0.9548557
vt 0.4971626 0.9764302
vt 0.480864 0.9764302
vt 0.4971626 0.8610326
vt 0.480864 0.8390518
vt 0.4971626 0.8390518
vt 0.4971626 0.825229
vt 0.480864 0.825229
vt 0.4664825 0.8390518
vt 0.4664825 0.825229
vt 0.4460006 0.825229
vt 0.4460006 0.8390518
vt 0.4460006 0.8610326
vt 0.480864 0.8610326
vt 0.4664825 0.8610326
vt 0.480864 0.8819765
vt 0.4971626 0.8819765
vt 0.4664825 0.8819765
vt 0.4460006 0.8819765
vt 0.4460006 0.9112492
vt 0.4664825 0.9112492
vt 0.4460006 0.9359193
vt 0.480864 0.9112492
vt 0.480864 0.9359193
vt 0.4971626 0.9112492
vt 0.4971626 0.9359193
vt 0.4971626 0.9548557
vt 0.4664825 0.9359193
vt 0.4664825 0.9548557
vt 0.4460006 0.9548557
vt 0.4460006 0.9764302
vt 0.4664825 0.9764302
vt 0.480864 0.9548557
vt 0.4971626 0.9764302
vt 0.480864 0.9764302
vn -1.136421E-05 1 -0.000139246
vn -0.4009727 0.526247 -0.7498567
vn -1.448082E-05 0.661063 -0.7503304
vn -0.5858618 0.810411 -6.745596E-06
vn -0.6078464 0.263926 -0.7489098
vn -0.417758 0.5632398 0.712909
vn -0.004831275 0.7082748 0.7059203
vn -0.9101468 0.4142859 6.629163E-05
vn -0.6630984 1.571741E-05 -0.7485322
vn -0.2358422 0.1879286 0.9534471
vn -0.01501362 0.2744328 0.961489
vn -5.642857E-06 0.3391296 0.9407397
vn -0.6558017 0.2853663 0.6989208
vn -1 -3.181396E-05 5.096683E-05
vn -0.6075644 -0.2648116 -0.748826
vn -0.420742 -0.000121442 0.9071804
vn -2.917398E-06 -3.215917E-05 1
vn -5.636483E-06 -0.3410615 0.940041
vn -0.3753933 -0.007551924 0.9268349
vn -0.7233613 -0.004446215 0.6904554
vn -0.2390926 -0.1838206 0.9534383
vn 0.0149518 -0.2765405 0.9608859
vn -0.9095603 -0.4155719 6.274544E-05
vn -0.3987155 -0.5281942 -0.7496912
vn -0.6534722 -0.280252 0.7031592
vn -0.4241222 -0.5676128 0.7056458
vn 0.004877202 -0.7078628 0.7063332
vn -0.58263 -0.8127375 -3.540977E-06
vn -4.061553E-06 -0.6604803 -0.7508433
vn -5.196837E-06 -1 -0.0001019647
vn -0.4009727 0.526247 -0.7498567
vn -4.061553E-06 -0.6604803 -0.7508433
vn -1.448082E-05 0.661063 -0.7503304
vn -0.3987155 -0.5281942 -0.7496912
vn -0.6075644 -0.2648116 -0.748826
vn -0.6078464 0.263926 -0.7489098
vn -0.6630984 1.571741E-05 -0.7485322
vn -4.061553E-06 -0.6604803 -0.7508433
vn 0.4009772 0.5262379 -0.7498606
vn -1.448082E-05 0.661063 -0.7503304
vn 0.3987063 -0.5281974 -0.7496938
vn 0.6078178 0.2639205 -0.7489349
vn 0.6075513 -0.2647979 -0.7488414
vn 0.6631285 1.305926E-05 -0.7485055
vn 0.5858623 0.8104106 -3.080048E-07
vn -1.448082E-05 0.661063 -0.7503304
vn 0.4009772 0.5262379 -0.7498606
vn -1.136421E-05 1 -0.000139246
vn 0.6078178 0.2639205 -0.7489349
vn -0.004831275 0.7082748 0.7059203
vn 0.9101453 0.4142892 6.627072E-05
vn 0.6631285 1.305926E-05 -0.7485055
vn 0.426369 0.5657461 0.7057909
vn -0.01501362 0.2744328 0.961489
vn 0.6537197 0.2793891 0.7032725
vn 0.2393717 0.1834861 0.9534328
vn -5.642857E-06 0.3391296 0.9407397
vn 1 -3.490497E-05 5.094445E-05
vn 0.6075513 -0.2647979 -0.7488414
vn 0.7233938 0.004435683 0.6904215
vn 0.4207389 -0.0001214499 0.9071817
vn -2.917398E-06 -3.215917E-05 1
vn -5.636483E-06 -0.3410615 0.940041
vn 0.909565 -0.4155616 6.275669E-05
vn 0.3987063 -0.5281974 -0.7496938
vn 0.3753893 0.007459545 0.9268372
vn 0.235514 -0.1882862 0.9534577
vn 0.0149518 -0.2765405 0.9608859
vn 0.004877202 -0.7078628 0.7063332
vn 0.6555344 -0.2862233 0.6988211
vn 0.4155258 -0.5651003 0.7127411
vn 0.5826167 -0.8127471 -3.540971E-06
vn -4.061553E-06 -0.6604803 -0.7508433
vn -5.196837E-06 -1 -0.0001019647
vn -0.03209762 0.3979588 0.9168416
vn 0.8640724 0.08275381 -0.4965186
vn 0.7426711 0.4343002 -0.5097283
vn 0.7098065 0.4470339 -0.5443671
vn -0.02444628 0.245586 0.9690665
vn -0.7711241 -0.6335126 -0.06347724
vn -0.8235925 -0.566775 0.02148362
vn 0.7098065 0.4470339 -0.5443671
vn 0.7426711 0.4343002 -0.5097283
vn 0.8640724 0.08275381 -0.4965186
vn -0.09267458 0.6150711 0.7830064
vn -0.8500813 -0.5248422 -0.04361648
vn -0.08657273 0.8436418 0.5298808
vn 0.8942324 -0.3330482 -0.2990439
vn -0.910089 -0.4064959 0.08061728
vn 0.8942324 -0.3330482 -0.2990439
vn 0.8513588 -0.5081723 -0.130189
vn -0.9797812 -0.1724533 -0.1014338
vn 0.677313 -0.7250767 0.124542
vn 0.04492324 0.9582416 0.2824091
vn -0.002005249 0.9820859 0.1884231
vn 0.8513588 -0.5081723 -0.130189
vn 0.677313 -0.7250767 0.124542
vn 0.3201807 -0.8387697 0.4403972
vn -0.9069763 -0.0949819 -0.4103322
vn -0.5638136 0.01271628 -0.8258042
vn 0.3201807 -0.8387697 0.4403972
vn 3.355652E-06 -0.8773181 0.4799093
vn -1.006912E-06 0.09878524 -0.9951088
vn 0.04550262 0.9658341 0.2551355
vn 3.355652E-06 -0.8773181 0.4799093
vn 0 0.954299 0.2988534
vn -0.8640724 0.08274201 -0.4965206
vn 0.03210119 0.3979598 0.9168411
vn -0.7426711 0.4343002 -0.5097283
vn -0.7098065 0.4470339 -0.5443671
vn 0.02444628 0.2455861 0.9690665
vn 0.7711279 -0.633508 -0.06347742
vn 0.8235925 -0.566775 0.02148362
vn -0.7098065 0.4470339 -0.5443671
vn -0.7426711 0.4343002 -0.5097283
vn -0.8640724 0.08274201 -0.4965206
vn 0.09265194 0.6150771 0.7830043
vn 0.8500872 -0.5248332 -0.04360892
vn 0.08655947 0.8436458 0.5298767
vn -0.8942273 -0.3330547 -0.2990521
vn 0.9100888 -0.4064967 0.08061548
vn -0.8942273 -0.3330547 -0.2990521
vn -0.8513572 -0.5081767 -0.1301821
vn 0.9797816 -0.1724522 -0.1014307
vn -0.6773071 -0.7250836 0.1245342
vn -0.04491822 0.9582412 0.2824115
vn 0.001985631 0.9820852 0.1884273
vn -0.8513572 -0.5081767 -0.1301821
vn -0.6773071 -0.7250836 0.1245342
vn -0.3201783 -0.8387737 0.4403914
vn 0.9069763 -0.09497182 -0.4103343
vn 0.5638106 0.01271466 -0.8258062
vn -0.3201783 -0.8387737 0.4403914
vn 3.355652E-06 -0.8773181 0.4799093
vn -1.006912E-06 0.09878524 -0.9951088
vn -0.04549316 0.9658362 0.2551287
vn 3.355652E-06 -0.8773181 0.4799093
vn 0 0.954299 0.2988534
g Amulet_0
f 3/3/3 2/2/2 1/1/1
f 4/4/4 1/1/1 2/2/2
f 2/2/2 5/5/5 4/4/4
f 4/4/4 6/6/6 1/1/1
f 7/7/7 1/1/1 6/6/6
f 8/8/8 4/4/4 5/5/5
f 5/5/5 9/9/9 8/8/8
f 6/6/6 10/10/10 7/7/7
f 11/11/11 7/7/7 10/10/10
f 11/11/11 10/10/10 12/12/12
f 6/6/6 4/4/4 13/13/13
f 8/8/8 13/13/13 4/4/4
f 6/6/6 13/13/13 10/10/10
f 14/14/14 8/8/8 9/9/9
f 9/9/9 15/15/15 14/14/14
f 12/12/12 10/10/10 16/16/16
f 17/17/17 12/12/12 16/16/16
f 16/16/16 18/18/18 17/17/17
f 10/10/10 13/13/13 19/19/19
f 16/16/16 10/10/10 19/19/19
f 13/13/13 8/8/8 20/20/20
f 20/20/20 19/19/19 13/13/13
f 14/14/14 20/20/20 8/8/8
f 21/21/21 18/18/18 16/16/16
f 19/19/19 21/21/21 16/16/16
f 19/19/19 20/20/20 21/21/21
f 22/22/22 18/18/18 21/21/21
f 23/23/23 14/14/14 15/15/15
f 15/15/15 24/24/24 23/23/23
f 20/20/20 14/14/14 25/25/25
f 25/25/25 21/21/21 20/20/20
f 23/23/23 25/25/25 14/14/14
f 21/21/21 26/26/26 22/22/22
f 25/25/25 26/26/26 21/21/21
f 25/25/25 23/23/23 26/26/26
f 27/27/27 22/22/22 26/26/26
f 28/28/28 23/23/23 24/24/24
f 28/28/28 26/26/26 23/23/23
f 26/26/26 28/28/28 27/27/27
f 24/24/24 29/29/29 28/28/28
f 30/30/30 27/27/27 28/28/28
f 30/30/30 28/28/28 29/29/29
f 33/33/33 32/32/32 31/31/31
f 34/34/34 31/31/31 32/32/32
f 34/34/34 35/35/35 31/31/31
f 36/36/36 31/31/31 35/35/35
f 37/37/37 36/36/36 35/35/35
f 40/40/40 39/39/39 38/38/38
f 41/41/41 38/38/38 39/39/39
f 39/39/39 42/42/42 41/41/41
f 43/43/43 41/41/41 42/42/42
f 44/44/44 43/43/43 42/42/42
f 47/47/47 46/46/46 45/45/45
f 48/48/48 45/45/45 46/46/46
f 47/47/47 45/45/45 49/49/49
f 48/48/48 50/50/50 45/45/45
f 51/51/51 49/49/49 45/45/45
f 49/49/49 51/51/51 52/52/52
f 53/53/53 45/45/45 50/50/50
f 50/50/50 54/54/54 53/53/53
f 53/53/53 55/55/55 45/45/45
f 51/51/51 45/45/45 55/55/55
f 56/56/56 53/53/53 54/54/54
f 55/55/55 53/53/53 56/56/56
f 54/54/54 57/57/57 56/56/56
f 58/58/58 52/52/52 51/51/51
f 52/52/52 58/58/58 59/59/59
f 55/55/55 60/60/60 51/51/51
f 55/55/55 56/56/56 60/60/60
f 58/58/58 51/51/51 60/60/60
f 56/56/56 57/57/57 61/61/61
f 57/57/57 62/62/62 61/61/61
f 62/62/62 63/63/63 61/61/61
f 64/64/64 59/59/59 58/58/58
f 59/59/59 64/64/64 65/65/65
f 66/66/66 60/60/60 56/56/56
f 66/66/66 56/56/56 61/61/61
f 67/67/67 61/61/61 63/63/63
f 66/66/66 61/61/61 67/67/67
f 68/68/68 67/67/67 63/63/63
f 68/68/68 69/69/69 67/67/67
f 60/60/60 70/70/70 58/58/58
f 60/60/60 66/66/66 70/70/70
f 67/67/67 70/70/70 66/66/66
f 64/64/64 58/58/58 70/70/70
f 71/71/71 70/70/70 67/67/67
f 71/71/71 67/67/67 69/69/69
f 70/70/70 71/71/71 64/64/64
f 72/72/72 65/65/65 64/64/64
f 72/72/72 64/64/64 71/71/71
f 71/71/71 69/69/69 72/72/72
f 65/65/65 72/72/72 73/73/73
f 74/74/74 72/72/72 69/69/69
f 74/74/74 73/73/73 72/72/72
f 77/77/77 76/76/76 75/75/75
f 77/77/77 75/75/75 78/78/78
f 79/79/79 78/78/78 75/75/75
f 75/75/75 80/80/80 79/79/79
f 81/81/81 79/79/79 80/80/80
f 81/81/81 80/80/80 82/82/82
f 83/83/83 82/82/82 80/80/80
f 83/83/83 80/80/80 84/84/84
f 85/85/85 75/75/75 76/76/76
f 75/75/75 85/85/85 80/80/80
f 86/86/86 84/84/84 80/80/80
f 86/86/86 80/80/80 85/85/85
f 85/85/85 76/76/76 87/87/87
f 85/85/85 87/87/87 86/86/86
f 88/88/88 87/87/87 76/76/76
f 86/86/86 89/89/89 84/84/84
f 89/89/89 86/86/86 87/87/87
f 90/90/90 84/84/84 89/89/89
f 90/90/90 89/89/89 91/91/91
f 92/92/92 91/91/91 89/89/89
f 89/89/89 87/87/87 92/92/92
f 91/91/91 92/92/92 93/93/93
f 87/87/87 88/88/88 94/94/94
f 94/94/94 92/92/92 87/87/87
f 94/94/94 95/95/95 92/92/92
f 96/96/96 94/94/94 88/88/88
f 94/94/94 96/96/96 95/95/95
f 97/97/97 95/95/95 96/96/96
f 97/97/97 98/98/98 95/95/95
f 99/99/99 93/93/93 92/92/92
f 99/99/99 92/92/92 95/95/95
f 99/99/99 100/100/100 93/93/93
f 99/99/99 95/95/95 100/100/100
f 101/101/101 93/93/93 100/100/100
f 101/101/101 100/100/100 102/102/102
f 103/103/103 102/102/102 100/100/100
f 104/104/104 95/95/95 98/98/98
f 104/104/104 100/100/100 95/95/95
f 100/100/100 104/104/104 103/103/103
f 98/98/98 105/105/105 104/104/104
f 106/106/106 103/103/103 104/104/104
f 106/106/106 104/104/104 105/105/105
f 109/109/109 108/108/108 107/107/107
f 109/109/109 110/110/110 108/108/108
f 111/111/111 108/108/108 110/110/110
f 108/108/108 111/111/111 112/112/112
f 113/113/113 112/112/112 111/111/111
f 113/113/113 114/114/114 112/112/112
f 115/115/115 112/112/112 114/114/114
f 115/115/115 116/116/116 112/112/112
f 117/117/117 107/107/107 108/108/108
f 108/108/108 112/112/112 117/117/117
f 118/118/118 112/112/112 116/116/116
f 118/118/118 117/117/117 112/112/112
f 117/117/117 119/119/119 107/107/107
f 117/117/117 118/118/118 119/119/119
f 120/120/120 107/107/107 119/119/119
f 118/118/118 116/116/116 121/121/121
f 121/121/121 119/119/119 118/118/118
f 122/122/122 121/121/121 116/116/116
f 122/122/122 123/123/123 121/121/121
f 124/124/124 121/121/121 123/123/123
f 121/121/121 124/124/124 119/119/119
f 123/123/123 125/125/125 124/124/124
f 119/119/119 126/126/126 120/120/120
f 126/126/126 119/119/119 124/124/124
f 126/126/126 124/124/124 127/127/127
f 128/128/128 120/120/120 126/126/126
f 126/126/126 127/127/127 128/128/128
f 129/129/129 128/128/128 127/127/127
f 129/129/129 127/127/127 130/130/130
f 131/131/131 124/124/124 125/125/125
f 131/131/131 127/127/127 124/124/124
f 131/131/131 125/125/125 132/132/132
f 131/131/131 132/132/132 127/127/127
f 133/133/133 132/132/132 125/125/125
f 133/133/133 134/134/134 132/132/132
f 135/135/135 132/132/132 134/134/134
f 136/136/136 130/130/130 127/127/127
f 136/136/136 127/127/127 132/132/132
f 132/132/132 135/135/135 136/136/136
f 130/130/130 136/136/136 137/137/137
f 138/138/138 136/136/136 135/135/135
f 138/138/138 137/137/137 136/136/136
