g Awning_B
v -2.330756E-07 1.119128 -1.18589E-06
v -4.891864E-08 1.119127 4.115266
v -0.5595641 0.9691927 4.115266
v -0.5595643 0.9691933 -1.210318E-06
v -0.9691933 0.5595635 4.115266
v -0.9691935 0.5595641 -1.266449E-06
v -1.119128 -5.014784E-07 4.115266
v -1.119128 8.449207E-08 -1.527315E-06
v -4.891864E-08 1.119127 4.115266
v 5.602837E-06 -5.214504E-07 4.115266
v -0.5595641 0.9691927 4.115266
v -0.9691933 0.5595635 4.115266
v -1.119128 -5.014784E-07 4.115266
v -2.330756E-07 1.119128 -1.18589E-06
v -0.5595643 0.9691933 -1.210318E-06
v 5.245209E-06 4.423665E-13 -2.715226E-06
v -0.9691935 0.5595641 -1.266449E-06
v -1.119128 8.449207E-08 -1.527315E-06
vt 0.5843756 0.9605575
vt 0.5035024 0.9605575
vt 0.5035024 0.9715541
vt 0.5843756 0.9715541
vt 0.5035024 0.9829386
vt 0.5843756 0.9829386
vt 0.5035024 0.9939352
vt 0.5843756 0.9939352
vt 0.3562582 0.9327596
vt 0.356258 0.9547525
vt 0.3672547 0.935706
vt 0.3753047 0.9437559
vt 0.3782512 0.9547525
vt 0.3562582 0.9327596
vt 0.3672547 0.935706
vt 0.356258 0.9547525
vt 0.3753047 0.9437559
vt 0.3782512 0.9547525
vn -0.258819 0.9659258 0
vn -0.258819 0.9659258 0
vn -0.5 0.8660254 0
vn -0.5 0.8660254 0
vn -0.8660254 0.5 0
vn -0.8660254 0.5 0
vn -0.9659258 0.2588191 0
vn -0.9659258 0.2588191 0
vn 0 0 1
vn 0 0 1
vn 0 0 1
vn 0 0 1
vn 0 0 1
vn 0 0 -1
vn 0 0 -1
vn 0 0 -1
vn 0 0 -1
vn 0 0 -1
g Awning_B_0
f 3/3/3 2/2/2 1/1/1
f 4/4/4 3/3/3 1/1/1
f 5/5/5 3/3/3 4/4/4
f 6/6/6 5/5/5 4/4/4
f 7/7/7 5/5/5 6/6/6
f 8/8/8 7/7/7 6/6/6
f 11/11/11 10/10/10 9/9/9
f 12/12/12 10/10/10 11/11/11
f 13/13/13 10/10/10 12/12/12
f 16/16/16 15/15/15 14/14/14
f 16/16/16 17/17/17 15/15/15
f 16/16/16 18/18/18 17/17/17
