g Barrier_High_Shadow
v 1.114251 0.01740585 -0.113503
v 1.212548 0.01740584 0.05675112
v 1.114251 0.01740584 0.1135012
v 1.212549 0.01740584 -0.0567541
v 1.352315 0.01740584 0.1374467
v 1.352316 0.01740585 -0.1374495
v 1.11425 0.01740585 -0.2748888
v 1.114251 0.01740584 0.1135012
v 1.212548 0.01740584 0.05675112
v 1.352315 0.01740584 0.1374467
v 1.11425 0.01740583 0.2748861
v 1.114251 0.01740584 0.1135012
v 1.11425 0.01740583 0.2748861
v 1.018234 0.01740584 0.111776
v -1.759034E-06 0.01740583 0.2748862
v -1.766164E-06 0.01740584 0.111776
v 1.018234 0.01740585 -0.1117778
v -1.766164E-06 0.01740584 0.111776
v -1.775936E-06 0.01740585 -0.1117778
v 1.018234 0.01740584 0.111776
v 1.114251 0.01740584 0.1135012
v 1.114251 0.01740585 -0.113503
v 1.11425 0.01740585 -0.2748888
v 1.018234 0.01740585 -0.1117778
v -1.775936E-06 0.01740585 -0.1117778
v -1.783066E-06 0.01740585 -0.2748888
v -1.114253 0.01740585 -0.1135029
v -1.114253 0.01740584 0.1135013
v -1.21255 0.01740584 0.05675123
v -1.212551 0.01740584 -0.056754
v -1.352316 0.01740584 0.1374468
v -1.352319 0.01740585 -0.1374493
v -1.114252 0.01740585 -0.2748887
v -1.114253 0.01740585 -0.1135029
v -1.114252 0.01740585 -0.2748887
v -1.018236 0.01740585 -0.1117778
v -1.114253 0.01740584 0.1135013
v -1.018236 0.01740584 0.111776
v -1.766164E-06 0.01740584 0.111776
v -1.775936E-06 0.01740585 -0.1117778
v -1.114253 0.01740584 0.1135013
v -1.114252 0.01740583 0.2748862
v -1.352316 0.01740584 0.1374468
v -1.21255 0.01740584 0.05675123
v -1.114253 0.01740584 0.1135013
v -1.018236 0.01740584 0.111776
v -1.114252 0.01740583 0.2748862
v -1.759034E-06 0.01740583 0.2748862
v -1.766164E-06 0.01740584 0.111776
v -1.114252 0.01740585 -0.2748887
v -1.783066E-06 0.01740585 -0.2748888
v -1.775936E-06 0.01740585 -0.1117778
v -1.018236 0.01740585 -0.1117778
vt 0.5 0.75
vt 0.6767768 0.3232234
vt 0.5000001 0.25
vt 0.6767767 0.6767766
vt 0.6767768 0.3232234
vt 0.6767767 0.6767766
vt 0.5 0.75
vt 0.5 0.75
vt 0.6767767 0.6767766
vt 0.6767767 0.6767766
vt 0.5 0.75
vt 0.3232233 0.3232233
vt 0.3232233 0.3232233
vt 0.3674175 0.4299175
vt 0.5000001 0.3232233
vt 0.4116117 0.5366116
vt 0.3674175 0.4299175
vt 0.5000001 0.25
vt 0.4116117 0.5366116
vt 0.5000001 0.25
vt 0.5000001 0.25
vt 0.3232233 0.3232233
vt 0.3232233 0.3232233
vt 0.3674175 0.4299175
vt 0.4116117 0.5366116
vt 0.5000001 0.3232233
vt 0.5 0.75
vt 0.5000001 0.25
vt 0.6767768 0.3232234
vt 0.6767767 0.6767766
vt 0.6767768 0.3232234
vt 0.6767767 0.6767766
vt 0.5 0.75
vt 0.3232233 0.3232233
vt 0.3232233 0.3232233
vt 0.3674175 0.4299175
vt 0.5000001 0.25
vt 0.5000001 0.25
vt 0.5000001 0.25
vt 0.4116117 0.5366116
vt 0.5 0.75
vt 0.5 0.75
vt 0.6767767 0.6767766
vt 0.6767767 0.6767766
vt 0.3232233 0.3232233
vt 0.3674175 0.4299175
vt 0.3232233 0.3232233
vt 0.5000001 0.3232233
vt 0.4116117 0.5366116
vt 0.3232233 0.3232233
vt 0.5000001 0.3232233
vt 0.4116117 0.5366116
vt 0.3674175 0.4299175
vn 0 1 0
vn 0 1 0
vn 0 1 0
vn 0 1 0
vn 0 1 0
vn 0 1 0
vn 0 1 0
vn 0 1 0
vn 0 1 0
vn 0 1 0
vn 0 1 0
vn 0 1 0
vn 0 1 0
vn 0 1 0
vn 0 1 0
vn 0 1 0
vn 0 1 0
vn 0 1 0
vn 0 1 0
vn 0 1 0
vn 0 1 0
vn 0 1 0
vn 0 1 0
vn 0 1 0
vn 0 1 0
vn 0 1 0
vn 0 1 0
vn 0 1 0
vn 0 1 0
vn 0 1 0
vn 0 1 0
vn 0 1 0
vn 0 1 0
vn 0 1 0
vn 0 1 0
vn 0 1 0
vn 0 1 0
vn 0 1 0
vn 0 1 0
vn 0 1 0
vn 0 1 0
vn 0 1 0
vn 0 1 0
vn 0 1 0
vn 0 1 0
vn 0 1 0
vn 0 1 0
vn 0 1 0
vn 0 1 0
vn 0 1 0
vn 0 1 0
vn 0 1 0
vn 0 1 0
g Barrier_High_Shadow_0
f 3/3/3 2/2/2 1/1/1
f 2/2/2 4/4/4 1/1/1
f 2/2/2 5/5/5 4/4/4
f 5/5/5 6/6/6 4/4/4
f 4/4/4 6/6/6 1/1/1
f 6/6/6 7/7/7 1/1/1
f 10/10/10 9/9/9 8/8/8
f 11/11/11 10/10/10 8/8/8
f 14/14/14 13/13/13 12/12/12
f 15/15/15 13/13/13 14/14/14
f 16/16/16 15/15/15 14/14/14
f 19/19/19 18/18/18 17/17/17
f 18/18/18 20/20/20 17/17/17
f 17/17/17 20/20/20 21/21/21
f 22/22/22 17/17/17 21/21/21
f 23/23/23 17/17/17 22/22/22
f 25/25/25 24/24/24 23/23/23
f 26/26/26 25/25/25 23/23/23
f 29/29/29 28/28/28 27/27/27
f 30/30/30 29/29/29 27/27/27
f 31/31/31 29/29/29 30/30/30
f 32/32/32 31/31/31 30/30/30
f 32/32/32 30/30/30 27/27/27
f 33/33/33 32/32/32 27/27/27
f 36/36/36 35/35/35 34/34/34
f 36/36/36 34/34/34 37/37/37
f 38/38/38 36/36/36 37/37/37
f 38/38/38 39/39/39 36/36/36
f 39/39/39 40/40/40 36/36/36
f 43/43/43 42/42/42 41/41/41
f 44/44/44 43/43/43 41/41/41
f 47/47/47 46/46/46 45/45/45
f 47/47/47 48/48/48 46/46/46
f 48/48/48 49/49/49 46/46/46
f 52/52/52 51/51/51 50/50/50
f 53/53/53 52/52/52 50/50/50
