g Block_4_stud
v -0.1814057 0.1156404 -0.08164598
v -0.1180247 0.1688358 -0.04505308
v -0.1180247 0.1156404 -0.04505308
v -0.1814057 0.1688358 -0.08164598
v -0.1814057 0.1156404 -0.1548321
v -0.1814057 0.1688358 -0.1548321
v -0.1180247 0.1156404 -0.1914251
v -0.1180247 0.1688358 -0.1914251
v -0.05464378 0.1156404 -0.154832
v -0.05464378 0.1688358 -0.154832
v -0.05464377 0.1156404 -0.08164598
v -0.05464377 0.1688358 -0.08164598
v -0.1180247 0.1156404 -0.04505308
v -0.1180247 0.1688358 -0.04505308
v -0.1180247 0.1688358 -0.04505308
v -0.05464378 0.1688358 -0.154832
v -0.05464377 0.1688358 -0.08164598
v -0.1814057 0.1688358 -0.1548321
v -0.1814057 0.1688358 -0.08164598
v -0.1180247 0.1688358 -0.1914251
v 0.05565775 0.1156404 0.1554175
v 0.1190387 0.1688358 0.1920105
v 0.1190387 0.1156404 0.1920105
v 0.05565775 0.1688358 0.1554175
v 0.05565775 0.1156404 0.08223139
v 0.05565775 0.1688358 0.08223139
v 0.1190387 0.1156404 0.04563842
v 0.1190387 0.1688358 0.04563842
v 0.1824197 0.1156404 0.08223146
v 0.1824197 0.1688358 0.08223146
v 0.1824197 0.1156404 0.1554175
v 0.1824197 0.1688358 0.1554175
v 0.1190387 0.1156404 0.1920105
v 0.1190387 0.1688358 0.1920105
v 0.1190387 0.1688358 0.1920105
v 0.1824197 0.1688358 0.08223146
v 0.1824197 0.1688358 0.1554175
v 0.05565775 0.1688358 0.08223139
v 0.05565775 0.1688358 0.1554175
v 0.1190387 0.1688358 0.04563842
v -0.2370635 -0.1688358 -0.2370636
v -0.2370635 0.1156404 -0.2370636
v -0.2370635 0.1156404 0.2370635
v -0.2370635 -0.1688358 0.2370635
v -0.2370635 0.1156404 -0.2370636
v 0.2370635 0.1156404 -0.2370635
v 0.2370635 0.1156404 0.2370636
v -0.2370635 0.1156404 0.2370635
v 0.2370635 0.1156404 -0.2370635
v 0.2370635 -0.1688358 -0.2370635
v 0.2370635 -0.1688358 0.2370636
v 0.2370635 0.1156404 0.2370636
v 0.2370635 -0.1688358 -0.2370635
v -0.2370635 -0.1688358 -0.2370636
v -0.2370635 -0.1688358 0.2370635
v 0.2370635 -0.1688358 0.2370636
v -0.2370635 -0.1688358 0.2370635
v -0.2370635 0.1156404 0.2370635
v 0.2370635 0.1156404 0.2370636
v 0.2370635 -0.1688358 0.2370636
v 0.2370635 -0.1688358 -0.2370635
v 0.2370635 0.1156404 -0.2370635
v -0.2370635 0.1156404 -0.2370636
v -0.2370635 -0.1688358 -0.2370636
v -0.1814057 0.1156404 0.1554175
v -0.1180247 0.1688358 0.1920105
v -0.1180247 0.1156404 0.1920105
v -0.1814057 0.1688358 0.1554175
v -0.1814057 0.1156404 0.08223139
v -0.1814057 0.1688358 0.08223139
v -0.1180247 0.1156404 0.04563842
v -0.1180247 0.1688358 0.04563842
v -0.05464377 0.1156404 0.08223146
v -0.05464377 0.1688358 0.08223146
v -0.05464377 0.1156404 0.1554175
v -0.05464377 0.1688358 0.1554175
v -0.1180247 0.1156404 0.1920105
v -0.1180247 0.1688358 0.1920105
v -0.1180247 0.1688358 0.1920105
v -0.05464377 0.1688358 0.08223146
v -0.05464377 0.1688358 0.1554175
v -0.1814057 0.1688358 0.08223139
v -0.1814057 0.1688358 0.1554175
v -0.1180247 0.1688358 0.04563842
v 0.05565768 0.1156404 -0.081646
v 0.1190387 0.1688358 -0.04505308
v 0.1190387 0.1156404 -0.04505308
v 0.05565768 0.1688358 -0.081646
v 0.05565769 0.1156404 -0.1548322
v 0.05565769 0.1688358 -0.1548322
v 0.1190387 0.1156404 -0.1914251
v 0.1190387 0.1688358 -0.1914251
v 0.1824197 0.1156404 -0.154832
v 0.1824197 0.1688358 -0.154832
v 0.1824197 0.1156404 -0.081646
v 0.1824197 0.1688358 -0.081646
v 0.1190387 0.1156404 -0.04505308
v 0.1190387 0.1688358 -0.04505308
v 0.1190387 0.1688358 -0.04505308
v 0.1824197 0.1688358 -0.154832
v 0.1824197 0.1688358 -0.081646
v 0.05565769 0.1688358 -0.1548322
v 0.05565768 0.1688358 -0.081646
v 0.1190387 0.1688358 -0.1914251
vt 0.6940449 0.6312269
vt 0.7153414 0.6467069
vt 0.7153414 0.6312269
vt 0.6940449 0.6467069
vt 0.672748 0.6312269
vt 0.672748 0.6467069
vt 0.65145 0.6312269
vt 0.65145 0.6467069
vt 0.6301521 0.6312269
vt 0.6301521 0.6467069
vt 0.6088542 0.6312269
vt 0.6088542 0.6467069
vt 0.5875572 0.6312269
vt 0.5875572 0.6467069
vt 0.1462791 0.5897487
vt 0.1143329 0.608193
vt 0.1356304 0.608193
vt 0.1143329 0.5713047
vt 0.1356304 0.5713047
vt 0.1036848 0.5897487
vt 0.6940449 0.6312269
vt 0.7153414 0.6467069
vt 0.7153414 0.6312269
vt 0.6940449 0.6467069
vt 0.672748 0.6312269
vt 0.672748 0.6467069
vt 0.65145 0.6312269
vt 0.65145 0.6467069
vt 0.6301521 0.6312269
vt 0.6301521 0.6467069
vt 0.6088542 0.6312269
vt 0.6088542 0.6467069
vt 0.5875572 0.6312269
vt 0.5875572 0.6467069
vt 0.1462791 0.5897487
vt 0.1143329 0.608193
vt 0.1356304 0.608193
vt 0.1143329 0.5713047
vt 0.1356304 0.5713047
vt 0.1036848 0.5897487
vt 0.02306923 0.6227994
vt 0.02306923 0.705583
vt 0.1610418 0.705583
vt 0.1610418 0.6227994
vt 0.05670749 0.7220196
vt 0.05670749 0.8599929
vt 0.1946801 0.8599929
vt 0.1946801 0.7220196
vt 0.05670749 0.8967038
vt 0.05670749 0.9794874
vt 0.1946801 0.9794874
vt 0.1946801 0.8967038
vt 0.4651337 0.136999
vt 0.4651337 0.2749716
vt 0.6031063 0.2749716
vt 0.6031063 0.136999
vt 0.02651202 0.3269378
vt 0.02651202 0.4097216
vt 0.1644848 0.4097216
vt 0.1644848 0.3269378
vt 0.0240618 0.2185203
vt 0.0240618 0.301304
vt 0.1620351 0.301304
vt 0.1620351 0.2185203
vt 0.6940449 0.6312269
vt 0.7153414 0.6467069
vt 0.7153414 0.6312269
vt 0.6940449 0.6467069
vt 0.672748 0.6312269
vt 0.672748 0.6467069
vt 0.65145 0.6312269
vt 0.65145 0.6467069
vt 0.6301521 0.6312269
vt 0.6301521 0.6467069
vt 0.6088542 0.6312269
vt 0.6088542 0.6467069
vt 0.5875572 0.6312269
vt 0.5875572 0.6467069
vt 0.1462791 0.5897487
vt 0.1143329 0.608193
vt 0.1356304 0.608193
vt 0.1143329 0.5713047
vt 0.1356304 0.5713047
vt 0.1036848 0.5897487
vt 0.6940449 0.6312269
vt 0.7153414 0.6467069
vt 0.7153414 0.6312269
vt 0.6940449 0.6467069
vt 0.672748 0.6312269
vt 0.672748 0.6467069
vt 0.65145 0.6312269
vt 0.65145 0.6467069
vt 0.6301521 0.6312269
vt 0.6301521 0.6467069
vt 0.6088542 0.6312269
vt 0.6088542 0.6467069
vt 0.5875572 0.6312269
vt 0.5875572 0.6467069
vt 0.1462791 0.5897487
vt 0.1143329 0.608193
vt 0.1356304 0.608193
vt 0.1143329 0.5713047
vt 0.1356304 0.5713047
vt 0.1036848 0.5897487
vn -0.8660253 0 0.5000004
vn 0 0 1
vn 0 0 1
vn -0.8660253 0 0.5000004
vn -0.8660253 0 -0.5000002
vn -0.8660253 0 -0.5000002
vn 1.134456E-06 0 -1
vn 1.134456E-06 0 -1
vn 0.8660256 0 -0.4999996
vn 0.8660256 0 -0.4999996
vn 0.8660253 0 0.5000003
vn 0.8660253 0 0.5000003
vn 0 0 1
vn 0 0 1
vn 0 1 -3.289522E-07
vn 0 1 -1.644762E-07
vn 0 1 0
vn 0 1 -1.644757E-07
vn 0 1 0
vn 0 1 1.315808E-06
vn -0.8660255 0 0.4999998
vn 0 0 1
vn 0 0 1
vn -0.8660255 0 0.4999998
vn -0.8660255 0 -0.4999998
vn -0.8660255 0 -0.4999998
vn 5.582245E-07 0 -1
vn 5.582245E-07 0 -1
vn 0.8660253 0 -0.5000002
vn 0.8660253 0 -0.5000002
vn 0.8660253 0 0.5000004
vn 0.8660253 0 0.5000004
vn 0 0 1
vn 0 0 1
vn 0 1 0
vn 0 1 0
vn 0 1 -6.579038E-07
vn 0 1 0
vn 0 1 0
vn 0 1 -6.57905E-07
vn -1 0 0
vn -1 0 0
vn -1 0 0
vn -1 0 0
vn 0 1 0
vn 0 1 0
vn 0 1 0
vn 0 1 0
vn 1 0 0
vn 1 0 0
vn 1 0 0
vn 1 0 0
vn 0 -1 0
vn 0 -1 0
vn 0 -1 0
vn 0 -1 0
vn 0 0 1
vn 0 0 1
vn 0 0 1
vn 0 0 1
vn 0 0 -1
vn 0 0 -1
vn 0 0 -1
vn 0 0 -1
vn -0.8660253 0 0.5000004
vn 0 0 1
vn 0 0 1
vn -0.8660253 0 0.5000004
vn -0.8660253 0 -0.5000004
vn -0.8660253 0 -0.5000004
vn 5.222097E-07 0 -1
vn 5.222097E-07 0 -1
vn 0.8660255 0 -0.4999997
vn 0.8660255 0 -0.4999997
vn 0.8660253 0 0.5000001
vn 0.8660253 0 0.5000001
vn 0 0 1
vn 0 0 1
vn 0 1 -1.644761E-07
vn 0 1 0
vn 0 1 0
vn 0 1 0
vn 0 1 0
vn 0 1 6.579048E-07
vn -0.8660253 0 0.5000001
vn 0 0 1
vn 0 0 1
vn -0.8660253 0 0.5000001
vn -0.8660254 0 -0.5
vn -0.8660254 0 -0.5
vn 1.116449E-06 0 -1
vn 1.116449E-06 0 -1
vn 0.8660254 0 -0.5
vn 0.8660254 0 -0.5
vn 0.8660251 0 0.5000004
vn 0.8660251 0 0.5000004
vn 0 0 1
vn 0 0 1
vn 0 1 0
vn 0 1 0
vn 0 1 0
vn 0 1 0
vn 0 1 -6.579029E-07
vn 0 1 0
g Block_4_stud_0
f 3/3/3 2/2/2 1/1/1
f 2/2/2 4/4/4 1/1/1
f 1/1/1 4/4/4 5/5/5
f 4/4/4 6/6/6 5/5/5
f 5/5/5 6/6/6 7/7/7
f 6/6/6 8/8/8 7/7/7
f 7/7/7 8/8/8 9/9/9
f 8/8/8 10/10/10 9/9/9
f 9/9/9 10/10/10 11/11/11
f 10/10/10 12/12/12 11/11/11
f 11/11/11 12/12/12 13/13/13
f 12/12/12 14/14/14 13/13/13
f 17/17/17 16/16/16 15/15/15
f 16/16/16 18/18/18 15/15/15
f 18/18/18 19/19/19 15/15/15
f 16/16/16 20/20/20 18/18/18
f 23/23/23 22/22/22 21/21/21
f 22/22/22 24/24/24 21/21/21
f 21/21/21 24/24/24 25/25/25
f 24/24/24 26/26/26 25/25/25
f 25/25/25 26/26/26 27/27/27
f 26/26/26 28/28/28 27/27/27
f 27/27/27 28/28/28 29/29/29
f 28/28/28 30/30/30 29/29/29
f 29/29/29 30/30/30 31/31/31
f 30/30/30 32/32/32 31/31/31
f 31/31/31 32/32/32 33/33/33
f 32/32/32 34/34/34 33/33/33
f 37/37/37 36/36/36 35/35/35
f 36/36/36 38/38/38 35/35/35
f 38/38/38 39/39/39 35/35/35
f 36/36/36 40/40/40 38/38/38
f 43/43/43 42/42/42 41/41/41
f 44/44/44 43/43/43 41/41/41
f 47/47/47 46/46/46 45/45/45
f 48/48/48 47/47/47 45/45/45
f 51/51/51 50/50/50 49/49/49
f 52/52/52 51/51/51 49/49/49
f 55/55/55 54/54/54 53/53/53
f 56/56/56 55/55/55 53/53/53
f 59/59/59 58/58/58 57/57/57
f 60/60/60 59/59/59 57/57/57
f 63/63/63 62/62/62 61/61/61
f 64/64/64 63/63/63 61/61/61
f 67/67/67 66/66/66 65/65/65
f 66/66/66 68/68/68 65/65/65
f 65/65/65 68/68/68 69/69/69
f 68/68/68 70/70/70 69/69/69
f 69/69/69 70/70/70 71/71/71
f 70/70/70 72/72/72 71/71/71
f 71/71/71 72/72/72 73/73/73
f 72/72/72 74/74/74 73/73/73
f 73/73/73 74/74/74 75/75/75
f 74/74/74 76/76/76 75/75/75
f 75/75/75 76/76/76 77/77/77
f 76/76/76 78/78/78 77/77/77
f 81/81/81 80/80/80 79/79/79
f 80/80/80 82/82/82 79/79/79
f 82/82/82 83/83/83 79/79/79
f 80/80/80 84/84/84 82/82/82
f 87/87/87 86/86/86 85/85/85
f 86/86/86 88/88/88 85/85/85
f 85/85/85 88/88/88 89/89/89
f 88/88/88 90/90/90 89/89/89
f 89/89/89 90/90/90 91/91/91
f 90/90/90 92/92/92 91/91/91
f 91/91/91 92/92/92 93/93/93
f 92/92/92 94/94/94 93/93/93
f 93/93/93 94/94/94 95/95/95
f 94/94/94 96/96/96 95/95/95
f 95/95/95 96/96/96 97/97/97
f 96/96/96 98/98/98 97/97/97
f 101/101/101 100/100/100 99/99/99
f 100/100/100 102/102/102 99/99/99
f 102/102/102 103/103/103 99/99/99
f 100/100/100 104/104/104 102/102/102
