g Bolt
v 0.3216599 -0.7454022 -1.251463E-07
v 6.6546E-08 -0.7454022 -0.32166
v -0.3216598 -0.7454022 -1.532667E-07
v 0.3216599 -0.7454022 -1.251463E-07
v -0.3216598 -0.7454022 -1.532667E-07
v 4.865005E-08 -0.7454022 0.3216597
v -0.3216598 0.3802389 6.904533E-09
v 6.6546E-08 -0.7454022 -0.32166
v 4.71614E-08 0.380239 -0.3216598
v -0.3216598 -0.7454022 -1.532667E-07
v 2.926546E-08 0.3802389 0.3216599
v 4.865005E-08 -0.7454022 0.3216597
v 0.3216599 0.3802389 3.502494E-08
v 0.3216599 -0.7454022 -1.251463E-07
v 4.71614E-08 0.380239 -0.3216598
v 6.6546E-08 -0.7454022 -0.32166
v 0.6130068 0.3283797 3.183566E-08
v 0.3065034 0.7454022 -0.5308794
v 0.3065034 0.3283797 -0.5308795
v 0.6130068 0.7454022 1.200391E-07
v 0.3065034 0.3283797 -0.5308795
v -0.3065034 0.7454022 -0.5308793
v -0.3065034 0.3283797 -0.5308794
v 0.3065034 0.7454022 -0.5308794
v -0.3065034 0.3283797 -0.5308794
v -0.6130068 0.7454022 1.736299E-07
v -0.6130068 0.3283797 8.54264E-08
v -0.3065034 0.7454022 -0.5308793
v -0.6130068 0.3283797 8.54264E-08
v -0.3065033 0.7454022 0.5308796
v -0.3065033 0.3283797 0.5308795
v -0.6130068 0.7454022 1.736299E-07
v -0.3065033 0.3283797 0.5308795
v 0.3065034 0.7454021 0.5308796
v 0.3065034 0.3283797 0.5308795
v -0.3065033 0.7454022 0.5308796
v 0.3065034 0.3283797 0.5308795
v 0.6130068 0.7454022 1.200391E-07
v 0.6130068 0.3283797 3.183566E-08
v 0.3065034 0.7454021 0.5308796
v -0.3065033 0.3283797 0.5308795
v 0.6130068 0.3283797 3.183566E-08
v -0.6130068 0.3283797 8.54264E-08
v 0.3065034 0.3283797 0.5308795
v -0.6130068 0.7454022 1.736299E-07
v 0.3065034 0.7454021 0.5308796
v -0.3065033 0.7454022 0.5308796
v 0.6130068 0.7454022 1.200391E-07
v -0.3065034 0.3283797 -0.5308794
v 0.6130068 0.3283797 3.183566E-08
v 0.3065034 0.3283797 -0.5308795
v -0.6130068 0.3283797 8.54264E-08
v 0.3065034 0.7454022 -0.5308794
v -0.6130068 0.7454022 1.736299E-07
v -0.3065034 0.7454022 -0.5308793
v 0.6130068 0.7454022 1.200391E-07
vt 0.7657049 0.875088
vt 0.7657049 0.9814049
vt 0.6486103 0.9814049
vt 0.7657049 0.875088
vt 0.6486103 0.9814049
vt 0.7657049 0.9814049
vt 0.0180742 0.1260365
vt 0.3483169 0.03166733
vt 0.0180742 0.03166733
vt 0.3483169 0.1260364
vt 0.0180742 0.2204056
vt 0.3483169 0.2204056
vt 0.0180742 0.3147746
vt 0.3483169 0.3147747
vt 0.0180742 0.4091438
vt 0.3483169 0.4091439
vt 0.8636547 0.8128554
vt 0.9742075 0.6721191
vt 0.8636547 0.6721191
vt 0.9742075 0.8128554
vt 0.6968082 0.5023874
vt 0.5455773 0.3995064
vt 0.5455773 0.5023874
vt 0.6968082 0.3995064
vt 0.9778587 0.15247
vt 0.8371223 0.04191726
vt 0.8371224 0.15247
vt 0.9778587 0.04191726
vt 0.5141466 0.8251738
vt 0.3734103 0.7146209
vt 0.3734103 0.8251738
vt 0.5141465 0.7146209
vt 0.7354722 0.8328296
vt 0.5842412 0.7299486
vt 0.5842412 0.8328296
vt 0.7354721 0.7299486
vt 0.574794 0.9802992
vt 0.4340576 0.8697464
vt 0.4340576 0.9802992
vt 0.574794 0.8697465
vt 0.6232854 0.02987562
vt 0.3964388 0.1608455
vt 0.6989009 0.1608455
vt 0.4720544 0.02987562
vt 0.02523673 0.918178
vt 0.2520833 0.7872081
vt 0.1008523 0.7872081
vt 0.3276989 0.918178
vt 0.6232854 0.02987562
vt 0.3964388 0.1608455
vt 0.4720544 0.02987562
vt 0.6989009 0.1608455
vt 0.2520833 0.7872081
vt 0.02523673 0.918178
vt 0.1008523 0.7872081
vt 0.3276989 0.918178
vn 0 -1 0
vn 0 -1 0
vn 0 -1 0
vn 0 -1 0
vn 0 -1 0
vn 0 -1 0
vn -1 0 0
vn 0 0 -1
vn 0 0 -1
vn -1 0 0
vn 0 0 1
vn 0 0 1
vn 1 0 0
vn 1 0 0
vn 0 0 -1
vn 0 0 -1
vn 0.8660255 0 -0.4999999
vn 0.8660255 0 -0.4999999
vn 0.8660255 0 -0.4999999
vn 0.8660254 0 -0.5
vn 0 0 -1
vn 0 0 -1
vn 0 0 -1
vn 0 0 -1
vn -0.8660254 0 -0.5
vn -0.8660254 0 -0.5
vn -0.8660254 0 -0.5
vn -0.8660254 0 -0.5
vn -0.8660253 0 0.5000001
vn -0.8660253 0 0.5000001
vn -0.8660253 0 0.5000001
vn -0.8660253 0 0.5000002
vn 0 0 1
vn 0 0 1
vn 0 0 1
vn 0 0 1
vn 0.8660253 0 0.5000001
vn 0.8660254 0 0.5
vn 0.8660254 0 0.5
vn 0.8660254 0 0.5
vn 0 -1 0
vn 0 -1 0
vn 0 -1 0
vn 0 -1 0
vn 0 1 0
vn 0 1 0
vn 0 1 0
vn 0 1 0
vn 0 -1 0
vn 0 -1 0
vn 0 -1 0
vn 0 -1 0
vn 0 1 0
vn 0 1 0
vn 0 1 0
vn 0 1 0
g Bolt_0
f 3/3/3 2/2/2 1/1/1
f 6/6/6 5/5/5 4/4/4
f 9/9/9 8/8/8 7/7/7
f 10/10/10 7/7/7 8/8/8
f 7/7/7 10/10/10 11/11/11
f 12/12/12 11/11/11 10/10/10
f 11/11/11 12/12/12 13/13/13
f 14/14/14 13/13/13 12/12/12
f 13/13/13 14/14/14 15/15/15
f 16/16/16 15/15/15 14/14/14
f 19/19/19 18/18/18 17/17/17
f 20/20/20 17/17/17 18/18/18
f 23/23/23 22/22/22 21/21/21
f 24/24/24 21/21/21 22/22/22
f 27/27/27 26/26/26 25/25/25
f 28/28/28 25/25/25 26/26/26
f 31/31/31 30/30/30 29/29/29
f 32/32/32 29/29/29 30/30/30
f 35/35/35 34/34/34 33/33/33
f 36/36/36 33/33/33 34/34/34
f 39/39/39 38/38/38 37/37/37
f 40/40/40 37/37/37 38/38/38
f 43/43/43 42/42/42 41/41/41
f 44/44/44 41/41/41 42/42/42
f 47/47/47 46/46/46 45/45/45
f 48/48/48 45/45/45 46/46/46
f 51/51/51 50/50/50 49/49/49
f 52/52/52 49/49/49 50/50/50
f 55/55/55 54/54/54 53/53/53
f 56/56/56 53/53/53 54/54/54
