g Bolt
v 0.1148732 -0.0603066 -0.0422271
v 0.3755512 -0.427795 -0.2995451
v -0.09093507 -0.05335823 0.09700113
v -0.2967433 0.07985004 0.05591153
v 0.3755512 -0.427795 -0.2995451
v -0.09093504 0.07290165 -0.08331671
v -0.09093507 -0.05335823 0.09700113
v 0.3755512 -0.427795 -0.2995451
v -0.2967433 0.07985004 0.05591153
v -0.09093504 0.07290165 -0.08331671
v 0.3755512 -0.427795 -0.2995451
v 0.1148732 -0.0603066 -0.0422271
v 0.1321113 0.4277951 0.2995453
v 0.145202 -0.06192884 0.09099995
v -0.1217202 0.3646652 0.3897041
v 0.3700855 -0.07758599 -0.05432622
v 0.145202 0.06433102 -0.08931788
v 0.1321113 0.4277951 0.2995453
v -0.1217201 0.490925 0.2093863
v 0.3700855 -0.07758599 -0.05432622
v -0.3755516 0.4277951 0.2995452
v -0.1217201 0.490925 0.2093863
v -0.1217202 0.3646652 0.3897041
v 0.1321113 0.4277951 0.2995453
v 0.145202 -0.06192884 0.09099995
v 0.1148732 -0.0603066 -0.0422271
v -0.09093507 -0.05335823 0.09700113
v 0.3700855 -0.07758599 -0.05432622
v -0.07968156 0.07998817 0.05600828
v -0.09093504 0.07290165 -0.08331671
v 0.145202 0.06433102 -0.08931788
v -0.2967433 0.07985004 0.05591153
v -0.1217202 0.3646652 0.3897041
v -0.07968156 0.07998817 0.05600828
v -0.3755516 0.4277951 0.2995452
v 0.145202 -0.06192884 0.09099995
v -0.07968156 0.07998817 0.05600828
v -0.1217201 0.490925 0.2093863
v -0.3755516 0.4277951 0.2995452
v 0.145202 0.06433102 -0.08931788
v -0.07968156 0.07998817 0.05600828
v -0.09093507 -0.05335823 0.09700113
v -0.2967433 0.07985004 0.05591153
v 0.145202 -0.06192884 0.09099995
v 0.145202 0.06433102 -0.08931788
v 0.1148732 -0.0603066 -0.0422271
v 0.3700855 -0.07758599 -0.05432622
v -0.09093504 0.07290165 -0.08331671
vt 0.6878554 0.8881108
vt 0.6146672 0.8496224
vt 0.6878554 0.8496223
vt 0.6878554 0.8070686
vt 0.6146672 0.8496224
vt 0.6878554 0.8496223
vt 0.6878554 0.8496223
vt 0.6146672 0.8496224
vt 0.6878554 0.8070686
vt 0.6878554 0.8496223
vt 0.6146672 0.8496224
vt 0.6878554 0.8881108
vt 0.7989246 0.8881108
vt 0.7070546 0.8496223
vt 0.7989246 0.8496223
vt 0.7070546 0.8881108
vt 0.7070546 0.8496223
vt 0.7989246 0.8881108
vt 0.7989246 0.8496223
vt 0.7070546 0.8881108
vt 0.7989246 0.8070686
vt 0.7989246 0.8496223
vt 0.7989246 0.8496223
vt 0.7989246 0.8881108
vt 0.7070546 0.8496223
vt 0.6878554 0.8881108
vt 0.6878554 0.8496223
vt 0.7070546 0.8881108
vt 0.7070546 0.8070686
vt 0.6878554 0.8496223
vt 0.7070546 0.8496223
vt 0.6878554 0.8070686
vt 0.7989246 0.8496223
vt 0.7070546 0.8070686
vt 0.7989246 0.8070686
vt 0.7070546 0.8496223
vt 0.7070546 0.8070686
vt 0.7989246 0.8496223
vt 0.7989246 0.8070686
vt 0.7070546 0.8496223
vt 0.7070546 0.8070686
vt 0.6878554 0.8496223
vt 0.6878554 0.8070686
vt 0.7070546 0.8496223
vt 0.7070546 0.8496223
vt 0.6878554 0.8881108
vt 0.7070546 0.8881108
vt 0.6878554 0.8496223
vn 0.5464333 -0.1844186 0.8169458
vn 0.5464333 -0.1844186 0.8169458
vn 0.5464333 -0.1844186 0.8169457
vn -0.5563329 -0.1667683 -0.8140528
vn -0.5563329 -0.1667683 -0.8140528
vn -0.5563329 -0.1667683 -0.8140528
vn -0.5563332 -0.8219975 0.1217115
vn -0.5563331 -0.8219975 0.1217115
vn -0.5563332 -0.8219975 0.1217115
vn 0.5464335 0.7046028 -0.4527088
vn 0.5464336 0.7046028 -0.4527088
vn 0.5464335 0.7046029 -0.4527088
vn 0.412536 -0.3475474 0.8420361
vn 0.4746162 -0.3340874 0.8143249
vn 0.3897997 -0.3519661 0.8509853
vn 0.4963098 -0.3288731 0.8034419
vn 0.4746165 0.6509503 -0.592455
vn 0.4125363 0.6723866 -0.6145812
vn 0.3898 0.6792848 -0.6217942
vn 0.4963102 0.6425071 -0.583833
vn 0 0.8191521 0.5735763
vn 0 0.8191521 0.5735763
vn 0 0.8191521 0.5735763
vn 0 0.8191521 0.5735763
vn -0.05099558 -0.9986987 -0.0005516356
vn -0.05304911 -0.9985918 -8.28519E-05
vn -0.03636963 -0.9993309 -0.003888892
vn -0.06740015 -0.9977209 0.003194727
vn 0.01426425 0.9985482 -0.0519415
vn 0.02030775 0.9984185 -0.05242305
vn 0.03485937 0.9979552 -0.05357483
vn -0.0006129061 0.9987112 -0.05074815
vn -0.4129727 -0.7179024 0.5604192
vn -0.4838161 -0.6949649 0.5319263
vn -0.3833631 -0.7259383 0.5710047
vn -0.5124683 -0.6840878 0.5190374
vn -0.4838159 0.262155 -0.8349831
vn -0.4129725 0.2810844 -0.8662825
vn -0.3833629 0.2882832 -0.8774541
vn -0.5124682 0.2537636 -0.8203539
vn 0.01426409 0.2927148 0.9560933
vn 0.02030758 0.2922179 0.956136
vn -0.0006130566 0.293892 0.9558384
vn 0.03485919 0.2909772 0.9560947
vn -0.05099545 -0.3420937 -0.9382811
vn -0.05304899 -0.3416167 -0.938341
vn -0.06740001 -0.3382388 -0.9386436
vn -0.03636952 -0.345446 -0.9377337
g Bolt_0
f 3/3/3 2/2/2 1/1/1
f 6/6/6 5/5/5 4/4/4
f 9/9/9 8/8/8 7/7/7
f 12/12/12 11/11/11 10/10/10
f 15/15/15 14/14/14 13/13/13
f 16/16/16 13/13/13 14/14/14
f 19/19/19 18/18/18 17/17/17
f 20/20/20 17/17/17 18/18/18
f 23/23/23 22/22/22 21/21/21
f 24/24/24 22/22/22 23/23/23
f 27/27/27 26/26/26 25/25/25
f 28/28/28 25/25/25 26/26/26
f 31/31/31 30/30/30 29/29/29
f 32/32/32 29/29/29 30/30/30
f 35/35/35 34/34/34 33/33/33
f 36/36/36 33/33/33 34/34/34
f 39/39/39 38/38/38 37/37/37
f 40/40/40 37/37/37 38/38/38
f 43/43/43 42/42/42 41/41/41
f 44/44/44 41/41/41 42/42/42
f 47/47/47 46/46/46 45/45/45
f 48/48/48 45/45/45 46/46/46
