g Brush
v -0.4248158 0.4121021 0.2885569
v -0.351012 0.4336928 0.3036749
v -0.4073005 0.3528571 0.3367747
v -0.3034871 0.3548253 0.3550043
v -0.2724471 0.4262239 0.2984452
v -0.3703497 0.285626 0.3560157
v -0.2058852 0.3938169 0.2757536
v -0.2431257 0.3081385 0.3436351
v -0.3233676 0.2251004 0.3448377
v -0.02877603 0.2292683 0.1605355
v -0.06760761 0.1399294 0.2313172
v 0.113412 0.06221904 0.04356638
v -0.1512778 0.05334347 0.2325712
v 0.07996155 -0.01473943 0.1045389
v 0.007886436 -0.08932627 0.1056194
v -0.4248158 0.4121021 0.2885569
v -0.4073003 0.437149 0.2163933
v -0.351012 0.4336928 0.3036749
v -0.303487 0.4549523 0.2120081
v -0.3703495 0.4322353 0.1466359
v -0.2724471 0.4262239 0.2984452
v -0.3233674 0.4010305 0.0935837
v -0.2431256 0.4283009 0.1720254
v -0.2058852 0.3938169 0.2757536
v -0.1512776 0.23679 -0.02941761
v -0.06760745 0.2652256 0.05237549
v 0.00788658 0.06869843 -0.1200631
v -0.02877603 0.2292683 0.1605355
v 0.07996163 0.09319317 -0.04960475
v 0.113412 0.06221904 0.04356638
v -0.4248158 0.4121021 0.2885569
v -0.4635888 0.3563133 0.249493
v -0.4073003 0.437149 0.2163933
v -0.4372124 0.3630362 0.1476475
v -0.4682524 0.2916373 0.2042064
v -0.3703495 0.4322353 0.1466359
v -0.4408499 0.2323139 0.1626677
v -0.4036094 0.3179924 0.09478635
v -0.3233674 0.4010305 0.0935837
v -0.2737795 0.06086523 0.04261804
v -0.2349479 0.1502042 -0.0281636
v -0.09763903 -0.0828469 -0.05801013
v -0.1512776 0.23679 -0.02941761
v -0.06418848 -0.005888382 -0.1189826
v 0.00788658 0.06869843 -0.1200631
v -0.4248158 0.4121021 0.2885569
v -0.4073005 0.3528571 0.3367747
v -0.4635888 0.3563133 0.249493
v -0.4372126 0.2629091 0.2906438
v -0.3703497 0.285626 0.3560157
v -0.4682524 0.2916373 0.2042064
v -0.3233676 0.2251004 0.3448377
v -0.4036096 0.1978299 0.266396
v -0.4408499 0.2323139 0.1626677
v -0.1512778 0.05334347 0.2325712
v -0.2349481 0.0249078 0.150778
v 0.007886436 -0.08932627 0.1056194
v -0.2737795 0.06086523 0.04261804
v -0.06418868 -0.1138211 0.03516096
v -0.09763903 -0.0828469 -0.05801013
v 0.007886436 -0.08932627 0.1056194
v 0.07996155 -0.01473943 0.1045389
v 0.1003015 -0.1576158 0.01113018
v 0.1765397 -0.04812999 -0.0337008
v 0.113412 0.06221904 0.04356638
v 0.1873431 -0.08221018 -0.057564
v 0.1252528 -0.1709189 -0.02170838
v 0.113412 0.06221904 0.04356638
v 0.07996163 0.09319317 -0.04960475
v 0.1765397 -0.04812999 -0.0337008
v 0.1003016 -0.04344883 -0.151917
v 0.00788658 0.06869843 -0.1200631
v 0.1873431 -0.08221018 -0.057564
v 0.1252529 -0.078857 -0.1531864
v 0.00788658 0.06869843 -0.1200631
v -0.06418848 -0.005888382 -0.1189826
v 0.1003016 -0.04344883 -0.151917
v 0.02406335 -0.1529347 -0.107086
v -0.09763903 -0.0828469 -0.05801013
v 0.06316257 -0.1675657 -0.1173307
v 0.1252529 -0.078857 -0.1531864
v -0.09763903 -0.0828469 -0.05801013
v -0.06418868 -0.1138211 0.03516096
v 0.02406335 -0.1529347 -0.107086
v 0.1003015 -0.1576158 0.01113018
v 0.007886436 -0.08932627 0.1056194
v 0.06316257 -0.1675657 -0.1173307
v 0.1252528 -0.1709189 -0.02170838
v 0.1252528 -0.1709189 -0.02170838
v 0.1873431 -0.08221018 -0.057564
v 0.2121075 -0.1494486 -0.0009848645
v 0.242706 -0.07971244 -0.05581504
v 0.2913944 -0.09181505 -0.06428933
v 0.2541331 -0.1768445 0.002634762
v 0.3380226 -0.120822 -0.0846002
v 0.1460654 -0.2174261 -0.0005175413
v 0.2981273 -0.2131231 -0.01100389
v 0.3793073 -0.1711636 -0.1198498
v 0.08002333 -0.2402366 -0.06455555
v 0.06316257 -0.1675657 -0.1173307
v 0.04942494 -0.2125641 -0.1488391
v 0.1738419 -0.2596078 0.003372935
v 0.09355071 -0.2872208 -0.07465177
v 0.05628956 -0.2534143 -0.1774427
v 0.3412477 -0.2618951 -0.04431163
v 0.4128455 -0.2253817 -0.1578137
v 0.212165 -0.3022083 -0.009230863
v 0.1262026 -0.3310111 -0.0935501
v 0.08630745 -0.2934218 -0.2054563
v 0.3812545 -0.3050595 -0.08912037
v 0.4392318 -0.2659907 -0.1862484
v 0.2592406 -0.3469285 -0.0393106
v 0.1772335 -0.3713121 -0.1209265
v 0.139174 -0.3313613 -0.2320218
v 0.4190227 -0.3276762 -0.13541
v 0.4634483 -0.2971806 -0.2080877
v 0.3131855 -0.3778609 -0.08232312
v 0.2451165 -0.396373 -0.153059
v 0.2135257 -0.3590738 -0.2514262
v 0.4350142 -0.3778746 -0.1800008
v 0.4990124 -0.3295051 -0.2307217
v 0.3743953 -0.3841521 -0.1323996
v 0.3288383 -0.3995029 -0.1866303
v 0.3075927 -0.3723111 -0.260695
v 0.4025616 -0.3757999 -0.2631377
v 0.4930113 -0.3629367 -0.2232234
v 0.5146183 -0.3503778 -0.2453369
v 0.486027 -0.3664984 -0.2566247
v 0.1252529 -0.078857 -0.1531864
v 0.06316257 -0.1675657 -0.1173307
v 0.08002347 -0.142828 -0.2036693
v 0.04942494 -0.2125641 -0.1488391
v 0.05628956 -0.2534143 -0.1774427
v 0.09355091 -0.1683849 -0.2443668
v 0.08630745 -0.2934218 -0.2054563
v 0.1460656 -0.07485054 -0.2041364
v 0.1262028 -0.2011207 -0.2790526
v 0.139174 -0.3313613 -0.2320218
v 0.2121076 -0.05204 -0.1400986
v 0.1873431 -0.08221018 -0.057564
v 0.242706 -0.07971244 -0.05581504
v 0.173842 -0.08562159 -0.2451049
v 0.2541332 -0.05800864 -0.1670803
v 0.2913944 -0.09181505 -0.06428933
v 0.1772337 -0.2406299 -0.3075599
v 0.2135257 -0.3590738 -0.2514262
v 0.2121652 -0.1120356 -0.2808255
v 0.2981274 -0.08323282 -0.1965064
v 0.3380226 -0.120822 -0.0846002
v 0.2451167 -0.2793959 -0.3201195
v 0.3075927 -0.3723111 -0.260695
v 0.2592408 -0.1555965 -0.3125609
v 0.3412477 -0.1312129 -0.2309451
v 0.3793073 -0.1711636 -0.1198498
v 0.3288384 -0.3120131 -0.3115785
v 0.4025616 -0.3757999 -0.2631377
v 0.3131857 -0.2065946 -0.3269168
v 0.3812546 -0.1880825 -0.2561809
v 0.4128455 -0.2253817 -0.1578137
v 0.4350143 -0.2983862 -0.2935218
v 0.486027 -0.3664984 -0.2566247
v 0.3743954 -0.2558028 -0.3157012
v 0.4190227 -0.2393158 -0.2616016
v 0.4392318 -0.2659907 -0.1862484
v 0.4634483 -0.2971806 -0.2080877
v 0.4930113 -0.3338933 -0.2647017
v 0.5146183 -0.3503778 -0.2453369
v 0.4990124 -0.3295051 -0.2307217
vt 0.6984763 0.02786602
vt 0.7072465 0.04106868
vt 0.6900699 0.04106868
vt 0.6984763 0.05676604
vt 0.7072465 0.05676604
vt 0.6900699 0.05676604
vt 0.7072465 0.0701449
vt 0.6984763 0.0701449
vt 0.6900699 0.0701449
vt 0.7072465 0.1191666
vt 0.6984763 0.1191666
vt 0.7072465 0.1650832
vt 0.6900699 0.1191666
vt 0.6984763 0.1650832
vt 0.6900699 0.1650832
vt 0.6984763 0.02786602
vt 0.6900699 0.04106868
vt 0.7072465 0.04106868
vt 0.6984763 0.05676604
vt 0.6900699 0.05676604
vt 0.7072465 0.05676604
vt 0.6900699 0.0701449
vt 0.6984763 0.0701449
vt 0.7072465 0.0701449
vt 0.6900699 0.1191666
vt 0.6984763 0.1191666
vt 0.6900699 0.1650832
vt 0.7072465 0.1191666
vt 0.6984763 0.1650832
vt 0.7072465 0.1650832
vt 0.6984763 0.02786602
vt 0.7072465 0.04106868
vt 0.6900699 0.04106868
vt 0.6984763 0.05676604
vt 0.7072465 0.05676604
vt 0.6900699 0.05676604
vt 0.7072465 0.0701449
vt 0.6984763 0.0701449
vt 0.6900699 0.0701449
vt 0.7072465 0.1191666
vt 0.6984763 0.1191666
vt 0.7072465 0.1650832
vt 0.6900699 0.1191666
vt 0.6984763 0.1650832
vt 0.6900699 0.1650832
vt 0.6984763 0.02786602
vt 0.6900699 0.04106868
vt 0.7072465 0.04106868
vt 0.6984763 0.05676604
vt 0.6900699 0.05676604
vt 0.7072465 0.05676604
vt 0.6900699 0.0701449
vt 0.6984763 0.0701449
vt 0.7072465 0.0701449
vt 0.6900699 0.1191666
vt 0.6984763 0.1191666
vt 0.6900699 0.1650832
vt 0.7072465 0.1191666
vt 0.6984763 0.1650832
vt 0.7072465 0.1650832
vt 0.6907834 0.1923574
vt 0.6991898 0.1923574
vt 0.6907834 0.2348907
vt 0.70796 0.2348907
vt 0.70796 0.1923574
vt 0.7080107 0.2529041
vt 0.6907834 0.2529041
vt 0.70796 0.1923574
vt 0.6991898 0.1923574
vt 0.70796 0.2348907
vt 0.6907834 0.2348907
vt 0.6907834 0.1923574
vt 0.7080107 0.2529041
vt 0.6907834 0.2529041
vt 0.6907834 0.1923574
vt 0.6991898 0.1923574
vt 0.6907834 0.2348907
vt 0.70796 0.2348907
vt 0.70796 0.1923574
vt 0.7080107 0.2529041
vt 0.6907834 0.2529041
vt 0.70796 0.1923574
vt 0.6991898 0.1923574
vt 0.70796 0.2348907
vt 0.6907834 0.2348907
vt 0.6907834 0.1923574
vt 0.7080107 0.2529041
vt 0.6907834 0.2529041
vt 0.2922592 0.7664694
vt 0.2760147 0.7664694
vt 0.2751274 0.772727
vt 0.2671221 0.772727
vt 0.2615504 0.7807464
vt 0.271299 0.7807464
vt 0.2589535 0.7914916
vt 0.2924059 0.772727
vt 0.2693808 0.7914799
vt 0.2605323 0.805345
vt 0.3096842 0.772727
vt 0.3085037 0.7664694
vt 0.3176896 0.772727
vt 0.2923051 0.7807464
vt 0.3133116 0.7807464
vt 0.32306 0.7807462
vt 0.2703685 0.8052096
vt 0.2639099 0.8189434
vt 0.2918486 0.791455
vt 0.314316 0.7914299
vt 0.3247433 0.7914182
vt 0.2720925 0.8188512
vt 0.2662452 0.8292819
vt 0.2915628 0.8049174
vt 0.3127573 0.8046255
vt 0.3225934 0.80449
vt 0.272101 0.8299182
vt 0.2674326 0.8377003
vt 0.2897231 0.8186524
vt 0.3073541 0.8184533
vt 0.3155366 0.818361
vt 0.2782381 0.8414674
vt 0.2670558 0.8476911
vt 0.2846899 0.8309401
vt 0.2973113 0.8317262
vt 0.3031764 0.8320695
vt 0.2891447 0.8441711
vt 0.2709512 0.850293
vt 0.2679426 0.8532521
vt 0.2748674 0.8526307
vt 0.2922592 0.7664694
vt 0.3085037 0.7664694
vt 0.3096842 0.772727
vt 0.3176896 0.772727
vt 0.32306 0.7807462
vt 0.3133114 0.7807462
vt 0.3247433 0.7914182
vt 0.2924059 0.772727
vt 0.314316 0.7914299
vt 0.3225934 0.80449
vt 0.2751274 0.772727
vt 0.2760147 0.7664694
vt 0.2671221 0.772727
vt 0.2923051 0.7807462
vt 0.2712988 0.7807464
vt 0.2615504 0.7807464
vt 0.3127573 0.8046255
vt 0.3155366 0.818361
vt 0.2918484 0.791455
vt 0.2693808 0.7914799
vt 0.2589535 0.7914916
vt 0.3073541 0.8184533
vt 0.3031764 0.8320695
vt 0.2915628 0.8049174
vt 0.2703685 0.8052096
vt 0.2605323 0.805345
vt 0.2973113 0.8317262
vt 0.2891447 0.8441711
vt 0.2897231 0.8186524
vt 0.2720925 0.8188512
vt 0.2639099 0.8189434
vt 0.2782381 0.8414674
vt 0.2748674 0.8526307
vt 0.2846899 0.8309401
vt 0.272101 0.8299182
vt 0.2662452 0.8292819
vt 0.2674326 0.8377003
vt 0.2709512 0.850293
vt 0.2679426 0.8532521
vt 0.2670558 0.8476911
vn -0.6427876 0.6275073 0.4393844
vn -0.1195006 0.8132822 0.5694661
vn -0.5382507 0.211916 0.815707
vn 0.1357987 0.2929954 0.9464208
vn 0.3459569 0.7685575 0.5381759
vn -0.3190736 -0.1864688 0.9292048
vn 0.6436583 0.6269004 0.438976
vn 0.425651 0.07294016 0.9019428
vn -0.1109086 -0.4567197 0.88267
vn 0.7861639 0.5062505 0.3544809
vn 0.5612937 -0.05264913 0.8259404
vn 0.8641223 0.4122641 0.2886707
vn 0.02050925 -0.5933064 0.8047155
vn 0.6527193 -0.1504757 0.7425056
vn 0.1092157 -0.671856 0.7325854
vn -0.6427876 0.6275073 0.4393844
vn -0.5382495 0.838994 -0.07985256
vn -0.1195006 0.8132822 0.5694661
vn 0.1357773 0.9895563 -0.04840282
vn -0.3190404 0.8094136 -0.4930143
vn 0.3459569 0.7685575 0.5381759
vn -0.1108887 0.6732447 -0.7310576
vn 0.4256382 0.8724968 -0.2399617
vn 0.6436583 0.6269004 0.438976
vn 0.02051025 0.5532627 -0.8327543
vn 0.5612947 0.7581227 -0.331961
vn 0.1092168 0.4586169 -0.881897
vn 0.7861639 0.5062505 0.3544809
vn 0.6527205 0.646261 -0.3953514
vn 0.8641223 0.4122641 0.2886707
vn -0.6427876 0.6275073 0.4393844
vn -0.9569993 0.2376287 0.166388
vn -0.5382495 0.838994 -0.07985256
vn -0.7945398 0.350087 -0.4961308
vn -0.9840713 -0.1456118 -0.1019855
vn -0.3190404 0.8094136 -0.4930143
vn -0.8654558 -0.4103751 -0.2873646
vn -0.6422276 0.1384889 -0.7538996
vn -0.1108887 0.6732447 -0.7310576
vn -0.7451449 -0.546294 -0.3825205
vn -0.5215375 0.0138389 -0.8531161
vn -0.6456903 -0.6255036 -0.4379834
vn 0.02051025 0.5532627 -0.8327543
vn -0.4113674 -0.08513778 -0.9074847
vn 0.1092168 0.4586169 -0.881897
vn -0.6427876 0.6275073 0.4393844
vn -0.5382507 0.211916 0.815707
vn -0.9569993 0.2376287 0.166388
vn -0.7945188 -0.3464744 0.4986936
vn -0.3190736 -0.1864688 0.9292048
vn -0.9840713 -0.1456118 -0.1019855
vn -0.1109086 -0.4567197 0.88267
vn -0.6422151 -0.6610683 0.3880058
vn -0.8654558 -0.4103751 -0.2873646
vn 0.02050925 -0.5933064 0.8047155
vn -0.5215389 -0.7969336 0.3047855
vn 0.1092157 -0.671856 0.7325854
vn -0.7451449 -0.546294 -0.3825205
vn -0.4113689 -0.8818752 0.2303728
vn -0.6456903 -0.6255036 -0.4379834
vn 0.1092157 -0.671856 0.7325854
vn 0.6527193 -0.1504757 0.7425056
vn 0.2759107 -0.7874063 0.5512393
vn 0.9665409 0.2101222 0.1471299
vn 0.8641223 0.4122641 0.2886707
vn 0.9687553 0.2031646 0.1422581
vn 0.2858442 -0.7927673 0.5383429
vn 0.8641223 0.4122641 0.2886707
vn 0.6527205 0.646261 -0.3953514
vn 0.9665409 0.2101222 0.1471299
vn 0.2759116 0.2486874 -0.9284543
vn 0.1092168 0.4586169 -0.881897
vn 0.9687553 0.2031646 0.1422581
vn 0.2858446 0.2347364 -0.9290811
vn 0.1092168 0.4586169 -0.881897
vn -0.4113674 -0.08513778 -0.9074847
vn 0.2759116 0.2486874 -0.9284543
vn -0.4204245 -0.7432387 -0.5204224
vn -0.6456903 -0.6255036 -0.4379834
vn -0.4123964 -0.7462509 -0.5225312
vn 0.2858446 0.2347364 -0.9290811
vn -0.6456903 -0.6255036 -0.4379834
vn -0.4113689 -0.8818752 0.2303728
vn -0.4204245 -0.7432387 -0.5204224
vn 0.2759107 -0.7874063 0.5512393
vn 0.1092157 -0.671856 0.7325854
vn -0.4123964 -0.7462509 -0.5225312
vn 0.2858442 -0.7927673 0.5383429
vn -0.5522651 0.2534438 0.7942099
vn -0.1708251 0.8071114 0.5651461
vn -0.04403975 0.3993345 0.9157469
vn 0.1501898 0.8097665 0.5672047
vn 0.4690671 0.7223703 0.5080918
vn 0.2614104 0.2018693 0.9438821
vn 0.725736 0.5606047 0.398785
vn -0.423864 -0.02109833 0.90548
vn 0.4879986 0.03333025 0.8722078
vn 0.8577207 0.4166725 0.3011631
vn -0.8328173 -0.1449044 0.5342454
vn -0.9361932 0.2879205 0.2016036
vn -0.9997894 0.01690375 0.0116336
vn -0.2464452 -0.2943832 0.9233652
vn -0.7319299 -0.5141677 0.4471133
vn -0.9356973 -0.2879585 -0.2038391
vn 0.6220373 -0.09348799 0.7773865
vn 0.8839445 0.3781804 0.2749944
vn -0.07134508 -0.4904843 0.8685247
vn -0.5812829 -0.7420935 0.3337775
vn -0.7672924 -0.5222777 -0.3721403
vn 0.6942983 -0.159162 0.7018672
vn 0.8629589 0.4107953 0.2941923
vn 0.07038666 -0.6452714 0.7607039
vn -0.4101407 -0.8911564 0.1939713
vn -0.5570889 -0.6759567 -0.4824258
vn 0.7588058 -0.1376903 0.6365967
vn 0.8599197 0.4180954 0.2928043
vn 0.2341846 -0.7663566 0.5982099
vn -0.1886944 -0.9815041 0.0323129
vn -0.3126151 -0.7755161 -0.5484949
vn 0.5619995 -0.7380283 0.3734577
vn 0.7860972 0.5062005 0.3547004
vn 0.3800578 -0.7884153 0.4836916
vn 0.02036776 -0.997453 -0.06835615
vn -0.115594 -0.81425 -0.5688893
vn 0.1293877 -0.8146729 -0.5653026
vn 0.6008485 -0.6129378 0.5131163
vn 0.9821409 -0.1541209 -0.1079165
vn 0.3311113 -0.7928711 -0.5115865
vn -0.5522646 0.8329965 -0.03347664
vn -0.9361932 0.2879205 0.2016036
vn -0.8326718 0.4524893 -0.3192354
vn -0.9997894 0.01690375 0.0116336
vn -0.9356973 -0.2879585 -0.2038391
vn -0.7310287 0.2429747 -0.6376209
vn -0.7672924 -0.5222777 -0.3721403
vn -0.4244397 0.8432557 -0.3298042
vn -0.5783134 0.05650488 -0.8138556
vn -0.5570889 -0.6759567 -0.4824258
vn -0.04419178 0.9970726 0.06239645
vn -0.1708251 0.8071114 0.5651461
vn 0.1501898 0.8097665 0.5672047
vn -0.2493768 0.7648858 -0.5939369
vn 0.2596459 0.9566673 -0.1318013
vn 0.4690671 0.7223703 0.5080918
vn -0.4104386 -0.1214462 -0.9037648
vn -0.3126151 -0.7755161 -0.5484949
vn -0.07963382 0.6422948 -0.7623096
vn 0.4847075 0.8336344 -0.2647873
vn 0.725736 0.5606047 0.398785
vn -0.1971233 -0.299107 -0.9336367
vn -0.115594 -0.81425 -0.5688893
vn 0.0589104 0.4844452 -0.8728359
vn 0.6223956 0.6987989 -0.3525674
vn 0.8577207 0.4166725 0.3011631
vn 0.02265304 -0.4097775 -0.9119042
vn 0.1293877 -0.8146729 -0.5653026
vn 0.2218762 0.296664 -0.9288495
vn 0.6950392 0.6063023 -0.3864172
vn 0.8839445 0.3781804 0.2749944
vn 0.5541818 0.1110689 -0.8249522
vn 0.3311113 -0.7928711 -0.5115865
vn 0.3828501 0.1716698 -0.9077198
vn 0.7637862 0.5425771 -0.3496295
vn 0.8629589 0.4107953 0.2941923
vn 0.8599197 0.4180954 0.2928043
vn 0.6349267 0.2881956 -0.7168064
vn 0.9821409 -0.1541209 -0.1079165
vn 0.7860972 0.5062005 0.3547004
g Brush_0
f 3/3/3 2/2/2 1/1/1
f 4/4/4 2/2/2 3/3/3
f 5/5/5 2/2/2 4/4/4
f 6/6/6 4/4/4 3/3/3
f 5/5/5 4/4/4 7/7/7
f 4/4/4 6/6/6 8/8/8
f 8/8/8 7/7/7 4/4/4
f 9/9/9 8/8/8 6/6/6
f 7/7/7 8/8/8 10/10/10
f 8/8/8 9/9/9 11/11/11
f 11/11/11 10/10/10 8/8/8
f 10/10/10 11/11/11 12/12/12
f 13/13/13 11/11/11 9/9/9
f 14/14/14 12/12/12 11/11/11
f 11/11/11 13/13/13 14/14/14
f 15/15/15 14/14/14 13/13/13
f 18/18/18 17/17/17 16/16/16
f 19/19/19 17/17/17 18/18/18
f 20/20/20 17/17/17 19/19/19
f 21/21/21 19/19/19 18/18/18
f 20/20/20 19/19/19 22/22/22
f 19/19/19 21/21/21 23/23/23
f 23/23/23 22/22/22 19/19/19
f 24/24/24 23/23/23 21/21/21
f 22/22/22 23/23/23 25/25/25
f 23/23/23 24/24/24 26/26/26
f 26/26/26 25/25/25 23/23/23
f 25/25/25 26/26/26 27/27/27
f 28/28/28 26/26/26 24/24/24
f 29/29/29 27/27/27 26/26/26
f 26/26/26 28/28/28 29/29/29
f 30/30/30 29/29/29 28/28/28
f 33/33/33 32/32/32 31/31/31
f 34/34/34 32/32/32 33/33/33
f 35/35/35 32/32/32 34/34/34
f 36/36/36 34/34/34 33/33/33
f 35/35/35 34/34/34 37/37/37
f 34/34/34 36/36/36 38/38/38
f 38/38/38 37/37/37 34/34/34
f 39/39/39 38/38/38 36/36/36
f 37/37/37 38/38/38 40/40/40
f 38/38/38 39/39/39 41/41/41
f 41/41/41 40/40/40 38/38/38
f 40/40/40 41/41/41 42/42/42
f 43/43/43 41/41/41 39/39/39
f 44/44/44 42/42/42 41/41/41
f 41/41/41 43/43/43 44/44/44
f 45/45/45 44/44/44 43/43/43
f 48/48/48 47/47/47 46/46/46
f 49/49/49 47/47/47 48/48/48
f 50/50/50 47/47/47 49/49/49
f 51/51/51 49/49/49 48/48/48
f 50/50/50 49/49/49 52/52/52
f 49/49/49 51/51/51 53/53/53
f 53/53/53 52/52/52 49/49/49
f 54/54/54 53/53/53 51/51/51
f 52/52/52 53/53/53 55/55/55
f 53/53/53 54/54/54 56/56/56
f 56/56/56 55/55/55 53/53/53
f 55/55/55 56/56/56 57/57/57
f 58/58/58 56/56/56 54/54/54
f 59/59/59 57/57/57 56/56/56
f 56/56/56 58/58/58 59/59/59
f 60/60/60 59/59/59 58/58/58
f 63/63/63 62/62/62 61/61/61
f 64/64/64 62/62/62 63/63/63
f 65/65/65 62/62/62 64/64/64
f 64/64/64 63/63/63 66/66/66
f 67/67/67 66/66/66 63/63/63
f 70/70/70 69/69/69 68/68/68
f 71/71/71 69/69/69 70/70/70
f 72/72/72 69/69/69 71/71/71
f 70/70/70 73/73/73 71/71/71
f 74/74/74 71/71/71 73/73/73
f 77/77/77 76/76/76 75/75/75
f 78/78/78 76/76/76 77/77/77
f 79/79/79 76/76/76 78/78/78
f 78/78/78 77/77/77 80/80/80
f 81/81/81 80/80/80 77/77/77
f 84/84/84 83/83/83 82/82/82
f 85/85/85 83/83/83 84/84/84
f 86/86/86 83/83/83 85/85/85
f 84/84/84 87/87/87 85/85/85
f 88/88/88 85/85/85 87/87/87
f 91/91/91 90/90/90 89/89/89
f 92/92/92 90/90/90 91/91/91
f 92/92/92 91/91/91 93/93/93
f 94/94/94 93/93/93 91/91/91
f 93/93/93 94/94/94 95/95/95
f 96/96/96 91/91/91 89/89/89
f 91/91/91 96/96/96 94/94/94
f 97/97/97 95/95/95 94/94/94
f 95/95/95 97/97/97 98/98/98
f 96/96/96 89/89/89 99/99/99
f 99/99/99 89/89/89 100/100/100
f 101/101/101 99/99/99 100/100/100
f 102/102/102 94/94/94 96/96/96
f 96/96/96 99/99/99 102/102/102
f 94/94/94 102/102/102 97/97/97
f 99/99/99 101/101/101 103/103/103
f 103/103/103 102/102/102 99/99/99
f 104/104/104 103/103/103 101/101/101
f 105/105/105 98/98/98 97/97/97
f 98/98/98 105/105/105 106/106/106
f 107/107/107 97/97/97 102/102/102
f 102/102/102 103/103/103 107/107/107
f 97/97/97 107/107/107 105/105/105
f 103/103/103 104/104/104 108/108/108
f 108/108/108 107/107/107 103/103/103
f 109/109/109 108/108/108 104/104/104
f 110/110/110 106/106/106 105/105/105
f 106/106/106 110/110/110 111/111/111
f 112/112/112 105/105/105 107/107/107
f 107/107/107 108/108/108 112/112/112
f 105/105/105 112/112/112 110/110/110
f 108/108/108 109/109/109 113/113/113
f 113/113/113 112/112/112 108/108/108
f 114/114/114 113/113/113 109/109/109
f 115/115/115 111/111/111 110/110/110
f 111/111/111 115/115/115 116/116/116
f 117/117/117 110/110/110 112/112/112
f 112/112/112 113/113/113 117/117/117
f 110/110/110 117/117/117 115/115/115
f 113/113/113 114/114/114 118/118/118
f 118/118/118 117/117/117 113/113/113
f 119/119/119 118/118/118 114/114/114
f 116/116/116 115/115/115 120/120/120
f 116/116/116 120/120/120 121/121/121
f 122/122/122 115/115/115 117/117/117
f 117/117/117 118/118/118 122/122/122
f 120/120/120 115/115/115 122/122/122
f 118/118/118 119/119/119 123/123/123
f 123/123/123 122/122/122 118/118/118
f 122/122/122 123/123/123 120/120/120
f 124/124/124 123/123/123 119/119/119
f 125/125/125 123/123/123 124/124/124
f 120/120/120 123/123/123 125/125/125
f 126/126/126 121/121/121 120/120/120
f 120/120/120 125/125/125 126/126/126
f 121/121/121 126/126/126 127/127/127
f 128/128/128 126/126/126 125/125/125
f 126/126/126 128/128/128 127/127/127
f 131/131/131 130/130/130 129/129/129
f 132/132/132 130/130/130 131/131/131
f 132/132/132 131/131/131 133/133/133
f 134/134/134 133/133/133 131/131/131
f 133/133/133 134/134/134 135/135/135
f 136/136/136 131/131/131 129/129/129
f 131/131/131 136/136/136 134/134/134
f 137/137/137 135/135/135 134/134/134
f 135/135/135 137/137/137 138/138/138
f 136/136/136 129/129/129 139/139/139
f 139/139/139 129/129/129 140/140/140
f 141/141/141 139/139/139 140/140/140
f 142/142/142 134/134/134 136/136/136
f 136/136/136 139/139/139 142/142/142
f 134/134/134 142/142/142 137/137/137
f 139/139/139 141/141/141 143/143/143
f 143/143/143 142/142/142 139/139/139
f 144/144/144 143/143/143 141/141/141
f 145/145/145 138/138/138 137/137/137
f 138/138/138 145/145/145 146/146/146
f 147/147/147 137/137/137 142/142/142
f 142/142/142 143/143/143 147/147/147
f 137/137/137 147/147/147 145/145/145
f 143/143/143 144/144/144 148/148/148
f 148/148/148 147/147/147 143/143/143
f 149/149/149 148/148/148 144/144/144
f 150/150/150 146/146/146 145/145/145
f 146/146/146 150/150/150 151/151/151
f 152/152/152 145/145/145 147/147/147
f 147/147/147 148/148/148 152/152/152
f 145/145/145 152/152/152 150/150/150
f 148/148/148 149/149/149 153/153/153
f 153/153/153 152/152/152 148/148/148
f 154/154/154 153/153/153 149/149/149
f 155/155/155 151/151/151 150/150/150
f 151/151/151 155/155/155 156/156/156
f 157/157/157 150/150/150 152/152/152
f 152/152/152 153/153/153 157/157/157
f 150/150/150 157/157/157 155/155/155
f 153/153/153 154/154/154 158/158/158
f 158/158/158 157/157/157 153/153/153
f 159/159/159 158/158/158 154/154/154
f 156/156/156 155/155/155 160/160/160
f 156/156/156 160/160/160 161/161/161
f 162/162/162 155/155/155 157/157/157
f 157/157/157 158/158/158 162/162/162
f 160/160/160 155/155/155 162/162/162
f 158/158/158 159/159/159 163/163/163
f 163/163/163 162/162/162 158/158/158
f 162/162/162 163/163/163 160/160/160
f 164/164/164 163/163/163 159/159/159
f 165/165/165 163/163/163 164/164/164
f 160/160/160 163/163/163 165/165/165
f 166/166/166 161/161/161 160/160/160
f 160/160/160 165/165/165 166/166/166
f 161/161/161 166/166/166 167/167/167
f 168/168/168 166/166/166 165/165/165
f 166/166/166 168/168/168 167/167/167
