g Building_OldTown_E
v -1.362225E-06 9.649727 -2.255107
v 8.177542E-07 3.214563 1.968352E-16
v 1.185158E-06 3.214564 -2.255107
v -1.663038E-06 10.43633 -1.193115
v -2.442276E-06 12.6169 -1.193115
v -2.542486E-06 12.98733 -0.9259047
v -2.75493E-06 13.24851 -0.3678292
v -2.830431E-06 13.50628 -0.2927439
v -2.941693E-06 13.66467 -4.784259E-13
v 4.313775 3.214564 -2.255106
v 2.457653E-06 1.907349E-06 -2.255107
v 4.313776 3.814697E-06 -2.255106
v 1.185158E-06 3.214564 -2.255107
v 4.313774 3.214564 2.255108
v 0.6234684 9.649727 2.255107
v 4.313772 9.649728 2.255108
v 4.503506E-07 3.214563 2.255107
v -2.097032E-06 9.649727 2.255107
v 0.6234688 10.43633 -1.193115
v -1.362225E-06 9.649727 -2.255107
v 0.6234691 9.649727 -2.255107
v -1.663038E-06 10.43633 -1.193115
v 0.6234684 9.649727 2.255107
v -2.051804E-06 10.43633 1.193115
v 0.6234683 10.43633 1.193115
v -2.097032E-06 9.649727 2.255107
v 0.6234688 10.43633 -1.193115
v -2.442276E-06 12.6169 -1.193115
v -1.663038E-06 10.43633 -1.193115
v 0.6234586 12.6169 -1.193115
v -2.542486E-06 12.98733 -0.9259047
v 4.313771 12.6169 -1.193114
v 4.313772 10.0482 -1.193115
v 0.6234686 10.04819 -1.193115
v 4.313771 12.98733 -0.925904
v 0.6234586 12.98733 -0.9259042
v 0.6234677 13.24851 -0.3678291
v -2.75493E-06 13.24851 -0.3678292
v 4.31377 13.24851 -0.3678285
v 0.6234677 13.24851 1.015758E-07
v 4.31377 13.24851 7.028025E-07
v -2.831042E-06 12.6169 1.193115
v 0.6234683 10.43633 1.193115
v -2.051804E-06 10.43633 1.193115
v 0.6234581 12.6169 1.193115
v 0.6234584 12.98733 0.9259052
v -2.844184E-06 12.98733 0.9259047
v 4.31377 12.6169 1.193116
v 4.313772 10.0482 1.193116
v 0.6234682 10.04819 1.193115
v 4.313771 12.98733 0.9259054
v 4.31377 13.24851 0.3678299
v 0.6234676 13.24851 0.3678293
v -2.874784E-06 13.24851 0.3678292
v 0.6234677 13.24851 1.015758E-07
v 4.31377 13.24851 7.028025E-07
v 0.6234676 13.50628 -0.2927438
v -2.75493E-06 13.24851 -0.3678292
v 0.6234677 13.24851 -0.3678291
v -2.830431E-06 13.50628 -0.2927439
v 0.6234676 13.24851 0.3678293
v -2.925819E-06 13.50628 0.2927439
v 0.6234675 13.50628 0.292744
v -2.874784E-06 13.24851 0.3678292
v 0.6234676 13.50628 -0.2927438
v -2.941693E-06 13.66467 -4.784259E-13
v -2.830431E-06 13.50628 -0.2927439
v 0.6234676 13.66467 1.015758E-07
v 0.6234675 13.50628 0.292744
v -2.941693E-06 13.66467 -4.784259E-13
v 0.6234676 13.66467 1.015758E-07
v -2.925819E-06 13.50628 0.2927439
v 0.6234691 9.649727 -2.255107
v 4.313772 10.0482 -1.193115
v 0.6234686 10.04819 -1.193115
v 4.313772 9.649728 -2.255106
v 4.313772 9.649728 2.255108
v 0.6234682 10.04819 1.193115
v 4.313772 10.0482 1.193116
v 0.6234684 9.649727 2.255107
v 1.185158E-06 3.214564 -2.255107
v 8.177542E-07 3.214563 1.968352E-16
v 2.457653E-06 1.907349E-06 -2.255107
v 1.722846E-06 1.907349E-06 2.255107
v 4.503506E-07 3.214563 2.255107
v 0.6234691 9.649727 -2.255107
v 4.313775 3.214564 -2.255106
v 4.313772 9.649728 -2.255106
v 1.185158E-06 3.214564 -2.255107
v -1.362225E-06 9.649727 -2.255107
v 4.313774 3.214564 2.255108
v 1.722846E-06 1.907349E-06 2.255107
v 4.503506E-07 3.214563 2.255107
v 4.313776 3.814697E-06 2.255108
v 8.177542E-07 3.214563 1.968352E-16
v -2.097032E-06 9.649727 2.255107
v 4.503506E-07 3.214563 2.255107
v -2.051804E-06 10.43633 1.193115
v -2.831042E-06 12.6169 1.193115
v -2.844184E-06 12.98733 0.9259047
v -2.874784E-06 13.24851 0.3678292
v -2.925819E-06 13.50628 0.2927439
v -2.941693E-06 13.66467 -4.784259E-13
vt 0.910982 0.8371838
vt 0.9887546 0.6152524
vt 0.910982 0.6152524
vt 0.9476072 0.8643118
vt 0.9476074 0.9395136
vt 0.9568225 0.9522888
vt 0.9760691 0.9612964
vt 0.9786588 0.9701863
vt 0.9887546 0.9756487
vt 0.7954231 0.6001187
vt 0.8358567 0.489257
vt 0.7954231 0.4892572
vt 0.8358567 0.6001187
vt 0.8705484 0.6152524
vt 0.9051384 0.8371838
vt 0.8705484 0.8371838
vt 0.910982 0.6152524
vt 0.910982 0.8371838
vt 0.9187027 0.9503871
vt 0.9272398 0.9322913
vt 0.9187027 0.9322913
vt 0.9272398 0.9503871
vt 0.9272398 0.9322913
vt 0.9187027 0.9503871
vt 0.9272398 0.9503871
vt 0.9187027 0.9322913
vt 0.8780451 0.8732743
vt 0.8673816 0.9456356
vt 0.8673816 0.8726323
vt 0.8780451 0.9462775
vt 0.8673816 0.9622585
vt 0.9088657 0.9456356
vt 0.9088657 0.8592466
vt 0.8780451 0.8598885
vt 0.9088657 0.9622585
vt 0.8780451 0.9629004
vt 0.8780451 0.9804978
vt 0.8673816 0.9798558
vt 0.9088657 0.9798558
vt 0.8780451 0.9931831
vt 0.9088657 0.9925411
vt 0.8673816 0.9456356
vt 0.8780451 0.8732743
vt 0.8673816 0.8726323
vt 0.8780451 0.9462775
vt 0.8780451 0.9629004
vt 0.8673816 0.9622585
vt 0.9088657 0.9456356
vt 0.9088657 0.8592466
vt 0.8780451 0.8598885
vt 0.9088657 0.9622585
vt 0.9088657 0.9798558
vt 0.8780451 0.9804978
vt 0.8673816 0.9798558
vt 0.8780451 0.9931831
vt 0.9088657 0.9925411
vt 0.9273258 0.9612945
vt 0.9180664 0.9827964
vt 0.9180664 0.9612945
vt 0.9273258 0.9827964
vt 0.9180664 0.9612945
vt 0.9273258 0.9827964
vt 0.9273258 0.9612945
vt 0.9180664 0.9827964
vt 0.9273258 0.9612945
vt 0.9388047 0.9827964
vt 0.9273258 0.9827964
vt 0.9388047 0.9612945
vt 0.9273258 0.9612945
vt 0.9388047 0.9827964
vt 0.9388047 0.9612945
vt 0.9273258 0.9827964
vt 0.9175431 0.8735152
vt 0.9330744 0.9240452
vt 0.9330744 0.8735152
vt 0.9175433 0.9240452
vt 0.9175433 0.8735152
vt 0.9330744 0.9240452
vt 0.9330746 0.8735152
vt 0.9175433 0.9240452
vt 0.8358567 0.6001187
vt 0.9136294 0.6001187
vt 0.8358567 0.489257
vt 0.9914017 0.489257
vt 0.9914017 0.6001187
vt 0.9051384 0.8371838
vt 0.8705484 0.6152524
vt 0.8705484 0.8371841
vt 0.910982 0.6152524
vt 0.910982 0.8371838
vt 0.7954231 0.6001187
vt 0.8358567 0.489257
vt 0.8358567 0.6001187
vt 0.7954231 0.4892572
vt 0.9887546 0.6152524
vt 0.910982 0.8371838
vt 0.910982 0.6152524
vt 0.9476072 0.8643118
vt 0.9476072 0.9395139
vt 0.9568225 0.9522888
vt 0.9760691 0.9612966
vt 0.9786588 0.9701863
vt 0.9887546 0.9756487
vn -1 0 0
vn -1 0 0
vn -1 0 0
vn -1 0 0
vn -1 0 0
vn -1 0 0
vn -1 0 0
vn -1 0 0
vn -1 0 0
vn 0 0 -1
vn 0 0 -1
vn 0 0 -1
vn 0 0 -1
vn 0 0 1
vn 0 0 1
vn 0 0 1
vn 0 0 1
vn 0 0 1
vn 0 0.8035784 -0.595199
vn 0 0.8035784 -0.5951989
vn 0 0.8035784 -0.5951989
vn 0 0.8035784 -0.595199
vn 0 0.8035784 0.595199
vn 0 0.8035783 0.595199
vn 0 0.8035784 0.595199
vn 0 0.8035784 0.595199
vn 0 0 -1
vn 0 0.3073966 -0.9515815
vn 0 0 -1
vn 0 0.3073962 -0.9515817
vn 0 0.770094 -0.6379305
vn 0 0.3073955 -0.9515818
vn 0 0 -1
vn 0 0 -1
vn 0 0.7700946 -0.6379297
vn 0 0.7700942 -0.6379302
vn 0 0.9574186 -0.2887032
vn 0 0.9057159 -0.4238854
vn 0 0.9761449 -0.2171203
vn 0 1 0
vn 0 1 0
vn 0 0.3073962 0.9515815
vn 0 0 1
vn 0 0 1
vn 0 0.3073958 0.9515818
vn 0 0.7700943 0.6379301
vn 0 0.7700943 0.6379301
vn 0 0.3073954 0.9515818
vn 0 0 1
vn 0 0 1
vn 0 0.7700946 0.6379296
vn 0 0.9761449 0.2171203
vn 0 0.9574186 0.2887031
vn 0 0.9057159 0.4238854
vn 0 1 0
vn 0 1 0
vn 0 0.2796646 -0.9600977
vn 0 0.2796646 -0.9600977
vn 0 0.2796646 -0.9600977
vn 0 0.2796646 -0.9600977
vn 0 0.2796646 0.9600977
vn 0 0.2796646 0.9600977
vn 0 0.2796646 0.9600977
vn 0 0.2796646 0.9600977
vn 0 0.8795179 -0.4758661
vn 0 1 0
vn 0 0.8795179 -0.475866
vn 0 1 0
vn 0 0.8795179 0.4758661
vn 0 1 0
vn 0 1 0
vn 0 0.8795179 0.475866
vn 0 0.9362651 -0.3512945
vn 0 0.9362648 -0.3512949
vn 0 0.9362651 -0.3512943
vn 0 0.9362648 -0.3512951
vn 0 0.9362648 0.3512949
vn 0 0.9362651 0.3512945
vn 0 0.9362648 0.3512951
vn 0 0.9362651 0.3512943
vn -1 0 0
vn -1 0 0
vn -1 0 0
vn -1 0 0
vn -1 0 0
vn 0 0 -1
vn 0 0 -1
vn 0 0 -1
vn 0 0 -1
vn 0 0 -1
vn 0 0 1
vn 0 0 1
vn 0 0 1
vn 0 0 1
vn -1 0 0
vn -1 0 0
vn -1 0 0
vn -1 0 0
vn -1 0 0
vn -1 0 0
vn -1 0 0
vn -1 0 0
vn -1 0 0
g Building_OldTown_E_0
f 3/3/3 2/2/2 1/1/1
f 2/2/2 4/4/4 1/1/1
f 2/2/2 5/5/5 4/4/4
f 2/2/2 6/6/6 5/5/5
f 2/2/2 7/7/7 6/6/6
f 2/2/2 8/8/8 7/7/7
f 2/2/2 9/9/9 8/8/8
f 12/12/12 11/11/11 10/10/10
f 13/13/13 10/10/10 11/11/11
f 16/16/16 15/15/15 14/14/14
f 15/15/15 17/17/17 14/14/14
f 18/18/18 17/17/17 15/15/15
f 21/21/21 20/20/20 19/19/19
f 22/22/22 19/19/19 20/20/20
f 25/25/25 24/24/24 23/23/23
f 26/26/26 23/23/23 24/24/24
f 29/29/29 28/28/28 27/27/27
f 30/30/30 27/27/27 28/28/28
f 28/28/28 31/31/31 30/30/30
f 32/32/32 27/27/27 30/30/30
f 33/33/33 27/27/27 32/32/32
f 34/34/34 27/27/27 33/33/33
f 32/32/32 30/30/30 35/35/35
f 36/36/36 30/30/30 31/31/31
f 36/36/36 35/35/35 30/30/30
f 36/36/36 31/31/31 37/37/37
f 36/36/36 37/37/37 35/35/35
f 38/38/38 37/37/37 31/31/31
f 39/39/39 35/35/35 37/37/37
f 37/37/37 40/40/40 39/39/39
f 41/41/41 39/39/39 40/40/40
f 44/44/44 43/43/43 42/42/42
f 45/45/45 42/42/42 43/43/43
f 45/45/45 46/46/46 42/42/42
f 47/47/47 42/42/42 46/46/46
f 48/48/48 45/45/45 43/43/43
f 45/45/45 48/48/48 46/46/46
f 49/49/49 48/48/48 43/43/43
f 50/50/50 49/49/49 43/43/43
f 51/51/51 46/46/46 48/48/48
f 51/51/51 52/52/52 46/46/46
f 46/46/46 53/53/53 47/47/47
f 53/53/53 46/46/46 52/52/52
f 54/54/54 47/47/47 53/53/53
f 53/53/53 52/52/52 55/55/55
f 56/56/56 55/55/55 52/52/52
f 59/59/59 58/58/58 57/57/57
f 60/60/60 57/57/57 58/58/58
f 63/63/63 62/62/62 61/61/61
f 64/64/64 61/61/61 62/62/62
f 67/67/67 66/66/66 65/65/65
f 68/68/68 65/65/65 66/66/66
f 71/71/71 70/70/70 69/69/69
f 72/72/72 69/69/69 70/70/70
f 75/75/75 74/74/74 73/73/73
f 76/76/76 73/73/73 74/74/74
f 79/79/79 78/78/78 77/77/77
f 80/80/80 77/77/77 78/78/78
f 83/83/83 82/82/82 81/81/81
f 84/84/84 82/82/82 83/83/83
f 85/85/85 82/82/82 84/84/84
f 88/88/88 87/87/87 86/86/86
f 87/87/87 89/89/89 86/86/86
f 89/89/89 90/90/90 86/86/86
f 93/93/93 92/92/92 91/91/91
f 94/94/94 91/91/91 92/92/92
f 97/97/97 96/96/96 95/95/95
f 96/96/96 98/98/98 95/95/95
f 98/98/98 99/99/99 95/95/95
f 99/99/99 100/100/100 95/95/95
f 100/100/100 101/101/101 95/95/95
f 101/101/101 102/102/102 95/95/95
f 102/102/102 103/103/103 95/95/95
