g Building_OldTown_H
v 1.192093E-06 10.19493 -0.9017047
v 3.760848 11.30898 -0.6974317
v 1.549721E-06 9.701773 -0.6974323
v 3.760848 11.80213 -0.9017041
v 1.192093E-06 10.39921 -1.394864
v 3.760848 12.00641 -1.394864
v 1.311302E-06 10.19493 -1.888024
v 3.760848 11.80213 -1.888023
v 1.549721E-06 9.701773 -2.092297
v 3.760848 11.30898 -2.092297
v 8.34465E-07 10.39921 -2.384186E-07
v 8.34465E-07 10.19493 0.4931593
v 1.311302E-06 9.701773 0.6974313
v 2.819783E-06 3.214561 -4.420678E-07
v 2.507677E-06 3.214561 2.092296
v 1.072884E-06 9.701773 2.092296
v 5.960464E-07 10.19493 1.888023
v 7.152557E-07 10.19493 0.9017034
v 5.960464E-07 10.39921 1.394863
v 8.34465E-07 10.19493 0.4931593
v 3.760848 11.30898 0.697432
v 1.311302E-06 9.701773 0.6974313
v 3.760847 11.80213 0.4931599
v 8.34465E-07 10.39921 -2.384186E-07
v 3.760847 12.00641 3.576279E-07
v 9.536743E-07 10.19493 -0.4931599
v 3.760847 12.00641 3.576279E-07
v 8.34465E-07 10.39921 -2.384186E-07
v 3.760847 11.80213 -0.4931594
v 1.549721E-06 9.701773 -0.6974323
v 3.760848 11.30898 -0.6974317
v 5.960464E-07 10.19493 1.888023
v 3.760847 11.30898 2.092297
v 1.072884E-06 9.701773 2.092296
v 3.760847 11.80213 1.888023
v 5.960464E-07 10.39921 1.394863
v 3.760847 12.00641 1.394864
v 7.152557E-07 10.19493 0.9017034
v 3.760847 11.80213 0.9017041
v 1.311302E-06 9.701773 0.6974313
v 3.760848 11.30898 0.697432
v 3.76085 3.214561 -2.092297
v 1.549721E-06 9.701773 -2.092297
v 3.143935E-06 3.214561 -2.092297
v 3.760848 11.30898 -2.092297
v 3.760849 3.214561 2.092297
v 1.072884E-06 9.701773 2.092296
v 3.760847 11.30898 2.092297
v 2.507677E-06 3.214561 2.092296
v 1.192093E-06 10.19493 -0.9017047
v 1.311302E-06 10.19493 -1.888024
v 1.192093E-06 10.39921 -1.394864
v 1.549721E-06 9.701773 -2.092297
v 1.549721E-06 9.701773 -0.6974323
v 3.143935E-06 3.214561 -2.092297
v 2.819783E-06 3.214561 -4.420678E-07
v 8.34465E-07 10.39921 -2.384186E-07
v 9.536743E-07 10.19493 -0.4931599
v 3.143935E-06 3.214561 -2.092297
v 3.760851 -7.629395E-06 -2.092297
v 3.76085 3.214561 -2.092297
v 3.933907E-06 -6.67572E-06 -2.092297
v 3.760849 3.214561 2.092297
v 3.218651E-06 -5.722046E-06 2.092296
v 2.507677E-06 3.214561 2.092296
v 3.760851 -7.629395E-06 2.092297
v 3.143935E-06 3.214561 -2.092297
v 2.819783E-06 3.214561 -4.420678E-07
v 3.933907E-06 -6.67572E-06 -2.092297
v 3.218651E-06 -5.722046E-06 2.092296
v 2.507677E-06 3.214561 2.092296
vt 0.4192744 0.6626479
vt 0.4029388 0.6136171
vt 0.4029388 0.6626479
vt 0.4192744 0.6136171
vt 0.433271 0.6626479
vt 0.433271 0.6136171
vt 0.4459349 0.6626479
vt 0.4459349 0.6136171
vt 0.4607151 0.6626479
vt 0.4607151 0.6136171
vt 0.3906259 0.8581141
vt 0.3736708 0.8510911
vt 0.3666481 0.8341363
vt 0.3906259 0.6111038
vt 0.3186923 0.6111037
vt 0.318692 0.8341363
vt 0.325715 0.8510911
vt 0.359625 0.8510911
vt 0.3426701 0.8581141
vt 0.4192744 0.6626479
vt 0.4029388 0.6136171
vt 0.4029388 0.6626479
vt 0.4192744 0.6136171
vt 0.433271 0.6626479
vt 0.433271 0.6136171
vt 0.4192744 0.6626479
vt 0.433271 0.6136171
vt 0.433271 0.6626479
vt 0.4192744 0.6136171
vt 0.4029388 0.6626479
vt 0.4029388 0.6136171
vt 0.4459349 0.6626479
vt 0.4607151 0.6136171
vt 0.4607151 0.6626479
vt 0.4459349 0.6136171
vt 0.433271 0.6626479
vt 0.433271 0.6136171
vt 0.4192744 0.6626479
vt 0.4192744 0.6136171
vt 0.4029388 0.6626479
vt 0.4029388 0.6136171
vt 0.3061463 0.6111038
vt 0.2719855 0.8341363
vt 0.2719855 0.6111038
vt 0.3061463 0.8893923
vt 0.3061463 0.6111038
vt 0.2719855 0.8341363
vt 0.3061463 0.8893923
vt 0.2719855 0.6111038
vt 0.359625 0.8510911
vt 0.3257153 0.8510911
vt 0.3426701 0.8581141
vt 0.3186923 0.8341363
vt 0.3666481 0.8341363
vt 0.3186923 0.6111037
vt 0.3906259 0.6111038
vt 0.3906259 0.8581141
vt 0.3736711 0.8510911
vt 0.2941941 0.5978777
vt 0.2600335 0.4873596
vt 0.2600335 0.5978777
vt 0.2941941 0.4873596
vt 0.2600335 0.5978775
vt 0.2941941 0.4873596
vt 0.2941941 0.5978775
vt 0.2600335 0.4873596
vt 0.2941941 0.5978777
vt 0.3631814 0.5978777
vt 0.2941941 0.4873596
vt 0.4351156 0.4873598
vt 0.4351153 0.5978777
vn -0.2681306 0.6274242 0.7310573
vn -0.1613957 0.3776649 0.911768
vn -0.1613954 0.3776642 0.9117681
vn -0.3050762 0.7138769 0.6303241
vn -0.392971 0.9195508 0
vn -0.392971 0.9195508 0
vn -0.2681306 0.6274249 -0.7310567
vn -0.3050761 0.7138772 -0.6303237
vn -0.06228837 0.1457549 -0.987358
vn -0.1029755 0.2409626 -0.9650559
vn -1 0 0
vn -1 0 0
vn -1 0 0
vn -1 0 0
vn -1 0 0
vn -1 0 0
vn -1 0 0
vn -1 0 0
vn -1 0 0
vn -0.2681305 0.6274239 0.7310576
vn -0.1613954 0.3776644 0.9117681
vn -0.1613953 0.3776636 0.9117684
vn -0.305076 0.7138765 0.6303243
vn -0.392971 0.9195508 0
vn -0.3929711 0.9195508 0
vn -0.2681303 0.6274242 -0.7310575
vn -0.3929711 0.9195508 0
vn -0.392971 0.9195508 0
vn -0.3050759 0.7138767 -0.6303244
vn -0.161395 0.3776642 -0.9117683
vn -0.1613953 0.3776647 -0.9117681
vn -0.2681309 0.6274249 0.7310566
vn -0.1029757 0.2409623 0.9650561
vn -0.06228871 0.1457548 0.987358
vn -0.3050763 0.7138771 0.6303238
vn -0.392971 0.9195508 0
vn -0.392971 0.9195508 0
vn -0.2681302 0.6274239 -0.7310578
vn -0.3050758 0.7138764 -0.6303246
vn -0.1613948 0.3776637 -0.9117684
vn -0.1613951 0.3776641 -0.9117683
vn 0 0 -1
vn -0.06228837 0.1457549 -0.987358
vn 0 0 -1
vn -0.1029755 0.2409626 -0.9650559
vn 0 0 1
vn -0.06228871 0.1457548 0.987358
vn -0.1029757 0.2409623 0.9650561
vn 0 0 1
vn -1 0 0
vn -1 0 0
vn -1 0 0
vn -1 0 0
vn -1 0 0
vn -1 0 0
vn -1 0 0
vn -1 0 0
vn -1 0 0
vn 0 0 -1
vn 0 0 -1
vn 0 0 -1
vn 0 0 -1
vn 0 0 1
vn 0 0 1
vn 0 0 1
vn 0 0 1
vn -1 0 0
vn -1 0 0
vn -1 0 0
vn -1 0 0
vn -1 0 0
g Building_OldTown_H_0
f 3/3/3 2/2/2 1/1/1
f 4/4/4 1/1/1 2/2/2
f 1/1/1 4/4/4 5/5/5
f 6/6/6 5/5/5 4/4/4
f 5/5/5 6/6/6 7/7/7
f 8/8/8 7/7/7 6/6/6
f 7/7/7 8/8/8 9/9/9
f 10/10/10 9/9/9 8/8/8
f 13/13/13 12/12/12 11/11/11
f 14/14/14 13/13/13 11/11/11
f 14/14/14 15/15/15 13/13/13
f 16/16/16 13/13/13 15/15/15
f 16/16/16 17/17/17 13/13/13
f 18/18/18 13/13/13 17/17/17
f 18/18/18 17/17/17 19/19/19
f 22/22/22 21/21/21 20/20/20
f 23/23/23 20/20/20 21/21/21
f 20/20/20 23/23/23 24/24/24
f 25/25/25 24/24/24 23/23/23
f 28/28/28 27/27/27 26/26/26
f 29/29/29 26/26/26 27/27/27
f 26/26/26 29/29/29 30/30/30
f 31/31/31 30/30/30 29/29/29
f 34/34/34 33/33/33 32/32/32
f 35/35/35 32/32/32 33/33/33
f 32/32/32 35/35/35 36/36/36
f 37/37/37 36/36/36 35/35/35
f 36/36/36 37/37/37 38/38/38
f 39/39/39 38/38/38 37/37/37
f 38/38/38 39/39/39 40/40/40
f 41/41/41 40/40/40 39/39/39
f 44/44/44 43/43/43 42/42/42
f 45/45/45 42/42/42 43/43/43
f 48/48/48 47/47/47 46/46/46
f 49/49/49 46/46/46 47/47/47
f 52/52/52 51/51/51 50/50/50
f 51/51/51 53/53/53 50/50/50
f 54/54/54 50/50/50 53/53/53
f 53/53/53 55/55/55 54/54/54
f 56/56/56 54/54/54 55/55/55
f 54/54/54 56/56/56 57/57/57
f 58/58/58 54/54/54 57/57/57
f 61/61/61 60/60/60 59/59/59
f 62/62/62 59/59/59 60/60/60
f 65/65/65 64/64/64 63/63/63
f 66/66/66 63/63/63 64/64/64
f 69/69/69 68/68/68 67/67/67
f 70/70/70 68/68/68 69/69/69
f 71/71/71 68/68/68 70/70/70
