g Building_OldTown_C
v -1.817942E-05 11.15282 2.151103
v -1.806021E-05 11.15282 1.50482
v -1.817942E-05 11.28667 1.827962
v -1.806021E-05 10.82968 2.284953
v -1.7941E-05 10.82968 1.370971
v -1.758337E-05 9.29759 2.284953
v -1.617948E-05 3.214559 2.284953
v -1.817942E-05 12.36178 0.4569904
v -1.590776E-05 3.214559 1.96835E-16
v -1.835823E-05 12.36177 1.370972
v -1.877546E-05 14.35086 8.787366E-16
v -1.865625E-05 13.89387 0.456991
v -1.877546E-05 14.21701 0.3231415
v -1.835823E-05 12.68492 0.5908394
v -1.847744E-05 12.68492 1.237122
v -1.847744E-05 12.81877 0.9139808
v -1.817942E-05 12.68492 -0.5908394
v -1.806021E-05 12.68492 -1.237122
v -1.817942E-05 12.81877 -0.913981
v -1.80006E-05 12.36178 -0.4569905
v -1.7941E-05 12.36177 -1.370972
v -1.746416E-05 10.82968 -1.370971
v -1.544362E-05 3.214559 -2.284952
v -1.590776E-05 3.214559 1.96835E-16
v -1.877546E-05 14.35086 8.787366E-16
v -1.847744E-05 13.89387 -0.4569912
v -1.865625E-05 14.21701 -0.3231416
v -1.680851E-05 9.29759 -2.284952
v -1.734495E-05 10.82968 -2.284952
v -1.746416E-05 11.15282 -2.151103
v -1.758337E-05 11.15282 -1.50482
v -1.758337E-05 11.28667 -1.827962
v 0.3158908 11.15282 1.50482
v -1.7941E-05 10.82968 1.370971
v 0.3158909 10.82968 1.370971
v -1.806021E-05 11.15282 1.50482
v 0.3158907 11.28667 1.827962
v -1.817942E-05 11.28667 1.827962
v 0.3158907 11.15282 2.151103
v -1.817942E-05 11.15282 2.151103
v 0.3158908 10.82968 2.284953
v -1.806021E-05 10.82968 2.284953
v 0.3158918 9.29759 2.284953
v -1.758337E-05 9.29759 2.284953
v 0.3158905 12.68492 0.5908395
v -1.817942E-05 12.36178 0.4569904
v 0.3158908 12.36178 0.4569904
v -1.835823E-05 12.68492 0.5908394
v 0.3158904 12.81877 0.9139808
v -1.847744E-05 12.81877 0.9139808
v 0.3158904 12.68492 1.237122
v -1.847744E-05 12.68492 1.237122
v 0.3158905 12.36177 1.370972
v -1.835823E-05 12.36177 1.370972
v 0.3158909 10.82968 1.370971
v -1.7941E-05 10.82968 1.370971
v 0.3158902 14.21701 0.3231415
v -1.877546E-05 14.35086 8.787366E-16
v 0.3158902 14.35086 8.787366E-16
v -1.877546E-05 14.21701 0.3231415
v 0.3158903 13.89387 0.456991
v -1.865625E-05 13.89387 0.456991
v 0.3158908 12.36178 0.4569904
v -1.817942E-05 12.36178 0.4569904
v -1.865625E-05 14.21701 -0.3231416
v 0.3158902 14.35086 8.787366E-16
v -1.877546E-05 14.35086 8.787366E-16
v 0.3158903 14.21701 -0.3231411
v -1.847744E-05 13.89387 -0.4569912
v 0.3158904 13.89387 -0.456991
v -1.80006E-05 12.36178 -0.4569905
v 0.3158909 12.36178 -0.4569902
v -1.817942E-05 12.68492 -0.5908394
v 0.3158909 12.36178 -0.4569902
v -1.80006E-05 12.36178 -0.4569905
v 0.3158907 12.68492 -0.5908391
v -1.817942E-05 12.81877 -0.913981
v 0.3158907 12.81877 -0.9139807
v -1.806021E-05 12.68492 -1.237122
v 0.3158908 12.68492 -1.237122
v -1.7941E-05 12.36177 -1.370972
v 0.315891 12.36177 -1.370972
v -1.746416E-05 10.82968 -1.370971
v 0.3158914 10.82968 -1.370971
v -1.758337E-05 11.15282 -1.50482
v 0.3158914 10.82968 -1.370971
v -1.746416E-05 10.82968 -1.370971
v 0.3158913 11.15282 -1.50482
v -1.758337E-05 11.28667 -1.827962
v 0.3158913 11.28667 -1.827961
v -1.746416E-05 11.15282 -2.151103
v 0.3158914 11.15282 -2.151103
v -1.734495E-05 10.82968 -2.284952
v 0.3158915 10.82968 -2.284952
v -1.680851E-05 9.29759 -2.284952
v 0.3158925 9.29759 -2.284951
v -1.758337E-05 9.29759 2.284953
v 0.3158918 9.29759 2.284953
v -1.617948E-05 3.214559 2.284953
v 6.820943 3.214559 2.284954
v 6.820943 10.32201 2.284955
v 6.820944 9.536743E-07 -2.284951
v -1.544362E-05 3.214559 -2.284952
v -1.472235E-05 -9.536743E-07 -2.284952
v 6.820944 3.21456 -2.284951
v 6.820944 13.47844 0.2957529
v 0.3158918 9.29759 2.284953
v 0.3158907 12.45402 0.2957517
v 6.820943 10.32201 2.284955
v 0.3158908 12.45402 -0.295747
v 6.820944 10.32201 -2.284949
v 6.820944 13.47844 -0.2957456
v 0.3158925 9.29759 -2.284951
v 6.820944 13.47844 0.2957529
v 0.3158908 12.45402 -0.295747
v 6.820944 13.47844 -0.2957456
v 0.3158907 12.45402 0.2957517
v -1.544362E-05 3.214559 -2.284952
v 0.3158925 9.29759 -2.284951
v -1.680851E-05 9.29759 -2.284952
v 6.820944 3.21456 -2.284951
v 6.820944 10.32201 -2.284949
v 6.820943 9.536743E-07 2.284954
v -1.617948E-05 3.214559 2.284953
v 6.820943 3.214559 2.284954
v -1.54376E-05 -9.536743E-07 2.284953
v -1.590776E-05 3.214559 1.96835E-16
v -1.617948E-05 3.214559 2.284953
v -1.54376E-05 -9.536743E-07 2.284953
v -1.472235E-05 -9.536743E-07 -2.284952
v -1.544362E-05 3.214559 -2.284952
vt 0.300086 0.3653072
vt 0.280812 0.3653072
vt 0.290449 0.3692988
vt 0.3040777 0.3556702
vt 0.2768203 0.3556702
vt 0.3040777 0.309979
vt 0.3040776 0.1285665
vt 0.249563 0.4013613
vt 0.2359342 0.1285665
vt 0.2768203 0.4013613
vt 0.2359342 0.4606812
vt 0.249563 0.4470525
vt 0.2455712 0.4566894
vt 0.2535547 0.4109983
vt 0.2728285 0.4109983
vt 0.2631917 0.41499
vt 0.2535546 0.4109983
vt 0.2728285 0.4109983
vt 0.2631917 0.41499
vt 0.2495629 0.4013613
vt 0.2768203 0.4013613
vt 0.2768203 0.3556702
vt 0.3040777 0.1285665
vt 0.2359342 0.1285665
vt 0.2359342 0.4606812
vt 0.2495629 0.4470525
vt 0.2455711 0.4566894
vt 0.3040777 0.309979
vt 0.3040777 0.3556702
vt 0.300086 0.3653072
vt 0.280812 0.3653072
vt 0.290449 0.3692988
vt 0.1886511 0.4142297
vt 0.211036 0.405215
vt 0.1886511 0.405215
vt 0.211036 0.4142297
vt 0.1886515 0.4232443
vt 0.211036 0.4232443
vt 0.1886511 0.4322591
vt 0.211036 0.4322591
vt 0.1886511 0.4396102
vt 0.211036 0.4396102
vt 0.1886511 0.479098
vt 0.211036 0.479098
vt 0.1886515 0.3443296
vt 0.211036 0.335315
vt 0.1886515 0.335315
vt 0.211036 0.3443296
vt 0.1886515 0.3520242
vt 0.211036 0.3520242
vt 0.1886515 0.3597187
vt 0.211036 0.3597187
vt 0.1886515 0.3687334
vt 0.211036 0.3687334
vt 0.1886511 0.405215
vt 0.211036 0.405215
vt 0.1886515 0.2886588
vt 0.2110365 0.2824664
vt 0.1886515 0.2824664
vt 0.2110365 0.2886588
vt 0.1886515 0.2973305
vt 0.2110365 0.2973305
vt 0.1886515 0.335315
vt 0.211036 0.335315
vt 0.211036 0.2886588
vt 0.1886515 0.2824664
vt 0.2110365 0.2824664
vt 0.1886511 0.2886588
vt 0.211036 0.2973305
vt 0.1886511 0.2973305
vt 0.211036 0.335315
vt 0.1886511 0.335315
vt 0.211036 0.3443296
vt 0.1886511 0.335315
vt 0.211036 0.335315
vt 0.1886515 0.3443296
vt 0.211036 0.3520242
vt 0.1886515 0.3520242
vt 0.211036 0.3597187
vt 0.1886515 0.3597187
vt 0.211036 0.3687334
vt 0.1886515 0.3687334
vt 0.211036 0.405215
vt 0.1886515 0.405215
vt 0.211036 0.4142297
vt 0.1886515 0.405215
vt 0.211036 0.405215
vt 0.1886515 0.4142297
vt 0.211036 0.4232443
vt 0.1886515 0.4232443
vt 0.211036 0.4322591
vt 0.1886511 0.4322591
vt 0.211036 0.4396108
vt 0.1886511 0.4396108
vt 0.211036 0.479098
vt 0.1886511 0.479098
vt 0.3115892 0.3102234
vt 0.3128921 0.3102234
vt 0.3115892 0.1284305
vt 0.3397219 0.1284305
vt 0.3397219 0.3408386
vt 0.3979677 0.008492103
vt 0.4261004 0.1043589
vt 0.4261004 0.008492043
vt 0.3979677 0.1043589
vt 0.3964553 0.1283943
vt 0.3580818 0.3232892
vt 0.3964553 0.3232892
vt 0.3580816 0.1283943
vt 0.3964553 0.3232892
vt 0.3580816 0.1283943
vt 0.3964553 0.1283943
vt 0.3580818 0.3232892
vt 0.3964553 0.1283943
vt 0.40263 0.3232892
vt 0.40263 0.1283943
vt 0.3964553 0.3232892
vt 0.3115892 0.1284305
vt 0.312892 0.3102234
vt 0.3115892 0.3102234
vt 0.3397219 0.1284305
vt 0.3397219 0.3408386
vt 0.3979677 0.008492103
vt 0.4261004 0.1043589
vt 0.3979677 0.1043589
vt 0.4261004 0.008492043
vt 0.3124181 0.1104525
vt 0.3857534 0.1104525
vt 0.3857534 0.007281499
vt 0.2390828 0.007281499
vt 0.2390827 0.1104525
vn -1 0 0
vn -1 0 0
vn -1 0 0
vn -1 0 0
vn -1 0 0
vn -1 0 0
vn -1 0 0
vn -1 0 0
vn -1 0 0
vn -1 0 0
vn -1 0 0
vn -1 0 0
vn -1 0 0
vn -1 0 0
vn -1 0 0
vn -1 0 0
vn -1 0 0
vn -1 0 0
vn -1 0 0
vn -1 0 0
vn -1 0 0
vn -1 0 0
vn -1 0 0
vn -1 0 0
vn -1 0 0
vn -1 0 0
vn -1 0 0
vn -1 0 0
vn -1 0 0
vn -1 0 0
vn -1 0 0
vn -1 0 0
vn 0 0.7071056 -0.7071078
vn 0 0.382682 -0.9238801
vn 0 0.3826818 -0.9238801
vn 0 0.7071062 -0.7071073
vn 0 1 0
vn 0 1 0
vn 0 0.7071066 0.7071069
vn 0 0.7071074 0.7071061
vn 0 0.1950906 0.9807853
vn 0 0.1950908 0.9807853
vn 0 0 1
vn 0 0 1
vn 0 0.7071067 -0.7071068
vn 0 0.3826826 -0.9238799
vn 0 0.3826828 -0.9238798
vn 0 0.7071068 -0.7071067
vn 0 1 0
vn 0 1 0
vn 0 0.7071067 0.7071068
vn 0 0.7071069 0.7071066
vn 0 0.1950897 0.9807854
vn 0 0.1950898 0.9807854
vn 0 0 1
vn 0 0 1
vn 0 0.7071062 0.7071072
vn 0 1 0
vn 0 1 0
vn 0 0.7071064 0.7071071
vn 0 0.1950902 0.9807854
vn 0 0.1950903 0.9807853
vn 0 0 1
vn 0 0 1
vn 0 0.7071064 -0.7071072
vn 0 1 0
vn 0 1 0
vn 0 0.7071065 -0.7071069
vn 0 0.1950905 -0.9807853
vn 0 0.1950906 -0.9807853
vn 0 0 -1
vn 0 0 -1
vn 0 0.7071068 0.7071066
vn 0 0.3826821 0.92388
vn 0 0.3826821 0.92388
vn 0 0.7071065 0.7071069
vn 0 1 0
vn 0 1 0
vn 0 0.7071069 -0.7071066
vn 0 0.7071069 -0.7071066
vn 0 0.1950898 -0.9807854
vn 0 0.1950898 -0.9807854
vn 0 0 -1
vn 0 0 -1
vn 0 0.7071068 0.7071068
vn 0 0.3826818 0.9238801
vn 0 0.3826822 0.92388
vn 0 0.7071059 0.7071076
vn 0 1 0
vn 0 1 0
vn 0 0.7071066 -0.7071069
vn 0 0.7071064 -0.7071071
vn 0 0.1950905 -0.9807853
vn 0 0.1950905 -0.9807853
vn 0 0 -1
vn 0 0 -1
vn 0 0 1
vn 0 0 1
vn 0 0 1
vn 0 0 1
vn 0 0 1
vn 0 0 -1
vn 0 0 -1
vn 0 0 -1
vn 0 0 -1
vn -0.08366875 0.5312931 0.8430464
vn -0.08366875 0.5312931 0.8430464
vn -0.08366875 0.5312931 0.8430464
vn -0.08366875 0.531293 0.8430464
vn -0.0836684 0.5312935 -0.8430462
vn -0.08366842 0.5312934 -0.8430462
vn -0.08366846 0.5312934 -0.8430462
vn -0.08366837 0.5312935 -0.8430462
vn -0.1555639 0.9878258 0
vn -0.1555638 0.9878258 0
vn -0.1555639 0.9878258 0
vn -0.1555639 0.9878258 0
vn 0 0 -1
vn 0 0 -1
vn 0 0 -1
vn 0 0 -1
vn 0 0 -1
vn 0 0 1
vn 0 0 1
vn 0 0 1
vn 0 0 1
vn -1 0 0
vn -1 0 0
vn -1 0 0
vn -1 0 0
vn -1 0 0
g Building_OldTown_C_0
f 3/3/3 2/2/2 1/1/1
f 2/2/2 4/4/4 1/1/1
f 5/5/5 4/4/4 2/2/2
f 5/5/5 6/6/6 4/4/4
f 6/6/6 5/5/5 7/7/7
f 5/5/5 8/8/8 7/7/7
f 7/7/7 8/8/8 9/9/9
f 10/10/10 8/8/8 5/5/5
f 11/11/11 9/9/9 8/8/8
f 11/11/11 8/8/8 12/12/12
f 13/13/13 11/11/11 12/12/12
f 8/8/8 10/10/10 14/14/14
f 14/14/14 10/10/10 15/15/15
f 16/16/16 14/14/14 15/15/15
f 19/19/19 18/18/18 17/17/17
f 18/18/18 20/20/20 17/17/17
f 21/21/21 20/20/20 18/18/18
f 21/21/21 22/22/22 20/20/20
f 22/22/22 23/23/23 20/20/20
f 23/23/23 24/24/24 20/20/20
f 25/25/25 20/20/20 24/24/24
f 26/26/26 20/20/20 25/25/25
f 27/27/27 26/26/26 25/25/25
f 28/28/28 23/23/23 22/22/22
f 29/29/29 28/28/28 22/22/22
f 29/29/29 22/22/22 30/30/30
f 30/30/30 22/22/22 31/31/31
f 32/32/32 30/30/30 31/31/31
f 35/35/35 34/34/34 33/33/33
f 36/36/36 33/33/33 34/34/34
f 33/33/33 36/36/36 37/37/37
f 38/38/38 37/37/37 36/36/36
f 37/37/37 38/38/38 39/39/39
f 40/40/40 39/39/39 38/38/38
f 39/39/39 40/40/40 41/41/41
f 42/42/42 41/41/41 40/40/40
f 41/41/41 42/42/42 43/43/43
f 44/44/44 43/43/43 42/42/42
f 47/47/47 46/46/46 45/45/45
f 48/48/48 45/45/45 46/46/46
f 45/45/45 48/48/48 49/49/49
f 50/50/50 49/49/49 48/48/48
f 49/49/49 50/50/50 51/51/51
f 52/52/52 51/51/51 50/50/50
f 51/51/51 52/52/52 53/53/53
f 54/54/54 53/53/53 52/52/52
f 53/53/53 54/54/54 55/55/55
f 56/56/56 55/55/55 54/54/54
f 59/59/59 58/58/58 57/57/57
f 60/60/60 57/57/57 58/58/58
f 57/57/57 60/60/60 61/61/61
f 62/62/62 61/61/61 60/60/60
f 61/61/61 62/62/62 63/63/63
f 64/64/64 63/63/63 62/62/62
f 67/67/67 66/66/66 65/65/65
f 68/68/68 65/65/65 66/66/66
f 65/65/65 68/68/68 69/69/69
f 70/70/70 69/69/69 68/68/68
f 69/69/69 70/70/70 71/71/71
f 72/72/72 71/71/71 70/70/70
f 75/75/75 74/74/74 73/73/73
f 76/76/76 73/73/73 74/74/74
f 73/73/73 76/76/76 77/77/77
f 78/78/78 77/77/77 76/76/76
f 77/77/77 78/78/78 79/79/79
f 80/80/80 79/79/79 78/78/78
f 79/79/79 80/80/80 81/81/81
f 82/82/82 81/81/81 80/80/80
f 81/81/81 82/82/82 83/83/83
f 84/84/84 83/83/83 82/82/82
f 87/87/87 86/86/86 85/85/85
f 88/88/88 85/85/85 86/86/86
f 85/85/85 88/88/88 89/89/89
f 90/90/90 89/89/89 88/88/88
f 89/89/89 90/90/90 91/91/91
f 92/92/92 91/91/91 90/90/90
f 91/91/91 92/92/92 93/93/93
f 94/94/94 93/93/93 92/92/92
f 93/93/93 94/94/94 95/95/95
f 96/96/96 95/95/95 94/94/94
f 99/99/99 98/98/98 97/97/97
f 99/99/99 100/100/100 98/98/98
f 101/101/101 98/98/98 100/100/100
f 104/104/104 103/103/103 102/102/102
f 105/105/105 102/102/102 103/103/103
f 108/108/108 107/107/107 106/106/106
f 109/109/109 106/106/106 107/107/107
f 112/112/112 111/111/111 110/110/110
f 113/113/113 110/110/110 111/111/111
f 116/116/116 115/115/115 114/114/114
f 117/117/117 114/114/114 115/115/115
f 120/120/120 119/119/119 118/118/118
f 118/118/118 119/119/119 121/121/121
f 122/122/122 121/121/121 119/119/119
f 125/125/125 124/124/124 123/123/123
f 126/126/126 123/123/123 124/124/124
f 129/129/129 128/128/128 127/127/127
f 130/130/130 129/129/129 127/127/127
f 131/131/131 130/130/130 127/127/127
