g Building_OldTown_D
v -3.814697E-06 -4.806189E-07 -2.271059
v -3.814697E-06 3.21456 -2.271059
v -4.291534E-06 3.21456 -1.447215E-07
v -4.768372E-06 -9.498925E-07 2.271058
v -4.768372E-06 3.21456 2.271058
v 4.776015 -9.498926E-07 2.271059
v -4.768372E-06 3.21456 2.271058
v 4.776015 3.21456 2.27106
v -4.768372E-06 -9.498925E-07 2.271058
v -3.814697E-06 -4.806189E-07 -2.271059
v 4.776016 3.21456 -2.271058
v -3.814697E-06 3.21456 -2.271059
v 4.776016 -4.80619E-07 -2.271058
v -4.291534E-06 12.16474 7.799755E-07
v 1.70591 14.26416 -2.271057
v 1.70591 14.26416 1.473716E-06
v -3.814697E-06 12.16474 -2.271058
v 3.070102 14.26416 2.27106
v -4.768372E-06 12.16474 2.271059
v 1.705909 14.26416 2.27106
v 4.776015 12.16474 2.27106
v -4.768372E-06 3.21456 2.271058
v 4.776015 3.21456 2.27106
v 1.70591 14.26416 -2.271057
v 4.776016 12.16474 -2.271057
v 3.070103 14.26416 -2.271057
v -3.814697E-06 12.16474 -2.271058
v 4.776016 3.21456 -2.271058
v -3.814697E-06 3.21456 -2.271059
v -1.28746E-05 16.62679 1.318556E-06
v 0.5621291 16.51575 -0.3248894
v 0.562129 16.62679 1.437765E-06
v -1.263618E-05 16.51575 -0.3248895
v 0.5621288 13.50777 1.163118
v -1.311302E-05 12.16473 1.163118
v -1.311302E-05 13.50777 1.163118
v 0.5621288 12.16473 1.163118
v -1.263618E-05 13.50777 -1.163116
v 0.5621293 12.16473 -1.163116
v 0.5621293 13.50777 -1.163116
v -1.263618E-05 12.16473 -1.163116
v -1.311302E-05 13.50777 1.163118
v 0.5621289 13.50777 0.7038617
v 0.5621288 13.50777 1.163118
v -1.311302E-05 13.50777 0.7038616
v 0.5621293 13.50777 -1.163116
v -1.263618E-05 13.51378 -0.703859
v -1.263618E-05 13.50777 -1.163116
v 0.5621291 13.50777 -0.703859
v -1.311302E-05 13.50777 0.7038616
v 0.5621289 14.86975 0.7038618
v 0.5621289 13.50777 0.7038617
v -1.311302E-05 14.86975 0.7038617
v 0.5621291 13.50777 -0.703859
v -1.263618E-05 14.86975 -0.7038588
v -1.263618E-05 13.51378 -0.703859
v 0.5621291 14.86975 -0.7038587
v -1.311302E-05 14.86975 0.7038617
v 0.5621289 14.86975 0.4782042
v 0.5621289 14.86975 0.7038618
v -1.311302E-05 14.86975 0.478204
v 0.5621291 14.86975 -0.7038587
v -1.263618E-05 14.86975 -0.4782014
v -1.263618E-05 14.86975 -0.7038588
v 0.5621291 14.86975 -0.4782012
v -1.263618E-05 14.86975 -0.4782014
v -1.263618E-05 15.84123 -0.4782014
v -1.263618E-05 15.84123 -0.3248896
v -1.28746E-05 12.16473 1.137247E-06
v -1.263618E-05 13.51378 -0.703859
v -1.263618E-05 14.86975 -0.7038588
v -1.263618E-05 12.16473 -1.163116
v -1.263618E-05 13.50777 -1.163116
v -1.28746E-05 16.62679 1.318556E-06
v -1.263618E-05 16.51575 -0.3248895
v -1.311302E-05 15.84123 0.3248921
v -1.311302E-05 16.51575 0.3248921
v -1.311302E-05 14.86975 0.478204
v -1.311302E-05 15.84123 0.4782039
v -1.311302E-05 13.50777 0.7038616
v -1.311302E-05 14.86975 0.7038617
v -1.311302E-05 12.16473 1.163118
v -1.311302E-05 13.50777 1.163118
v -1.311302E-05 14.86975 0.478204
v 0.5621289 15.84123 0.4782041
v 0.5621289 14.86975 0.4782042
v -1.311302E-05 15.84123 0.4782039
v 0.5621291 14.86975 -0.4782012
v -1.263618E-05 15.84123 -0.4782014
v -1.263618E-05 14.86975 -0.4782014
v 0.5621291 15.84123 -0.4782012
v -1.311302E-05 15.84123 0.4782039
v 0.5621289 15.84123 0.3248923
v 0.5621289 15.84123 0.4782041
v -1.311302E-05 15.84123 0.3248921
v 0.5621291 15.84123 -0.4782012
v -1.263618E-05 15.84123 -0.3248896
v -1.263618E-05 15.84123 -0.4782014
v 0.5621291 15.84123 -0.3248894
v -1.311302E-05 15.84123 0.3248921
v 0.5621289 16.51575 0.3248923
v 0.5621289 15.84123 0.3248923
v -1.311302E-05 16.51575 0.3248921
v 0.5621291 15.84123 -0.3248894
v -1.263618E-05 16.51575 -0.3248895
v -1.263618E-05 15.84123 -0.3248896
v 0.5621291 16.51575 -0.3248894
v -1.311302E-05 16.51575 0.3248921
v 0.562129 16.62679 1.437765E-06
v 0.5621289 16.51575 0.3248923
v -1.28746E-05 16.62679 1.318556E-06
v -4.768372E-06 12.16474 2.271059
v 1.70591 14.26416 1.473716E-06
v 1.705909 14.26416 2.27106
v -4.291534E-06 12.16474 7.799755E-07
v -4.291534E-06 12.16474 7.799755E-07
v -3.814697E-06 3.21456 -2.271059
v -3.814697E-06 12.16474 -2.271058
v -4.291534E-06 3.21456 -1.447215E-07
v -4.768372E-06 12.16474 2.271059
v -4.291534E-06 3.21456 -1.447215E-07
v -4.291534E-06 12.16474 7.799755E-07
v -4.768372E-06 3.21456 2.271058
vt 0.06461373 0.007299155
vt 0.06461373 0.1116611
vt 0.1384099 0.1116611
vt 0.2122059 0.007299155
vt 0.2122059 0.1116611
vt 0.05255053 0.005430171
vt 0.005756579 0.1116611
vt 0.05255053 0.1116611
vt 0.005756579 0.005430171
vt 0.05255053 0.005430171
vt 0.005756579 0.1116611
vt 0.05255053 0.1116611
vt 0.005756579 0.005430171
vt 0.1395819 0.4111608
vt 0.06578574 0.4793797
vt 0.1395818 0.4793797
vt 0.06578574 0.4111608
vt 0.029417 0.4793797
vt -0.0006630104 0.4111608
vt 0.01605092 0.4793797
vt 0.04613094 0.4111608
vt -0.0006630104 0.1203327
vt 0.04613094 0.1203327
vt 0.029417 0.4793797
vt -0.0006630104 0.4111608
vt 0.01605092 0.4793797
vt 0.04613094 0.4111608
vt -0.0006630104 0.1203327
vt 0.04613094 0.1203327
vt 0.1706614 0.4827966
vt 0.1523956 0.4702474
vt 0.1523956 0.4827966
vt 0.1706614 0.4702474
vt 0.1523956 0.3297764
vt 0.1706614 0.2806888
vt 0.1706614 0.3297764
vt 0.1523956 0.2806888
vt 0.1706614 0.3297764
vt 0.1523956 0.2806888
vt 0.1523956 0.3297764
vt 0.1706614 0.2806888
vt 0.1706614 0.3297764
vt 0.1523956 0.3465621
vt 0.1523956 0.3297764
vt 0.1706614 0.3465621
vt 0.1523956 0.3297764
vt 0.1706614 0.3465621
vt 0.1706614 0.3297764
vt 0.1523956 0.3465621
vt 0.1706614 0.3465621
vt 0.1523956 0.3962347
vt 0.1523956 0.3465621
vt 0.1706614 0.3962347
vt 0.1523956 0.3465621
vt 0.1706614 0.3962334
vt 0.1706614 0.3465621
vt 0.1523956 0.3962334
vt 0.1706614 0.3962347
vt 0.1523956 0.4044825
vt 0.1523956 0.3962347
vt 0.1706614 0.4044825
vt 0.1523956 0.3962334
vt 0.1706614 0.4044813
vt 0.1706614 0.3962334
vt 0.1523956 0.4044813
vt 0.1697669 0.2085881
vt 0.1697669 0.2401557
vt 0.1747487 0.2401557
vt 0.1853056 0.120691
vt 0.1624344 0.1645271
vt 0.1624344 0.2085881
vt 0.1475113 0.120691
vt 0.1475113 0.164332
vt 0.1853056 0.2656814
vt 0.1747487 0.2620734
vt 0.1958627 0.2401557
vt 0.1958627 0.2620734
vt 0.2008444 0.2085881
vt 0.2008444 0.2401557
vt 0.2081771 0.164332
vt 0.2081771 0.2085881
vt 0.2231001 0.120691
vt 0.2231001 0.164332
vt 0.1706614 0.4044825
vt 0.1523956 0.4399908
vt 0.1523956 0.4044825
vt 0.1706614 0.4399908
vt 0.1523956 0.4044813
vt 0.1706614 0.4399897
vt 0.1706614 0.4044813
vt 0.1523956 0.4399897
vt 0.1706614 0.4399908
vt 0.1523956 0.4455943
vt 0.1523956 0.4399908
vt 0.1706614 0.4455944
vt 0.1523956 0.4399897
vt 0.1706614 0.4455935
vt 0.1706614 0.4399897
vt 0.1523956 0.4455935
vt 0.1706614 0.4455944
vt 0.1523956 0.4702487
vt 0.1523956 0.4455943
vt 0.1706614 0.4702487
vt 0.1523956 0.4455935
vt 0.1706614 0.4702474
vt 0.1706614 0.4455935
vt 0.1523956 0.4702474
vt 0.1706614 0.4702487
vt 0.1523956 0.4827966
vt 0.1523956 0.4702487
vt 0.1706614 0.4827966
vt 0.06578593 0.4111608
vt 0.1395818 0.4793797
vt 0.06578574 0.4793797
vt 0.1395819 0.4111608
vt 0.1395819 0.4111608
vt 0.06578574 0.1203327
vt 0.06578574 0.4111608
vt 0.1395818 0.1203327
vt 0.06578593 0.4111608
vt 0.1395818 0.1203327
vt 0.1395819 0.4111608
vt 0.06578574 0.1203327
vn -1 0 0
vn -1 0 0
vn -1 0 0
vn -1 0 0
vn -1 0 0
vn 0 0 1
vn 0 0 1
vn 0 0 1
vn 0 0 1
vn 0 0 -1
vn 0 0 -1
vn 0 0 -1
vn 0 0 -1
vn -0.7760896 0.6306226 0
vn -0.7760897 0.6306226 0
vn -0.7760896 0.6306227 0
vn -0.7760897 0.6306226 0
vn 0 0 1
vn 0 0 1
vn 0 0 1
vn 0 0 1
vn 0 0 1
vn 0 0 1
vn 0 0 -1
vn 0 0 -1
vn 0 0 -1
vn 0 0 -1
vn 0 0 -1
vn 0 0 -1
vn 0 0.9462625 -0.3233994
vn 0 0.9462625 -0.3233994
vn 0 0.9462625 -0.3233994
vn 0 0.9462625 -0.3233994
vn 0 0 1
vn 0 0 1
vn 0 0 1
vn 0 0 1
vn 0 0 -1
vn 0 0 -1
vn 0 0 -1
vn 0 0 -1
vn 0 1 0
vn 0 1 0
vn 0 1 0
vn 0 1 0
vn 0 0.9999145 -0.01307498
vn 0 0.9999145 -0.01307498
vn 0 0.9999145 -0.01307499
vn 0.01068226 0.999943 0
vn 0 0 1
vn 0 0 1
vn 0 0 1
vn 0 0 1
vn 0 0 -1
vn 0 0 -1
vn 0 0 -1
vn 0 0 -1
vn 0 1 0
vn 0 1 0
vn 0 1 0
vn 0 1 0
vn 0 1 0
vn 0 1 0
vn 0 1 0
vn 0 1 0
vn -1 0 0
vn -1 0 0
vn -1 0 0
vn -1 0 0
vn -1 0 0
vn -1 0 0
vn -1 0 0
vn -1 0 0
vn -1 0 0
vn -1 0 0
vn -1 0 0
vn -1 0 0
vn -1 0 0
vn -1 0 0
vn -1 0 0
vn -1 0 0
vn -1 0 0
vn -1 0 0
vn 0 0 1
vn 0 0 1
vn 0 0 1
vn 0 0 1
vn 0 0 -1
vn 0 0 -1
vn 0 0 -1
vn 0 0 -1
vn 0 1 0
vn 0 1 0
vn 0 1 0
vn 0 1 0
vn 0 1 0
vn 0 1 0
vn 0 1 0
vn 0 1 0
vn 0 0 1
vn 0 0 1
vn 0 0 1
vn 0 0 1
vn 0 0 -1
vn 0 0 -1
vn 0 0 -1
vn 0 0 -1
vn 0 0.9462643 0.3233944
vn 0 0.9462643 0.3233944
vn 0 0.9462643 0.3233944
vn 0 0.9462643 0.3233944
vn -0.7760896 0.6306227 0
vn -0.7760896 0.6306226 0
vn -0.7760896 0.6306226 0
vn -0.7760896 0.6306226 0
vn -1 0 0
vn -1 0 0
vn -1 0 0
vn -1 0 0
vn -1 0 0
vn -1 0 0
vn -1 0 0
vn -1 0 0
g Building_OldTown_D_0
f 3/3/3 2/2/2 1/1/1
f 4/4/4 3/3/3 1/1/1
f 5/5/5 3/3/3 4/4/4
f 8/8/8 7/7/7 6/6/6
f 9/9/9 6/6/6 7/7/7
f 12/12/12 11/11/11 10/10/10
f 13/13/13 10/10/10 11/11/11
f 16/16/16 15/15/15 14/14/14
f 17/17/17 14/14/14 15/15/15
f 20/20/20 19/19/19 18/18/18
f 21/21/21 18/18/18 19/19/19
f 19/19/19 22/22/22 21/21/21
f 23/23/23 21/21/21 22/22/22
f 26/26/26 25/25/25 24/24/24
f 27/27/27 24/24/24 25/25/25
f 25/25/25 28/28/28 27/27/27
f 29/29/29 27/27/27 28/28/28
f 32/32/32 31/31/31 30/30/30
f 33/33/33 30/30/30 31/31/31
f 36/36/36 35/35/35 34/34/34
f 37/37/37 34/34/34 35/35/35
f 40/40/40 39/39/39 38/38/38
f 41/41/41 38/38/38 39/39/39
f 44/44/44 43/43/43 42/42/42
f 45/45/45 42/42/42 43/43/43
f 48/48/48 47/47/47 46/46/46
f 49/49/49 46/46/46 47/47/47
f 52/52/52 51/51/51 50/50/50
f 53/53/53 50/50/50 51/51/51
f 56/56/56 55/55/55 54/54/54
f 57/57/57 54/54/54 55/55/55
f 60/60/60 59/59/59 58/58/58
f 61/61/61 58/58/58 59/59/59
f 64/64/64 63/63/63 62/62/62
f 65/65/65 62/62/62 63/63/63
f 68/68/68 67/67/67 66/66/66
f 69/69/69 68/68/68 66/66/66
f 66/66/66 70/70/70 69/69/69
f 71/71/71 70/70/70 66/66/66
f 72/72/72 69/69/69 70/70/70
f 73/73/73 72/72/72 70/70/70
f 69/69/69 74/74/74 68/68/68
f 74/74/74 75/75/75 68/68/68
f 76/76/76 74/74/74 69/69/69
f 77/77/77 74/74/74 76/76/76
f 78/78/78 76/76/76 69/69/69
f 79/79/79 76/76/76 78/78/78
f 78/78/78 69/69/69 80/80/80
f 81/81/81 78/78/78 80/80/80
f 82/82/82 80/80/80 69/69/69
f 83/83/83 80/80/80 82/82/82
f 86/86/86 85/85/85 84/84/84
f 87/87/87 84/84/84 85/85/85
f 90/90/90 89/89/89 88/88/88
f 91/91/91 88/88/88 89/89/89
f 94/94/94 93/93/93 92/92/92
f 95/95/95 92/92/92 93/93/93
f 98/98/98 97/97/97 96/96/96
f 99/99/99 96/96/96 97/97/97
f 102/102/102 101/101/101 100/100/100
f 103/103/103 100/100/100 101/101/101
f 106/106/106 105/105/105 104/104/104
f 107/107/107 104/104/104 105/105/105
f 110/110/110 109/109/109 108/108/108
f 111/111/111 108/108/108 109/109/109
f 114/114/114 113/113/113 112/112/112
f 115/115/115 112/112/112 113/113/113
f 118/118/118 117/117/117 116/116/116
f 119/119/119 116/116/116 117/117/117
f 122/122/122 121/121/121 120/120/120
f 123/123/123 120/120/120 121/121/121
