g Building_OldTown_G
v -0.5371885 11.21097 1.318791
v 5.52864 12.39596 1.522809
v -6.67572E-06 10.11397 1.522805
v 5.52864 13.73032 1.318792
v 5.52864 14.70513 0.7614048
v -1.281722 11.84204 0.7614039
v 5.52864 15.06248 3.316169E-07
v -1.64992 12.06294 -8.556592E-07
v -1.28172 11.84204 -0.7614053
v 5.52864 15.06248 3.316169E-07
v -1.64992 12.06294 -8.556592E-07
v 5.52864 14.70513 -0.7614042
v 5.52864 13.73033 -1.318791
v -0.5371881 11.21097 -1.318792
v 5.52864 12.39596 -1.522808
v -6.198883E-06 10.11397 -1.522808
v -0.4425309 11.10333 1.126014
v -7.152557E-06 10.39215 1.30021
v -7.390976E-06 11.49636 1.126014
v -7.152557E-06 12.18063 0.6501044
v -1.024756 11.62062 0.6501044
v -7.152557E-06 12.43109 -4.134593E-07
v -1.255994 11.82095 -6.75984E-07
v -7.152557E-06 12.18063 -0.6501053
v -1.255994 11.82095 -6.75984E-07
v -7.152557E-06 12.43109 -4.134593E-07
v -1.024756 11.62062 -0.6501054
v -6.914139E-06 11.49636 -1.126015
v -0.4425304 11.10333 -1.126015
v -6.914139E-06 10.39215 -1.30021
v -6.67572E-06 10.11397 1.522805
v -0.6125751 11.0767 1.222402
v -0.5371885 11.21097 1.318791
v -1.281722 11.84204 0.7614039
v -1.28634 11.66602 0.705754
v -1.64992 12.06294 -8.556592E-07
v -1.622806 11.87387 -7.972426E-07
v -1.622806 11.87387 -7.972426E-07
v -1.28172 11.84204 -0.7614053
v -1.64992 12.06294 -8.556592E-07
v -1.28634 11.66602 -0.7057554
v -0.5371881 11.21097 -1.318792
v -0.6125746 11.0767 -1.222403
v -6.198883E-06 10.11397 -1.522808
v -1.622806 11.87387 -7.972426E-07
v -1.024756 11.62062 0.6501044
v -1.255994 11.82095 -6.75984E-07
v -1.28634 11.66602 0.705754
v -0.4425309 11.10333 1.126014
v -0.6125751 11.0767 1.222402
v -7.152557E-06 10.39215 1.30021
v -6.67572E-06 10.11397 1.522805
v -1.255994 11.82095 -6.75984E-07
v -1.28634 11.66602 -0.7057554
v -1.622806 11.87387 -7.972426E-07
v -1.024756 11.62062 -0.6501054
v -0.6125746 11.0767 -1.222403
v -0.4425304 11.10333 -1.126015
v -6.914139E-06 10.39215 -1.30021
v -6.198883E-06 10.11397 -1.522808
v -7.142022E-06 3.214563 -3.576279E-07
v -6.67572E-06 10.11397 1.522805
v -7.001002E-06 3.214563 1.522808
v -7.152557E-06 10.39215 1.30021
v -7.390976E-06 11.49636 1.126014
v -7.152557E-06 12.18063 0.6501044
v -7.152557E-06 12.43109 -4.134593E-07
v 5.52864 3.214563 -1.522808
v -6.198883E-06 10.11397 -1.522808
v -6.686806E-06 3.214562 -1.522809
v 5.52864 12.39596 -1.522808
v -7.152557E-06 12.43109 -4.134593E-07
v -7.142022E-06 3.214563 -3.576279E-07
v -7.152557E-06 12.18063 -0.6501053
v -6.914139E-06 11.49636 -1.126015
v -6.914139E-06 10.39215 -1.30021
v -6.198883E-06 10.11397 -1.522808
v -6.686806E-06 3.214562 -1.522809
v 5.52864 3.214562 1.522809
v -6.67572E-06 10.11397 1.522805
v 5.52864 12.39596 1.522809
v -7.001002E-06 3.214563 1.522808
v -7.142022E-06 3.214563 -3.576279E-07
v -7.001002E-06 3.214563 1.522808
v -7.152557E-06 -7.162711E-06 1.522809
v -6.914139E-06 -5.659496E-06 -1.52281
v -6.686806E-06 3.214562 -1.522809
v -6.686806E-06 3.214562 -1.522809
v 5.52864 -6.411104E-06 -1.522809
v 5.52864 3.214563 -1.522808
v -6.914139E-06 -5.659496E-06 -1.52281
v 5.52864 3.214562 1.522809
v -7.152557E-06 -7.162711E-06 1.522809
v -7.001002E-06 3.214563 1.522808
v 5.52864 -7.162711E-06 1.52281
vt 0.4224961 0.8020232
vt 0.4571387 0.7677038
vt 0.4224961 0.7677038
vt 0.4571387 0.8020232
vt 0.4571387 0.8290198
vt 0.4224961 0.8290198
vt 0.4571387 0.8607261
vt 0.4224961 0.8606967
vt 0.4224961 0.8290198
vt 0.4571387 0.8607261
vt 0.4224961 0.8606967
vt 0.4571394 0.8290198
vt 0.4571394 0.8020232
vt 0.4224961 0.8020232
vt 0.4571394 0.7677038
vt 0.4224961 0.7677038
vt 0.4210853 0.7056016
vt 0.4187441 0.6741776
vt 0.4132958 0.7056016
vt 0.4132958 0.7285257
vt 0.4210853 0.7285257
vt 0.4132958 0.7524084
vt 0.4210853 0.7524084
vt 0.4132958 0.7285257
vt 0.4210853 0.7524084
vt 0.4132958 0.7524084
vt 0.4210853 0.7285257
vt 0.4132958 0.7056016
vt 0.4210853 0.7056016
vt 0.4187441 0.6741776
vt 0.4178567 0.7677038
vt 0.411666 0.8020232
vt 0.4178567 0.8020232
vt 0.4178567 0.8290198
vt 0.411666 0.8290198
vt 0.4178567 0.8606967
vt 0.411666 0.8606822
vt 0.411666 0.8606822
vt 0.4178567 0.8290198
vt 0.4178567 0.8606967
vt 0.411666 0.8290198
vt 0.4178567 0.8020232
vt 0.411666 0.8020232
vt 0.4178567 0.7677038
vt 0.411666 0.8606822
vt 0.4070763 0.8290198
vt 0.4070763 0.860694
vt 0.411666 0.8290198
vt 0.4070763 0.8020232
vt 0.411666 0.8020232
vt 0.4070763 0.7677038
vt 0.4178567 0.7677038
vt 0.4070763 0.860694
vt 0.411666 0.8290198
vt 0.411666 0.8606822
vt 0.4070763 0.8290198
vt 0.411666 0.8020232
vt 0.4070763 0.8020232
vt 0.4070763 0.7677038
vt 0.4178567 0.7677038
vt 0.5860858 0.6131042
vt 0.5332879 0.8523164
vt 0.5332879 0.6131042
vt 0.5410057 0.8619611
vt 0.5470454 0.9002461
vt 0.5635457 0.9239706
vt 0.586086 0.9326546
vt 0.4779344 0.613107
vt 0.5176166 0.8520974
vt 0.5176166 0.613107
vt 0.4779344 0.931217
vt 0.586086 0.9326546
vt 0.5860858 0.6131042
vt 0.5635457 0.9239706
vt 0.5470454 0.9002461
vt 0.5410057 0.8619614
vt 0.5332879 0.8523164
vt 0.5332879 0.6131042
vt 0.4779344 0.613107
vt 0.5176166 0.8520974
vt 0.4779344 0.931217
vt 0.5176166 0.613107
vt 0.5264521 0.5979876
vt 0.57925 0.5979876
vt 0.57925 0.4865338
vt 0.473654 0.4865339
vt 0.473654 0.5979876
vt 0.473654 0.5979876
vt 0.4454438 0.4865339
vt 0.4454438 0.5979876
vt 0.473654 0.4865339
vt 0.473654 0.5979876
vt 0.4454438 0.4865339
vt 0.4454438 0.5979876
vt 0.473654 0.4865339
vn -0.3974434 0.1414734 0.9066553
vn -0.03924132 0.09454097 0.9947472
vn -0.05263245 0.06075507 0.9967641
vn -0.1513985 0.36452 0.9188056
vn -0.3058723 0.7298046 0.6114142
vn -0.6497436 0.3654729 0.6665304
vn -0.3873908 0.9219157 0
vn -0.8674829 0.4974656 -0.001209268
vn -0.6502357 0.3632731 -0.6672528
vn -0.3873908 0.9219157 0
vn -0.8674829 0.4974656 -0.001209268
vn -0.3065716 0.7292349 -0.6117437
vn -0.1530528 0.3650603 -0.9183168
vn -0.3997797 0.1426802 -0.9054383
vn -0.03924103 0.09454127 -0.9947472
vn -0.05263223 0.06075556 -0.9967641
vn -0.03541687 -0.483525 -0.8746137
vn -0.4070237 -0.4840802 -0.7745955
vn 0.373548 -0.4205829 -0.8267841
vn 0.4231682 -0.7279081 -0.5395167
vn 0.03659129 -0.8466778 -0.5308464
vn 0.450812 -0.8925509 -0.01102466
vn 0.09895873 -0.9949992 -0.01355764
vn 0.3851222 -0.74633 0.5428374
vn 0.09895873 -0.9949992 -0.01355764
vn 0.450812 -0.8925509 -0.01102466
vn 0.0511595 -0.8373858 0.5442131
vn 0.2730666 -0.3950824 0.8771228
vn -0.0280685 -0.4578996 0.8885607
vn -0.4070267 -0.4840819 0.7745928
vn -0.05263245 0.06075507 0.9967641
vn -0.656711 -0.1640435 0.7360846
vn -0.3974434 0.1414734 0.9066553
vn -0.6497436 0.3654729 0.6665304
vn -0.8061197 -0.1606375 0.5695319
vn -0.8674829 0.4974656 -0.001209268
vn -0.9901088 -0.1402638 -0.00325966
vn -0.9901088 -0.1402638 -0.00325966
vn -0.6502357 0.3632731 -0.6672528
vn -0.8674829 0.4974656 -0.001209268
vn -0.8027721 -0.1573018 -0.5751635
vn -0.3997797 0.1426802 -0.9054383
vn -0.6587159 -0.1582129 -0.7355692
vn -0.05263223 0.06075556 -0.9967641
vn -0.1516281 -0.988417 -0.006395901
vn 0.03659129 -0.8466778 -0.5308464
vn 0.09895873 -0.9949992 -0.01355764
vn -0.2241242 -0.9225249 -0.3141916
vn -0.03541687 -0.483525 -0.8746137
vn -0.307477 -0.6518525 -0.6932144
vn -0.4070237 -0.4840802 -0.7745955
vn -0.5138867 -0.5359782 -0.6698118
vn 0.09895873 -0.9949992 -0.01355764
vn -0.217509 -0.915996 0.3371071
vn -0.1516281 -0.988417 -0.006395901
vn 0.0511595 -0.8373858 0.5442131
vn -0.3079146 -0.6578453 0.6873341
vn -0.0280685 -0.4578996 0.8885607
vn -0.4070267 -0.4840819 0.7745928
vn -0.5138902 -0.5359801 0.6698076
vn -1 0 0
vn -1 0 0
vn -1 0 0
vn -1 0 0
vn -1 0 0
vn -1 0 0
vn -1 0 0
vn 0 0 -1
vn -0.05263223 0.06075556 -0.9967641
vn 0 0 -1
vn -0.03924103 0.09454127 -0.9947472
vn -1 0 0
vn -1 0 0
vn -1 0 0
vn -1 0 0
vn -1 0 0
vn -1 0 0
vn -1 0 0
vn 0 0 1
vn -0.05263245 0.06075507 0.9967641
vn -0.03924132 0.09454097 0.9947472
vn 0 0 1
vn -1 0 0
vn -1 0 0
vn -1 0 0
vn -1 0 0
vn -1 0 0
vn 0 0 -1
vn 0 0 -1
vn 0 0 -1
vn 0 0 -1
vn 0 0 1
vn 0 0 1
vn 0 0 1
vn 0 0 1
g Building_OldTown_G_0
f 3/3/3 2/2/2 1/1/1
f 4/4/4 1/1/1 2/2/2
f 4/4/4 5/5/5 1/1/1
f 6/6/6 1/1/1 5/5/5
f 5/5/5 7/7/7 6/6/6
f 8/8/8 6/6/6 7/7/7
f 11/11/11 10/10/10 9/9/9
f 12/12/12 9/9/9 10/10/10
f 12/12/12 13/13/13 9/9/9
f 14/14/14 9/9/9 13/13/13
f 13/13/13 15/15/15 14/14/14
f 16/16/16 14/14/14 15/15/15
f 19/19/19 18/18/18 17/17/17
f 19/19/19 17/17/17 20/20/20
f 21/21/21 20/20/20 17/17/17
f 20/20/20 21/21/21 22/22/22
f 23/23/23 22/22/22 21/21/21
f 26/26/26 25/25/25 24/24/24
f 27/27/27 24/24/24 25/25/25
f 24/24/24 27/27/27 28/28/28
f 29/29/29 28/28/28 27/27/27
f 30/30/30 28/28/28 29/29/29
f 33/33/33 32/32/32 31/31/31
f 33/33/33 34/34/34 32/32/32
f 35/35/35 32/32/32 34/34/34
f 34/34/34 36/36/36 35/35/35
f 37/37/37 35/35/35 36/36/36
f 40/40/40 39/39/39 38/38/38
f 41/41/41 38/38/38 39/39/39
f 39/39/39 42/42/42 41/41/41
f 43/43/43 41/41/41 42/42/42
f 42/42/42 44/44/44 43/43/43
f 47/47/47 46/46/46 45/45/45
f 48/48/48 45/45/45 46/46/46
f 46/46/46 49/49/49 48/48/48
f 50/50/50 48/48/48 49/49/49
f 50/50/50 49/49/49 51/51/51
f 52/52/52 50/50/50 51/51/51
f 55/55/55 54/54/54 53/53/53
f 56/56/56 53/53/53 54/54/54
f 54/54/54 57/57/57 56/56/56
f 58/58/58 56/56/56 57/57/57
f 57/57/57 59/59/59 58/58/58
f 60/60/60 59/59/59 57/57/57
f 63/63/63 62/62/62 61/61/61
f 64/64/64 61/61/61 62/62/62
f 65/65/65 61/61/61 64/64/64
f 66/66/66 61/61/61 65/65/65
f 67/67/67 61/61/61 66/66/66
f 70/70/70 69/69/69 68/68/68
f 71/71/71 68/68/68 69/69/69
f 74/74/74 73/73/73 72/72/72
f 75/75/75 73/73/73 74/74/74
f 76/76/76 73/73/73 75/75/75
f 76/76/76 77/77/77 73/73/73
f 78/78/78 73/73/73 77/77/77
f 81/81/81 80/80/80 79/79/79
f 82/82/82 79/79/79 80/80/80
f 85/85/85 84/84/84 83/83/83
f 86/86/86 85/85/85 83/83/83
f 87/87/87 86/86/86 83/83/83
f 90/90/90 89/89/89 88/88/88
f 91/91/91 88/88/88 89/89/89
f 94/94/94 93/93/93 92/92/92
f 95/95/95 92/92/92 93/93/93
