g Building_OldTown_B
v -1.15037E-05 11.34772 1.208543
v 1.278745 10.64997 1.395505
v -1.144409E-05 10.64997 1.395505
v 1.278745 11.34772 1.208543
v -1.15037E-05 11.85851 0.6977525
v 1.278744 11.85851 0.6977526
v -1.144409E-05 12.04547 -2.049068E-07
v 1.278745 12.04547 -5.029708E-08
v -1.126528E-05 11.85851 -0.6977528
v 1.278745 12.04547 -5.029708E-08
v -1.144409E-05 12.04547 -2.049068E-07
v 1.278745 11.85851 -0.6977527
v -1.114607E-05 11.34772 -1.208543
v 1.278745 11.34772 -1.208543
v -1.096725E-05 10.64997 -1.395505
v 1.278745 10.64997 -1.395505
v -1.144409E-05 12.04547 -2.049068E-07
v -1.15037E-05 11.85851 0.6977525
v -1.03436E-05 3.214562 -4.768372E-07
v -1.15037E-05 11.34772 1.208543
v -1.144409E-05 10.64997 1.395505
v -1.061182E-05 3.214562 2.56637
v -1.144409E-05 10.64997 2.56637
v 4.454797 3.214563 2.566371
v -1.144409E-05 10.64997 2.56637
v 4.454796 10.64997 2.566371
v -1.061182E-05 3.214562 2.56637
v -1.007538E-05 3.214563 -2.566371
v 4.454797 10.64997 -2.566371
v -1.090765E-05 10.64997 -2.566371
v 4.454797 3.214562 -2.566371
v -1.096725E-05 10.64997 -1.395505
v -1.007538E-05 3.214563 -2.566371
v -1.090765E-05 10.64997 -2.566371
v -1.03436E-05 3.214562 -4.768372E-07
v -1.114607E-05 11.34772 -1.208543
v -1.126528E-05 11.85851 -0.6977528
v -1.144409E-05 12.04547 -2.049068E-07
v 4.454788 11.38274 -0.7327747
v 1.278743 10.64996 -1.072857
v 4.454789 10.64996 -1.072857
v 1.278743 11.38274 -0.7327747
v 4.454788 11.72282 -4.249658E-08
v 1.278742 11.72282 -1.284509E-07
v 1.278742 11.38274 0.7327746
v 4.454788 10.64996 1.072857
v 1.278742 10.64996 1.072856
v 4.454788 11.38274 0.7327746
v 1.278742 11.72282 -1.284509E-07
v 4.454788 11.72282 -4.249658E-08
v 4.454797 3.214563 2.566371
v -1.0252E-05 -1.571449E-16 2.56637
v -1.061182E-05 3.214562 2.56637
v 4.454797 -1.571449E-16 2.566371
v -1.007538E-05 3.214563 -2.566371
v 4.454798 1.571449E-16 -2.566371
v 4.454797 3.214562 -2.566371
v -9.715557E-06 1.571449E-16 -2.566371
v -1.007538E-05 3.214563 -2.566371
v -1.03436E-05 3.214562 -4.768372E-07
v -9.715557E-06 1.571449E-16 -2.566371
v -1.0252E-05 -1.571449E-16 2.56637
v -1.061182E-05 3.214562 2.56637
v -1.090765E-05 10.64997 -2.566371
v 1.278745 10.64997 -1.395505
v -1.096725E-05 10.64997 -1.395505
v 4.454797 10.64997 -2.566371
v 4.454789 10.64996 -1.072857
v 1.278743 10.64996 -1.072857
v 1.278745 10.64997 1.395505
v -1.144409E-05 10.64997 2.56637
v -1.144409E-05 10.64997 1.395505
v 4.454796 10.64997 2.566371
v 4.454788 10.64996 1.072857
v 1.278742 10.64996 1.072856
vt 0.3816885 0.393416
vt 0.3558466 0.3809758
vt 0.3816885 0.3809758
vt 0.3558466 0.393416
vt 0.3816885 0.4050818
vt 0.3558466 0.4050818
vt 0.3816885 0.4170979
vt 0.3558466 0.4170979
vt 0.3816885 0.4050818
vt 0.3558466 0.4170979
vt 0.3816885 0.4170979
vt 0.3558466 0.4050818
vt 0.3816885 0.393416
vt 0.3558466 0.393416
vt 0.3816885 0.3809758
vt 0.3558466 0.3809758
vt 0.5921428 0.3859536
vt 0.6126839 0.3804497
vt 0.5921428 0.1259836
vt 0.6277208 0.365413
vt 0.6332247 0.3448719
vt 0.6676933 0.1259836
vt 0.6676933 0.3448719
vt 0.712624 0.1259836
vt 0.6676933 0.3448717
vt 0.712624 0.3448717
vt 0.6676933 0.1259836
vt 0.712624 0.1259836
vt 0.6676935 0.3448717
vt 0.712624 0.3448717
vt 0.6676935 0.1259836
vt 0.6332244 0.3448719
vt 0.6676933 0.1259836
vt 0.6676933 0.3448719
vt 0.5921428 0.1259836
vt 0.6277207 0.365413
vt 0.6126837 0.3804497
vt 0.5921428 0.3859536
vt 0.382962 0.3998001
vt 0.322975 0.3817784
vt 0.382962 0.3817784
vt 0.322975 0.3998001
vt 0.382962 0.4164838
vt 0.322975 0.4164838
vt 0.322975 0.3998001
vt 0.382962 0.3817784
vt 0.322975 0.3817784
vt 0.382962 0.3998001
vt 0.322975 0.4164838
vt 0.382962 0.4164838
vt 0.8520319 0.112245
vt 0.8152137 0.006216439
vt 0.8152137 0.112245
vt 0.8520319 0.006216439
vt 0.8520319 0.112245
vt 0.8152139 0.006216439
vt 0.8152139 0.112245
vt 0.8520319 0.006216439
vt 0.6459158 0.112245
vt 0.7305647 0.112245
vt 0.6459158 0.006216439
vt 0.8152137 0.006216439
vt 0.8152137 0.112245
vt 0.6941668 0.372303
vt 0.6833575 0.3624056
vt 0.6941668 0.3624056
vt 0.6565102 0.372303
vt 0.6565102 0.3596783
vt 0.6833575 0.3596783
vt 0.6833575 0.3623933
vt 0.6941668 0.3722907
vt 0.6941668 0.3623933
vt 0.6565102 0.3722907
vt 0.6565102 0.359666
vt 0.6833575 0.359666
vn 0 0.5000002 0.8660253
vn 0 0.2588189 0.9659258
vn 0 0.2588189 0.9659258
vn 0 0.5000002 0.8660253
vn 0 0.8660256 0.4999996
vn 0 0.8660254 0.5
vn 0 1 0
vn 0 1 0
vn 0 0.8660255 -0.4999999
vn 0 1 0
vn 0 1 0
vn 0 0.8660253 -0.5000003
vn 0 0.5000002 -0.8660253
vn 0 0.5000001 -0.8660253
vn 0 0.2588189 -0.9659258
vn 0 0.2588189 -0.9659258
vn -1 0 0
vn -1 0 0
vn -1 0 0
vn -1 0 0
vn -1 0 0
vn -1 0 0
vn -1 0 0
vn 0 0 1
vn 0 0 1
vn 0 0 1
vn 0 0 1
vn 0 0 -1
vn 0 0 -1
vn 0 0 -1
vn 0 0 -1
vn -1 0 0
vn -1 0 0
vn -1 0 0
vn -1 0 0
vn -1 0 0
vn -1 0 0
vn -1 0 0
vn 0 0.7071065 -0.707107
vn 0 0.4209741 -0.9070727
vn 0 0.4209738 -0.9070728
vn 0 0.7071068 -0.7071067
vn 0 1 0
vn 0 1 0
vn 0 0.7071066 0.7071069
vn 0 0.4209739 0.9070728
vn 0 0.4209736 0.9070728
vn 0 0.7071066 0.7071069
vn 0 1 0
vn 0 1 0
vn 0 0 1
vn 0 0 1
vn 0 0 1
vn 0 0 1
vn 0 0 -1
vn 0 0 -1
vn 0 0 -1
vn 0 0 -1
vn -1 0 0
vn -1 0 0
vn -1 0 0
vn -1 0 0
vn -1 0 0
vn 0 1 0
vn 0 1 0
vn 0 1 0
vn 0 1 0
vn 0 1 0
vn 0 1 1.182308E-05
vn 0 1 0
vn 0 1 0
vn 0 1 0
vn 0 1 0
vn 0 1 0
vn 0 1 -1.182305E-05
g Building_OldTown_B_0
f 3/3/3 2/2/2 1/1/1
f 4/4/4 1/1/1 2/2/2
f 1/1/1 4/4/4 5/5/5
f 6/6/6 5/5/5 4/4/4
f 5/5/5 6/6/6 7/7/7
f 8/8/8 7/7/7 6/6/6
f 11/11/11 10/10/10 9/9/9
f 12/12/12 9/9/9 10/10/10
f 9/9/9 12/12/12 13/13/13
f 14/14/14 13/13/13 12/12/12
f 13/13/13 14/14/14 15/15/15
f 16/16/16 15/15/15 14/14/14
f 19/19/19 18/18/18 17/17/17
f 20/20/20 18/18/18 19/19/19
f 21/21/21 20/20/20 19/19/19
f 19/19/19 22/22/22 21/21/21
f 21/21/21 22/22/22 23/23/23
f 26/26/26 25/25/25 24/24/24
f 27/27/27 24/24/24 25/25/25
f 30/30/30 29/29/29 28/28/28
f 31/31/31 28/28/28 29/29/29
f 34/34/34 33/33/33 32/32/32
f 32/32/32 33/33/33 35/35/35
f 32/32/32 35/35/35 36/36/36
f 36/36/36 35/35/35 37/37/37
f 37/37/37 35/35/35 38/38/38
f 41/41/41 40/40/40 39/39/39
f 42/42/42 39/39/39 40/40/40
f 39/39/39 42/42/42 43/43/43
f 44/44/44 43/43/43 42/42/42
f 47/47/47 46/46/46 45/45/45
f 48/48/48 45/45/45 46/46/46
f 45/45/45 48/48/48 49/49/49
f 50/50/50 49/49/49 48/48/48
f 53/53/53 52/52/52 51/51/51
f 54/54/54 51/51/51 52/52/52
f 57/57/57 56/56/56 55/55/55
f 58/58/58 55/55/55 56/56/56
f 61/61/61 60/60/60 59/59/59
f 62/62/62 60/60/60 61/61/61
f 63/63/63 60/60/60 62/62/62
f 66/66/66 65/65/65 64/64/64
f 67/67/67 64/64/64 65/65/65
f 67/67/67 65/65/65 68/68/68
f 69/69/69 68/68/68 65/65/65
f 72/72/72 71/71/71 70/70/70
f 73/73/73 70/70/70 71/71/71
f 73/73/73 74/74/74 70/70/70
f 75/75/75 70/70/70 74/74/74
