g Bush_Mound_Single_C
v 0.01949582 0.2002976 -0.3176341
v -0.1717502 0.01331839 -0.3384738
v 0.01949582 0.01331839 -0.3897181
v 0.2107421 0.01331839 -0.3384736
v -0.1925168 0.2002976 -0.2192387
v -0.3117519 0.01331839 -0.1984721
v 0.2315086 0.2002976 -0.2192385
v 0.3507438 0.01331839 -0.1984718
v -0.2909122 0.2002976 -0.007226131
v -0.3629961 0.01331839 -0.007226142
v -0.311752 0.01331839 0.1840198
v 0.01949583 0.3344296 -0.1523472
v 0.3299038 0.2002976 -0.007225842
v 0.4019878 0.01331839 -0.007225786
v 0.3507434 0.01331839 0.1840201
v -0.1925168 0.2002976 0.2047864
v -0.1717502 0.01331839 0.3240216
v -0.1256253 0.3344296 -0.007226106
v 0.1646169 0.3344296 -0.007225971
v 0.2315083 0.2002976 0.2047867
v 0.2107416 0.01331839 0.3240218
v 0.01949569 0.2002976 0.3031819
v 0.01949565 0.01331839 0.3752659
v 0.01949576 0.3344296 0.137895
v 0.01949583 0.3646679 -0.007226084
vt 0.3781427 0.9396097
vt 0.3194305 0.9740247
vt 0.3783531 0.9934794
vt 0.4369939 0.9737355
vt 0.3349699 0.9186994
vt 0.2802659 0.9308604
vt 0.4211953 0.9185201
vt 0.4759517 0.9304416
vt 0.3156034 0.8757
vt 0.2664963 0.8758107
vt 0.28005 0.8207197
vt 0.3781617 0.8988391
vt 0.440396 0.8754615
vt 0.4895032 0.8753492
vt 0.4757314 0.8203003
vt 0.3348049 0.8326424
vt 0.3190078 0.7774287
vt 0.3551219 0.8757204
vt 0.4008776 0.8754418
vt 0.4210286 0.8324629
vt 0.4365661 0.7771386
vt 0.3778564 0.8115537
vt 0.3776454 0.7576865
vt 0.3778378 0.8523235
vt 0.3779998 0.8755811
vn 0 0.5928682 -0.8052995
vn -0.4553812 0.3981624 -0.7963006
vn 0 0.3597132 -0.9330629
vn 0.4553817 0.3981624 -0.7963004
vn -0.5591288 0.6121684 -0.5591287
vn -0.7963006 0.3981624 -0.4553812
vn 0.559129 0.6121684 -0.5591284
vn 0.796301 0.3981624 -0.4553806
vn -0.8052995 0.5928682 0
vn -0.9330629 0.3597132 0
vn -0.7963008 0.3981625 0.455381
vn 0 0.8955294 -0.4450026
vn 0.8052995 0.5928683 0
vn 0.9330629 0.3597133 0
vn 0.7963003 0.3981624 0.4553818
vn -0.5591289 0.6121684 0.5591286
vn -0.4553816 0.3981624 0.7963005
vn -0.4450026 0.8955293 0
vn 0.4450026 0.8955293 0
vn 0.5591283 0.6121684 0.559129
vn 0.4553808 0.3981624 0.7963008
vn 0 0.5928682 0.8052995
vn 0 0.3597132 0.9330629
vn 0 0.8955293 0.4450026
vn 0 1 0
g Bush_Mound_Single_C_0
f 3/3/3 2/2/2 1/1/1
f 3/3/3 1/1/1 4/4/4
f 2/2/2 5/5/5 1/1/1
f 2/2/2 6/6/6 5/5/5
f 4/4/4 1/1/1 7/7/7
f 8/8/8 4/4/4 7/7/7
f 6/6/6 9/9/9 5/5/5
f 10/10/10 9/9/9 6/6/6
f 10/10/10 11/11/11 9/9/9
f 1/1/1 5/5/5 12/12/12
f 1/1/1 12/12/12 7/7/7
f 8/8/8 7/7/7 13/13/13
f 14/14/14 8/8/8 13/13/13
f 14/14/14 13/13/13 15/15/15
f 11/11/11 16/16/16 9/9/9
f 11/11/11 17/17/17 16/16/16
f 9/9/9 18/18/18 5/5/5
f 5/5/5 18/18/18 12/12/12
f 9/9/9 16/16/16 18/18/18
f 13/13/13 7/7/7 19/19/19
f 7/7/7 12/12/12 19/19/19
f 15/15/15 13/13/13 20/20/20
f 13/13/13 19/19/19 20/20/20
f 21/21/21 15/15/15 20/20/20
f 17/17/17 22/22/22 16/16/16
f 21/21/21 20/20/20 22/22/22
f 23/23/23 22/22/22 17/17/17
f 23/23/23 21/21/21 22/22/22
f 22/22/22 24/24/24 16/16/16
f 22/22/22 20/20/20 24/24/24
f 16/16/16 24/24/24 18/18/18
f 20/20/20 19/19/19 24/24/24
f 12/12/12 18/18/18 25/25/25
f 18/18/18 24/24/24 25/25/25
f 24/24/24 19/19/19 25/25/25
f 19/19/19 12/12/12 25/25/25
