g Bush_Mounds_A
v 0.02511637 0.1186912 -0.3329639
v -0.2829204 0.005134048 -0.2726088
v 0.01714131 0.005134048 -0.3946044
v -0.220895 0.2022739 -0.2200495
v -0.4143129 0.005134048 -0.007111333
v 0.03239715 0.3287324 -0.155302
v 0.2354575 0.1915387 -0.2389561
v -0.3394443 0.2041783 -0.008427721
v -0.3560212 0.005134048 0.1782571
v -0.1428717 0.3363801 -0.002006044
v -0.22025 0.1985022 0.2039756
v -0.1930586 0.005134048 0.3215127
v 0.02214221 0.005134048 0.3703795
v 0.1916569 0.334712 -0.01476879
v 0.3639839 0.1846771 -0.05145334
v 0.0220862 0.3708732 -0.006154214
v 0.0160372 0.338514 0.1349402
v 0.02487125 0.2050561 0.3061692
v 0.2477956 0.005134048 0.3305371
v 0.2684748 0.20153 0.2037299
v 0.4535454 0.0428519 0.09616965
v 0.4075606 0.005134048 0.1880594
v -0.2519701 0.1087738 -0.2261983
v -0.3780405 0.005134048 -0.3277681
v -0.2262934 0.005134048 -0.2710637
v -0.3942127 0.1090763 -0.2847369
v -0.5891691 0.005134048 -0.3140093
v -0.3938225 0.1761572 -0.2063612
v -0.3204891 0.1698137 -0.06068682
v -0.6165388 0.1119973 -0.2429522
v -0.7170067 0.005134049 -0.237926
v -0.5949299 0.1707173 -0.1294822
v -0.7107823 0.1096996 -0.1092111
v -0.7690766 0.005134048 -0.1177611
v -0.7428139 0.005134048 0.006169374
v -0.4421344 0.1953766 -0.08288492
v -0.4786885 0.1736106 0.01934691
v -0.3441284 0.1174741 0.07191738
v -0.6426227 0.1095388 0.02840909
v -0.6346 0.005134048 0.1019784
v -0.4871297 0.1105212 0.1037158
v -0.3207043 0.005134048 0.1286492
v -0.4894529 0.005134048 0.1446865
v 0.02511637 0.1186912 -0.3329639
v -0.1770492 0.005134048 -0.2914815
v -0.0003690515 0.005134048 -0.4708271
v 0.2849036 0.1164794 -0.4847611
v 0.2055415 0.005134048 -0.5608044
v 0.4201262 0.005134048 -0.5551081
v 0.5151165 0.1175271 -0.3136147
v 0.5683187 0.005134048 -0.4391805
v 0.6237949 0.005134048 -0.2527556
v 0.5509846 0.005134048 -0.04415034
v 0.3083498 0.1817456 -0.319016
v 0.2354575 0.1915387 -0.2389561
v 0.3639839 0.1846771 -0.05145334
v 0.4509635 0.1447041 -0.08056124
v 0.4535454 0.0428519 0.09616965
v 0.3655452 0.07981851 0.137584
v 0.4863315 0.005134048 0.2445859
v 0.3489341 0.005134048 0.1611409
v 0.5326602 0.1015744 0.1758607
v 0.599051 0.005134048 0.2529441
v 0.3801377 0.1147441 0.04567292
v 0.6838249 0.005134048 0.200848
v 0.5113929 0.1361936 0.0566066
v 0.4772522 0.09860078 -0.09845596
v 0.6299428 0.09986422 0.04330669
v 0.7214876 0.005134048 0.1122716
v 0.6958907 0.005134048 0.005483616
v 0.6241665 0.005134048 -0.08435079
v 0.5121526 0.005134048 -0.1479088
vt 0.1261541 0.9396097
vt 0.04785954 0.9524425
vt 0.1263644 0.9934794
vt 0.08298134 0.9186994
vt 0.01450772 0.8758107
vt 0.1261731 0.8988391
vt 0.1692066 0.9185201
vt 0.06361481 0.8757
vt 0.02806141 0.8207197
vt 0.1031333 0.8757204
vt 0.08281629 0.8326424
vt 0.06701913 0.7774287
vt 0.1256568 0.7576865
vt 0.1488889 0.8754418
vt 0.1884074 0.8754615
vt 0.1260112 0.8755811
vt 0.1258492 0.8523235
vt 0.1258678 0.8115537
vt 0.1845774 0.7771386
vt 0.1690399 0.8324629
vt 0.2375146 0.8753492
vt 0.2237428 0.8203003
vt 0.07159609 0.8444664
vt 0.06701913 0.7774287
vt 0.02806141 0.8207197
vt 0.0940365 0.8208184
vt 0.1256568 0.7576865
vt 0.1048343 0.8544244
vt 0.1050739 0.8969765
vt 0.1418173 0.8161147
vt 0.1845774 0.7771386
vt 0.146948 0.8541858
vt 0.1803131 0.84425
vt 0.2237428 0.8203003
vt 0.2375146 0.8753492
vt 0.1260112 0.8755813
vt 0.1471881 0.896738
vt 0.1261545 0.9352912
vt 0.1844171 0.8910785
vt 0.2239631 0.9304416
vt 0.1579864 0.9303445
vt 0.1263644 0.9934794
vt 0.1850053 0.9737355
vt 0.1443132 0.678407
vt 0.1263644 0.7429011
vt 0.1850053 0.7231572
vt 0.1844171 0.6405003
vt 0.2239631 0.6798634
vt 0.2375146 0.6247709
vt 0.1690399 0.5818846
vt 0.2237428 0.5697221
vt 0.1845774 0.5265604
vt 0.1259118 0.5454655
vt 0.1567689 0.6248371
vt 0.141009 0.62489
vt 0.1258224 0.5937592
vt 0.1258238 0.5764854
vt 0.08628453 0.5572086
vt 0.09403649 0.8208184
vt 0.1256568 0.7576865
vt 0.06701913 0.7774287
vt 0.1391012 0.8326882
vt 0.1845774 0.7771386
vt 0.1079238 0.8650592
vt 0.2237428 0.8203003
vt 0.1309654 0.8704529
vt 0.1261636 0.9192244
vt 0.1681978 0.8885776
vt 0.2375146 0.8753492
vt 0.2239631 0.9304416
vt 0.1850053 0.9737355
vt 0.1263644 0.9934794
vn -0.2599625 0.6853791 -0.6802021
vn -0.6169804 0.3965982 -0.679739
vn -0.3328776 0.4678067 -0.8187487
vn -0.5020537 0.5912458 -0.6311661
vn -0.9283331 0.3636382 -0.0772339
vn 0.01625299 0.8525751 -0.5223519
vn 0.1313249 0.9238634 -0.3594863
vn -0.7985508 0.6010789 -0.03195057
vn -0.7705685 0.3959028 0.4994848
vn -0.4006466 0.9162298 0.002322834
vn -0.5134805 0.6046466 0.6088845
vn -0.3673042 0.4448476 0.8168221
vn -0.06855695 0.3505788 0.9340206
vn 0.446569 0.8942847 -0.02882651
vn 0.5491347 0.83253 0.07310986
vn 0 0.9997459 -0.02254225
vn -0.009585058 0.896802 0.4423281
vn -0.03354597 0.5681307 0.8222543
vn 0.4129386 0.4045694 0.8159689
vn 0.5307938 0.6524438 0.5409019
vn 0.6945287 0.6108066 0.3801911
vn 0.6724037 0.4280059 0.603891
vn 0.3610854 0.6757641 -0.6426197
vn 0.1514911 0.4064989 -0.9010046
vn 0.3140518 0.4416296 -0.8404372
vn 0.07695891 0.6036593 -0.7935193
vn -0.2582919 0.4579499 -0.8506275
vn 0.08075822 0.9043881 -0.418999
vn 0.2633749 0.9593037 0.1018332
vn -0.3595932 0.7004671 -0.6164726
vn -0.6578115 0.5155036 -0.5491265
vn -0.3240375 0.9400645 -0.1062005
vn -0.6919393 0.7210184 -0.03677799
vn -0.8667095 0.4905675 -0.0903233
vn -0.742093 0.5229577 0.4193008
vn 0.01590755 0.9990804 0.03981553
vn -0.08500236 0.9144389 0.395697
vn 0.1801908 0.7152764 0.6752118
vn -0.4903164 0.7186555 0.4930762
vn -0.4424754 0.4521256 0.7744662
vn -0.09849817 0.6063525 0.7890721
vn 0.1355996 0.425789 0.8946041
vn -0.08756632 0.3626295 0.9278104
vn -0.2599625 0.6853791 -0.6802021
vn -0.5007448 0.7112715 -0.4933026
vn -0.3900054 0.7300091 -0.561233
vn 0.01246095 0.8052372 -0.592822
vn -0.1854196 0.6408897 -0.7449027
vn 0.286414 0.7287082 -0.6220542
vn 0.5470096 0.8171526 -0.1817748
vn 0.537984 0.7284881 -0.4241208
vn 0.7020609 0.7098178 0.05717608
vn 0.7304087 0.6360798 0.2488086
vn 0.08806898 0.9651334 -0.2464985
vn 0.1313249 0.9238634 -0.3594863
vn 0.5491347 0.83253 0.07310986
vn 0.5965838 0.7757424 0.2056973
vn 0.6945287 0.6108066 0.3801911
vn -0.3223859 0.7286556 0.6042584
vn -0.2091022 0.5855337 0.7832155
vn -0.4844224 0.3593315 0.7976313
vn 0.0790987 0.8451084 0.5287108
vn 0.2083648 0.6941554 0.6890084
vn -0.1755733 0.9776307 0.1158114
vn 0.4826144 0.7801315 0.3980931
vn 0.06213965 0.9977549 0.02497923
vn 0.2769357 0.8308362 -0.4827193
vn 0.5317748 0.8386573 -0.1177693
vn 0.6760438 0.7294098 0.1045288
vn 0.699482 0.6251887 -0.346214
vn 0.5129996 0.6396714 -0.572409
vn 0.4148228 0.5417053 -0.7310797
g Bush_Mounds_A_0
f 3/3/3 2/2/2 1/1/1
f 4/4/4 1/1/1 2/2/2
f 2/2/2 5/5/5 4/4/4
f 1/1/1 4/4/4 6/6/6
f 1/1/1 6/6/6 7/7/7
f 8/8/8 4/4/4 5/5/5
f 5/5/5 9/9/9 8/8/8
f 8/8/8 10/10/10 4/4/4
f 4/4/4 10/10/10 6/6/6
f 11/11/11 8/8/8 9/9/9
f 8/8/8 11/11/11 10/10/10
f 9/9/9 12/12/12 11/11/11
f 12/12/12 13/13/13 11/11/11
f 7/7/7 6/6/6 14/14/14
f 15/15/15 7/7/7 14/14/14
f 6/6/6 10/10/10 16/16/16
f 14/14/14 6/6/6 16/16/16
f 10/10/10 17/17/17 16/16/16
f 11/11/11 17/17/17 10/10/10
f 17/17/17 14/14/14 16/16/16
f 18/18/18 11/11/11 13/13/13
f 18/18/18 17/17/17 11/11/11
f 13/13/13 19/19/19 18/18/18
f 15/15/15 14/14/14 20/20/20
f 20/20/20 14/14/14 17/17/17
f 18/18/18 20/20/20 17/17/17
f 20/20/20 18/18/18 19/19/19
f 15/15/15 20/20/20 21/21/21
f 19/19/19 22/22/22 20/20/20
f 22/22/22 21/21/21 20/20/20
f 25/25/25 24/24/24 23/23/23
f 26/26/26 23/23/23 24/24/24
f 24/24/24 27/27/27 26/26/26
f 23/23/23 26/26/26 28/28/28
f 28/28/28 29/29/29 23/23/23
f 27/27/27 30/30/30 26/26/26
f 27/27/27 31/31/31 30/30/30
f 28/28/28 26/26/26 32/32/32
f 30/30/30 32/32/32 26/26/26
f 31/31/31 33/33/33 30/30/30
f 30/30/30 33/33/33 32/32/32
f 34/34/34 33/33/33 31/31/31
f 34/34/34 35/35/35 33/33/33
f 36/36/36 29/29/29 28/28/28
f 32/32/32 36/36/36 28/28/28
f 37/37/37 29/29/29 36/36/36
f 32/32/32 37/37/37 36/36/36
f 32/32/32 33/33/33 37/37/37
f 38/38/38 29/29/29 37/37/37
f 35/35/35 39/39/39 33/33/33
f 39/39/39 37/37/37 33/33/33
f 35/35/35 40/40/40 39/39/39
f 41/41/41 38/38/38 37/37/37
f 39/39/39 41/41/41 37/37/37
f 40/40/40 41/41/41 39/39/39
f 42/42/42 38/38/38 41/41/41
f 43/43/43 41/41/41 40/40/40
f 43/43/43 42/42/42 41/41/41
f 46/46/46 45/45/45 44/44/44
f 46/46/46 44/44/44 47/47/47
f 48/48/48 46/46/46 47/47/47
f 49/49/49 48/48/48 47/47/47
f 49/49/49 47/47/47 50/50/50
f 51/51/51 49/49/49 50/50/50
f 52/52/52 51/51/51 50/50/50
f 52/52/52 50/50/50 53/53/53
f 47/47/47 44/44/44 54/54/54
f 47/47/47 54/54/54 50/50/50
f 54/54/54 44/44/44 55/55/55
f 56/56/56 54/54/54 55/55/55
f 50/50/50 54/54/54 56/56/56
f 53/53/53 50/50/50 57/57/57
f 57/57/57 50/50/50 56/56/56
f 53/53/53 57/57/57 58/58/58
f 57/57/57 56/56/56 58/58/58
f 61/61/61 60/60/60 59/59/59
f 62/62/62 59/59/59 60/60/60
f 63/63/63 62/62/62 60/60/60
f 59/59/59 62/62/62 64/64/64
f 63/63/63 65/65/65 62/62/62
f 62/62/62 66/66/66 64/64/64
f 67/67/67 64/64/64 66/66/66
f 65/65/65 68/68/68 62/62/62
f 68/68/68 66/66/66 62/62/62
f 68/68/68 67/67/67 66/66/66
f 69/69/69 68/68/68 65/65/65
f 70/70/70 68/68/68 69/69/69
f 70/70/70 71/71/71 68/68/68
f 71/71/71 67/67/67 68/68/68
f 72/72/72 67/67/67 71/71/71
