g CityPlaneB
v 26.07952 11.6296 -12.37672
v 25.73503 11.95349 -11.63796
v 25.95044 12.07936 -12.09991
v 26.46677 13.51922 -13.20718
v 26.46676 10.28033 -13.20718
v 26.46677 13.55064 -13.20718
v 26.30442 10.64303 -12.85903
v 26.46676 10.28033 -13.20718
v 26.08743 10.47599 -12.39369
v 24.89643 10.47599 -9.839596
v 24.5171 10.28033 -9.026102
v 24.51709 -2.861023E-06 -9.0261
v 24.67944 10.64303 -9.374254
v 24.90435 11.6296 -9.856562
v 26.07952 11.6296 -12.37672
v 25.73503 11.95349 -11.63796
v 30.56206 -7.629395E-06 -21.98957
v 28.40147 10.05213 -17.35616
v 28.8822 10.05213 -18.3871
v 30.08133 10.05213 -20.95864
v 30.56206 10.05213 -21.98957
v 29.95715 10.85174 -20.69233
v 29.00638 10.85174 -18.65341
v 29.48177 11.4173 -19.67287
v 28.25153 12.10812 -17.03462
v 28.25153 13.51922 -17.03462
v 28.40147 13.51922 -17.35616
v 27.43412 12.87567 -15.28167
v 26.6167 12.10812 -13.52873
v 26.61671 13.51922 -13.52873
v 26.46677 13.51922 -13.20718
v 25.63187 13.35458 -11.41675
v 25.35199 13.35458 -10.81655
v 25.49193 13.55064 -11.11664
v 25.24883 11.95349 -10.59532
v 24.90435 11.6296 -9.856562
v 25.03343 12.07936 -10.13338
v 13.10849 13.61502 -1.037708
v 12.81209 15.52177 -0.8301598
v 13.1085 15.52177 -1.037708
v 12.81209 13.61502 -0.8301603
v 11.62644 3.814697E-06 3.46361E-05
v 11.62644 13.61502 3.415927E-05
v 15.62798 13.61502 -2.801871
v 16.96182 9.093336 -3.735838
v 24.51711 9.536743E-07 -9.026106
v 15.92439 13.61502 -3.00942
v 15.62798 15.52177 -2.801871
v 15.92439 15.52177 -3.00942
v 16.96182 13.61502 -3.73584
v 20.76777 9.093336 -6.400791
v 23.22466 13.45899 -8.121121
v 24.51711 12.08914 -9.026108
v 24.51711 13.45899 -9.026107
v 19.81628 9.854298 -5.734553
v 17.91331 9.854298 -4.402076
v 17.91331 11.95599 -4.402077
v 19.81629 11.95599 -5.734553
v 19.16038 12.49707 -5.275282
v 18.56922 12.49707 -4.861349
v 18.8648 12.84046 -5.068316
v 22.06022 13.45899 -7.305777
v 20.76777 13.45899 -6.400792
v 23.00485 14.06133 -7.967213
v 23.22466 14.06133 -8.121121
v 22.28003 14.06133 -7.459686
v 22.06022 14.06133 -7.305777
v 22.90757 15.71732 -7.899094
v 22.37731 15.71732 -7.527803
v 2.144104 12.5658 3.032159E-05
v 1.575602 11.76839 3.023147E-05
v 1.575602 12.5658 3.029168E-05
v 2.712879 12.5658 3.035147E-05
v 2.712879 11.76839 3.029127E-05
v 0.7635593 10.61172 3.014327E-05
v 0.7635593 11.76839 3.023059E-05
v 3.547028 10.61172 3.020219E-05
v 3.547028 11.76839 3.028952E-05
v -1.907349E-06 5.722046E-06 2.933544E-05
v -1.907349E-06 10.61172 3.013661E-05
v 4.288212 10.61172 3.021152E-05
v 5.701143 10.61172 3.023846E-05
v 4.994678 11.15388 3.026592E-05
v 11.62646 4.768372E-06 2.97078E-05
v 7.114077 10.61172 3.026539E-05
v 6.40761 11.15388 3.029286E-05
v 8.527007 10.61172 3.029233E-05
v 7.820541 11.15388 3.031979E-05
v 11.62646 11.84991 3.060244E-05
v 8.527007 11.84991 3.038581E-05
v 9.112156 13.50007 3.02071E-05
v 11.04131 13.50008 3.034193E-05
v 10.07674 14.17137 3.066939E-05
vt 0.7453542 0.7373899
vt 0.7257134 0.7604567
vt 0.7379947 0.7659287
vt 0.7674328 0.8564742
vt 0.7674329 0.651773
vt 0.7674328 0.8584601
vt 0.7581166 0.6751039
vt 0.7674329 0.651773
vt 0.7455313 0.6646213
vt 0.6786703 0.6648659
vt 0.6567135 0.6517726
vt 0.6567135 0.002045831
vt 0.6659745 0.6748825
vt 0.6787155 0.7370067
vt 0.7453542 0.7373899
vt 0.7257134 0.7604567
vt 1 0.002045712
vt 0.8773022 0.6373507
vt 0.9046025 0.637351
vt 0.9726998 0.6373512
vt 1 0.6373512
vt 0.9656477 0.6878872
vt 0.9116546 0.687887
vt 0.9386511 0.723631
vt 0.8687875 0.7672915
vt 0.8687875 0.8564742
vt 0.8773023 0.8564742
vt 0.8222587 0.8157126
vt 0.7759477 0.7672915
vt 0.7759477 0.8564742
vt 0.7674328 0.8564742
vt 0.7200516 0.8461206
vt 0.7041506 0.846298
vt 0.7120731 0.8584601
vt 0.6982906 0.7595603
vt 0.6787155 0.7370067
vt 0.6860495 0.7654181
vt 0.3224551 0.8625286
vt 0.3137725 0.9830369
vt 0.3224569 0.9830369
vt 0.3137706 0.8625286
vt 0.2790352 0.002045831
vt 0.2790324 0.8625286
vt 0.3962737 0.8625288
vt 0.4353542 0.5767535
vt 0.6567135 0.002045831
vt 0.4049582 0.8625288
vt 0.3962743 0.9830369
vt 0.4049588 0.9830369
vt 0.4353542 0.8625288
vt 0.5468631 0.5767535
vt 0.6188464 0.8526675
vt 0.6567135 0.7660914
vt 0.6567135 0.8526675
vt 0.5189859 0.6248471
vt 0.4632314 0.6248471
vt 0.4632314 0.7576764
vt 0.5189859 0.7576764
vt 0.4996298 0.7921644
vt 0.4828389 0.7915145
vt 0.4911546 0.8137231
vt 0.5847208 0.8526675
vt 0.5465215 0.8534101
vt 0.6124064 0.8907357
vt 0.6188464 0.8907357
vt 0.5911701 0.8907357
vt 0.5847301 0.8907357
vt 0.6095562 0.9953965
vt 0.5940203 0.9953965
vt 0.05145858 0.7962168
vt 0.03781448 0.7458199
vt 0.03781449 0.7962168
vt 0.06510918 0.7962168
vt 0.06510919 0.7458199
vt 0.01832547 0.6727165
vt 0.01832546 0.7458197
vt 0.08512875 0.6727165
vt 0.08512873 0.7458199
vt 0 0.002045951
vt 2.482242E-09 0.6727167
vt 0.1029172 0.672717
vt 0.1367504 0.6728565
vt 0.1199908 0.7072572
vt 0.2790352 0.002045831
vt 0.1706607 0.6728565
vt 0.1538993 0.7072522
vt 0.2045711 0.6728565
vt 0.1878097 0.7072522
vt 0.2790301 0.7509719
vt 0.204595 0.7510774
vt 0.2179574 0.8571551
vt 0.2656085 0.8567928
vt 0.2418359 0.8977113
vn 0.9063074 0 0.422619
vn 0.9063074 0 0.4226191
vn 0.9063074 0 0.422619
vn 0 0 1
vn 0 0 1
vn 0 0 1
vn 0.906308 0 0.4226178
vn 0.906308 0 0.4226178
vn 0.906308 0 0.4226178
vn 0.9063079 0 0.4226181
vn 0.9063076 0 0.4226188
vn 0.9063078 0 0.4226181
vn 0.9063076 0 0.4226188
vn 0.906308 0 0.4226179
vn 0.906308 0 0.4226179
vn 0.9063077 0 0.4226186
vn 0.9063078 0 0.4226181
vn 0.9063078 0 0.4226181
vn 0.9063073 0 0.4226193
vn 0.9063073 0 0.4226193
vn 0.9063079 0 0.4226182
vn 0.9063073 0 0.4226193
vn 0.9063073 0 0.4226193
vn 0.9063073 0 0.4226193
vn 0.9063079 0 0.4226181
vn 0.906308 0 0.4226179
vn 0.906308 0 0.4226179
vn 0.9063079 0 0.4226181
vn 0.9063073 0 0.4226195
vn 0.9063069 0 0.4226201
vn 0.9063069 0 0.4226201
vn 0.9063076 0 0.4226187
vn 0.9063077 0 0.4226186
vn 0.9063076 0 0.4226187
vn 0.9063077 0 0.4226186
vn 0.9063085 0 0.4226168
vn 0.9063085 0 0.4226167
vn 0.5735763 0 0.8191522
vn 0.5735763 0 0.8191522
vn 0.5735762 0 0.8191522
vn 0.5735762 0 0.8191522
vn 0.5735765 0 0.819152
vn 0.5735766 0 0.819152
vn 0.5735767 0 0.8191518
vn 0.5735765 0 0.819152
vn 0.5735765 0 0.819152
vn 0.5735767 0 0.8191518
vn 0.5735768 0 0.8191518
vn 0.5735767 0 0.8191518
vn 0.5735764 0 0.8191521
vn 0.5735765 0 0.819152
vn 0.5735762 0 0.8191522
vn 0.5735766 0 0.819152
vn 0.5735762 0 0.8191522
vn 0.5735766 0 0.819152
vn 0.5735765 0 0.819152
vn 0.5735765 0 0.819152
vn 0.5735762 0 0.8191522
vn 0.5735744 0 0.8191534
vn 0.5735744 0 0.8191534
vn 0.5735744 0 0.8191534
vn 0.5735768 0 0.8191518
vn 0.5735768 0 0.8191518
vn 0.573577 0 0.8191516
vn 0.5735735 0 0.8191541
vn 0.5735771 0 0.8191516
vn 0.5735759 0 0.8191525
vn 0.5735754 0 0.8191527
vn 0.5735754 0 0.8191527
vn 0 0 1
vn 0 0 1
vn 0 0 1
vn 0 0 1
vn 0 0 1
vn 0 0 1
vn 0 0 1
vn 0 0 1
vn 0 0 1
vn 0 0 1
vn 0 0 1
vn 0 0 1
vn 0 0 1
vn 0 0 1
vn 0 0 1
vn 0 0 1
vn 0 0 1
vn 0 0 1
vn 0 0 1
vn 0 0 1
vn 0 0 1
vn 0 0 1
vn 0 0 1
vn 0 0 1
g CityPlaneB_0
f 3/3/3 2/2/2 1/1/1
f 6/6/6 5/5/5 4/4/4
f 9/9/9 8/8/8 7/7/7
f 9/9/9 10/10/10 8/8/8
f 11/11/11 8/8/8 10/10/10
f 12/12/12 8/8/8 11/11/11
f 13/13/13 11/11/11 10/10/10
f 10/10/10 9/9/9 14/14/14
f 15/15/15 14/14/14 9/9/9
f 15/15/15 16/16/16 14/14/14
f 12/12/12 17/17/17 8/8/8
f 18/18/18 8/8/8 17/17/17
f 19/19/19 18/18/18 17/17/17
f 20/20/20 19/19/19 17/17/17
f 21/21/21 20/20/20 17/17/17
f 20/20/20 22/22/22 19/19/19
f 23/23/23 19/19/19 22/22/22
f 24/24/24 23/23/23 22/22/22
f 25/25/25 8/8/8 18/18/18
f 25/25/25 18/18/18 26/26/26
f 27/27/27 26/26/26 18/18/18
f 28/28/28 8/8/8 25/25/25
f 29/29/29 8/8/8 28/28/28
f 30/30/30 8/8/8 29/29/29
f 31/31/31 8/8/8 30/30/30
f 34/34/34 33/33/33 32/32/32
f 32/32/32 33/33/33 16/16/16
f 35/35/35 16/16/16 33/33/33
f 36/36/36 16/16/16 35/35/35
f 37/37/37 36/36/36 35/35/35
f 40/40/40 39/39/39 38/38/38
f 41/41/41 38/38/38 39/39/39
f 41/41/41 42/42/42 38/38/38
f 43/43/43 42/42/42 41/41/41
f 38/38/38 42/42/42 44/44/44
f 45/45/45 44/44/44 42/42/42
f 42/42/42 46/46/46 45/45/45
f 47/47/47 44/44/44 45/45/45
f 44/44/44 47/47/47 48/48/48
f 49/49/49 48/48/48 47/47/47
f 50/50/50 47/47/47 45/45/45
f 51/51/51 45/45/45 46/46/46
f 46/46/46 52/52/52 51/51/51
f 46/46/46 53/53/53 52/52/52
f 54/54/54 52/52/52 53/53/53
f 51/51/51 55/55/55 45/45/45
f 56/56/56 45/45/45 55/55/55
f 56/56/56 55/55/55 57/57/57
f 58/58/58 57/57/57 55/55/55
f 58/58/58 59/59/59 57/57/57
f 60/60/60 57/57/57 59/59/59
f 61/61/61 60/60/60 59/59/59
f 62/62/62 51/51/51 52/52/52
f 51/51/51 62/62/62 63/63/63
f 52/52/52 64/64/64 62/62/62
f 65/65/65 64/64/64 52/52/52
f 66/66/66 62/62/62 64/64/64
f 67/67/67 62/62/62 66/66/66
f 64/64/64 68/68/68 66/66/66
f 69/69/69 66/66/66 68/68/68
f 72/72/72 71/71/71 70/70/70
f 70/70/70 71/71/71 73/73/73
f 71/71/71 74/74/74 73/73/73
f 71/71/71 75/75/75 74/74/74
f 76/76/76 75/75/75 71/71/71
f 77/77/77 74/74/74 75/75/75
f 78/78/78 74/74/74 77/77/77
f 75/75/75 79/79/79 77/77/77
f 80/80/80 79/79/79 75/75/75
f 81/81/81 77/77/77 79/79/79
f 81/81/81 79/79/79 82/82/82
f 83/83/83 81/81/81 82/82/82
f 79/79/79 84/84/84 82/82/82
f 82/82/82 84/84/84 85/85/85
f 86/86/86 82/82/82 85/85/85
f 85/85/85 84/84/84 87/87/87
f 88/88/88 85/85/85 87/87/87
f 89/89/89 87/87/87 84/84/84
f 87/87/87 89/89/89 90/90/90
f 90/90/90 89/89/89 91/91/91
f 92/92/92 91/91/91 89/89/89
f 93/93/93 91/91/91 92/92/92
