g Crate_LOD
v -0.4922959 2.112 -0.8400015
v -0.4922959 2.016 -0.8400015
v -0.5999994 2.016 -0.7322979
v -0.5999994 2.112 -0.7322979
v -0.5999994 2.112 -0.7322979
v -0.5999994 2.016 -0.7322979
v -0.7077031 2.016 -0.8400015
v -0.7077031 2.112 -0.8400015
v -0.7322963 2.112 0.5999984
v -0.7322963 2.016 0.5999984
v -0.8399997 2.016 0.707702
v -0.8399997 2.112 0.707702
v -0.8399997 2.112 0.707702
v -0.8399997 2.016 0.707702
v -0.9477034 2.016 0.5999984
v -0.9477034 2.112 0.5999984
v 0.7066286 2.112 0.8407522
v 0.7066286 2.016 0.8407522
v 0.5989251 2.016 0.9484556
v 0.5989251 2.112 0.9484556
v 0.5989251 2.112 0.9484556
v 0.5989251 2.016 0.9484556
v 0.4912215 2.016 0.8407522
v 0.4912215 2.112 0.8407522
v 0.9477036 2.112 0.8407522
v 0.9477036 2.016 0.8407522
v 0.84 2.016 0.9484556
v 0.84 2.112 0.9484556
v 0.84 2.112 0.9484556
v 0.84 2.016 0.9484556
v 0.7322964 2.016 0.8407522
v 0.7322964 2.112 0.8407522
v -0.9599996 2.112 0.7208027
v -0.9599996 2.112 0.9599999
v -0.9599996 2.034662 0.9599999
v -0.9599996 2.034662 0.7208027
v -0.9599996 2.034662 0.9599999
v -0.9599996 2.112 0.9599999
v 0.4796447 2.112 0.9599999
v 0.4796447 2.034662 0.9599999
v 0.96 2.112 -0.9599999
v 0.96 2.034663 -0.9599999
v 0.96 2.034662 0.7172294
v 0.96 2.112 0.7172294
v -0.9599996 2.034663 -0.9599999
v -0.9599996 2.112 -0.9599999
v -0.9599996 2.112 0.4799987
v -0.9599996 2.034662 0.4799987
v -0.9599996 -2.220446E-18 -0.9599999
v -0.9599996 2.034663 -0.9599999
v -0.9599996 2.034662 0.4799987
v -0.9599996 2.034662 0.7208027
v -0.9599996 -2.220446E-18 0.9599999
v -0.9599996 2.034662 0.9599999
v -0.9599996 -2.220446E-18 0.9599999
v 0.96 2.034662 0.9599999
v 0.96 -2.220446E-18 0.9599999
v 0.4796447 2.034662 0.9599999
v -0.9599996 2.034662 0.9599999
v 0.96 -2.220446E-18 0.9599999
v 0.96 2.034662 0.9599999
v 0.96 2.034662 0.7172294
v 0.96 -2.220446E-18 -0.948001
v 0.96 -2.220446E-18 -0.9599999
v 0.96 2.034663 -0.9599999
v -0.7208032 2.112 -0.9599999
v -0.7208032 2.034663 -0.9599999
v -0.7208032 2.034663 -0.7200011
v -0.7208032 2.112 -0.7200011
v -0.4787445 2.112 -0.7200011
v -0.4787445 2.034663 -0.7200011
v -0.4787445 2.034663 -0.9599999
v -0.4787445 2.112 -0.9599999
v -0.7208032 2.034663 -0.9599999
v -0.4787445 2.034663 -0.9599999
v -0.4787445 2.034663 -0.7200011
v -0.7208032 2.034663 -0.7200011
v -0.7229992 2.112 0.4799987
v -0.7229992 2.034662 0.4799987
v -0.9599996 2.034662 0.4799987
v -0.9599996 2.112 0.4799987
v -0.9599996 2.112 0.7208027
v -0.9599996 2.034662 0.7208027
v -0.7229992 2.034662 0.7208027
v -0.7229992 2.112 0.7208027
v -0.7229992 2.112 0.7208027
v -0.7229992 2.034662 0.7208027
v -0.7229992 2.034662 0.4799987
v -0.7229992 2.112 0.4799987
v -0.9599996 2.034662 0.7208027
v -0.9599996 2.034662 0.4799987
v -0.7229992 2.034662 0.4799987
v -0.7229992 2.034662 0.7208027
v 0.4796447 2.112 0.7172294
v 0.4796447 2.034662 0.7172294
v 0.4796447 2.034662 0.9599999
v 0.4796447 2.112 0.9599999
v 0.96 2.112 0.7172294
v 0.96 2.034662 0.7172294
v 0.4796447 2.034662 0.7172294
v 0.4796447 2.112 0.7172294
v 0.4796447 2.034662 0.9599999
v 0.4796447 2.034662 0.7172294
v 0.96 2.034662 0.7172294
v 0.96 2.034662 0.9599999
v -0.4787445 2.112 -0.7200011
v -0.4787445 2.112 -0.9599999
v 0.96 2.112 -0.9599999
v 0.96 2.112 0.7172294
v 0.4796447 2.112 0.7172294
v -0.7208032 2.112 -0.7200011
v -0.7229992 2.112 0.4799987
v 0.4796447 2.112 0.9599999
v -0.9599996 2.112 0.4799987
v -0.9599996 2.112 -0.9599999
v -0.7208032 2.112 -0.9599999
v -0.7229992 2.112 0.7208027
v -0.9599996 2.112 0.7208027
v -0.9599996 2.112 0.9599999
v -1.056 1.356485 -0.6306465
v -1.056 1.527371 -0.4621299
v -1.056 0.5162711 0.5631875
v -1.056 0.345385 0.3946708
v -1.056 1.739381 0.7199997
v -1.056 1.739381 0.9599997
v -1.056 0.2993806 0.9599997
v -1.056 0.2993806 0.7199997
v -1.056 1.76338 -0.7199992
v -1.056 2.00338 -0.7199992
v -1.056 2.00338 0.7200007
v -1.056 1.76338 0.7200007
v -1.056 1.480893 -0.217481
v -1.056 1.649111 -0.04630101
v -1.056 0.9660103 0.6249801
v -1.056 0.797792 0.4538001
v -1.056 1.739381 -0.9599989
v -1.056 1.739381 -0.7199991
v -1.056 0.2993806 -0.7199991
v -1.056 0.2993806 -0.9599989
v -1.056 0.03538055 -0.7199989
v -1.056 0.2753806 -0.7199989
v -1.056 0.2753806 0.720001
v -1.056 0.03538055 0.720001
v -0.6306465 1.356485 1.056
v -0.4621299 1.527371 1.056
v 0.5631875 0.5162711 1.056
v 0.3946708 0.345385 1.056
v 0.7199997 1.739381 1.056
v 0.9599997 1.739381 1.056
v 0.9599997 0.2993806 1.056
v 0.7199997 0.2993806 1.056
v -0.7199992 1.76338 1.056
v -0.7199992 2.00338 1.056
v 0.7200007 2.00338 1.056
v 0.7200007 1.76338 1.056
v -0.217481 1.480893 1.056
v -0.04630101 1.649111 1.056
v 0.6249801 0.9660103 1.056
v 0.4538001 0.797792 1.056
v -0.9599989 1.739381 1.056
v -0.7199991 1.739381 1.056
v -0.7199991 0.2993806 1.056
v -0.9599989 0.2993806 1.056
v -0.7199989 0.03538055 1.056
v -0.7199989 0.2753806 1.056
v 0.720001 0.2753806 1.056
v 0.720001 0.03538055 1.056
v 1.056 1.356485 0.6306465
v 1.056 1.527371 0.4621299
v 1.056 0.5162711 -0.5631875
v 1.056 0.345385 -0.3946708
v 1.056 1.739381 -0.7199997
v 1.056 1.739381 -0.9599997
v 1.056 0.2993806 -0.9599997
v 1.056 0.2993806 -0.7199997
v 1.056 1.76338 0.7199992
v 1.056 2.00338 0.7199992
v 1.056 2.00338 -0.7200007
v 1.056 1.76338 -0.7200007
v 1.056 1.480893 0.217481
v 1.056 1.649111 0.04630101
v 1.056 0.9660103 -0.6249801
v 1.056 0.797792 -0.4538001
v 1.056 1.739381 0.9599989
v 1.056 1.739381 0.7199991
v 1.056 0.2993806 0.7199991
v 1.056 0.2993806 0.9599989
v 1.056 0.03538055 0.7199989
v 0.96 0.03538055 0.7199989
v 0.96 0.2753806 0.7199989
v 1.056 0.2753806 0.7199989
v 1.056 0.03538055 -0.720001
v 0.96 0.03538055 -0.720001
v 0.96 0.03538055 0.7199989
v 1.056 0.03538055 0.7199989
v 1.056 0.03538055 0.7199989
v 1.056 0.2753806 0.7199989
v 1.056 0.2753806 -0.720001
v 1.056 0.03538055 -0.720001
v -0.6306465 1.356485 1.056
v -0.6306465 1.356485 0.9655949
v -0.4621299 1.527371 0.9655949
v -0.4621299 1.527371 1.056
v 0.3946708 0.345385 1.056
v 0.3946708 0.345385 0.9655949
v -0.6306465 1.356485 0.9655949
v -0.6306465 1.356485 1.056
v 0.5631875 0.5162711 1.056
v 0.5631875 0.5162711 0.9655949
v 0.3946708 0.345385 0.9655949
v 0.3946708 0.345385 1.056
v -0.4621299 1.527371 1.056
v -0.4621299 1.527371 0.9655949
v 0.5631875 0.5162711 0.9655949
v 0.5631875 0.5162711 1.056
v -0.217481 1.480893 1.056
v -0.217481 1.480893 0.9655949
v -0.04630101 1.649111 0.9655949
v -0.04630101 1.649111 1.056
v 0.4538001 0.797792 1.056
v 0.4538001 0.797792 0.9655949
v -0.217481 1.480893 0.9655949
v -0.217481 1.480893 1.056
v 0.6249801 0.9660103 1.056
v 0.6249801 0.9660103 0.9655949
v 0.4538001 0.797792 0.9655949
v 0.4538001 0.797792 1.056
v -0.04630101 1.649111 1.056
v -0.04630101 1.649111 0.9655949
v 0.6249801 0.9660103 0.9655949
v 0.6249801 0.9660103 1.056
v -0.5999994 2.112 -0.8400015
v -0.5999994 2.112 -0.947705
v -0.4922959 2.112 -0.8400015
v -0.5999994 2.112 -0.7322979
v -0.7077031 2.112 -0.8400015
v -0.8399997 2.112 0.5999984
v -0.8399997 2.112 0.4922948
v -0.7322963 2.112 0.5999984
v -0.8399997 2.112 0.707702
v -0.9477034 2.112 0.5999984
v 0.5989251 2.112 0.8407522
v 0.5989251 2.112 0.7330486
v 0.7066286 2.112 0.8407522
v 0.5989251 2.112 0.9484556
v 0.4912215 2.112 0.8407522
v 0.84 2.112 0.8407522
v 0.84 2.112 0.7330486
v 0.9477036 2.112 0.8407522
v 0.84 2.112 0.9484556
v 0.7322964 2.112 0.8407522
vt 0.8977239 0.7313632
vt 0.8977239 0.5866219
vt 0.8736606 0.5866219
vt 0.8736606 0.7313632
vt 0.8736606 0.7313632
vt 0.8736606 0.5866219
vt 0.9458504 0.5866219
vt 0.9458504 0.7313632
vt 0.8977239 0.7313632
vt 0.8977239 0.5866219
vt 0.8736606 0.5866219
vt 0.8736606 0.7313632
vt 0.8736606 0.7313632
vt 0.8736606 0.5866219
vt 0.9458504 0.5866219
vt 0.9458504 0.7313632
vt 0.8977239 0.7313632
vt 0.8977239 0.5866219
vt 0.8736606 0.5866219
vt 0.8736606 0.7313632
vt 0.8736606 0.7313632
vt 0.8736606 0.5866219
vt 0.9458504 0.5866219
vt 0.9458504 0.7313632
vt 0.8977239 0.7313632
vt 0.8977239 0.5866219
vt 0.8736606 0.5866219
vt 0.8736606 0.7313632
vt 0.8736606 0.7313632
vt 0.8736606 0.5866219
vt 0.9458504 0.5866219
vt 0.9458504 0.7313632
vt 0.4691491 0.4112322
vt 0.4691485 0.4655825
vt 0.4867213 0.4655827
vt 0.4867219 0.4112324
vt 0.4691484 0.4831553
vt 0.4691485 0.4655825
vt 0.1420329 0.4655792
vt 0.1420326 0.4831518
vt 0.03289134 0.02931619
vt 0.0153188 0.02931607
vt 0.01531469 0.4104155
vt 0.03288724 0.4104158
vt 0.4867257 0.02932096
vt 0.4691532 0.02932084
vt 0.4691497 0.3565168
vt 0.4867224 0.356517
vt 0.5099609 0.008228904
vt 0.5099609 0.5171262
vt 0.8710199 0.5171262
vt 0.9316936 0.5171262
vt 0.9900392 0.008228904
vt 0.9900392 0.5171262
vt 0.5099608 0.008228904
vt 0.9900392 0.5171262
vt 0.9900392 0.008228904
vt 0.8691484 0.5171262
vt 0.5099609 0.5171262
vt 0.5099609 0.008228904
vt 0.5099608 0.5171262
vt 0.5699661 0.5171262
vt 0.9900392 0.008228904
vt 0.9900392 0.008228904
vt 0.9900391 0.5171262
vt 0.8252227 0.8284737
vt 0.8000993 0.8284737
vt 0.8000993 0.9059446
vt 0.8252227 0.9059446
vt 0.6965512 0.9059446
vt 0.7216751 0.9059446
vt 0.7216751 0.8284737
vt 0.6965512 0.8284737
vt 0.8000993 0.8284737
vt 0.7216751 0.8284737
vt 0.7216751 0.9059446
vt 0.8000993 0.9059446
vt 0.6965512 0.9059446
vt 0.7216751 0.9059446
vt 0.7216751 0.8284737
vt 0.6965512 0.8284737
vt 0.8252227 0.8284737
vt 0.8000993 0.8284737
vt 0.8000993 0.9059446
vt 0.8252227 0.9059446
vt 0.8000993 0.9310673
vt 0.8000993 0.9059446
vt 0.7216751 0.9059446
vt 0.7216751 0.9310673
vt 0.8000993 0.8284737
vt 0.7216751 0.8284737
vt 0.7216751 0.9059446
vt 0.8000993 0.9059446
vt 0.547754 0.8870676
vt 0.5663341 0.8870665
vt 0.566331 0.8287416
vt 0.5477508 0.8287427
vt 0.6817387 0.9056404
vt 0.6817377 0.8870605
vt 0.5663341 0.8870665
vt 0.5663351 0.9056466
vt 0.566331 0.8287416
vt 0.5663341 0.8870665
vt 0.6817377 0.8870605
vt 0.6817346 0.8287356
vt 0.3598019 0.08385211
vt 0.3598025 0.02931964
vt 0.03289134 0.02931619
vt 0.03288724 0.4104158
vt 0.1420335 0.4104169
vt 0.4148025 0.08385271
vt 0.4152986 0.3565164
vt 0.1420329 0.4655792
vt 0.4691497 0.3565168
vt 0.4691532 0.02932084
vt 0.414803 0.02932018
vt 0.415298 0.4112316
vt 0.4691491 0.4112322
vt 0.4691485 0.4655825
vt 0.05942909 0.6007915
vt 0.05942909 0.7231205
vt 0.793086 0.7231205
vt 0.793086 0.6007915
vt 0.05942909 0.6007912
vt 0.05942909 0.7231205
vt 0.7930861 0.7231205
vt 0.7930861 0.6007912
vt 0.05942905 0.6007912
vt 0.05942905 0.7231205
vt 0.7930859 0.7231205
vt 0.7930859 0.6007912
vt 0.07085714 0.8362418
vt 0.07084668 0.9365503
vt 0.4711315 0.9365922
vt 0.4711421 0.8362836
vt 0.05942909 0.6007912
vt 0.05942909 0.7231205
vt 0.793086 0.7231205
vt 0.793086 0.6007912
vt 0.05942908 0.6007914
vt 0.05942909 0.7231205
vt 0.7930858 0.7231205
vt 0.7930859 0.6007914
vt 0.05777693 0.6001492
vt 0.05777037 0.7226874
vt 0.7929999 0.7227261
vt 0.7930064 0.600188
vt 0.05942909 0.6007912
vt 0.05942909 0.7231205
vt 0.7930861 0.7231205
vt 0.7930861 0.6007912
vt 0.05942905 0.6007912
vt 0.05942905 0.7231205
vt 0.7930859 0.7231205
vt 0.7930859 0.6007912
vt 0.06908786 0.8338256
vt 0.06907415 0.9353911
vt 0.4743748 0.9354457
vt 0.4743886 0.8338802
vt 0.05942909 0.6007912
vt 0.05942909 0.7231205
vt 0.793086 0.7231205
vt 0.793086 0.6007912
vt 0.05942908 0.6007914
vt 0.05942909 0.7231205
vt 0.7930858 0.7231205
vt 0.7930859 0.6007914
vt 0.05942909 0.6007915
vt 0.05942909 0.7231205
vt 0.793086 0.7231205
vt 0.793086 0.6007915
vt 0.05942909 0.6007912
vt 0.05942909 0.7231205
vt 0.7930861 0.7231205
vt 0.7930861 0.6007912
vt 0.05942905 0.6007912
vt 0.05942905 0.7231205
vt 0.7930859 0.7231205
vt 0.7930859 0.6007912
vt 0.07085714 0.8362418
vt 0.07084668 0.9365503
vt 0.4711315 0.9365922
vt 0.4711421 0.8362836
vt 0.05942909 0.6007912
vt 0.05942909 0.7231205
vt 0.793086 0.7231205
vt 0.793086 0.6007912
vt 0.05942908 0.6007914
vt 0.01052292 0.6007914
vt 0.01052283 0.7231204
vt 0.05942909 0.7231205
vt 0.7930859 0.6007914
vt 0.7930859 0.5518852
vt 0.05942909 0.5518852
vt 0.05942908 0.6007914
vt 0.05942908 0.6007914
vt 0.05942909 0.7231205
vt 0.7930858 0.7231205
vt 0.7930859 0.6007914
vt 0.05777693 0.6001492
vt 0.01161838 0.6001467
vt 0.01161182 0.7226849
vt 0.05777037 0.7226874
vt 0.7930064 0.600188
vt 0.7930085 0.5540292
vt 0.05777919 0.5539904
vt 0.05777693 0.6001492
vt 0.7929999 0.7227261
vt 0.8391586 0.7227286
vt 0.8391651 0.6001905
vt 0.7930064 0.600188
vt 0.05777037 0.7226874
vt 0.05776811 0.768846
vt 0.7929975 0.7688848
vt 0.7929999 0.7227261
vt 0.06908786 0.8338256
vt 0.03082931 0.8338206
vt 0.03081548 0.9353859
vt 0.06907415 0.9353911
vt 0.4743886 0.8338802
vt 0.4743937 0.7956216
vt 0.06909299 0.7955673
vt 0.06908786 0.8338256
vt 0.4743748 0.9354457
vt 0.5126334 0.9354508
vt 0.512647 0.8338854
vt 0.4743886 0.8338802
vt 0.06907415 0.9353911
vt 0.06906903 0.9736496
vt 0.4743698 0.9737041
vt 0.4743748 0.9354457
vt 0.9215313 0.8758669
vt 0.9215313 0.8163567
vt 0.8686197 0.8564297
vt 0.9215313 0.9403362
vt 0.9744428 0.8564297
vt 0.9215313 0.8758669
vt 0.9215313 0.8163567
vt 0.8686197 0.8564297
vt 0.9215313 0.9403362
vt 0.9744428 0.8564297
vt 0.9215313 0.8758669
vt 0.9215313 0.8163567
vt 0.8686197 0.8564297
vt 0.9215313 0.9403362
vt 0.9744428 0.8564297
vt 0.9215313 0.8758669
vt 0.9215313 0.8163567
vt 0.8686197 0.8564297
vt 0.9215313 0.9403362
vt 0.9744428 0.8564297
vn 0.7071074 0 0.7071061
vn 0.7071074 0 0.7071061
vn 0 0 1
vn 0 0 1
vn 0 0 1
vn 0 0 1
vn -0.7071074 0 0.7071061
vn -0.7071074 0 0.7071061
vn 0.7071074 0 0.7071061
vn 0.7071074 0 0.7071061
vn 0 0 1
vn 0 0 1
vn 0 0 1
vn 0 0 1
vn -0.7071074 0 0.7071061
vn -0.7071074 0 0.7071061
vn 0.7071069 0 0.7071066
vn 0.7071069 0 0.7071066
vn 0 0 1
vn 0 0 1
vn 0 0 1
vn 0 0 1
vn -0.7071069 0 0.7071066
vn -0.7071069 0 0.7071066
vn 0.7071069 0 0.7071066
vn 0.7071069 0 0.7071066
vn 0 0 1
vn 0 0 1
vn 0 0 1
vn 0 0 1
vn -0.7071061 0 0.7071074
vn -0.7071061 0 0.7071074
vn -1 0 0
vn -1 0 0
vn -1 0 0
vn -1 0 0
vn 0 0 1
vn 0 0 1
vn 0 0 1
vn 0 0 1
vn 1 0 0
vn 1 0 0
vn 1 0 0
vn 1 0 0
vn -1 0 0
vn -1 0 0
vn -1 0 0
vn -1 0 0
vn -1 0 0
vn -1 0 0
vn -1 0 0
vn -1 0 0
vn -1 0 0
vn -1 0 0
vn 0 0 1
vn 0 0 1
vn 0 0 1
vn 0 0 1
vn 0 0 1
vn 1 0 0
vn 1 0 0
vn 1 0 0
vn 1 0 0
vn 1 0 0
vn 1 0 0
vn 1 0 0
vn 1 0 0
vn 1 0 0
vn 1 0 0
vn -1 0 0
vn -1 0 0
vn -1 0 0
vn -1 0 0
vn 0 1 0
vn 0 1 0
vn 0 1 0
vn 0 1 0
vn 0 0 1
vn 0 0 1
vn 0 0 1
vn 0 0 1
vn 0 0 -1
vn 0 0 -1
vn 0 0 -1
vn 0 0 -1
vn -1 0 0
vn -1 0 0
vn -1 0 0
vn -1 0 0
vn 0 1 0
vn 0 1 0
vn 0 1 0
vn 0 1 0
vn 1 0 -1.571318E-07
vn 1 0 -1.571318E-07
vn 1 0 -1.571318E-07
vn 1 0 -1.571318E-07
vn -1.642951E-07 0 1
vn -1.642951E-07 0 1
vn -1.642951E-07 0 1
vn -1.642951E-07 0 1
vn -4.764844E-07 1 1.013482E-06
vn -4.764844E-07 1 1.013482E-06
vn -4.764844E-07 1 1.013482E-06
vn -4.764844E-07 1 1.013482E-06
vn 0 1 -1.029194E-07
vn 0 1 0
vn 0 1 0
vn 0 1 -1.027859E-07
vn 0 1 -2.029761E-07
vn 0 1 0
vn 0 1 0
vn 0 1 0
vn 0 1 0
vn 0 1 0
vn 0 1 0
vn 0 1 0
vn 0 1 0
vn 0 1 0
vn -1 1.059639E-07 0
vn -1 1.059639E-07 0
vn -1 1.059639E-07 0
vn -1 1.059639E-07 0
vn -1 0 0
vn -1 0 0
vn -1 0 0
vn -1 0 0
vn -1 0 0
vn -1 0 0
vn -1 0 0
vn -1 0 0
vn -1 -4.248604E-07 0
vn -1 -4.248604E-07 0
vn -1 -4.248604E-07 0
vn -1 -4.248604E-07 0
vn -1 0 0
vn -1 0 0
vn -1 0 0
vn -1 0 0
vn -1 0 0
vn -1 0 0
vn -1 0 0
vn -1 0 0
vn 0 0 1
vn 0 0 1
vn 0 0 1
vn 0 0 1
vn 0 0 1
vn 0 0 1
vn 0 0 1
vn 0 0 1
vn 0 0 1
vn 0 0 1
vn 0 0 1
vn 0 0 1
vn 0 0 1
vn 0 0 1
vn 0 0 1
vn 0 0 1
vn 0 0 1
vn 0 0 1
vn 0 0 1
vn 0 0 1
vn 0 0 1
vn 0 0 1
vn 0 0 1
vn 0 0 1
vn 1 1.059639E-07 0
vn 1 1.059639E-07 0
vn 1 1.059639E-07 0
vn 1 1.059639E-07 0
vn 1 0 0
vn 1 0 0
vn 1 0 0
vn 1 0 0
vn 1 0 0
vn 1 0 0
vn 1 0 0
vn 1 0 0
vn 1 -4.248604E-07 0
vn 1 -4.248604E-07 0
vn 1 -4.248604E-07 0
vn 1 -4.248604E-07 0
vn 1 0 0
vn 1 0 0
vn 1 0 0
vn 1 0 0
vn 0 0 1
vn 0 0 1
vn 0 0 1
vn 0 0 1
vn 0 -1 0
vn 0 -1 0
vn 0 -1 0
vn 0 -1 0
vn 1 0 0
vn 1 0 0
vn 1 0 0
vn 1 0 0
vn -0.7120262 0.7021529 0
vn -0.7120262 0.7021529 0
vn -0.7120262 0.7021529 0
vn -0.7120262 0.7021529 0
vn -0.7021531 -0.712026 0
vn -0.7021531 -0.712026 0
vn -0.7021531 -0.712026 0
vn -0.7021531 -0.712026 0
vn 0.7120261 -0.7021531 0
vn 0.7120261 -0.7021531 0
vn 0.7120261 -0.7021531 0
vn 0.7120261 -0.7021531 0
vn 0.7021531 0.712026 0
vn 0.7021531 0.712026 0
vn 0.7021531 0.712026 0
vn 0.7021531 0.712026 0
vn -0.7009092 0.7132505 0
vn -0.7009092 0.7132505 0
vn -0.7009092 0.7132505 0
vn -0.7009092 0.7132505 0
vn -0.7132503 -0.7009093 0
vn -0.7132503 -0.7009093 0
vn -0.7132503 -0.7009093 0
vn -0.7132503 -0.7009093 0
vn 0.7009097 -0.71325 0
vn 0.7009097 -0.71325 0
vn 0.7009097 -0.71325 0
vn 0.7009097 -0.71325 0
vn 0.7132503 0.7009093 0
vn 0.7132503 0.7009093 0
vn 0.7132503 0.7009093 0
vn 0.7132503 0.7009093 0
vn 0 1 0
vn 0 1 0
vn 0 1 0
vn 0 1 0
vn 0 1 0
vn 0 1 0
vn 0 1 0
vn 0 1 0
vn 0 1 0
vn 0 1 0
vn 0 1 0
vn 0 1 0
vn 0 1 0
vn 0 1 0
vn 0 1 0
vn 0 1 0
vn 0 1 0
vn 0 1 0
vn 0 1 0
vn 0 1 0
g Crate_LOD_0
f 3/3/3 2/2/2 1/1/1
f 4/4/4 3/3/3 1/1/1
f 7/7/7 6/6/6 5/5/5
f 8/8/8 7/7/7 5/5/5
f 11/11/11 10/10/10 9/9/9
f 12/12/12 11/11/11 9/9/9
f 15/15/15 14/14/14 13/13/13
f 16/16/16 15/15/15 13/13/13
f 19/19/19 18/18/18 17/17/17
f 20/20/20 19/19/19 17/17/17
f 23/23/23 22/22/22 21/21/21
f 24/24/24 23/23/23 21/21/21
f 27/27/27 26/26/26 25/25/25
f 28/28/28 27/27/27 25/25/25
f 31/31/31 30/30/30 29/29/29
f 32/32/32 31/31/31 29/29/29
f 35/35/35 34/34/34 33/33/33
f 36/36/36 35/35/35 33/33/33
f 39/39/39 38/38/38 37/37/37
f 40/40/40 39/39/39 37/37/37
f 43/43/43 42/42/42 41/41/41
f 44/44/44 43/43/43 41/41/41
f 47/47/47 46/46/46 45/45/45
f 48/48/48 47/47/47 45/45/45
f 51/51/51 50/50/50 49/49/49
f 52/52/52 51/51/51 49/49/49
f 53/53/53 52/52/52 49/49/49
f 53/53/53 54/54/54 52/52/52
f 57/57/57 56/56/56 55/55/55
f 56/56/56 58/58/58 55/55/55
f 58/58/58 59/59/59 55/55/55
f 62/62/62 61/61/61 60/60/60
f 63/63/63 62/62/62 60/60/60
f 63/63/63 64/64/64 62/62/62
f 64/64/64 65/65/65 62/62/62
f 68/68/68 67/67/67 66/66/66
f 69/69/69 68/68/68 66/66/66
f 72/72/72 71/71/71 70/70/70
f 73/73/73 72/72/72 70/70/70
f 76/76/76 75/75/75 74/74/74
f 77/77/77 76/76/76 74/74/74
f 80/80/80 79/79/79 78/78/78
f 81/81/81 80/80/80 78/78/78
f 84/84/84 83/83/83 82/82/82
f 85/85/85 84/84/84 82/82/82
f 88/88/88 87/87/87 86/86/86
f 89/89/89 88/88/88 86/86/86
f 92/92/92 91/91/91 90/90/90
f 93/93/93 92/92/92 90/90/90
f 96/96/96 95/95/95 94/94/94
f 97/97/97 96/96/96 94/94/94
f 100/100/100 99/99/99 98/98/98
f 101/101/101 100/100/100 98/98/98
f 104/104/104 103/103/103 102/102/102
f 105/105/105 104/104/104 102/102/102
f 108/108/108 107/107/107 106/106/106
f 109/109/109 108/108/108 106/106/106
f 109/109/109 106/106/106 110/110/110
f 106/106/106 111/111/111 110/110/110
f 112/112/112 110/110/110 111/111/111
f 110/110/110 112/112/112 113/113/113
f 112/112/112 111/111/111 114/114/114
f 111/111/111 115/115/115 114/114/114
f 111/111/111 116/116/116 115/115/115
f 112/112/112 117/117/117 113/113/113
f 117/117/117 118/118/118 113/113/113
f 118/118/118 119/119/119 113/113/113
f 122/122/122 121/121/121 120/120/120
f 123/123/123 122/122/122 120/120/120
f 126/126/126 125/125/125 124/124/124
f 127/127/127 126/126/126 124/124/124
f 130/130/130 129/129/129 128/128/128
f 131/131/131 130/130/130 128/128/128
f 134/134/134 133/133/133 132/132/132
f 135/135/135 134/134/134 132/132/132
f 138/138/138 137/137/137 136/136/136
f 139/139/139 138/138/138 136/136/136
f 142/142/142 141/141/141 140/140/140
f 143/143/143 142/142/142 140/140/140
f 146/146/146 145/145/145 144/144/144
f 147/147/147 146/146/146 144/144/144
f 150/150/150 149/149/149 148/148/148
f 151/151/151 150/150/150 148/148/148
f 154/154/154 153/153/153 152/152/152
f 155/155/155 154/154/154 152/152/152
f 158/158/158 157/157/157 156/156/156
f 159/159/159 158/158/158 156/156/156
f 162/162/162 161/161/161 160/160/160
f 163/163/163 162/162/162 160/160/160
f 166/166/166 165/165/165 164/164/164
f 167/167/167 166/166/166 164/164/164
f 170/170/170 169/169/169 168/168/168
f 171/171/171 170/170/170 168/168/168
f 174/174/174 173/173/173 172/172/172
f 175/175/175 174/174/174 172/172/172
f 178/178/178 177/177/177 176/176/176
f 179/179/179 178/178/178 176/176/176
f 182/182/182 181/181/181 180/180/180
f 183/183/183 182/182/182 180/180/180
f 186/186/186 185/185/185 184/184/184
f 187/187/187 186/186/186 184/184/184
f 190/190/190 189/189/189 188/188/188
f 191/191/191 190/190/190 188/188/188
f 194/194/194 193/193/193 192/192/192
f 195/195/195 194/194/194 192/192/192
f 198/198/198 197/197/197 196/196/196
f 199/199/199 198/198/198 196/196/196
f 202/202/202 201/201/201 200/200/200
f 203/203/203 202/202/202 200/200/200
f 206/206/206 205/205/205 204/204/204
f 207/207/207 206/206/206 204/204/204
f 210/210/210 209/209/209 208/208/208
f 211/211/211 210/210/210 208/208/208
f 214/214/214 213/213/213 212/212/212
f 215/215/215 214/214/214 212/212/212
f 218/218/218 217/217/217 216/216/216
f 219/219/219 218/218/218 216/216/216
f 222/222/222 221/221/221 220/220/220
f 223/223/223 222/222/222 220/220/220
f 226/226/226 225/225/225 224/224/224
f 227/227/227 226/226/226 224/224/224
f 230/230/230 229/229/229 228/228/228
f 231/231/231 230/230/230 228/228/228
f 234/234/234 233/233/233 232/232/232
f 235/235/235 234/234/234 232/232/232
f 233/233/233 236/236/236 232/232/232
f 236/236/236 235/235/235 232/232/232
f 239/239/239 238/238/238 237/237/237
f 240/240/240 239/239/239 237/237/237
f 238/238/238 241/241/241 237/237/237
f 241/241/241 240/240/240 237/237/237
f 244/244/244 243/243/243 242/242/242
f 245/245/245 244/244/244 242/242/242
f 243/243/243 246/246/246 242/242/242
f 246/246/246 245/245/245 242/242/242
f 249/249/249 248/248/248 247/247/247
f 250/250/250 249/249/249 247/247/247
f 248/248/248 251/251/251 247/247/247
f 251/251/251 250/250/250 247/247/247
