g Custom_Barrier_Low_LOD
v -1.069674 0.1470876 -0.005649533
v -1.069674 1.726225 -0.005649533
v -1.158826 1.726225 -0.005649529
v -1.158826 0.1470876 -0.005649529
v -1.179567 0.1470876 -0.005649526
v -1.179567 0.09199439 -0.005649526
v -1.048934 0.09199439 -0.005649532
v -1.048934 0.1470876 -0.005649532
v -1.212548 0.06104322 -0.005649525
v -1.212548 -0.007049517 -0.005649525
v -1.015954 -0.007049812 -0.005649534
v -1.015954 0.06104293 -0.005649534
v -1.239736 0.06104322 -0.005649524
v -0.9887662 0.06104293 -0.005649535
v -0.9887662 0.09239198 -0.005649535
v -1.239736 0.09239228 -0.005649524
v -1.166076 1.423343 -0.03188645
v -0.9904428 1.423342 -0.03188646
v -0.9904428 1.522387 -0.03188646
v -1.166076 1.522387 -0.03188645
v 1.069675 0.1470876 -0.005649626
v 1.158827 0.1470876 -0.00564963
v 1.158827 1.726225 -0.00564963
v 1.069675 1.726225 -0.005649626
v 1.179568 0.1470876 -0.00564963
v 1.048934 0.1470876 -0.005649623
v 1.048934 0.09199439 -0.005649623
v 1.179568 0.09199439 -0.00564963
v 1.212548 0.06104322 -0.005649631
v 1.015954 0.06104293 -0.005649622
v 1.015954 -0.007049812 -0.005649622
v 1.212548 -0.007049517 -0.005649631
v 0.9887671 0.06104293 -0.005649621
v 1.239737 0.06104322 -0.005649632
v 1.239737 0.09239228 -0.005649632
v 0.9887671 0.09239198 -0.005649621
v 1.166076 1.423342 -0.03188656
v 1.166076 1.522387 -0.03188656
v 0.9904435 1.522387 -0.03188655
v 0.9904435 1.423341 -0.03188655
v -0.2471333 1.354809 -0.2139825
v -0.2471342 1.60242 -0.08398687
v -0.495183 1.60242 -0.08398686
v -0.4951839 1.354809 -0.2139825
v 0.248085 1.354809 -0.2139826
v 0.2480865 1.60242 -0.08398689
v 3.766646E-05 1.60242 -0.08398688
v 3.52766E-05 1.354809 -0.2139825
v 0.7433095 1.35481 -0.2139826
v 0.7433095 1.60242 -0.08398691
v 0.4952583 1.60242 -0.0839869
v 0.4952583 1.354809 -0.2139826
v -0.7417779 1.354809 -0.2139825
v -0.7417793 1.60242 -0.08398685
v -0.9904442 1.60242 -0.08398683
v -0.9904442 1.354809 -0.2139825
v -0.7417793 1.354808 -0.2139824
v -0.495183 1.354809 -0.08398671
v -0.495183 1.60242 -0.08398671
v -0.6786284 1.60242 -0.1833008
v -0.7417793 1.602419 -0.2139824
v -0.2471342 1.354808 -0.2139824
v 3.81433E-05 1.354808 -0.08398674
v 3.81433E-05 1.60242 -0.08398674
v -0.1834073 1.60242 -0.1833009
v -0.2471342 1.60242 -0.2139824
v 0.2480864 1.354808 -0.2139824
v 0.4952612 1.354808 -0.08398676
v 0.4952612 1.60242 -0.08398676
v 0.3118134 1.60242 -0.1833009
v 0.2480864 1.602419 -0.2139824
v 0.7433097 1.354809 -0.2139824
v 0.990442 1.354809 -0.08398678
v 0.990442 1.60242 -0.08398678
v 0.8070369 1.60242 -0.1833009
v 0.7433097 1.60242 -0.2139824
vt 0.3204719 0.8388385
vt 0.5713819 0.8388386
vt 0.5713819 0.8083162
vt 0.3204719 0.8083162
vt 0.70683 0.4071221
vt 0.7156906 0.4071221
vt 0.7156905 0.3739829
vt 0.70683 0.3739829
vt 0.6459163 0.7104779
vt 0.6349652 0.7104779
vt 0.6349652 0.7603502
vt 0.6459163 0.7603502
vt 0.6430241 0.6477551
vt 0.6430241 0.5925356
vt 0.6378868 0.5925356
vt 0.6378868 0.6477551
vt 0.6831073 0.8212584
vt 0.6466714 0.8212584
vt 0.6466714 0.8418056
vt 0.6831073 0.8418056
vt 0.3204719 0.8388385
vt 0.3204719 0.8083162
vt 0.5713819 0.8083162
vt 0.5713819 0.8388386
vt 0.70683 0.4071221
vt 0.70683 0.3739829
vt 0.7156905 0.3739829
vt 0.7156906 0.4071221
vt 0.6459163 0.7104779
vt 0.6459163 0.7603502
vt 0.6349652 0.7603502
vt 0.6349652 0.7104779
vt 0.6430241 0.5925356
vt 0.6430241 0.6477551
vt 0.6378868 0.6477551
vt 0.6378868 0.5925356
vt 0.6831073 0.8212584
vt 0.6831073 0.8418056
vt 0.6466714 0.8418056
vt 0.6466714 0.8212584
vt 0.874154 0.7072145
vt 0.8793757 0.6668881
vt 0.8389151 0.6668881
vt 0.8441365 0.7072145
vt 0.874154 0.6573902
vt 0.8793755 0.6170637
vt 0.8389153 0.6170637
vt 0.8441367 0.6573902
vt 0.8760704 0.8526372
vt 0.8812918 0.8123108
vt 0.8408313 0.8123108
vt 0.8460528 0.8526372
vt 0.2900974 0.8955733
vt 0.2953244 0.8552015
vt 0.2548185 0.8552015
vt 0.2600462 0.8955733
vt 0.9267277 0.8537323
vt 0.9319375 0.8134984
vt 0.8915697 0.8134984
vt 0.8915108 0.8434859
vt 0.8967793 0.8537323
vt 0.9781336 0.8567567
vt 0.9833476 0.8164883
vt 0.9429452 0.8164883
vt 0.9428863 0.8465016
vt 0.9481594 0.8567567
vt 0.9780801 0.9065947
vt 0.9832941 0.8663262
vt 0.9428917 0.8663262
vt 0.9428328 0.8963397
vt 0.9481058 0.9065947
vt 0.9231442 0.6577097
vt 0.9283577 0.617444
vt 0.8879579 0.617444
vt 0.8878989 0.6474555
vt 0.8931717 0.6577097
vn 0 0 -1
vn 0 0 -1
vn 0 0 -1
vn 0 0 -1
vn 0 0 -1
vn 0 0 -1
vn 0 0 -1
vn 0 0 -1
vn 0 0 -1
vn 0 0 -1
vn 0 0 -1
vn 0 0 -1
vn 0 0 -1
vn 0 0 -1
vn 0 0 -1
vn 0 0 -1
vn 0 0 -1
vn 0 0 -1
vn 0 0 -1
vn 0 0 -1
vn 0 0 -1
vn 0 0 -1
vn 0 0 -1
vn 0 0 -1
vn 0 0 -1
vn 0 0 -1
vn 0 0 -1
vn 0 0 -1
vn 0 0 -1
vn 0 0 -1
vn 0 0 -1
vn 0 0 -1
vn 0 0 -1
vn 0 0 -1
vn 0 0 -1
vn 0 0 -1
vn 0 0 -1
vn 0 0 -1
vn 0 0 -1
vn 0 0 -1
vn 0 0.4648333 -0.8853982
vn 0 0.4648333 -0.8853982
vn 0 0.4648333 -0.8853982
vn 0 0.4648333 -0.8853982
vn 0 0.4648333 -0.8853982
vn 0 0.4648333 -0.8853982
vn 0 0.4648333 -0.8853982
vn 0 0.4648333 -0.8853982
vn 0 0.4648339 -0.8853979
vn 0 0.4648339 -0.8853979
vn 0 0.4648339 -0.8853979
vn 0 0.4648339 -0.8853979
vn 0 0.4648333 -0.8853982
vn 0 0.4648333 -0.8853982
vn 0 0.4648333 -0.8853982
vn 0 0.4648333 -0.8853982
vn 0.4663259 -0.00466052 -0.8846008
vn 0.4663259 -0.00466052 -0.8846008
vn 0.4663259 -0.00466052 -0.8846008
vn 0.4663259 -0.00466052 -0.8846008
vn 0.4663258 -0.00466052 -0.8846008
vn 0.4654738 -0.005065629 -0.8850471
vn 0.4654738 -0.005065629 -0.8850471
vn 0.4654738 -0.005065629 -0.8850471
vn 0.4654738 -0.005065629 -0.8850471
vn 0.4654738 -0.005065629 -0.8850471
vn 0.4654703 -0.005065076 -0.8850489
vn 0.4654703 -0.005065077 -0.8850489
vn 0.4654703 -0.005065077 -0.8850489
vn 0.4654703 -0.005065077 -0.8850489
vn 0.4654703 -0.005065077 -0.8850489
vn 0.4655329 -0.005075393 -0.885016
vn 0.4655329 -0.005075393 -0.885016
vn 0.4655329 -0.005075392 -0.885016
vn 0.4655329 -0.005075393 -0.885016
vn 0.4655329 -0.005075393 -0.885016
g Custom_Barrier_Low_LOD_0
f 3/3/3 2/2/2 1/1/1
f 4/4/4 3/3/3 1/1/1
f 7/7/7 6/6/6 5/5/5
f 8/8/8 7/7/7 5/5/5
f 11/11/11 10/10/10 9/9/9
f 12/12/12 11/11/11 9/9/9
f 15/15/15 14/14/14 13/13/13
f 16/16/16 15/15/15 13/13/13
f 19/19/19 18/18/18 17/17/17
f 20/20/20 19/19/19 17/17/17
f 23/23/23 22/22/22 21/21/21
f 24/24/24 23/23/23 21/21/21
f 27/27/27 26/26/26 25/25/25
f 28/28/28 27/27/27 25/25/25
f 31/31/31 30/30/30 29/29/29
f 32/32/32 31/31/31 29/29/29
f 35/35/35 34/34/34 33/33/33
f 36/36/36 35/35/35 33/33/33
f 39/39/39 38/38/38 37/37/37
f 40/40/40 39/39/39 37/37/37
f 43/43/43 42/42/42 41/41/41
f 44/44/44 43/43/43 41/41/41
f 47/47/47 46/46/46 45/45/45
f 48/48/48 47/47/47 45/45/45
f 51/51/51 50/50/50 49/49/49
f 52/52/52 51/51/51 49/49/49
f 55/55/55 54/54/54 53/53/53
f 56/56/56 55/55/55 53/53/53
f 59/59/59 58/58/58 57/57/57
f 57/57/57 60/60/60 59/59/59
f 57/57/57 61/61/61 60/60/60
f 64/64/64 63/63/63 62/62/62
f 62/62/62 65/65/65 64/64/64
f 62/62/62 66/66/66 65/65/65
f 69/69/69 68/68/68 67/67/67
f 67/67/67 70/70/70 69/69/69
f 67/67/67 71/71/71 70/70/70
f 74/74/74 73/73/73 72/72/72
f 72/72/72 75/75/75 74/74/74
f 72/72/72 76/76/76 75/75/75
