g Custom_Barrier_Mid_Shadow
v -1.212548 0.01740584 -0.0567514
v -1.114252 0.01740584 -0.2748873
v -1.114251 0.01740584 -0.1135015
v -0.8761857 0.01740584 -0.1374479
v -1.352314 0.01740584 -0.1374451
v -1.015953 0.01740584 -0.05675259
v -0.8761886 0.01740584 0.1374483
v -1.212548 0.01740584 0.05675243
v -1.352315 0.01740584 0.1374483
v -1.015955 0.01740584 0.05675242
v -1.114253 0.01740584 0.2748933
v -1.114251 0.01740584 0.1135037
v 1.015954 0.01740584 -0.0567515
v 1.11425 0.01740584 -0.2748874
v 1.11425 0.01740584 -0.1135016
v 1.352316 0.01740584 -0.137448
v 0.8761873 0.01740584 -0.1374452
v 1.212548 0.01740584 -0.05675269
v 1.352314 0.01740584 0.1374481
v 1.015954 0.01740584 0.05675233
v 0.8761868 0.01740584 0.1374482
v 1.212547 0.01740584 0.05675232
v 1.114249 0.01740584 0.2748932
v 1.11425 0.01740584 0.1135036
vt 0.3232233 0.6767766
vt 0.5 0.75
vt 0.5 0.75
vt 0.6767767 0.6767766
vt 0.3232233 0.6767766
vt 0.6767767 0.6767766
vt 0.6767768 0.3232234
vt 0.3232233 0.3232233
vt 0.3232233 0.3232233
vt 0.6767768 0.3232234
vt 0.5000001 0.25
vt 0.5000001 0.25
vt 0.3232233 0.6767766
vt 0.5 0.75
vt 0.5 0.75
vt 0.6767767 0.6767766
vt 0.3232233 0.6767766
vt 0.6767767 0.6767766
vt 0.6767768 0.3232234
vt 0.3232233 0.3232233
vt 0.3232233 0.3232233
vt 0.6767768 0.3232234
vt 0.5000001 0.25
vt 0.5000001 0.25
vn 0 1 0
vn 0 1 0
vn 0 1 0
vn 0 1 0
vn 0 1 0
vn 0 1 0
vn 0 1 0
vn 0 1 0
vn 0 1 0
vn 0 1 0
vn 0 1 0
vn 0 1 0
vn 0 1 0
vn 0 1 0
vn 0 1 0
vn 0 1 0
vn 0 1 0
vn 0 1 0
vn 0 1 0
vn 0 1 0
vn 0 1 0
vn 0 1 0
vn 0 1 0
vn 0 1 0
g Custom_Barrier_Mid_Shadow_0
f 3/3/3 2/2/2 1/1/1
f 2/2/2 3/3/3 4/4/4
f 5/5/5 1/1/1 2/2/2
f 6/6/6 4/4/4 3/3/3
f 1/1/1 6/6/6 3/3/3
f 4/4/4 6/6/6 7/7/7
f 1/1/1 5/5/5 8/8/8
f 8/8/8 6/6/6 1/1/1
f 9/9/9 8/8/8 5/5/5
f 10/10/10 7/7/7 6/6/6
f 10/10/10 6/6/6 8/8/8
f 7/7/7 10/10/10 11/11/11
f 8/8/8 9/9/9 12/12/12
f 11/11/11 12/12/12 9/9/9
f 12/12/12 10/10/10 8/8/8
f 12/12/12 11/11/11 10/10/10
f 15/15/15 14/14/14 13/13/13
f 14/14/14 15/15/15 16/16/16
f 17/17/17 13/13/13 14/14/14
f 18/18/18 16/16/16 15/15/15
f 13/13/13 18/18/18 15/15/15
f 16/16/16 18/18/18 19/19/19
f 13/13/13 17/17/17 20/20/20
f 20/20/20 18/18/18 13/13/13
f 21/21/21 20/20/20 17/17/17
f 22/22/22 19/19/19 18/18/18
f 22/22/22 18/18/18 20/20/20
f 19/19/19 22/22/22 23/23/23
f 20/20/20 21/21/21 24/24/24
f 23/23/23 24/24/24 21/21/21
f 24/24/24 22/22/22 20/20/20
f 24/24/24 23/23/23 22/22/22
