g DoubleStud_Block
v -0.1185318 -0.1684633 -0.2370636
v -0.1185318 0.116013 -0.2370636
v -0.1185318 0.116013 0.2370636
v -0.1185318 -0.1684633 0.2370636
v -0.1185318 0.116013 -0.2370636
v 0.1185318 0.116013 -0.2370636
v 0.1185318 0.116013 0.2370636
v -0.1185318 0.116013 0.2370636
v 0.1185318 0.116013 -0.2370636
v 0.1185318 -0.1684633 -0.2370636
v 0.1185318 -0.1684633 0.2370636
v 0.1185318 0.116013 0.2370636
v 0.1185318 -0.1684633 -0.2370636
v -0.1185318 -0.1684633 -0.2370636
v -0.1185318 -0.1684633 0.2370636
v 0.1185318 -0.1684633 0.2370636
v -0.1185318 -0.1684633 0.2370636
v -0.1185318 0.116013 0.2370636
v 0.1185318 0.116013 0.2370636
v 0.1185318 -0.1684633 0.2370636
v 0.1185318 -0.1684633 -0.2370636
v 0.1185318 0.116013 -0.2370636
v -0.1185318 0.116013 -0.2370636
v -0.1185318 -0.1684633 -0.2370636
v -0.06287396 0.1150794 0.1556766
v 0.0007314437 0.1684633 0.1923993
v 0.0007314437 0.1150794 0.1923993
v -0.06287396 0.1684633 0.1556766
v -0.06287395 0.1150794 0.08223139
v -0.06287395 0.1684633 0.08223139
v 0.0007313722 0.1150794 0.04550878
v 0.0007313722 0.1684633 0.04550878
v 0.06433684 0.1150794 0.08223146
v 0.06433684 0.1684633 0.08223146
v 0.06433684 0.1150794 0.1556767
v 0.06433684 0.1684633 0.1556767
v 0.0007314437 0.1150794 0.1923993
v 0.0007314437 0.1684633 0.1923993
v 0.0007314437 0.1684633 0.1923993
v 0.06433684 0.1684633 0.08223146
v 0.06433684 0.1684633 0.1556767
v -0.06287395 0.1684633 0.08223139
v -0.06287396 0.1684633 0.1556766
v 0.0007313722 0.1684633 0.04550878
v -0.06287395 0.1150794 -0.08138692
v 0.0007313745 0.1684633 -0.0446643
v 0.0007313745 0.1150794 -0.0446643
v -0.06287395 0.1684633 -0.08138692
v -0.06287396 0.1150794 -0.1548322
v -0.06287396 0.1684633 -0.1548322
v 0.0007313745 0.1150794 -0.1915548
v 0.0007313745 0.1684633 -0.1915548
v 0.06433684 0.1150794 -0.1548322
v 0.06433684 0.1684633 -0.1548322
v 0.06433684 0.1150794 -0.08138691
v 0.06433684 0.1684633 -0.08138691
v 0.0007313745 0.1150794 -0.0446643
v 0.0007313745 0.1684633 -0.0446643
v 0.0007313745 0.1684633 -0.0446643
v 0.06433684 0.1684633 -0.1548322
v 0.06433684 0.1684633 -0.08138691
v -0.06287396 0.1684633 -0.1548322
v -0.06287395 0.1684633 -0.08138692
v 0.0007313745 0.1684633 -0.1915548
vt 0.7066053 0.700725
vt 0.7066053 0.783509
vt 0.8445781 0.783509
vt 0.8445781 0.700725
vt 0.7066053 0.8018543
vt 0.7066053 0.870841
vt 0.8445781 0.870841
vt 0.8445781 0.8018543
vt 0.7066053 0.8925097
vt 0.7066053 0.9752935
vt 0.8445781 0.9752935
vt 0.8445781 0.8925097
vt 0.4706028 0.3178402
vt 0.4706028 0.3868268
vt 0.6085756 0.3868268
vt 0.6085756 0.3178402
vt 0.9090593 0.6086072
vt 0.9090593 0.6913911
vt 0.9780463 0.6913911
vt 0.9780463 0.6086072
vt 0.9147781 0.5174869
vt 0.9147781 0.6002708
vt 0.983765 0.6002708
vt 0.983765 0.5174869
vt 0.8613654 0.6186483
vt 0.8827385 0.6341832
vt 0.8827385 0.6186483
vt 0.8613654 0.6341832
vt 0.8399929 0.6186483
vt 0.8399929 0.6341832
vt 0.8186198 0.6186483
vt 0.8186198 0.6341832
vt 0.7972473 0.6186483
vt 0.7972473 0.6341832
vt 0.7758745 0.6186483
vt 0.7758745 0.6341832
vt 0.7545012 0.6186483
vt 0.7545012 0.6341832
vt 0.1646892 0.4638628
vt 0.1326295 0.4823722
vt 0.1540028 0.4823724
vt 0.1326295 0.4453534
vt 0.1540028 0.4453534
vt 0.1219433 0.4638628
vt 0.8613654 0.6186483
vt 0.8827385 0.6341832
vt 0.8827385 0.6186483
vt 0.8613654 0.6341832
vt 0.8399929 0.6186483
vt 0.8399929 0.6341832
vt 0.8186198 0.6186483
vt 0.8186198 0.6341832
vt 0.7972473 0.6186483
vt 0.7972473 0.6341832
vt 0.7758745 0.6186483
vt 0.7758745 0.6341832
vt 0.7545012 0.6186483
vt 0.7545012 0.6341832
vt 0.1646892 0.4638628
vt 0.1326295 0.4823722
vt 0.1540028 0.4823724
vt 0.1326295 0.4453534
vt 0.1540028 0.4453534
vt 0.1219433 0.4638628
vn -1 0 0
vn -1 0 0
vn -1 0 0
vn -1 0 0
vn 0 1 0
vn 0 1 0
vn 0 1 0
vn 0 1 0
vn 1 0 0
vn 1 0 0
vn 1 0 0
vn 1 0 0
vn 0 -1 0
vn 0 -1 0
vn 0 -1 0
vn 0 -1 0
vn 0 0 1
vn 0 0 1
vn 0 0 1
vn 0 0 1
vn 0 0 -1
vn 0 0 -1
vn 0 0 -1
vn 0 0 -1
vn -0.8660255 0 0.4999999
vn -5.542907E-07 0 1
vn -5.542907E-07 0 1
vn -0.8660255 0 0.4999999
vn -0.8660258 0 -0.4999994
vn -0.8660258 0 -0.4999994
vn 5.006498E-07 0 -1
vn 5.006498E-07 0 -1
vn 0.8660255 0 -0.4999998
vn 0.8660255 0 -0.4999998
vn 0.8660253 0 0.5000002
vn 0.8660253 0 0.5000002
vn -5.542907E-07 0 1
vn -5.542907E-07 0 1
vn 0 1 0
vn 0 1 0
vn 0 1 0
vn 0 1 0
vn 0 1 -1.306539E-06
vn 0 1 -6.532691E-07
vn -0.8660258 0 0.4999994
vn 0 0 1
vn 0 0 1
vn -0.8660258 0 0.4999994
vn -0.8660258 0 -0.4999994
vn -0.8660258 0 -0.4999994
vn 0 0 -1
vn 0 0 -1
vn 0.8660253 0 -0.5000001
vn 0.8660253 0 -0.5000001
vn 0.8660253 0 0.5000001
vn 0.8660253 0 0.5000001
vn 0 0 1
vn 0 0 1
vn 0 1 3.266347E-07
vn 0 1 1.633174E-07
vn 0 1 0
vn 0 1 1.633173E-07
vn 0 1 0
vn 0 1 -1.306539E-06
g DoubleStud_Block_0
f 3/3/3 2/2/2 1/1/1
f 4/4/4 3/3/3 1/1/1
f 7/7/7 6/6/6 5/5/5
f 8/8/8 7/7/7 5/5/5
f 11/11/11 10/10/10 9/9/9
f 12/12/12 11/11/11 9/9/9
f 15/15/15 14/14/14 13/13/13
f 16/16/16 15/15/15 13/13/13
f 19/19/19 18/18/18 17/17/17
f 20/20/20 19/19/19 17/17/17
f 23/23/23 22/22/22 21/21/21
f 24/24/24 23/23/23 21/21/21
f 27/27/27 26/26/26 25/25/25
f 26/26/26 28/28/28 25/25/25
f 25/25/25 28/28/28 29/29/29
f 28/28/28 30/30/30 29/29/29
f 29/29/29 30/30/30 31/31/31
f 30/30/30 32/32/32 31/31/31
f 31/31/31 32/32/32 33/33/33
f 32/32/32 34/34/34 33/33/33
f 33/33/33 34/34/34 35/35/35
f 34/34/34 36/36/36 35/35/35
f 35/35/35 36/36/36 37/37/37
f 36/36/36 38/38/38 37/37/37
f 41/41/41 40/40/40 39/39/39
f 40/40/40 42/42/42 39/39/39
f 42/42/42 43/43/43 39/39/39
f 40/40/40 44/44/44 42/42/42
f 47/47/47 46/46/46 45/45/45
f 46/46/46 48/48/48 45/45/45
f 45/45/45 48/48/48 49/49/49
f 48/48/48 50/50/50 49/49/49
f 49/49/49 50/50/50 51/51/51
f 50/50/50 52/52/52 51/51/51
f 51/51/51 52/52/52 53/53/53
f 52/52/52 54/54/54 53/53/53
f 53/53/53 54/54/54 55/55/55
f 54/54/54 56/56/56 55/55/55
f 55/55/55 56/56/56 57/57/57
f 56/56/56 58/58/58 57/57/57
f 61/61/61 60/60/60 59/59/59
f 60/60/60 62/62/62 59/59/59
f 62/62/62 63/63/63 59/59/59
f 60/60/60 64/64/64 62/62/62
