g Effect_Star
v 0.03470007 0.453958 0.3983096
v 0.2180902 0.2609887 0.02876305
v 0.2180901 0.1539097 0.2583949
v 0.03470017 0.5610372 0.1686777
v -1.824115E-08 0.4825332 0.4116345
v 1.64323E-08 0.5896124 0.1820026
v 0.5919145 0.2074271 0.00378685
v 0.2180901 0.1539097 0.2583949
v 0.2180902 0.2609887 0.02876305
v 0.5919144 0.100348 0.2334188
v 0.6334103 0.1876481 -0.005436134
v 0.6334103 0.0805691 0.2241958
v 0.614147 0.1489084 -0.02350082
v 0.6141471 0.0418294 0.2061311
v 0.3559545 -0.1018847 -0.1404475
v 0.3559543 -0.2089637 0.08918438
v 0.4152663 -0.440654 -0.2984182
v 0.3559543 -0.2089637 0.08918438
v 0.3559545 -0.1018847 -0.1404475
v 0.4152662 -0.547733 -0.06878618
v 0.4073338 -0.4825335 -0.3179469
v 0.4073336 -0.5896125 -0.08831491
v 0.3607284 -0.4779006 -0.3157866
v 0.3607284 -0.5849797 -0.08615461
v 8.138338E-08 -0.3328508 -0.2481489
v 4.670993E-08 -0.4399298 -0.01851692
v 4.670993E-08 -0.4399298 -0.01851692
v 0.4073336 -0.5896125 -0.08831491
v 0.3607284 -0.5849797 -0.08615461
v 0.3559543 -0.2089637 0.08918438
v 0.4152662 -0.547733 -0.06878618
v 0.2180901 0.1539097 0.2583949
v 0.03470007 0.453958 0.3983096
v -1.824115E-08 0.4825332 0.4116345
v 0.6334103 0.0805691 0.2241958
v 0.6141471 0.0418294 0.2061311
v 0.5919144 0.100348 0.2334188
v 1.64323E-08 0.5896124 0.1820026
v 0.2180902 0.2609887 0.02876305
v 0.03470017 0.5610372 0.1686777
v 0.3559545 -0.1018847 -0.1404475
v 0.6334103 0.1876481 -0.005436134
v 0.5919145 0.2074271 0.00378685
v 0.614147 0.1489084 -0.02350082
v 0.4073338 -0.4825335 -0.3179469
v 0.4152663 -0.440654 -0.2984182
v 0.3607284 -0.4779006 -0.3157866
v 8.138338E-08 -0.3328508 -0.2481489
v -0.2180901 0.2609887 0.02876297
v -0.03470011 0.453958 0.3983096
v -0.2180901 0.1539097 0.2583949
v -0.03470013 0.5610372 0.1686777
v -1.824115E-08 0.4825332 0.4116345
v 1.64323E-08 0.5896124 0.1820026
v -0.2180901 0.1539097 0.2583949
v -0.5919143 0.2074271 0.003786697
v -0.2180901 0.2609887 0.02876297
v -0.5919142 0.100348 0.2334186
v -0.6334102 0.1876481 -0.005436363
v -0.6334103 0.0805691 0.2241956
v -0.6141468 0.1489084 -0.02350098
v -0.6141469 0.0418294 0.206131
v -0.3559543 -0.1018847 -0.1404476
v -0.3559543 -0.2089637 0.0891843
v -0.3559543 -0.2089637 0.0891843
v -0.415266 -0.440654 -0.2984183
v -0.3559543 -0.1018847 -0.1404476
v -0.415266 -0.547733 -0.06878633
v -0.4073335 -0.4825335 -0.3179471
v -0.4073335 -0.5896125 -0.08831506
v -0.3607283 -0.4779006 -0.3157867
v -0.3607283 -0.5849797 -0.08615468
v 8.138338E-08 -0.3328508 -0.2481489
v 4.670993E-08 -0.4399298 -0.01851692
v 4.670993E-08 -0.4399298 -0.01851692
v -0.03470011 0.453958 0.3983096
v -1.824115E-08 0.4825332 0.4116345
v -0.2180901 0.1539097 0.2583949
v -0.3559543 -0.2089637 0.0891843
v -0.4073335 -0.5896125 -0.08831506
v -0.3607283 -0.5849797 -0.08615468
v -0.415266 -0.547733 -0.06878633
v -0.6334103 0.0805691 0.2241956
v -0.5919142 0.100348 0.2334186
v -0.6141469 0.0418294 0.206131
v 1.64323E-08 0.5896124 0.1820026
v -0.3607283 -0.4779006 -0.3157867
v 8.138338E-08 -0.3328508 -0.2481489
v -0.4073335 -0.4825335 -0.3179471
v -0.3559543 -0.1018847 -0.1404476
v -0.415266 -0.440654 -0.2984183
v -0.2180901 0.2609887 0.02876297
v -0.03470013 0.5610372 0.1686777
v -0.6334102 0.1876481 -0.005436363
v -0.6141468 0.1489084 -0.02350098
v -0.5919143 0.2074271 0.003786697
vt 0.9210448 0.7670416
vt 0.9890364 0.6773677
vt 0.9210444 0.6773677
vt 0.9890364 0.7670416
vt 0.9210444 0.777838
vt 0.9890364 0.7778382
vt 0.9890364 0.577359
vt 0.9210444 0.6773677
vt 0.9890364 0.6773677
vt 0.9210444 0.577359
vt 0.9890364 0.566329
vt 0.9210444 0.566329
vt 0.9890364 0.5549524
vt 0.9210444 0.5549524
vt 0.9890364 0.4819059
vt 0.9210444 0.4819059
vt 0.9890364 0.3813518
vt 0.9210444 0.4819059
vt 0.9890364 0.4819059
vt 0.9210444 0.3813518
vt 0.9890364 0.3689924
vt 0.9210444 0.3689924
vt 0.9890364 0.3565137
vt 0.9210444 0.3565137
vt 0.9890366 0.2652571
vt 0.9210444 0.2652571
vt 0.02297648 0.6396245
vt 0.1273801 0.5925024
vt 0.1149012 0.5940915
vt 0.1155634 0.7054154
vt 0.1297244 0.6048614
vt 0.08045331 0.8134724
vt 0.03280601 0.9031463
vt 0.02297648 0.9127583
vt 0.191492 0.7898186
vt 0.1861243 0.7784418
vt 0.1804621 0.7958674
vt 0.01810563 0.9895843
vt 0.1153051 0.9335129
vt 0.02563435 0.981159
vt 0.2233584 0.8984043
vt 0.138958 0.8224781
vt 0.1329092 0.8335075
vt 0.1503347 0.8278459
vt 0.3362679 0.8865877
vt 0.3239094 0.8842433
vt 0.3346784 0.8990663
vt 0.2912312 0.9895843
vt 0.9890364 0.6773677
vt 0.9210448 0.7670416
vt 0.9210444 0.6773677
vt 0.9890364 0.7670416
vt 0.9210444 0.777838
vt 0.9890364 0.7778382
vt 0.9210444 0.6773677
vt 0.9890364 0.577359
vt 0.9890364 0.6773677
vt 0.9210444 0.577359
vt 0.9890364 0.566329
vt 0.9210444 0.566329
vt 0.9890364 0.5549524
vt 0.9210444 0.5549524
vt 0.9890364 0.4819059
vt 0.9210444 0.4819059
vt 0.9210444 0.4819059
vt 0.9890364 0.3813518
vt 0.9890364 0.4819059
vt 0.9210444 0.3813518
vt 0.9890364 0.3689924
vt 0.9210444 0.3689924
vt 0.9890364 0.3565137
vt 0.9210444 0.3565137
vt 0.9890366 0.2652571
vt 0.9210444 0.2652571
vt 0.02297648 0.6396245
vt 0.03280601 0.9031463
vt 0.02297648 0.9127583
vt 0.08045331 0.8134724
vt 0.1155634 0.7054154
vt 0.1273801 0.5925024
vt 0.1149012 0.5940915
vt 0.1297244 0.6048614
vt 0.191492 0.7898186
vt 0.1804621 0.7958674
vt 0.1861243 0.7784418
vt 0.01810563 0.9895843
vt 0.3346784 0.8990663
vt 0.2912312 0.9895843
vt 0.3362679 0.8865877
vt 0.2233584 0.8984043
vt 0.3239094 0.8842433
vt 0.1153051 0.9335129
vt 0.02563435 0.981159
vt 0.138958 0.8224781
vt 0.1503347 0.8278459
vt 0.1329092 0.8335075
vn 0.7841012 0.5624843 0.2622911
vn 0.8747577 0.4391609 0.2047843
vn 0.8747576 0.439161 0.2047842
vn 0.7841017 0.5624839 0.262291
vn 1.666274E-07 0.9063077 0.4226186
vn 0 0.9063076 0.4226187
vn 0.3150243 0.860162 0.4010997
vn 0.156153 0.8951901 0.4174336
vn 0.156153 0.8951901 0.4174336
vn 0.3150246 0.860162 0.4010997
vn 0.9455189 0.2950638 0.1375906
vn 0.9455187 0.2950646 0.1375907
vn 0.8325561 -0.5020409 -0.2341052
vn 0.8325568 -0.5020398 -0.2341049
vn 0.7311593 -0.6182894 -0.2883127
vn 0.7311592 -0.6182895 -0.2883126
vn 0.9999801 -0.005730362 -0.002671328
vn 0.9876437 0.1420328 0.06623149
vn 0.9876437 0.1420328 0.06623143
vn 0.9999801 -0.005730182 -0.002671204
vn 0.6018136 -0.7238109 -0.3375176
vn 0.6018145 -0.7238102 -0.3375176
vn -0.2603765 -0.8750468 -0.4080408
vn -0.2603759 -0.8750468 -0.4080409
vn -0.4055481 -0.8284323 -0.3863041
vn -0.4055481 -0.8284323 -0.3863041
vn -1.267352E-07 -0.422618 0.9063079
vn -5.754557E-07 -0.422618 0.906308
vn 0 -0.4226176 0.9063082
vn -2.569983E-07 -0.422618 0.9063079
vn -2.139397E-06 -0.4226182 0.9063078
vn -2.580366E-07 -0.422618 0.9063079
vn 1.504139E-06 -0.4226181 0.9063079
vn -9.828726E-07 -0.4226182 0.9063079
vn 0 -0.422618 0.906308
vn 1.40398E-06 -0.4226195 0.9063073
vn 1.838536E-07 -0.4226158 0.9063089
vn 0 0.4226174 -0.9063082
vn 4.836871E-07 0.4226181 -0.9063079
vn -3.877611E-06 0.4226157 -0.9063089
vn 8.338328E-07 0.4226184 -0.9063078
vn -5.43079E-07 0.4226178 -0.9063081
vn -7.354162E-07 0.4226138 -0.9063098
vn -3.008548E-06 0.4226206 -0.9063067
vn 6.011089E-07 0.4226182 -0.9063078
vn 2.273109E-06 0.4226186 -0.9063077
vn 1.179837E-07 0.4226181 -0.9063079
vn 1.828602E-07 0.4226182 -0.9063079
vn -0.8747577 0.439161 0.204784
vn -0.7841014 0.5624842 0.2622908
vn -0.8747577 0.4391612 0.204784
vn -0.7841017 0.5624839 0.2622907
vn 1.666274E-07 0.9063077 0.4226186
vn 0 0.9063076 0.4226187
vn -0.1561531 0.8951901 0.4174335
vn -0.3150247 0.860162 0.4010997
vn -0.1561531 0.8951901 0.4174335
vn -0.3150242 0.860162 0.4010997
vn -0.945519 0.2950637 0.1375901
vn -0.945519 0.2950637 0.1375901
vn -0.8325559 -0.502041 -0.2341055
vn -0.8325558 -0.502041 -0.2341055
vn -0.7311594 -0.6182892 -0.2883129
vn -0.7311594 -0.6182892 -0.2883129
vn -0.9876437 0.1420326 0.06623078
vn -0.9999801 -0.005730295 -0.002671964
vn -0.9876437 0.1420327 0.06623071
vn -0.9999801 -0.005730094 -0.002671828
vn -0.6018134 -0.7238109 -0.3375181
vn -0.601814 -0.7238104 -0.337518
vn 0.2603767 -0.8750468 -0.4080406
vn 0.2603763 -0.8750468 -0.4080408
vn 0.4055482 -0.8284323 -0.3863039
vn 0.4055482 -0.8284323 -0.3863039
vn -1.267352E-07 -0.422618 0.9063079
vn -3.079774E-06 -0.4226181 0.9063079
vn -9.828726E-07 -0.4226182 0.9063079
vn 1.575378E-07 -0.422618 0.9063079
vn 0 -0.422618 0.9063079
vn 0 -0.4226175 0.9063082
vn -1.851313E-06 -0.422614 0.9063097
vn 1.60455E-06 -0.4226184 0.9063078
vn 2.11085E-07 -0.422618 0.9063079
vn 1.337118E-07 -0.4226192 0.9063073
vn 1.47085E-06 -0.4226168 0.9063085
vn 0 0.4226174 -0.9063082
vn 0 0.4226181 -0.9063079
vn 1.828602E-07 0.4226182 -0.9063079
vn -5.439073E-07 0.4226183 -0.9063078
vn -8.90719E-07 0.4226184 -0.9063078
vn -1.738261E-06 0.4226186 -0.9063076
vn 3.094081E-07 0.422618 -0.906308
vn 3.209059E-06 0.422616 -0.9063088
vn 1.789702E-07 0.4226178 -0.906308
vn 1.337134E-07 0.422618 -0.9063079
vn 2.841377E-07 0.4226174 -0.9063082
g Effect_Star_0
f 3/3/3 2/2/2 1/1/1
f 4/4/4 1/1/1 2/2/2
f 1/1/1 4/4/4 5/5/5
f 6/6/6 5/5/5 4/4/4
f 9/9/9 8/8/8 7/7/7
f 10/10/10 7/7/7 8/8/8
f 7/7/7 10/10/10 11/11/11
f 12/12/12 11/11/11 10/10/10
f 11/11/11 12/12/12 13/13/13
f 14/14/14 13/13/13 12/12/12
f 13/13/13 14/14/14 15/15/15
f 16/16/16 15/15/15 14/14/14
f 19/19/19 18/18/18 17/17/17
f 20/20/20 17/17/17 18/18/18
f 17/17/17 20/20/20 21/21/21
f 22/22/22 21/21/21 20/20/20
f 21/21/21 22/22/22 23/23/23
f 24/24/24 23/23/23 22/22/22
f 23/23/23 24/24/24 25/25/25
f 26/26/26 25/25/25 24/24/24
f 29/29/29 28/28/28 27/27/27
f 28/28/28 30/30/30 27/27/27
f 31/31/31 30/30/30 28/28/28
f 30/30/30 32/32/32 27/27/27
f 32/32/32 33/33/33 27/27/27
f 33/33/33 34/34/34 27/27/27
f 35/35/35 32/32/32 30/30/30
f 36/36/36 35/35/35 30/30/30
f 37/37/37 32/32/32 35/35/35
f 40/40/40 39/39/39 38/38/38
f 39/39/39 41/41/41 38/38/38
f 42/42/42 41/41/41 39/39/39
f 43/43/43 42/42/42 39/39/39
f 44/44/44 41/41/41 42/42/42
f 41/41/41 45/45/45 38/38/38
f 46/46/46 45/45/45 41/41/41
f 45/45/45 47/47/47 38/38/38
f 47/47/47 48/48/48 38/38/38
f 51/51/51 50/50/50 49/49/49
f 52/52/52 49/49/49 50/50/50
f 50/50/50 53/53/53 52/52/52
f 54/54/54 52/52/52 53/53/53
f 57/57/57 56/56/56 55/55/55
f 58/58/58 55/55/55 56/56/56
f 56/56/56 59/59/59 58/58/58
f 60/60/60 58/58/58 59/59/59
f 59/59/59 61/61/61 60/60/60
f 62/62/62 60/60/60 61/61/61
f 61/61/61 63/63/63 62/62/62
f 64/64/64 62/62/62 63/63/63
f 67/67/67 66/66/66 65/65/65
f 68/68/68 65/65/65 66/66/66
f 66/66/66 69/69/69 68/68/68
f 70/70/70 68/68/68 69/69/69
f 69/69/69 71/71/71 70/70/70
f 72/72/72 70/70/70 71/71/71
f 71/71/71 73/73/73 72/72/72
f 74/74/74 72/72/72 73/73/73
f 77/77/77 76/76/76 75/75/75
f 76/76/76 78/78/78 75/75/75
f 78/78/78 79/79/79 75/75/75
f 79/79/79 80/80/80 75/75/75
f 80/80/80 81/81/81 75/75/75
f 82/82/82 80/80/80 79/79/79
f 83/83/83 79/79/79 78/78/78
f 84/84/84 83/83/83 78/78/78
f 85/85/85 79/79/79 83/83/83
f 88/88/88 87/87/87 86/86/86
f 87/87/87 89/89/89 86/86/86
f 89/89/89 90/90/90 86/86/86
f 91/91/91 90/90/90 89/89/89
f 90/90/90 92/92/92 86/86/86
f 92/92/92 93/93/93 86/86/86
f 94/94/94 92/92/92 90/90/90
f 95/95/95 94/94/94 90/90/90
f 96/96/96 92/92/92 94/94/94
