g Effect_Balloon
v -0.4804788 -0.2489364 -0.005990753
v -0.6941921 -0.06723344 -0.02819977
v -0.387245 -0.1075651 -0.1204974
v -0.3482642 -0.7057586 0.1633704
v -0.2999797 0.1858318 -0.1151031
v -0.4590042 0.2733811 -0.009162445
v 0.03794693 -0.0002104092 -0.1729045
v -0.1798845 -0.4794466 0.003790893
v -0.2165227 -0.7041804 0.1679932
v 0.2844676 -0.4264283 0.04978454
v -0.2066856 0.4742327 -0.01609283
v -0.3218068 0.6975001 0.1364409
v 0.2055811 -0.2900386 -0.07501923
v 0.5601544 -0.4586175 0.06834228
v 0.04018707 0.4099489 -0.04038406
v 0.04124115 0.6029649 0.1007185
v 0.4545334 -0.1753051 -0.1014885
v 0.6542459 -0.3109357 0.01680176
v 0.693948 -0.1306287 -0.02085419
v 0.480264 0.1373481 -0.02526215
v 0.388098 0.4800497 0.01347122
v 0.552875 0.7060544 0.1799174
v 0.3387225 0.09332935 -0.1260509
v -0.4829696 -0.2519924 -0.01179199
v -0.3887967 -0.1089515 -0.1271957
v -0.6962393 -0.06747246 -0.03490417
v -0.3490312 -0.7093861 0.1574164
v -0.3016745 0.1875228 -0.1216959
v -0.4615881 0.2759435 -0.01515869
v 0.03801712 -0.0002550507 -0.1799182
v -0.1801804 -0.4828485 -0.002335815
v -0.2160007 -0.7083621 0.1623862
v 0.2848437 -0.4310369 0.04451035
v -0.2074469 0.4774484 -0.02227966
v -0.3226341 0.7011333 0.1304985
v 0.206198 -0.293329 -0.08118286
v 0.5608102 -0.4620264 0.06224762
v 0.04045242 0.4129707 -0.04670822
v 0.04152222 0.6071001 0.09505997
v 0.456029 -0.1768505 -0.1081648
v 0.6561526 -0.313554 0.01058029
v 0.6962393 -0.1309575 -0.02747528
v 0.483721 0.1393954 -0.03101135
v 0.389827 0.4828707 0.00728653
v 0.5543576 0.7093861 0.1739259
v 0.3406833 0.09463161 -0.1326582
vt 0.5725522 0.2470552
vt 0.5090514 0.2155458
vt 0.5426286 0.286663
vt 0.696722 0.2398619
vt 0.4825069 0.3284087
vt 0.4433497 0.2954916
vt 0.55 0.3909484
vt 0.6480173 0.3023675
vt 0.7092686 0.2708492
vt 0.6803973 0.4130537
vt 0.4194175 0.3714556
vt 0.3475046 0.3630676
vt 0.6312838 0.40656
vt 0.7068004 0.4776054
vt 0.4530802 0.4236237
vt 0.3975227 0.4428049
vt 0.621221 0.4723494
vt 0.6750195 0.5114691
vt 0.6330968 0.5347897
vt 0.5503608 0.5097942
vt 0.4619672 0.5098624
vt 0.4125688 0.5730872
vt 0.5511672 0.4659531
vt 0.27347 0.2422947
vt 0.264649 0.291363
vt 0.3394575 0.268129
vt 0.1945887 0.1467582
vt 0.2750093 0.3640789
vt 0.3257726 0.3706123
vt 0.1832637 0.3567169
vt 0.1816576 0.2245993
vt 0.163126 0.1584523
vt 0.07863971 0.2752999
vt 0.2860437 0.4396366
vt 0.3407251 0.4866358
vt 0.1166143 0.3071862
vt 0.01376881 0.2998502
vt 0.2249789 0.450256
vt 0.2485366 0.5040811
vt 0.07532036 0.359366
vt 0.01024876 0.3462286
vt 0.02164187 0.3931513
vt 0.09562624 0.4373911
vt 0.1556238 0.5020042
vt 0.142812 0.5808293
vt 0.127397 0.4068959
vn 0.3028415 0.4407827 0.8449837
vn 0.3447536 0.04817447 0.9374561
vn 0.2364991 0.162764 0.957902
vn 0.1169466 0.5268595 0.8418685
vn 0.1953867 -0.2519754 0.947804
vn 0.3414073 -0.3128625 0.8863173
vn -0.009998676 0.006364047 0.9999298
vn 0.05465721 0.4896822 0.8701861
vn -0.07453287 0.5992277 0.7971016
vn -0.1065204 0.5768821 0.8098521
vn 0.1085518 -0.4584681 0.8820564
vn 0.1179504 -0.5179903 0.8472154
vn -0.0572978 0.4515277 0.8904155
vn -0.1366211 0.5052755 0.8520747
vn -0.03783172 -0.4308234 0.9016429
vn -0.04006351 -0.5895429 0.8067429
vn -0.2290893 0.2013097 0.9523615
vn -0.2718533 0.3732909 0.8869891
vn -0.3776683 0.05515195 0.924297
vn -0.4558313 -0.2119933 0.8644516
vn -0.2465071 -0.4021876 0.881748
vn -0.2113702 -0.4750034 0.8542216
vn -0.2402519 -0.1914384 0.9516462
vn -0.302762 -0.4398041 -0.8455221
vn -0.2362536 -0.1631699 -0.9578934
vn -0.3448357 -0.0481476 -0.9374275
vn -0.1170164 -0.5265859 -0.8420299
vn -0.1953584 0.2516271 -0.9479024
vn -0.3409973 0.312613 -0.8865631
vn 0.00998061 -0.00628496 -0.9999305
vn -0.05455978 -0.4892982 -0.8704082
vn 0.07417671 -0.5989543 -0.7973403
vn 0.1068368 -0.5762752 -0.8102425
vn -0.1084697 0.4582118 -0.8821996
vn -0.1179631 0.5178168 -0.8473196
vn 0.05720283 -0.451086 -0.8906455
vn 0.1364029 -0.5048838 -0.8523418
vn 0.03784998 0.4303223 -0.9018814
vn 0.04015875 0.5890784 -0.8070775
vn 0.2288288 -0.2015553 -0.9523723
vn 0.2715493 -0.3730932 -0.8871654
vn 0.3776307 -0.05414293 -0.924372
vn 0.4553362 0.2116742 -0.8647907
vn 0.246435 0.4019899 -0.8818582
vn 0.211383 0.4748429 -0.8543076
vn 0.2401343 0.1914808 -0.9516672
g Effect_Balloon_0
f 3/3/3 2/2/2 1/1/1
f 3/3/3 1/1/1 4/4/4
f 3/3/3 5/5/5 2/2/2
f 5/5/5 6/6/6 2/2/2
f 7/7/7 5/5/5 3/3/3
f 7/7/7 3/3/3 8/8/8
f 8/8/8 3/3/3 4/4/4
f 4/4/4 9/9/9 8/8/8
f 8/8/8 9/9/9 10/10/10
f 5/5/5 11/11/11 6/6/6
f 7/7/7 11/11/11 5/5/5
f 11/11/11 12/12/12 6/6/6
f 13/13/13 8/8/8 10/10/10
f 7/7/7 8/8/8 13/13/13
f 13/13/13 10/10/10 14/14/14
f 11/11/11 15/15/15 12/12/12
f 7/7/7 15/15/15 11/11/11
f 15/15/15 16/16/16 12/12/12
f 17/17/17 13/13/13 14/14/14
f 7/7/7 13/13/13 17/17/17
f 17/17/17 14/14/14 18/18/18
f 19/19/19 17/17/17 18/18/18
f 17/17/17 19/19/19 20/20/20
f 15/15/15 21/21/21 16/16/16
f 7/7/7 21/21/21 15/15/15
f 21/21/21 22/22/22 16/16/16
f 23/23/23 17/17/17 20/20/20
f 7/7/7 17/17/17 23/23/23
f 23/23/23 20/20/20 22/22/22
f 21/21/21 23/23/23 22/22/22
f 7/7/7 23/23/23 21/21/21
f 26/26/26 25/25/25 24/24/24
f 24/24/24 25/25/25 27/27/27
f 28/28/28 25/25/25 26/26/26
f 29/29/29 28/28/28 26/26/26
f 28/28/28 30/30/30 25/25/25
f 25/25/25 30/30/30 31/31/31
f 25/25/25 31/31/31 27/27/27
f 32/32/32 27/27/27 31/31/31
f 32/32/32 31/31/31 33/33/33
f 34/34/34 28/28/28 29/29/29
f 34/34/34 30/30/30 28/28/28
f 35/35/35 34/34/34 29/29/29
f 31/31/31 36/36/36 33/33/33
f 31/31/31 30/30/30 36/36/36
f 33/33/33 36/36/36 37/37/37
f 38/38/38 34/34/34 35/35/35
f 38/38/38 30/30/30 34/34/34
f 39/39/39 38/38/38 35/35/35
f 36/36/36 40/40/40 37/37/37
f 36/36/36 30/30/30 40/40/40
f 37/37/37 40/40/40 41/41/41
f 40/40/40 42/42/42 41/41/41
f 42/42/42 40/40/40 43/43/43
f 44/44/44 38/38/38 39/39/39
f 44/44/44 30/30/30 38/38/38
f 45/45/45 44/44/44 39/39/39
f 40/40/40 46/46/46 43/43/43
f 40/40/40 30/30/30 46/46/46
f 46/46/46 30/30/30 44/44/44
f 46/46/46 44/44/44 45/45/45
f 43/43/43 46/46/46 45/45/45
