g Effect_Dish
v 0 -0.2039591 -0.1975768
v 0 0.2039591 -0.1975768
v -0.2039592 1.907349E-08 -0.1975768
v 0 -0.2039591 -0.1975768
v 0.2039592 1.907349E-08 -0.1975768
v 0 0.2039591 -0.1975768
v -0.2039592 1.907349E-08 -0.1975768
v 0 -0.2039591 -0.05636558
v 0 -0.2039591 -0.1975768
v -0.2039592 1.907349E-08 -0.05636558
v 0 0.2039591 -0.1975768
v 0 0.2039591 -0.05636556
v -0.2039592 1.907349E-08 -0.05636558
v 0 0.2039591 -0.05636556
v 0 0.419782 0.004315243
v -0.419782 3.814697E-08 0.004315224
v 0 -0.2039591 -0.05636558
v 0 -0.419782 0.004315204
v -0.4494404 0.4494405 0.1228657
v 0 0.6356047 0.1228657
v -0.6356048 3.814697E-08 0.1228657
v -0.4494405 -0.4494404 0.1228657
v 0 -0.6356047 0.1228657
v -0.4494405 -0.4494404 0.1228657
v 0 -0.6356047 0.1975773
v 0 -0.6356047 0.1228657
v -0.4494405 -0.4494404 0.1975773
v -0.6356048 3.814697E-08 0.1228657
v -0.6356048 3.814697E-08 0.1975773
v -0.4494404 0.4494405 0.1228657
v -0.4494404 0.4494405 0.1975774
v 0 0.6356047 0.1228657
v 0 0.6356047 0.1975774
v 0 -3.552714E-17 0.1479959
v -0.4494404 0.4494405 0.1975774
v 0 0.6356047 0.1975774
v -0.6356048 3.814697E-08 0.1975773
v -0.4494405 -0.4494404 0.1975773
v 0 -0.6356047 0.1975773
v 0.2039592 1.907349E-08 -0.1975768
v 0 -0.2039591 -0.1975768
v 0 -0.2039591 -0.05636558
v 0.2039592 1.907349E-08 -0.05636558
v 0 0.2039591 -0.1975768
v 0 0.2039591 -0.05636556
v 0.2039592 1.907349E-08 -0.05636558
v 0 0.419782 0.004315243
v 0 0.2039591 -0.05636556
v 0.419782 3.814697E-08 0.004315224
v 0 -0.2039591 -0.05636558
v 0 -0.419782 0.004315204
v 0.4494403 0.4494405 0.1228657
v 0 0.6356047 0.1228657
v 0.6356048 3.814697E-08 0.1228657
v 0.4494405 -0.4494404 0.1228657
v 0 -0.6356047 0.1228657
v 0.4494405 -0.4494404 0.1228657
v 0 -0.6356047 0.1228657
v 0 -0.6356047 0.1975773
v 0.4494405 -0.4494404 0.1975773
v 0.6356048 3.814697E-08 0.1228657
v 0.6356048 3.814697E-08 0.1975773
v 0.4494403 0.4494405 0.1228657
v 0.4494403 0.4494405 0.1975774
v 0 0.6356047 0.1228657
v 0 0.6356047 0.1975774
v 0 -3.552714E-17 0.1479959
v 0 0.6356047 0.1975774
v 0.4494403 0.4494405 0.1975774
v 0.6356048 3.814697E-08 0.1975773
v 0.4494405 -0.4494404 0.1975773
v 0 -0.6356047 0.1975773
vt 0.04769531 0.5985609
vt 0.04769531 0.5193415
vt 0.008085664 0.5589511
vt 0.04769531 0.5985609
vt 0.008085664 0.5589511
vt 0.04769531 0.5193415
vt 0.7788984 0.5194577
vt 0.8185079 0.4920341
vt 0.8185079 0.5194577
vt 0.7788984 0.4920341
vt 0.7392887 0.5194577
vt 0.7392887 0.4920341
vt 0.7070107 0.1449814
vt 0.7466205 0.1845911
vt 0.7885339 0.1845911
vt 0.7070107 0.1030676
vt 0.6674013 0.1845911
vt 0.6254874 0.1845911
vt 0.7942939 0.0973078
vt 0.8304478 0.1845911
vt 0.7070107 0.061154
vt 0.6197273 0.0973078
vt 0.5835738 0.1845911
vt 0.489765 0.01907009
vt 0.4024813 0.03357917
vt 0.4024813 0.01907009
vt 0.489765 0.03357917
vt 0.5770488 0.01907009
vt 0.5770488 0.03357917
vt 0.6643327 0.01906997
vt 0.6643327 0.03357905
vt 0.7516158 0.01906997
vt 0.7516158 0.03357905
vt 0.8498006 0.3352523
vt 0.7625174 0.4225352
vt 0.8498006 0.4586894
vt 0.7263636 0.3352523
vt 0.7625174 0.2479692
vt 0.8498006 0.2118153
vt 0.7788984 0.5194577
vt 0.8185079 0.5194577
vt 0.8185079 0.4920341
vt 0.7788984 0.4920341
vt 0.7392887 0.5194577
vt 0.7392887 0.4920341
vt 0.7070107 0.1449814
vt 0.7885339 0.1845911
vt 0.7466205 0.1845911
vt 0.7070107 0.1030676
vt 0.6674013 0.1845911
vt 0.6254874 0.1845911
vt 0.7942939 0.0973078
vt 0.8304478 0.1845911
vt 0.7070107 0.061154
vt 0.6197273 0.0973078
vt 0.5835738 0.1845911
vt 0.489765 0.01907009
vt 0.4024813 0.01907009
vt 0.4024813 0.03357917
vt 0.489765 0.03357917
vt 0.5770488 0.01907009
vt 0.5770488 0.03357917
vt 0.6643327 0.01906997
vt 0.6643327 0.03357905
vt 0.7516158 0.01906997
vt 0.7516158 0.03357905
vt 0.8498006 0.3352523
vt 0.8498006 0.4586894
vt 0.7625174 0.4225352
vt 0.7263636 0.3352523
vt 0.7625174 0.2479692
vt 0.8498006 0.2118153
vn 0 0 -1
vn 0 0 -1
vn 0 0 -1
vn 0 0 -1
vn 0 0 -1
vn 0 0 -1
vn -1 0 0
vn 0 -1 0
vn 0 -1 0
vn -1 0 0
vn 1.073261E-07 1 0
vn 0 1 0
vn -0.2706654 0 -0.9626735
vn 0 0.2706655 -0.9626734
vn 0 0.3601519 -0.9328937
vn -0.3601519 0 -0.9328937
vn 0 -0.2706654 -0.9626735
vn 0 -0.3601519 -0.9328937
vn -0.279946 0.2799461 -0.918292
vn 0 0.4814445 -0.8764765
vn -0.4814445 0 -0.8764765
vn -0.279946 -0.279946 -0.9182922
vn 0 -0.4814445 -0.8764765
vn -0.7071068 -0.7071068 0
vn 0 -1 0
vn 0 -1 0
vn -0.7071068 -0.7071068 0
vn -1 1.026798E-07 0
vn -1 1.437517E-07 0
vn -0.7071066 0.7071069 0
vn -0.7071066 0.7071069 0
vn 0 1 0
vn 0 1 0
vn 0 0 1
vn 0.05499199 -0.05499206 0.9969712
vn 0 -0.07777048 0.9969712
vn 0.0777704 0 0.9969712
vn 0.05499196 0.0549919 0.9969712
vn 0 0.07777034 0.9969712
vn 1 0 0
vn 0 -1 0
vn 0 -1 0
vn 1 0 0
vn 1.073261E-07 1 0
vn 0 1 0
vn 0.2706655 0 -0.9626735
vn 0 0.3601519 -0.9328937
vn 0 0.2706655 -0.9626734
vn 0.3601519 0 -0.9328937
vn 0 -0.2706654 -0.9626735
vn 0 -0.3601519 -0.9328937
vn 0.279946 0.2799461 -0.918292
vn 0 0.4814445 -0.8764765
vn 0.4814444 1.051097E-07 -0.8764765
vn 0.279946 -0.279946 -0.9182922
vn 0 -0.4814445 -0.8764765
vn 0.7071068 -0.7071068 0
vn 0 -1 0
vn 0 -1 0
vn 0.7071068 -0.7071068 0
vn 1 1.437517E-07 0
vn 1 1.848236E-07 0
vn 0.7071066 0.7071069 0
vn 0.7071066 0.7071069 0
vn 0 1 0
vn 0 1 0
vn 0 0 1
vn 0 -0.07777048 0.9969712
vn -0.05499199 -0.05499207 0.9969712
vn -0.0777704 0 0.9969712
vn -0.05499196 0.0549919 0.9969712
vn 0 0.07777034 0.9969712
g Effect_Dish_0
f 3/3/3 2/2/2 1/1/1
f 6/6/6 5/5/5 4/4/4
f 9/9/9 8/8/8 7/7/7
f 8/8/8 10/10/10 7/7/7
f 7/7/7 10/10/10 11/11/11
f 10/10/10 12/12/12 11/11/11
f 15/15/15 14/14/14 13/13/13
f 16/16/16 15/15/15 13/13/13
f 16/16/16 13/13/13 17/17/17
f 18/18/18 16/16/16 17/17/17
f 19/19/19 15/15/15 16/16/16
f 20/20/20 15/15/15 19/19/19
f 21/21/21 19/19/19 16/16/16
f 21/21/21 16/16/16 22/22/22
f 22/22/22 16/16/16 18/18/18
f 23/23/23 22/22/22 18/18/18
f 26/26/26 25/25/25 24/24/24
f 25/25/25 27/27/27 24/24/24
f 24/24/24 27/27/27 28/28/28
f 27/27/27 29/29/29 28/28/28
f 28/28/28 29/29/29 30/30/30
f 29/29/29 31/31/31 30/30/30
f 30/30/30 31/31/31 32/32/32
f 31/31/31 33/33/33 32/32/32
f 36/36/36 35/35/35 34/34/34
f 37/37/37 34/34/34 35/35/35
f 37/37/37 38/38/38 34/34/34
f 39/39/39 34/34/34 38/38/38
f 42/42/42 41/41/41 40/40/40
f 43/43/43 42/42/42 40/40/40
f 43/43/43 40/40/40 44/44/44
f 45/45/45 43/43/43 44/44/44
f 48/48/48 47/47/47 46/46/46
f 47/47/47 49/49/49 46/46/46
f 46/46/46 49/49/49 50/50/50
f 49/49/49 51/51/51 50/50/50
f 47/47/47 52/52/52 49/49/49
f 47/47/47 53/53/53 52/52/52
f 52/52/52 54/54/54 49/49/49
f 49/49/49 54/54/54 55/55/55
f 49/49/49 55/55/55 51/51/51
f 55/55/55 56/56/56 51/51/51
f 59/59/59 58/58/58 57/57/57
f 60/60/60 59/59/59 57/57/57
f 60/60/60 57/57/57 61/61/61
f 62/62/62 60/60/60 61/61/61
f 62/62/62 61/61/61 63/63/63
f 64/64/64 62/62/62 63/63/63
f 64/64/64 63/63/63 65/65/65
f 66/66/66 64/64/64 65/65/65
f 69/69/69 68/68/68 67/67/67
f 67/67/67 70/70/70 69/69/69
f 71/71/71 70/70/70 67/67/67
f 67/67/67 72/72/72 71/71/71
