g Egg_Connect
v 0 -0.06493648 0.06952161
v 0.04915922 0.06546162 0.04915921
v 0.04915922 -0.06493648 0.04915921
v 0 0.06546162 0.06952161
v -0.04915921 -0.06493648 0.04915921
v -0.04915921 0.06546162 0.04915921
v -0.06952162 -0.06493648 0
v -0.06952162 0.06546162 0
v -0.04915921 -0.06493648 -0.04915921
v -0.04915921 0.06546162 -0.04915921
v 0 -0.06493648 -0.06952162
v 0 0.06546162 -0.06952162
v 0.04915922 -0.06493648 -0.04915921
v 0.04915922 0.06546162 -0.04915921
v 0.06952166 -0.06493648 0
v 0.06952166 0.06546162 0
v 0.04915922 -0.06493648 0.04915921
v 0.04915922 0.06546162 0.04915921
v 0.0424256 -0.06493648 0.0424256
v 0.0424256 -0.1005024 0.0424256
v 0 -0.1005024 0.05999885
v 0 -0.06493648 0.05999885
v -0.0424256 -0.1005024 0.0424256
v -0.0424256 -0.06493648 0.0424256
v -0.05999886 -0.1005024 -1.192093E-09
v -0.05999886 -0.06493648 -1.192093E-09
v -0.0424256 -0.1005024 -0.0424256
v -0.0424256 -0.06493648 -0.0424256
v 0 -0.1005024 -0.05999885
v 0 -0.06493648 -0.05999885
v 0.0424256 -0.1005024 -0.0424256
v 0.0424256 -0.06493648 -0.0424256
v 0.05999884 -0.1005024 -1.192093E-09
v 0.05999884 -0.06493648 -1.192093E-09
v 0.0424256 -0.1005024 0.0424256
v 0.0424256 -0.06493648 0.0424256
v -9.536743E-09 0.06546162 0.04238778
v 0.02997267 0.09532101 0.02997269
v 0.02997267 0.06546162 0.02997269
v -9.536743E-09 0.09532101 0.04238778
v -0.02997268 0.06546162 0.02997268
v -0.02997268 0.09532101 0.02997268
v -0.04238776 0.06546162 -1.192093E-09
v -0.04238776 0.09532101 -1.192093E-09
v -0.02997268 0.06546162 -0.02997269
v -0.02997268 0.09532101 -0.02997269
v -9.536743E-09 0.06546162 -0.04238778
v -9.536743E-09 0.09532101 -0.04238778
v 0.02997267 0.06546162 -0.02997269
v 0.02997267 0.09532101 -0.02997269
v 0.04238779 0.06546162 -1.192093E-09
v 0.04238779 0.09532101 -1.192093E-09
v 0.02997267 0.06546162 0.02997269
v 0.02997267 0.09532101 0.02997269
v 0 -0.1005024 -0.05999885
v -0.0424256 -0.1005024 -0.0424256
v -9.536743E-09 -0.1005024 -1.192093E-09
v 0.0424256 -0.1005024 -0.0424256
v -0.05999886 -0.1005024 -1.192093E-09
v 0.05999884 -0.1005024 -1.192093E-09
v -0.0424256 -0.1005024 0.0424256
v 0.0424256 -0.1005024 0.0424256
v 0 -0.1005024 0.05999885
v -0.02997268 0.09532101 0.02997268
v -0.04238776 0.09532101 -1.192093E-09
v 0 0.09532093 -1.192093E-09
v -9.536743E-09 0.09532101 0.04238778
v -0.02997268 0.09532101 -0.02997269
v 0.02997267 0.09532101 0.02997269
v -9.536743E-09 0.09532101 -0.04238778
v 0.04238779 0.09532101 -1.192093E-09
v 0.02997267 0.09532101 -0.02997269
v 0 -0.06493648 -0.06952162
v 0 -0.06493648 -0.05999885
v 0.0424256 -0.06493648 -0.0424256
v -0.04915921 -0.06493648 -0.04915921
v 0.04915922 -0.06493648 -0.04915921
v -0.0424256 -0.06493648 -0.0424256
v 0.05999884 -0.06493648 -1.192093E-09
v -0.06952162 -0.06493648 0
v 0.06952166 -0.06493648 0
v -0.05999886 -0.06493648 -1.192093E-09
v 0.0424256 -0.06493648 0.0424256
v -0.04915921 -0.06493648 0.04915921
v 0.04915922 -0.06493648 0.04915921
v -0.0424256 -0.06493648 0.0424256
v 0 -0.06493648 0.05999885
v 0 -0.06493648 0.06952161
v 0.06952166 0.06546162 0
v 0.04238779 0.06546162 -1.192093E-09
v 0.02997267 0.06546162 -0.02997269
v 0.04915922 0.06546162 -0.04915921
v 0.04915922 0.06546162 0.04915921
v -9.536743E-09 0.06546162 -0.04238778
v 0.02997267 0.06546162 0.02997269
v 0 0.06546162 -0.06952162
v 0 0.06546162 0.06952161
v -0.02997268 0.06546162 -0.02997269
v -9.536743E-09 0.06546162 0.04238778
v -0.04915921 0.06546162 -0.04915921
v -0.04915921 0.06546162 0.04915921
v -0.04238776 0.06546162 -1.192093E-09
v -0.02997268 0.06546162 0.02997268
v -0.06952162 0.06546162 0
vt 0.986144 0.771342
vt 0.9912971 0.9333475
vt 0.9912971 0.771342
vt 0.986144 0.9333475
vt 0.9809908 0.771342
vt 0.9809908 0.9333475
vt 0.9758377 0.771342
vt 0.9758377 0.9333475
vt 0.9706845 0.771342
vt 0.9706845 0.9333475
vt 0.9655314 0.771342
vt 0.9655314 0.9333475
vt 0.9603783 0.771342
vt 0.9603783 0.9333475
vt 0.9552251 0.771342
vt 0.9552251 0.9333475
vt 0.950072 0.771342
vt 0.950072 0.9333475
vt 0.9863594 0.7535469
vt 0.9863594 0.7093602
vt 0.981912 0.7093602
vt 0.981912 0.7535469
vt 0.9774647 0.7093602
vt 0.9774647 0.7535469
vt 0.9730173 0.7093602
vt 0.9730173 0.7535469
vt 0.9685701 0.7093602
vt 0.9685701 0.7535469
vt 0.9641228 0.7093602
vt 0.9641228 0.7535469
vt 0.9596756 0.7093602
vt 0.9596756 0.7535469
vt 0.9552283 0.7093602
vt 0.9552283 0.7535469
vt 0.950781 0.7093602
vt 0.950781 0.7535469
vt 0.9790173 0.9486749
vt 0.9821593 0.9857719
vt 0.9821593 0.9486749
vt 0.9790173 0.9857719
vt 0.9758755 0.9486749
vt 0.9758755 0.9857719
vt 0.9727336 0.9486749
vt 0.9727336 0.9857719
vt 0.9695917 0.9486749
vt 0.9695917 0.9857719
vt 0.9664498 0.9486749
vt 0.9664498 0.9857719
vt 0.9633078 0.9486749
vt 0.9633078 0.9857719
vt 0.960166 0.9486749
vt 0.960166 0.9857719
vt 0.9570241 0.9486749
vt 0.9570241 0.9857719
vt 0.1146256 0.6828772
vt 0.1021114 0.6526657
vt 0.0719003 0.6828772
vt 0.1021114 0.7130886
vt 0.0719003 0.6401518
vt 0.0719003 0.7256026
vt 0.04168874 0.6526657
vt 0.04168874 0.7130886
vt 0.02917471 0.6828772
vt 0.0538381 0.8328186
vt 0.0731613 0.8408225
vt 0.0731613 0.8134958
vt 0.04583406 0.8134954
vt 0.0924845 0.8328186
vt 0.0538381 0.7941722
vt 0.1004885 0.8134954
vt 0.0731613 0.7861683
vt 0.0924845 0.7941722
vt 0.1310234 0.6828768
vt 0.1229249 0.6828762
vt 0.10798 0.7189564
vt 0.1137065 0.6410698
vt 0.1137067 0.7246829
vt 0.10798 0.6467959
vt 0.07190003 0.733899
vt 0.07190003 0.6237544
vt 0.07190003 0.7420019
vt 0.07190003 0.6318491
vt 0.03581977 0.7189565
vt 0.03009322 0.6410698
vt 0.03009322 0.7246829
vt 0.03581977 0.6467959
vt 0.02087479 0.6828763
vt 0.01277631 0.6828762
vt 0.0731613 0.7543719
vt 0.0731613 0.7774472
vt 0.09865096 0.7880058
vt 0.1149678 0.7716888
vt 0.03135458 0.7716888
vt 0.1092093 0.8134952
vt 0.04767138 0.7880057
vt 0.1322846 0.8134954
vt 0.01403759 0.8134954
vt 0.09865096 0.8389852
vt 0.03711304 0.8134954
vt 0.1149677 0.855302
vt 0.03135458 0.8553022
vt 0.0731613 0.8495433
vt 0.04767138 0.8389851
vt 0.0731613 0.872619
vn 0 0 1
vn 0.7071065 0 0.707107
vn 0.7071065 0 0.707107
vn 0 0 1
vn -0.7071068 0 0.7071066
vn -0.7071068 0 0.7071066
vn -1 0 0
vn -1 0 0
vn -0.7071068 0 -0.7071066
vn -0.7071068 0 -0.7071066
vn 0 0 -1
vn 0 0 -1
vn 0.7071065 0 -0.707107
vn 0.7071065 0 -0.707107
vn 1 0 0
vn 1 0 0
vn 0.7071065 0 0.707107
vn 0.7071065 0 0.707107
vn 0.707107 0 0.7071065
vn 0.707107 0 0.7071065
vn 0 0 1
vn 0 0 1
vn -0.707107 0 0.7071065
vn -0.707107 0 0.7071065
vn -1 0 0
vn -1 0 0
vn -0.7071071 0 -0.7071064
vn -0.7071071 0 -0.7071064
vn 0 0 -1
vn 0 0 -1
vn 0.7071071 0 -0.7071064
vn 0.7071071 0 -0.7071064
vn 1 0 0
vn 1 0 0
vn 0.707107 0 0.7071065
vn 0.707107 0 0.7071065
vn -1.865551E-07 0 1
vn 0.7071066 0 0.7071069
vn 0.7071066 0 0.7071069
vn -1.865551E-07 0 1
vn -0.707107 0 0.7071065
vn -0.707107 0 0.7071065
vn -1 0 0
vn -1 0 0
vn -0.707107 0 -0.7071065
vn -0.707107 0 -0.7071065
vn 0 0 -1
vn 0 0 -1
vn 0.7071066 0 -0.7071069
vn 0.7071066 0 -0.7071069
vn 1 0 0
vn 1 0 0
vn 0.7071066 0 0.7071069
vn 0.7071066 0 0.7071069
vn 0 -1 0
vn 0 -1 0
vn 0 -1 0
vn 0 -1 0
vn 0 -1 0
vn 0 -1 0
vn 0 -1 0
vn 0 -1 0
vn 0 -1 0
vn 1.272725E-06 1 1.20103E-06
vn 1.799905E-06 1 1.20103E-06
vn 0 1 1.000771E-06
vn 0 1 0
vn 1.272725E-06 1 0
vn -1.272725E-06 1 2.40206E-06
vn 0 1 3.999913E-07
vn -1.799904E-06 1 2.402059E-06
vn -1.272725E-06 1 3.999912E-07
vn 0 -1 8.747891E-07
vn 0 -1 8.74789E-07
vn 0 -1 2.624364E-06
vn 0 -1 -1.749578E-06
vn 0 -1 2.62436E-06
vn 0 -1 -1.749579E-06
vn 0 -1 -8.747862E-07
vn 0 -1 8.747894E-07
vn 0 -1 -8.747861E-07
vn 0 -1 8.747894E-07
vn 0 -1 -2.624364E-06
vn 0 -1 3.499158E-06
vn 0 -1 -2.624362E-06
vn 0 -1 3.499158E-06
vn 0 -1 8.747891E-07
vn 0 -1 8.747894E-07
vn 0 1 0
vn 0 1 0
vn 0 1 0
vn 0 1 0
vn 0 1 3.69298E-07
vn 0 1 3.692985E-07
vn 0 1 3.692985E-07
vn 0 1 3.692983E-07
vn 0 1 1.079951E-06
vn 0 1 3.692984E-07
vn 0 1 1.079951E-06
vn 0 1 3.692984E-07
vn 0 1 7.106522E-07
vn 0 1 0
vn 0 1 7.106521E-07
vn 0 1 0
g Egg_Connect_0
f 3/3/3 2/2/2 1/1/1
f 2/2/2 4/4/4 1/1/1
f 1/1/1 4/4/4 5/5/5
f 4/4/4 6/6/6 5/5/5
f 5/5/5 6/6/6 7/7/7
f 6/6/6 8/8/8 7/7/7
f 7/7/7 8/8/8 9/9/9
f 8/8/8 10/10/10 9/9/9
f 9/9/9 10/10/10 11/11/11
f 10/10/10 12/12/12 11/11/11
f 11/11/11 12/12/12 13/13/13
f 12/12/12 14/14/14 13/13/13
f 13/13/13 14/14/14 15/15/15
f 14/14/14 16/16/16 15/15/15
f 15/15/15 16/16/16 17/17/17
f 16/16/16 18/18/18 17/17/17
f 21/21/21 20/20/20 19/19/19
f 22/22/22 21/21/21 19/19/19
f 23/23/23 21/21/21 22/22/22
f 24/24/24 23/23/23 22/22/22
f 25/25/25 23/23/23 24/24/24
f 26/26/26 25/25/25 24/24/24
f 27/27/27 25/25/25 26/26/26
f 28/28/28 27/27/27 26/26/26
f 29/29/29 27/27/27 28/28/28
f 30/30/30 29/29/29 28/28/28
f 31/31/31 29/29/29 30/30/30
f 32/32/32 31/31/31 30/30/30
f 33/33/33 31/31/31 32/32/32
f 34/34/34 33/33/33 32/32/32
f 35/35/35 33/33/33 34/34/34
f 36/36/36 35/35/35 34/34/34
f 39/39/39 38/38/38 37/37/37
f 38/38/38 40/40/40 37/37/37
f 37/37/37 40/40/40 41/41/41
f 40/40/40 42/42/42 41/41/41
f 41/41/41 42/42/42 43/43/43
f 42/42/42 44/44/44 43/43/43
f 43/43/43 44/44/44 45/45/45
f 44/44/44 46/46/46 45/45/45
f 45/45/45 46/46/46 47/47/47
f 46/46/46 48/48/48 47/47/47
f 47/47/47 48/48/48 49/49/49
f 48/48/48 50/50/50 49/49/49
f 49/49/49 50/50/50 51/51/51
f 50/50/50 52/52/52 51/51/51
f 51/51/51 52/52/52 53/53/53
f 52/52/52 54/54/54 53/53/53
f 57/57/57 56/56/56 55/55/55
f 57/57/57 55/55/55 58/58/58
f 59/59/59 56/56/56 57/57/57
f 57/57/57 58/58/58 60/60/60
f 61/61/61 59/59/59 57/57/57
f 57/57/57 60/60/60 62/62/62
f 63/63/63 61/61/61 57/57/57
f 63/63/63 57/57/57 62/62/62
f 66/66/66 65/65/65 64/64/64
f 66/66/66 64/64/64 67/67/67
f 68/68/68 65/65/65 66/66/66
f 66/66/66 67/67/67 69/69/69
f 70/70/70 68/68/68 66/66/66
f 66/66/66 69/69/69 71/71/71
f 72/72/72 70/70/70 66/66/66
f 72/72/72 66/66/66 71/71/71
f 75/75/75 74/74/74 73/73/73
f 73/73/73 74/74/74 76/76/76
f 77/77/77 75/75/75 73/73/73
f 74/74/74 78/78/78 76/76/76
f 79/79/79 75/75/75 77/77/77
f 76/76/76 78/78/78 80/80/80
f 81/81/81 79/79/79 77/77/77
f 78/78/78 82/82/82 80/80/80
f 83/83/83 79/79/79 81/81/81
f 80/80/80 82/82/82 84/84/84
f 85/85/85 83/83/83 81/81/81
f 82/82/82 86/86/86 84/84/84
f 87/87/87 83/83/83 85/85/85
f 84/84/84 86/86/86 88/88/88
f 88/88/88 87/87/87 85/85/85
f 86/86/86 87/87/87 88/88/88
f 91/91/91 90/90/90 89/89/89
f 92/92/92 91/91/91 89/89/89
f 89/89/89 90/90/90 93/93/93
f 94/94/94 91/91/91 92/92/92
f 90/90/90 95/95/95 93/93/93
f 96/96/96 94/94/94 92/92/92
f 93/93/93 95/95/95 97/97/97
f 98/98/98 94/94/94 96/96/96
f 95/95/95 99/99/99 97/97/97
f 100/100/100 98/98/98 96/96/96
f 97/97/97 99/99/99 101/101/101
f 102/102/102 98/98/98 100/100/100
f 99/99/99 103/103/103 101/101/101
f 104/104/104 102/102/102 100/100/100
f 101/101/101 103/103/103 104/104/104
f 103/103/103 102/102/102 104/104/104
