g ElectricBolt
v -0.6623108 0.105592 11.8647
v -0.6623104 -0.05558383 10.85317
v -0.6623102 -0.5153234 10.80167
v -0.6623104 -0.05558383 10.85317
v -1.034475 0.9802265 10.03854
v -1.034475 0.5322179 10.07396
v -0.6623102 -0.5153234 10.80167
v -1.034475 0.9802265 10.03854
v -0.2958813 -0.9266843 9.362663
v -0.2958816 -1.477632 9.361265
v -1.034475 0.5322179 10.07396
v -0.2958813 -0.9266843 9.362663
v -1.134806 0.9042909 8.706143
v -1.134807 0.5461175 8.660624
v -0.2958816 -1.477632 9.361265
v -0.6004481 -0.7111297 7.428227
v -1.134807 0.5461175 8.660624
v -1.134806 0.9042909 8.706143
v -0.5998362 -0.3534257 7.513518
v -0.5998362 -0.3534257 7.513518
v -1.201815 2.133491 7.275234
v -1.203753 1.749512 7.177511
v -0.6004481 -0.7111297 7.428227
v -0.5818328 0.8129864 6.567042
v -1.203753 1.749512 7.177511
v -1.201815 2.133491 7.275234
v -0.5827829 1.174084 6.489811
v -0.5827829 1.174084 6.489811
v -0.9498147 -1.152821 5.928388
v -0.9489915 -1.790249 5.982352
v -0.5818328 0.8129864 6.567042
v -0.9498147 -1.152821 5.928388
v -0.2540303 0.3834103 5.444463
v -0.25403 0.007406116 5.444463
v -0.9489915 -1.790249 5.982352
v -0.2540303 0.3834103 5.444463
v -0.6207172 -0.2775012 4.677195
v -0.618914 -0.7583693 4.564954
v -0.25403 0.007406116 5.444463
v -0.6207172 -0.2775012 4.677195
v 0.04174435 2.248741 3.840551
v 0.04166448 1.786665 3.813334
v -0.618914 -0.7583693 4.564954
v 0.04174435 2.248741 3.840551
v -0.6705655 -0.4437236 2.545091
v -0.6712026 -0.8086917 2.556731
v 0.04166448 1.786665 3.813334
v -0.6705655 -0.4437236 2.545091
v 0.4745109 0.7235923 1.359663
v 0.4751568 0.4597555 1.370144
v -0.6712026 -0.8086917 2.556731
v 0.4745109 0.7235923 1.359663
v -0.3403278 -0.1411211 0.5870945
v -0.3392454 -0.2761146 0.578106
v 0.4751568 0.4597555 1.370144
v -0.3403278 -0.1411211 0.5870945
v 4.36306E-05 0.04929387 0.05234479
v 0 -0.05088687 1.330382E-06
v -0.3392454 -0.2761146 0.578106
vt 0.9899999 0.5970151
vt 0.9625836 0
vt 0.9625836 1
vt 0.9625836 0
vt 0.8943208 0
vt 0.8943208 1
vt 0.9625836 1
vt 0.8943208 0
vt 0.8328639 0
vt 0.8328639 1
vt 0.8943208 1
vt 0.8328639 0
vt 0.7857572 0
vt 0.7857572 1
vt 0.8328639 1
vt 0.6628409 1
vt 0.7857572 1
vt 0.7857572 0
vt 0.6628409 0
vt 0.6628409 0
vt 0.6378407 0
vt 0.6378407 1
vt 0.6628409 1
vt 0.573126 1
vt 0.6378407 1
vt 0.6378407 0
vt 0.573126 0
vt 0.573126 0
vt 0.5324451 0
vt 0.5324451 1
vt 0.573126 1
vt 0.5324451 0
vt 0.4860927 0
vt 0.4860927 1
vt 0.5324451 1
vt 0.4860927 0
vt 0.4172966 0
vt 0.4172966 1
vt 0.4860927 1
vt 0.4172966 0
vt 0.3494198 0
vt 0.3494198 1
vt 0.4172966 1
vt 0.3494198 0
vt 0.2388647 0
vt 0.2388647 1
vt 0.3494198 1
vt 0.2388647 0
vt 0.1461905 0
vt 0.1461905 1
vt 0.2388647 1
vt 0.1461905 0
vt 0.07916345 0
vt 0.07916345 1
vt 0.1461905 1
vt 0.07916345 0
vt 0.01245438 0
vt 0.01245438 1
vt 0.07916345 1
vn 1 0 0
vn 1 0 0
vn 1 0 0
vn 0.9045385 0.007552844 -0.426325
vn 0.9045385 0.007552844 -0.4263249
vn 0.9045385 0.007552844 -0.426325
vn 0.9045385 0.007552844 -0.426325
vn 0.7173824 0.02371396 0.6962759
vn 0.7173823 0.02371395 0.6962759
vn 0.7173824 0.02371396 0.6962759
vn 0.7173823 0.02371396 0.696276
vn 0.6795166 0.03781212 -0.732685
vn 0.6795166 0.03781212 -0.732685
vn 0.6795167 0.03781212 -0.732685
vn 0.6795167 0.03781212 -0.732685
vn 0.8746108 -0.08787173 0.4767961
vn 0.8746108 -0.08787173 0.4767961
vn 0.8746108 -0.08787173 0.4767961
vn 0.8746108 -0.08787174 0.4767962
vn 0.8055771 0.1393304 -0.5758753
vn 0.8055772 0.1393305 -0.5758753
vn 0.8055772 0.1393305 -0.5758753
vn 0.8055772 0.1393305 -0.5758753
vn 0.7338213 -0.01964991 0.6790584
vn 0.7338213 -0.01964991 0.6790584
vn 0.7338213 -0.01964991 0.6790584
vn 0.7338213 -0.01964991 0.6790584
vn 0.9228073 -0.04857603 -0.3821872
vn 0.9228073 -0.04857603 -0.3821872
vn 0.9228073 -0.04857603 -0.3821872
vn 0.9228073 -0.04857603 -0.3821872
vn 0.5176526 0.0459138 0.8543581
vn 0.5176526 0.04591379 0.8543581
vn 0.5176526 0.0459138 0.8543581
vn 0.5176526 0.0459138 0.8543582
vn 0.8916481 0.06064488 -0.4486489
vn 0.8916481 0.06064487 -0.4486489
vn 0.8916481 0.06064487 -0.4486489
vn 0.8916481 0.06064487 -0.4486489
vn 0.8666398 -0.07144682 0.4937923
vn 0.8666398 -0.07144683 0.4937923
vn 0.8666398 -0.07144682 0.4937923
vn 0.8666398 -0.07144683 0.4937923
vn 0.8652794 0.008690644 -0.5012144
vn 0.8652795 0.008690643 -0.5012144
vn 0.8652794 0.008690643 -0.5012144
vn 0.8652794 0.008690643 -0.5012144
vn 0.7060929 0.02490535 0.7076811
vn 0.7060929 0.02490535 0.7076811
vn 0.7060929 0.02490534 0.7076811
vn 0.7060929 0.02490535 0.7076811
vn 0.6925012 0.0003012358 -0.7214167
vn 0.6925012 0.0003012358 -0.7214167
vn 0.6925012 0.0003012358 -0.7214167
vn 0.6925012 0.0003012358 -0.7214167
vn 0.8666965 -0.1222949 0.4836127
vn 0.8666964 -0.1222949 0.4836127
vn 0.8666964 -0.1222949 0.4836127
vn 0.8666965 -0.1222949 0.4836127
g ElectricBolt_0
f 3/3/3 2/2/2 1/1/1
f 6/6/6 5/5/5 4/4/4
f 7/7/7 6/6/6 4/4/4
f 10/10/10 9/9/9 8/8/8
f 11/11/11 10/10/10 8/8/8
f 14/14/14 13/13/13 12/12/12
f 15/15/15 14/14/14 12/12/12
f 18/18/18 17/17/17 16/16/16
f 19/19/19 18/18/18 16/16/16
f 22/22/22 21/21/21 20/20/20
f 23/23/23 22/22/22 20/20/20
f 26/26/26 25/25/25 24/24/24
f 27/27/27 26/26/26 24/24/24
f 30/30/30 29/29/29 28/28/28
f 31/31/31 30/30/30 28/28/28
f 34/34/34 33/33/33 32/32/32
f 35/35/35 34/34/34 32/32/32
f 38/38/38 37/37/37 36/36/36
f 39/39/39 38/38/38 36/36/36
f 42/42/42 41/41/41 40/40/40
f 43/43/43 42/42/42 40/40/40
f 46/46/46 45/45/45 44/44/44
f 47/47/47 46/46/46 44/44/44
f 50/50/50 49/49/49 48/48/48
f 51/51/51 50/50/50 48/48/48
f 54/54/54 53/53/53 52/52/52
f 55/55/55 54/54/54 52/52/52
f 58/58/58 57/57/57 56/56/56
f 59/59/59 58/58/58 56/56/56
