g EngineGlow
v 5.500875E-09 -1.129161E-08 -0.01821532
v 0.1275 0.2208365 0.03643062
v 8.395975E-09 0.255 0.0364306
v 0.2208365 0.1275 0.03643065
v -0.1275002 0.2208363 0.03643059
v 0.255 3.850393E-08 0.03643069
v -0.2208366 0.1274998 0.03643059
v 0.2208365 -0.1274999 0.03643071
v -0.255 -1.986013E-07 0.03643061
v 0.1275001 -0.2208364 0.03643071
v -0.2208364 -0.1275001 0.03643065
v 1.158022E-07 -0.255 0.0364307
v -0.1274999 -0.2208365 0.03643068
vt 0.5 0.5
vt 0.2912501 0.8615656
vt 0.5000001 0.9175
vt 0.1384345 0.7087501
vt 0.7087504 0.8615653
vt 0.08250001 0.5000001
vt 0.8615658 0.7087496
vt 0.1384343 0.2912502
vt 0.9175 0.4999996
vt 0.2912498 0.1384345
vt 0.8615655 0.2912496
vt 0.4999997 0.08249998
vt 0.7087497 0.1384342
vn 0 0 -1
vn 0.1047704 0.1814672 -0.9778
vn 0 0.2095403 -0.9778
vn 0.1814676 0.10477 -0.9778
vn -0.1047702 0.1814671 -0.9778
vn 0.2095407 0 -0.9777999
vn -0.1814673 0.1047699 -0.9778
vn 0.1814676 -0.1047704 -0.9777999
vn -0.2095404 0 -0.9778
vn 0.1047705 -0.1814675 -0.9777999
vn -0.1814672 -0.1047706 -0.9778
vn 0 -0.2095407 -0.9777999
vn -0.10477 -0.1814677 -0.9777999
g EngineGlow_0
f 3/3/3 2/2/2 1/1/1
f 2/2/2 4/4/4 1/1/1
f 5/5/5 3/3/3 1/1/1
f 4/4/4 6/6/6 1/1/1
f 7/7/7 5/5/5 1/1/1
f 6/6/6 8/8/8 1/1/1
f 9/9/9 7/7/7 1/1/1
f 8/8/8 10/10/10 1/1/1
f 11/11/11 9/9/9 1/1/1
f 10/10/10 12/12/12 1/1/1
f 13/13/13 11/11/11 1/1/1
f 12/12/12 13/13/13 1/1/1
