g Flag_A_Lego
v -1.788139E-09 3.04 2.189839E-25
v 0.03039997 3.022192 -0.03040004
v 0.03039997 3.022192 0.03039993
v -1.788139E-09 3.04 2.189839E-25
v -0.03039997 3.022192 0.0303999
v -0.03039997 3.022192 -0.03040006
v -1.788139E-09 0.2431999 0.1215999
v 0.1053085 0.2431999 0.06079993
v 0.1053085 0.1215999 0.06079993
v -1.788139E-09 0.1215999 0.1215999
v -0.1053087 0.1215999 0.06079991
v -0.1053087 0.2431999 0.06079991
v -0.1053087 0.1215999 -0.06080006
v -0.1053087 0.2431999 -0.06080006
v -1.788139E-09 0.2431999 -0.1216
v -1.788139E-09 0.1215999 -0.1216
v 0.1053087 0.1215999 -0.06080006
v 0.1053087 0.2431999 -0.06080006
v 0.1053085 0.1215999 0.06079993
v 0.1053085 0.2431999 0.06079993
v -0.05265436 0.6079997 0.03039993
v -1.788139E-09 0.6079997 0.06079993
v -1.788139E-09 0.2431999 0.06079993
v -0.05265436 0.2431999 0.03039993
v -1.788139E-09 0.6079997 0.06079993
v 0.05265436 0.6079997 0.03039993
v 0.05265436 0.2431999 0.03039993
v -1.788139E-09 0.2431999 0.06079993
v 0.05265436 0.6079997 0.03039993
v 0.05265436 0.6079997 -0.03040006
v 0.05265436 0.2431999 -0.03040006
v 0.05265436 0.2431999 0.03039993
v 0.05265436 0.6079997 -0.03040006
v -1.788139E-09 0.6079997 -0.06080006
v -1.788139E-09 0.2431999 -0.06080006
v 0.05265436 0.2431999 -0.03040006
v -1.788139E-09 0.6079997 -0.06080006
v -0.05265436 0.6079997 -0.03040006
v -0.05265436 0.2431999 -0.03040006
v -1.788139E-09 0.2431999 -0.06080006
v -0.05265436 0.6079997 -0.03040006
v -0.05265436 0.6079997 0.03039993
v -0.05265436 0.2431999 0.03039993
v -0.05265436 0.2431999 -0.03040006
v -0.02687005 2.933006 0.02686998
v -1.788139E-09 2.933006 0.03799994
v -1.788139E-09 0.6307999 0.03799993
v -0.02687005 0.6307999 0.02686998
v -1.788139E-09 2.933006 0.03799994
v 0.02687005 2.933006 0.02686998
v 0.02687005 0.6307999 0.02686998
v -1.788139E-09 0.6307999 0.03799993
v 0.02687005 2.933006 0.02686998
v 0.02687005 2.933006 -0.02687012
v 0.02687005 0.6307999 -0.02687012
v 0.02687005 0.6307999 0.02686998
v 0.02687005 2.933006 -0.02687012
v -1.788139E-09 2.933006 -0.03800007
v -1.788139E-09 0.6307999 -0.03800007
v 0.02687005 0.6307999 -0.02687012
v -1.788139E-09 2.933006 -0.03800007
v -0.02687005 2.933006 -0.02687012
v -0.02687005 0.6307999 -0.02687013
v -1.788139E-09 0.6307999 -0.03800007
v -0.02687005 2.933006 -0.02687012
v -0.02687005 2.933006 0.02686998
v -0.02687005 0.6307999 0.02686998
v -0.02687005 0.6307999 -0.02687013
v 0.02687005 0.6307999 0.02686998
v 0.05265436 0.6079997 0.03039993
v -1.788139E-09 0.6079997 0.06079993
v -1.788139E-09 0.6307999 0.03799993
v 0.02687005 0.6307999 -0.02687012
v 0.05265436 0.6079997 -0.03040006
v 0.05265436 0.6079997 0.03039993
v 0.02687005 0.6307999 0.02686998
v -0.05265436 0.6079997 0.03039993
v -0.02687005 0.6307999 0.02686998
v -1.788139E-09 0.6307999 0.03799993
v -1.788139E-09 0.6079997 0.06079993
v -0.05265436 0.6079997 -0.03040006
v -0.02687005 0.6307999 -0.02687013
v -0.02687005 0.6307999 0.02686998
v -0.05265436 0.6079997 0.03039993
v -1.788139E-09 0.6079997 -0.06080006
v -1.788139E-09 0.6307999 -0.03800007
v -0.02687005 0.6307999 -0.02687013
v -0.05265436 0.6079997 -0.03040006
v 0.05265436 0.6079997 -0.03040006
v 0.02687005 0.6307999 -0.02687012
v -1.788139E-09 0.6307999 -0.03800007
v -1.788139E-09 0.6079997 -0.06080006
v -0.7524038 2.652407 0.02849993
v -0.76 2.6752 0.02849993
v -0.7524042 2.697993 0.02849993
v -0.732659 2.711676 0.02849993
v -0.732659 2.638724 0.02849991
v -0.02293497 2.919042 0.02849993
v -0.02293497 2.431358 0.02849991
v -0.732659 2.638724 -0.02850007
v -0.02687005 2.432508 -0.02687013
v -0.02293497 2.919042 -0.02850007
v -0.732659 2.711676 -0.02850007
v -0.7524038 2.652407 -0.02850007
v -0.7524042 2.697993 -0.02850007
v -0.76 2.6752 -0.02850007
v -0.732659 2.711676 0.02849993
v -0.732659 2.711676 -0.02850007
v -0.02293497 2.919042 -0.02850007
v -0.02293497 2.919042 0.02849993
v -0.02687005 2.432508 -0.02687013
v -0.732659 2.638724 -0.02850007
v -0.732659 2.638724 0.02849991
v -0.02293497 2.431358 0.02849991
v -0.732659 2.638724 -0.02850007
v -0.7524038 2.652407 -0.02850007
v -0.7524038 2.652407 0.02849993
v -0.732659 2.638724 0.02849991
v -0.7524038 2.652407 -0.02850007
v -0.76 2.6752 -0.02850007
v -0.76 2.6752 0.02849993
v -0.7524038 2.652407 0.02849993
v -0.76 2.6752 -0.02850007
v -0.7524042 2.697993 -0.02850007
v -0.7524042 2.697993 0.02849993
v -0.76 2.6752 0.02849993
v -0.7524042 2.697993 -0.02850007
v -0.732659 2.711676 -0.02850007
v -0.732659 2.711676 0.02849993
v -0.7524042 2.697993 0.02849993
v 0.03971953 2.955933 0.03971944
v 0.02687005 2.933006 0.02686998
v -1.788139E-09 2.933006 0.03799994
v -1.788139E-09 2.955933 0.0561718
v 0.04299197 2.9792 0.04299201
v 0.03971953 2.955933 0.03971944
v -1.788139E-09 2.955933 0.0561718
v -1.788139E-09 2.9792 0.06079995
v 0.03039997 3.022192 0.03039993
v 0.04299197 2.9792 0.04299201
v -1.788139E-09 2.9792 0.06079995
v -1.788139E-09 3.022192 0.042992
v -1.788139E-09 3.022192 0.042992
v -0.03039997 3.022192 0.0303999
v -1.788139E-09 3.04 2.189839E-25
v 0.03039997 3.022192 0.03039993
v 0.03971953 2.955933 0.03971944
v 0.03971953 2.955933 -0.0397196
v 0.02687005 2.933006 -0.02687012
v 0.02687005 2.933006 0.02686998
v 0.04299197 2.9792 0.04299201
v 0.04299215 2.9792 -0.04299213
v 0.03971953 2.955933 -0.0397196
v 0.03971953 2.955933 0.03971944
v 0.03039997 3.022192 0.03039993
v 0.03039997 3.022192 -0.03040004
v 0.04299215 2.9792 -0.04299213
v 0.04299197 2.9792 0.04299201
v 0.02687005 2.933006 -0.02687012
v 0.03971953 2.955933 -0.0397196
v -1.788139E-09 2.955933 -0.05617194
v -1.788139E-09 2.933006 -0.03800007
v -1.788139E-09 2.9792 -0.06080008
v -1.788139E-09 2.955933 -0.05617194
v 0.03971953 2.955933 -0.0397196
v 0.04299215 2.9792 -0.04299213
v 0.04299215 2.9792 -0.04299213
v 0.03039997 3.022192 -0.03040004
v -1.788139E-09 3.022192 -0.04299216
v -1.788139E-09 2.9792 -0.06080008
v -1.788139E-09 3.04 2.189839E-25
v -0.03039997 3.022192 -0.03040006
v -1.788139E-09 3.022192 -0.04299216
v 0.03039997 3.022192 -0.03040004
v -0.03971954 2.955933 -0.03971957
v -0.02687005 2.933006 -0.02687012
v -1.788139E-09 2.933006 -0.03800007
v -1.788139E-09 2.955933 -0.05617194
v -0.04299215 2.9792 -0.04299216
v -0.03971954 2.955933 -0.03971957
v -1.788139E-09 2.955933 -0.05617194
v -1.788139E-09 2.9792 -0.06080008
v -0.03039997 3.022192 -0.03040006
v -0.04299215 2.9792 -0.04299216
v -1.788139E-09 2.9792 -0.06080008
v -1.788139E-09 3.022192 -0.04299216
v -0.03971954 2.955933 -0.03971957
v -0.03971954 2.955933 0.03971946
v -0.02687005 2.933006 0.02686998
v -0.02687005 2.933006 -0.02687012
v -0.04299215 2.9792 -0.04299216
v -0.04299215 2.9792 0.042992
v -0.03971954 2.955933 0.03971946
v -0.03971954 2.955933 -0.03971957
v -0.03039997 3.022192 -0.03040006
v -0.03039997 3.022192 0.0303999
v -0.04299215 2.9792 0.042992
v -0.04299215 2.9792 -0.04299216
v -0.02687005 2.933006 0.02686998
v -0.03971954 2.955933 0.03971946
v -1.788139E-09 2.955933 0.0561718
v -1.788139E-09 2.933006 0.03799994
v -1.788139E-09 2.9792 0.06079995
v -1.788139E-09 2.955933 0.0561718
v -0.03971954 2.955933 0.03971946
v -0.04299215 2.9792 0.042992
v -0.04299215 2.9792 0.042992
v -0.03039997 3.022192 0.0303999
v -1.788139E-09 3.022192 0.042992
v -1.788139E-09 2.9792 0.06079995
v -0.3040003 0.1216 -0.304
v 0.3039999 0.1216 -0.304
v 0.3039999 0.1216 0.304
v -0.3040003 0.1216 0.304
v 0.3039997 0.019 0.304
v 0.3039999 0.1216 0.304
v 0.3039999 0.1216 -0.304
v 0.3039997 0.019 -0.304
v 0.3039997 0.019 -0.304
v 0.3039999 0.1216 -0.304
v -0.3040003 0.1216 -0.304
v -0.3040003 0.019 -0.304
v -0.3040003 0.019 0.304
v -0.3040003 0.1216 0.304
v 0.3039999 0.1216 0.304
v 0.3039997 0.019 0.304
v -0.3040003 0.019 -0.304
v -0.3040003 0.1216 -0.304
v -0.3040003 0.1216 0.304
v -0.3040003 0.019 0.304
v -1.788139E-09 0.2431999 -0.1216
v -1.788139E-09 0.2431999 -0.06080006
v -0.05265436 0.2431999 -0.03040006
v -0.1053087 0.2431999 -0.06080006
v 0.1053087 0.2431999 -0.06080006
v -0.05265436 0.2431999 0.03039993
v 0.05265436 0.2431999 -0.03040006
v -0.1053087 0.2431999 0.06079991
v 0.1053085 0.2431999 0.06079993
v -1.788139E-09 0.2431999 0.06079993
v 0.05265436 0.2431999 0.03039993
v -1.788139E-09 0.2431999 0.1215999
vt 0.555061 0.9656134
vt 0.5601699 0.9603854
vt 0.5499509 0.9603866
vt 0.555061 0.9656134
vt 0.5499521 0.9708412
vt 0.5601712 0.9708401
vt 0.7725132 0.5208309
vt 0.7941928 0.5208316
vt 0.7941936 0.4991523
vt 0.7725141 0.4991513
vt 0.7508346 0.4991504
vt 0.7508337 0.5208301
vt 0.7291551 0.4991496
vt 0.7291541 0.5208291
vt 0.7074746 0.5208283
vt 0.7074754 0.4991487
vt 0.6857958 0.4991479
vt 0.6857949 0.5208274
vt 0.6641163 0.4991471
vt 0.6641155 0.5208267
vt 0.8312567 0.9626225
vt 0.831256 0.9770537
vt 0.917843 0.9770584
vt 0.9178438 0.9626272
vt 0.831256 0.9770537
vt 0.8312553 0.9914849
vt 0.9178423 0.9914895
vt 0.917843 0.9770584
vt 0.8312598 0.9048979
vt 0.8312591 0.919329
vt 0.9178461 0.9193336
vt 0.9178468 0.9049025
vt 0.8312591 0.919329
vt 0.8312583 0.9337602
vt 0.9178452 0.9337648
vt 0.9178461 0.9193336
vt 0.8312583 0.9337602
vt 0.8312576 0.9481913
vt 0.9178445 0.948196
vt 0.9178452 0.9337648
vt 0.8312576 0.9481913
vt 0.8312567 0.9626225
vt 0.9178438 0.9626272
vt 0.9178445 0.948196
vt 0.9756806 0.9947286
vt 0.9827577 0.9947286
vt 0.9827577 0.434525
vt 0.9756806 0.434525
vt 0.9827577 0.9947286
vt 0.9898348 0.9947286
vt 0.9898348 0.434525
vt 0.9827577 0.434525
vt 0.9353729 0.9947286
vt 0.9484497 0.9947286
vt 0.9484497 0.434525
vt 0.9353729 0.434525
vt 0.9484497 0.9947286
vt 0.9555268 0.9947286
vt 0.9555268 0.434525
vt 0.9484497 0.434525
vt 0.9555268 0.9947286
vt 0.9626039 0.9947286
vt 0.9626039 0.434525
vt 0.9555268 0.434525
vt 0.9626039 0.9947286
vt 0.9756806 0.9947286
vt 0.9756806 0.434525
vt 0.9626039 0.434525
vt 0.8324593 0.8891328
vt 0.8256451 0.8870478
vt 0.8323507 0.8999874
vt 0.8359839 0.8939111
vt 0.8381849 0.8798581
vt 0.8328653 0.8747
vt 0.8256451 0.8870478
vt 0.8324593 0.8891328
vt 0.8471476 0.8999978
vt 0.8418346 0.8948326
vt 0.8359839 0.8939111
vt 0.8323507 0.8999874
vt 0.8543994 0.8876458
vt 0.8475885 0.8855589
vt 0.8418346 0.8948326
vt 0.8471476 0.8999978
vt 0.8476723 0.8746969
vt 0.8440496 0.8807781
vt 0.8475885 0.8855589
vt 0.8543994 0.8876458
vt 0.8328653 0.8747
vt 0.8381849 0.8798581
vt 0.8440496 0.8807781
vt 0.8476723 0.8746969
vt 0.912146 0.01577369
vt 0.9038386 0.01300353
vt 0.8955303 0.01577094
vt 0.8905415 0.02296716
vt 0.9171325 0.02297139
vt 0.8149155 0.2816477
vt 0.9926752 0.2816763
vt 0.808347 0.2692102
vt 0.881556 0.01104519
vt 0.7039903 0.01102084
vt 0.7817242 0.2694218
vt 0.8034105 0.2764555
vt 0.7867751 0.2765877
vt 0.7951148 0.2792937
vt 0.9253976 0.6961714
vt 0.9100724 0.6961714
vt 0.9100724 0.8978512
vt 0.9253976 0.8978512
vt 0.9100724 0.4688394
vt 0.9100724 0.66996
vt 0.9253976 0.66996
vt 0.9253976 0.4688394
vt 0.9100724 0.66996
vt 0.9100724 0.6765127
vt 0.9253976 0.6765127
vt 0.9253976 0.66996
vt 0.9100724 0.6765127
vt 0.9100724 0.6830658
vt 0.9253976 0.6830658
vt 0.9253976 0.6765127
vt 0.9100724 0.6830658
vt 0.9100724 0.6896188
vt 0.9253976 0.6896188
vt 0.9253976 0.6830658
vt 0.9100724 0.6896188
vt 0.9100724 0.6961714
vt 0.9253976 0.6961714
vt 0.9253976 0.6896188
vt 0.7714756 0.4769319
vt 0.7714756 0.470659
vt 0.7631013 0.470659
vt 0.7631013 0.4769319
vt 0.7714756 0.4822757
vt 0.7714756 0.4769319
vt 0.7631013 0.4769319
vt 0.7631013 0.4822757
vt 0.7714756 0.4923193
vt 0.7714756 0.4822757
vt 0.7631013 0.4822757
vt 0.7631013 0.4923193
vt 0.5478209 0.9656142
vt 0.5499521 0.9708412
vt 0.555061 0.9656134
vt 0.5499509 0.9603866
vt 0.7074272 0.4769319
vt 0.722698 0.4769319
vt 0.722698 0.470659
vt 0.7074272 0.470659
vt 0.7074272 0.4822757
vt 0.722698 0.4822757
vt 0.722698 0.4769319
vt 0.7074272 0.4769319
vt 0.7074272 0.4923193
vt 0.722698 0.4923193
vt 0.722698 0.4822757
vt 0.7074272 0.4822757
vt 0.722698 0.470659
vt 0.722698 0.4769319
vt 0.7311743 0.4769319
vt 0.7311743 0.470659
vt 0.7311743 0.4822757
vt 0.7311743 0.4769319
vt 0.722698 0.4769319
vt 0.722698 0.4822757
vt 0.722698 0.4822757
vt 0.722698 0.4923193
vt 0.7311743 0.4923193
vt 0.7311743 0.4822757
vt 0.555061 0.9656134
vt 0.5601712 0.9708401
vt 0.5623012 0.9656125
vt 0.5601699 0.9603854
vt 0.7396205 0.4769319
vt 0.7396205 0.470659
vt 0.7311743 0.470659
vt 0.7311743 0.4769319
vt 0.7396205 0.4822757
vt 0.7396205 0.4769319
vt 0.7311743 0.4769319
vt 0.7311743 0.4822757
vt 0.7396205 0.4923193
vt 0.7396205 0.4822757
vt 0.7311743 0.4822757
vt 0.7311743 0.4923193
vt 0.7396205 0.4769319
vt 0.7546365 0.4769319
vt 0.7546365 0.470659
vt 0.7396205 0.470659
vt 0.7396205 0.4822757
vt 0.7546365 0.4822757
vt 0.7546365 0.4769319
vt 0.7396205 0.4769319
vt 0.7396205 0.4923193
vt 0.7546365 0.4923193
vt 0.7546365 0.4822757
vt 0.7396205 0.4822757
vt 0.7546365 0.470659
vt 0.7546365 0.4769319
vt 0.7631013 0.4769319
vt 0.7631013 0.470659
vt 0.7631013 0.4822757
vt 0.7631013 0.4769319
vt 0.7546365 0.4769319
vt 0.7546365 0.4822757
vt 0.7546365 0.4822757
vt 0.7546365 0.4923193
vt 0.7631013 0.4923193
vt 0.7631013 0.4822757
vt 0.8813545 0.8251104
vt 0.8813545 0.7090528
vt 0.7652968 0.7090528
vt 0.7652968 0.8251104
vt 0.752526 0.6962955
vt 0.7652968 0.7090528
vt 0.8813545 0.7090528
vt 0.8941006 0.6962955
vt 0.8941006 0.6962955
vt 0.8813545 0.7090528
vt 0.8813545 0.8251104
vt 0.8941006 0.8378702
vt 0.752526 0.8378702
vt 0.7652968 0.8251104
vt 0.7652968 0.7090528
vt 0.752526 0.6962955
vt 0.8941006 0.8378702
vt 0.8813545 0.8251104
vt 0.7652968 0.8251104
vt 0.752526 0.8378702
vt 0.8924237 0.8967027
vt 0.8857263 0.8851072
vt 0.8723356 0.8851097
vt 0.8656423 0.8967077
vt 0.9058102 0.8735069
vt 0.8656381 0.8735143
vt 0.8924195 0.8735093
vt 0.8522474 0.8735168
vt 0.8924152 0.850316
vt 0.8723313 0.8619163
vt 0.885722 0.8619139
vt 0.8656338 0.8503209
vn 0.5054502 0.8628558 0
vn 0.5054501 0.8628558 0
vn 0.5054502 0.8628558 0
vn -0.5054502 0.8628558 0
vn -0.5054502 0.8628558 0
vn -0.5054502 0.8628558 0
vn 0 0 1
vn 0.8660253 0 0.5000002
vn 0.8660253 0 0.5000002
vn 0 0 1
vn -0.8660253 0 0.5000002
vn -0.8660253 0 0.5000002
vn -0.8660253 0 -0.5000002
vn -0.8660253 0 -0.5000002
vn 0 0 -1
vn 0 0 -1
vn 0.8660257 0 -0.4999996
vn 0.8660257 0 -0.4999996
vn 0.8660253 0 0.5000002
vn 0.8660253 0 0.5000002
vn -0.4999998 0 0.8660255
vn -0.4999998 0 0.8660255
vn -0.4999998 0 0.8660255
vn -0.4999998 0 0.8660255
vn 0.4999998 0 0.8660255
vn 0.4999998 0 0.8660255
vn 0.4999998 0 0.8660255
vn 0.4999998 0 0.8660255
vn 1 0 0
vn 1 0 0
vn 1 0 0
vn 1 0 0
vn 0.4999997 0 -0.8660255
vn 0.4999997 0 -0.8660255
vn 0.4999997 0 -0.8660255
vn 0.4999997 0 -0.8660255
vn -0.4999997 0 -0.8660255
vn -0.4999997 0 -0.8660255
vn -0.4999997 0 -0.8660255
vn -0.4999997 0 -0.8660255
vn -1 0 0
vn -1 0 0
vn -1 0 0
vn -1 0 0
vn -0.3826839 0 0.9238794
vn -0.3826839 0 0.9238794
vn -0.3826839 0 0.9238794
vn -0.3826839 0 0.9238794
vn 0.3826838 0 0.9238794
vn 0.3826838 0 0.9238794
vn 0.3826838 0 0.9238794
vn 0.3826838 0 0.9238794
vn 1 0 0
vn 1 0 0
vn 1 0 0
vn 1 0 0
vn 0.382684 0 -0.9238793
vn 0.382684 0 -0.9238793
vn 0.382684 0 -0.9238793
vn 0.382684 0 -0.9238793
vn -0.3826838 0 -0.9238794
vn -0.3826838 0 -0.9238794
vn -0.3826838 0 -0.9238794
vn -0.3826838 0 -0.9238794
vn -1 0 0
vn -1 0 0
vn -1 0 0
vn -1 0 0
vn 0.366143 0.6118611 0.7011172
vn 0.366143 0.6118611 0.7011172
vn 0.366143 0.6118611 0.7011172
vn 0.366143 0.611861 0.7011172
vn 0.6624268 0.7491266 0
vn 0.6624269 0.7491266 0
vn 0.6624269 0.7491266 0
vn 0.6624268 0.7491266 0
vn -0.3661436 0.6118621 0.7011161
vn -0.3661436 0.611862 0.7011161
vn -0.3661436 0.6118621 0.7011161
vn -0.3661436 0.611862 0.7011161
vn -0.6624269 0.7491266 0
vn -0.6624269 0.7491266 0
vn -0.6624269 0.7491266 0
vn -0.6624269 0.7491266 0
vn -0.3661436 0.6118618 -0.7011163
vn -0.3661436 0.6118618 -0.7011162
vn -0.3661436 0.6118618 -0.7011163
vn -0.3661436 0.6118617 -0.7011163
vn 0.3661431 0.6118609 -0.7011173
vn 0.366143 0.6118609 -0.7011174
vn 0.366143 0.6118609 -0.7011173
vn 0.366143 0.6118609 -0.7011174
vn 4.889536E-07 -1.810199E-07 1
vn 2.754153E-07 0 1
vn 4.889536E-07 -1.810199E-07 1
vn 4.889536E-07 -1.810199E-07 1
vn 4.889535E-07 -1.810199E-07 1
vn 0 0 1
vn 0 0 1
vn 0.001153844 -0.002921367 -0.9999951
vn 0.001153844 -0.002921367 -0.9999951
vn 0.001153844 -0.002921367 -0.9999951
vn 0.001153844 -0.002921367 -0.9999951
vn 0 0 -1
vn 0 0 -1
vn 2.754153E-07 0 -1
vn -0.2804531 0.9598678 0
vn -0.2804531 0.9598678 0
vn -0.2804531 0.9598678 0
vn -0.2804531 0.9598678 0
vn -0.2804526 -0.9598678 0
vn -0.2804526 -0.9598678 0
vn -0.2804526 -0.9598679 0
vn -0.2804527 -0.9598678 0
vn -0.5696033 -0.8219198 0
vn -0.5696033 -0.8219198 0
vn -0.5696032 -0.8219198 0
vn -0.5696032 -0.8219198 0
vn -0.9487014 -0.3161732 0
vn -0.9487014 -0.3161732 0
vn -0.9487014 -0.3161732 0
vn -0.9487014 -0.3161732 0
vn -0.9487036 0.3161668 0
vn -0.9487036 0.3161668 0
vn -0.9487036 0.3161668 0
vn -0.9487036 0.3161668 0
vn -0.5695959 0.8219249 0
vn -0.5695959 0.8219249 0
vn -0.5695959 0.8219249 0
vn -0.5695959 0.8219249 0
vn 0.3087531 -0.5908082 0.7453974
vn 0.308753 -0.5908082 0.7453975
vn 0.308753 -0.5908082 0.7453975
vn 0.308753 -0.5908082 0.7453975
vn 0.3763826 -0.180746 0.9086623
vn 0.3763826 -0.180746 0.9086623
vn 0.3763826 -0.180746 0.9086623
vn 0.3763826 -0.180746 0.9086623
vn 0.3574069 0.3574072 0.8628559
vn 0.3574069 0.3574072 0.8628559
vn 0.3574068 0.3574073 0.8628559
vn 0.3574069 0.3574073 0.8628559
vn -1.685373E-07 0.923883 0.3826753
vn -1.685374E-07 0.9238829 0.3826753
vn -1.685373E-07 0.923883 0.3826753
vn -1.685373E-07 0.923883 0.3826753
vn 0.8723347 -0.4889091 0
vn 0.8723347 -0.4889091 0
vn 0.8723348 -0.4889091 0
vn 0.8723348 -0.4889091 0
vn 0.990253 -0.1392809 1.248386E-06
vn 0.990253 -0.1392809 1.248386E-06
vn 0.990253 -0.1392809 1.248386E-06
vn 0.990253 -0.1392809 1.248386E-06
vn 0.9596828 0.2810855 9.282E-07
vn 0.9596828 0.2810856 9.282001E-07
vn 0.9596828 0.2810856 9.282001E-07
vn 0.9596828 0.2810856 9.282001E-07
vn 0.3087528 -0.5908083 -0.7453974
vn 0.3087528 -0.5908083 -0.7453974
vn 0.3087528 -0.5908083 -0.7453974
vn 0.3087528 -0.5908083 -0.7453974
vn 0.3763814 -0.1807466 -0.9086626
vn 0.3763814 -0.1807466 -0.9086626
vn 0.3763814 -0.1807466 -0.9086626
vn 0.3763814 -0.1807466 -0.9086626
vn 0.3574057 0.357407 -0.8628565
vn 0.3574057 0.357407 -0.8628565
vn 0.3574058 0.357407 -0.8628565
vn 0.3574057 0.357407 -0.8628565
vn 1.348295E-07 0.9238834 -0.3826741
vn 1.348295E-07 0.9238834 -0.3826742
vn 1.348295E-07 0.9238834 -0.3826741
vn 1.348295E-07 0.9238834 -0.3826742
vn -0.3087538 -0.5908093 -0.7453962
vn -0.3087538 -0.5908093 -0.7453963
vn -0.3087537 -0.5908093 -0.7453962
vn -0.3087538 -0.5908093 -0.7453962
vn -0.3763779 -0.1807458 -0.9086642
vn -0.3763779 -0.1807458 -0.9086642
vn -0.3763779 -0.1807458 -0.9086642
vn -0.3763779 -0.1807458 -0.9086642
vn -0.3574078 0.3574096 -0.8628547
vn -0.3574078 0.3574096 -0.8628547
vn -0.3574077 0.3574096 -0.8628547
vn -0.3574078 0.3574096 -0.8628547
vn -0.8723345 -0.4889095 0
vn -0.8723345 -0.4889095 0
vn -0.8723345 -0.4889094 0
vn -0.8723345 -0.4889094 0
vn -0.9902524 -0.1392843 0
vn -0.9902524 -0.1392843 0
vn -0.9902524 -0.1392843 0
vn -0.9902524 -0.1392843 0
vn -0.9596822 0.2810874 0
vn -0.9596822 0.2810874 0
vn -0.9596822 0.2810874 0
vn -0.9596822 0.2810874 0
vn -0.3087535 -0.5908097 0.745396
vn -0.3087534 -0.5908096 0.745396
vn -0.3087534 -0.5908096 0.745396
vn -0.3087535 -0.5908096 0.745396
vn -0.3763776 -0.1807446 0.9086646
vn -0.3763776 -0.1807446 0.9086646
vn -0.3763776 -0.1807446 0.9086646
vn -0.3763776 -0.1807446 0.9086646
vn -0.3574082 0.3574097 0.8628545
vn -0.3574082 0.3574097 0.8628545
vn -0.3574081 0.3574097 0.8628545
vn -0.3574082 0.3574097 0.8628545
vn 0 1 0
vn 0 1 0
vn 0 1 0
vn 0 1 0
vn 1 -1.863906E-06 0
vn 1 -1.863906E-06 0
vn 1 -1.863906E-06 0
vn 1 -1.863906E-06 0
vn 0 -1.859014E-07 -1
vn 0 -1.859014E-07 -1
vn 0 -1.859014E-07 -1
vn 0 -1.859014E-07 -1
vn 0 -1.859014E-07 1
vn 0 -1.859014E-07 1
vn 0 -1.859014E-07 1
vn 0 -1.859014E-07 1
vn -1 -1.027349E-07 0
vn -1 -1.027349E-07 0
vn -1 -1.027349E-07 0
vn -1 -1.027349E-07 0
vn 0 1 0
vn 0 1 0
vn 0 1 0
vn 0 1 0
vn 0 1 0
vn 0 1 0
vn 0 1 0
vn 0 1 0
vn 0 1 -3.177545E-07
vn 0 1 0
vn 0 1 -3.177545E-07
vn 0 1 0
g Flag_A_Lego_0
f 3/3/3 2/2/2 1/1/1
f 6/6/6 5/5/5 4/4/4
f 9/9/9 8/8/8 7/7/7
f 10/10/10 9/9/9 7/7/7
f 11/11/11 10/10/10 7/7/7
f 12/12/12 11/11/11 7/7/7
f 13/13/13 11/11/11 12/12/12
f 14/14/14 13/13/13 12/12/12
f 13/13/13 14/14/14 15/15/15
f 16/16/16 13/13/13 15/15/15
f 17/17/17 16/16/16 15/15/15
f 18/18/18 17/17/17 15/15/15
f 19/19/19 17/17/17 18/18/18
f 20/20/20 19/19/19 18/18/18
f 23/23/23 22/22/22 21/21/21
f 24/24/24 23/23/23 21/21/21
f 27/27/27 26/26/26 25/25/25
f 28/28/28 27/27/27 25/25/25
f 31/31/31 30/30/30 29/29/29
f 32/32/32 31/31/31 29/29/29
f 35/35/35 34/34/34 33/33/33
f 36/36/36 35/35/35 33/33/33
f 39/39/39 38/38/38 37/37/37
f 40/40/40 39/39/39 37/37/37
f 43/43/43 42/42/42 41/41/41
f 44/44/44 43/43/43 41/41/41
f 47/47/47 46/46/46 45/45/45
f 48/48/48 47/47/47 45/45/45
f 51/51/51 50/50/50 49/49/49
f 52/52/52 51/51/51 49/49/49
f 55/55/55 54/54/54 53/53/53
f 56/56/56 55/55/55 53/53/53
f 59/59/59 58/58/58 57/57/57
f 60/60/60 59/59/59 57/57/57
f 63/63/63 62/62/62 61/61/61
f 64/64/64 63/63/63 61/61/61
f 67/67/67 66/66/66 65/65/65
f 68/68/68 67/67/67 65/65/65
f 71/71/71 70/70/70 69/69/69
f 72/72/72 71/71/71 69/69/69
f 75/75/75 74/74/74 73/73/73
f 76/76/76 75/75/75 73/73/73
f 79/79/79 78/78/78 77/77/77
f 80/80/80 79/79/79 77/77/77
f 83/83/83 82/82/82 81/81/81
f 84/84/84 83/83/83 81/81/81
f 87/87/87 86/86/86 85/85/85
f 88/88/88 87/87/87 85/85/85
f 91/91/91 90/90/90 89/89/89
f 92/92/92 91/91/91 89/89/89
f 95/95/95 94/94/94 93/93/93
f 95/95/95 93/93/93 96/96/96
f 93/93/93 97/97/97 96/96/96
f 96/96/96 97/97/97 98/98/98
f 97/97/97 99/99/99 98/98/98
f 102/102/102 101/101/101 100/100/100
f 103/103/103 102/102/102 100/100/100
f 100/100/100 104/104/104 103/103/103
f 104/104/104 105/105/105 103/103/103
f 104/104/104 106/106/106 105/105/105
f 109/109/109 108/108/108 107/107/107
f 110/110/110 109/109/109 107/107/107
f 113/113/113 112/112/112 111/111/111
f 114/114/114 113/113/113 111/111/111
f 117/117/117 116/116/116 115/115/115
f 118/118/118 117/117/117 115/115/115
f 121/121/121 120/120/120 119/119/119
f 122/122/122 121/121/121 119/119/119
f 125/125/125 124/124/124 123/123/123
f 126/126/126 125/125/125 123/123/123
f 129/129/129 128/128/128 127/127/127
f 130/130/130 129/129/129 127/127/127
f 133/133/133 132/132/132 131/131/131
f 134/134/134 133/133/133 131/131/131
f 137/137/137 136/136/136 135/135/135
f 138/138/138 137/137/137 135/135/135
f 141/141/141 140/140/140 139/139/139
f 142/142/142 141/141/141 139/139/139
f 145/145/145 144/144/144 143/143/143
f 146/146/146 145/145/145 143/143/143
f 149/149/149 148/148/148 147/147/147
f 150/150/150 149/149/149 147/147/147
f 153/153/153 152/152/152 151/151/151
f 154/154/154 153/153/153 151/151/151
f 157/157/157 156/156/156 155/155/155
f 158/158/158 157/157/157 155/155/155
f 161/161/161 160/160/160 159/159/159
f 162/162/162 161/161/161 159/159/159
f 165/165/165 164/164/164 163/163/163
f 166/166/166 165/165/165 163/163/163
f 169/169/169 168/168/168 167/167/167
f 170/170/170 169/169/169 167/167/167
f 173/173/173 172/172/172 171/171/171
f 174/174/174 173/173/173 171/171/171
f 177/177/177 176/176/176 175/175/175
f 178/178/178 177/177/177 175/175/175
f 181/181/181 180/180/180 179/179/179
f 182/182/182 181/181/181 179/179/179
f 185/185/185 184/184/184 183/183/183
f 186/186/186 185/185/185 183/183/183
f 189/189/189 188/188/188 187/187/187
f 190/190/190 189/189/189 187/187/187
f 193/193/193 192/192/192 191/191/191
f 194/194/194 193/193/193 191/191/191
f 197/197/197 196/196/196 195/195/195
f 198/198/198 197/197/197 195/195/195
f 201/201/201 200/200/200 199/199/199
f 202/202/202 201/201/201 199/199/199
f 205/205/205 204/204/204 203/203/203
f 206/206/206 205/205/205 203/203/203
f 209/209/209 208/208/208 207/207/207
f 210/210/210 209/209/209 207/207/207
f 213/213/213 212/212/212 211/211/211
f 214/214/214 213/213/213 211/211/211
f 217/217/217 216/216/216 215/215/215
f 218/218/218 217/217/217 215/215/215
f 221/221/221 220/220/220 219/219/219
f 222/222/222 221/221/221 219/219/219
f 225/225/225 224/224/224 223/223/223
f 226/226/226 225/225/225 223/223/223
f 229/229/229 228/228/228 227/227/227
f 230/230/230 229/229/229 227/227/227
f 233/233/233 232/232/232 231/231/231
f 234/234/234 233/233/233 231/231/231
f 231/231/231 232/232/232 235/235/235
f 236/236/236 233/233/233 234/234/234
f 232/232/232 237/237/237 235/235/235
f 238/238/238 236/236/236 234/234/234
f 235/235/235 237/237/237 239/239/239
f 240/240/240 236/236/236 238/238/238
f 237/237/237 241/241/241 239/239/239
f 242/242/242 240/240/240 238/238/238
f 239/239/239 241/241/241 242/242/242
f 241/241/241 240/240/240 242/242/242
