g Flag_A_LOD
v -0.76 2.6752 0.02849993
v -0.02293497 2.919042 0.02849993
v -0.02293497 2.431358 0.02849991
v -0.02293497 2.919042 -0.02850007
v -0.76 2.6752 -0.02850007
v -0.02687005 2.432508 -0.02687013
v -1.788139E-09 0.2431999 0.1215999
v 0.1053086 0.2431999 -6.437301E-08
v 0.1053086 0.1215999 -6.437301E-08
v -1.788139E-09 0.1215999 0.1215999
v -0.1053087 0.1215999 -7.152557E-08
v -0.1053087 0.2431999 -7.152557E-08
v -1.788139E-09 0.2431999 -0.1216
v -1.788139E-09 0.1215999 -0.1216
v 0.1053086 0.1215999 -6.437301E-08
v 0.1053086 0.2431999 -6.437301E-08
v -0.05265436 0.6079997 -6.67572E-08
v -1.788139E-09 0.6079997 0.06079993
v -1.788139E-09 0.2431999 0.06079993
v -0.05265436 0.2431999 -6.67572E-08
v -1.788139E-09 0.6079997 0.06079993
v 0.05265436 0.6079997 -6.67572E-08
v 0.05265436 0.2431999 -6.67572E-08
v -1.788139E-09 0.2431999 0.06079993
v 0.05265436 0.6079997 -6.67572E-08
v -1.788139E-09 0.6079997 -0.06080006
v -1.788139E-09 0.2431999 -0.06080006
v 0.05265436 0.2431999 -6.67572E-08
v -1.788139E-09 0.6079997 -0.06080006
v -0.05265436 0.6079997 -6.67572E-08
v -0.05265436 0.2431999 -6.67572E-08
v -1.788139E-09 0.2431999 -0.06080006
v -0.02687005 2.933006 -7.152557E-08
v -1.788139E-09 2.933006 0.03799994
v -1.788139E-09 0.6307999 0.03799993
v -0.02687005 0.6307999 -7.390976E-08
v -1.788139E-09 2.933006 0.03799994
v 0.02687005 2.933006 -6.914139E-08
v 0.02687005 0.6307999 -6.914139E-08
v -1.788139E-09 0.6307999 0.03799993
v 0.02687005 2.933006 -6.914139E-08
v -1.788139E-09 2.933006 -0.03800007
v -1.788139E-09 0.6307999 -0.03800007
v 0.02687005 0.6307999 -6.914139E-08
v -1.788139E-09 2.933006 -0.03800007
v -0.02687005 2.933006 -7.152557E-08
v -0.02687005 0.6307999 -7.390976E-08
v -1.788139E-09 0.6307999 -0.03800007
v 0.02687005 0.6307999 -6.914139E-08
v 0.05265436 0.6079997 -6.67572E-08
v -1.788139E-09 0.6079997 0.06079993
v -1.788139E-09 0.6307999 0.03799993
v -0.05265436 0.6079997 -6.67572E-08
v -0.02687005 0.6307999 -7.390976E-08
v -1.788139E-09 0.6307999 0.03799993
v -1.788139E-09 0.6079997 0.06079993
v -1.788139E-09 0.6079997 -0.06080006
v -1.788139E-09 0.6307999 -0.03800007
v -0.02687005 0.6307999 -7.390976E-08
v -0.05265436 0.6079997 -6.67572E-08
v 0.05265436 0.6079997 -6.67572E-08
v 0.02687005 0.6307999 -6.914139E-08
v -1.788139E-09 0.6307999 -0.03800007
v -1.788139E-09 0.6079997 -0.06080006
v -0.76 2.6752 -0.02850007
v -0.76 2.6752 0.02849993
v -0.02293497 2.431358 0.02849991
v -0.02687005 2.432508 -0.02687013
v -0.02293497 2.919042 -0.02850007
v -0.02293497 2.919042 0.02849993
v -0.76 2.6752 0.02849993
v -0.76 2.6752 -0.02850007
v -1.788139E-09 2.933006 0.03799994
v -1.788139E-09 2.9792 0.06079995
v 0.04299206 2.9792 -5.960464E-08
v 0.02687005 2.933006 -6.914139E-08
v 0.03039997 3.022192 -5.602837E-08
v 0.04299206 2.9792 -5.960464E-08
v -1.788139E-09 2.9792 0.06079995
v -1.788139E-09 3.022192 0.042992
v -0.03039997 3.022192 -7.987022E-08
v -1.788139E-09 3.022192 -0.04299216
v 0.03039997 3.022192 -5.602837E-08
v -1.788139E-09 3.022192 0.042992
v 0.04299206 2.9792 -5.960464E-08
v -1.788139E-09 2.9792 -0.06080008
v -1.788139E-09 2.933006 -0.03800007
v 0.02687005 2.933006 -6.914139E-08
v 0.04299206 2.9792 -5.960464E-08
v 0.03039997 3.022192 -5.602837E-08
v -1.788139E-09 3.022192 -0.04299216
v -1.788139E-09 2.9792 -0.06080008
v -1.788139E-09 2.9792 -0.06080008
v -0.04299215 2.9792 -8.106232E-08
v -0.02687005 2.933006 -7.152557E-08
v -1.788139E-09 2.933006 -0.03800007
v -0.03039997 3.022192 -7.987022E-08
v -0.04299215 2.9792 -8.106232E-08
v -1.788139E-09 2.9792 -0.06080008
v -1.788139E-09 3.022192 -0.04299216
v -0.04299215 2.9792 -8.106232E-08
v -1.788139E-09 2.9792 0.06079995
v -1.788139E-09 2.933006 0.03799994
v -0.02687005 2.933006 -7.152557E-08
v -0.04299215 2.9792 -8.106232E-08
v -0.03039997 3.022192 -7.987022E-08
v -1.788139E-09 3.022192 0.042992
v -1.788139E-09 2.9792 0.06079995
v -0.3040003 0.1216 -0.304
v 0.3039999 0.1216 -0.304
v 0.3039999 0.1216 0.304
v -0.3040003 0.1216 0.304
v 0.3039997 0.019 0.304
v 0.3039999 0.1216 0.304
v 0.3039999 0.1216 -0.304
v 0.3039997 0.019 -0.304
v 0.3039997 0.019 -0.304
v 0.3039999 0.1216 -0.304
v -0.3040003 0.1216 -0.304
v -0.3040003 0.019 -0.304
v -0.3040003 0.019 0.304
v -0.3040003 0.1216 0.304
v 0.3039999 0.1216 0.304
v 0.3039997 0.019 0.304
v -0.3040003 0.019 -0.304
v -0.3040003 0.1216 -0.304
v -0.3040003 0.1216 0.304
v -0.3040003 0.019 0.304
v -1.788139E-09 0.2431999 -0.1216
v -1.788139E-09 0.2431999 -0.06080006
v -0.05265436 0.2431999 -6.67572E-08
v -0.1053087 0.2431999 -7.152557E-08
v 0.1053086 0.2431999 -6.437301E-08
v -1.788139E-09 0.2431999 0.06079993
v 0.05265436 0.2431999 -6.67572E-08
v -1.788139E-09 0.2431999 0.1215999
vt 0.9038386 0.01300353
vt 0.8149155 0.2816477
vt 0.9926752 0.2816763
vt 0.7039903 0.01102084
vt 0.7951148 0.2792937
vt 0.881556 0.01104519
vt 0.7725132 0.5208309
vt 0.7941928 0.5208316
vt 0.7941936 0.4991523
vt 0.7725141 0.4991513
vt 0.7399948 0.49915
vt 0.7399939 0.5208296
vt 0.7074746 0.5208283
vt 0.7074754 0.4991487
vt 0.6749561 0.4991475
vt 0.6749552 0.5208271
vt 0.8312572 0.9554069
vt 0.831256 0.9770537
vt 0.917843 0.9770584
vt 0.9178442 0.9554116
vt 0.831256 0.9770537
vt 0.8312553 0.9914849
vt 0.9178423 0.9914895
vt 0.917843 0.9770584
vt 0.8312595 0.9121134
vt 0.8312583 0.9337602
vt 0.9178452 0.9337648
vt 0.9178464 0.9121181
vt 0.8312583 0.9337602
vt 0.8312572 0.9554069
vt 0.9178442 0.9554116
vt 0.9178452 0.9337648
vt 0.9691422 0.9947286
vt 0.9827577 0.9947286
vt 0.9827577 0.434525
vt 0.9691422 0.434525
vt 0.9827577 0.9947286
vt 0.9898348 0.9947286
vt 0.9898348 0.434525
vt 0.9827577 0.434525
vt 0.9419113 0.9947286
vt 0.9555268 0.9947286
vt 0.9555268 0.434525
vt 0.9419113 0.434525
vt 0.9555268 0.9947286
vt 0.9691422 0.9947286
vt 0.9691422 0.434525
vt 0.9555268 0.434525
vt 0.8353221 0.8844954
vt 0.8292552 0.8808739
vt 0.8323507 0.8999874
vt 0.8359839 0.8939111
vt 0.8507735 0.8938218
vt 0.8447115 0.8901957
vt 0.8359839 0.8939111
vt 0.8323507 0.8999874
vt 0.8476723 0.8746969
vt 0.8440496 0.8807781
vt 0.8447115 0.8901957
vt 0.8507735 0.8938218
vt 0.8292552 0.8808739
vt 0.8353221 0.8844954
vt 0.8440496 0.8807781
vt 0.8476723 0.8746969
vt 0.9100724 0.6830658
vt 0.9253976 0.6830658
vt 0.9253976 0.4688394
vt 0.9100724 0.4688394
vt 0.9100724 0.8978512
vt 0.9253976 0.8978512
vt 0.9253976 0.6830658
vt 0.9100724 0.6830658
vt 0.7631013 0.470659
vt 0.7631013 0.4822757
vt 0.7714756 0.4822757
vt 0.7714756 0.470659
vt 0.7714756 0.4923193
vt 0.7714756 0.4822757
vt 0.7631013 0.4822757
vt 0.7631013 0.4923193
vt 0.5550616 0.9708406
vt 0.5623012 0.9656125
vt 0.5550604 0.960386
vt 0.5478209 0.9656142
vt 0.7150626 0.4822757
vt 0.7311743 0.4822757
vt 0.7311743 0.470659
vt 0.7150626 0.470659
vt 0.7150626 0.4822757
vt 0.7150626 0.4923193
vt 0.7311743 0.4923193
vt 0.7311743 0.4822757
vt 0.7311743 0.4822757
vt 0.7471285 0.4822757
vt 0.7471285 0.470659
vt 0.7311743 0.470659
vt 0.7471285 0.4923193
vt 0.7471285 0.4822757
vt 0.7311743 0.4822757
vt 0.7311743 0.4923193
vt 0.7471285 0.4822757
vt 0.7631013 0.4822757
vt 0.7631013 0.470659
vt 0.7471285 0.470659
vt 0.7471285 0.4822757
vt 0.7471285 0.4923193
vt 0.7631013 0.4923193
vt 0.7631013 0.4822757
vt 0.8813545 0.8251104
vt 0.8813545 0.7090528
vt 0.7652968 0.7090528
vt 0.7652968 0.8251104
vt 0.752526 0.6962955
vt 0.7652968 0.7090528
vt 0.8813545 0.7090528
vt 0.8941006 0.6962955
vt 0.8941006 0.6962955
vt 0.8813545 0.7090528
vt 0.8813545 0.8251104
vt 0.8941006 0.8378702
vt 0.752526 0.8378702
vt 0.7652968 0.8251104
vt 0.7652968 0.7090528
vt 0.752526 0.6962955
vt 0.8941006 0.8378702
vt 0.8813545 0.8251104
vt 0.7652968 0.8251104
vt 0.752526 0.8378702
vt 0.8924237 0.8967027
vt 0.8857263 0.8851072
vt 0.8689868 0.879312
vt 0.8589448 0.8851123
vt 0.8991127 0.8619114
vt 0.8723313 0.8619163
vt 0.8890707 0.8677115
vt 0.8656338 0.8503209
vn 0 0 1
vn 0 0 1
vn 0 0 1
vn 0.001111273 -0.003359062 -0.9999938
vn 0.001111273 -0.003359061 -0.9999938
vn 0.001111274 -0.003359062 -0.9999938
vn 0 0 1
vn 1 0 0
vn 1 0 0
vn 0 0 1
vn -1 0 0
vn -1 0 0
vn 0 0 -1
vn 0 0 -1
vn 1 0 0
vn 1 0 0
vn -0.7559288 0 0.6546539
vn -0.7559288 0 0.6546539
vn -0.7559288 0 0.6546539
vn -0.7559288 0 0.6546539
vn 0.7559288 0 0.6546539
vn 0.7559288 0 0.6546539
vn 0.7559288 0 0.6546539
vn 0.7559288 0 0.6546539
vn 0.7559288 0 -0.6546539
vn 0.7559288 0 -0.6546539
vn 0.7559288 0 -0.6546539
vn 0.7559288 0 -0.6546539
vn -0.7559288 0 -0.6546539
vn -0.7559288 0 -0.6546539
vn -0.7559288 0 -0.6546539
vn -0.7559288 0 -0.6546539
vn -0.8164966 0 0.5773501
vn -0.8164966 0 0.5773501
vn -0.8164966 0 0.5773501
vn -0.8164966 0 0.5773501
vn 0.8164966 0 0.5773502
vn 0.8164966 0 0.5773502
vn 0.8164966 0 0.5773502
vn 0.8164966 0 0.5773502
vn 0.8164966 0 -0.5773501
vn 0.8164966 0 -0.5773501
vn 0.8164966 0 -0.5773501
vn 0.8164966 0 -0.5773501
vn -0.8164966 0 -0.5773501
vn -0.8164966 0 -0.5773501
vn -0.8164966 0 -0.5773501
vn -0.8164966 0 -0.5773501
vn 0.622009 0.6020359 0.5006571
vn 0.622009 0.6020359 0.5006571
vn 0.622009 0.6020359 0.5006572
vn 0.622009 0.6020359 0.5006571
vn -0.6220096 0.6020364 0.5006559
vn -0.6220096 0.6020364 0.5006558
vn -0.6220096 0.6020363 0.5006559
vn -0.6220096 0.6020364 0.5006558
vn -0.6220096 0.6020363 -0.5006559
vn -0.6220096 0.6020362 -0.5006559
vn -0.6220097 0.6020362 -0.5006559
vn -0.6220097 0.6020362 -0.5006559
vn 0.6220092 0.6020357 -0.5006571
vn 0.6220092 0.6020358 -0.5006571
vn 0.6220092 0.6020358 -0.5006571
vn 0.6220092 0.6020358 -0.5006571
vn -0.3141765 -0.9493637 0.001288534
vn -0.3141765 -0.9493637 0.001288534
vn -0.3141765 -0.9493637 0.001288534
vn -0.3141764 -0.9493637 0.001288534
vn -0.3140867 0.9493942 0
vn -0.3140867 0.9493942 0
vn -0.3140867 0.9493942 0
vn -0.3140867 0.9493942 0
vn 0.7852384 -0.2740564 0.555242
vn 0.7852384 -0.2740564 0.555242
vn 0.7852385 -0.2740564 0.5552419
vn 0.7852385 -0.2740564 0.555242
vn 0.7941029 0.2325883 0.5615188
vn 0.7941029 0.2325883 0.5615187
vn 0.7941029 0.2325883 0.5615187
vn 0.7941029 0.2325883 0.5615188
vn 0 1 0
vn 0 1 0
vn 0 1 0
vn 0 1 0
vn 0.7852386 -0.2740562 -0.5552419
vn 0.7852386 -0.2740562 -0.5552419
vn 0.7852386 -0.2740562 -0.5552419
vn 0.7852386 -0.2740562 -0.5552419
vn 0.7941031 0.2325882 -0.5615185
vn 0.7941031 0.2325882 -0.5615185
vn 0.794103 0.2325882 -0.5615185
vn 0.7941031 0.2325882 -0.5615185
vn -0.7852365 -0.2740566 -0.5552447
vn -0.7852365 -0.2740565 -0.5552447
vn -0.7852365 -0.2740566 -0.5552447
vn -0.7852365 -0.2740566 -0.5552447
vn -0.7941042 0.2325895 -0.5615163
vn -0.7941042 0.2325895 -0.5615164
vn -0.7941042 0.2325895 -0.5615163
vn -0.7941042 0.2325895 -0.5615164
vn -0.7852365 -0.2740565 0.5552447
vn -0.7852365 -0.2740565 0.5552446
vn -0.7852365 -0.2740565 0.5552446
vn -0.7852365 -0.2740565 0.5552447
vn -0.7941043 0.2325896 0.5615162
vn -0.7941043 0.2325896 0.5615162
vn -0.7941043 0.2325896 0.5615162
vn -0.7941043 0.2325896 0.5615162
vn 0 1 0
vn 0 1 0
vn 0 1 0
vn 0 1 0
vn 1 -1.863906E-06 0
vn 1 -1.863906E-06 0
vn 1 -1.863906E-06 0
vn 1 -1.863906E-06 0
vn 0 -1.859014E-07 -1
vn 0 -1.859014E-07 -1
vn 0 -1.859014E-07 -1
vn 0 -1.859014E-07 -1
vn 0 -1.859014E-07 1
vn 0 -1.859014E-07 1
vn 0 -1.859014E-07 1
vn 0 -1.859014E-07 1
vn -1 -1.027349E-07 0
vn -1 -1.027349E-07 0
vn -1 -1.027349E-07 0
vn -1 -1.027349E-07 0
vn 0 1 0
vn 0 1 0
vn 0 1 0
vn 0 1 0
vn 0 1 0
vn 0 1 0
vn 0 1 0
vn 0 1 0
g Flag_A_LOD_0
f 3/3/3 2/2/2 1/1/1
f 6/6/6 5/5/5 4/4/4
f 9/9/9 8/8/8 7/7/7
f 10/10/10 9/9/9 7/7/7
f 11/11/11 10/10/10 7/7/7
f 12/12/12 11/11/11 7/7/7
f 11/11/11 12/12/12 13/13/13
f 14/14/14 11/11/11 13/13/13
f 15/15/15 14/14/14 13/13/13
f 16/16/16 15/15/15 13/13/13
f 19/19/19 18/18/18 17/17/17
f 20/20/20 19/19/19 17/17/17
f 23/23/23 22/22/22 21/21/21
f 24/24/24 23/23/23 21/21/21
f 27/27/27 26/26/26 25/25/25
f 28/28/28 27/27/27 25/25/25
f 31/31/31 30/30/30 29/29/29
f 32/32/32 31/31/31 29/29/29
f 35/35/35 34/34/34 33/33/33
f 36/36/36 35/35/35 33/33/33
f 39/39/39 38/38/38 37/37/37
f 40/40/40 39/39/39 37/37/37
f 43/43/43 42/42/42 41/41/41
f 44/44/44 43/43/43 41/41/41
f 47/47/47 46/46/46 45/45/45
f 48/48/48 47/47/47 45/45/45
f 51/51/51 50/50/50 49/49/49
f 52/52/52 51/51/51 49/49/49
f 55/55/55 54/54/54 53/53/53
f 56/56/56 55/55/55 53/53/53
f 59/59/59 58/58/58 57/57/57
f 60/60/60 59/59/59 57/57/57
f 63/63/63 62/62/62 61/61/61
f 64/64/64 63/63/63 61/61/61
f 67/67/67 66/66/66 65/65/65
f 68/68/68 67/67/67 65/65/65
f 71/71/71 70/70/70 69/69/69
f 72/72/72 71/71/71 69/69/69
f 75/75/75 74/74/74 73/73/73
f 76/76/76 75/75/75 73/73/73
f 79/79/79 78/78/78 77/77/77
f 80/80/80 79/79/79 77/77/77
f 83/83/83 82/82/82 81/81/81
f 84/84/84 83/83/83 81/81/81
f 87/87/87 86/86/86 85/85/85
f 88/88/88 87/87/87 85/85/85
f 91/91/91 90/90/90 89/89/89
f 92/92/92 91/91/91 89/89/89
f 95/95/95 94/94/94 93/93/93
f 96/96/96 95/95/95 93/93/93
f 99/99/99 98/98/98 97/97/97
f 100/100/100 99/99/99 97/97/97
f 103/103/103 102/102/102 101/101/101
f 104/104/104 103/103/103 101/101/101
f 107/107/107 106/106/106 105/105/105
f 108/108/108 107/107/107 105/105/105
f 111/111/111 110/110/110 109/109/109
f 112/112/112 111/111/111 109/109/109
f 115/115/115 114/114/114 113/113/113
f 116/116/116 115/115/115 113/113/113
f 119/119/119 118/118/118 117/117/117
f 120/120/120 119/119/119 117/117/117
f 123/123/123 122/122/122 121/121/121
f 124/124/124 123/123/123 121/121/121
f 127/127/127 126/126/126 125/125/125
f 128/128/128 127/127/127 125/125/125
f 131/131/131 130/130/130 129/129/129
f 132/132/132 131/131/131 129/129/129
f 129/129/129 130/130/130 133/133/133
f 134/134/134 131/131/131 132/132/132
f 130/130/130 135/135/135 133/133/133
f 136/136/136 134/134/134 132/132/132
f 133/133/133 135/135/135 136/136/136
f 135/135/135 134/134/134 136/136/136
