g Flat_6_Stud_2
v -0.06287397 0.020254 0.3927405
v 0.0007313592 0.07363784 0.4294629
v 0.0007313592 0.020254 0.4294629
v -0.06287397 0.07363784 0.3927405
v -0.06287396 0.020254 0.3192952
v -0.06287396 0.07363784 0.3192952
v 0.0007313592 0.020254 0.2825724
v 0.0007313592 0.07363784 0.2825724
v 0.06433682 0.020254 0.3192951
v 0.06433682 0.07363784 0.3192951
v 0.06433682 0.020254 0.3927405
v 0.06433682 0.07363784 0.3927405
v 0.0007313592 0.020254 0.4294629
v 0.0007313592 0.07363784 0.4294629
v 0.0007313592 0.07363784 0.4294629
v 0.06433682 0.07363784 0.3192951
v 0.06433682 0.07363784 0.3927405
v -0.06287396 0.07363784 0.3192952
v -0.06287397 0.07363784 0.3927405
v 0.0007313592 0.07363784 0.2825724
v -0.06287397 0.02025397 -0.08138677
v 0.0007313568 0.07363782 -0.04466436
v 0.0007313568 0.02025397 -0.04466436
v -0.06287397 0.07363782 -0.08138677
v -0.06287397 0.02025397 -0.1548322
v -0.06287397 0.07363782 -0.1548322
v 0.0007313568 0.02025397 -0.1915548
v 0.0007313568 0.07363782 -0.1915548
v 0.06433682 0.02025397 -0.1548322
v 0.06433682 0.07363782 -0.1548322
v 0.06433682 0.02025397 -0.08138677
v 0.06433682 0.07363782 -0.08138677
v 0.0007313568 0.02025397 -0.04466436
v 0.0007313568 0.07363782 -0.04466436
v 0.0007313568 0.07363782 -0.04466436
v 0.06433682 0.07363782 -0.1548322
v 0.06433682 0.07363782 -0.08138677
v -0.06287397 0.07363782 -0.1548322
v -0.06287397 0.07363782 -0.08138677
v 0.0007313568 0.07363782 -0.1915548
v -0.06287397 0.02025402 0.6298041
v 0.0007313568 0.07363787 0.6665265
v 0.0007313568 0.02025402 0.6665265
v -0.06287397 0.07363787 0.6298041
v -0.06287397 0.02025402 0.5563588
v -0.06287397 0.07363787 0.5563588
v 0.0007313568 0.02025402 0.519636
v 0.0007313568 0.07363787 0.519636
v 0.06433682 0.02025402 0.5563587
v 0.06433682 0.07363787 0.5563587
v 0.06433682 0.02025402 0.6298041
v 0.06433682 0.07363787 0.6298041
v 0.0007313568 0.02025402 0.6665265
v 0.0007313568 0.07363787 0.6665265
v 0.0007313568 0.07363787 0.6665265
v 0.06433682 0.07363787 0.5563587
v 0.06433682 0.07363787 0.6298041
v -0.06287397 0.07363787 0.5563588
v -0.06287397 0.07363787 0.6298041
v 0.0007313568 0.07363787 0.519636
v -0.06287397 0.02025398 0.1556769
v 0.0007313568 0.07363784 0.1923993
v 0.0007313568 0.02025398 0.1923993
v -0.06287397 0.07363784 0.1556769
v -0.06287397 0.02025398 0.08223146
v -0.06287397 0.07363784 0.08223146
v 0.0007313568 0.02025398 0.04550878
v 0.0007313568 0.07363784 0.04550878
v 0.06433682 0.02025398 0.08223146
v 0.06433682 0.07363784 0.08223146
v 0.06433682 0.02025398 0.1556768
v 0.06433682 0.07363784 0.1556768
v 0.0007313568 0.02025398 0.1923993
v 0.0007313568 0.07363784 0.1923993
v 0.0007313568 0.07363784 0.1923993
v 0.06433682 0.07363784 0.08223146
v 0.06433682 0.07363784 0.1556768
v -0.06287397 0.07363784 0.08223146
v -0.06287397 0.07363784 0.1556769
v 0.0007313568 0.07363784 0.04550878
v -0.1185318 -0.07363788 -0.7111905
v -0.1185318 0.02089122 -0.7111905
v -0.1185318 0.02089122 0.7111905
v -0.1185318 -0.07363788 0.7111905
v -0.1185318 0.02089122 -0.7111905
v 0.1185318 0.02089122 -0.7111905
v 0.1185318 0.02089122 0.7111905
v -0.1185318 0.02089122 0.7111905
v 0.1185318 0.02089122 -0.7111905
v 0.1185318 -0.07363788 -0.7111905
v 0.1185318 -0.07363788 0.7111905
v 0.1185318 0.02089122 0.7111905
v 0.1185318 -0.07363788 -0.7111905
v -0.1185318 -0.07363788 -0.7111905
v -0.1185318 -0.07363788 0.7111905
v 0.1185318 -0.07363788 0.7111905
v -0.1185318 -0.07363788 0.7111905
v -0.1185318 0.02089122 0.7111905
v 0.1185318 0.02089122 0.7111905
v 0.1185318 -0.07363788 0.7111905
v 0.1185318 -0.07363788 -0.7111905
v 0.1185318 0.02089122 -0.7111905
v -0.1185318 0.02089122 -0.7111905
v -0.1185318 -0.07363788 -0.7111905
v -0.06287383 0.02025393 -0.555514
v 0.0007314999 0.07363778 -0.5187917
v 0.0007314999 0.02025393 -0.5187917
v -0.06287383 0.07363778 -0.555514
v -0.06287383 0.02025393 -0.6289594
v -0.06287383 0.07363778 -0.6289594
v 0.0007314999 0.02025393 -0.6656822
v 0.0007314999 0.07363778 -0.6656822
v 0.06433696 0.02025393 -0.6289594
v 0.06433696 0.07363778 -0.6289594
v 0.06433696 0.02025393 -0.555514
v 0.06433696 0.07363778 -0.555514
v 0.0007314999 0.02025393 -0.5187917
v 0.0007314999 0.07363778 -0.5187917
v 0.0007314999 0.07363778 -0.5187917
v 0.06433696 0.07363778 -0.6289594
v 0.06433696 0.07363778 -0.555514
v -0.06287383 0.07363778 -0.6289594
v -0.06287383 0.07363778 -0.555514
v 0.0007314999 0.07363778 -0.6656822
v -0.06287397 0.02025395 -0.3184504
v 0.0007313568 0.07363779 -0.281728
v 0.0007313568 0.02025395 -0.281728
v -0.06287397 0.07363779 -0.3184504
v -0.06287397 0.02025395 -0.3918958
v -0.06287397 0.07363779 -0.3918958
v 0.0007313568 0.02025395 -0.4286185
v 0.0007313568 0.07363779 -0.4286185
v 0.06433682 0.02025395 -0.3918958
v 0.06433682 0.07363779 -0.3918958
v 0.06433682 0.02025395 -0.3184504
v 0.06433682 0.07363779 -0.3184504
v 0.0007313568 0.02025395 -0.281728
v 0.0007313568 0.07363779 -0.281728
v 0.0007313568 0.07363779 -0.281728
v 0.06433682 0.07363779 -0.3918958
v 0.06433682 0.07363779 -0.3184504
v -0.06287397 0.07363779 -0.3918958
v -0.06287397 0.07363779 -0.3184504
v 0.0007313568 0.07363779 -0.4286185
vt 0.411374 0.6273196
vt 0.4327468 0.6428549
vt 0.4327468 0.6273196
vt 0.411374 0.6428549
vt 0.3900002 0.6273196
vt 0.3900002 0.6428549
vt 0.3686274 0.6273196
vt 0.3686274 0.6428549
vt 0.3472537 0.6273196
vt 0.3472537 0.6428549
vt 0.3258809 0.6273196
vt 0.3258809 0.6428549
vt 0.3045071 0.6273196
vt 0.3045071 0.6428549
vt 0.2707492 0.6537656
vt 0.2386896 0.6722749
vt 0.2600628 0.6722752
vt 0.2386896 0.6352562
vt 0.2600628 0.6352562
vt 0.2280032 0.6537656
vt 0.411374 0.6273196
vt 0.4327468 0.6428549
vt 0.4327468 0.6273196
vt 0.411374 0.6428549
vt 0.3900002 0.6273196
vt 0.3900002 0.6428549
vt 0.3686274 0.6273196
vt 0.3686274 0.6428549
vt 0.3472537 0.6273196
vt 0.3472537 0.6428549
vt 0.3258809 0.6273196
vt 0.3258809 0.6428549
vt 0.3045071 0.6273196
vt 0.3045071 0.6428549
vt 0.2707492 0.6537656
vt 0.2386896 0.6722749
vt 0.2600628 0.6722752
vt 0.2386896 0.6352562
vt 0.2600628 0.6352562
vt 0.2280032 0.6537656
vt 0.411374 0.6273196
vt 0.4327468 0.6428549
vt 0.4327468 0.6273196
vt 0.411374 0.6428549
vt 0.3900002 0.6273196
vt 0.3900002 0.6428549
vt 0.3686274 0.6273196
vt 0.3686274 0.6428549
vt 0.3472537 0.6273196
vt 0.3472537 0.6428549
vt 0.3258809 0.6273196
vt 0.3258809 0.6428549
vt 0.3045071 0.6273196
vt 0.3045071 0.6428549
vt 0.2707492 0.6537656
vt 0.2386896 0.6722749
vt 0.2600628 0.6722752
vt 0.2386896 0.6352562
vt 0.2600628 0.6352562
vt 0.2280032 0.6537656
vt 0.411374 0.6273196
vt 0.4327468 0.6428549
vt 0.4327468 0.6273196
vt 0.411374 0.6428549
vt 0.3900002 0.6273196
vt 0.3900002 0.6428549
vt 0.3686274 0.6273196
vt 0.3686274 0.6428549
vt 0.3472537 0.6273196
vt 0.3472537 0.6428549
vt 0.3258809 0.6273196
vt 0.3258809 0.6428549
vt 0.3045071 0.6273196
vt 0.3045071 0.6428549
vt 0.2707492 0.6537656
vt 0.2386896 0.6722749
vt 0.2600628 0.6722752
vt 0.2386896 0.6352562
vt 0.2600628 0.6352562
vt 0.2280032 0.6537656
vt 0.01983034 0.0293431
vt 0.01983034 0.05685136
vt 0.4337498 0.05685136
vt 0.4337498 0.0293431
vt 0.01983034 0.1286295
vt 0.01983034 0.197616
vt 0.4337498 0.197616
vt 0.4337498 0.1286295
vt 0.01983034 0.07746634
vt 0.01983034 0.1049744
vt 0.4337498 0.1049744
vt 0.4337498 0.07746634
vt 0.4576534 0.02826151
vt 0.4576534 0.09724793
vt 0.871573 0.09724793
vt 0.871573 0.02826151
vt 0.8948928 0.1920907
vt 0.8948928 0.219599
vt 0.9638787 0.219599
vt 0.9638787 0.1920907
vt 0.8917094 0.2400447
vt 0.8917094 0.2675529
vt 0.9606953 0.2675529
vt 0.9606953 0.2400447
vt 0.411374 0.6273196
vt 0.4327468 0.6428549
vt 0.4327468 0.6273196
vt 0.411374 0.6428549
vt 0.3900002 0.6273196
vt 0.3900002 0.6428549
vt 0.3686274 0.6273196
vt 0.3686274 0.6428549
vt 0.3472537 0.6273196
vt 0.3472537 0.6428549
vt 0.3258809 0.6273196
vt 0.3258809 0.6428549
vt 0.3045071 0.6273196
vt 0.3045071 0.6428549
vt 0.2707492 0.6537656
vt 0.2386896 0.6722749
vt 0.2600628 0.6722752
vt 0.2386896 0.6352562
vt 0.2600628 0.6352562
vt 0.2280032 0.6537656
vt 0.411374 0.6273196
vt 0.4327468 0.6428549
vt 0.4327468 0.6273196
vt 0.411374 0.6428549
vt 0.3900002 0.6273196
vt 0.3900002 0.6428549
vt 0.3686274 0.6273196
vt 0.3686274 0.6428549
vt 0.3472537 0.6273196
vt 0.3472537 0.6428549
vt 0.3258809 0.6273196
vt 0.3258809 0.6428549
vt 0.3045071 0.6273196
vt 0.3045071 0.6428549
vt 0.2707492 0.6537656
vt 0.2386896 0.6722749
vt 0.2600628 0.6722752
vt 0.2386896 0.6352562
vt 0.2600628 0.6352562
vt 0.2280032 0.6537656
vn -0.8660254 0 0.5
vn 0 0 1
vn 0 0 1
vn -0.8660254 0 0.5
vn -0.8660262 0 -0.4999987
vn -0.8660262 0 -0.4999987
vn -8.761378E-07 0 -1
vn -8.761378E-07 0 -1
vn 0.8660258 0 -0.4999995
vn 0.8660258 0 -0.4999995
vn 0.8660251 0 0.5000004
vn 0.8660251 0 0.5000004
vn 0 0 1
vn 0 0 1
vn 0 1 0
vn 0 1 0
vn 0 1 0
vn 0 1 0
vn 0 1 3.26635E-07
vn 0 1 0
vn -0.8660256 0 0.4999996
vn 0 0 1
vn 0 0 1
vn -0.8660256 0 0.4999996
vn -0.8660262 0 -0.4999985
vn -0.8660262 0 -0.4999985
vn 0 0 -1
vn 0 0 -1
vn 0.8660258 0 -0.4999994
vn 0.8660258 0 -0.4999994
vn 0.8660253 0 0.5000004
vn 0.8660253 0 0.5000004
vn 0 0 1
vn 0 0 1
vn 0 1 0
vn 0 1 0
vn 0 1 0
vn 0 1 0
vn 0 1 0
vn 0 1 3.266341E-07
vn -0.8660255 0 0.4999998
vn 0 0 1
vn 0 0 1
vn -0.8660255 0 0.4999998
vn -0.8660262 0 -0.4999987
vn -0.8660262 0 -0.4999987
vn -4.648894E-07 0 -1
vn -4.648894E-07 0 -1
vn 0.8660257 0 -0.4999995
vn 0.8660257 0 -0.4999995
vn 0.8660251 0 0.5000005
vn 0.8660251 0 0.5000005
vn 0 0 1
vn 0 0 1
vn 0 1 0
vn 0 1 0
vn 0 1 0
vn 0 1 0
vn 0 1 0
vn 0 1 3.266342E-07
vn -0.8660258 0 0.4999995
vn 2.503251E-07 0 1
vn 2.503251E-07 0 1
vn -0.8660258 0 0.4999995
vn -0.8660262 0 -0.4999985
vn -0.8660262 0 -0.4999985
vn 0 0 -1
vn 0 0 -1
vn 0.8660257 0 -0.4999995
vn 0.8660257 0 -0.4999995
vn 0.8660253 0 0.5000004
vn 0.8660253 0 0.5000004
vn 2.503251E-07 0 1
vn 2.503251E-07 0 1
vn 0 1 0
vn 0 1 0
vn 0 1 0
vn 0 1 0
vn 0 1 0
vn 0 1 3.266342E-07
vn -1 0 0
vn -1 0 0
vn -1 0 0
vn -1 0 0
vn 0 1 0
vn 0 1 0
vn 0 1 0
vn 0 1 0
vn 1 0 0
vn 1 0 0
vn 1 0 0
vn 1 0 0
vn 0 -1 0
vn 0 -1 0
vn 0 -1 0
vn 0 -1 0
vn 0 0 1
vn 0 0 1
vn 0 0 1
vn 0 0 1
vn 0 0 -1
vn 0 0 -1
vn 0 0 -1
vn 0 0 -1
vn -0.8660254 0 0.5
vn 0 0 1
vn 0 0 1
vn -0.8660254 0 0.5
vn -0.8660265 0 -0.4999982
vn -0.8660265 0 -0.4999982
vn 0 0 -1
vn 0 0 -1
vn 0.866026 0 -0.499999
vn 0.866026 0 -0.499999
vn 0.866025 0 0.5000008
vn 0.866025 0 0.5000008
vn 0 0 1
vn 0 0 1
vn 0 1 0
vn 0 1 0
vn 0 1 0
vn 0 1 0
vn 0 1 0
vn 0 1 3.266331E-07
vn -0.8660257 0 0.4999995
vn 0 0 1
vn 0 0 1
vn -0.8660257 0 0.4999995
vn -0.8660263 0 -0.4999985
vn -0.8660263 0 -0.4999985
vn -1.966841E-07 0 -1
vn -1.966841E-07 0 -1
vn 0.8660258 0 -0.4999993
vn 0.8660258 0 -0.4999993
vn 0.8660253 0 0.5000003
vn 0.8660253 0 0.5000003
vn 0 0 1
vn 0 0 1
vn 0 1 0
vn 0 1 0
vn 0 1 0
vn 0 1 0
vn 0 1 0
vn 0 1 3.266342E-07
g Flat_6_Stud_2_0
f 3/3/3 2/2/2 1/1/1
f 2/2/2 4/4/4 1/1/1
f 1/1/1 4/4/4 5/5/5
f 4/4/4 6/6/6 5/5/5
f 5/5/5 6/6/6 7/7/7
f 6/6/6 8/8/8 7/7/7
f 7/7/7 8/8/8 9/9/9
f 8/8/8 10/10/10 9/9/9
f 9/9/9 10/10/10 11/11/11
f 10/10/10 12/12/12 11/11/11
f 11/11/11 12/12/12 13/13/13
f 12/12/12 14/14/14 13/13/13
f 17/17/17 16/16/16 15/15/15
f 16/16/16 18/18/18 15/15/15
f 18/18/18 19/19/19 15/15/15
f 16/16/16 20/20/20 18/18/18
f 23/23/23 22/22/22 21/21/21
f 22/22/22 24/24/24 21/21/21
f 21/21/21 24/24/24 25/25/25
f 24/24/24 26/26/26 25/25/25
f 25/25/25 26/26/26 27/27/27
f 26/26/26 28/28/28 27/27/27
f 27/27/27 28/28/28 29/29/29
f 28/28/28 30/30/30 29/29/29
f 29/29/29 30/30/30 31/31/31
f 30/30/30 32/32/32 31/31/31
f 31/31/31 32/32/32 33/33/33
f 32/32/32 34/34/34 33/33/33
f 37/37/37 36/36/36 35/35/35
f 36/36/36 38/38/38 35/35/35
f 38/38/38 39/39/39 35/35/35
f 36/36/36 40/40/40 38/38/38
f 43/43/43 42/42/42 41/41/41
f 42/42/42 44/44/44 41/41/41
f 41/41/41 44/44/44 45/45/45
f 44/44/44 46/46/46 45/45/45
f 45/45/45 46/46/46 47/47/47
f 46/46/46 48/48/48 47/47/47
f 47/47/47 48/48/48 49/49/49
f 48/48/48 50/50/50 49/49/49
f 49/49/49 50/50/50 51/51/51
f 50/50/50 52/52/52 51/51/51
f 51/51/51 52/52/52 53/53/53
f 52/52/52 54/54/54 53/53/53
f 57/57/57 56/56/56 55/55/55
f 56/56/56 58/58/58 55/55/55
f 58/58/58 59/59/59 55/55/55
f 56/56/56 60/60/60 58/58/58
f 63/63/63 62/62/62 61/61/61
f 62/62/62 64/64/64 61/61/61
f 61/61/61 64/64/64 65/65/65
f 64/64/64 66/66/66 65/65/65
f 65/65/65 66/66/66 67/67/67
f 66/66/66 68/68/68 67/67/67
f 67/67/67 68/68/68 69/69/69
f 68/68/68 70/70/70 69/69/69
f 69/69/69 70/70/70 71/71/71
f 70/70/70 72/72/72 71/71/71
f 71/71/71 72/72/72 73/73/73
f 72/72/72 74/74/74 73/73/73
f 77/77/77 76/76/76 75/75/75
f 76/76/76 78/78/78 75/75/75
f 78/78/78 79/79/79 75/75/75
f 76/76/76 80/80/80 78/78/78
f 83/83/83 82/82/82 81/81/81
f 84/84/84 83/83/83 81/81/81
f 87/87/87 86/86/86 85/85/85
f 88/88/88 87/87/87 85/85/85
f 91/91/91 90/90/90 89/89/89
f 92/92/92 91/91/91 89/89/89
f 95/95/95 94/94/94 93/93/93
f 96/96/96 95/95/95 93/93/93
f 99/99/99 98/98/98 97/97/97
f 100/100/100 99/99/99 97/97/97
f 103/103/103 102/102/102 101/101/101
f 104/104/104 103/103/103 101/101/101
f 107/107/107 106/106/106 105/105/105
f 106/106/106 108/108/108 105/105/105
f 105/105/105 108/108/108 109/109/109
f 108/108/108 110/110/110 109/109/109
f 109/109/109 110/110/110 111/111/111
f 110/110/110 112/112/112 111/111/111
f 111/111/111 112/112/112 113/113/113
f 112/112/112 114/114/114 113/113/113
f 113/113/113 114/114/114 115/115/115
f 114/114/114 116/116/116 115/115/115
f 115/115/115 116/116/116 117/117/117
f 116/116/116 118/118/118 117/117/117
f 121/121/121 120/120/120 119/119/119
f 120/120/120 122/122/122 119/119/119
f 122/122/122 123/123/123 119/119/119
f 120/120/120 124/124/124 122/122/122
f 127/127/127 126/126/126 125/125/125
f 126/126/126 128/128/128 125/125/125
f 125/125/125 128/128/128 129/129/129
f 128/128/128 130/130/130 129/129/129
f 129/129/129 130/130/130 131/131/131
f 130/130/130 132/132/132 131/131/131
f 131/131/131 132/132/132 133/133/133
f 132/132/132 134/134/134 133/133/133
f 133/133/133 134/134/134 135/135/135
f 134/134/134 136/136/136 135/135/135
f 135/135/135 136/136/136 137/137/137
f 136/136/136 138/138/138 137/137/137
f 141/141/141 140/140/140 139/139/139
f 140/140/140 142/142/142 139/139/139
f 142/142/142 143/143/143 139/139/139
f 140/140/140 144/144/144 142/142/142
