g FruitBox
v -0.9999847 0.4989944 1.5
v -0.9999847 0.4989944 -1.5
v 1.525879E-05 1 -1.5
v 1.525879E-05 1 1.5
v -0.9999847 -9.184851E-17 1.5
v -0.9999847 0.4989944 1.5
v 1.525879E-05 1 1.5
v 1.525879E-05 -9.184851E-17 1.5
v 1.525879E-05 9.184851E-17 -1.5
v 1.525879E-05 1 -1.5
v -0.9999847 0.4989944 -1.5
v -0.9999847 9.184851E-17 -1.5
v -0.9999847 9.184851E-17 -1.5
v -0.9999847 0.4989944 -1.5
v -0.9999847 0.4989944 1.5
v -0.9999847 -9.184851E-17 1.5
vt 0.4398773 0.8962941
vt 0.3576072 0.8962941
vt 0.3576072 0.9237172
vt 0.4398773 0.9237176
vt 0.4470738 0.8828528
vt 0.4470738 0.8970743
vt 0.4691511 0.9121527
vt 0.4691511 0.8828528
vt 0.4691511 0.8828528
vt 0.4691511 0.9121527
vt 0.4470738 0.8970743
vt 0.4470738 0.8828528
vt 0.3576072 0.8826101
vt 0.3576072 0.8962941
vt 0.4398773 0.8962941
vt 0.4398773 0.8826101
vn -0.4479327 0.8940673 0
vn -0.4479327 0.8940673 0
vn -0.4479327 0.8940673 0
vn -0.4479327 0.8940673 0
vn 0 0 1
vn 0 0 1
vn 0 0 1
vn 0 0 1
vn 0 0 -1
vn 0 0 -1
vn 0 0 -1
vn 0 0 -1
vn -1 0 0
vn -1 0 0
vn -1 0 0
vn -1 0 0
g FruitBox_0
f 3/3/3 2/2/2 1/1/1
f 4/4/4 3/3/3 1/1/1
f 7/7/7 6/6/6 5/5/5
f 8/8/8 7/7/7 5/5/5
f 11/11/11 10/10/10 9/9/9
f 12/12/12 11/11/11 9/9/9
f 15/15/15 14/14/14 13/13/13
f 16/16/16 15/15/15 13/13/13
