g geo_Eye_R_open
v -0.02405614 1.16166 0.1840817
v -0.08055709 1.220717 0.1729869
v -0.02833349 1.221628 0.1907328
v -0.07750296 1.161433 0.1694631
v -0.02374004 1.104743 0.1844379
v -0.07500578 1.105498 0.1667085
v -0.1163059 1.106699 0.1333111
v -0.1191392 1.162309 0.1358626
v -0.121659 1.221352 0.1377028
vt 0.05553144 0.6706462
vt 0.2829122 0.865722
vt 0.07274508 0.8687313
vt 0.2706212 0.6698987
vt 0.0542593 0.4826403
vt 0.2605716 0.4851357
vt 0.4267786 0.4891009
vt 0.438181 0.6727902
vt 0.4483216 0.8678185
vn -0.2929385 -0.06418518 0.9539745
vn -0.4723318 -0.08379909 0.8774282
vn -0.2904335 -0.09906144 0.9517537
vn -0.4688651 -0.06680837 0.8807396
vn -0.295172 -0.02765554 0.9550438
vn -0.4634273 -0.04735844 0.8848685
vn -0.6280038 -0.06689265 0.7753299
vn -0.633905 -0.06581844 0.7706052
vn -0.6391864 -0.06484799 0.766313
g geo_Eye_R_open_0
f 3/3/3 2/2/2 1/1/1
f 2/2/2 4/4/4 1/1/1
f 1/1/1 4/4/4 5/5/5
f 4/4/4 6/6/6 5/5/5
f 7/7/7 6/6/6 4/4/4
f 8/8/8 7/7/7 4/4/4
f 8/8/8 4/4/4 2/2/2
f 9/9/9 8/8/8 2/2/2
