g geo_Pole
v 0.2226536 0.8105443 -0.9671695
v 0.2226536 0.8105443 -1.059569
v 0.2688533 0.8105443 -0.979549
v 0.2226536 0.8105443 -1.059569
v 0.3026746 0.8105443 -1.01337
v 0.2226536 0.8105443 -1.059569
v 0.3150536 0.8105443 -1.059569
v 0.2226536 0.8105443 -1.059569
v 0.3026746 0.8105443 -1.105769
v 0.2226536 0.8105443 -1.059569
v 0.2688533 0.8105443 -1.139591
v 0.2226536 0.8105443 -1.059569
v 0.2226536 0.8105443 -1.15197
v 0.2226536 0.8105443 -1.059569
v 0.1764533 0.8105443 -1.139591
v 0.2226536 0.8105443 -1.059569
v 0.1426325 0.8105443 -1.105769
v 0.2226536 0.8105443 -1.059569
v 0.1302536 0.8105443 -1.059569
v 0.2226536 0.8105443 -1.059569
v 0.1426325 0.8105443 -1.01337
v 0.2226536 0.8105443 -1.059569
v 0.1764533 0.8105443 -0.979549
v 0.2226536 0.8105443 -1.059569
v 0.2226536 0.8105443 -0.9671695
v 0.2226536 0.8603842 -0.9910387
v 0.2226536 0.8603842 -1.059569
v 0.2694611 0.8603842 -1.012762
v 0.2226536 0.8603842 -1.059569
v 0.2911844 0.8603842 -1.059569
v 0.2226536 0.8603842 -1.059569
v 0.2694611 0.8603842 -1.106377
v 0.2226536 0.8603842 -1.059569
v 0.2226536 0.8603842 -1.1281
v 0.2226536 0.8603842 -1.059569
v 0.1758461 0.8603842 -1.106377
v 0.2226536 0.8603842 -1.059569
v 0.1541228 0.8603842 -1.059569
v 0.2226536 0.8603842 -1.059569
v 0.1758461 0.8603842 -1.012762
v 0.2226536 0.8603842 -1.059569
v 0.2226536 0.8603842 -0.9910387
v 0.2226536 0.7209441 -1.15197
v 0.1764533 0.8105443 -1.139591
v 0.1764533 0.7209441 -1.139591
v 0.2226536 0.8105443 -1.15197
v 0.2688533 0.7209441 -1.139591
v 0.2688533 0.8105443 -1.139591
v 0.3026746 0.7209441 -1.105769
v 0.3026746 0.8105443 -1.105769
v 0.3150536 0.7209441 -1.059569
v 0.3026746 0.8105443 -1.105769
v 0.3026746 0.7209441 -1.105769
v 0.3150536 0.8105443 -1.059569
v 0.3026746 0.7209441 -1.01337
v 0.3026746 0.8105443 -1.01337
v 0.2688533 0.7209441 -0.979549
v 0.3026746 0.8105443 -1.01337
v 0.3026746 0.7209441 -1.01337
v 0.2688533 0.8105443 -0.979549
v 0.2226536 0.7209441 -0.9671695
v 0.2226536 0.8105443 -0.9671695
v 0.1764533 0.7209441 -0.979549
v 0.2226536 0.8105443 -0.9671695
v 0.2226536 0.7209441 -0.9671695
v 0.1764533 0.8105443 -0.979549
v 0.1426325 0.7209441 -1.01337
v 0.1426325 0.8105443 -1.01337
v 0.1302536 0.7209441 -1.059569
v 0.1426325 0.8105443 -1.01337
v 0.1426325 0.7209441 -1.01337
v 0.1302536 0.8105443 -1.059569
v 0.1426325 0.7209441 -1.105769
v 0.1426325 0.8105443 -1.105769
v 0.1764533 0.7209441 -1.139591
v 0.1764533 0.8105443 -1.139591
v 0.1758461 0.8603842 -1.106377
v 0.2226536 0.8105443 -1.1281
v 0.2226536 0.8603842 -1.1281
v 0.1758461 0.8105443 -1.106377
v 0.1541228 0.8603842 -1.059569
v 0.1541228 0.8105443 -1.059569
v 0.2694611 0.8105443 -1.106377
v 0.2226536 0.8603842 -1.1281
v 0.2226536 0.8105443 -1.1281
v 0.2694611 0.8603842 -1.106377
v 0.2911844 0.8105443 -1.059569
v 0.2911844 0.8603842 -1.059569
v 0.2694611 0.8105443 -1.012762
v 0.2911844 0.8603842 -1.059569
v 0.2911844 0.8105443 -1.059569
v 0.2694611 0.8603842 -1.012762
v 0.2226536 0.8105443 -0.9910387
v 0.2694611 0.8603842 -1.012762
v 0.2694611 0.8105443 -1.012762
v 0.2226536 0.8603842 -0.9910387
v 0.1758461 0.8105443 -1.012762
v 0.2226536 0.8603842 -0.9910387
v 0.2226536 0.8105443 -0.9910387
v 0.1758461 0.8603842 -1.012762
v 0.1541228 0.8105443 -1.059569
v 0.1758461 0.8603842 -1.012762
v 0.1758461 0.8105443 -1.012762
v 0.1541228 0.8603842 -1.059569
v 0.2688533 0.7209441 -1.139591
v 0.3150536 0.7209441 -1.059569
v 0.3026746 0.7209441 -1.105769
v 0.1764533 0.7209441 -1.139591
v 0.2226536 0.7209441 -1.15197
v 0.1764533 0.7209441 -0.979549
v 0.2688533 0.7209441 -0.979549
v 0.3026746 0.7209441 -1.01337
v 0.2226536 0.7209441 -0.9671695
v 0.1302536 0.7209441 -1.059569
v 0.1426325 0.7209441 -1.01337
v 0.1426325 0.7209441 -1.105769
v 0.2226536 0.8603847 -1.104583
v 0.1919089 0.9604846 -1.090315
v 0.1919089 0.8603847 -1.090315
v 0.2226536 0.9604846 -1.104583
v 0.2533982 0.8603847 -1.090315
v 0.1919089 1.060585 -1.090315
v 0.2533982 0.9604846 -1.090315
v 0.2226536 1.060585 -1.104583
v 0.1919089 1.160684 -1.090315
v 0.2533982 1.060585 -1.090315
v 0.2226536 1.160684 -1.104583
v 0.1919089 1.260784 -1.090315
v 0.2533982 1.160684 -1.090315
v 0.2226536 1.260784 -1.104583
v 0.1919089 1.360884 -1.090315
v 0.2533982 1.260784 -1.090315
v 0.2226536 1.360884 -1.104583
v 0.1919089 1.460984 -1.090315
v 0.2533982 1.360884 -1.090315
v 0.2226536 1.460984 -1.104583
v 0.2533982 1.460984 -1.090315
v 0.2533982 1.460984 -1.090315
v 0.2676671 1.360884 -1.059569
v 0.2676671 1.460984 -1.059569
v 0.2533982 1.360884 -1.090315
v 0.2676671 1.260784 -1.059569
v 0.2533982 1.260784 -1.090315
v 0.2676671 1.160684 -1.059569
v 0.2533982 1.160684 -1.090315
v 0.2676671 1.060585 -1.059569
v 0.2533982 1.060585 -1.090315
v 0.2676671 0.9604846 -1.059569
v 0.2533982 0.9604846 -1.090315
v 0.2676671 0.8603847 -1.059569
v 0.2533982 0.8603847 -1.090315
v 0.2533982 0.8603846 -1.028825
v 0.2676671 0.9604846 -1.059569
v 0.2676671 0.8603847 -1.059569
v 0.2533982 0.9604846 -1.028825
v 0.2226536 0.8603846 -1.014556
v 0.2676671 1.060585 -1.059569
v 0.2226536 0.9604846 -1.014556
v 0.2533982 1.060585 -1.028825
v 0.2676671 1.160684 -1.059569
v 0.2226536 1.060585 -1.014556
v 0.2533982 1.160684 -1.028825
v 0.2676671 1.260784 -1.059569
v 0.2226536 1.160684 -1.014556
v 0.2533982 1.260784 -1.028825
v 0.2676671 1.360884 -1.059569
v 0.2226536 1.260784 -1.014556
v 0.2533982 1.360884 -1.028825
v 0.2676671 1.460984 -1.059569
v 0.2226536 1.360884 -1.014556
v 0.2533982 1.460984 -1.028825
v 0.2226536 1.460984 -1.014556
v 0.1919089 0.8603846 -1.028825
v 0.2226536 0.9604846 -1.014556
v 0.2226536 0.8603846 -1.014556
v 0.1919089 0.9604846 -1.028825
v 0.17764 0.8603847 -1.059569
v 0.2226536 1.060585 -1.014556
v 0.17764 0.9604846 -1.059569
v 0.1919089 1.060585 -1.028825
v 0.2226536 1.160684 -1.014556
v 0.17764 1.060585 -1.059569
v 0.1919089 1.160684 -1.028825
v 0.2226536 1.260784 -1.014556
v 0.17764 1.160684 -1.059569
v 0.1919089 1.260784 -1.028825
v 0.2226536 1.360884 -1.014556
v 0.17764 1.260784 -1.059569
v 0.1919089 1.360884 -1.028825
v 0.2226536 1.460984 -1.014556
v 0.17764 1.360884 -1.059569
v 0.1919089 1.460984 -1.028825
v 0.17764 1.460984 -1.059569
v 0.17764 1.460984 -1.059569
v 0.1919089 1.360884 -1.090315
v 0.1919089 1.460984 -1.090315
v 0.17764 1.360884 -1.059569
v 0.1919089 1.260784 -1.090315
v 0.17764 1.260784 -1.059569
v 0.1919089 1.160684 -1.090315
v 0.17764 1.160684 -1.059569
v 0.1919089 1.060585 -1.090315
v 0.17764 1.060585 -1.059569
v 0.1919089 0.9604846 -1.090315
v 0.17764 0.9604846 -1.059569
v 0.1919089 0.8603847 -1.090315
v 0.17764 0.8603847 -1.059569
vt 0.3489737 0.06289831
vt 0.3111735 0.07941482
vt 0.3421794 0.06289831
vt 0.3111735 0.07941482
vt 0.3369218 0.06289831
vt 0.3111735 0.07941482
vt 0.3304232 0.06289831
vt 0.3111735 0.07941482
vt 0.3233023 0.06289831
vt 0.3111735 0.07941482
vt 0.3179789 0.06289831
vt 0.3111735 0.07941482
vt 0.3111735 0.06289831
vt 0.3111735 0.07941482
vt 0.3043661 0.06289831
vt 0.3111735 0.07941482
vt 0.299044 0.06289831
vt 0.3111735 0.07941482
vt 0.2919219 0.06289831
vt 0.3111735 0.07941482
vt 0.2854233 0.06289831
vt 0.3111735 0.07941482
vt 0.2801656 0.06289831
vt 0.3111735 0.07941482
vt 0.2733734 0.06289831
vt 0.3538199 0.0590463
vt 0.3865383 0.07564113
vt 0.3620151 0.0590463
vt 0.3865383 0.07564113
vt 0.3699961 0.0590463
vt 0.3865383 0.07564113
vt 0.3783664 0.0590463
vt 0.3865383 0.07564113
vt 0.3865383 0.0590463
vt 0.3865383 0.07564113
vt 0.3947097 0.0590463
vt 0.3865383 0.07564113
vt 0.4030794 0.0590463
vt 0.3865383 0.07564113
vt 0.4110621 0.0590463
vt 0.3865383 0.07564113
vt 0.4192562 0.0590463
vt 0.3111735 0.0447715
vt 0.3043661 0.06289831
vt 0.3043661 0.0447715
vt 0.3111735 0.06289831
vt 0.3179789 0.0447715
vt 0.3179789 0.06289831
vt 0.3233023 0.0447715
vt 0.3233023 0.06289831
vt 0.3304232 0.0447715
vt 0.3233023 0.06289831
vt 0.3233023 0.0447715
vt 0.3304232 0.06289831
vt 0.3369218 0.0447715
vt 0.3369218 0.06289831
vt 0.3421794 0.0447715
vt 0.3369218 0.06289831
vt 0.3369218 0.0447715
vt 0.3421794 0.06289831
vt 0.3489737 0.0447715
vt 0.3489737 0.06289831
vt 0.2801656 0.0447715
vt 0.2733734 0.06289831
vt 0.2733734 0.0447715
vt 0.2801656 0.06289831
vt 0.2854233 0.0447715
vt 0.2854233 0.06289831
vt 0.2919219 0.0447715
vt 0.2854233 0.06289831
vt 0.2854233 0.0447715
vt 0.2919219 0.06289831
vt 0.299044 0.0447715
vt 0.299044 0.06289831
vt 0.3043661 0.0447715
vt 0.3043661 0.06289831
vt 0.3947097 0.0590463
vt 0.3865383 0.0450439
vt 0.3865383 0.0590463
vt 0.3947097 0.0450439
vt 0.4030794 0.0590463
vt 0.4030794 0.0450439
vt 0.3783664 0.0450439
vt 0.3865383 0.0590463
vt 0.3865383 0.0450439
vt 0.3783664 0.0590463
vt 0.3699961 0.0450439
vt 0.3699961 0.0590463
vt 0.3620151 0.0450439
vt 0.3699961 0.0590463
vt 0.3699961 0.0450439
vt 0.3620151 0.0590463
vt 0.3538199 0.0450439
vt 0.3620151 0.0590463
vt 0.3620151 0.0450439
vt 0.3538199 0.0590463
vt 0.4110621 0.0450439
vt 0.4192562 0.0590463
vt 0.4192562 0.0450439
vt 0.4110621 0.0590463
vt 0.4030794 0.0450439
vt 0.4110621 0.0590463
vt 0.4110621 0.0450439
vt 0.4030794 0.0590463
vt 0.8610854 0.7315874
vt 0.8653811 0.7480741
vt 0.8654448 0.7392554
vt 0.8446418 0.7270602
vt 0.853471 0.7271239
vt 0.8367915 0.7555066
vt 0.8532348 0.7600335
vt 0.8609126 0.755679
vt 0.8444063 0.7599705
vt 0.8324955 0.7390203
vt 0.8324319 0.7478384
vt 0.8369638 0.731415
vt 0.005775666 0.4730974
vt 0.03943632 0.4748231
vt 0.005775666 0.4748231
vt 0.03943632 0.4730974
vt 0.005775666 0.471325
vt 0.07309697 0.4748231
vt 0.03943632 0.471325
vt 0.07309697 0.4730974
vt 0.1067576 0.4748231
vt 0.07309697 0.471325
vt 0.1067576 0.4730974
vt 0.1404183 0.4748231
vt 0.1067576 0.471325
vt 0.1404183 0.4730974
vt 0.1740789 0.4748231
vt 0.1404183 0.471325
vt 0.1740789 0.4730974
vt 0.2027067 0.4748231
vt 0.1740789 0.471325
vt 0.2027067 0.4730974
vt 0.2027067 0.471325
vt 0.2027067 0.471325
vt 0.1740789 0.4695857
vt 0.2027067 0.4695857
vt 0.1740789 0.471325
vt 0.1404183 0.4695857
vt 0.1404183 0.471325
vt 0.1067576 0.4695857
vt 0.1067576 0.471325
vt 0.07309697 0.4695857
vt 0.07309697 0.471325
vt 0.03943632 0.4695857
vt 0.03943632 0.471325
vt 0.005775666 0.4695857
vt 0.005775666 0.471325
vt 0.005775666 0.4678454
vt 0.03943632 0.4695857
vt 0.005775666 0.4695857
vt 0.03943632 0.4678454
vt 0.005775666 0.4661051
vt 0.07309697 0.4695857
vt 0.03943632 0.4661051
vt 0.07309697 0.4678454
vt 0.1067576 0.4695857
vt 0.07309697 0.4661051
vt 0.1067576 0.4678454
vt 0.1404183 0.4695857
vt 0.1067576 0.4661051
vt 0.1404183 0.4678454
vt 0.1740789 0.4695857
vt 0.1404183 0.4661051
vt 0.1740789 0.4678454
vt 0.2027067 0.4695857
vt 0.1740789 0.4661051
vt 0.2027067 0.4678454
vt 0.2027067 0.4661051
vt 0.005775666 0.4783332
vt 0.03943632 0.4800893
vt 0.005775666 0.4800893
vt 0.03943632 0.4783332
vt 0.005775666 0.4765783
vt 0.07309697 0.4800893
vt 0.03943632 0.4765783
vt 0.07309697 0.4783332
vt 0.1067576 0.4800893
vt 0.07309697 0.4765783
vt 0.1067576 0.4783332
vt 0.1404183 0.4800893
vt 0.1067576 0.4765783
vt 0.1404183 0.4783332
vt 0.1740789 0.4800893
vt 0.1404183 0.4765783
vt 0.1740789 0.4783332
vt 0.2027067 0.4800893
vt 0.1740789 0.4765783
vt 0.2027067 0.4783332
vt 0.2027067 0.4765783
vt 0.2027067 0.4765783
vt 0.1740789 0.4748231
vt 0.2027067 0.4748231
vt 0.1740789 0.4765783
vt 0.1404183 0.4748231
vt 0.1404183 0.4765783
vt 0.1067576 0.4748231
vt 0.1067576 0.4765783
vt 0.07309697 0.4748231
vt 0.07309697 0.4765783
vt 0.03943632 0.4748231
vt 0.03943632 0.4765783
vt 0.005775666 0.4748231
vt 0.005775666 0.4765783
vn 0 1 3.662475E-07
vn 0 1 1.512233E-07
vn -2.793254E-07 1 2.049794E-07
vn 0 1 1.512233E-07
vn 0 1 0
vn 0 1 1.512233E-07
vn 0 1 0
vn 0 1 1.512233E-07
vn 0 1 0
vn 0 1 1.512233E-07
vn 2.793275E-07 1 2.049796E-07
vn 0 1 1.512233E-07
vn 0 1 3.662475E-07
vn 0 1 1.512233E-07
vn -2.793238E-07 1 2.049793E-07
vn 0 1 1.512233E-07
vn 0 1 0
vn 0 1 1.512233E-07
vn 0 1 0
vn 0 1 1.512233E-07
vn 0 1 0
vn 0 1 1.512233E-07
vn 2.793215E-07 1 2.049791E-07
vn 0 1 1.512233E-07
vn 0 1 3.662475E-07
vn 0 1 0
vn 0 1 0
vn 0 1 0
vn 0 1 0
vn 0 1 0
vn 0 1 0
vn 0 1 0
vn 0 1 0
vn 0 1 0
vn 0 1 0
vn 0 1 0
vn 0 1 0
vn 0 1 0
vn 0 1 0
vn 0 1 0
vn 0 1 0
vn 0 1 0
vn 1.443687E-06 2.100186E-07 -1
vn -0.5 1.818815E-07 -0.8660254
vn -0.5 1.818815E-07 -0.8660254
vn 1.433866E-06 2.100186E-07 -1
vn 0.4999977 1.818818E-07 -0.8660268
vn 0.4999977 1.818818E-07 -0.8660268
vn 0.8660267 1.050089E-07 -0.4999978
vn 0.8660267 1.046968E-07 -0.4999977
vn 1 0 0
vn 0.8660267 1.046968E-07 -0.4999977
vn 0.8660267 1.050089E-07 -0.4999978
vn 1 0 0
vn 0.8660248 -1.046975E-07 0.5000011
vn 0.8660247 -1.050096E-07 0.5000011
vn 0.4999991 -1.818816E-07 0.866026
vn 0.8660247 -1.050096E-07 0.5000011
vn 0.8660248 -1.046975E-07 0.5000011
vn 0.4999991 -1.818816E-07 0.8660259
vn 1.443691E-06 -2.100187E-07 1
vn 1.443691E-06 -2.100187E-07 1
vn -0.5000011 -1.818814E-07 0.8660248
vn 1.443691E-06 -2.100187E-07 1
vn 1.443691E-06 -2.100187E-07 1
vn -0.5000011 -1.818814E-07 0.8660248
vn -0.8660267 -1.050089E-07 0.4999978
vn -0.8660267 -1.046968E-07 0.4999978
vn -1 0 0
vn -0.8660267 -1.046968E-07 0.4999978
vn -0.8660267 -1.050089E-07 0.4999978
vn -1 0 0
vn -0.8660287 1.04696E-07 -0.4999942
vn -0.8660287 1.050081E-07 -0.4999942
vn -0.5 1.818815E-07 -0.8660254
vn -0.5 1.818815E-07 -0.8660254
vn -0.7071068 1.366143E-07 -0.7071066
vn 0 1.932018E-07 -1
vn 0 1.932018E-07 -1
vn -0.7071068 1.380862E-07 -0.7071066
vn -1 0 0
vn -1 0 0
vn 0.7071068 1.366143E-07 -0.7071068
vn 0 1.932018E-07 -1
vn 0 1.932018E-07 -1
vn 0.7071068 1.380862E-07 -0.7071068
vn 1 0 0
vn 1 0 0
vn 0.7071068 -1.380862E-07 0.7071068
vn 1 0 0
vn 1 0 0
vn 0.7071066 -1.366143E-07 0.7071068
vn 0 -1.932018E-07 1
vn 0.7071066 -1.366143E-07 0.7071068
vn 0.7071068 -1.380862E-07 0.7071068
vn 0 -1.932018E-07 1
vn -0.7071068 -1.366143E-07 0.7071068
vn 0 -1.932018E-07 1
vn 0 -1.932018E-07 1
vn -0.7071066 -1.380862E-07 0.7071068
vn -1 0 0
vn -0.7071066 -1.380862E-07 0.7071068
vn -0.7071068 -1.366143E-07 0.7071068
vn -1 0 0
vn 0 -1 0
vn 0 -1 0
vn 0 -1 0
vn 0 -1 0
vn 0 -1 0
vn 0 -1 0
vn 0 -1 0
vn 0 -1 0
vn 0 -1 0
vn 0 -1 0
vn 0 -1 0
vn 0 -1 0
vn 0 1.999443E-07 -1
vn -0.7071041 1.453654E-07 -0.7071094
vn -0.707104 1.485209E-07 -0.7071095
vn 0 2.111821E-07 -1
vn 0.707104 1.422098E-07 -0.7071095
vn -0.7071041 1.475575E-07 -0.7071094
vn 0.7071041 1.524844E-07 -0.7071095
vn 0 2.07497E-07 -1
vn -0.7071041 1.42346E-07 -0.7071095
vn 0.7071039 1.42346E-07 -0.7071096
vn 0 1.962593E-07 -1
vn -0.7071041 1.453654E-07 -0.7071095
vn 0.7071041 1.404385E-07 -0.7071095
vn 0 2.111821E-07 -1
vn -0.7071041 1.524844E-07 -0.7071094
vn 0.7071039 1.524844E-07 -0.7071096
vn 0 2.111821E-07 -1
vn -0.7071041 1.422098E-07 -0.7071095
vn 0.7071039 1.453654E-07 -0.7071096
vn 0 1.999444E-07 -1
vn 0.707104 1.48521E-07 -0.7071095
vn 0.707104 1.48521E-07 -0.7071095
vn 1 0 3.26559E-06
vn 1 0 3.310038E-06
vn 0.7071039 1.453654E-07 -0.7071096
vn 1 0 3.23683E-06
vn 0.7071039 1.524844E-07 -0.7071096
vn 1 0 3.242059E-06
vn 0.7071041 1.404385E-07 -0.7071095
vn 1 0 3.262975E-06
vn 0.7071039 1.42346E-07 -0.7071096
vn 1 0 3.2316E-06
vn 0.7071041 1.524844E-07 -0.7071095
vn 1 0 3.200225E-06
vn 0.707104 1.422098E-07 -0.7071095
vn 0.7071068 -1.485204E-07 0.7071068
vn 1 0 3.2316E-06
vn 1 0 3.200225E-06
vn 0.7071068 -1.453649E-07 0.7071068
vn 0 -1.999443E-07 1
vn 1 0 3.262975E-06
vn 0 -2.111821E-07 1
vn 0.7071068 -1.524838E-07 0.7071068
vn 1 0 3.242059E-06
vn 0 -2.111821E-07 1
vn 0.7071068 -1.40438E-07 0.7071068
vn 1 0 3.23683E-06
vn 0 -1.962593E-07 1
vn 0.7071068 -1.423454E-07 0.7071066
vn 1 0 3.26559E-06
vn 0 -2.07497E-07 1
vn 0.7071068 -1.524838E-07 0.7071066
vn 1 0 3.310038E-06
vn 0 -2.111821E-07 1
vn 0.7071068 -1.422094E-07 0.7071068
vn 0 -1.999444E-07 1
vn -0.7071068 -1.422093E-07 0.7071068
vn 0 -2.111821E-07 1
vn 0 -1.999443E-07 1
vn -0.7071066 -1.524838E-07 0.7071068
vn -1 0 3.346641E-06
vn 0 -2.111821E-07 1
vn -1 0 3.388474E-06
vn -0.7071068 -1.453649E-07 0.7071068
vn 0 -1.962593E-07 1
vn -1 0 3.325724E-06
vn -0.7071068 -1.423455E-07 0.7071068
vn 0 -2.07497E-07 1
vn -1 0 3.367558E-06
vn -0.7071066 -1.475569E-07 0.7071068
vn 0 -2.111821E-07 1
vn -1 0 3.391089E-06
vn -0.7071066 -1.453649E-07 0.7071068
vn 0 -1.999444E-07 1
vn -1 0 3.341411E-06
vn -0.7071068 -1.485204E-07 0.7071068
vn -1 0 3.372787E-06
vn -1 0 3.372787E-06
vn -0.7071041 1.524844E-07 -0.7071094
vn -0.7071041 1.422098E-07 -0.7071095
vn -1 0 3.341411E-06
vn -0.7071041 1.453654E-07 -0.7071095
vn -1 0 3.391089E-06
vn -0.7071041 1.42346E-07 -0.7071095
vn -1 0 3.367558E-06
vn -0.7071041 1.475575E-07 -0.7071094
vn -1 0 3.325724E-06
vn -0.7071041 1.453654E-07 -0.7071094
vn -1 0 3.388474E-06
vn -0.707104 1.485209E-07 -0.7071095
vn -1 0 3.346641E-06
g geo_Pole_0
f 3/3/3 2/2/2 1/1/1
f 5/5/5 4/4/4 3/3/3
f 7/7/7 6/6/6 5/5/5
f 9/9/9 8/8/8 7/7/7
f 11/11/11 10/10/10 9/9/9
f 13/13/13 12/12/12 11/11/11
f 15/15/15 14/14/14 13/13/13
f 17/17/17 16/16/16 15/15/15
f 19/19/19 18/18/18 17/17/17
f 21/21/21 20/20/20 19/19/19
f 23/23/23 22/22/22 21/21/21
f 25/25/25 24/24/24 23/23/23
f 28/28/28 27/27/27 26/26/26
f 30/30/30 29/29/29 28/28/28
f 32/32/32 31/31/31 30/30/30
f 34/34/34 33/33/33 32/32/32
f 36/36/36 35/35/35 34/34/34
f 38/38/38 37/37/37 36/36/36
f 40/40/40 39/39/39 38/38/38
f 42/42/42 41/41/41 40/40/40
f 45/45/45 44/44/44 43/43/43
f 46/46/46 43/43/43 44/44/44
f 43/43/43 46/46/46 47/47/47
f 48/48/48 47/47/47 46/46/46
f 47/47/47 48/48/48 49/49/49
f 50/50/50 49/49/49 48/48/48
f 53/53/53 52/52/52 51/51/51
f 54/54/54 51/51/51 52/52/52
f 51/51/51 54/54/54 55/55/55
f 56/56/56 55/55/55 54/54/54
f 59/59/59 58/58/58 57/57/57
f 60/60/60 57/57/57 58/58/58
f 57/57/57 60/60/60 61/61/61
f 62/62/62 61/61/61 60/60/60
f 65/65/65 64/64/64 63/63/63
f 66/66/66 63/63/63 64/64/64
f 63/63/63 66/66/66 67/67/67
f 68/68/68 67/67/67 66/66/66
f 71/71/71 70/70/70 69/69/69
f 72/72/72 69/69/69 70/70/70
f 69/69/69 72/72/72 73/73/73
f 74/74/74 73/73/73 72/72/72
f 73/73/73 74/74/74 75/75/75
f 76/76/76 75/75/75 74/74/74
f 79/79/79 78/78/78 77/77/77
f 80/80/80 77/77/77 78/78/78
f 77/77/77 80/80/80 81/81/81
f 82/82/82 81/81/81 80/80/80
f 85/85/85 84/84/84 83/83/83
f 86/86/86 83/83/83 84/84/84
f 83/83/83 86/86/86 87/87/87
f 88/88/88 87/87/87 86/86/86
f 91/91/91 90/90/90 89/89/89
f 92/92/92 89/89/89 90/90/90
f 95/95/95 94/94/94 93/93/93
f 96/96/96 93/93/93 94/94/94
f 99/99/99 98/98/98 97/97/97
f 100/100/100 97/97/97 98/98/98
f 103/103/103 102/102/102 101/101/101
f 104/104/104 101/101/101 102/102/102
f 107/107/107 106/106/106 105/105/105
f 106/106/106 108/108/108 105/105/105
f 105/105/105 108/108/108 109/109/109
f 110/110/110 108/108/108 106/106/106
f 111/111/111 110/110/110 106/106/106
f 112/112/112 111/111/111 106/106/106
f 113/113/113 110/110/110 111/111/111
f 114/114/114 108/108/108 110/110/110
f 115/115/115 114/114/114 110/110/110
f 116/116/116 108/108/108 114/114/114
f 119/119/119 118/118/118 117/117/117
f 120/120/120 117/117/117 118/118/118
f 117/117/117 120/120/120 121/121/121
f 118/118/118 122/122/122 120/120/120
f 123/123/123 121/121/121 120/120/120
f 124/124/124 120/120/120 122/122/122
f 120/120/120 124/124/124 123/123/123
f 122/122/122 125/125/125 124/124/124
f 126/126/126 123/123/123 124/124/124
f 127/127/127 124/124/124 125/125/125
f 124/124/124 127/127/127 126/126/126
f 125/125/125 128/128/128 127/127/127
f 129/129/129 126/126/126 127/127/127
f 130/130/130 127/127/127 128/128/128
f 127/127/127 130/130/130 129/129/129
f 128/128/128 131/131/131 130/130/130
f 132/132/132 129/129/129 130/130/130
f 133/133/133 130/130/130 131/131/131
f 130/130/130 133/133/133 132/132/132
f 131/131/131 134/134/134 133/133/133
f 135/135/135 132/132/132 133/133/133
f 136/136/136 133/133/133 134/134/134
f 133/133/133 136/136/136 135/135/135
f 137/137/137 135/135/135 136/136/136
f 140/140/140 139/139/139 138/138/138
f 141/141/141 138/138/138 139/139/139
f 139/139/139 142/142/142 141/141/141
f 143/143/143 141/141/141 142/142/142
f 142/142/142 144/144/144 143/143/143
f 145/145/145 143/143/143 144/144/144
f 144/144/144 146/146/146 145/145/145
f 147/147/147 145/145/145 146/146/146
f 146/146/146 148/148/148 147/147/147
f 149/149/149 147/147/147 148/148/148
f 148/148/148 150/150/150 149/149/149
f 151/151/151 149/149/149 150/150/150
f 154/154/154 153/153/153 152/152/152
f 155/155/155 152/152/152 153/153/153
f 152/152/152 155/155/155 156/156/156
f 153/153/153 157/157/157 155/155/155
f 158/158/158 156/156/156 155/155/155
f 159/159/159 155/155/155 157/157/157
f 155/155/155 159/159/159 158/158/158
f 157/157/157 160/160/160 159/159/159
f 161/161/161 158/158/158 159/159/159
f 162/162/162 159/159/159 160/160/160
f 159/159/159 162/162/162 161/161/161
f 160/160/160 163/163/163 162/162/162
f 164/164/164 161/161/161 162/162/162
f 165/165/165 162/162/162 163/163/163
f 162/162/162 165/165/165 164/164/164
f 163/163/163 166/166/166 165/165/165
f 167/167/167 164/164/164 165/165/165
f 168/168/168 165/165/165 166/166/166
f 165/165/165 168/168/168 167/167/167
f 166/166/166 169/169/169 168/168/168
f 170/170/170 167/167/167 168/168/168
f 171/171/171 168/168/168 169/169/169
f 168/168/168 171/171/171 170/170/170
f 172/172/172 170/170/170 171/171/171
f 175/175/175 174/174/174 173/173/173
f 176/176/176 173/173/173 174/174/174
f 173/173/173 176/176/176 177/177/177
f 174/174/174 178/178/178 176/176/176
f 179/179/179 177/177/177 176/176/176
f 180/180/180 176/176/176 178/178/178
f 176/176/176 180/180/180 179/179/179
f 178/178/178 181/181/181 180/180/180
f 182/182/182 179/179/179 180/180/180
f 183/183/183 180/180/180 181/181/181
f 180/180/180 183/183/183 182/182/182
f 181/181/181 184/184/184 183/183/183
f 185/185/185 182/182/182 183/183/183
f 186/186/186 183/183/183 184/184/184
f 183/183/183 186/186/186 185/185/185
f 184/184/184 187/187/187 186/186/186
f 188/188/188 185/185/185 186/186/186
f 189/189/189 186/186/186 187/187/187
f 186/186/186 189/189/189 188/188/188
f 187/187/187 190/190/190 189/189/189
f 191/191/191 188/188/188 189/189/189
f 192/192/192 189/189/189 190/190/190
f 189/189/189 192/192/192 191/191/191
f 193/193/193 191/191/191 192/192/192
f 196/196/196 195/195/195 194/194/194
f 197/197/197 194/194/194 195/195/195
f 195/195/195 198/198/198 197/197/197
f 199/199/199 197/197/197 198/198/198
f 198/198/198 200/200/200 199/199/199
f 201/201/201 199/199/199 200/200/200
f 200/200/200 202/202/202 201/201/201
f 203/203/203 201/201/201 202/202/202
f 202/202/202 204/204/204 203/203/203
f 205/205/205 203/203/203 204/204/204
f 204/204/204 206/206/206 205/205/205
f 207/207/207 205/205/205 206/206/206
