g geo_EyeBrow_L_07
v -0.008746866 1.459644 0.1701618
v 0.04502049 1.393099 0.1622731
v -0.01184403 1.393623 0.1742331
v 0.04702543 1.457192 0.1566976
v 0.09119251 1.391598 0.1332247
v 0.09190825 1.453722 0.1258544
vt 0.6292513 0.4255092
vt 0.7489955 0.2997322
vt 0.6292513 0.2997322
vt 0.7489955 0.4255092
vt 0.8687397 0.2997322
vt 0.8687397 0.4255092
vn 0.2213305 0.06346958 0.9731312
vn 0.3807718 0.06920599 0.9220755
vn 0.2213306 0.06346958 0.9731313
vn 0.3863155 0.06937639 0.9197539
vn 0.5508463 0.07339811 0.831373
vn 0.5508463 0.07339811 0.831373
g geo_EyeBrow_L_07_0
f 3/3/3 2/2/2 1/1/1
f 2/2/2 4/4/4 1/1/1
f 2/2/2 5/5/5 4/4/4
f 5/5/5 6/6/6 4/4/4
