g geo_Mouth_02
v -0.04675753 1.300183 0.1719792
v -0.04675753 1.317278 0.1700987
v -0.001836028 1.320917 0.1801513
v -0.001836028 1.291679 0.1839762
v -0.04675753 1.266741 0.1718076
v 0.04308548 1.317278 0.1700987
v -0.001836028 1.26993 0.1806167
v 0.04308548 1.300183 0.1719792
v 0.04308548 1.266741 0.1718076
vt 0.4896946 0.8438763
vt 0.4896946 0.8936322
vt 0.6117713 0.8936322
vt 0.6117713 0.8110483
vt 0.4896946 0.7585809
vt 0.733848 0.8936322
vt 0.6117713 0.7585809
vt 0.733848 0.8438763
vt 0.733848 0.7585809
vn -0.2306057 0.03198977 0.9725213
vn -0.2305804 0.1189236 0.9657587
vn 0 0.1222169 0.9925034
vn 0 0.01085787 0.9999411
vn -0.2286639 -0.06215542 0.9715192
vn 0.2305804 0.1189236 0.9657587
vn -1.380054E-07 -0.06384704 0.9979597
vn 0.2306056 0.03198976 0.9725213
vn 0.2286636 -0.06215546 0.9715192
g geo_Mouth_02_0
f 3/3/3 2/2/2 1/1/1
f 4/4/4 3/3/3 1/1/1
f 4/4/4 1/1/1 5/5/5
f 6/6/6 3/3/3 4/4/4
f 7/7/7 4/4/4 5/5/5
f 8/8/8 6/6/6 4/4/4
f 4/4/4 7/7/7 9/9/9
f 8/8/8 4/4/4 9/9/9
