g geo_Mouth_04
v -0.05480424 1.058243 0.167836
v -0.05480424 1.078633 0.1727784
v 0 1.078633 0.1858216
v 0 1.043505 0.1780665
v -0.05480424 1.019951 0.1537504
v 0.05480424 1.078633 0.1727784
v 0 1.019951 0.16518
v 0.05480424 1.058243 0.167836
v 0.05480424 1.019951 0.1537504
vt 0.00436502 0.6467046
vt 0.00436502 0.6964605
vt 0.1264417 0.6964605
vt 0.1264417 0.6138766
vt 0.00436502 0.5614092
vt 0.2485184 0.6964605
vt 0.1264417 0.5614092
vt 0.2485184 0.6467046
vt 0.2485184 0.5614092
vn -0.2306063 -0.3009838 0.9253266
vn -0.2305815 -0.2169398 0.9485617
vn 1.104958E-07 -0.2229476 0.9748304
vn 0 -0.3301876 0.9439154
vn -0.228664 -0.389164 0.8923364
vn 0.2305817 -0.2169398 0.9485617
vn 0 -0.3997553 0.9166219
vn 0.2306063 -0.3009838 0.9253266
vn 0.2286638 -0.389164 0.8923364
g geo_Mouth_04_0
f 3/3/3 2/2/2 1/1/1
f 4/4/4 3/3/3 1/1/1
f 4/4/4 1/1/1 5/5/5
f 6/6/6 3/3/3 4/4/4
f 7/7/7 4/4/4 5/5/5
f 8/8/8 6/6/6 4/4/4
f 4/4/4 7/7/7 9/9/9
f 8/8/8 4/4/4 9/9/9
