g geo_Mouth_00
v -0.04492151 1.300918 0.1717133
v -0.04492151 1.318012 0.1698328
v 5.265114E-31 1.321652 0.1798854
v 5.269716E-31 1.292414 0.1837103
v -0.04492151 1.267475 0.1715418
v 0.04492151 1.318012 0.1698328
v 5.265674E-31 1.270664 0.1803508
v 0.04492151 1.300918 0.1717133
v 0.04492151 1.267475 0.1715418
vt 0.003629304 0.8438763
vt 0.003629304 0.8936322
vt 0.125706 0.8936322
vt 0.125706 0.8110483
vt 0.003629304 0.7585809
vt 0.2477827 0.8936322
vt 0.125706 0.7585809
vt 0.2477827 0.8438763
vt 0.2477827 0.7585809
vn -0.230606 0.03198979 0.9725212
vn -0.230582 0.1189243 0.9657583
vn 0 0.1222176 0.9925033
vn 0 0.01085787 0.9999411
vn -0.2286628 -0.06215516 0.9715195
vn 0.230582 0.1189243 0.9657583
vn 0 -0.06384673 0.9979597
vn 0.2306061 0.03198979 0.9725212
vn 0.2286629 -0.06215515 0.9715195
g geo_Mouth_00_0
f 3/3/3 2/2/2 1/1/1
f 4/4/4 3/3/3 1/1/1
f 4/4/4 1/1/1 5/5/5
f 6/6/6 3/3/3 4/4/4
f 7/7/7 4/4/4 5/5/5
f 8/8/8 6/6/6 4/4/4
f 4/4/4 7/7/7 9/9/9
f 8/8/8 4/4/4 9/9/9
