g geo_EyeBrow_R_01
v -0.0003288227 1.222281 0.1929851
v 0.003449717 1.14169 0.1888013
v -0.06592499 1.142707 0.1742315
v -0.06837104 1.221168 0.1763256
v -0.1222549 1.1449 0.138813
v -0.1231281 1.221221 0.1384596
vt 0.3494296 0.8795788
vt 0.3494296 0.7538018
vt 0.4691738 0.7538018
vt 0.4691738 0.8795788
vt 0.5889181 0.7538018
vt 0.5889181 0.8795788
vn -0.2213304 -0.04710895 0.9740604
vn -0.2213304 -0.04710895 0.9740604
vn -0.380772 -0.03562935 0.9239823
vn -0.3863155 -0.03519723 0.9216949
vn -0.5508459 -0.02119571 0.8343378
vn -0.5508459 -0.02119571 0.8343378
g geo_EyeBrow_R_01_0
f 3/3/3 2/2/2 1/1/1
f 4/4/4 3/3/3 1/1/1
f 5/5/5 3/3/3 4/4/4
f 6/6/6 5/5/5 4/4/4
