g geo_Mouth_09
v -0.04492151 1.299449 0.172245
v -0.04492151 1.316543 0.1703645
v 5.265753E-31 1.320183 0.1804172
v 5.270355E-31 1.290945 0.1842421
v -0.04492151 1.266006 0.1720735
v 0.04492151 1.316543 0.1703645
v 5.266314E-31 1.269195 0.1808825
v 0.04492151 1.299449 0.172245
v 0.04492151 1.266006 0.1720735
vt 0.2583969 0.4178972
vt 0.2583969 0.4676531
vt 0.3804736 0.4676531
vt 0.3804736 0.3850692
vt 0.2583969 0.3326018
vt 0.5025503 0.4676531
vt 0.3804736 0.3326018
vt 0.5025503 0.4178972
vt 0.5025503 0.3326018
vn -0.2306053 0.0319895 0.9725214
vn -0.2305803 0.1189239 0.9657587
vn 0 0.1222173 0.9925034
vn 0 0.01085766 0.9999411
vn -0.2286632 -0.06215485 0.9715195
vn 0.2305803 0.1189239 0.9657587
vn 0 -0.06384642 0.9979597
vn 0.2306053 0.03198951 0.9725214
vn 0.2286631 -0.06215484 0.9715195
g geo_Mouth_09_0
f 3/3/3 2/2/2 1/1/1
f 4/4/4 3/3/3 1/1/1
f 4/4/4 1/1/1 5/5/5
f 6/6/6 3/3/3 4/4/4
f 7/7/7 4/4/4 5/5/5
f 8/8/8 6/6/6 4/4/4
f 4/4/4 7/7/7 9/9/9
f 8/8/8 4/4/4 9/9/9
