g geo_PartsPole
v 0.2239999 0.7415932 -0.5894669
v 0.2239999 0.7415932 -0.6818666
v 0.2701997 0.7415932 -0.6018462
v 0.2239999 0.7415932 -0.6818666
v 0.304021 0.7415932 -0.6356667
v 0.2239999 0.7415932 -0.6818666
v 0.3163999 0.7415932 -0.6818666
v 0.2239999 0.7415932 -0.6818666
v 0.304021 0.7415932 -0.7280667
v 0.2239999 0.7415932 -0.6818666
v 0.2701997 0.7415932 -0.7618878
v 0.2239999 0.7415932 -0.6818666
v 0.2239999 0.7415932 -0.7742667
v 0.2239999 0.7415932 -0.6818666
v 0.1777996 0.7415932 -0.7618878
v 0.2239999 0.7415932 -0.6818666
v 0.1439789 0.7415932 -0.7280667
v 0.2239999 0.7415932 -0.6818666
v 0.1316 0.7415932 -0.6818666
v 0.2239999 0.7415932 -0.6818666
v 0.1439789 0.7415932 -0.6356667
v 0.2239999 0.7415932 -0.6818666
v 0.1777996 0.7415932 -0.6018462
v 0.2239999 0.7415932 -0.6818666
v 0.2239999 0.7415932 -0.5894669
v 0.2239999 0.7914332 -0.6133358
v 0.2239999 0.7914332 -0.6818666
v 0.2708074 0.7914332 -0.6350594
v 0.2239999 0.7914332 -0.6818666
v 0.2925306 0.7914332 -0.6818666
v 0.2239999 0.7914332 -0.6818666
v 0.2708074 0.7914332 -0.7286742
v 0.2239999 0.7914332 -0.6818666
v 0.2239999 0.7914332 -0.7503974
v 0.2239999 0.7914332 -0.6818666
v 0.1771926 0.7914332 -0.7286742
v 0.2239999 0.7914332 -0.6818666
v 0.155469 0.7914332 -0.6818666
v 0.2239999 0.7914332 -0.6818666
v 0.1771926 0.7914332 -0.6350594
v 0.2239999 0.7914332 -0.6818666
v 0.2239999 0.7914332 -0.6133358
v 0.2239999 0.651993 -0.7742667
v 0.1777996 0.7415932 -0.7618878
v 0.1777996 0.651993 -0.7618878
v 0.2239999 0.7415932 -0.7742667
v 0.2701997 0.651993 -0.7618878
v 0.2701997 0.7415932 -0.7618878
v 0.304021 0.651993 -0.7280667
v 0.304021 0.7415932 -0.7280667
v 0.3163999 0.651993 -0.6818666
v 0.304021 0.7415932 -0.7280667
v 0.304021 0.651993 -0.7280667
v 0.3163999 0.7415932 -0.6818666
v 0.304021 0.651993 -0.6356667
v 0.304021 0.7415932 -0.6356667
v 0.2701997 0.651993 -0.6018462
v 0.304021 0.7415932 -0.6356667
v 0.304021 0.651993 -0.6356667
v 0.2701997 0.7415932 -0.6018462
v 0.2239999 0.651993 -0.5894669
v 0.2239999 0.7415932 -0.5894669
v 0.1777996 0.651993 -0.6018462
v 0.2239999 0.7415932 -0.5894669
v 0.2239999 0.651993 -0.5894669
v 0.1777996 0.7415932 -0.6018462
v 0.1439789 0.651993 -0.6356667
v 0.1439789 0.7415932 -0.6356667
v 0.1316 0.651993 -0.6818666
v 0.1439789 0.7415932 -0.6356667
v 0.1439789 0.651993 -0.6356667
v 0.1316 0.7415932 -0.6818666
v 0.1439789 0.651993 -0.7280667
v 0.1439789 0.7415932 -0.7280667
v 0.1777996 0.651993 -0.7618878
v 0.1777996 0.7415932 -0.7618878
v 0.1771926 0.7914332 -0.7286742
v 0.2239999 0.7415932 -0.7503974
v 0.2239999 0.7914332 -0.7503974
v 0.1771926 0.7415932 -0.7286742
v 0.155469 0.7914332 -0.6818666
v 0.155469 0.7415932 -0.6818666
v 0.2708074 0.7415932 -0.7286742
v 0.2239999 0.7914332 -0.7503974
v 0.2239999 0.7415932 -0.7503974
v 0.2708074 0.7914332 -0.7286742
v 0.2925306 0.7415932 -0.6818666
v 0.2925306 0.7914332 -0.6818666
v 0.2708074 0.7415932 -0.6350594
v 0.2925306 0.7914332 -0.6818666
v 0.2925306 0.7415932 -0.6818666
v 0.2708074 0.7914332 -0.6350594
v 0.2239999 0.7415932 -0.6133358
v 0.2708074 0.7914332 -0.6350594
v 0.2708074 0.7415932 -0.6350594
v 0.2239999 0.7914332 -0.6133358
v 0.1771926 0.7415932 -0.6350594
v 0.2239999 0.7914332 -0.6133358
v 0.2239999 0.7415932 -0.6133358
v 0.1771926 0.7914332 -0.6350594
v 0.155469 0.7415932 -0.6818666
v 0.1771926 0.7914332 -0.6350594
v 0.1771926 0.7415932 -0.6350594
v 0.155469 0.7914332 -0.6818666
v 0.2701997 0.651993 -0.7618878
v 0.3163999 0.651993 -0.6818666
v 0.304021 0.651993 -0.7280667
v 0.1777996 0.651993 -0.7618878
v 0.2239999 0.651993 -0.7742667
v 0.1777996 0.651993 -0.6018462
v 0.2701997 0.651993 -0.6018462
v 0.304021 0.651993 -0.6356667
v 0.2239999 0.651993 -0.5894669
v 0.1316 0.651993 -0.6818666
v 0.1439789 0.651993 -0.6356667
v 0.1439789 0.651993 -0.7280667
v 0.1932553 1.392033 -0.7126117
v 0.2239999 1.291933 -0.7268803
v 0.2239999 1.392033 -0.7268803
v 0.1932553 1.291933 -0.7126117
v 0.1789864 1.392033 -0.6818666
v 0.2239999 1.191833 -0.7268803
v 0.1789864 1.291933 -0.6818666
v 0.1932553 1.191833 -0.7126117
v 0.2239999 1.091733 -0.7268803
v 0.1789864 1.191833 -0.6818666
v 0.1932553 1.091733 -0.7126117
v 0.2239999 0.9916335 -0.7268803
v 0.1789864 1.091733 -0.6818666
v 0.1932553 0.9916334 -0.7126117
v 0.2239999 0.8915336 -0.7268803
v 0.1789864 0.9916334 -0.6818666
v 0.1932553 0.8915336 -0.7126117
v 0.2239999 0.7914336 -0.7268803
v 0.1789864 0.8915336 -0.6818666
v 0.1932553 0.7914336 -0.7126117
v 0.1789864 0.7914336 -0.6818666
v 0.2547446 0.7914336 -0.7126117
v 0.2239999 0.8915336 -0.7268803
v 0.2239999 0.7914336 -0.7268803
v 0.2547446 0.8915336 -0.7126117
v 0.2690135 0.7914336 -0.6818666
v 0.2239999 0.9916335 -0.7268803
v 0.2690135 0.8915336 -0.6818666
v 0.2547446 0.9916334 -0.7126117
v 0.2239999 1.091733 -0.7268803
v 0.2690135 0.9916334 -0.6818666
v 0.2547446 1.091733 -0.7126117
v 0.2239999 1.191833 -0.7268803
v 0.2690135 1.091733 -0.6818666
v 0.2547446 1.191833 -0.7126117
v 0.2239999 1.291933 -0.7268803
v 0.2690135 1.191833 -0.6818666
v 0.2547446 1.291933 -0.7126117
v 0.2239999 1.392033 -0.7268803
v 0.2690135 1.291933 -0.6818666
v 0.2547446 1.392033 -0.7126117
v 0.2690135 1.392033 -0.6818666
v 0.2547446 0.7914336 -0.6511221
v 0.2690135 0.8915336 -0.6818666
v 0.2690135 0.7914336 -0.6818666
v 0.2547446 0.8915335 -0.6511221
v 0.2239999 0.7914336 -0.636853
v 0.2690135 0.9916334 -0.6818666
v 0.2239999 0.8915335 -0.636853
v 0.2547446 0.9916334 -0.6511221
v 0.2690135 1.091733 -0.6818666
v 0.2239999 0.9916334 -0.636853
v 0.2547446 1.091733 -0.6511221
v 0.2690135 1.191833 -0.6818666
v 0.2239999 1.091733 -0.636853
v 0.2547446 1.191833 -0.651122
v 0.2690135 1.291933 -0.6818666
v 0.2239999 1.191833 -0.636853
v 0.2547446 1.291933 -0.651122
v 0.2690135 1.392033 -0.6818666
v 0.2239999 1.291933 -0.636853
v 0.2547446 1.392033 -0.651122
v 0.2239999 1.392033 -0.636853
v 0.1932553 0.7914336 -0.6511221
v 0.2239999 0.8915335 -0.636853
v 0.2239999 0.7914336 -0.636853
v 0.1932553 0.8915335 -0.6511221
v 0.1789864 0.7914336 -0.6818666
v 0.2239999 0.9916334 -0.636853
v 0.1789864 0.8915336 -0.6818666
v 0.1932553 0.9916334 -0.6511221
v 0.2239999 1.091733 -0.636853
v 0.1789864 0.9916334 -0.6818666
v 0.1932553 1.091733 -0.6511221
v 0.2239999 1.191833 -0.636853
v 0.1789864 1.091733 -0.6818666
v 0.1932553 1.191833 -0.651122
v 0.2239999 1.291933 -0.636853
v 0.1789864 1.191833 -0.6818666
v 0.1932553 1.291933 -0.651122
v 0.2239999 1.392033 -0.636853
v 0.1789864 1.291933 -0.6818666
v 0.1932553 1.392033 -0.651122
v 0.1789864 1.392033 -0.6818666
vt 0.367315 0.2585674
vt 0.3042315 0.2901223
vt 0.3559787 0.2585674
vt 0.3042315 0.2901223
vt 0.3472029 0.2585674
vt 0.3042315 0.2901223
vt 0.3363586 0.2585674
vt 0.3042315 0.2901223
vt 0.3244734 0.2585674
vt 0.3042315 0.2901223
vt 0.3155915 0.2585674
vt 0.3042315 0.2901223
vt 0.3042315 0.2585675
vt 0.3042315 0.2901223
vt 0.2928714 0.2585675
vt 0.3042315 0.2901223
vt 0.2839895 0.2585675
vt 0.3042315 0.2901223
vt 0.2721043 0.2585675
vt 0.3042315 0.2901223
vt 0.2612601 0.2585675
vt 0.3042315 0.2901223
vt 0.2524842 0.2585675
vt 0.3042315 0.2901223
vt 0.2411479 0.2585675
vt 0.6057546 0.5218002
vt 0.6603578 0.5495279
vt 0.6194305 0.5218002
vt 0.6603578 0.5495279
vt 0.6327518 0.5218002
vt 0.6603578 0.5495279
vt 0.6467211 0.5218002
vt 0.6603578 0.5495279
vt 0.6603578 0.5218002
vt 0.6603578 0.5495279
vt 0.6739945 0.5217999
vt 0.6603578 0.5495279
vt 0.6879639 0.5218002
vt 0.6603578 0.5495279
vt 0.7012851 0.5218002
vt 0.6603578 0.5495279
vt 0.7149611 0.5218002
vt 0.3042314 0.2239355
vt 0.2928714 0.2585675
vt 0.2928713 0.2239355
vt 0.3042315 0.2585675
vt 0.3155915 0.2239355
vt 0.3155915 0.2585674
vt 0.3244733 0.2239355
vt 0.3244734 0.2585674
vt 0.3363585 0.2239355
vt 0.3244734 0.2585674
vt 0.3244733 0.2239355
vt 0.3363586 0.2585674
vt 0.3472028 0.2239355
vt 0.3472029 0.2585674
vt 0.3559787 0.2239355
vt 0.3472029 0.2585674
vt 0.3472028 0.2239355
vt 0.3559787 0.2585674
vt 0.367315 0.2239355
vt 0.367315 0.2585674
vt 0.2524841 0.2239355
vt 0.2411479 0.2585675
vt 0.2411478 0.2239355
vt 0.2524842 0.2585675
vt 0.26126 0.2239355
vt 0.2612601 0.2585675
vt 0.2721043 0.2239355
vt 0.2612601 0.2585675
vt 0.26126 0.2239355
vt 0.2721043 0.2585675
vt 0.2839895 0.2239355
vt 0.2839895 0.2585675
vt 0.2928713 0.2239355
vt 0.2928714 0.2585675
vt 0.6739945 0.5217999
vt 0.6603578 0.4984038
vt 0.6603578 0.5218002
vt 0.6739945 0.4984038
vt 0.6879639 0.5218002
vt 0.6879639 0.4984038
vt 0.6467211 0.4984038
vt 0.6603578 0.5218002
vt 0.6603578 0.4984038
vt 0.6467211 0.5218002
vt 0.6327518 0.4984038
vt 0.6327518 0.5218002
vt 0.6194305 0.4984038
vt 0.6327518 0.5218002
vt 0.6327518 0.4984038
vt 0.6194305 0.5218002
vt 0.6057546 0.4984038
vt 0.6194305 0.5218002
vt 0.6194305 0.4984038
vt 0.6057546 0.5218002
vt 0.7012851 0.4984038
vt 0.7149611 0.5218002
vt 0.7149611 0.4984038
vt 0.7012851 0.5218002
vt 0.6879639 0.4984038
vt 0.7012851 0.5218002
vt 0.7012851 0.4984038
vt 0.6879639 0.5218002
vt 0.7486853 0.1546519
vt 0.7558558 0.182199
vt 0.7559613 0.1674649
vt 0.7212437 0.1470882
vt 0.7359779 0.1471937
vt 0.708143 0.1946186
vt 0.7355846 0.2021822
vt 0.7483976 0.1949065
vt 0.7208505 0.202077
vt 0.7009726 0.1670716
vt 0.7008671 0.1818057
vt 0.7084309 0.1543641
vt 0.8307078 0.3378297
vt 0.8292993 0.375034
vt 0.8292993 0.3378296
vt 0.8307078 0.375034
vt 0.8321415 0.3378297
vt 0.8292993 0.4122384
vt 0.8321414 0.375034
vt 0.8307078 0.4122384
vt 0.8292993 0.4494427
vt 0.8321414 0.4122384
vt 0.8307078 0.4494427
vt 0.8292993 0.4866471
vt 0.8321414 0.4494427
vt 0.8307078 0.4866471
vt 0.8292993 0.5238514
vt 0.8321413 0.4866471
vt 0.8307078 0.5238515
vt 0.8292993 0.5610558
vt 0.8321413 0.5238515
vt 0.8307078 0.5610558
vt 0.8321413 0.5610558
vt 0.8278532 0.5610558
vt 0.8292993 0.5238514
vt 0.8292993 0.5610558
vt 0.8278532 0.5238514
vt 0.8264323 0.5610558
vt 0.8292993 0.4866471
vt 0.8264323 0.5238514
vt 0.8278532 0.4866471
vt 0.8292993 0.4494427
vt 0.8264323 0.4866471
vt 0.8278532 0.4494427
vt 0.8292993 0.4122384
vt 0.8264323 0.4494427
vt 0.8278532 0.4122384
vt 0.8292993 0.375034
vt 0.8264323 0.4122384
vt 0.8278532 0.375034
vt 0.8292993 0.3378296
vt 0.8264323 0.375034
vt 0.8278532 0.3378296
vt 0.8264323 0.3378296
vt 0.8250113 0.5610558
vt 0.8264323 0.5238514
vt 0.8264323 0.5610558
vt 0.8250113 0.5238514
vt 0.8235902 0.5610558
vt 0.8264323 0.4866471
vt 0.8235902 0.5238514
vt 0.8250113 0.4866471
vt 0.8264323 0.4494427
vt 0.8235902 0.4866471
vt 0.8250113 0.4494427
vt 0.8264323 0.4122384
vt 0.8235902 0.4494427
vt 0.8250113 0.4122384
vt 0.8264323 0.375034
vt 0.8235902 0.4122384
vt 0.8250113 0.375034
vt 0.8264323 0.3378296
vt 0.8235902 0.375034
vt 0.8250113 0.3378296
vt 0.8235902 0.3378296
vt 0.8335749 0.5610558
vt 0.8350085 0.5238515
vt 0.8350085 0.5610558
vt 0.8335749 0.5238515
vt 0.8321413 0.5610558
vt 0.8350085 0.4866471
vt 0.8321413 0.5238515
vt 0.8335749 0.4866471
vt 0.8350085 0.4494427
vt 0.8321413 0.4866471
vt 0.8335749 0.4494427
vt 0.8350085 0.4122384
vt 0.8321414 0.4494427
vt 0.8335749 0.4122384
vt 0.8350085 0.375034
vt 0.8321414 0.4122384
vt 0.8335749 0.375034
vt 0.8350085 0.3378297
vt 0.8321414 0.375034
vt 0.8335749 0.3378297
vt 0.8321415 0.3378297
vn 0 1 0
vn 0 1 0
vn 0 1 0
vn 0 1 0
vn 0 1 0
vn 0 1 0
vn 0 1 0
vn 0 1 0
vn 0 1 0
vn 0 1 0
vn 0 1 0
vn 0 1 0
vn 0 1 0
vn 0 1 0
vn 0 1 0
vn 0 1 0
vn 0 1 0
vn 0 1 0
vn 0 1 0
vn 0 1 0
vn 0 1 0
vn 0 1 0
vn 0 1 0
vn 0 1 0
vn 0 1 0
vn 0 1 0
vn 0 1 0
vn 0 1 0
vn 0 1 0
vn 0 1 0
vn 0 1 0
vn 0 1 0
vn 0 1 0
vn 0 1 0
vn 0 1 0
vn 0 1 0
vn 0 1 0
vn 0 1 0
vn 0 1 0
vn 0 1 0
vn 0 1 0
vn 0 1 0
vn 1.286551E-06 0 -1
vn -0.4999995 0 -0.8660257
vn -0.4999995 0 -0.8660257
vn 1.306193E-06 0 -1
vn 0.4999961 0 -0.8660277
vn 0.4999961 0 -0.8660277
vn 0.8660262 0 -0.4999987
vn 0.8660262 0 -0.4999987
vn 1 0 0
vn 0.8660262 0 -0.4999987
vn 0.8660262 0 -0.4999987
vn 1 0 0
vn 0.8660235 0 0.5000032
vn 0.8660235 0 0.5000032
vn 0.4999957 0 0.866028
vn 0.8660235 0 0.5000032
vn 0.8660235 0 0.5000032
vn 0.4999957 0 0.866028
vn 1.266912E-06 0 1
vn 1.257091E-06 0 1
vn -0.4999992 0 0.8660259
vn 1.257091E-06 0 1
vn 1.266912E-06 0 1
vn -0.4999992 0 0.8660259
vn -0.8660262 0 0.4999987
vn -0.8660262 0 0.4999986
vn -1 0 0
vn -0.8660262 0 0.4999986
vn -0.8660262 0 0.4999987
vn -1 0 0
vn -0.8660288 0 -0.4999941
vn -0.8660289 0 -0.499994
vn -0.4999995 0 -0.8660257
vn -0.4999995 0 -0.8660257
vn -0.7071059 0 -0.7071075
vn -9.412395E-07 0 -1
vn -9.726142E-07 0 -1
vn -0.7071059 0 -0.7071075
vn -1 0 9.726162E-07
vn -1 0 9.830744E-07
vn 0.7071068 0 -0.7071068
vn -9.726142E-07 0 -1
vn -9.412395E-07 0 -1
vn 0.7071068 0 -0.7071068
vn 1 0 9.830725E-07
vn 1 0 9.516978E-07
vn 0.7071075 0 0.7071059
vn 1 0 9.516978E-07
vn 1 0 9.830725E-07
vn 0.7071075 0 0.7071061
vn -9.830744E-07 0 1
vn 0.7071075 0 0.7071061
vn 0.7071075 0 0.7071059
vn -9.830744E-07 0 1
vn -0.7071068 0 0.7071068
vn -9.830744E-07 0 1
vn -9.830744E-07 0 1
vn -0.7071068 0 0.7071068
vn -1 0 9.830744E-07
vn -0.7071068 0 0.7071068
vn -0.7071068 0 0.7071068
vn -1 0 9.726162E-07
vn 0 -1 0
vn 0 -1 0
vn 0 -1 0
vn 0 -1 0
vn 0 -1 0
vn 0 -1 0
vn 0 -1 0
vn 0 -1 0
vn 0 -1 0
vn 0 -1 0
vn 0 -1 0
vn 0 -1 0
vn -0.7071066 0 -0.7071069
vn -1.495526E-06 0 -1
vn -1.490297E-06 0 -1
vn -0.7071066 0 -0.7071069
vn -1 0 2.92831E-06
vn -1.477224E-06 0 -1
vn -1 0 2.925695E-06
vn -0.7071066 0 -0.7071069
vn -1.495526E-06 0 -1
vn -1 0 2.964914E-06
vn -0.7071066 0 -0.7071069
vn -1.516443E-06 0 -1
vn -1 0 2.938768E-06
vn -0.7071066 0 -0.7071069
vn -1.495526E-06 0 -1
vn -1 0 2.92831E-06
vn -0.7071066 0 -0.7071069
vn -1.485068E-06 0 -1
vn -1 0 2.959684E-06
vn -0.7071066 0 -0.7071069
vn -1 0 2.949227E-06
vn 0.7071055 0 -0.707108
vn -1.495526E-06 0 -1
vn -1.485068E-06 0 -1
vn 0.7071055 0 -0.707108
vn 1 0 2.99106E-06
vn -1.516443E-06 0 -1
vn 1 0 2.938768E-06
vn 0.7071055 0 -0.707108
vn -1.495526E-06 0 -1
vn 1 0 2.92831E-06
vn 0.7071056 0 -0.707108
vn -1.477224E-06 0 -1
vn 1 0 2.959685E-06
vn 0.7071055 0 -0.7071081
vn -1.495526E-06 0 -1
vn 1 0 2.941383E-06
vn 0.7071055 0 -0.707108
vn -1.490297E-06 0 -1
vn 1 0 2.946611E-06
vn 0.7071056 0 -0.707108
vn 1 0 2.933539E-06
vn 0.7071079 0 0.7071056
vn 1 0 2.938768E-06
vn 1 0 2.99106E-06
vn 0.707108 0 0.7071055
vn -1.443244E-06 0 1
vn 1 0 2.92831E-06
vn -1.516452E-06 0 1
vn 0.707108 0 0.7071055
vn 1 0 2.959685E-06
vn -1.547827E-06 0 1
vn 0.707108 0 0.7071055
vn 1 0 2.941383E-06
vn -1.464161E-06 0 1
vn 0.707108 0 0.7071055
vn 1 0 2.946611E-06
vn -1.487692E-06 0 1
vn 0.707108 0 0.7071055
vn 1 0 2.933539E-06
vn -1.511223E-06 0 1
vn 0.707108 0 0.7071055
vn -1.495535E-06 0 1
vn -0.707109 0 0.7071045
vn -1.516452E-06 0 1
vn -1.443244E-06 0 1
vn -0.707109 0 0.7071046
vn -1 0 2.949227E-06
vn -1.547827E-06 0 1
vn -1 0 2.959684E-06
vn -0.707109 0 0.7071044
vn -1.464161E-06 0 1
vn -1 0 2.92831E-06
vn -0.707109 0 0.7071045
vn -1.487692E-06 0 1
vn -1 0 2.938768E-06
vn -0.707109 0 0.7071046
vn -1.511223E-06 0 1
vn -1 0 2.964914E-06
vn -0.707109 0 0.7071045
vn -1.495535E-06 0 1
vn -1 0 2.925695E-06
vn -0.707109 0 0.7071045
vn -1 0 2.92831E-06
g geo_PartsPole_0
f 3/3/3 2/2/2 1/1/1
f 5/5/5 4/4/4 3/3/3
f 7/7/7 6/6/6 5/5/5
f 9/9/9 8/8/8 7/7/7
f 11/11/11 10/10/10 9/9/9
f 13/13/13 12/12/12 11/11/11
f 15/15/15 14/14/14 13/13/13
f 17/17/17 16/16/16 15/15/15
f 19/19/19 18/18/18 17/17/17
f 21/21/21 20/20/20 19/19/19
f 23/23/23 22/22/22 21/21/21
f 25/25/25 24/24/24 23/23/23
f 28/28/28 27/27/27 26/26/26
f 30/30/30 29/29/29 28/28/28
f 32/32/32 31/31/31 30/30/30
f 34/34/34 33/33/33 32/32/32
f 36/36/36 35/35/35 34/34/34
f 38/38/38 37/37/37 36/36/36
f 40/40/40 39/39/39 38/38/38
f 42/42/42 41/41/41 40/40/40
f 45/45/45 44/44/44 43/43/43
f 46/46/46 43/43/43 44/44/44
f 43/43/43 46/46/46 47/47/47
f 48/48/48 47/47/47 46/46/46
f 47/47/47 48/48/48 49/49/49
f 50/50/50 49/49/49 48/48/48
f 53/53/53 52/52/52 51/51/51
f 54/54/54 51/51/51 52/52/52
f 51/51/51 54/54/54 55/55/55
f 56/56/56 55/55/55 54/54/54
f 59/59/59 58/58/58 57/57/57
f 60/60/60 57/57/57 58/58/58
f 57/57/57 60/60/60 61/61/61
f 62/62/62 61/61/61 60/60/60
f 65/65/65 64/64/64 63/63/63
f 66/66/66 63/63/63 64/64/64
f 63/63/63 66/66/66 67/67/67
f 68/68/68 67/67/67 66/66/66
f 71/71/71 70/70/70 69/69/69
f 72/72/72 69/69/69 70/70/70
f 69/69/69 72/72/72 73/73/73
f 74/74/74 73/73/73 72/72/72
f 73/73/73 74/74/74 75/75/75
f 76/76/76 75/75/75 74/74/74
f 79/79/79 78/78/78 77/77/77
f 80/80/80 77/77/77 78/78/78
f 77/77/77 80/80/80 81/81/81
f 82/82/82 81/81/81 80/80/80
f 85/85/85 84/84/84 83/83/83
f 86/86/86 83/83/83 84/84/84
f 83/83/83 86/86/86 87/87/87
f 88/88/88 87/87/87 86/86/86
f 91/91/91 90/90/90 89/89/89
f 92/92/92 89/89/89 90/90/90
f 95/95/95 94/94/94 93/93/93
f 96/96/96 93/93/93 94/94/94
f 99/99/99 98/98/98 97/97/97
f 100/100/100 97/97/97 98/98/98
f 103/103/103 102/102/102 101/101/101
f 104/104/104 101/101/101 102/102/102
f 107/107/107 106/106/106 105/105/105
f 106/106/106 108/108/108 105/105/105
f 105/105/105 108/108/108 109/109/109
f 110/110/110 108/108/108 106/106/106
f 111/111/111 110/110/110 106/106/106
f 112/112/112 111/111/111 106/106/106
f 113/113/113 110/110/110 111/111/111
f 114/114/114 108/108/108 110/110/110
f 115/115/115 114/114/114 110/110/110
f 116/116/116 108/108/108 114/114/114
f 119/119/119 118/118/118 117/117/117
f 120/120/120 117/117/117 118/118/118
f 117/117/117 120/120/120 121/121/121
f 118/118/118 122/122/122 120/120/120
f 123/123/123 121/121/121 120/120/120
f 124/124/124 120/120/120 122/122/122
f 120/120/120 124/124/124 123/123/123
f 122/122/122 125/125/125 124/124/124
f 126/126/126 123/123/123 124/124/124
f 127/127/127 124/124/124 125/125/125
f 124/124/124 127/127/127 126/126/126
f 125/125/125 128/128/128 127/127/127
f 129/129/129 126/126/126 127/127/127
f 130/130/130 127/127/127 128/128/128
f 127/127/127 130/130/130 129/129/129
f 128/128/128 131/131/131 130/130/130
f 132/132/132 129/129/129 130/130/130
f 133/133/133 130/130/130 131/131/131
f 130/130/130 133/133/133 132/132/132
f 131/131/131 134/134/134 133/133/133
f 135/135/135 132/132/132 133/133/133
f 136/136/136 133/133/133 134/134/134
f 133/133/133 136/136/136 135/135/135
f 137/137/137 135/135/135 136/136/136
f 140/140/140 139/139/139 138/138/138
f 141/141/141 138/138/138 139/139/139
f 138/138/138 141/141/141 142/142/142
f 139/139/139 143/143/143 141/141/141
f 144/144/144 142/142/142 141/141/141
f 145/145/145 141/141/141 143/143/143
f 141/141/141 145/145/145 144/144/144
f 143/143/143 146/146/146 145/145/145
f 147/147/147 144/144/144 145/145/145
f 148/148/148 145/145/145 146/146/146
f 145/145/145 148/148/148 147/147/147
f 146/146/146 149/149/149 148/148/148
f 150/150/150 147/147/147 148/148/148
f 151/151/151 148/148/148 149/149/149
f 148/148/148 151/151/151 150/150/150
f 149/149/149 152/152/152 151/151/151
f 153/153/153 150/150/150 151/151/151
f 154/154/154 151/151/151 152/152/152
f 151/151/151 154/154/154 153/153/153
f 152/152/152 155/155/155 154/154/154
f 156/156/156 153/153/153 154/154/154
f 157/157/157 154/154/154 155/155/155
f 154/154/154 157/157/157 156/156/156
f 158/158/158 156/156/156 157/157/157
f 161/161/161 160/160/160 159/159/159
f 162/162/162 159/159/159 160/160/160
f 159/159/159 162/162/162 163/163/163
f 160/160/160 164/164/164 162/162/162
f 165/165/165 163/163/163 162/162/162
f 166/166/166 162/162/162 164/164/164
f 162/162/162 166/166/166 165/165/165
f 164/164/164 167/167/167 166/166/166
f 168/168/168 165/165/165 166/166/166
f 169/169/169 166/166/166 167/167/167
f 166/166/166 169/169/169 168/168/168
f 167/167/167 170/170/170 169/169/169
f 171/171/171 168/168/168 169/169/169
f 172/172/172 169/169/169 170/170/170
f 169/169/169 172/172/172 171/171/171
f 170/170/170 173/173/173 172/172/172
f 174/174/174 171/171/171 172/172/172
f 175/175/175 172/172/172 173/173/173
f 172/172/172 175/175/175 174/174/174
f 173/173/173 176/176/176 175/175/175
f 177/177/177 174/174/174 175/175/175
f 178/178/178 175/175/175 176/176/176
f 175/175/175 178/178/178 177/177/177
f 179/179/179 177/177/177 178/178/178
f 182/182/182 181/181/181 180/180/180
f 183/183/183 180/180/180 181/181/181
f 180/180/180 183/183/183 184/184/184
f 181/181/181 185/185/185 183/183/183
f 186/186/186 184/184/184 183/183/183
f 187/187/187 183/183/183 185/185/185
f 183/183/183 187/187/187 186/186/186
f 185/185/185 188/188/188 187/187/187
f 189/189/189 186/186/186 187/187/187
f 190/190/190 187/187/187 188/188/188
f 187/187/187 190/190/190 189/189/189
f 188/188/188 191/191/191 190/190/190
f 192/192/192 189/189/189 190/190/190
f 193/193/193 190/190/190 191/191/191
f 190/190/190 193/193/193 192/192/192
f 191/191/191 194/194/194 193/193/193
f 195/195/195 192/192/192 193/193/193
f 196/196/196 193/193/193 194/194/194
f 193/193/193 196/196/196 195/195/195
f 194/194/194 197/197/197 196/196/196
f 198/198/198 195/195/195 196/196/196
f 199/199/199 196/196/196 197/197/197
f 196/196/196 199/199/199 198/198/198
f 200/200/200 198/198/198 199/199/199
