g geo_Mouth_01
v -0.04492151 1.308262 0.1724961
v -0.04492151 1.325356 0.1706156
v 5.266056E-31 1.328996 0.1806682
v 5.270658E-31 1.299758 0.1844931
v -0.04492151 1.274819 0.1723245
v 0.04492151 1.325356 0.1706156
v 5.266615E-31 1.278008 0.1811336
v 0.04492151 1.308262 0.1724961
v 0.04492151 1.274819 0.1723245
vt 0.2436826 0.8438763
vt 0.2436826 0.8936322
vt 0.3657593 0.8936322
vt 0.3657593 0.8110483
vt 0.2436826 0.7585809
vt 0.487836 0.8936322
vt 0.3657593 0.7585809
vt 0.487836 0.8438763
vt 0.487836 0.7585809
vn -0.2306055 0.03198979 0.9725214
vn -0.2305805 0.1189243 0.9657586
vn 0 0.1222176 0.9925033
vn 0 0.01085785 0.9999411
vn -0.2286634 -0.06215516 0.9715194
vn 0.2305803 0.1189243 0.9657587
vn 0 -0.06384673 0.9979597
vn 0.2306054 0.03198979 0.9725214
vn 0.2286635 -0.06215516 0.9715194
g geo_Mouth_01_0
f 3/3/3 2/2/2 1/1/1
f 4/4/4 3/3/3 1/1/1
f 4/4/4 1/1/1 5/5/5
f 6/6/6 3/3/3 4/4/4
f 7/7/7 4/4/4 5/5/5
f 8/8/8 6/6/6 4/4/4
f 4/4/4 7/7/7 9/9/9
f 8/8/8 4/4/4 9/9/9
