g geo_Eye_L_open
v 0.02405618 1.16166 0.1840817
v 0.02833349 1.221628 0.1907328
v 0.08055709 1.220717 0.1729869
v 0.077503 1.161433 0.1694632
v 0.02374008 1.104743 0.1844379
v 0.07500582 1.105498 0.1667086
v 0.1163059 1.106699 0.1333111
v 0.1191392 1.162309 0.1358626
v 0.121659 1.221352 0.1377028
vt 0.05553144 0.6706462
vt 0.07274508 0.8687313
vt 0.2829122 0.865722
vt 0.2706212 0.6698987
vt 0.0542593 0.4826403
vt 0.2605716 0.4851357
vt 0.4267786 0.4891009
vt 0.438181 0.6727902
vt 0.4483216 0.8678185
vn 0.2929387 -0.06418498 0.9539744
vn 0.2904339 -0.09906113 0.9517537
vn 0.4723325 -0.08379883 0.8774279
vn 0.4688654 -0.06680817 0.8807393
vn 0.2951721 -0.02765554 0.9550438
vn 0.4634273 -0.04735838 0.8848686
vn 0.628004 -0.06689253 0.7753299
vn 0.6339055 -0.06581827 0.7706048
vn 0.6391873 -0.06484777 0.7663122
g geo_Eye_L_open_0
f 3/3/3 2/2/2 1/1/1
f 4/4/4 3/3/3 1/1/1
f 4/4/4 1/1/1 5/5/5
f 6/6/6 4/4/4 5/5/5
f 6/6/6 7/7/7 4/4/4
f 7/7/7 8/8/8 4/4/4
f 4/4/4 8/8/8 3/3/3
f 8/8/8 9/9/9 3/3/3
