g geo_EyeBrow_R_10
v 0.008746866 1.459644 0.1701618
v 0.01184403 1.393623 0.1742331
v -0.04502049 1.393099 0.1622731
v -0.04702543 1.457192 0.1566976
v -0.09119251 1.391598 0.1332247
v -0.09190825 1.453722 0.1258544
vt 0.3738226 0.2030869
vt 0.3738226 0.07730991
vt 0.4935668 0.07730991
vt 0.4935668 0.2030869
vt 0.6133111 0.07730991
vt 0.6133111 0.2030869
vn -0.2213306 0.0634696 0.9731312
vn -0.2213306 0.0634696 0.9731312
vn -0.380772 0.06920601 0.9220755
vn -0.3863156 0.06937641 0.9197539
vn -0.5508465 0.07339808 0.8313729
vn -0.5508464 0.07339809 0.831373
g geo_EyeBrow_R_10_0
f 3/3/3 2/2/2 1/1/1
f 4/4/4 3/3/3 1/1/1
f 5/5/5 3/3/3 4/4/4
f 6/6/6 5/5/5 4/4/4
