g geo_EyeBrow_L_05
v 0.0003288227 1.222281 0.1929851
v 0.06592499 1.142707 0.1742315
v -0.003449717 1.14169 0.1888013
v 0.06837104 1.221168 0.1763256
v 0.1222549 1.1449 0.138813
v 0.1231281 1.221221 0.1384596
vt 0.6200264 0.6571565
vt 0.7397706 0.5313795
vt 0.6200264 0.5313795
vt 0.7397706 0.6571565
vt 0.8595149 0.5313795
vt 0.8595149 0.6571565
vn 0.2213304 -0.04710894 0.9740604
vn 0.3807718 -0.03562934 0.9239823
vn 0.2213304 -0.04710894 0.9740604
vn 0.3863153 -0.03519721 0.921695
vn 0.5508457 -0.02119568 0.8343378
vn 0.5508457 -0.02119568 0.8343378
g geo_EyeBrow_L_05_0
f 3/3/3 2/2/2 1/1/1
f 2/2/2 4/4/4 1/1/1
f 2/2/2 5/5/5 4/4/4
f 5/5/5 6/6/6 4/4/4
