g geo_Decals
v 0.2206063 0.3316939 1.067723
v -0.2206062 0.3316939 1.067723
v -0.2206062 0.3855121 0.9649314
v 0.2206063 0.3855121 0.9649314
v -0.2206062 0.4265684 0.8621393
v 0.2206063 0.4265684 0.8621393
v -0.2206062 0.4265684 0.8621393
v 0.2206063 0.4499867 0.753957
v 0.2206063 0.4265684 0.8621393
v -0.2206062 0.4499867 0.753957
v -0.2206062 0.4589829 0.6457747
v 0.2206063 0.4589829 0.6457747
v -0.1210322 0.4250878 -1.440605
v 0.1210324 0.4250878 -1.440605
v 0.1210324 0.6395473 -1.328345
v -0.1210322 0.6395473 -1.328345
vt 0.498091 0
vt 0.000138 0
vt 0.000138 0.25
vt 0.498091 0.25
vt 0.000138 0.5
vt 0.498091 0.5
vt 0.000138 0.5
vt 0.498091 0.75
vt 0.498091 0.5
vt 0.000138 0.75
vt 0.000138 1
vt 0.498091 1
vt 0.498091 0
vt 0.000138 0
vt 0.000138 1
vt 0.498091 1
vn 0 0.9286822 0.3708766
vn 0 0.9286822 0.3708766
vn 0 0.9084818 0.4179246
vn 0 0.9084818 0.4179246
vn 0 0.9286652 0.3709189
vn 0 0.9286652 0.3709189
vn 0 0.95637 0.2921582
vn 0 0.989057 0.1475339
vn 0 0.95637 0.2921582
vn 0 0.989057 0.1475339
vn 0 0.9965602 0.08287215
vn 0 0.9965602 0.08287215
vn 0 0.464073 -0.885797
vn 0 0.464073 -0.885797
vn 0 0.4640722 -0.8857974
vn 0 0.4640722 -0.8857974
g geo_Decals_0
f 3/3/3 2/2/2 1/1/1
f 4/4/4 3/3/3 1/1/1
f 5/5/5 3/3/3 4/4/4
f 6/6/6 5/5/5 4/4/4
f 9/9/9 8/8/8 7/7/7
f 8/8/8 10/10/10 7/7/7
f 11/11/11 10/10/10 8/8/8
f 12/12/12 11/11/11 8/8/8
f 15/15/15 14/14/14 13/13/13
f 16/16/16 15/15/15 13/13/13
