g geo_Eye_L_closed
v 0.01070176 1.409448 0.1685364
v 0.01420778 1.458904 0.1683881
v 0.05701401 1.456515 0.1540204
v 0.05451062 1.407907 0.156652
v 0.01044265 1.363128 0.1741082
v 0.05246376 1.362098 0.1595992
v 0.08631628 1.359976 0.1322889
v 0.08863872 1.405502 0.1292064
v 0.09070411 1.453758 0.125226
vt 0.03144542 0.2767689
vt 0.04865906 0.474854
vt 0.2588262 0.4718447
vt 0.2465352 0.2760214
vt 0.03017328 0.08876299
vt 0.2364856 0.09125834
vt 0.4026925 0.09522354
vt 0.414095 0.2789129
vt 0.4242356 0.4739412
vn 0.2929393 0.04422924 0.9551075
vn 0.2904343 0.009325799 0.9568494
vn 0.472332 0.01607535 0.8812742
vn 0.4688654 0.03333176 0.8826405
vn 0.2951727 0.08064514 0.9520344
vn 0.4634276 0.05312424 0.8845409
vn 0.628004 0.02131451 0.7779182
vn 0.6339051 0.02184678 0.7731023
vn 0.6391864 0.02232491 0.7687277
g geo_Eye_L_closed_0
f 3/3/3 2/2/2 1/1/1
f 4/4/4 3/3/3 1/1/1
f 4/4/4 1/1/1 5/5/5
f 6/6/6 4/4/4 5/5/5
f 6/6/6 7/7/7 4/4/4
f 7/7/7 8/8/8 4/4/4
f 4/4/4 8/8/8 3/3/3
f 8/8/8 9/9/9 3/3/3
