g geo_Eye_L_open
v 0.01070179 1.409448 0.1685364
v 0.01420778 1.458904 0.1683881
v 0.05701401 1.456515 0.1540204
v 0.05451065 1.407907 0.156652
v 0.01044269 1.363128 0.1741082
v 0.05246379 1.362098 0.1595992
v 0.08631628 1.359976 0.1322889
v 0.08863872 1.405502 0.1292064
v 0.09070411 1.453758 0.125226
vt 0.05553144 0.6706462
vt 0.07274508 0.8687313
vt 0.2829122 0.865722
vt 0.2706212 0.6698987
vt 0.0542593 0.4826403
vt 0.2605716 0.4851357
vt 0.4267786 0.4891009
vt 0.438181 0.6727902
vt 0.4483216 0.8678185
vn 0.2929391 0.04422937 0.9551075
vn 0.2904343 0.009326109 0.9568494
vn 0.4723317 0.01607566 0.8812742
vn 0.4688655 0.03333198 0.8826405
vn 0.2951725 0.08064497 0.9520345
vn 0.463428 0.05312421 0.8845407
vn 0.6280056 0.02131446 0.7779168
vn 0.6339052 0.02184689 0.773102
vn 0.6391852 0.02232517 0.7687287
g geo_Eye_L_open_0
f 3/3/3 2/2/2 1/1/1
f 4/4/4 3/3/3 1/1/1
f 4/4/4 1/1/1 5/5/5
f 6/6/6 4/4/4 5/5/5
f 6/6/6 7/7/7 4/4/4
f 7/7/7 8/8/8 4/4/4
f 4/4/4 8/8/8 3/3/3
f 8/8/8 9/9/9 3/3/3
