g Gift_A
v 0.441493 0.5591021 -0.1535921
v -0.6929274 0.2034349 -0.09783649
v -0.09784031 0.2034349 -0.6929255
v -0.1535959 0.5591021 0.4414949
v -0.1535959 0.5591021 0.4414949
v -0.4414959 -0.5591049 0.153595
v -0.6929274 0.2034349 -0.09783649
v 0.09783649 -0.2034378 0.6929274
v 0.441493 0.5591021 -0.1535921
v 0.09783649 -0.2034378 0.6929274
v -0.1535959 0.5591021 0.4414949
v 0.6929245 -0.2034378 0.09783936
v -0.09784031 0.2034349 -0.6929255
v 0.6929245 -0.2034378 0.09783936
v 0.441493 0.5591021 -0.1535921
v 0.1535921 -0.5591049 -0.441493
v -0.6929274 0.2034349 -0.09783649
v 0.1535921 -0.5591049 -0.441493
v -0.09784031 0.2034349 -0.6929255
v -0.4414959 -0.5591049 0.153595
v 0.1535921 -0.5591049 -0.441493
v 0.09783649 -0.2034378 0.6929274
v 0.6929245 -0.2034378 0.09783936
v -0.4414959 -0.5591049 0.153595
vt 0.2409146 0.4240391
vt 0.442975 0.2219786
vt 0.2409146 0.2219786
vt 0.442975 0.4240391
vt 0.4429751 0.2219786
vt 0.2409145 0.0199181
vt 0.2409146 0.2219787
vt 0.442975 0.01991807
vt 0.4429751 0.2219786
vt 0.2409145 0.0199181
vt 0.2409146 0.2219787
vt 0.442975 0.01991807
vt 0.4429751 0.2219786
vt 0.2409145 0.0199181
vt 0.2409146 0.2219787
vt 0.442975 0.01991807
vt 0.4429751 0.2219786
vt 0.2409145 0.0199181
vt 0.2409146 0.2219787
vt 0.442975 0.01991807
vt 0.3649117 0.01443708
vt 0.3338571 0.01669173
vt 0.3649117 0.01669173
vt 0.3338571 0.01443708
vn -0.2988361 0.9063082 -0.2988352
vn -0.2988361 0.9063082 -0.2988351
vn -0.2988361 0.9063082 -0.2988351
vn -0.298836 0.9063077 -0.298837
vn -0.7071068 0 0.7071068
vn -0.7071068 0 0.7071068
vn -0.7071068 0 0.7071068
vn -0.7071068 0 0.7071068
vn 0.6408551 0.4226192 0.6408571
vn 0.640855 0.4226192 0.6408571
vn 0.6408551 0.4226192 0.6408571
vn 0.6408565 0.4226179 0.6408565
vn 0.7071068 0 -0.7071068
vn 0.7071068 0 -0.7071068
vn 0.7071068 0 -0.7071068
vn 0.7071068 0 -0.7071068
vn -0.6408571 -0.4226192 -0.6408551
vn -0.6408571 -0.4226192 -0.640855
vn -0.6408571 -0.4226192 -0.6408551
vn -0.6408565 -0.4226179 -0.6408565
vn 0.2988361 -0.9063079 0.2988361
vn 0.298836 -0.9063079 0.298836
vn 0.298836 -0.9063079 0.298836
vn 0.298836 -0.9063079 0.298836
g Gift_A_0
f 3/3/3 2/2/2 1/1/1
f 4/4/4 1/1/1 2/2/2
f 7/7/7 6/6/6 5/5/5
f 8/8/8 5/5/5 6/6/6
f 11/11/11 10/10/10 9/9/9
f 12/12/12 9/9/9 10/10/10
f 15/15/15 14/14/14 13/13/13
f 16/16/16 13/13/13 14/14/14
f 19/19/19 18/18/18 17/17/17
f 20/20/20 17/17/17 18/18/18
f 23/23/23 22/22/22 21/21/21
f 24/24/24 21/21/21 22/22/22
