g GrassPlane
v -16.03487 -3.814697E-06 -25
v 18.28167 -3.814697E-06 -25
v 18.28166 0 -1.25
v -18.28166 -3.814697E-06 -22.24914
v -18.28166 0 -1.25
v -18.28167 3.814697E-06 22.24914
v -16.03488 3.814697E-06 25
v 18.28164 3.814697E-06 25
vt 0.349073 1.70333
vt 1.529272 1.02026
vt 1.056528 0.2034605
vt 0.2170465 1.653446
vt -0.2009416 0.9312533
vt -0.6686924 0.1230815
vt -0.6461776 -0.01624714
vt 0.5340209 -0.6993177
vn 0 1 0
vn 0 1 0
vn 0 1 0
vn 0 1 0
vn 0 1 0
vn 0 1 0
vn 0 1 0
vn 0 1 0
g GrassPlane_0
f 3/3/3 2/2/2 1/1/1
f 4/4/4 3/3/3 1/1/1
f 5/5/5 3/3/3 4/4/4
f 6/6/6 3/3/3 5/5/5
f 7/7/7 3/3/3 6/6/6
f 8/8/8 3/3/3 7/7/7
