g HoopRamp_LOD
v 1.263076 -0.8767989 0.8265902
v 0.7594361 -0.2724312 0.8265896
v 1.011256 -0.2724312 0.8265902
v -0.7514835 -0.2724312 0.8265896
v -1.255123 -0.8767989 0.8265902
v -1.003303 -0.2724312 0.8265902
v 0.7594363 1.107378 -1.778379
v 0.7594357 -0.8082471 2.329694
v 0.709955 -0.8082471 2.329694
v 0.7099556 1.107378 -1.778379
v 0.7594362 0.8082469 -1.917865
v 0.7594355 -1.107378 2.190206
v 0.7594357 -0.8082471 2.329694
v 0.7594363 1.107378 -1.778379
v 0.7594355 -1.107378 2.190206
v 0.709955 -0.8082471 2.329694
v 0.7594357 -0.8082471 2.329694
v 0.709955 -0.9247963 2.275346
v -0.7020028 -0.9247963 2.275346
v -0.7514834 -1.107378 2.190206
v -0.7020028 -0.8082471 2.329693
v -0.7514835 -0.8082471 2.329694
v 0.709955 -0.9247963 2.275346
v 0.7099556 0.990829 -1.832726
v 0.7099556 1.107378 -1.778379
v 0.709955 -0.8082471 2.329694
v -0.7514828 1.107378 -1.778379
v -0.7020022 1.107378 -1.778379
v -0.7020028 -0.8082471 2.329693
v -0.7514835 -0.8082471 2.329694
v 0.709955 -0.9247963 2.275346
v -0.7020028 -0.9247963 2.275346
v -0.7020022 0.9908292 -1.832727
v 0.7099556 0.990829 -1.832726
v -0.7514827 0.8082472 -1.917866
v -0.7514828 1.107378 -1.778379
v -0.7514835 -0.8082471 2.329694
v -0.7514834 -1.107378 2.190206
v -0.7020028 -0.9247963 2.275346
v -0.7020028 -0.8082471 2.329693
v -0.7020022 1.107378 -1.778379
v -0.7020022 0.9908292 -1.832727
v 0.7594361 -0.2724312 0.8265896
v 0.7594361 -0.2724312 0.32295
v 1.011256 -0.2724312 0.32295
v 1.011256 -0.2724312 0.8265902
v 1.263076 -0.8767989 0.8265902
v 1.011256 -0.2724312 0.8265902
v 1.011256 -0.2724312 0.32295
v 1.263076 -0.8767987 0.32295
v 0.9689463 -0.2724313 0.7006795
v 0.9271461 -0.2162735 0.7730801
v 0.9689463 -0.2162737 0.7006795
v 0.9271461 -0.2724313 0.7730801
v 0.8435457 -0.2162735 0.7730795
v 0.8435457 -0.2724313 0.7730795
v 0.8017454 -0.2162737 0.7006795
v 0.8017454 -0.2724313 0.7006795
v 0.8017454 -0.2162737 0.7006795
v 0.9271461 -0.2162735 0.7730801
v 0.8435457 -0.2162735 0.7730795
v 0.9689463 -0.2162737 0.7006795
v 0.9271461 -0.2162735 0.6282796
v 0.9689463 -0.2724313 0.4488606
v 0.9271461 -0.2162735 0.5212606
v 0.9689463 -0.2162736 0.4488606
v 0.9271461 -0.2724313 0.5212606
v 0.8435457 -0.2162735 0.5212606
v 0.8435457 -0.2724313 0.5212606
v 0.8017454 -0.2162736 0.44886
v 0.8017454 -0.2724313 0.44886
v 0.8017454 -0.2162736 0.44886
v 0.9271461 -0.2162735 0.5212606
v 0.8435457 -0.2162735 0.5212606
v 0.9689463 -0.2162736 0.4488606
v 0.9271461 -0.2162737 0.3764608
v 1.263076 -0.8767989 0.8265902
v 1.263076 -0.8767987 0.32295
v 1.263076 -0.9775268 0.32295
v 1.263076 -0.9775269 0.8265902
v -0.7514835 -0.2724312 0.8265896
v -1.003303 -0.2724312 0.8265902
v -1.003303 -0.2724312 0.32295
v -0.7514835 -0.2724312 0.32295
v -1.003303 -0.2724312 0.32295
v -1.003303 -0.2724312 0.8265902
v -1.255123 -0.8767989 0.8265902
v -1.255123 -0.8767987 0.32295
v -0.9191934 -0.2724313 0.6282796
v -0.9609937 -0.2162737 0.7006795
v -0.9609937 -0.2724313 0.7006795
v -0.9191934 -0.2162735 0.6282796
v -0.8355932 -0.2724313 0.6282796
v -0.8355932 -0.2162735 0.6282796
v -0.7937928 -0.2724313 0.7006795
v -0.7937928 -0.2162737 0.7006795
v -0.8355932 -0.2724313 0.7730795
v -0.8355932 -0.2162735 0.7730795
v -0.9191934 -0.2724313 0.7730801
v -0.9191934 -0.2162735 0.7730801
v -0.9609937 -0.2724313 0.7006795
v -0.9609937 -0.2162737 0.7006795
v -0.9191934 -0.2162735 0.7730801
v -0.7937928 -0.2162737 0.7006795
v -0.8355932 -0.2162735 0.7730795
v -0.9609937 -0.2162737 0.7006795
v -0.9191934 -0.2162735 0.6282796
v -0.8355932 -0.2162735 0.6282796
v -0.9191934 -0.2724313 0.3764608
v -0.9609937 -0.2162736 0.4488606
v -0.9609937 -0.2724313 0.4488606
v -0.9191934 -0.2162737 0.3764608
v -0.8355932 -0.2724313 0.3764608
v -0.8355932 -0.2162737 0.3764608
v -0.7937928 -0.2724313 0.44886
v -0.7937928 -0.2162736 0.44886
v -0.8355932 -0.2724313 0.5212606
v -0.8355932 -0.2162735 0.5212606
v -0.9191934 -0.2724313 0.5212606
v -0.9191934 -0.2162735 0.5212606
v -0.9609937 -0.2724313 0.4488606
v -0.9609937 -0.2162736 0.4488606
v -0.9191934 -0.2162735 0.5212606
v -0.7937928 -0.2162736 0.44886
v -0.8355932 -0.2162735 0.5212606
v -0.9609937 -0.2162736 0.4488606
v -0.9191934 -0.2162737 0.3764608
v -0.8355932 -0.2162737 0.3764608
v -1.255123 -0.8767989 0.8265902
v -1.255123 -0.9775269 0.8265902
v -1.255123 -0.9775268 0.32295
v -1.255123 -0.8767987 0.32295
v 0.7594361 -0.2724312 0.8265896
v 1.263076 -0.8767989 0.8265902
v 1.263076 -0.9775269 0.8265902
v -1.255123 -0.9775269 0.8265902
v -0.7514835 -0.2724312 0.8265896
v -1.255123 -0.8767989 0.8265902
v 0.8643769 -0.9659463 2.73794
v 0.654271 -0.9659469 1.914876
v 1.202983 -0.9659466 2.486089
v 1.202983 -0.9659476 0.9030386
v 0.5297393 -0.9659467 2.302248
v -0.9748827 -0.9659463 2.73794
v -0.6402479 -0.9659467 2.302248
v -1.31349 -0.9659466 2.486089
v -0.7647806 -0.9659469 1.914876
v -1.31349 -0.9659476 0.9030386
v 0.654271 -0.9659477 0.8350375
v -0.7647806 -0.9659477 0.8350375
v 1.26277 -0.9659479 0.7624416
v 1.48367 -0.9659478 0.8762441
v 1.48367 -0.9659483 0.2162807
v -1.270445 -0.9659479 0.7624416
v -1.48367 -0.9659478 0.8762441
v 1.26277 -0.9659482 0.3300838
v 1.202983 -0.9659485 0.1747985
v -1.270445 -0.9659482 0.3300838
v -1.48367 -0.9659483 0.2162807
v -1.31349 -0.9659485 0.1747985
v 0.654271 -0.9659485 0.1747985
v -0.7647806 -0.9659485 0.1747985
v 0.6802901 -0.9659494 -1.86759
v 1.165788 -0.9659498 -2.73794
v -0.7907968 -0.9659494 -1.86759
v -1.276293 -0.9659498 -2.73794
vt 0.4580116 0.925418
vt 0.5526284 0.9589456
vt 0.5417207 0.9281002
vt 0.1509154 0.8887845
vt 0.2455322 0.8552569
vt 0.161823 0.8579389
vt 0.2801796 0.5938768
vt 0.2801439 0.009768311
vt 0.2737676 0.009768644
vt 0.2738033 0.593877
vt 0.3227117 0.5938739
vt 0.322676 0.009765625
vt 0.2801439 0.009768311
vt 0.2801796 0.5938768
vt 0.9216929 0.009766141
vt 0.9642251 0.01614186
vt 0.9642249 0.009765625
vt 0.9476536 0.01614201
vt 0.9476554 0.1980924
vt 0.9216951 0.2044689
vt 0.9642271 0.1980922
vt 0.9642272 0.2044684
vt 0.257196 0.009769665
vt 0.2572318 0.593878
vt 0.2738033 0.593877
vt 0.2737676 0.009768644
vt 0.05233362 0.5938907
vt 0.05870989 0.5938904
vt 0.05867407 0.009781811
vt 0.05229773 0.009782216
vt 0.257196 0.009769665
vt 0.07524568 0.009780836
vt 0.07528155 0.5938894
vt 0.2572318 0.593878
vt 0.009801492 0.5938933
vt 0.05233362 0.5938907
vt 0.05229773 0.009782216
vt 0.009765625 0.009784831
vt 0.07524568 0.009780836
vt 0.05867407 0.009781811
vt 0.05870989 0.5938904
vt 0.07528155 0.5938894
vt 0.5742133 0.9285173
vt 0.5754947 0.8626847
vt 0.5430115 0.8618392
vt 0.5417207 0.9281002
vt 0.4580116 0.925418
vt 0.5417207 0.9281002
vt 0.5430115 0.8618392
vt 0.4561903 0.8614946
vt 0.524871 0.2143274
vt 0.5321077 0.2251005
vt 0.5321077 0.2143274
vt 0.5248711 0.2251005
vt 0.5321077 0.2358737
vt 0.524871 0.2358737
vt 0.5321077 0.2466468
vt 0.5248711 0.2466468
vt 0.7118596 0.3051535
vt 0.7305189 0.3051963
vt 0.7212126 0.2997751
vt 0.7304945 0.3159561
vt 0.7211413 0.3213345
vt 0.2615949 0.7912949
vt 0.2688316 0.8020679
vt 0.2688316 0.7912949
vt 0.2615949 0.8020679
vt 0.2688316 0.8128409
vt 0.2615949 0.8128409
vt 0.2688316 0.823614
vt 0.2615949 0.823614
vt 0.4867395 0.259218
vt 0.5053988 0.2592607
vt 0.4960926 0.2538396
vt 0.5053744 0.2700206
vt 0.4960213 0.275399
vt 0.5455042 0.4624781
vt 0.545508 0.397577
vt 0.5325277 0.3975765
vt 0.532524 0.4624773
vt 0.1293304 0.8583561
vt 0.161823 0.8579389
vt 0.1605323 0.7916781
vt 0.1280491 0.7925236
vt 0.1605323 0.7916781
vt 0.161823 0.8579389
vt 0.2455322 0.8552569
vt 0.2473536 0.7913335
vt 0.623682 0.7856803
vt 0.6164453 0.7964534
vt 0.6236821 0.7964534
vt 0.6164453 0.7856803
vt 0.6236821 0.7749073
vt 0.6164453 0.7749073
vt 0.623682 0.7641343
vt 0.6164453 0.7641343
vt 0.623682 0.7533613
vt 0.6164453 0.7533613
vt 0.623682 0.7425883
vt 0.6164453 0.7425883
vt 0.623682 0.7318153
vt 0.6164453 0.7318153
vt 0.9729706 0.300127
vt 0.9636888 0.283946
vt 0.9636645 0.2947058
vt 0.9823238 0.2947486
vt 0.9823482 0.2839887
vt 0.973042 0.2785676
vt 0.5969728 0.8447526
vt 0.5897361 0.8555257
vt 0.5969728 0.8555257
vt 0.5897361 0.8447526
vt 0.5969728 0.8339795
vt 0.5897361 0.8339795
vt 0.5969728 0.8232064
vt 0.5897361 0.8232065
vt 0.5969728 0.8124334
vt 0.5897361 0.8124334
vt 0.5969728 0.8016603
vt 0.5897361 0.8016603
vt 0.5969728 0.7908872
vt 0.5897361 0.7908872
vt 0.4578653 0.1598841
vt 0.4485834 0.1437031
vt 0.4485591 0.1544629
vt 0.4672183 0.1545057
vt 0.4672427 0.1437459
vt 0.4579366 0.1383246
vt 0.5454862 0.7869828
vt 0.5325059 0.7869821
vt 0.5325022 0.8518831
vt 0.5454825 0.8518839
vt 0.6233816 0.5273833
vt 0.5455042 0.4624781
vt 0.532524 0.4624773
vt 0.5325059 0.7869821
vt 0.6233709 0.7220863
vt 0.5454862 0.7869828
vt -0.9069386 0.595603
vt -0.9292827 0.6866408
vt -0.8693169 0.6230483
vt -0.8677002 0.7977344
vt -0.9434202 0.6440223
vt -1.109897 0.5974815
vt -1.072526 0.6452173
vt -1.147004 0.6256183
vt -1.085872 0.68809
vt -1.145387 0.8003044
vt -0.9281799 0.8057985
vt -1.084769 0.8072478
vt -0.8609593 0.8131878
vt -0.8366997 0.8004044
vt -0.8360257 0.8732298
vt -1.140494 0.815775
vt -1.164139 0.8034349
vt -0.8605177 0.8608976
vt -0.8669565 0.878094
vt -1.140052 0.8634847
vt -1.163465 0.8762603
vt -1.144644 0.8806641
vt -0.9275056 0.8786544
vt -1.084095 0.8801036
vt -0.9225485 1.104001
vt -0.8680862 1.199546
vt -1.08488 1.105503
vt -1.137564 1.20204
vn -4.733913E-07 1.375125E-06 1
vn -2.366955E-07 1.916461E-07 1
vn -3.523057E-07 1.411939E-07 1
vn 2.366955E-07 1.916461E-07 1
vn 4.733913E-07 1.375125E-06 1
vn 3.523057E-07 1.411939E-07 1
vn 0 0.9063078 0.4226182
vn 0 0.9063078 0.4226182
vn 0 0.9063078 0.4226182
vn 0 0.9063078 0.4226182
vn 1 -5.465846E-07 -1.09785E-07
vn 1 -5.465845E-07 -1.097849E-07
vn 1 -5.465844E-07 -1.097849E-07
vn 1 -5.465845E-07 -1.097849E-07
vn 1.955194E-07 -0.4226182 0.9063078
vn 7.210138E-07 -0.4226176 0.9063081
vn 0 -0.4226178 0.9063081
vn 4.567285E-06 -0.4226173 0.9063082
vn 5.14334E-06 -0.422619 0.9063074
vn 3.22833E-07 -0.422618 0.9063079
vn 8.042037E-07 -0.4226187 0.9063076
vn 0 -0.4226186 0.9063077
vn -1 0 -1.191774E-07
vn -1 0 -1.191774E-07
vn -1 0 -1.191774E-07
vn -1 0 -1.191774E-07
vn 0 0.9063078 0.4226182
vn 0 0.9063078 0.4226182
vn 0 0.9063079 0.4226181
vn 0 0.9063078 0.4226182
vn -1.554514E-07 0.9063078 0.4226182
vn -1.427239E-07 0.9063078 0.4226182
vn -1.96202E-07 0.9063078 0.4226182
vn -2.089296E-07 0.9063078 0.4226182
vn -1 -4.220497E-07 -3.57077E-07
vn -1 -4.298805E-07 -3.600572E-07
vn -1 -2.684835E-07 -2.986343E-07
vn -1 -2.606526E-07 -2.956541E-07
vn 1 0 1.191772E-07
vn 1 0 1.191772E-07
vn 1 0 1.191773E-07
vn 1 0 1.191773E-07
vn 0 1 0
vn 0 1 0
vn 0 1 0
vn 0 1 0
vn 1 0 0
vn 0.9067213 0.4217304 0
vn 0.9067213 0.4217305 0
vn 1 0 0
vn 1 0 -1.029669E-06
vn 0.4999993 0 0.8660258
vn 1 0 -1.051576E-06
vn 0.4999995 0 0.8660257
vn -0.5000005 0 0.8660251
vn -0.5000008 -1.928985E-07 0.8660249
vn -1 2.307556E-07 -5.257879E-07
vn -1 -2.379629E-07 -2.234601E-06
vn 0 1 0
vn 0 1 -1.690243E-06
vn 0 1 -1.690245E-06
vn 0 1 0
vn 0 1 1.602829E-06
vn 1 2.379658E-07 -4.929269E-07
vn 0.4999993 1.695703E-06 0.8660258
vn 1 0 0
vn 0.4999987 1.47216E-06 0.8660262
vn -0.5000005 5.568124E-07 0.8660251
vn -0.5000007 0 0.866025
vn -1 0 0
vn -1 0 -3.28618E-07
vn 0 1 -8.669816E-07
vn 0 1 0
vn 0 1 0
vn 0 1 -8.669811E-07
vn 0 1 -1.690252E-06
vn 1 0 0
vn 1 0 0
vn 1 0 0
vn 1 0 0
vn 0 1 0
vn 0 1 0
vn 0 1 0
vn 0 1 0
vn -0.9067213 0.4217305 0
vn -0.9067213 0.4217304 0
vn -1 0 0
vn -1 0 0
vn -0.4999998 0 -0.8660255
vn -1 0 -1.051576E-06
vn -1 0 -1.029669E-06
vn -0.4999996 0 -0.8660257
vn 0.4999982 0 -0.8660264
vn 0.4999982 1.426626E-07 -0.8660265
vn 1 -2.379629E-07 -2.234601E-06
vn 1 2.307556E-07 -5.257879E-07
vn 0.5000008 -1.928985E-07 0.8660249
vn 0.5000005 0 0.8660251
vn -0.4999995 0 0.8660257
vn -0.4999993 0 0.8660258
vn -1 0 -1.029669E-06
vn -1 0 -1.051576E-06
vn 0 1 -1.690243E-06
vn 0 1 0
vn 0 1 -1.690245E-06
vn 0 1 0
vn 0 1 1.602829E-06
vn 0 1 1.602828E-06
vn -0.4999998 0 -0.8660255
vn -1 0 0
vn -1 2.379658E-07 -4.929269E-07
vn -0.5000001 0 -0.8660253
vn 0.4999986 0 -0.8660262
vn 0.4999988 0 -0.866026
vn 1 0 -3.28618E-07
vn 1 0 0
vn 0.5000008 0 0.866025
vn 0.5000005 5.568124E-07 0.8660251
vn -0.4999987 1.47216E-06 0.8660262
vn -0.4999993 1.695703E-06 0.8660258
vn -1 2.379658E-07 -4.929269E-07
vn -1 0 0
vn 0 1 0
vn 0 1 -8.669816E-07
vn 0 1 0
vn 0 1 -8.669811E-07
vn 0 1 -1.690252E-06
vn 0 1 -1.69025E-06
vn -1 0 0
vn -1 0 0
vn -1 0 0
vn -1 0 0
vn -2.366955E-07 1.916461E-07 1
vn -4.733913E-07 1.375125E-06 1
vn -4.5257E-07 4.436864E-07 1
vn 4.5257E-07 4.436863E-07 1
vn 2.366955E-07 1.916461E-07 1
vn 4.733913E-07 1.375125E-06 1
vn 0 1 -7.151972E-07
vn 0 1 -6.88381E-07
vn 0 1 -6.931081E-07
vn 0 1 -1.728534E-06
vn 0 1 -7.117341E-07
vn 0 1 -7.203839E-07
vn 0 1 -7.120922E-07
vn 0 1 -6.937018E-07
vn 0 1 -6.873101E-07
vn -2.037842E-07 1 -1.847343E-06
vn 0 1 -1.843298E-06
vn 0 1 -1.843322E-06
vn 0 1 -1.423325E-06
vn 0 1 -1.308092E-06
vn -2.1843E-07 1 -9.771387E-07
vn 0 1 -1.464253E-06
vn 0 1 -1.437706E-06
vn 0 1 -1.019881E-06
vn 0 1 -1.135448E-06
vn 1.171301E-07 1 -1.103847E-06
vn 2.746724E-07 1 -1.172124E-06
vn 1.987423E-07 1 -1.214791E-06
vn 0 1 -9.889733E-07
vn 0 1 -9.889636E-07
vn 0 1 -3.871994E-07
vn 0 1 -3.871993E-07
vn 0 1 -3.871993E-07
vn 0 1 -3.871993E-07
g HoopRamp_LOD_0
f 3/3/3 2/2/2 1/1/1
f 6/6/6 5/5/5 4/4/4
f 9/9/9 8/8/8 7/7/7
f 10/10/10 9/9/9 7/7/7
f 13/13/13 12/12/12 11/11/11
f 14/14/14 13/13/13 11/11/11
f 17/17/17 16/16/16 15/15/15
f 16/16/16 18/18/18 15/15/15
f 18/18/18 19/19/19 15/15/15
f 19/19/19 20/20/20 15/15/15
f 19/19/19 21/21/21 20/20/20
f 21/21/21 22/22/22 20/20/20
f 25/25/25 24/24/24 23/23/23
f 26/26/26 25/25/25 23/23/23
f 29/29/29 28/28/28 27/27/27
f 30/30/30 29/29/29 27/27/27
f 33/33/33 32/32/32 31/31/31
f 34/34/34 33/33/33 31/31/31
f 37/37/37 36/36/36 35/35/35
f 38/38/38 37/37/37 35/35/35
f 41/41/41 40/40/40 39/39/39
f 42/42/42 41/41/41 39/39/39
f 45/45/45 44/44/44 43/43/43
f 46/46/46 45/45/45 43/43/43
f 49/49/49 48/48/48 47/47/47
f 50/50/50 49/49/49 47/47/47
f 53/53/53 52/52/52 51/51/51
f 52/52/52 54/54/54 51/51/51
f 52/52/52 55/55/55 54/54/54
f 55/55/55 56/56/56 54/54/54
f 55/55/55 57/57/57 56/56/56
f 57/57/57 58/58/58 56/56/56
f 61/61/61 60/60/60 59/59/59
f 60/60/60 62/62/62 59/59/59
f 62/62/62 63/63/63 59/59/59
f 66/66/66 65/65/65 64/64/64
f 65/65/65 67/67/67 64/64/64
f 65/65/65 68/68/68 67/67/67
f 68/68/68 69/69/69 67/67/67
f 68/68/68 70/70/70 69/69/69
f 70/70/70 71/71/71 69/69/69
f 74/74/74 73/73/73 72/72/72
f 73/73/73 75/75/75 72/72/72
f 75/75/75 76/76/76 72/72/72
f 79/79/79 78/78/78 77/77/77
f 80/80/80 79/79/79 77/77/77
f 83/83/83 82/82/82 81/81/81
f 84/84/84 83/83/83 81/81/81
f 87/87/87 86/86/86 85/85/85
f 88/88/88 87/87/87 85/85/85
f 91/91/91 90/90/90 89/89/89
f 90/90/90 92/92/92 89/89/89
f 89/89/89 92/92/92 93/93/93
f 92/92/92 94/94/94 93/93/93
f 93/93/93 94/94/94 95/95/95
f 94/94/94 96/96/96 95/95/95
f 95/95/95 96/96/96 97/97/97
f 96/96/96 98/98/98 97/97/97
f 97/97/97 98/98/98 99/99/99
f 98/98/98 100/100/100 99/99/99
f 99/99/99 100/100/100 101/101/101
f 100/100/100 102/102/102 101/101/101
f 105/105/105 104/104/104 103/103/103
f 103/103/103 104/104/104 106/106/106
f 104/104/104 107/107/107 106/106/106
f 108/108/108 107/107/107 104/104/104
f 111/111/111 110/110/110 109/109/109
f 110/110/110 112/112/112 109/109/109
f 109/109/109 112/112/112 113/113/113
f 112/112/112 114/114/114 113/113/113
f 113/113/113 114/114/114 115/115/115
f 114/114/114 116/116/116 115/115/115
f 115/115/115 116/116/116 117/117/117
f 116/116/116 118/118/118 117/117/117
f 117/117/117 118/118/118 119/119/119
f 118/118/118 120/120/120 119/119/119
f 119/119/119 120/120/120 121/121/121
f 120/120/120 122/122/122 121/121/121
f 125/125/125 124/124/124 123/123/123
f 123/123/123 124/124/124 126/126/126
f 124/124/124 127/127/127 126/126/126
f 128/128/128 127/127/127 124/124/124
f 131/131/131 130/130/130 129/129/129
f 132/132/132 131/131/131 129/129/129
f 135/135/135 134/134/134 133/133/133
f 133/133/133 136/136/136 135/135/135
f 133/133/133 137/137/137 136/136/136
f 137/137/137 138/138/138 136/136/136
g HoopRamp_LOD_1
f 141/141/141 140/140/140 139/139/139
f 141/141/141 142/142/142 140/140/140
f 140/140/140 143/143/143 139/139/139
f 139/139/139 143/143/143 144/144/144
f 143/143/143 145/145/145 144/144/144
f 143/143/143 140/140/140 145/145/145
f 144/144/144 145/145/145 146/146/146
f 145/145/145 147/147/147 146/146/146
f 140/140/140 147/147/147 145/145/145
f 146/146/146 147/147/147 148/148/148
f 142/142/142 149/149/149 140/140/140
f 140/140/140 149/149/149 147/147/147
f 147/147/147 150/150/150 148/148/148
f 149/149/149 150/150/150 147/147/147
f 151/151/151 149/149/149 142/142/142
f 149/149/149 151/151/151 150/150/150
f 152/152/152 151/151/151 142/142/142
f 152/152/152 153/153/153 151/151/151
f 148/148/148 150/150/150 154/154/154
f 151/151/151 154/154/154 150/150/150
f 155/155/155 148/148/148 154/154/154
f 153/153/153 156/156/156 151/151/151
f 151/151/151 156/156/156 154/154/154
f 153/153/153 157/157/157 156/156/156
f 155/155/155 154/154/154 158/158/158
f 156/156/156 158/158/158 154/154/154
f 159/159/159 155/155/155 158/158/158
f 159/159/159 158/158/158 160/160/160
f 157/157/157 161/161/161 156/156/156
f 158/158/158 156/156/156 161/161/161
f 158/158/158 162/162/162 160/160/160
f 162/162/162 158/158/158 161/161/161
f 163/163/163 161/161/161 157/157/157
f 162/162/162 161/161/161 163/163/163
f 164/164/164 163/163/163 157/157/157
f 160/160/160 162/162/162 165/165/165
f 165/165/165 162/162/162 163/163/163
f 165/165/165 163/163/163 164/164/164
f 166/166/166 160/160/160 165/165/165
f 166/166/166 165/165/165 164/164/164
