g IcecreamCone
v 0.03940321 0.2886207 0.05470772
v 0.04959369 0.2887921 0.06802095
v 0.0827384 0.288747 0.01076742
v 0.06611855 0.2885844 0.00856002
v 0.06611855 0.2885844 0.00856002
v 0.0827384 0.288747 0.01076742
v 0.06569317 0.288211 -0.05315216
v 0.05237976 0.2881525 -0.04296061
v 0.05237976 0.2881525 -0.04296061
v 0.06569317 0.288211 -0.05315216
v 0.008442773 0.2874983 -0.08629455
v 0.006234541 0.287578 -0.06967419
v 0.006234541 0.287578 -0.06967419
v 0.008442773 0.2874983 -0.08629455
v -0.05547633 0.2870264 -0.06924546
v -0.04528575 0.2871976 -0.0559322
v -0.04528575 0.2871976 -0.0559322
v -0.05547633 0.2870264 -0.06924546
v -0.08862114 0.2870717 -0.01199194
v -0.07200118 0.287234 -0.009784538
v -0.07200118 0.287234 -0.009784538
v -0.08862114 0.2870717 -0.01199194
v -0.07157592 0.2876076 0.05192763
v -0.0582623 0.2876658 0.04173614
v -0.0582623 0.2876658 0.04173614
v -0.07157592 0.2876076 0.05192763
v -0.01432531 0.28832 0.08507008
v -0.01211708 0.2882403 0.0684497
v -0.01211708 0.2882403 0.0684497
v -0.01432531 0.28832 0.08507008
v 0.04959369 0.2887921 0.06802095
v 0.03940321 0.2886207 0.05470772
v 0.01850264 -0.04222625 0.02550434
v 0.0174577 0.07412018 0.02480762
v 0.02911448 0.07410415 0.004672002
v 0.03015938 -0.04224212 0.00536871
v 0.03015938 -0.04224212 0.00536871
v 0.02911448 0.07410415 0.004672002
v 0.02311976 0.07391571 -0.01780802
v 0.0241647 -0.04243057 -0.01711131
v 0.0241647 -0.04243057 -0.01711131
v 0.02311976 0.07391571 -0.01780802
v 0.002985268 0.07366501 -0.02946396
v 0.00403017 -0.0426812 -0.02876722
v 0.00403017 -0.0426812 -0.02876722
v 0.002985268 0.07366501 -0.02946396
v -0.01949459 0.07349914 -0.02346792
v -0.01844966 -0.04284721 -0.02277118
v -0.01844966 -0.04284721 -0.02277118
v -0.01949459 0.07349914 -0.02346792
v -0.03115138 0.07351501 -0.003332296
v -0.03010644 -0.04283127 -0.002635552
v -0.03010644 -0.04283127 -0.002635552
v -0.03115138 0.07351501 -0.003332296
v -0.02515665 0.07370346 0.01914774
v -0.02411173 -0.0426429 0.01984445
v -0.02411173 -0.0426429 0.01984445
v -0.02515665 0.07370346 0.01914774
v -0.005022068 0.07395401 0.03080365
v -0.003977184 -0.04239219 0.03150038
v -0.003977184 -0.04239219 0.03150038
v -0.005022068 0.07395401 0.03080365
v 0.0174577 0.07412018 0.02480762
v 0.01850264 -0.04222625 0.02550434
v -0.07198461 0.2434544 0.05280844
v -0.03655785 0.07104492 0.02790895
v -0.04538984 0.07076721 -0.00521089
v -0.08922983 0.2429123 -0.01186107
v -0.08922983 0.2429123 -0.01186107
v -0.04538984 0.07076721 -0.00521089
v -0.02821594 0.07074387 -0.03487672
v -0.05569627 0.2428667 -0.06978631
v -0.05569627 0.2428667 -0.06978631
v -0.02821594 0.07074387 -0.03487672
v 0.004903583 0.07098846 -0.04371071
v 0.008972798 0.2433441 -0.08703546
v 0.008972798 0.2433441 -0.08703546
v 0.004903583 0.07098846 -0.04371071
v 0.03456783 0.07135773 -0.026538
v 0.06689497 0.2440651 -0.05350418
v 0.06689497 0.2440651 -0.05350418
v 0.03456783 0.07135773 -0.026538
v 0.04339983 0.07163528 0.006581839
v 0.08414024 0.2446072 0.01116533
v 0.08414024 0.2446072 0.01116533
v 0.04339983 0.07163528 0.006581839
v 0.02622593 0.07165878 0.03624767
v 0.05060659 0.2446529 0.06909057
v 0.05060659 0.2446529 0.06909057
v 0.02622593 0.07165878 0.03624767
v -0.006893663 0.07141418 0.04508166
v -0.01406241 0.2441754 0.08633973
v -0.01406241 0.2441754 0.08633973
v -0.006893663 0.07141418 0.04508166
v -0.03655785 0.07104492 0.02790895
v -0.07198461 0.2434544 0.05280844
v 0.04941204 0.3090181 0.06789984
v -0.003123016 0.3081352 -0.0007333803
v 0.08255676 0.3089729 0.01064631
v -0.01450705 0.3085461 0.08494895
v 0.06551153 0.308437 -0.05327327
v -0.07175746 0.3078334 0.05180652
v 0.008261031 0.3077244 -0.08641569
v -0.08880278 0.3072976 -0.01211306
v -0.05565797 0.3072523 -0.06936657
v 0.03015938 -0.04224212 0.00536871
v 2.649307E-05 -0.0425367 0.001366569
v 0.01850264 -0.04222625 0.02550434
v 0.0241647 -0.04243057 -0.01711131
v -0.003977184 -0.04239219 0.03150038
v 0.00403017 -0.0426812 -0.02876722
v -0.02411173 -0.0426429 0.01984445
v -0.01844966 -0.04284721 -0.02277118
v -0.03010644 -0.04283127 -0.002635552
v -0.08922983 0.2429123 -0.01186107
v -0.002544813 0.2437598 -0.0003478706
v -0.07198461 0.2434544 0.05280844
v -0.05569627 0.2428667 -0.06978631
v -0.01406241 0.2441754 0.08633973
v 0.008972798 0.2433441 -0.08703546
v 0.05060659 0.2446529 0.06909057
v 0.06689497 0.2440651 -0.05350418
v 0.08414024 0.2446072 0.01116533
v -0.03655785 0.07104492 0.02790895
v -0.0009950447 0.07120132 0.0006854653
v -0.04538984 0.07076721 -0.00521089
v -0.006893663 0.07141418 0.04508166
v -0.02821594 0.07074387 -0.03487672
v 0.02622593 0.07165878 0.03624767
v 0.004903583 0.07098846 -0.04371071
v 0.04339983 0.07163528 0.006581839
v 0.03456783 0.07135773 -0.026538
v 0.07261543 0.3440413 0.0091573
v 0.07649197 0.3074005 0.009848055
v 0.04676296 0.3074455 0.06196504
v 0.04494888 0.3359495 0.05983602
v -0.0134981 0.3069971 0.07746661
v 0.05913134 0.3354378 -0.04690877
v 0.0614027 0.3069171 -0.04822154
v -0.01355649 0.3436629 0.07520754
v -0.06762151 0.3063272 0.04677291
v 0.006679001 0.3429326 -0.07709541
v 0.00727931 0.3062472 -0.07891524
v -0.0658626 0.3348662 0.04511843
v -0.08271072 0.3058439 -0.01129668
v -0.05168013 0.3343543 -0.06162634
v -0.05298175 0.3057988 -0.06341367
v -0.07949303 0.3425542 -0.0110452
v 0.04415745 0.3647276 -0.03625408
v 0.05329735 0.3797038 0.00641962
v 0.0040308 0.3788647 -0.05980182
v 0.03331318 0.365119 0.04536561
v -0.01155227 0.3794272 0.05748458
v -0.00392972 0.3979648 -0.001271311
v -0.04057173 0.3638992 -0.04750752
v -0.06081884 0.3785881 -0.008736867
v -0.05141599 0.3642904 0.03411217
v 0.03979965 0.2444714 0.0549721
v 0.03940321 0.2886207 0.05470772
v 0.06611855 0.2885844 0.00856002
v 0.0665151 0.2444351 0.00882442
v -0.01172062 0.244091 0.06871407
v 0.05237976 0.2881525 -0.04296061
v -0.01211708 0.2882403 0.0684497
v 0.0527762 0.2440031 -0.04269624
v -0.05786583 0.2435167 0.04200052
v 0.006234541 0.287578 -0.06967419
v -0.0582623 0.2876658 0.04173614
v 0.006630993 0.2434288 -0.06940981
v -0.07160472 0.2430847 -0.009520164
v -0.04528575 0.2871976 -0.0559322
v -0.07200118 0.287234 -0.009784538
v -0.04488929 0.2430484 -0.05566782
v 0.04959369 0.2887921 0.06802095
v 0.04941204 0.3090181 0.06789984
v 0.08255676 0.3089729 0.01064631
v 0.0827384 0.288747 0.01076742
v -0.01432531 0.28832 0.08507008
v 0.06551153 0.308437 -0.05327327
v -0.01450705 0.3085461 0.08494895
v 0.06569317 0.288211 -0.05315216
v -0.07157592 0.2876076 0.05192763
v 0.008261031 0.3077244 -0.08641569
v -0.07175746 0.3078334 0.05180652
v 0.008442773 0.2874983 -0.08629455
v -0.08862114 0.2870717 -0.01199194
v -0.05565797 0.3072523 -0.06936657
v -0.08880278 0.3072976 -0.01211306
v -0.05547633 0.2870264 -0.06924546
vt 0.1674765 0.1281163
vt 0.1602969 0.1237851
vt 0.1206943 0.1613036
vt 0.1225821 0.1694943
vt 0.1225821 0.1694943
vt 0.1206943 0.1613036
vt 0.06621337 0.1597198
vt 0.06176031 0.1668614
vt 0.06176031 0.1668614
vt 0.06621337 0.1597198
vt 0.02885163 0.1202033
vt 0.02064693 0.1221222
vt 0.02064693 0.1221222
vt 0.02885163 0.1202033
vt 0.0303148 0.06591737
vt 0.02313125 0.06149751
vt 0.02313125 0.06149751
vt 0.0303148 0.06591737
vt 0.06967843 0.02854091
vt 0.06768405 0.02034503
vt 0.06768405 0.02034503
vt 0.06967843 0.02854091
vt 0.1239814 0.02989066
vt 0.1283301 0.02267259
vt 0.1283301 0.02267259
vt 0.1239814 0.02989066
vt 0.1615342 0.06927067
vt 0.1696942 0.06722713
vt 0.1696942 0.06722713
vt 0.1615342 0.06927067
vt 0.1602969 0.1237851
vt 0.1674765 0.1281163
vt 0.3858077 0.0122273
vt 0.3857977 0.1269229
vt 0.3628629 0.1269252
vt 0.3628728 0.0122298
vt 0.3628636 0.01221335
vt 0.3628536 0.1269087
vt 0.3857879 0.1269107
vt 0.3857989 0.01221585
vt 0.3857989 0.01221585
vt 0.3857879 0.1269107
vt 0.3628542 0.1269131
vt 0.362864 0.01221716
vt 0.362864 0.01221716
vt 0.3628542 0.1269131
vt 0.3857901 0.1269143
vt 0.3857999 0.01221943
vt 0.3857999 0.01221943
vt 0.3857901 0.1269143
vt 0.362855 0.1269168
vt 0.362865 0.01222217
vt 0.362865 0.01222217
vt 0.362855 0.1269168
vt 0.3857922 0.1269193
vt 0.3858027 0.01222312
vt 0.3858027 0.01222312
vt 0.3857922 0.1269193
vt 0.3628571 0.1269208
vt 0.3628678 0.01222551
vt 0.3628678 0.01222551
vt 0.3628571 0.1269208
vt 0.3857977 0.1269229
vt 0.3858077 0.0122273
vt 0.3545026 0.1264424
vt 0.3445078 0.01068413
vt 0.3221031 0.01055264
vt 0.3107564 0.1261871
vt 0.3107564 0.1261871
vt 0.3221031 0.01055264
vt 0.3445083 0.01068437
vt 0.3545021 0.1264424
vt 0.3545021 0.1264424
vt 0.3445083 0.01068437
vt 0.3221027 0.01055264
vt 0.3107559 0.1261869
vt 0.3107559 0.1261869
vt 0.3221027 0.01055264
vt 0.3445074 0.01068389
vt 0.3545021 0.1264421
vt 0.3545021 0.1264421
vt 0.3445074 0.01068389
vt 0.3221024 0.01055253
vt 0.3107557 0.1261868
vt 0.3107557 0.1261868
vt 0.3221031 0.01055253
vt 0.3445078 0.01068389
vt 0.3545026 0.1264424
vt 0.3545026 0.1264424
vt 0.3445078 0.01068389
vt 0.3221032 0.01055264
vt 0.3107557 0.1261869
vt 0.3107557 0.1261869
vt 0.3221032 0.01055264
vt 0.3445078 0.01068413
vt 0.3545026 0.1264424
vt 0.1469835 0.118238
vt 0.09532237 0.09496725
vt 0.1153184 0.1479114
vt 0.1482171 0.07480139
vt 0.07188976 0.1464549
vt 0.118458 0.04322517
vt 0.04224479 0.114807
vt 0.0751673 0.04190141
vt 0.04362476 0.07153291
vt 0.3707975 0.1371388
vt 0.3703514 0.1593031
vt 0.3863393 0.1439456
vt 0.3549939 0.1433153
vt 0.3925155 0.1597486
vt 0.3481876 0.1588571
vt 0.3857082 0.1752906
vt 0.3543631 0.1746603
vt 0.3699049 0.1814671
vt 0.2897615 0.01385933
vt 0.2800848 0.03721565
vt 0.3034427 0.02754247
vt 0.2704121 0.0138579
vt 0.3034413 0.04689217
vt 0.2567284 0.02753913
vt 0.289758 0.0605734
vt 0.2567272 0.04688877
vt 0.2704082 0.06057197
vt 0.3334156 0.1764314
vt 0.3179586 0.1600866
vt 0.3173311 0.1825742
vt 0.3404454 0.1607144
vt 0.3016137 0.1755437
vt 0.3343034 0.1446298
vt 0.2954711 0.1594589
vt 0.3185865 0.1375996
vt 0.3025014 0.143742
vt 0.1527454 0.2998639
vt 0.1778129 0.3112826
vt 0.178479 0.2431414
vt 0.1604749 0.2497953
vt 0.1321568 0.1901897
vt 0.1200434 0.3385577
vt 0.1268395 0.3565075
vt 0.120833 0.2150493
vt 0.06180394 0.1899961
vt 0.06781042 0.3314544
vt 0.0564872 0.356314
vt 0.06860018 0.2079461
vt 0.01083052 0.2352216
vt 0.02816916 0.2967088
vt 0.01016545 0.3033624
vt 0.03589892 0.2466404
vt 0.1114712 0.3163323
vt 0.1283369 0.2887459
vt 0.07870412 0.3075392
vt 0.1380805 0.2579152
vt 0.1099401 0.2389646
vt 0.09432209 0.2732521
vt 0.05056345 0.288589
vt 0.06030667 0.2577578
vt 0.07717264 0.23017
vt 0.1803688 0.1338066
vt 0.1674765 0.1281163
vt 0.1225821 0.1694943
vt 0.1275433 0.1826911
vt 0.1828055 0.06202739
vt 0.06176031 0.1668614
vt 0.1696942 0.06722713
vt 0.05584919 0.1796915
vt 0.1339732 0.009723008
vt 0.02064693 0.1221222
vt 0.1283301 0.02267259
vt 0.007405996 0.1270645
vt 0.06258869 0.007160962
vt 0.02313125 0.06149751
vt 0.06768405 0.02034503
vt 0.01023901 0.05569905
vt 0.1602969 0.1237851
vt 0.1469835 0.118238
vt 0.1153184 0.1479114
vt 0.1206943 0.1613036
vt 0.1615342 0.06927067
vt 0.07188976 0.1464549
vt 0.1482171 0.07480139
vt 0.06621337 0.1597198
vt 0.1239814 0.02989066
vt 0.04224479 0.114807
vt 0.118458 0.04322517
vt 0.02885163 0.1202033
vt 0.06967843 0.02854091
vt 0.04362476 0.07153291
vt 0.0751673 0.04190141
vt 0.0303148 0.06591737
vn 0.008985072 -0.9999417 0.005988601
vn 0.008985102 -0.9999417 0.005988609
vn 0.008985072 -0.9999417 0.005988601
vn 0.008985043 -0.9999417 0.005988594
vn 0.00898543 -0.9999417 0.005988646
vn 0.00898537 -0.9999417 0.005988639
vn 0.00898537 -0.9999417 0.005988639
vn 0.00898537 -0.9999417 0.005988639
vn 0.008982368 -0.9999417 0.005986587
vn 0.008982368 -0.9999417 0.005986587
vn 0.008982368 -0.9999417 0.005986587
vn 0.008982339 -0.9999417 0.00598658
vn 0.008979947 -0.9999418 0.005987924
vn 0.008979917 -0.9999418 0.005987916
vn 0.008979947 -0.9999418 0.005987924
vn 0.008979946 -0.9999418 0.005987924
vn 0.008977331 -0.9999418 0.005985912
vn 0.008977361 -0.9999418 0.00598592
vn 0.008977391 -0.9999418 0.00598592
vn 0.008977361 -0.9999418 0.00598592
vn 0.008974461 -0.9999418 0.005987192
vn 0.008974372 -0.9999418 0.005987186
vn 0.008974372 -0.9999418 0.005987186
vn 0.008974372 -0.9999418 0.005987186
vn 0.008976724 -0.9999417 0.005996641
vn 0.008976724 -0.9999417 0.005996641
vn 0.008976724 -0.9999417 0.005996641
vn 0.008976695 -0.9999417 0.005996642
vn 0.008982628 -0.9999417 0.005988277
vn 0.008982657 -0.9999417 0.005988284
vn 0.008982628 -0.9999417 0.005988277
vn 0.008982657 -0.9999417 0.005988284
vn 0.6077893 0.01021349 0.7940326
vn 0.6077895 0.01021349 0.7940325
vn 0.9912485 0.009690786 0.1316529
vn 0.9912485 0.009690815 0.1316529
vn 0.9912485 0.009690815 0.1316529
vn 0.9912485 0.009690786 0.1316529
vn 0.7940481 0.00349135 -0.6078449
vn 0.7940478 0.003491318 -0.6078454
vn 0.7940478 0.003491318 -0.6078454
vn 0.7940481 0.00349135 -0.6078449
vn 0.1317053 -0.004753379 -0.9912776
vn 0.1317047 -0.004753373 -0.9912776
vn 0.1317047 -0.004753373 -0.9912776
vn 0.1317053 -0.004753379 -0.9912776
vn -0.607789 -0.01021373 -0.7940329
vn -0.6077885 -0.01021376 -0.7940332
vn -0.6077885 -0.01021376 -0.7940332
vn -0.607789 -0.01021373 -0.7940329
vn -0.9912483 -0.009691059 -0.1316541
vn -0.9912484 -0.009691089 -0.131654
vn -0.9912484 -0.009691089 -0.131654
vn -0.9912483 -0.009691059 -0.1316541
vn -0.7940472 -0.003491494 0.607846
vn -0.7940469 -0.003491403 0.6078464
vn -0.7940469 -0.003491403 0.6078464
vn -0.7940472 -0.003491494 0.607846
vn -0.131704 0.004753308 0.9912777
vn -0.1317046 0.004753311 0.9912776
vn -0.1317046 0.004753311 0.9912776
vn -0.131704 0.004753308 0.9912777
vn 0.6077895 0.01021349 0.7940325
vn 0.6077893 0.01021349 0.7940326
vn -0.7686847 -0.2433766 0.5915164
vn -0.7686848 -0.2433767 0.5915163
vn -0.9601213 -0.2493948 -0.1263689
vn -0.9601215 -0.2493949 -0.1263689
vn -0.9601215 -0.2493949 -0.1263689
vn -0.9601213 -0.2493948 -0.1263689
vn -0.5878699 -0.2499021 -0.7693881
vn -0.5878698 -0.2499021 -0.7693881
vn -0.5878698 -0.2499021 -0.7693881
vn -0.5878699 -0.2499021 -0.7693881
vn 0.1300101 -0.2446012 -0.9608682
vn 0.1300102 -0.2446012 -0.9608682
vn 0.1300102 -0.2446012 -0.9608682
vn 0.1300101 -0.2446012 -0.9608682
vn 0.7729948 -0.2365978 -0.588643
vn 0.7729948 -0.2365978 -0.5886429
vn 0.7729948 -0.2365978 -0.5886429
vn 0.7729948 -0.2365978 -0.588643
vn 0.9644319 -0.2305796 0.1292439
vn 0.9644319 -0.2305796 0.1292439
vn 0.9644319 -0.2305796 0.1292439
vn 0.9644319 -0.2305796 0.1292439
vn 0.5921802 -0.2300719 0.7722626
vn 0.5921801 -0.2300718 0.7722626
vn 0.5921801 -0.2300718 0.7722626
vn 0.5921802 -0.2300719 0.7722626
vn -0.1257003 -0.2353727 0.9637423
vn -0.1257002 -0.2353727 0.9637423
vn -0.1257002 -0.2353727 0.9637423
vn -0.1257003 -0.2353727 0.9637423
vn -0.7686848 -0.2433767 0.5915163
vn -0.7686847 -0.2433766 0.5915164
vn -0.0089809 0.9999418 -0.005987134
vn -0.00898104 0.9999417 -0.005987894
vn -0.008981172 0.9999418 -0.005986913
vn -0.008981136 0.9999417 -0.005988331
vn -0.008980598 0.9999417 -0.005989169
vn -0.008981316 0.9999417 -0.005988105
vn -0.008980749 0.9999418 -0.005988279
vn -0.00898093 0.9999417 -0.00598805
vn -0.008981288 0.9999418 -0.005987187
vn 0.008982311 -0.9999418 0.005985878
vn 0.00898139 -0.9999418 0.005987107
vn 0.008981952 -0.9999418 0.005985836
vn 0.008981734 -0.9999417 0.005988161
vn 0.008981528 -0.9999417 0.005988804
vn 0.008981525 -0.9999417 0.005988127
vn 0.00898118 -0.9999418 0.005986404
vn 0.008980691 -0.9999418 0.00598802
vn 0.008980164 -0.9999418 0.005985593
vn -0.008981018 0.9999417 -0.005988057
vn -0.008980125 0.9999418 -0.005987943
vn -0.008979976 0.9999418 -0.005989061
vn -0.008980364 0.9999418 -0.005986838
vn -0.008979619 0.9999418 -0.005987879
vn -0.008979798 0.9999418 -0.005987902
vn -0.008980125 0.9999418 -0.005987943
vn -0.008980304 0.9999418 -0.005987969
vn -0.008980186 0.9999418 -0.005987954
vn 0.008982317 -0.9999417 0.005989028
vn 0.008981813 -0.9999417 0.005988467
vn 0.008981943 -0.9999417 0.005988188
vn 0.008982108 -0.9999417 0.005989002
vn 0.00898239 -0.9999417 0.005988244
vn 0.008981033 -0.9999417 0.005990235
vn 0.008982264 -0.9999417 0.005986454
vn 0.008980766 -0.9999417 0.005990198
vn 0.0089814 -0.9999418 0.005986339
vn 0.9395572 0.31942 0.1233009
vn 0.9861308 0.1025095 0.1305294
vn 0.6015534 0.09144448 0.7935814
vn 0.5851372 0.2626811 0.7672112
vn -0.1320104 0.07414221 0.9884717
vn 0.7654943 0.2561718 -0.5902494
vn 0.7880123 0.08471449 -0.6098033
vn -0.1286045 0.295966 0.9465015
vn -0.789472 0.07784462 0.6088303
vn 0.1233698 0.2868728 -0.9499916
vn 0.1307633 0.0646583 -0.9893029
vn -0.7700351 0.2494324 0.5872217
vn -0.9877987 0.0832102 -0.131642
vn -0.5896782 0.2429233 -0.7702389
vn -0.6030136 0.07111519 -0.7945548
vn -0.9451292 0.3009944 -0.1270171
vn 0.5835345 0.6774812 -0.4477797
vn 0.5900885 0.8038896 0.074546
vn 0.07390063 0.7856436 -0.6142498
vn 0.4472183 0.6824006 0.5782086
vn -0.08806689 0.7914886 0.6048057
vn -0.008981431 0.9999417 -0.00598816
vn -0.4593407 0.6672857 -0.5862899
vn -0.604423 0.7922116 -0.08410463
vn -0.5956566 0.6722054 0.4396965
vn 0.6077886 0.01021328 0.7940331
vn 0.6077893 0.01021328 0.7940328
vn 0.9912483 0.009690852 0.1316545
vn 0.9912483 0.009690822 0.1316546
vn -0.1317043 0.004753191 0.9912777
vn 0.7940482 0.003491082 -0.6078448
vn -0.1317039 0.004753205 0.9912777
vn 0.7940478 0.003491139 -0.6078454
vn -0.794048 -0.003490664 0.6078451
vn 0.1317045 -0.004753299 -0.9912777
vn -0.7940478 -0.003490663 0.6078452
vn 0.131704 -0.004753297 -0.9912777
vn -0.9912483 -0.00968972 -0.1316547
vn -0.6077893 -0.01021268 -0.7940326
vn -0.9912483 -0.00968978 -0.1316547
vn -0.6077896 -0.01021268 -0.7940325
vn 0.6077881 0.01021355 0.7940336
vn 0.6077885 0.01021349 0.7940332
vn 0.9912484 0.009690074 0.1316536
vn 0.9912484 0.009690074 0.1316537
vn -0.1317034 0.004753928 0.9912778
vn 0.7940467 0.003491491 -0.6078467
vn -0.1317053 0.004753893 0.9912776
vn 0.7940464 0.003491549 -0.6078472
vn -0.7940478 -0.00348962 0.6078453
vn 0.1317036 -0.004753279 -0.9912778
vn -0.7940467 -0.003489614 0.6078468
vn 0.1317056 -0.004753252 -0.9912775
vn -0.9912481 -0.009689486 -0.1316555
vn -0.6077875 -0.01021418 -0.794034
vn -0.9912481 -0.009689425 -0.1316554
vn -0.6077875 -0.01021418 -0.794034
g IcecreamCone_0
f 3/3/3 2/2/2 1/1/1
f 4/4/4 3/3/3 1/1/1
f 7/7/7 6/6/6 5/5/5
f 8/8/8 7/7/7 5/5/5
f 11/11/11 10/10/10 9/9/9
f 12/12/12 11/11/11 9/9/9
f 15/15/15 14/14/14 13/13/13
f 16/16/16 15/15/15 13/13/13
f 19/19/19 18/18/18 17/17/17
f 20/20/20 19/19/19 17/17/17
f 23/23/23 22/22/22 21/21/21
f 24/24/24 23/23/23 21/21/21
f 27/27/27 26/26/26 25/25/25
f 28/28/28 27/27/27 25/25/25
f 31/31/31 30/30/30 29/29/29
f 32/32/32 31/31/31 29/29/29
f 35/35/35 34/34/34 33/33/33
f 36/36/36 35/35/35 33/33/33
f 39/39/39 38/38/38 37/37/37
f 40/40/40 39/39/39 37/37/37
f 43/43/43 42/42/42 41/41/41
f 44/44/44 43/43/43 41/41/41
f 47/47/47 46/46/46 45/45/45
f 48/48/48 47/47/47 45/45/45
f 51/51/51 50/50/50 49/49/49
f 52/52/52 51/51/51 49/49/49
f 55/55/55 54/54/54 53/53/53
f 56/56/56 55/55/55 53/53/53
f 59/59/59 58/58/58 57/57/57
f 60/60/60 59/59/59 57/57/57
f 63/63/63 62/62/62 61/61/61
f 64/64/64 63/63/63 61/61/61
f 67/67/67 66/66/66 65/65/65
f 68/68/68 67/67/67 65/65/65
f 71/71/71 70/70/70 69/69/69
f 72/72/72 71/71/71 69/69/69
f 75/75/75 74/74/74 73/73/73
f 76/76/76 75/75/75 73/73/73
f 79/79/79 78/78/78 77/77/77
f 80/80/80 79/79/79 77/77/77
f 83/83/83 82/82/82 81/81/81
f 84/84/84 83/83/83 81/81/81
f 87/87/87 86/86/86 85/85/85
f 88/88/88 87/87/87 85/85/85
f 91/91/91 90/90/90 89/89/89
f 92/92/92 91/91/91 89/89/89
f 95/95/95 94/94/94 93/93/93
f 96/96/96 95/95/95 93/93/93
f 99/99/99 98/98/98 97/97/97
f 97/97/97 98/98/98 100/100/100
f 101/101/101 98/98/98 99/99/99
f 100/100/100 98/98/98 102/102/102
f 103/103/103 98/98/98 101/101/101
f 102/102/102 98/98/98 104/104/104
f 105/105/105 98/98/98 103/103/103
f 104/104/104 98/98/98 105/105/105
f 108/108/108 107/107/107 106/106/106
f 106/106/106 107/107/107 109/109/109
f 110/110/110 107/107/107 108/108/108
f 109/109/109 107/107/107 111/111/111
f 112/112/112 107/107/107 110/110/110
f 111/111/111 107/107/107 113/113/113
f 114/114/114 107/107/107 112/112/112
f 113/113/113 107/107/107 114/114/114
f 117/117/117 116/116/116 115/115/115
f 115/115/115 116/116/116 118/118/118
f 119/119/119 116/116/116 117/117/117
f 118/118/118 116/116/116 120/120/120
f 121/121/121 116/116/116 119/119/119
f 120/120/120 116/116/116 122/122/122
f 123/123/123 116/116/116 121/121/121
f 122/122/122 116/116/116 123/123/123
f 126/126/126 125/125/125 124/124/124
f 124/124/124 125/125/125 127/127/127
f 128/128/128 125/125/125 126/126/126
f 127/127/127 125/125/125 129/129/129
f 130/130/130 125/125/125 128/128/128
f 129/129/129 125/125/125 131/131/131
f 132/132/132 125/125/125 130/130/130
f 131/131/131 125/125/125 132/132/132
f 135/135/135 134/134/134 133/133/133
f 136/136/136 135/135/135 133/133/133
f 135/135/135 136/136/136 137/137/137
f 133/133/133 134/134/134 138/138/138
f 134/134/134 139/139/139 138/138/138
f 136/136/136 140/140/140 137/137/137
f 137/137/137 140/140/140 141/141/141
f 142/142/142 138/138/138 139/139/139
f 143/143/143 142/142/142 139/139/139
f 140/140/140 144/144/144 141/141/141
f 141/141/141 144/144/144 145/145/145
f 146/146/146 142/142/142 143/143/143
f 147/147/147 146/146/146 143/143/143
f 145/145/145 148/148/148 147/147/147
f 144/144/144 148/148/148 145/145/145
f 148/148/148 146/146/146 147/147/147
f 133/133/133 138/138/138 149/149/149
f 136/136/136 133/133/133 150/150/150
f 150/150/150 133/133/133 149/149/149
f 151/151/151 149/149/149 138/138/138
f 142/142/142 151/151/151 138/138/138
f 150/150/150 149/149/149 151/151/151
f 136/136/136 152/152/152 140/140/140
f 152/152/152 136/136/136 150/150/150
f 140/140/140 153/153/153 144/144/144
f 152/152/152 153/153/153 140/140/140
f 152/152/152 150/150/150 154/154/154
f 154/154/154 150/150/150 151/151/151
f 153/153/153 152/152/152 154/154/154
f 155/155/155 151/151/151 142/142/142
f 146/146/146 155/155/155 142/142/142
f 154/154/154 151/151/151 155/155/155
f 156/156/156 155/155/155 146/146/146
f 156/156/156 154/154/154 155/155/155
f 148/148/148 156/156/156 146/146/146
f 153/153/153 154/154/154 156/156/156
f 144/144/144 157/157/157 148/148/148
f 157/157/157 156/156/156 148/148/148
f 157/157/157 153/153/153 156/156/156
f 153/153/153 157/157/157 144/144/144
f 160/160/160 159/159/159 158/158/158
f 161/161/161 160/160/160 158/158/158
f 158/158/158 159/159/159 162/162/162
f 163/163/163 160/160/160 161/161/161
f 159/159/159 164/164/164 162/162/162
f 165/165/165 163/163/163 161/161/161
f 162/162/162 164/164/164 166/166/166
f 167/167/167 163/163/163 165/165/165
f 164/164/164 168/168/168 166/166/166
f 169/169/169 167/167/167 165/165/165
f 166/166/166 168/168/168 170/170/170
f 171/171/171 167/167/167 169/169/169
f 168/168/168 172/172/172 170/170/170
f 173/173/173 171/171/171 169/169/169
f 170/170/170 172/172/172 173/173/173
f 172/172/172 171/171/171 173/173/173
f 176/176/176 175/175/175 174/174/174
f 177/177/177 176/176/176 174/174/174
f 174/174/174 175/175/175 178/178/178
f 179/179/179 176/176/176 177/177/177
f 175/175/175 180/180/180 178/178/178
f 181/181/181 179/179/179 177/177/177
f 178/178/178 180/180/180 182/182/182
f 183/183/183 179/179/179 181/181/181
f 180/180/180 184/184/184 182/182/182
f 185/185/185 183/183/183 181/181/181
f 182/182/182 184/184/184 186/186/186
f 187/187/187 183/183/183 185/185/185
f 184/184/184 188/188/188 186/186/186
f 189/189/189 187/187/187 185/185/185
f 186/186/186 188/188/188 189/189/189
f 188/188/188 187/187/187 189/189/189
