g IceCream_A
v -0.1056816 0.1492515 0.2480325
v -0.1057641 0.1491949 -8.609442E-07
v 0.03798188 0.2498457 0.1752893
v 0.03798188 0.2498457 0.1752893
v -0.1057641 0.1491949 -8.609442E-07
v 0.09741323 0.29146 -0.0001007084
v -0.3089403 0.00692826 9.897165E-05
v -0.1057641 0.1491949 -8.609442E-07
v -0.2493524 0.0486521 0.1754801
v -0.2493524 0.0486521 0.1754801
v -0.1057641 0.1491949 -8.609442E-07
v -0.1056816 0.1492515 0.2480325
v -0.1058456 0.1491368 -0.2480343
v -0.1057641 0.1491949 -8.609442E-07
v -0.2495089 0.04854254 -0.175291
v -0.2495089 0.04854254 -0.175291
v -0.1057641 0.1491949 -8.609442E-07
v -0.3089403 0.00692826 9.897165E-05
v 0.09741323 0.29146 -0.0001007084
v -0.1057641 0.1491949 -8.609442E-07
v 0.03782518 0.2497362 -0.1754818
v 0.03782518 0.2497362 -0.1754818
v -0.1057641 0.1491949 -8.609442E-07
v -0.1058456 0.1491368 -0.2480343
v 0.2566901 -0.2148079 0.08802569
v 0.1845051 -0.2653525 -9.684976E-07
v 0.1845459 -0.2653237 0.1245553
v 0.2865351 -0.1939102 -5.08813E-05
v 0.1845051 -0.2653525 -9.684976E-07
v 0.2566901 -0.2148079 0.08802569
v 0.1123981 -0.3158421 0.08812103
v 0.1845051 -0.2653525 -9.684976E-07
v 0.08247477 -0.3367946 4.89145E-05
v 0.1845459 -0.2653237 0.1245553
v 0.1845051 -0.2653525 -9.684976E-07
v 0.1123981 -0.3158421 0.08812103
v 0.1123197 -0.3158969 -0.08802766
v 0.1845051 -0.2653525 -9.684976E-07
v 0.1844639 -0.2653811 -0.1245572
v 0.08247477 -0.3367946 4.89145E-05
v 0.1845051 -0.2653525 -9.684976E-07
v 0.1123197 -0.3158969 -0.08802766
v 0.2566116 -0.2148627 -0.08812301
v 0.1845051 -0.2653525 -9.684976E-07
v 0.2865351 -0.1939102 -5.08813E-05
v 0.1844639 -0.2653811 -0.1245572
v 0.1845051 -0.2653525 -9.684976E-07
v 0.2566116 -0.2148627 -0.08812301
v -0.3260437 0.1648884 -0.1742685
v -0.1829934 0.2650534 0.0003635949
v -0.1829934 0.2650534 -0.2466035
v -0.385297 0.1233988 0.0003636563
v -0.1829934 0.2650534 0.0003635949
v -0.3260437 0.1648884 -0.1742685
v -0.3260436 0.1648884 0.1749958
v -0.1829934 0.2650534 0.0003635949
v -0.385297 0.1233988 0.0003636563
v -0.1829932 0.2650533 0.2473308
v -0.1829934 0.2650534 0.0003635949
v -0.3260436 0.1648884 0.1749958
v -0.03994295 0.3652183 0.1749957
v -0.1829934 0.2650534 0.0003635949
v -0.1829932 0.2650533 0.2473308
v 0.01931031 0.4067079 0.0003634143
v -0.1829934 0.2650534 0.0003635949
v -0.03994295 0.3652183 0.1749957
v -0.03994313 0.3652182 -0.1742688
v -0.1829934 0.2650534 0.0003635949
v 0.01931031 0.4067079 0.0003634143
v -0.1829934 0.2650534 -0.2466035
v -0.1829934 0.2650534 0.0003635949
v -0.03994313 0.3652182 -0.1742688
v 0.03798188 0.2498457 0.1752893
v 0.1845459 -0.2653237 0.1245553
v -0.1056816 0.1492515 0.2480325
v 0.2566901 -0.2148079 0.08802569
v 0.09741323 0.29146 -0.0001007084
v 0.2566901 -0.2148079 0.08802569
v 0.03798188 0.2498457 0.1752893
v 0.2865351 -0.1939102 -5.08813E-05
v -0.2493524 0.0486521 0.1754801
v 0.08247477 -0.3367946 4.89145E-05
v -0.3089403 0.00692826 9.897165E-05
v 0.1123981 -0.3158421 0.08812103
v -0.1056816 0.1492515 0.2480325
v 0.1123981 -0.3158421 0.08812103
v -0.2493524 0.0486521 0.1754801
v 0.1845459 -0.2653237 0.1245553
v -0.2495089 0.04854254 -0.175291
v 0.1844639 -0.2653811 -0.1245572
v -0.1058456 0.1491368 -0.2480343
v 0.1123197 -0.3158969 -0.08802766
v -0.3089403 0.00692826 9.897165E-05
v 0.1123197 -0.3158969 -0.08802766
v -0.2495089 0.04854254 -0.175291
v 0.08247477 -0.3367946 4.89145E-05
v 0.03782518 0.2497362 -0.1754818
v 0.2865351 -0.1939102 -5.08813E-05
v 0.09741323 0.29146 -0.0001007084
v 0.2566116 -0.2148627 -0.08812301
v -0.1058456 0.1491368 -0.2480343
v 0.2566116 -0.2148627 -0.08812301
v 0.03782518 0.2497362 -0.1754818
v 0.1844639 -0.2653811 -0.1245572
v -0.009336404 0.3866487 -8.891724E-07
v 0.01887858 0.2364696 0.1521591
v -0.06096492 0.350498 0.1521591
v 0.07050709 0.2726203 -9.236027E-07
v -0.06096492 0.350498 0.1521591
v -0.1057637 0.1491943 0.215186
v -0.1856071 0.2632226 0.215186
v 0.01887858 0.2364696 0.1521591
v -0.1856071 0.2632226 0.215186
v -0.2304058 0.06191878 0.1521592
v -0.3102493 0.1759472 0.1521592
v -0.1057637 0.1491943 0.215186
v -0.3102493 0.1759472 0.1521592
v -0.2820345 0.02576821 -8.206381E-07
v -0.361878 0.1397966 -7.862078E-07
v -0.2304058 0.06191878 0.1521592
v -0.361878 0.1397966 -7.862078E-07
v -0.230406 0.0619189 -0.1521609
v -0.3102495 0.1759472 -0.1521608
v -0.2820345 0.02576821 -8.206381E-07
v -0.3102495 0.1759472 -0.1521608
v -0.1057638 0.1491943 -0.2151877
v -0.1856073 0.2632226 -0.2151876
v -0.230406 0.0619189 -0.1521609
v -0.1856073 0.2632226 -0.2151876
v 0.01887842 0.2364696 -0.1521609
v -0.06096508 0.350498 -0.1521609
v -0.1057638 0.1491943 -0.2151877
v -0.06096508 0.350498 -0.1521609
v 0.07050709 0.2726203 -9.236027E-07
v -0.009336404 0.3866487 -8.891724E-07
v 0.01887842 0.2364696 -0.1521609
v 0.2826379 -0.5820046 -1.340347E-06
v 0.1840883 -0.2647926 -0.1012399
v 0.1011751 -0.3228491 -1.267515E-06
v 0.3655841 -0.5239249 -0.1012399
v 0.3655511 -0.5239481 0.1012372
v 0.1011751 -0.3228491 -1.267515E-06
v 0.1841216 -0.2647693 0.1012373
v 0.2826379 -0.5820046 -1.340347E-06
v 0.1840883 -0.2647926 -0.1012399
v 0.4484974 -0.4658684 -1.397544E-06
v 0.2670347 -0.2067129 -1.324712E-06
v 0.3655841 -0.5239249 -0.1012399
v 0.1841216 -0.2647693 0.1012373
v 0.4484974 -0.4658684 -1.397544E-06
v 0.3655511 -0.5239481 0.1012372
v 0.2670347 -0.2067129 -1.324712E-06
v 0.3655841 -0.5239249 -0.1012399
v 0.3655511 -0.5239481 0.1012372
v 0.4484974 -0.4658684 -1.397544E-06
v 0.2826379 -0.5820046 -1.340347E-06
v -0.3610383 0.2148657 -0.1742685
v -0.1829934 0.2650534 -0.2466035
v -0.217988 0.3150307 -0.2466034
v -0.3260437 0.1648884 -0.1742685
v -0.03994313 0.3652182 -0.1742688
v -0.4202916 0.1733762 0.0003636672
v -0.385297 0.1233988 0.0003636563
v -0.07493772 0.4151955 -0.1742687
v 0.01931031 0.4067079 0.0003634143
v -0.3610382 0.2148657 0.1749958
v -0.3260436 0.1648884 0.1749958
v -0.01568429 0.4566853 0.0003634252
v -0.03994295 0.3652183 0.1749957
v -0.2179878 0.3150306 0.2473308
v -0.1829932 0.2650533 0.2473308
v -0.07493754 0.4151957 0.1749957
v -0.272044 0.3922309 -0.2156807
v -0.397558 0.3051434 -0.1524027
v -0.1472803 0.4803899 -0.1524029
v -0.4490171 0.268313 0.0003636823
v -0.09507075 0.5161488 0.000363437
v -0.1472801 0.4803899 0.15313
v -0.3975579 0.3051434 0.1531301
v -0.2720439 0.3922309 0.216408
v -0.3184748 0.458541 -0.1614774
v -0.2251715 0.5248082 -0.1140754
v -0.1859023 0.5513692 0.0003635741
v -0.4126574 0.3935294 -0.1140752
v -0.2251714 0.5248082 0.1148025
v -0.4510472 0.3657129 0.0003637281
v -0.4126572 0.3935294 0.1148026
v -0.3184747 0.458541 0.1622048
v -0.289261 0.5524252 0.0003635911
v -0.3529747 0.5078118 -0.0774166
v -0.4166889 0.4631992 0.0003636802
v -0.352975 0.5078121 0.07814407
v -0.364694 0.5245486 0.0003637349
vt 0.9640614 0.8563589
vt 0.9782055 0.8935868
vt 0.9922192 0.8563589
vt 0.9922192 0.8563589
vt 0.9782055 0.8935868
vt 0.9640614 0.856359
vt 0.9640614 0.856359
vt 0.9782055 0.8935868
vt 0.9922192 0.8563589
vt 0.9922192 0.8563589
vt 0.9782055 0.8935868
vt 0.9640614 0.8563589
vt 0.9640614 0.856359
vt 0.9782055 0.8935868
vt 0.9922192 0.856359
vt 0.9922192 0.856359
vt 0.9782055 0.8935868
vt 0.9640614 0.856359
vt 0.9640614 0.856359
vt 0.9782055 0.8935868
vt 0.9922192 0.8563589
vt 0.9922192 0.856359
vt 0.9782055 0.8935868
vt 0.9640614 0.856359
vt 0.9922192 0.8207424
vt 0.9782055 0.7935596
vt 0.9640614 0.8207424
vt 0.9640614 0.8207424
vt 0.9782055 0.7935596
vt 0.9922192 0.8207424
vt 0.9922192 0.8207424
vt 0.9782055 0.7935596
vt 0.9640614 0.8207424
vt 0.9640614 0.8207424
vt 0.9782055 0.7935596
vt 0.9922192 0.8207424
vt 0.9922192 0.8207424
vt 0.9782055 0.7935596
vt 0.9640614 0.8207424
vt 0.9640614 0.8207424
vt 0.9782055 0.7935596
vt 0.9922192 0.8207424
vt 0.9922192 0.8207424
vt 0.9782055 0.7935596
vt 0.9640614 0.8207424
vt 0.9640614 0.8207424
vt 0.9782055 0.7935596
vt 0.9922192 0.8207424
vt 0.387587 0.9882329
vt 0.3803617 0.9707794
vt 0.3731294 0.9882299
vt 0.3731294 0.9882299
vt 0.3803617 0.9707794
vt 0.387587 0.9882329
vt 0.387587 0.9882329
vt 0.3803617 0.9707794
vt 0.3731294 0.9882299
vt 0.3731294 0.9882299
vt 0.3803617 0.9707794
vt 0.387587 0.9882329
vt 0.387587 0.9882329
vt 0.3803617 0.9707794
vt 0.3731294 0.9882299
vt 0.3731294 0.9882299
vt 0.3803617 0.9707794
vt 0.387587 0.9882329
vt 0.387587 0.9882329
vt 0.3803617 0.9707794
vt 0.3731294 0.9882299
vt 0.3731294 0.9882299
vt 0.3803617 0.9707794
vt 0.387587 0.9882329
vt 0.9922192 0.8563589
vt 0.9640614 0.8207424
vt 0.9640614 0.8563589
vt 0.9922192 0.8207424
vt 0.9640614 0.856359
vt 0.9922192 0.8207424
vt 0.9922192 0.8563589
vt 0.9640614 0.8207424
vt 0.9922192 0.8563589
vt 0.9640614 0.8207424
vt 0.9640614 0.856359
vt 0.9922192 0.8207424
vt 0.9640614 0.8563589
vt 0.9922192 0.8207424
vt 0.9922192 0.8563589
vt 0.9640614 0.8207424
vt 0.9922192 0.856359
vt 0.9640614 0.8207424
vt 0.9640614 0.856359
vt 0.9922192 0.8207424
vt 0.9640614 0.856359
vt 0.9922192 0.8207424
vt 0.9922192 0.856359
vt 0.9640614 0.8207424
vt 0.9922192 0.8563589
vt 0.9640614 0.8207424
vt 0.9640614 0.856359
vt 0.9922192 0.8207424
vt 0.9640614 0.856359
vt 0.9922192 0.8207424
vt 0.9922192 0.856359
vt 0.9640614 0.8207424
vt 0.2728591 0.5909559
vt 0.289432 0.5757942
vt 0.289432 0.5909559
vt 0.2728591 0.5757942
vt 0.289432 0.5909559
vt 0.2728591 0.5757942
vt 0.2728591 0.5909559
vt 0.289432 0.5757942
vt 0.2728591 0.5909559
vt 0.289432 0.5757942
vt 0.289432 0.5909559
vt 0.2728591 0.5757942
vt 0.289432 0.5909559
vt 0.2728591 0.5757942
vt 0.2728591 0.5909559
vt 0.289432 0.5757942
vt 0.2728591 0.5909559
vt 0.289432 0.5757942
vt 0.289432 0.5909559
vt 0.2728591 0.5757942
vt 0.289432 0.5909559
vt 0.2728591 0.5757942
vt 0.2728591 0.5909559
vt 0.289432 0.5757942
vt 0.2728591 0.5909559
vt 0.289432 0.5757942
vt 0.289432 0.5909559
vt 0.2728591 0.5757942
vt 0.289432 0.5909559
vt 0.2728591 0.5757942
vt 0.2728591 0.5909559
vt 0.289432 0.5757942
vt 0.9437545 0.8233027
vt 0.9159883 0.8846641
vt 0.9437545 0.8846641
vt 0.9159827 0.8233027
vt 0.9159827 0.8233027
vt 0.9437545 0.8846641
vt 0.9159883 0.8846641
vt 0.9437545 0.8233027
vt 0.9159883 0.8846641
vt 0.9437545 0.8233027
vt 0.9437545 0.8846641
vt 0.9159827 0.8233027
vt 0.9159883 0.8846641
vt 0.9437545 0.8233027
vt 0.9159827 0.8233027
vt 0.9437545 0.8846641
vt 0.9437545 0.7955365
vt 0.9159827 0.8233027
vt 0.9437545 0.8233027
vt 0.9159827 0.7955365
vt 0.2885049 0.9609515
vt 0.3209348 0.9869885
vt 0.3209348 0.9742363
vt 0.2803096 0.9708128
vt 0.3616369 0.9706393
vt 0.2719254 0.9255921
vt 0.2571556 0.9255921
vt 0.3534405 0.960961
vt 0.384801 0.9255921
vt 0.2885165 0.8900698
vt 0.2803202 0.8805733
vt 0.3700314 0.9255921
vt 0.3616473 0.8805822
vt 0.3209348 0.8767946
vt 0.3209348 0.8644063
vt 0.353452 0.8900796
vt 0.3209348 0.9575709
vt 0.3003184 0.9487544
vt 0.3425266 0.9484357
vt 0.2902048 0.9255921
vt 0.3522978 0.9255921
vt 0.3421844 0.9031469
vt 0.2999762 0.9034654
vt 0.3209348 0.8943303
vt 0.3209348 0.9490952
vt 0.3368953 0.9418863
vt 0.3435346 0.9255921
vt 0.3054787 0.9425886
vt 0.3362185 0.9084516
vt 0.2981625 0.9255921
vt 0.3048019 0.9091537
vt 0.3209348 0.9019448
vt 0.3301754 0.9255921
vt 0.3209348 0.9352643
vt 0.3115218 0.9255921
vt 0.3209348 0.9157758
vt 0.3209348 0.9255921
vn -0.5735751 0.819153 0
vn -0.5735751 0.819153 0
vn -0.5735751 0.819153 0
vn -0.5735733 0.8191543 0
vn -0.5735732 0.8191543 0
vn -0.5735733 0.8191543 0
vn -0.5735795 0.8191499 0
vn -0.5735794 0.8191499 0
vn -0.5735794 0.8191499 0
vn -0.5735779 0.819151 0
vn -0.5735779 0.819151 0
vn -0.5735779 0.819151 0
vn -0.5735779 0.819151 0
vn -0.5735779 0.819151 0
vn -0.5735779 0.819151 0
vn -0.5735795 0.8191499 0
vn -0.5735794 0.8191499 0
vn -0.5735795 0.8191499 0
vn -0.5735732 0.8191543 0
vn -0.5735733 0.8191543 0
vn -0.5735733 0.8191543 0
vn -0.5735756 0.8191527 0
vn -0.5735755 0.8191527 0
vn -0.5735755 0.8191527 0
vn 0.5735759 -0.8191524 0
vn 0.5735759 -0.8191524 0
vn 0.5735759 -0.8191524 0
vn 0.5735772 -0.8191515 0
vn 0.5735772 -0.8191515 0
vn 0.5735772 -0.8191515 0
vn 0.5735751 -0.8191531 0
vn 0.5735751 -0.8191531 0
vn 0.5735751 -0.8191531 0
vn 0.5735757 -0.8191525 0
vn 0.5735757 -0.8191525 0
vn 0.5735757 -0.8191525 0
vn 0.5735751 -0.8191531 0
vn 0.5735751 -0.8191531 0
vn 0.5735751 -0.8191531 0
vn 0.573575 -0.8191531 0
vn 0.573575 -0.8191531 0
vn 0.573575 -0.8191531 0
vn 0.5735772 -0.8191515 0
vn 0.5735772 -0.8191515 0
vn 0.5735772 -0.8191515 0
vn 0.573577 -0.8191516 0
vn 0.573577 -0.8191516 0
vn 0.573577 -0.8191516 0
vn 0.5735767 -0.8191518 0
vn 0.5735763 -0.8191521 0
vn 0.5735764 -0.8191521 0
vn 0.5735766 -0.819152 0
vn 0.5735763 -0.8191521 0
vn 0.5735767 -0.8191518 0
vn 0.5735765 -0.819152 0
vn 0.5735763 -0.8191521 0
vn 0.5735766 -0.819152 0
vn 0.5735764 -0.819152 0
vn 0.5735763 -0.8191521 0
vn 0.5735765 -0.819152 0
vn 0.5735763 -0.8191521 0
vn 0.5735763 -0.8191521 0
vn 0.5735764 -0.819152 0
vn 0.5735762 -0.8191522 0
vn 0.5735763 -0.8191521 0
vn 0.5735763 -0.8191521 0
vn 0.5735762 -0.8191522 0
vn 0.5735763 -0.8191521 0
vn 0.5735762 -0.8191522 0
vn 0.5735764 -0.8191521 0
vn 0.5735763 -0.8191521 0
vn 0.5735762 -0.8191522 0
vn 0.6989489 0.2000378 0.686626
vn 0.1363384 -0.1939065 0.9715
vn 0.1363341 -0.1939102 0.9714997
vn 0.6989433 0.2000342 0.6866328
vn 0.9317666 0.3630576 -0.0004572384
vn 0.6989433 0.2000342 0.6866328
vn 0.6989489 0.2000378 0.686626
vn 0.9317664 0.363058 -0.000463737
vn -0.4264915 -0.5880039 0.687282
vn -0.6598462 -0.7514005 0.0004635153
vn -0.6598459 -0.7514008 0.0004568164
vn -0.4264982 -0.5880077 0.6872745
vn 0.1363341 -0.1939102 0.9714997
vn -0.4264982 -0.5880077 0.6872745
vn -0.4264915 -0.5880039 0.687282
vn 0.1363384 -0.1939065 0.9715
vn -0.4270291 -0.5883798 -0.6866261
vn 0.1355817 -0.1944359 -0.9715
vn 0.1355868 -0.194433 -0.9714999
vn -0.4270238 -0.5883758 -0.6866328
vn -0.6598459 -0.7514008 0.0004568164
vn -0.4270238 -0.5883758 -0.6866328
vn -0.4270291 -0.5883798 -0.6866261
vn -0.6598462 -0.7514005 0.0004635153
vn 0.6984113 0.1996618 -0.6872821
vn 0.9317664 0.363058 -0.000463737
vn 0.9317666 0.3630576 -0.0004572384
vn 0.6984169 0.1996664 -0.6872751
vn 0.1355868 -0.194433 -0.9714999
vn 0.6984169 0.1996664 -0.6872751
vn 0.6984113 0.1996618 -0.6872821
vn 0.1355817 -0.1944359 -0.9715
vn 0.8191521 0.5735763 0
vn 0.5792281 0.4055798 0.7071066
vn 0.579228 0.4055797 0.7071067
vn 0.819152 0.5735764 0
vn 0.579228 0.4055797 0.7071067
vn 0 0 1
vn 0 0 1
vn 0.5792281 0.4055798 0.7071066
vn 0 0 1
vn -0.5792279 -0.4055794 0.7071069
vn -0.5792278 -0.4055794 0.7071071
vn 0 0 1
vn -0.5792278 -0.4055794 0.7071071
vn -0.8191521 -0.5735763 0
vn -0.8191521 -0.5735764 0
vn -0.5792279 -0.4055794 0.7071069
vn -0.8191521 -0.5735764 0
vn -0.579228 -0.4055797 -0.7071068
vn -0.579228 -0.4055797 -0.7071066
vn -0.8191521 -0.5735763 0
vn -0.579228 -0.4055797 -0.7071066
vn 0 0 -1
vn 0 0 -1
vn -0.579228 -0.4055797 -0.7071068
vn 0 0 -1
vn 0.5792276 0.4055797 -0.7071071
vn 0.5792276 0.4055797 -0.7071071
vn 0 0 -1
vn 0.5792276 0.4055797 -0.7071071
vn 0.819152 0.5735764 0
vn 0.8191521 0.5735763 0
vn 0.5792276 0.4055797 -0.7071071
vn -0.8191252 -0.5736148 -7.246091E-05
vn -8.527773E-05 -5.951901E-05 -1
vn -0.8191788 -0.5735384 7.343154E-05
vn 0.0001286164 9.034168E-05 -1
vn -7.978092E-05 -0.0001132259 1
vn -0.8191788 -0.5735384 7.343154E-05
vn 8.08282E-05 0.0001132527 1
vn -0.8191252 -0.5736148 -7.246091E-05
vn -8.527773E-05 -5.951901E-05 -1
vn 0.819152 0.5735766 4.560451E-05
vn 0.819152 0.5735765 -0.0001005468
vn 0.0001286164 9.034168E-05 -1
vn 8.08282E-05 0.0001132527 1
vn 0.819152 0.5735766 4.560451E-05
vn -7.978092E-05 -0.0001132259 1
vn 0.819152 0.5735765 -0.0001005468
vn 0.5735766 -0.8191519 0
vn 0.5735766 -0.8191519 0
vn 0.5735766 -0.8191519 0
vn 0.5735767 -0.8191518 0
vn -0.6592944 -0.2768221 -0.699071
vn 0 0 -1
vn -0.08732677 0.1244295 -0.9883781
vn -0.5792272 -0.4055804 -0.707107
vn 0.5792268 0.4055808 -0.7071072
vn -0.8968244 -0.4423869 0.0001636355
vn -0.8191512 -0.5735776 0
vn 0.4858076 0.524987 -0.6988415
vn 0.8191518 0.5735767 0
vn -0.6594829 -0.2769545 0.6988409
vn -0.579227 -0.4055805 0.7071072
vn 0.7224399 0.6914337 -0.0001642081
vn 0.5792284 0.4055799 0.7071062
vn -0.08705828 0.1246166 0.9883782
vn 0 0 1
vn 0.48562 0.5248551 0.699071
vn -0.2440581 0.3479045 -0.9052061
vn -0.7678316 -0.01896768 -0.640371
vn 0.2808642 0.7153364 -0.6398509
vn -0.9852558 -0.1710869 0.0003707689
vn 0.4977475 0.8673219 -0.0003712288
vn 0.2804383 0.7150382 0.6403706
vn -0.7682579 -0.01926637 0.6398506
vn -0.2434503 0.3483298 0.9052063
vn -0.3869289 0.5520988 -0.7385615
vn 0.02648327 0.8577944 -0.5133103
vn 0.2182984 0.9758821 -0.0002824824
vn -0.8147972 0.2687228 -0.5137056
vn 0.02616078 0.8575677 0.5137054
vn -0.9916916 0.1286377 0.0002834181
vn -0.8151211 0.2684954 0.5133106
vn -0.3864645 0.5524223 0.7385626
vn -0.179397 0.9837768 0
vn -0.5212432 0.7444126 -0.4173192
vn -0.8630906 0.505049 0
vn -0.5212435 0.7444125 0.4173191
vn -0.5735766 0.8191519 0
g IceCream_A_0
f 3/3/3 2/2/2 1/1/1
f 6/6/6 5/5/5 4/4/4
f 9/9/9 8/8/8 7/7/7
f 12/12/12 11/11/11 10/10/10
f 15/15/15 14/14/14 13/13/13
f 18/18/18 17/17/17 16/16/16
f 21/21/21 20/20/20 19/19/19
f 24/24/24 23/23/23 22/22/22
f 27/27/27 26/26/26 25/25/25
f 30/30/30 29/29/29 28/28/28
f 33/33/33 32/32/32 31/31/31
f 36/36/36 35/35/35 34/34/34
f 39/39/39 38/38/38 37/37/37
f 42/42/42 41/41/41 40/40/40
f 45/45/45 44/44/44 43/43/43
f 48/48/48 47/47/47 46/46/46
f 51/51/51 50/50/50 49/49/49
f 54/54/54 53/53/53 52/52/52
f 57/57/57 56/56/56 55/55/55
f 60/60/60 59/59/59 58/58/58
f 63/63/63 62/62/62 61/61/61
f 66/66/66 65/65/65 64/64/64
f 69/69/69 68/68/68 67/67/67
f 72/72/72 71/71/71 70/70/70
f 75/75/75 74/74/74 73/73/73
f 76/76/76 73/73/73 74/74/74
f 79/79/79 78/78/78 77/77/77
f 80/80/80 77/77/77 78/78/78
f 83/83/83 82/82/82 81/81/81
f 84/84/84 81/81/81 82/82/82
f 87/87/87 86/86/86 85/85/85
f 88/88/88 85/85/85 86/86/86
f 91/91/91 90/90/90 89/89/89
f 92/92/92 89/89/89 90/90/90
f 95/95/95 94/94/94 93/93/93
f 96/96/96 93/93/93 94/94/94
f 99/99/99 98/98/98 97/97/97
f 100/100/100 97/97/97 98/98/98
f 103/103/103 102/102/102 101/101/101
f 104/104/104 101/101/101 102/102/102
f 107/107/107 106/106/106 105/105/105
f 108/108/108 105/105/105 106/106/106
f 111/111/111 110/110/110 109/109/109
f 112/112/112 109/109/109 110/110/110
f 115/115/115 114/114/114 113/113/113
f 116/116/116 113/113/113 114/114/114
f 119/119/119 118/118/118 117/117/117
f 120/120/120 117/117/117 118/118/118
f 123/123/123 122/122/122 121/121/121
f 124/124/124 121/121/121 122/122/122
f 127/127/127 126/126/126 125/125/125
f 128/128/128 125/125/125 126/126/126
f 131/131/131 130/130/130 129/129/129
f 132/132/132 129/129/129 130/130/130
f 135/135/135 134/134/134 133/133/133
f 136/136/136 133/133/133 134/134/134
f 139/139/139 138/138/138 137/137/137
f 140/140/140 137/137/137 138/138/138
f 143/143/143 142/142/142 141/141/141
f 144/144/144 141/141/141 142/142/142
f 147/147/147 146/146/146 145/145/145
f 148/148/148 145/145/145 146/146/146
f 151/151/151 150/150/150 149/149/149
f 152/152/152 149/149/149 150/150/150
f 155/155/155 154/154/154 153/153/153
f 156/156/156 153/153/153 154/154/154
f 159/159/159 158/158/158 157/157/157
f 160/160/160 157/157/157 158/158/158
f 158/158/158 159/159/159 161/161/161
f 157/157/157 160/160/160 162/162/162
f 163/163/163 162/162/162 160/160/160
f 164/164/164 161/161/161 159/159/159
f 161/161/161 164/164/164 165/165/165
f 162/162/162 163/163/163 166/166/166
f 167/167/167 166/166/166 163/163/163
f 168/168/168 165/165/165 164/164/164
f 165/165/165 168/168/168 169/169/169
f 166/166/166 167/167/167 170/170/170
f 171/171/171 170/170/170 167/167/167
f 169/169/169 172/172/172 171/171/171
f 172/172/172 169/169/169 168/168/168
f 170/170/170 171/171/171 172/172/172
f 159/159/159 157/157/157 173/173/173
f 157/157/157 162/162/162 174/174/174
f 174/174/174 173/173/173 157/157/157
f 164/164/164 159/159/159 175/175/175
f 173/173/173 175/175/175 159/159/159
f 162/162/162 166/166/166 176/176/176
f 176/176/176 174/174/174 162/162/162
f 168/168/168 164/164/164 177/177/177
f 175/175/175 177/177/177 164/164/164
f 172/172/172 168/168/168 178/178/178
f 177/177/177 178/178/178 168/168/168
f 166/166/166 170/170/170 179/179/179
f 179/179/179 176/176/176 166/166/166
f 170/170/170 172/172/172 180/180/180
f 178/178/178 180/180/180 172/172/172
f 180/180/180 179/179/179 170/170/170
f 173/173/173 174/174/174 181/181/181
f 175/175/175 173/173/173 182/182/182
f 181/181/181 182/182/182 173/173/173
f 177/177/177 175/175/175 183/183/183
f 182/182/182 183/183/183 175/175/175
f 174/174/174 176/176/176 184/184/184
f 184/184/184 181/181/181 174/174/174
f 178/178/178 177/177/177 185/185/185
f 183/183/183 185/185/185 177/177/177
f 176/176/176 179/179/179 186/186/186
f 186/186/186 184/184/184 176/176/176
f 179/179/179 180/180/180 187/187/187
f 187/187/187 186/186/186 179/179/179
f 180/180/180 178/178/178 188/188/188
f 185/185/185 188/188/188 178/178/178
f 188/188/188 187/187/187 180/180/180
f 183/183/183 182/182/182 189/189/189
f 183/183/183 189/189/189 185/185/185
f 181/181/181 190/190/190 182/182/182
f 181/181/181 184/184/184 190/190/190
f 182/182/182 190/190/190 189/189/189
f 186/186/186 191/191/191 184/184/184
f 186/186/186 187/187/187 191/191/191
f 184/184/184 191/191/191 190/190/190
f 188/188/188 192/192/192 187/187/187
f 188/188/188 185/185/185 192/192/192
f 185/185/185 189/189/189 192/192/192
f 187/187/187 192/192/192 191/191/191
f 190/190/190 191/191/191 193/193/193
f 189/189/189 190/190/190 193/193/193
f 191/191/191 192/192/192 193/193/193
f 192/192/192 189/189/189 193/193/193
