g leaf
v -0.08750573 -0.06811166 0.05052161
v -2.980232E-08 -0.06811166 -0.101043
v -0.08750579 -0.06811166 -0.05052137
v -8.940697E-08 -0.06811166 0.101043
v -2.980232E-08 -0.06811166 -0.101043
v 0.08750567 0.06811166 -0.05052149
v -2.980232E-08 0.06811166 -0.101043
v 0.08750567 -0.06811166 -0.05052149
v 0.08750567 -0.06811166 -0.05052149
v 0.08750579 0.06811166 0.05052161
v 0.08750567 0.06811166 -0.05052149
v 0.08750579 -0.06811166 0.05052161
v 0.08750579 -0.06811166 0.05052161
v -8.940697E-08 0.06811166 0.101043
v 0.08750579 0.06811166 0.05052161
v -8.940697E-08 -0.06811166 0.101043
v -8.940697E-08 -0.06811166 0.101043
v -0.08750573 0.06811166 0.05052161
v -8.940697E-08 0.06811166 0.101043
v -0.08750573 -0.06811166 0.05052161
v -0.08750573 -0.06811166 0.05052161
v -0.08750579 0.06811166 -0.05052137
v -0.08750573 0.06811166 0.05052161
v -0.08750579 -0.06811166 -0.05052137
v -0.08750579 -0.06811166 -0.05052137
v -2.980232E-08 0.06811166 -0.101043
v -0.08750579 0.06811166 -0.05052137
v -2.980232E-08 -0.06811166 -0.101043
v -2.980232E-08 0.06811166 -0.101043
v -0.08750573 0.06811166 0.05052161
v -0.08750579 0.06811166 -0.05052137
v -8.940697E-08 0.06811166 0.101043
v 0.08750579 -0.06811166 0.05052161
v -2.980232E-08 -0.06811166 -0.101043
v -8.940697E-08 -0.06811166 0.101043
v 0.08750567 -0.06811166 -0.05052149
v 0.08750567 0.06811166 -0.05052149
v -8.940697E-08 0.06811166 0.101043
v -2.980232E-08 0.06811166 -0.101043
v 0.08750579 0.06811166 0.05052161
vt 0.5583436 0.8462692
vt 0.5650398 0.8578675
vt 0.5583436 0.8540014
vt 0.5650398 0.8424033
vt 0.5602031 0.8585436
vt 0.5578709 0.8681582
vt 0.5578709 0.8585436
vt 0.5602031 0.8681582
vt 0.5602031 0.8681582
vt 0.5578709 0.8584794
vt 0.5578709 0.8681582
vt 0.5602031 0.8584794
vt 0.5602031 0.8584794
vt 0.5578709 0.8681582
vt 0.5578709 0.8584794
vt 0.5602031 0.8681582
vt 0.5602031 0.8681582
vt 0.5578709 0.8584794
vt 0.5578709 0.8681582
vt 0.5602031 0.8584794
vt 0.5602031 0.8584794
vt 0.5578709 0.8681582
vt 0.5578709 0.8584794
vt 0.5602031 0.8681582
vt 0.5602031 0.8681582
vt 0.5578709 0.8585436
vt 0.5578709 0.8681582
vt 0.5602031 0.8585436
vt 0.5650398 0.8578675
vt 0.5583436 0.8462692
vt 0.5583436 0.8540014
vt 0.5650398 0.8424033
vt 0.5583436 0.8462692
vt 0.5650398 0.8578675
vt 0.5650398 0.8424033
vt 0.5583436 0.8540014
vt 0.5583436 0.8540014
vt 0.5650398 0.8424033
vt 0.5650398 0.8578675
vt 0.5583436 0.8462692
vn 0 -1 0
vn 0 -1 0
vn 0 -1 0
vn 0 -1 0
vn 0 0 -1
vn 0.8660253 0 -0.5000003
vn 0 0 -1
vn 0.8660253 0 -0.5000003
vn 0.8660253 0 -0.5000003
vn 0.8660253 0 0.5000001
vn 0.8660253 0 -0.5000003
vn 0.8660253 0 0.5000001
vn 0.8660253 0 0.5000001
vn 0 0 1
vn 0.8660253 0 0.5000001
vn 0 0 1
vn 0 0 1
vn -0.8660251 0 0.5000005
vn 0 0 1
vn -0.8660251 0 0.5000004
vn -0.8660251 0 0.5000004
vn -0.8660259 0 -0.4999992
vn -0.8660251 0 0.5000005
vn -0.8660259 0 -0.4999992
vn -0.8660259 0 -0.4999992
vn 0 0 -1
vn -0.8660259 0 -0.4999992
vn 0 0 -1
vn 0 1 0
vn 0 1 0
vn 0 1 0
vn 0 1 0
vn 0 -1 0
vn 0 -1 0
vn 0 -1 0
vn 0 -1 0
vn 0 1 0
vn 0 1 0
vn 0 1 0
vn 0 1 0
g leaf_0
f 3/3/3 2/2/2 1/1/1
f 4/4/4 1/1/1 2/2/2
f 7/7/7 6/6/6 5/5/5
f 8/8/8 5/5/5 6/6/6
f 11/11/11 10/10/10 9/9/9
f 12/12/12 9/9/9 10/10/10
f 15/15/15 14/14/14 13/13/13
f 16/16/16 13/13/13 14/14/14
f 19/19/19 18/18/18 17/17/17
f 20/20/20 17/17/17 18/18/18
f 23/23/23 22/22/22 21/21/21
f 24/24/24 21/21/21 22/22/22
f 27/27/27 26/26/26 25/25/25
f 28/28/28 25/25/25 26/26/26
f 31/31/31 30/30/30 29/29/29
f 32/32/32 29/29/29 30/30/30
f 35/35/35 34/34/34 33/33/33
f 36/36/36 33/33/33 34/34/34
f 39/39/39 38/38/38 37/37/37
f 40/40/40 37/37/37 38/38/38
