g MailBox
v 0.4111323 1.54846 -0.1727501
v -0.3996827 1.379502 -0.3352748
v 0.3996829 1.379502 -0.3352748
v -0.4111323 1.54846 -0.1727501
v 0.4160728 1.615892 0.08661756
v -0.4160727 1.615892 0.08661745
v 0.4111323 1.54846 0.3461119
v -0.4111323 1.54846 0.3461118
v 0.3996829 1.379502 0.5208527
v -0.3996827 1.379502 0.5208527
v 0.4160728 1.615892 0.08661756
v 0.3996829 1.379502 0.5208527
v 0.4111323 1.54846 0.3461119
v 0.4111323 1.54846 -0.1727501
v 0.3996829 1.379502 -0.3352748
v 0.3629636 0.2129894 -0.2776073
v 0.3629636 0.2129894 0.4631853
v -0.4160727 1.615892 0.08661745
v -0.3996827 1.379502 -0.3352748
v -0.4111323 1.54846 -0.1727501
v -0.4111323 1.54846 0.3461118
v -0.3996827 1.379502 0.5208527
v -0.3629634 0.2129894 -0.2776073
v -0.3629634 0.2129894 0.4631853
v -0.3996827 1.379502 -0.3352748
v 0.3629636 0.2129894 -0.2776073
v 0.3996829 1.379502 -0.3352748
v -0.3629634 0.2129894 -0.2776073
v 0.3355824 -2.63314E-17 0.4300243
v 0.3538546 0.2166594 0.3715696
v 0.3355824 -2.387091E-17 0.3898416
v 0.3538546 0.2166594 0.4482964
v 0.2953997 -2.633139E-17 0.4300243
v 0.3538546 0.2166594 0.3715696
v 0.2771276 0.2166594 0.4482964
v 0.3355824 -2.387091E-17 0.3898416
v -0.3355823 -2.63314E-17 0.4300243
v -0.3538544 0.2166594 0.3715696
v -0.3538544 0.2166594 0.4482964
v -0.3355823 -2.387091E-17 0.3898416
v -0.3355823 -2.387091E-17 0.3898416
v -0.2771275 0.2166594 0.4482964
v -0.3538544 0.2166594 0.3715696
v -0.2953996 -2.633139E-17 0.4300243
v 0.2953997 -5.960464E-08 -0.2444463
v 0.3538546 0.2166594 -0.2627183
v 0.2771276 0.2166594 -0.2627183
v 0.3355824 -5.960464E-08 -0.2444463
v 0.3355824 -5.960464E-08 -0.2444463
v 0.3538546 0.2166594 -0.1859915
v 0.3538546 0.2166594 -0.2627183
v 0.3355824 -5.960464E-08 -0.2042636
v 0.3355824 -5.960464E-08 -0.2042636
v 0.2771276 0.2166594 -0.2627183
v 0.3538546 0.2166594 -0.1859915
v 0.2953997 -5.960464E-08 -0.2444463
v -0.2953996 -5.960464E-08 -0.2444463
v -0.3538544 0.2166594 -0.2627183
v -0.3355823 -5.960464E-08 -0.2444463
v -0.2771275 0.2166594 -0.2627183
v -0.3355823 -5.960464E-08 -0.2444463
v -0.3538544 0.2166594 -0.1859915
v -0.3355823 -5.960464E-08 -0.2042636
v -0.3538544 0.2166594 -0.2627183
v -0.2953996 -5.960464E-08 -0.2444463
v -0.3538544 0.2166594 -0.1859915
v -0.2771275 0.2166594 -0.2627183
v -0.3355823 -5.960464E-08 -0.2042636
v 0.1531997 1.020612 -0.4127036
v 0.1565609 1.071858 -0.3044251
v 0.1558412 1.028019 -0.3031923
v 0.1540975 1.075989 -0.4146715
v 0.1565609 1.071858 -0.3044251
v 0.1702218 1.073718 -0.3447899
v 0.170512 1.071944 -0.3046882
v 0.1540975 1.075989 -0.4146715
v 0.1682511 1.076388 -0.4280637
v 0.1672612 1.020578 -0.4260104
v 0.1702218 1.073718 -0.3447899
v 0.1682511 1.076388 -0.4280637
v 0.170512 1.071944 -0.3046882
v 0.1693819 1.028051 -0.3031932
v -0.1648451 1.020612 -0.4127036
v -0.1682062 1.071858 -0.3044251
v -0.1657428 1.075989 -0.4146715
v -0.1674865 1.028019 -0.3031923
v -0.1657428 1.075989 -0.4146715
v -0.1818672 1.073718 -0.3447899
v -0.1798964 1.076388 -0.4280637
v -0.1682062 1.071858 -0.3044251
v -0.1821574 1.071944 -0.3046882
v -0.1657428 1.075989 -0.4146715
v 0.1682511 1.076388 -0.4280637
v 0.1540975 1.075989 -0.4146715
v -0.1798964 1.076388 -0.4280637
v -0.1789066 1.020578 -0.4260104
v 0.1682511 1.076388 -0.4280637
v -0.1798964 1.076388 -0.4280637
v 0.1672612 1.020578 -0.4260104
v -0.1789066 1.020578 -0.4260104
v -0.1821574 1.071944 -0.3046882
v -0.1810272 1.028051 -0.3031932
v -0.1818672 1.073718 -0.3447899
v -0.1798964 1.076388 -0.4280637
v -0.1546431 0.3205869 -0.301658
v 0.1480034 0.7630603 -0.3170124
v -0.1606363 0.7630603 -0.3170124
v 0.1423739 0.3318919 -0.3020479
v 0.1480034 0.7630603 -0.3170124
v -0.1606363 0.7630603 -0.2849554
v -0.1606363 0.7630603 -0.3170124
v 0.1480034 0.7630603 -0.2849554
v -0.1606363 0.7630603 -0.3170124
v -0.1546431 0.3205869 -0.2696011
v -0.1546431 0.3205869 -0.301658
v -0.1606363 0.7630603 -0.2849554
v 0.1423739 0.3318919 -0.3020479
v 0.1480034 0.7630603 -0.2849554
v 0.1480034 0.7630603 -0.3170124
v 0.1423739 0.3318919 -0.269991
vt 0.6995023 0.9262144
vt 0.7698776 0.8737778
vt 0.6995023 0.8737778
vt 0.7698776 0.9262144
vt 0.6995023 0.9758314
vt 0.7698776 0.9758314
vt 0.6995023 0.9772158
vt 0.7698776 0.9772158
vt 0.6995023 0.9786788
vt 0.7698776 0.9786788
vt 0.4392402 0.9064685
vt 0.4596336 0.8236566
vt 0.4450576 0.8562796
vt 0.4450576 0.956657
vt 0.4596336 0.98928
vt 0.5602687 0.9781237
vt 0.5602687 0.8348126
vt 0.4392402 0.9064685
vt 0.4596336 0.8236566
vt 0.4450576 0.8562796
vt 0.4450576 0.956657
vt 0.4596336 0.98928
vt 0.5602687 0.8348129
vt 0.5602687 0.9781237
vt 0.586305 0.9842154
vt 0.6869401 0.8366765
vt 0.586305 0.8295731
vt 0.6869401 0.9771118
vt 0.8457127 0.9006384
vt 0.8538691 0.9380872
vt 0.8538691 0.9006384
vt 0.8457127 0.9380872
vt 0.8538691 0.9006384
vt 0.8457127 0.9380872
vt 0.8538691 0.9380872
vt 0.8457127 0.9006384
vt 0.8538691 0.9006384
vt 0.8457127 0.9380872
vt 0.8538691 0.9380872
vt 0.8457127 0.9006384
vt 0.8538691 0.9006384
vt 0.8457127 0.9380872
vt 0.8538691 0.9380872
vt 0.8457127 0.9006384
vt 0.8538691 0.9006384
vt 0.8457127 0.9380872
vt 0.8538691 0.9380872
vt 0.8457127 0.9006384
vt 0.8538691 0.9006384
vt 0.8457127 0.9380872
vt 0.8538691 0.9380872
vt 0.8457127 0.9006384
vt 0.8538691 0.9006384
vt 0.8457127 0.9380872
vt 0.8538691 0.9380872
vt 0.8457127 0.9006384
vt 0.8457127 0.9006384
vt 0.8538691 0.9380872
vt 0.8538691 0.9006384
vt 0.8457127 0.9380872
vt 0.8457127 0.9006384
vt 0.8538691 0.9380872
vt 0.8538691 0.9006384
vt 0.8457127 0.9380872
vt 0.8538691 0.9006384
vt 0.8457127 0.9380872
vt 0.8538691 0.9380872
vt 0.8457127 0.9006384
vt 0.8323446 0.8956493
vt 0.8372008 0.8775344
vt 0.8323446 0.8775344
vt 0.8372008 0.8956493
vt 0.8385751 0.9733013
vt 0.8372008 0.9733013
vt 0.8372008 0.9733013
vt 0.8385751 0.9531304
vt 0.8372008 0.9531304
vt 0.8323446 0.9531304
vt 0.8372008 0.9733013
vt 0.8372008 0.9531304
vt 0.8372008 0.9733013
vt 0.8323446 0.9733013
vt 0.8323446 0.9531304
vt 0.8372008 0.9733013
vt 0.8372008 0.9531304
vt 0.8323446 0.9733013
vt 0.8385751 0.8956493
vt 0.8372008 0.8775344
vt 0.8372008 0.8956493
vt 0.8385751 0.8775344
vt 0.8372008 0.8775344
vt 0.8385751 0.8956493
vt 0.8372008 0.9531304
vt 0.8385751 0.9531304
vt 0.8372008 0.8956493
vt 0.8323446 0.8956493
vt 0.8372008 0.9531304
vt 0.8372008 0.8956493
vt 0.8323446 0.9531304
vt 0.8323446 0.8956493
vt 0.8372008 0.8775344
vt 0.8323446 0.8775344
vt 0.8372008 0.8775344
vt 0.8372008 0.8956493
vt 0.8152235 0.8838836
vt 0.7859367 0.9592674
vt 0.8152235 0.9592674
vt 0.7859367 0.8838836
vt 0.7859367 0.9592674
vt 0.8152235 0.964927
vt 0.8152235 0.9592674
vt 0.7859367 0.964927
vt 0.8152235 0.9592674
vt 0.818378 0.8838836
vt 0.8152235 0.8838836
vt 0.818378 0.9592674
vt 0.7859367 0.8838836
vt 0.7828943 0.9592674
vt 0.7859367 0.9592674
vt 0.7828943 0.8838836
vn 0 0.8660865 -0.4998943
vn 0 0.6932532 -0.7206941
vn 0 0.6932532 -0.7206941
vn 0 0.8660863 -0.4998944
vn 0 1 -5.883325E-05
vn 0 1 -5.869936E-05
vn 0 0.8747522 0.4845705
vn 0 0.8747522 0.4845704
vn 0 0.7189025 0.6951109
vn 0 0.7189029 0.6951106
vn 0.9975482 -0.06998082 -0.000444544
vn 0.9990448 -0.0436959 0.0001517515
vn 0.9978441 -0.06560095 0.001950948
vn 0.9976752 -0.06814829 -0.0001317091
vn 0.9990321 -0.04398644 0
vn 0.9995049 -0.03146224 0
vn 0.9995049 -0.03146222 0
vn -0.9975501 -0.06995442 0.0004424852
vn -0.9990281 -0.0440785 -0.0001602967
vn -0.9978318 -0.06578929 -0.001902212
vn -0.9976757 -0.06814118 0.0001320721
vn -0.9990485 -0.04361293 0
vn -0.9995049 -0.03146225 0
vn -0.9995049 -0.03146225 0
vn 0 -0.04937554 -0.9987803
vn 0 -0.04937553 -0.9987803
vn 0 -0.04937556 -0.9987803
vn 0 -0.0493755 -0.9987803
vn 0.9964626 -0.08403741 0
vn 0.9964626 -0.08403742 0
vn 0.9964626 -0.08403742 0
vn 0.9964626 -0.08403741 0
vn -0.7071061 0 -0.7071075
vn -0.7071061 0 -0.7071075
vn -0.7071061 0 -0.7071074
vn -0.7071063 0 -0.7071072
vn -0.9964626 -0.08403742 0
vn -0.9964626 -0.08403741 0
vn -0.9964626 -0.08403741 0
vn -0.9964626 -0.08403742 0
vn 0.7071061 0 -0.7071074
vn 0.7071061 0 -0.7071075
vn 0.7071061 0 -0.7071074
vn 0.7071062 0 -0.7071072
vn 0 -0.08403693 -0.9964626
vn 0 -0.08403693 -0.9964626
vn 0 -0.08403692 -0.9964626
vn 0 -0.08403692 -0.9964626
vn 0.9964626 -0.08403742 0
vn 0.9964626 -0.08403741 0
vn 0.9964626 -0.08403741 0
vn 0.9964626 -0.08403741 0
vn -0.7071061 0 0.7071075
vn -0.7071061 0 0.7071075
vn -0.7071061 0 0.7071075
vn -0.7071063 0 0.7071072
vn 0 -0.08403694 -0.9964626
vn 0 -0.08403693 -0.9964626
vn 0 -0.08403692 -0.9964626
vn 0 -0.08403692 -0.9964626
vn -0.9964626 -0.0840374 0
vn -0.9964626 -0.08403741 0
vn -0.9964626 -0.08403741 0
vn -0.9964626 -0.08403741 0
vn 0.7071061 0 0.7071075
vn 0.7071061 0 0.7071075
vn 0.7071061 0 0.7071074
vn 0.7071063 0 0.7071072
vn -0.9995912 0.01702925 0.02296907
vn -0.9995911 0.01704515 0.02296153
vn -0.9995909 0.0170552 0.02295677
vn -0.9995912 0.0170209 0.02297302
vn -0.009418371 0.9990368 0.04285718
vn -0.0202004 0.999064 0.03825015
vn -0.005311709 0.9990066 0.04424563
vn -0.0001127001 0.9995147 0.03114996
vn 0.001085247 0.9995199 0.03096118
vn 0.9995234 -0.02298125 -0.02061056
vn 0.9992329 -0.03726238 -0.0120441
vn 0.9995325 -0.01862017 -0.02425212
vn 0.9994395 -0.03045825 -0.01388464
vn 0.9995322 -0.02627019 -0.01566028
vn 0.9995912 0.01702925 0.02296907
vn 0.9995911 0.01704515 0.02296153
vn 0.9995912 0.0170209 0.02297302
vn 0.9995909 0.0170552 0.02295677
vn 0.0001127021 0.9995147 0.03114996
vn 0.0202004 0.999064 0.03825014
vn -0.001085244 0.9995199 0.03096118
vn 0.009418374 0.9990368 0.04285718
vn 0.005311709 0.9990066 0.04424563
vn 0.0001127021 0.9995147 0.03114996
vn 0.001085247 0.9995199 0.03096118
vn -0.0001127001 0.9995147 0.03114996
vn -0.001085244 0.9995199 0.03096118
vn 0 -0.03676495 -0.999324
vn 0 -0.03676495 -0.999324
vn 0 -0.03676495 -0.999324
vn 0 -0.03676494 -0.999324
vn -0.9995234 -0.02298104 -0.02061053
vn -0.9994395 -0.03045817 -0.01388455
vn -0.9995322 -0.02627018 -0.01566016
vn -0.9992329 -0.03726212 -0.01204409
vn -0.9995325 -0.0186199 -0.02425212
vn 0 -0.03468372 -0.9993984
vn 0 -0.03468242 -0.9993984
vn 0 -0.03468028 -0.9993985
vn 0 -0.03468599 -0.9993982
vn 0 1 0
vn 0 1 0
vn 0 1 0
vn 0 1 0
vn -0.9999083 -0.01354357 0
vn -0.9999083 -0.01354357 0
vn -0.9999083 -0.01354357 0
vn -0.9999083 -0.01354357 0
vn 0.9999148 -0.01305522 0
vn 0.9999148 -0.01305522 0
vn 0.9999148 -0.01305522 0
vn 0.9999148 -0.01305522 0
g MailBox_0
f 3/3/3 2/2/2 1/1/1
f 4/4/4 1/1/1 2/2/2
f 1/1/1 4/4/4 5/5/5
f 6/6/6 5/5/5 4/4/4
f 5/5/5 6/6/6 7/7/7
f 8/8/8 7/7/7 6/6/6
f 7/7/7 8/8/8 9/9/9
f 10/10/10 9/9/9 8/8/8
f 13/13/13 12/12/12 11/11/11
f 11/11/11 12/12/12 14/14/14
f 14/14/14 12/12/12 15/15/15
f 15/15/15 12/12/12 16/16/16
f 17/17/17 16/16/16 12/12/12
f 20/20/20 19/19/19 18/18/18
f 18/18/18 19/19/19 21/21/21
f 21/21/21 19/19/19 22/22/22
f 19/19/19 23/23/23 22/22/22
f 24/24/24 22/22/22 23/23/23
f 27/27/27 26/26/26 25/25/25
f 28/28/28 25/25/25 26/26/26
f 31/31/31 30/30/30 29/29/29
f 32/32/32 29/29/29 30/30/30
f 35/35/35 34/34/34 33/33/33
f 36/36/36 33/33/33 34/34/34
f 39/39/39 38/38/38 37/37/37
f 40/40/40 37/37/37 38/38/38
f 43/43/43 42/42/42 41/41/41
f 44/44/44 41/41/41 42/42/42
f 47/47/47 46/46/46 45/45/45
f 48/48/48 45/45/45 46/46/46
f 51/51/51 50/50/50 49/49/49
f 52/52/52 49/49/49 50/50/50
f 55/55/55 54/54/54 53/53/53
f 56/56/56 53/53/53 54/54/54
f 59/59/59 58/58/58 57/57/57
f 60/60/60 57/57/57 58/58/58
f 63/63/63 62/62/62 61/61/61
f 64/64/64 61/61/61 62/62/62
f 67/67/67 66/66/66 65/65/65
f 68/68/68 65/65/65 66/66/66
f 71/71/71 70/70/70 69/69/69
f 72/72/72 69/69/69 70/70/70
f 75/75/75 74/74/74 73/73/73
f 73/73/73 74/74/74 76/76/76
f 74/74/74 77/77/77 76/76/76
f 80/80/80 79/79/79 78/78/78
f 79/79/79 81/81/81 78/78/78
f 81/81/81 82/82/82 78/78/78
f 85/85/85 84/84/84 83/83/83
f 86/86/86 83/83/83 84/84/84
f 89/89/89 88/88/88 87/87/87
f 88/88/88 90/90/90 87/87/87
f 91/91/91 90/90/90 88/88/88
f 94/94/94 93/93/93 92/92/92
f 95/95/95 92/92/92 93/93/93
f 98/98/98 97/97/97 96/96/96
f 99/99/99 96/96/96 97/97/97
f 102/102/102 101/101/101 100/100/100
f 101/101/101 103/103/103 100/100/100
f 103/103/103 104/104/104 100/100/100
f 107/107/107 106/106/106 105/105/105
f 108/108/108 105/105/105 106/106/106
f 111/111/111 110/110/110 109/109/109
f 112/112/112 109/109/109 110/110/110
f 115/115/115 114/114/114 113/113/113
f 116/116/116 113/113/113 114/114/114
f 119/119/119 118/118/118 117/117/117
f 120/120/120 117/117/117 118/118/118
