g Manhole
v 0.6555229 0 0
v 0.6555229 0.06814989 2.978927E-09
v 0.5676995 0.06814991 -0.3277615
v 0.5676995 1.432691E-08 -0.3277615
v 0.5676995 1.432691E-08 -0.3277615
v 0.5676995 0.06814991 -0.3277615
v 0.3277614 0.06814992 -0.5676996
v 0.3277614 2.481494E-08 -0.5676996
v 0.3277614 2.481494E-08 -0.5676996
v 0.3277614 0.06814992 -0.5676996
v 4.949061E-08 0.06814992 -0.6555229
v 4.949061E-08 2.865382E-08 -0.6555229
v 4.949061E-08 2.865382E-08 -0.6555229
v 4.949061E-08 0.06814992 -0.6555229
v -0.3277614 0.06814992 -0.5676996
v -0.3277614 2.481494E-08 -0.5676996
v -0.3277614 2.481494E-08 -0.5676996
v -0.3277614 0.06814992 -0.5676996
v -0.5676994 0.06814991 -0.3277616
v -0.5676994 1.432692E-08 -0.3277616
v -0.5676994 1.432692E-08 -0.3277616
v -0.5676994 0.06814991 -0.3277616
v -0.6555229 0.06814989 -2.522911E-07
v -0.6555229 1.115821E-14 -2.552701E-07
v -0.6555229 1.115821E-14 -2.552701E-07
v -0.6555229 0.06814989 -2.522911E-07
v -0.5676997 0.06814988 0.3277612
v -0.5676997 -1.43269E-08 0.3277612
v 0.5676993 -1.432693E-08 0.3277619
v 0.5676993 0.06814988 0.3277619
v 0.6555229 0.06814989 2.978927E-09
v 0.6555229 0 0
v -0.3277614 0.06814992 -0.5676996
v 4.949061E-08 0.06814992 -0.6555229
v 0.3277614 0.06814992 -0.5676996
v -0.5676994 0.06814991 -0.3277616
v 0.5676995 0.06814991 -0.3277615
v -0.6555229 0.06814989 -2.522911E-07
v 0.6555229 0.06814989 2.978927E-09
v -0.5676997 0.06814988 0.3277612
v 0.5676993 0.06814988 0.3277619
v -0.3277617 0.06814987 0.5676994
v 0.3277611 0.06814987 0.5676997
v -3.047607E-07 0.06814986 0.6555229
vt 0.328107 0.9779862
vt 0.34051 0.9779862
vt 0.34051 0.9308889
vt 0.328107 0.9308889
vt 0.328107 0.9308889
vt 0.34051 0.9308889
vt 0.34051 0.9779862
vt 0.328107 0.9779862
vt 0.328107 0.9779862
vt 0.34051 0.9779862
vt 0.34051 0.9308889
vt 0.328107 0.9308889
vt 0.328107 0.9308889
vt 0.34051 0.9308889
vt 0.34051 0.9779862
vt 0.328107 0.9779862
vt 0.328107 0.9779862
vt 0.34051 0.9779862
vt 0.34051 0.9308889
vt 0.328107 0.9308889
vt 0.328107 0.9308889
vt 0.34051 0.9308889
vt 0.34051 0.9779862
vt 0.328107 0.9779862
vt 0.328107 0.9779862
vt 0.34051 0.9779862
vt 0.34051 0.9308889
vt 0.328107 0.9308889
vt 0.328107 0.9308889
vt 0.34051 0.9308889
vt 0.34051 0.9779862
vt 0.328107 0.9779862
vt 0.2464704 0.8066031
vt 0.2704837 0.798074
vt 0.294497 0.8066031
vt 0.2288914 0.8407192
vt 0.312076 0.8407192
vt 0.2224571 0.8918931
vt 0.3185103 0.8918931
vt 0.2288914 0.9430673
vt 0.312076 0.9430673
vt 0.2464704 0.9771833
vt 0.2944969 0.9771833
vt 0.2704836 0.9857123
vn 1 0 0
vn 1 0 0
vn 0.8660254 0 -0.5
vn 0.8660254 0 -0.4999999
vn 0.8660254 0 -0.4999999
vn 0.8660254 0 -0.5
vn 0.5000001 0 -0.8660254
vn 0.5000001 0 -0.8660254
vn 0.5000001 0 -0.8660254
vn 0.5000001 0 -0.8660254
vn 0 0 -1
vn 0 0 -1
vn 0 0 -1
vn 0 0 -1
vn -0.4999999 0 -0.8660255
vn -0.4999999 0 -0.8660255
vn -0.4999999 0 -0.8660255
vn -0.4999999 0 -0.8660255
vn -0.8660253 0 -0.5000002
vn -0.8660253 0 -0.5000002
vn -0.8660253 0 -0.5000002
vn -0.8660253 0 -0.5000002
vn -1 0 0
vn -1 0 0
vn -1 0 0
vn -1 0 0
vn -0.9659259 0 0.2588186
vn -0.9659259 0 0.2588186
vn 0.9659257 0 0.2588193
vn 0.9659257 0 0.2588193
vn 1 0 0
vn 1 0 0
vn 0 1 0
vn 0 1 0
vn 0 1 0
vn 0 1 0
vn 0 1 0
vn 0 1 0
vn 0 1 0
vn 0 1 0
vn 0 1 0
vn 0 1 0
vn 0 1 0
vn 0 1 0
g Manhole_0
f 3/3/3 2/2/2 1/1/1
f 4/4/4 3/3/3 1/1/1
f 7/7/7 6/6/6 5/5/5
f 8/8/8 7/7/7 5/5/5
f 11/11/11 10/10/10 9/9/9
f 12/12/12 11/11/11 9/9/9
f 15/15/15 14/14/14 13/13/13
f 16/16/16 15/15/15 13/13/13
f 19/19/19 18/18/18 17/17/17
f 20/20/20 19/19/19 17/17/17
f 23/23/23 22/22/22 21/21/21
f 24/24/24 23/23/23 21/21/21
f 27/27/27 26/26/26 25/25/25
f 28/28/28 27/27/27 25/25/25
f 31/31/31 30/30/30 29/29/29
f 32/32/32 31/31/31 29/29/29
f 35/35/35 34/34/34 33/33/33
f 33/33/33 36/36/36 35/35/35
f 36/36/36 37/37/37 35/35/35
f 36/36/36 38/38/38 37/37/37
f 38/38/38 39/39/39 37/37/37
f 38/38/38 40/40/40 39/39/39
f 40/40/40 41/41/41 39/39/39
f 40/40/40 42/42/42 41/41/41
f 42/42/42 43/43/43 41/41/41
f 42/42/42 44/44/44 43/43/43
