g Medal
v -0.09948166 0.1936975 0.05826398
v 0.02079873 0.2413192 -0.06835882
v 0.0430956 0.1988137 0.02730655
v -0.1217785 0.236203 -0.03740139
v -0.2341607 0.1377349 0.06478884
v -0.2564576 0.1802404 -0.03087649
v -0.3404379 0.03944583 0.04588781
v -0.3627348 0.08195132 -0.04977756
v -0.4021334 -0.0862062 0.004438214
v -0.4244302 -0.04370071 -0.09122716
v -0.4098546 -0.2200915 -0.05324939
v -0.4321514 -0.177586 -0.1489147
v -0.3624262 -0.3418278 -0.1183927
v -0.384723 -0.2993223 -0.2140581
v -0.2670683 -0.4328815 -0.1810744
v -0.2893652 -0.390376 -0.2767398
v -0.1382989 -0.4793905 -0.2317515
v -0.1605958 -0.4368851 -0.3274169
v 0.1495681 0.1948102 -0.1190359
v 0.0430956 0.1988137 0.02730655
v 0.02079873 0.2413192 -0.06835882
v 0.171865 0.1523047 -0.02337053
v 0.2449256 0.1037566 -0.1817174
v 0.2672225 0.06125115 -0.08605206
v 0.2923542 -0.01797956 -0.2468608
v 0.3146511 -0.06048506 -0.1511954
v 0.284633 -0.151865 -0.3045485
v 0.3069299 -0.1943705 -0.2088831
v 0.2229376 -0.2775171 -0.345998
v 0.2452344 -0.3200226 -0.2503327
v 0.1166606 -0.3758062 -0.3648992
v 0.1389574 -0.4183117 -0.2692338
v -0.01801851 -0.4317687 -0.3583743
v 0.00427835 -0.4742742 -0.262709
v -0.1605958 -0.4368851 -0.3274169
v -0.1382989 -0.4793905 -0.2317515
v -0.3624262 -0.3418278 -0.1183927
v -0.1382989 -0.4793905 -0.2317515
v -0.2670683 -0.4328815 -0.1810744
v -0.3404379 0.03944583 0.04588781
v -0.4021334 -0.0862062 0.004438214
v -0.4098546 -0.2200915 -0.05324939
v -0.09948166 0.1936975 0.05826398
v 0.0430956 0.1988137 0.02730655
v -0.2341607 0.1377349 0.06478884
v -0.3627348 0.08195132 -0.04977756
v -0.1217785 0.236203 -0.03740139
v -0.2564576 0.1802404 -0.03087649
v -0.384723 -0.2993223 -0.2140581
v -0.4321514 -0.177586 -0.1489147
v -0.4244302 -0.04370071 -0.09122716
v -0.1605958 -0.4368851 -0.3274169
v 0.02079873 0.2413192 -0.06835882
v -0.2893652 -0.390376 -0.2767398
v 0.00427835 -0.4742742 -0.262709
v 0.2452344 -0.3200226 -0.2503327
v 0.1389574 -0.4183117 -0.2692338
v 0.171865 0.1523047 -0.02337053
v 0.0430956 0.1988137 0.02730655
v -0.1382989 -0.4793905 -0.2317515
v 0.3146511 -0.06048506 -0.1511954
v 0.3069299 -0.1943705 -0.2088831
v 0.2672225 0.06125115 -0.08605206
v 0.1495681 0.1948102 -0.1190359
v 0.2923542 -0.01797956 -0.2468608
v 0.2449256 0.1037566 -0.1817174
v -0.01801851 -0.4317687 -0.3583743
v -0.1605958 -0.4368851 -0.3274169
v 0.02079873 0.2413192 -0.06835882
v 0.2229376 -0.2775171 -0.345998
v 0.284633 -0.151865 -0.3045485
v 0.1166606 -0.3758062 -0.3648992
v 0.3645676 0.4157629 0.2443907
v 0.1073169 0.2333096 0.2232818
v 0.1642878 0.4463147 0.3046448
v 0.432155 0.183757 0.1255544
v 0.3605689 0.4147148 0.1882842
v 0.4281567 0.1827087 0.06944773
v 0.3192141 0.3823509 0.136864
v 0.3868017 0.1503447 0.01802749
v 0.07394758 0.1591951 0.003358489
v 0.141535 -0.07281093 -0.1154778
v -0.02974339 -0.07440832 -0.07626747
v 0.0272276 0.1385969 0.005095491
v 0.101289 0.2298735 0.204988
v 0.3505568 0.4103689 0.22711
v 0.1581052 0.4423 0.28613
v 0.4101557 0.1774778 0.1098407
v 0.3437234 0.4099613 0.1947534
v 0.414109 0.1784449 0.07548278
v 0.3122463 0.3742615 0.1526187
v 0.3837302 0.142079 0.03501073
v 0.07311518 0.1510013 0.020678
v 0.1407028 -0.08100473 -0.09815837
v -0.02627239 -0.08325855 -0.06024263
v 0.0306986 0.1297467 0.02112034
v 0.1073169 0.2333096 0.2232818
v 0.4101557 0.1774778 0.1098407
v 0.101289 0.2298735 0.204988
v 0.432155 0.183757 0.1255544
v 0.414109 0.1784449 0.07548278
v 0.4281567 0.1827087 0.06944773
v 0.3837302 0.142079 0.03501073
v 0.3868017 0.1503447 0.01802749
v 0.1407028 -0.08100473 -0.09815837
v 0.141535 -0.07281093 -0.1154778
v -0.02974339 -0.07440832 -0.07626747
v -0.02627239 -0.08325855 -0.06024263
v 0.1581052 0.4423 0.28613
v 0.3645676 0.4157629 0.2443907
v 0.1642878 0.4463147 0.3046448
v 0.3505568 0.4103689 0.22711
v 0.3605689 0.4147148 0.1882842
v 0.3437234 0.4099613 0.1947534
v 0.3192141 0.3823509 0.136864
v 0.3122463 0.3742615 0.1526187
v 0.07394758 0.1591951 0.003358489
v 0.07311518 0.1510013 0.020678
v 0.0272276 0.1385969 0.005095491
v 0.0306986 0.1297467 0.02112034
v 0.1073169 0.2333096 0.2232818
v -0.03599196 0.4768665 0.3648989
v 0.1642878 0.4463147 0.3046448
v -0.2175216 0.2828622 0.3210093
v -0.06340808 0.4793905 0.3158374
v -0.2449377 0.2853862 0.2719479
v -0.06714668 0.4412885 0.2531004
v -0.2486764 0.247284 0.2092108
v -0.005243099 0.1712753 0.02718297
v -0.1867725 -0.02272908 -0.01670664
v -0.02974339 -0.07440832 -0.07626747
v 0.0272276 0.1385969 0.005095491
v -0.03565709 0.4692841 0.3433023
v 0.101289 0.2298735 0.204988
v 0.1581052 0.4423 0.28613
v -0.210226 0.2721142 0.2964822
v -0.0478116 0.4696882 0.3125466
v -0.231668 0.2769552 0.2697645
v -0.05530719 0.4303302 0.263197
v -0.2393215 0.2371227 0.2224556
v 0.002531305 0.1617686 0.04191312
v -0.1789984 -0.03223575 -0.001976406
v -0.02627239 -0.08325855 -0.06024263
v 0.0306986 0.1297467 0.02112034
v -0.210226 0.2721142 0.2964822
v 0.1073169 0.2333096 0.2232818
v 0.101289 0.2298735 0.204988
v -0.2175216 0.2828622 0.3210093
v -0.231668 0.2769552 0.2697645
v -0.2449377 0.2853862 0.2719479
v -0.2393215 0.2371227 0.2224556
v -0.2486764 0.247284 0.2092108
v -0.1789984 -0.03223575 -0.001976406
v -0.1867725 -0.02272908 -0.01670664
v -0.02974339 -0.07440832 -0.07626747
v -0.02627239 -0.08325855 -0.06024263
v -0.03599196 0.4768665 0.3648989
v 0.1581052 0.4423 0.28613
v 0.1642878 0.4463147 0.3046448
v -0.03565709 0.4692841 0.3433023
v -0.06340808 0.4793905 0.3158374
v -0.0478116 0.4696882 0.3125466
v -0.06714668 0.4412885 0.2531004
v -0.05530719 0.4303302 0.263197
v -0.005243099 0.1712753 0.02718297
v 0.002531305 0.1617686 0.04191312
v 0.0272276 0.1385969 0.005095491
v 0.0306986 0.1297467 0.02112034
vt 0.2345879 0.5401773
vt 0.2056696 0.5800965
vt 0.2345879 0.5800964
vt 0.2056696 0.5401773
vt 0.2345879 0.5002581
vt 0.2056696 0.5002581
vt 0.2345879 0.460339
vt 0.2056696 0.460339
vt 0.2345879 0.4204199
vt 0.2056696 0.4204199
vt 0.2345879 0.3805008
vt 0.2056696 0.3805008
vt 0.2345879 0.3405815
vt 0.2056696 0.3405815
vt 0.2345879 0.3006625
vt 0.2056696 0.3006625
vt 0.2345879 0.2607431
vt 0.2056696 0.2607431
vt 0.2056696 0.5401775
vt 0.2345879 0.5800964
vt 0.2056696 0.5800965
vt 0.2345879 0.5401773
vt 0.2056696 0.5002581
vt 0.2345879 0.5002581
vt 0.2056696 0.460339
vt 0.2345879 0.460339
vt 0.2056696 0.4204199
vt 0.2345879 0.4204199
vt 0.2056696 0.3805008
vt 0.2345879 0.3805008
vt 0.2056696 0.3405815
vt 0.2345879 0.3405815
vt 0.2056696 0.3006625
vt 0.2345879 0.3006625
vt 0.2056696 0.2607431
vt 0.2345879 0.2607431
vt 0.06427174 0.3143121
vt 0.1712651 0.2699938
vt 0.1133607 0.2815119
vt 0.03147156 0.4792102
vt 0.01995365 0.4213058
vt 0.03147156 0.3634013
vt 0.1133607 0.5610998
vt 0.1712651 0.5726177
vt 0.06427174 0.5282994
vt 0.03147156 0.4792102
vt 0.1133607 0.5610998
vt 0.06427174 0.5282994
vt 0.06427174 0.3143121
vt 0.03147156 0.3634013
vt 0.01995365 0.4213058
vt 0.1712651 0.2699938
vt 0.1712651 0.5726177
vt 0.1133607 0.2815119
vt 0.1133607 0.2815118
vt 0.03147156 0.3634012
vt 0.06427174 0.3143121
vt 0.1133607 0.5610998
vt 0.1712651 0.5726177
vt 0.1712651 0.2699938
vt 0.03147156 0.4792102
vt 0.01995365 0.4213058
vt 0.06427174 0.5282994
vt 0.1133607 0.5610998
vt 0.03147156 0.4792102
vt 0.06427174 0.5282994
vt 0.1133607 0.2815118
vt 0.1712651 0.2699938
vt 0.1712651 0.5726177
vt 0.03147156 0.3634012
vt 0.01995365 0.4213058
vt 0.06427174 0.3143121
vt 0.1310997 0.03497077
vt 0.01632973 0.1228268
vt 0.01632973 0.03497077
vt 0.1310997 0.1228268
vt 0.2121025 0.03497077
vt 0.2121025 0.1228268
vt 0.2812709 0.03497077
vt 0.2812709 0.1228268
vt 0.4737264 0.03497077
vt 0.4737264 0.1228268
vt 0.5055484 0.1228268
vt 0.5055484 0.03497077
vt 0.4639353 0.2422553
vt 0.3617734 0.1581542
vt 0.4639353 0.1581542
vt 0.3617734 0.2422553
vt 0.3074751 0.1581542
vt 0.3074751 0.2422553
vt 0.2506754 0.1581542
vt 0.2506754 0.2422553
vt 0.0591809 0.1581542
vt 0.0591809 0.2422553
vt 0.0210523 0.2422553
vt 0.0210523 0.1581542
vt 0.01632973 0.1228268
vt 0.1310997 0.1443886
vt 0.01632973 0.1443886
vt 0.1310997 0.1228268
vt 0.2121025 0.1443886
vt 0.2121025 0.1228268
vt 0.2812709 0.1443886
vt 0.2812709 0.1228268
vt 0.4737264 0.1443886
vt 0.4737264 0.1228268
vt 0.5055484 0.1228268
vt 0.5055484 0.1443886
vt 0.01632973 0.01333293
vt 0.1310997 0.03497077
vt 0.01632973 0.03497077
vt 0.1310997 0.01333293
vt 0.2121025 0.03497077
vt 0.2121025 0.01333293
vt 0.2812709 0.03497077
vt 0.2812709 0.01333293
vt 0.4737264 0.03497077
vt 0.4737264 0.01333293
vt 0.5055484 0.03497077
vt 0.5055484 0.01333293
vt 0.01632973 0.1228268
vt 0.1310997 0.03497077
vt 0.01632973 0.03497077
vt 0.1310997 0.1228268
vt 0.2121025 0.03497077
vt 0.2121025 0.1228268
vt 0.2812709 0.03497077
vt 0.2812709 0.1228268
vt 0.4737264 0.03497077
vt 0.4737264 0.1228268
vt 0.5055484 0.1228268
vt 0.5055484 0.03497077
vt 0.3617734 0.1581542
vt 0.4639353 0.2422553
vt 0.4639353 0.1581542
vt 0.3617734 0.2422553
vt 0.3074751 0.1581542
vt 0.3074751 0.2422553
vt 0.2506754 0.1581542
vt 0.2506754 0.2422553
vt 0.0591809 0.1581542
vt 0.0591809 0.2422553
vt 0.0210523 0.2422553
vt 0.0210523 0.1581542
vt 0.1310997 0.1443886
vt 0.01632973 0.1228268
vt 0.01632973 0.1443886
vt 0.1310997 0.1228268
vt 0.2121025 0.1443886
vt 0.2121025 0.1228268
vt 0.2812709 0.1443886
vt 0.2812709 0.1228268
vt 0.4737264 0.1443886
vt 0.4737264 0.1228268
vt 0.5055484 0.1228268
vt 0.5055484 0.1443886
vt 0.1310997 0.03497077
vt 0.01632973 0.01333293
vt 0.01632973 0.03497077
vt 0.1310997 0.01333293
vt 0.2121025 0.03497077
vt 0.2121025 0.01333293
vt 0.2812709 0.03497077
vt 0.2812709 0.01333293
vt 0.4737264 0.03497077
vt 0.4737264 0.01333293
vt 0.5055484 0.03497077
vt 0.5055484 0.01333293
vn -0.1386581 0.8926339 0.4289273
vn 0.2424038 0.906308 0.3461883
vn 0.2424038 0.906308 0.3461883
vn -0.1386581 0.8926339 0.4289274
vn -0.49861 0.7430648 0.4463662
vn -0.4986101 0.7430648 0.4463662
vn -0.782654 0.4803704 0.3958498
vn -0.782654 0.4803703 0.3958497
vn -0.9475457 0.1445437 0.2850686
vn -0.9475458 0.1445437 0.2850685
vn -0.968182 -0.2132875 0.1308887
vn -0.968182 -0.2132875 0.1308887
vn -0.8414214 -0.5386485 -0.04321821
vn -0.8414214 -0.5386485 -0.04321825
vn -0.5865617 -0.782005 -0.2107453
vn -0.5865619 -0.7820049 -0.2107452
vn -0.2424038 -0.906308 -0.346188
vn -0.2424038 -0.906308 -0.346188
vn 0.5865623 0.7820046 0.210745
vn 0.2424038 0.906308 0.3461883
vn 0.2424038 0.906308 0.3461883
vn 0.5865623 0.7820046 0.210745
vn 0.8414212 0.5386488 0.04321804
vn 0.8414212 0.5386488 0.04321801
vn 0.9681819 0.2132884 -0.1308886
vn 0.9681819 0.2132884 -0.1308886
vn 0.9475457 -0.1445438 -0.2850688
vn 0.9475457 -0.1445437 -0.2850687
vn 0.7826545 -0.4803698 -0.3958496
vn 0.7826544 -0.4803699 -0.3958496
vn 0.4986108 -0.7430643 -0.4463661
vn 0.4986108 -0.7430643 -0.4463661
vn 0.1386584 -0.8926338 -0.4289275
vn 0.1386583 -0.8926338 -0.4289274
vn -0.2424038 -0.906308 -0.346188
vn -0.2424038 -0.906308 -0.346188
vn 0.2083205 -0.3971311 0.8938062
vn 0.2083207 -0.397131 0.8938062
vn 0.2083205 -0.3971312 0.8938061
vn 0.2083207 -0.397131 0.8938062
vn 0.2083203 -0.397131 0.8938062
vn 0.2083203 -0.3971311 0.8938063
vn 0.2083207 -0.3971309 0.8938062
vn 0.2083206 -0.397131 0.8938062
vn 0.2083203 -0.3971303 0.8938065
vn -0.2083208 0.3971311 -0.8938061
vn -0.2083207 0.397131 -0.8938062
vn -0.2083212 0.3971316 -0.8938057
vn -0.2083208 0.397131 -0.8938062
vn -0.2083209 0.3971309 -0.8938062
vn -0.2083199 0.3971308 -0.8938064
vn -0.2083206 0.3971309 -0.8938062
vn -0.2083206 0.397131 -0.8938062
vn -0.208321 0.3971305 -0.8938063
vn 0.2083207 -0.397131 0.8938062
vn 0.2083206 -0.397131 0.8938062
vn 0.2083203 -0.3971305 0.8938064
vn 0.2083206 -0.3971309 0.8938062
vn 0.2083206 -0.397131 0.8938062
vn 0.2083207 -0.397131 0.8938062
vn 0.2083204 -0.3971311 0.8938062
vn 0.2083212 -0.3971311 0.893806
vn 0.2083213 -0.3971304 0.8938063
vn -0.2083206 0.397131 -0.8938062
vn -0.2083206 0.3971309 -0.8938062
vn -0.2083198 0.3971314 -0.8938062
vn -0.2083205 0.3971309 -0.8938062
vn -0.2083206 0.3971309 -0.8938062
vn -0.2083206 0.397131 -0.8938062
vn -0.2083206 0.3971309 -0.8938062
vn -0.2083219 0.3971311 -0.8938059
vn -0.2083209 0.3971316 -0.8938058
vn 0.6294833 -0.2010612 0.7505499
vn 0.2083206 -0.397131 0.8938062
vn 0.2083206 -0.397131 0.8938062
vn 0.9325524 0.09298204 0.3488558
vn 0.8604354 0.4074184 -0.306041
vn 0.698282 0.4768687 -0.5338526
vn 0.3578172 0.5061727 -0.7847012
vn 0.1970039 0.4918099 -0.8481229
vn -0.0531465 0.4429355 -0.8949769
vn -0.0904433 0.4330218 -0.8968345
vn -0.2083206 0.3971309 -0.8938062
vn -0.2083206 0.3971309 -0.8938063
vn -0.2083471 0.397032 -0.893844
vn -0.6692052 0.1905283 -0.7182363
vn -0.2083206 0.3971312 -0.8938061
vn -0.8821582 -0.02380636 -0.470351
vn -0.8272965 -0.4142957 0.3793938
vn -0.6807557 -0.4858319 0.5482143
vn -0.3108511 -0.5062621 0.8044068
vn -0.1567706 -0.4851653 0.8602544
vn 0.0506321 -0.4428055 0.8951868
vn 0.09115284 -0.4328266 0.8968568
vn 0.2083206 -0.397131 0.8938062
vn 0.2083206 -0.3971309 0.8938062
vn -0.08228783 -0.9721558 0.2194126
vn 0.1247778 -0.9700543 0.208387
vn -0.0850859 -0.9737888 0.21094
vn 0.1254172 -0.9686166 0.2145984
vn 0.3603474 -0.9107614 0.2016518
vn 0.4048666 -0.902145 0.1490547
vn 0.719196 -0.6775529 -0.1538809
vn 0.7272661 -0.6592354 -0.1910308
vn 0.324163 -0.8610283 -0.3918529
vn 0.3850944 -0.841244 -0.3794875
vn -0.2591923 -0.8693765 -0.4207183
vn -0.2597191 -0.8680394 -0.4231473
vn 0.07471661 0.9673586 -0.2421464
vn -0.09343203 0.9708771 -0.2206086
vn 0.07686201 0.9687737 -0.2357328
vn -0.1868297 0.9727371 -0.1373942
vn -0.3248705 0.9386756 -0.1155306
vn -0.3483983 0.930989 -0.1089865
vn -0.6948602 0.719093 0.00863394
vn -0.7229732 0.6898001 0.03854095
vn -0.573518 0.7524703 0.3238295
vn -0.551599 0.7570505 0.3501615
vn 0.2517751 0.8869771 0.3871446
vn 0.2597175 0.8680404 0.4231462
vn 0.2083206 -0.397131 0.8938062
vn -0.1504742 -0.082083 0.9852004
vn 0.2083206 -0.397131 0.8938062
vn -0.5280871 0.3157967 0.788287
vn -0.7383673 0.6513084 0.174961
vn -0.7133914 0.6922128 -0.1091513
vn -0.5699778 0.6477036 -0.5055743
vn -0.4802174 0.5951169 -0.644381
vn -0.3198758 0.4836238 -0.8147315
vn -0.2939186 0.464061 -0.835619
vn -0.2083206 0.3971309 -0.8938062
vn -0.2083206 0.3971309 -0.8938063
vn 0.1966537 0.0584455 -0.9787295
vn -0.2083471 0.397032 -0.893844
vn -0.2083206 0.3971312 -0.8938061
vn 0.4413016 -0.2256941 -0.8685132
vn 0.7497431 -0.6548657 -0.09505821
vn 0.7047494 -0.6971841 0.1313875
vn 0.5432284 -0.636548 0.5474573
vn 0.4565782 -0.5787284 0.675729
vn 0.3220257 -0.4842054 0.8135383
vn 0.2934196 -0.4636816 0.836005
vn 0.2083206 -0.397131 0.8938062
vn 0.2083206 -0.3971309 0.8938062
vn -0.2524274 -0.9125135 0.3218689
vn -0.08228783 -0.9721558 0.2194126
vn -0.0850859 -0.9737888 0.21094
vn -0.2491876 -0.9114723 0.3272978
vn -0.4272671 -0.7906132 0.438604
vn -0.4887447 -0.7658277 0.4178955
vn -0.8409781 -0.4395597 0.3155043
vn -0.8624514 -0.4167359 0.2872434
vn -0.705479 -0.7039611 -0.08208549
vn -0.7418619 -0.669332 -0.04044333
vn -0.2591923 -0.8693765 -0.4207183
vn -0.2597191 -0.8680394 -0.4231473
vn 0.2211082 0.9228946 -0.3152407
vn 0.07471661 0.9673586 -0.2421464
vn 0.07686201 0.9687737 -0.2357328
vn 0.3408922 0.8922338 -0.2961609
vn 0.4532073 0.819983 -0.3496157
vn 0.4733573 0.8056342 -0.3562113
vn 0.7545308 0.4979954 -0.4274153
vn 0.7850326 0.4597612 -0.4151427
vn 0.8374021 0.5372415 -0.1006445
vn 0.8354412 0.5454646 -0.06712807
vn 0.2517751 0.8869771 0.3871446
vn 0.2597175 0.8680404 0.4231462
g Medal_0
f 3/3/3 2/2/2 1/1/1
f 4/4/4 1/1/1 2/2/2
f 1/1/1 4/4/4 5/5/5
f 6/6/6 5/5/5 4/4/4
f 5/5/5 6/6/6 7/7/7
f 8/8/8 7/7/7 6/6/6
f 7/7/7 8/8/8 9/9/9
f 10/10/10 9/9/9 8/8/8
f 9/9/9 10/10/10 11/11/11
f 12/12/12 11/11/11 10/10/10
f 11/11/11 12/12/12 13/13/13
f 14/14/14 13/13/13 12/12/12
f 13/13/13 14/14/14 15/15/15
f 16/16/16 15/15/15 14/14/14
f 15/15/15 16/16/16 17/17/17
f 18/18/18 17/17/17 16/16/16
f 21/21/21 20/20/20 19/19/19
f 22/22/22 19/19/19 20/20/20
f 19/19/19 22/22/22 23/23/23
f 24/24/24 23/23/23 22/22/22
f 23/23/23 24/24/24 25/25/25
f 26/26/26 25/25/25 24/24/24
f 25/25/25 26/26/26 27/27/27
f 28/28/28 27/27/27 26/26/26
f 27/27/27 28/28/28 29/29/29
f 30/30/30 29/29/29 28/28/28
f 29/29/29 30/30/30 31/31/31
f 32/32/32 31/31/31 30/30/30
f 31/31/31 32/32/32 33/33/33
f 34/34/34 33/33/33 32/32/32
f 33/33/33 34/34/34 35/35/35
f 36/36/36 35/35/35 34/34/34
f 39/39/39 38/38/38 37/37/37
f 38/38/38 40/40/40 37/37/37
f 40/40/40 41/41/41 37/37/37
f 37/37/37 41/41/41 42/42/42
f 43/43/43 40/40/40 38/38/38
f 44/44/44 43/43/43 38/38/38
f 45/45/45 40/40/40 43/43/43
f 48/48/48 47/47/47 46/46/46
f 47/47/47 49/49/49 46/46/46
f 49/49/49 50/50/50 46/46/46
f 46/46/46 50/50/50 51/51/51
f 52/52/52 49/49/49 47/47/47
f 53/53/53 52/52/52 47/47/47
f 54/54/54 49/49/49 52/52/52
f 57/57/57 56/56/56 55/55/55
f 56/56/56 58/58/58 55/55/55
f 58/58/58 59/59/59 55/55/55
f 55/55/55 59/59/59 60/60/60
f 61/61/61 58/58/58 56/56/56
f 62/62/62 61/61/61 56/56/56
f 63/63/63 58/58/58 61/61/61
f 66/66/66 65/65/65 64/64/64
f 65/65/65 67/67/67 64/64/64
f 67/67/67 68/68/68 64/64/64
f 64/64/64 68/68/68 69/69/69
f 70/70/70 67/67/67 65/65/65
f 71/71/71 70/70/70 65/65/65
f 72/72/72 67/67/67 70/70/70
f 75/75/75 74/74/74 73/73/73
f 76/76/76 73/73/73 74/74/74
f 73/73/73 76/76/76 77/77/77
f 78/78/78 77/77/77 76/76/76
f 77/77/77 78/78/78 79/79/79
f 80/80/80 79/79/79 78/78/78
f 79/79/79 80/80/80 81/81/81
f 82/82/82 81/81/81 80/80/80
f 82/82/82 83/83/83 81/81/81
f 84/84/84 81/81/81 83/83/83
f 87/87/87 86/86/86 85/85/85
f 88/88/88 85/85/85 86/86/86
f 86/86/86 89/89/89 88/88/88
f 90/90/90 88/88/88 89/89/89
f 89/89/89 91/91/91 90/90/90
f 92/92/92 90/90/90 91/91/91
f 91/91/91 93/93/93 92/92/92
f 94/94/94 92/92/92 93/93/93
f 94/94/94 93/93/93 95/95/95
f 96/96/96 95/95/95 93/93/93
f 99/99/99 98/98/98 97/97/97
f 100/100/100 97/97/97 98/98/98
f 98/98/98 101/101/101 100/100/100
f 102/102/102 100/100/100 101/101/101
f 101/101/101 103/103/103 102/102/102
f 104/104/104 102/102/102 103/103/103
f 103/103/103 105/105/105 104/104/104
f 106/106/106 104/104/104 105/105/105
f 106/106/106 105/105/105 107/107/107
f 108/108/108 107/107/107 105/105/105
f 111/111/111 110/110/110 109/109/109
f 112/112/112 109/109/109 110/110/110
f 110/110/110 113/113/113 112/112/112
f 114/114/114 112/112/112 113/113/113
f 113/113/113 115/115/115 114/114/114
f 116/116/116 114/114/114 115/115/115
f 115/115/115 117/117/117 116/116/116
f 118/118/118 116/116/116 117/117/117
f 117/117/117 119/119/119 118/118/118
f 120/120/120 118/118/118 119/119/119
f 123/123/123 122/122/122 121/121/121
f 124/124/124 121/121/121 122/122/122
f 122/122/122 125/125/125 124/124/124
f 126/126/126 124/124/124 125/125/125
f 125/125/125 127/127/127 126/126/126
f 128/128/128 126/126/126 127/127/127
f 127/127/127 129/129/129 128/128/128
f 130/130/130 128/128/128 129/129/129
f 130/130/130 129/129/129 131/131/131
f 132/132/132 131/131/131 129/129/129
f 135/135/135 134/134/134 133/133/133
f 136/136/136 133/133/133 134/134/134
f 133/133/133 136/136/136 137/137/137
f 138/138/138 137/137/137 136/136/136
f 137/137/137 138/138/138 139/139/139
f 140/140/140 139/139/139 138/138/138
f 139/139/139 140/140/140 141/141/141
f 142/142/142 141/141/141 140/140/140
f 142/142/142 143/143/143 141/141/141
f 144/144/144 141/141/141 143/143/143
f 147/147/147 146/146/146 145/145/145
f 148/148/148 145/145/145 146/146/146
f 145/145/145 148/148/148 149/149/149
f 150/150/150 149/149/149 148/148/148
f 149/149/149 150/150/150 151/151/151
f 152/152/152 151/151/151 150/150/150
f 151/151/151 152/152/152 153/153/153
f 154/154/154 153/153/153 152/152/152
f 154/154/154 155/155/155 153/153/153
f 156/156/156 153/153/153 155/155/155
f 159/159/159 158/158/158 157/157/157
f 160/160/160 157/157/157 158/158/158
f 157/157/157 160/160/160 161/161/161
f 162/162/162 161/161/161 160/160/160
f 161/161/161 162/162/162 163/163/163
f 164/164/164 163/163/163 162/162/162
f 163/163/163 164/164/164 165/165/165
f 166/166/166 165/165/165 164/164/164
f 165/165/165 166/166/166 167/167/167
f 168/168/168 167/167/167 166/166/166
