g Nut
v 0.3065034 0.2283394 -0.5308796
v 0.6130068 -0.2283393 -3.720119E-08
v 0.6130068 0.2283393 3.72012E-08
v 0.3065034 -0.2283392 -0.5308796
v -0.3065034 0.2283394 -0.5308795
v 0.3065034 -0.2283392 -0.5308796
v 0.3065034 0.2283394 -0.5308796
v -0.3065034 -0.2283392 -0.5308796
v -0.6130068 0.2283393 9.079195E-08
v -0.3065034 -0.2283392 -0.5308796
v -0.3065034 0.2283394 -0.5308795
v -0.6130068 -0.2283393 1.638957E-08
v -0.3065034 0.2283392 0.5308796
v -0.6130068 -0.2283393 1.638957E-08
v -0.6130068 0.2283393 9.079195E-08
v -0.3065034 -0.2283394 0.5308795
v 0.3065034 0.2283392 0.5308796
v -0.3065034 -0.2283394 0.5308795
v -0.3065034 0.2283392 0.5308796
v 0.3065034 -0.2283394 0.5308795
v 0.6130068 0.2283393 3.72012E-08
v 0.3065034 -0.2283394 0.5308795
v 0.3065034 0.2283392 0.5308796
v 0.6130068 -0.2283393 -3.720119E-08
v 0.1667492 -0.2283392 -0.2888182
v -0.1667492 0.2283394 -0.2888181
v 0.1667492 0.2283394 -0.2888181
v -0.1667492 -0.2283392 -0.2888181
v 0.3334984 -0.2283393 -3.720119E-08
v 0.1667492 0.2283394 -0.2888181
v 0.3334984 0.2283393 4.85525E-08
v 0.1667492 -0.2283392 -0.2888182
v 0.1667492 -0.2283394 0.2888181
v 0.3334984 0.2283393 4.85525E-08
v 0.1667492 0.2283392 0.2888182
v 0.3334984 -0.2283393 -3.720119E-08
v -0.1667492 -0.2283394 0.2888181
v 0.1667492 0.2283392 0.2888182
v -0.1667492 0.2283392 0.2888182
v 0.1667492 -0.2283394 0.2888181
v -0.3334984 -0.2283393 -8.045832E-09
v -0.1667492 0.2283392 0.2888182
v -0.3334984 0.2283393 7.770785E-08
v -0.1667492 -0.2283394 0.2888181
v -0.1667492 -0.2283392 -0.2888181
v -0.3334984 0.2283393 7.770785E-08
v -0.1667492 0.2283394 -0.2888181
v -0.3334984 -0.2283393 -8.045832E-09
v 0.3334984 -0.2283393 -3.720119E-08
v 0.3065034 -0.2283392 -0.5308796
v 0.1667492 -0.2283392 -0.2888182
v 0.6130068 -0.2283393 -3.720119E-08
v -0.3065034 -0.2283392 -0.5308796
v 0.1667492 -0.2283394 0.2888181
v -0.1667492 -0.2283392 -0.2888181
v 0.3065034 -0.2283394 0.5308795
v -0.6130068 -0.2283393 1.638957E-08
v -0.1667492 -0.2283394 0.2888181
v -0.3334984 -0.2283393 -8.045832E-09
v -0.3065034 -0.2283394 0.5308795
v 0.1667492 0.2283394 -0.2888181
v 0.6130068 0.2283393 3.72012E-08
v 0.3334984 0.2283393 4.85525E-08
v 0.3065034 0.2283394 -0.5308796
v 0.3065034 0.2283392 0.5308796
v -0.1667492 0.2283394 -0.2888181
v 0.1667492 0.2283392 0.2888182
v -0.3065034 0.2283394 -0.5308795
v -0.3065034 0.2283392 0.5308796
v -0.3334984 0.2283393 7.770785E-08
v -0.1667492 0.2283392 0.2888182
v -0.6130068 0.2283393 9.079195E-08
vt 0.8475726 0.3160856
vt 0.7062454 0.1945117
vt 0.7062454 0.3160855
vt 0.8475726 0.1945118
vt 0.5086605 0.4996349
vt 0.3567947 0.3864977
vt 0.3567947 0.4996349
vt 0.5086605 0.3864977
vt 0.8189479 0.7017897
vt 0.6776209 0.5802159
vt 0.6776209 0.7017897
vt 0.8189479 0.5802159
vt 0.5931767 0.6721656
vt 0.4518496 0.5505918
vt 0.4518496 0.6721656
vt 0.5931767 0.5505918
vt 0.3923083 0.3467856
vt 0.5054455 0.1949196
vt 0.3923083 0.1949196
vt 0.5054455 0.3467856
vt 0.5497429 0.3304568
vt 0.6713167 0.1891297
vt 0.5497429 0.1891297
vt 0.6713166 0.3304568
vt 0.9546158 0.4942506
vt 0.8719951 0.6073877
vt 0.9546158 0.6073877
vt 0.8719951 0.4942506
vt 0.8064154 0.3990323
vt 0.7295282 0.520606
vt 0.8064154 0.520606
vt 0.7295282 0.3990323
vt 0.7995843 0.03697358
vt 0.7226971 0.1585474
vt 0.7995843 0.1585474
vt 0.7226971 0.03697358
vt 0.955635 0.4494824
vt 0.8424977 0.3668617
vt 0.8424977 0.4494824
vt 0.955635 0.3668617
vt 0.9291176 0.8469014
vt 0.8522304 0.968475
vt 0.9291176 0.968475
vt 0.8522304 0.8469013
vt 0.9670938 0.2040327
vt 0.8902067 0.3256066
vt 0.9670938 0.3256066
vt 0.8902067 0.2040327
vt 0.09589788 0.6170194
vt 0.1025856 0.7485391
vt 0.1372082 0.6885709
vt 0.02665269 0.6170194
vt 0.2544514 0.748539
vt 0.1372082 0.5454678
vt 0.2198288 0.6885709
vt 0.1025856 0.4854997
vt 0.3303843 0.6170194
vt 0.2198288 0.5454678
vt 0.2611391 0.6170194
vt 0.2544514 0.4854997
vt 0.2198288 0.6885709
vt 0.3303843 0.6170194
vt 0.2611391 0.6170194
vt 0.2544514 0.748539
vt 0.2544514 0.4854997
vt 0.1372082 0.6885709
vt 0.2198288 0.5454679
vt 0.1025855 0.748539
vt 0.1025856 0.4854997
vt 0.09589785 0.6170194
vt 0.1372082 0.5454679
vt 0.02665264 0.6170194
vn 0.8660254 0 -0.5
vn 0.8660254 0 -0.5
vn 0.8660254 0 -0.5
vn 0.8660254 0 -0.5
vn 0 0 -1
vn 0 0 -1
vn 0 0 -1
vn 0 0 -1
vn -0.8660255 0 -0.4999999
vn -0.8660255 0 -0.4999999
vn -0.8660255 0 -0.4999999
vn -0.8660254 0 -0.5
vn -0.8660253 0 0.5000002
vn -0.8660253 0 0.5000001
vn -0.8660253 0 0.5000002
vn -0.8660253 0 0.5000001
vn 0 0 1
vn 0 0 1
vn 0 0 1
vn 0 0 1
vn 0.8660253 0 0.5000001
vn 0.8660254 0 0.5000001
vn 0.8660253 0 0.5000001
vn 0.8660253 0 0.5000001
vn 0 0 1
vn 0 0 1
vn 0 0 1
vn 0 0 1
vn -0.8660254 0 0.5
vn -0.8660254 0 0.5000001
vn -0.8660254 0 0.5
vn -0.8660254 0 0.5
vn -0.8660254 0 -0.5
vn -0.8660254 0 -0.5
vn -0.8660254 0 -0.5
vn -0.8660254 0 -0.5
vn 0 0 -1
vn 0 0 -1
vn 0 0 -1
vn 0 0 -1
vn 0.8660253 0 -0.5000001
vn 0.8660253 0 -0.5000001
vn 0.8660253 0 -0.5000001
vn 0.8660253 0 -0.5000001
vn 0.8660254 0 0.4999999
vn 0.8660254 0 0.4999999
vn 0.8660254 0 0.5
vn 0.8660254 0 0.5
vn 0 -1 0
vn 0 -1 0
vn 0 -1 0
vn 0 -1 0
vn 0 -1 0
vn 0 -1 0
vn 0 -1 0
vn 0 -1 0
vn 0 -1 0
vn 0 -1 0
vn 0 -1 0
vn 0 -1 0
vn 0 1 0
vn 0 1 0
vn 0 1 0
vn 0 1 0
vn 0 1 0
vn 0 1 0
vn 0 1 0
vn 0 1 0
vn 0 1 0
vn 0 1 0
vn 0 1 0
vn 0 1 0
g Nut_0
f 3/3/3 2/2/2 1/1/1
f 4/4/4 1/1/1 2/2/2
f 7/7/7 6/6/6 5/5/5
f 8/8/8 5/5/5 6/6/6
f 11/11/11 10/10/10 9/9/9
f 12/12/12 9/9/9 10/10/10
f 15/15/15 14/14/14 13/13/13
f 16/16/16 13/13/13 14/14/14
f 19/19/19 18/18/18 17/17/17
f 20/20/20 17/17/17 18/18/18
f 23/23/23 22/22/22 21/21/21
f 24/24/24 21/21/21 22/22/22
f 27/27/27 26/26/26 25/25/25
f 28/28/28 25/25/25 26/26/26
f 31/31/31 30/30/30 29/29/29
f 32/32/32 29/29/29 30/30/30
f 35/35/35 34/34/34 33/33/33
f 36/36/36 33/33/33 34/34/34
f 39/39/39 38/38/38 37/37/37
f 40/40/40 37/37/37 38/38/38
f 43/43/43 42/42/42 41/41/41
f 44/44/44 41/41/41 42/42/42
f 47/47/47 46/46/46 45/45/45
f 48/48/48 45/45/45 46/46/46
f 51/51/51 50/50/50 49/49/49
f 52/52/52 49/49/49 50/50/50
f 50/50/50 51/51/51 53/53/53
f 49/49/49 52/52/52 54/54/54
f 55/55/55 53/53/53 51/51/51
f 56/56/56 54/54/54 52/52/52
f 53/53/53 55/55/55 57/57/57
f 54/54/54 56/56/56 58/58/58
f 59/59/59 57/57/57 55/55/55
f 60/60/60 58/58/58 56/56/56
f 57/57/57 59/59/59 60/60/60
f 58/58/58 60/60/60 59/59/59
f 63/63/63 62/62/62 61/61/61
f 64/64/64 61/61/61 62/62/62
f 62/62/62 63/63/63 65/65/65
f 61/61/61 64/64/64 66/66/66
f 67/67/67 65/65/65 63/63/63
f 68/68/68 66/66/66 64/64/64
f 65/65/65 67/67/67 69/69/69
f 66/66/66 68/68/68 70/70/70
f 71/71/71 69/69/69 67/67/67
f 72/72/72 70/70/70 68/68/68
f 69/69/69 71/71/71 72/72/72
f 70/70/70 72/72/72 71/71/71
