g Plant_Small_A_Red_LOD
v -0.03756762 0.1268388 0.06308499
v -0.1495172 0.1329733 0.1301913
v -0.04939719 0.1452423 0.04898708
v -0.04939719 0.1452423 0.04898708
v -0.1495172 0.1329733 0.1301913
v -0.06122673 0.1268388 0.03488916
v -0.09898022 0.1622512 0.01121105
v -0.1966486 0.1683857 -0.02469792
v -0.09578449 0.1806548 -0.006912877
v -0.09578449 0.1806548 -0.006912877
v -0.1966486 0.1683857 -0.02469792
v -0.09258876 0.1622512 -0.02503681
v 0.01814397 0.2023395 0.08887381
v -0.0002595493 0.208474 0.1912939
v -0.0002595493 0.2207431 0.08887381
v -0.0002595493 0.2207431 0.08887381
v -0.0002595493 0.208474 0.1912939
v -0.01866307 0.2023395 0.08887381
v -4.724294E-09 4.724294E-09 -0.1080792
v -0.1080792 0.2464593 2.022167E-08
v -0.1080792 -4.130109E-16 9.448589E-09
v -4.724294E-09 0.2464593 -0.1080792
v 0.1080792 0 0
v 0.1080792 0.2464593 1.077308E-08
v 1.288832E-09 -4.724294E-09 0.1080792
v 1.288832E-09 0.2464593 0.1080792
v -0.1080792 -4.130109E-16 9.448589E-09
v 1.288832E-09 0.2464593 0.1080792
v 1.288832E-09 -4.724294E-09 0.1080792
v -0.1080792 0.2464593 2.022167E-08
v -4.724294E-09 0.2464593 -0.1080792
v 1.288832E-09 0.2464593 0.1080792
v -0.1080792 0.2464593 2.022167E-08
v 0.1080792 0.2464593 1.077308E-08
v 0.09181063 0.3299891 -0.09181046
v -0.09181026 0.3016259 -0.09181035
v 0.09181063 0.3016259 -0.09181046
v -0.09181026 0.3299891 -0.09181035
v -0.09181026 0.3299891 -0.09181035
v -0.09181024 0.3016259 0.09181038
v -0.09181026 0.3016259 -0.09181035
v -0.09181024 0.3299891 0.09181038
v -0.09181024 0.3299891 0.09181038
v 0.09181066 0.3016259 0.09181038
v -0.09181024 0.3016259 0.09181038
v 0.09181066 0.3299891 0.09181038
v 0.09181066 0.3299891 0.09181038
v 0.09181063 0.3016259 -0.09181046
v 0.09181066 0.3016259 0.09181038
v 0.09181063 0.3299891 -0.09181046
v -0.09181024 0.3299891 0.09181038
v 0.09181063 0.3299891 -0.09181046
v 0.09181066 0.3299891 0.09181038
v -0.09181026 0.3299891 -0.09181035
v 0.04466964 0.3758858 -0.04466954
v -0.04466964 0.3758858 0.04466968
v -0.04466964 0.3758858 -0.04466954
v 0.04466964 0.3758858 0.04466968
v -0.3756478 0.09015188 0.3199376
v -0.2996525 0.1306106 0.1920127
v -0.2364699 0.1306106 0.2673108
v -0.1791914 0.1437896 0.08821844
v -0.1133347 0.1437896 0.1667034
v -0.3575804 0.1660231 -0.003168886
v -0.1835698 0.1792021 -0.07440934
v -0.2013609 0.1792021 0.02648899
v -0.3405117 0.1660231 -0.09997025
v -0.4873566 0.1255644 -0.07595744
v 0.04888791 0.2061114 0.3460422
v -0.05148685 0.2192904 0.1870461
v 0.050968 0.2192904 0.1870461
v -0.04940676 0.2061114 0.3460422
v -0.0002594261 0.1656526 0.4864865
v -0.04466964 0.3758858 0.04466968
v 0.04466964 0.3299891 0.04466968
v -0.04466964 0.3299891 0.04466968
v -0.04466964 0.3299891 -0.04466954
v 0.04466964 0.3758858 0.04466968
v -0.04466964 0.3758858 -0.04466954
v 0.04466964 0.3758858 -0.04466954
v 0.04466964 0.3299891 -0.04466954
v 0 0.2474782 0.0848316
v -0.08483155 0.3016259 5.929106E-08
v 0 0.3016259 0.08483161
v -0.08483155 0.2474782 5.692419E-08
v 0.08483155 0.2474782 5.692419E-08
v 0 0.3016259 -0.08483148
v 0.08483155 0.3016259 5.929106E-08
v 0 0.2474782 -0.08483148
vt 0.5383295 0.8920572
vt 0.5591615 0.8931674
vt 0.5383295 0.8953876
vt 0.5383295 0.8953876
vt 0.5591615 0.8931674
vt 0.5383295 0.8920572
vt 0.5383295 0.8920572
vt 0.5591615 0.8931674
vt 0.5383295 0.8953876
vt 0.5383295 0.8953876
vt 0.5591615 0.8931674
vt 0.5383295 0.8920572
vt 0.5383295 0.8920572
vt 0.5591615 0.8931674
vt 0.5383295 0.8953876
vt 0.5383295 0.8953876
vt 0.5591615 0.8931674
vt 0.5383295 0.8920572
vt 0.5279163 0.8983682
vt 0.5279163 0.9252436
vt 0.5279163 0.8983682
vt 0.5279163 0.9252436
vt 0.5107707 0.8983682
vt 0.5107707 0.9252436
vt 0.5107707 0.8983682
vt 0.5107707 0.9252436
vt 0.5279163 0.8983682
vt 0.5107707 0.9252436
vt 0.5107707 0.8983682
vt 0.5279163 0.9252436
vt 0.5279163 0.9252436
vt 0.5107707 0.9252436
vt 0.5279163 0.9252436
vt 0.5107707 0.9252436
vt 0.9243037 0.7816384
vt 0.8973323 0.8063859
vt 0.9243037 0.7794714
vt 0.8995133 0.8063859
vt 0.8995133 0.8063859
vt 0.9243037 0.7794714
vt 0.8973323 0.8063859
vt 0.9243037 0.7816384
vt 0.9243037 0.7816384
vt 0.8973528 0.8063859
vt 0.9243037 0.7794714
vt 0.8995133 0.8063859
vt 0.8995133 0.8063859
vt 0.9243037 0.7794714
vt 0.8973528 0.8063859
vt 0.9243037 0.7816384
vt 0.9243037 0.7816384
vt 0.9243037 0.7816384
vt 0.8995133 0.8063859
vt 0.8995133 0.8063859
vt 0.8932502 0.7776119
vt 0.8932502 0.7776119
vt 0.8932502 0.7776119
vt 0.8932502 0.7776119
vt 0.5536443 0.8803594
vt 0.5318446 0.8853396
vt 0.5318446 0.8853396
vt 0.5060614 0.8847526
vt 0.5060614 0.8847557
vt 0.5318446 0.8853396
vt 0.5060614 0.8847526
vt 0.5060614 0.8847557
vt 0.5318446 0.8853396
vt 0.5536443 0.8803594
vt 0.5318446 0.8853396
vt 0.5060614 0.8847526
vt 0.5060614 0.8847557
vt 0.5318446 0.8853396
vt 0.5536443 0.8803594
vt 0.8932502 0.7776119
vt 0.8932502 0.7689357
vt 0.8932502 0.7689357
vt 0.8932502 0.7689357
vt 0.8932502 0.7776119
vt 0.8932502 0.7776119
vt 0.8932502 0.7776119
vt 0.8932502 0.7689357
vt 0.9183801 0.7769326
vt 0.9105768 0.7769326
vt 0.9105768 0.7769326
vt 0.9183801 0.7769326
vt 0.9183801 0.7769326
vt 0.9105768 0.7769326
vt 0.9105768 0.7769326
vt 0.9183801 0.7769326
vn 0.3926974 0.7049047 0.590676
vn -0.07406381 0.9955012 0.0590927
vn -0.06817538 0.9954649 0.06634726
vn -0.06817538 0.9954649 0.06634726
vn -0.07406381 0.9955012 0.0590927
vn -0.4962813 0.7060195 -0.5052141
vn -0.2054704 0.7045831 0.6792234
vn -0.1171341 0.9929013 -0.02065384
vn -0.1171342 0.9929013 -0.02065371
vn -0.1171342 0.9929013 -0.02065371
vn -0.1171341 0.9929013 -0.02065384
vn 0.03922885 0.7045832 -0.7085363
vn 0.7045838 0.7045835 0.08440309
vn 0 0.9929013 0.1189411
vn 0 0.9929013 0.1189411
vn 0 0.9929013 0.1189411
vn 0 0.9929013 0.1189411
vn -0.7045837 0.7045835 0.08440309
vn 0 0 -1
vn -1 0 0
vn -1 0 0
vn 0 0 -1
vn 1 0 0
vn 1 0 0
vn 0 0 1
vn 0 0 1
vn -1 0 0
vn 0 0 1
vn 0 0 1
vn -1 0 0
vn 0 1 0
vn 0 1 0
vn 0 1 0
vn 0 1 0
vn 0.7071064 0 -0.7071071
vn -0.7071069 0 -0.7071065
vn 0.7071065 0 -0.707107
vn -0.707107 0 -0.7071065
vn -0.707107 0 -0.7071065
vn -0.7071067 0 0.7071068
vn -0.7071069 0 -0.7071065
vn -0.7071066 0 0.7071069
vn -0.7071066 0 0.7071069
vn 0.7071067 0 0.7071068
vn -0.7071067 0 0.7071068
vn 0.7071068 0 0.7071066
vn 0.7071068 0 0.7071066
vn 0.7071065 0 -0.707107
vn 0.7071067 0 0.7071068
vn 0.7071064 0 -0.7071071
vn 0 1 0
vn 0 1 0
vn 0 1 0
vn 0 1 0
vn 0 1 0
vn 0 1 0
vn 0 1 0
vn 0 1 0
vn -0.212056 0.960922 0.177936
vn -0.1294224 0.9856248 0.1085983
vn -0.1294224 0.9856248 0.1085983
vn -0.06327956 0.9965823 0.05309786
vn -0.06327955 0.9965823 0.05309786
vn -0.1663822 0.9856248 -0.02933766
vn -0.08135064 0.9965823 -0.01434431
vn -0.08135065 0.9965823 -0.01434431
vn -0.1663822 0.9856248 -0.02933766
vn -0.2726139 0.960922 -0.04806916
vn 0 0.9856248 0.1689489
vn 0 0.9965823 0.08260551
vn 0 0.9965823 0.0826055
vn 0 0.9856248 0.1689489
vn 0 0.960922 0.2768194
vn -0.7071068 0 0.7071067
vn 0.7071068 0 0.7071067
vn -0.7071068 0 0.7071068
vn -0.7071067 0 -0.7071068
vn 0.7071068 0 0.7071068
vn -0.7071068 0 -0.7071067
vn 0.7071067 0 -0.7071068
vn 0.7071068 0 -0.7071067
vn 0 0 1
vn -1 0 0
vn 0 0 1
vn -1 0 0
vn 1 0 0
vn 0 0 -1
vn 1 0 0
vn 0 0 -1
g Plant_Small_A_Red_LOD_0
f 3/3/3 2/2/2 1/1/1
f 6/6/6 5/5/5 4/4/4
f 9/9/9 8/8/8 7/7/7
f 12/12/12 11/11/11 10/10/10
f 15/15/15 14/14/14 13/13/13
f 18/18/18 17/17/17 16/16/16
f 21/21/21 20/20/20 19/19/19
f 22/22/22 19/19/19 20/20/20
f 19/19/19 22/22/22 23/23/23
f 24/24/24 23/23/23 22/22/22
f 23/23/23 24/24/24 25/25/25
f 26/26/26 25/25/25 24/24/24
f 29/29/29 28/28/28 27/27/27
f 30/30/30 27/27/27 28/28/28
f 33/33/33 32/32/32 31/31/31
f 34/34/34 31/31/31 32/32/32
f 37/37/37 36/36/36 35/35/35
f 38/38/38 35/35/35 36/36/36
f 41/41/41 40/40/40 39/39/39
f 42/42/42 39/39/39 40/40/40
f 45/45/45 44/44/44 43/43/43
f 46/46/46 43/43/43 44/44/44
f 49/49/49 48/48/48 47/47/47
f 50/50/50 47/47/47 48/48/48
f 53/53/53 52/52/52 51/51/51
f 54/54/54 51/51/51 52/52/52
f 57/57/57 56/56/56 55/55/55
f 58/58/58 55/55/55 56/56/56
f 61/61/61 60/60/60 59/59/59
f 60/60/60 61/61/61 62/62/62
f 63/63/63 62/62/62 61/61/61
f 66/66/66 65/65/65 64/64/64
f 67/67/67 64/64/64 65/65/65
f 64/64/64 67/67/67 68/68/68
f 71/71/71 70/70/70 69/69/69
f 72/72/72 69/69/69 70/70/70
f 69/69/69 72/72/72 73/73/73
f 76/76/76 75/75/75 74/74/74
f 76/76/76 74/74/74 77/77/77
f 78/78/78 74/74/74 75/75/75
f 79/79/79 77/77/77 74/74/74
f 78/78/78 75/75/75 80/80/80
f 77/77/77 79/79/79 81/81/81
f 80/80/80 81/81/81 79/79/79
f 81/81/81 80/80/80 75/75/75
f 84/84/84 83/83/83 82/82/82
f 85/85/85 82/82/82 83/83/83
f 82/82/82 86/86/86 84/84/84
f 83/83/83 87/87/87 85/85/85
f 88/88/88 84/84/84 86/86/86
f 89/89/89 85/85/85 87/87/87
f 86/86/86 89/89/89 88/88/88
f 87/87/87 88/88/88 89/89/89
