g Plant_Small_A_Yellow_LOD
v -0.03756762 0.1268389 0.06308496
v -0.1495172 0.1329733 0.1301912
v -0.04939717 0.1452424 0.04898703
v -0.04939717 0.1452424 0.04898703
v -0.1495172 0.1329733 0.1301912
v -0.06122673 0.1268389 0.0348891
v -0.09898019 0.1622513 0.01121098
v -0.1966486 0.1683858 -0.02469796
v -0.09578449 0.1806549 -0.006912947
v -0.09578449 0.1806549 -0.006912947
v -0.1966486 0.1683858 -0.02469796
v -0.09258878 0.1622513 -0.02503687
v 0.01814395 0.2023396 0.08887374
v -0.0002595782 0.2084741 0.1912939
v -0.0002595782 0.2207431 0.08887374
v -0.0002595782 0.2207431 0.08887374
v -0.0002595782 0.2084741 0.1912939
v -0.01866305 0.2023396 0.08887374
v 0.09181063 0.3299891 -0.09181046
v -0.09181026 0.3016259 -0.09181035
v 0.09181063 0.3016259 -0.09181046
v -0.09181026 0.3299891 -0.09181035
v -0.09181026 0.3299891 -0.09181035
v -0.09181024 0.3016259 0.09181038
v -0.09181026 0.3016259 -0.09181035
v -0.09181024 0.3299891 0.09181038
v -0.09181024 0.3299891 0.09181038
v 0.09181066 0.3016259 0.09181038
v -0.09181024 0.3016259 0.09181038
v 0.09181066 0.3299891 0.09181038
v 0.09181066 0.3299891 0.09181038
v 0.09181063 0.3016259 -0.09181046
v 0.09181066 0.3016259 0.09181038
v 0.09181063 0.3299891 -0.09181046
v -0.09181024 0.3299891 0.09181038
v 0.09181063 0.3299891 -0.09181046
v 0.09181066 0.3299891 0.09181038
v -0.09181026 0.3299891 -0.09181035
v 0.04466964 0.3758858 -0.04466954
v -0.04466964 0.3758858 0.04466968
v -0.04466964 0.3758858 -0.04466954
v 0.04466964 0.3758858 0.04466968
v 0 1.032456E-07 -0.1080793
v -0.1080793 0.2464594 1.509129E-17
v -0.1080793 7.546041E-08 -5.960464E-08
v 0 0.2464594 -0.1080793
v 0.1080793 7.546041E-08 -5.960464E-08
v 0.1080793 0.2464594 -5.960464E-08
v 0 4.76752E-08 0.1080792
v 0 0.2464594 0.1080792
v -0.1080793 7.546041E-08 -5.960464E-08
v 0 0.2464594 0.1080792
v 0 4.76752E-08 0.1080792
v -0.1080793 0.2464594 1.509129E-17
v -0.1080793 0.2464594 1.509129E-17
v 0.1080793 0.2464594 -5.960464E-08
v 0 0.2464594 0.1080792
v 0 0.2464594 -0.1080793
v -0.3756478 0.09015192 0.3199374
v -0.2996525 0.1306107 0.1920126
v -0.2364699 0.1306107 0.2673108
v -0.1791914 0.1437897 0.08821839
v -0.1133347 0.1437897 0.1667034
v -0.3575803 0.1660232 -0.003168941
v -0.1835698 0.1792022 -0.07440937
v -0.2013608 0.1792022 0.02648896
v -0.3405117 0.1660232 -0.09997022
v -0.4873565 0.1255645 -0.07595748
v 0.04888791 0.2061114 0.3460422
v -0.05148685 0.2192904 0.1870461
v 0.05096799 0.2192904 0.187046
v -0.04940677 0.2061114 0.3460422
v -0.0002593994 0.1656526 0.4864865
v -0.04466964 0.3758858 0.04466968
v 0.04466964 0.3299891 0.04466968
v -0.04466964 0.3299891 0.04466968
v -0.04466964 0.3299891 -0.04466954
v 0.04466964 0.3758858 0.04466968
v -0.04466964 0.3758858 -0.04466954
v 0.04466964 0.3758858 -0.04466954
v 0.04466964 0.3299891 -0.04466954
v 0 0.2474782 0.0848316
v -0.08483155 0.3016259 5.929106E-08
v 0 0.3016259 0.08483161
v -0.08483155 0.2474782 5.692419E-08
v 0.08483155 0.2474782 5.692419E-08
v 0 0.3016259 -0.08483148
v 0.08483155 0.3016259 5.929106E-08
v 0 0.2474782 -0.08483148
vt 0.5383295 0.8920572
vt 0.5591615 0.8931674
vt 0.5383295 0.8953876
vt 0.5383295 0.8953876
vt 0.5591615 0.8931674
vt 0.5383295 0.8920572
vt 0.5383295 0.8920572
vt 0.5591615 0.8931674
vt 0.5383295 0.8953876
vt 0.5383295 0.8953876
vt 0.5591615 0.8931674
vt 0.5383295 0.8920572
vt 0.5383295 0.8920572
vt 0.5591615 0.8931674
vt 0.5383295 0.8953876
vt 0.5383295 0.8953876
vt 0.5591615 0.8931674
vt 0.5383295 0.8920572
vt 0.5605747 0.9107392
vt 0.5336033 0.9354867
vt 0.5605747 0.9085722
vt 0.5357842 0.9354867
vt 0.5357842 0.9354867
vt 0.5605747 0.9085722
vt 0.5336033 0.9354867
vt 0.5605747 0.9107392
vt 0.5605747 0.9107392
vt 0.5336237 0.9354867
vt 0.5605747 0.9085722
vt 0.5357842 0.9354867
vt 0.5357842 0.9354867
vt 0.5605747 0.9085722
vt 0.5336237 0.9354867
vt 0.5605747 0.9107392
vt 0.5605747 0.9107392
vt 0.5605747 0.9107392
vt 0.5357842 0.9354867
vt 0.5357842 0.9354867
vt 0.5653504 0.9287305
vt 0.5653504 0.9287305
vt 0.5653504 0.9287305
vt 0.5653504 0.9287305
vt 0.5279163 0.8983682
vt 0.5279163 0.9252436
vt 0.5279163 0.8983682
vt 0.5279163 0.9252436
vt 0.5107707 0.8983682
vt 0.5107707 0.9252436
vt 0.5107707 0.8983682
vt 0.5107707 0.9252436
vt 0.5279163 0.8983682
vt 0.5107707 0.9252436
vt 0.5107707 0.8983682
vt 0.5279163 0.9252436
vt 0.5279163 0.9252436
vt 0.5107707 0.9252436
vt 0.5107707 0.9252436
vt 0.5279163 0.9252436
vt 0.5536443 0.8803594
vt 0.5318446 0.8853396
vt 0.5318446 0.8853396
vt 0.5060614 0.8847526
vt 0.5060614 0.8847557
vt 0.5318446 0.8853396
vt 0.5060614 0.8847526
vt 0.5060614 0.8847557
vt 0.5318446 0.8853396
vt 0.5536443 0.8803594
vt 0.5318446 0.8853396
vt 0.5060614 0.8847526
vt 0.5060614 0.8847557
vt 0.5318446 0.8853396
vt 0.5536443 0.8803594
vt 0.5653504 0.9287305
vt 0.5653504 0.922778
vt 0.5653504 0.922778
vt 0.5653504 0.922778
vt 0.5653504 0.9287305
vt 0.5653504 0.9287305
vt 0.5653504 0.9287305
vt 0.5653504 0.922778
vt 0.62205 0.8787328
vt 0.6148138 0.8787328
vt 0.6148138 0.8787328
vt 0.62205 0.8787328
vt 0.62205 0.8787328
vt 0.6148138 0.8787328
vt 0.6148138 0.8787328
vt 0.62205 0.8787328
vn 0.3926971 0.704905 0.5906759
vn -0.0740635 0.9955012 0.05909321
vn -0.06817565 0.9954649 0.06634709
vn -0.06817565 0.9954649 0.06634709
vn -0.0740635 0.9955012 0.05909321
vn -0.4962811 0.7060197 -0.5052139
vn -0.2054702 0.7045829 0.6792238
vn -0.1171341 0.9929013 -0.02065376
vn -0.1171342 0.9929013 -0.02065315
vn -0.1171342 0.9929013 -0.02065315
vn -0.1171341 0.9929013 -0.02065376
vn 0.03922869 0.704583 -0.7085365
vn 0.7045836 0.7045836 0.08440316
vn 0 0.9929013 0.1189412
vn 0 0.9929013 0.1189412
vn 0 0.9929013 0.1189412
vn 0 0.9929013 0.1189412
vn -0.7045847 0.7045825 0.08440302
vn 0.7071064 0 -0.7071071
vn -0.7071069 0 -0.7071065
vn 0.7071065 0 -0.707107
vn -0.707107 0 -0.7071065
vn -0.707107 0 -0.7071065
vn -0.7071067 0 0.7071068
vn -0.7071069 0 -0.7071065
vn -0.7071066 0 0.7071069
vn -0.7071066 0 0.7071069
vn 0.7071067 0 0.7071068
vn -0.7071067 0 0.7071068
vn 0.7071068 0 0.7071066
vn 0.7071068 0 0.7071066
vn 0.7071065 0 -0.707107
vn 0.7071067 0 0.7071068
vn 0.7071064 0 -0.7071071
vn 0 1 0
vn 0 1 0
vn 0 1 0
vn 0 1 0
vn 0 1 0
vn 0 1 0
vn 0 1 0
vn 0 1 0
vn 0 0 -1
vn -1 0 0
vn -1 0 0
vn 0 0 -1
vn 1 0 0
vn 1 0 0
vn 0 0 1
vn 0 0 1
vn -1 0 0
vn 0 0 1
vn 0 0 1
vn -1 0 0
vn 0 1 0
vn 0 1 0
vn 0 1 0
vn 0 1 0
vn -0.2120561 0.9609219 0.177936
vn -0.1294225 0.9856248 0.1085983
vn -0.1294226 0.9856248 0.1085984
vn -0.06327967 0.9965823 0.05309797
vn -0.0632797 0.9965823 0.05309796
vn -0.1663822 0.9856248 -0.02933744
vn -0.08135068 0.9965823 -0.01434412
vn -0.08135068 0.9965823 -0.01434412
vn -0.1663823 0.9856248 -0.02933745
vn -0.2726139 0.960922 -0.0480689
vn 0 0.9856248 0.168949
vn 0 0.9965823 0.08260576
vn 0 0.9965823 0.08260573
vn 0 0.9856248 0.168949
vn 0 0.960922 0.2768193
vn -0.7071068 0 0.7071067
vn 0.7071068 0 0.7071067
vn -0.7071068 0 0.7071068
vn -0.7071067 0 -0.7071068
vn 0.7071068 0 0.7071068
vn -0.7071068 0 -0.7071067
vn 0.7071067 0 -0.7071068
vn 0.7071068 0 -0.7071067
vn 0 0 1
vn -1 0 0
vn 0 0 1
vn -1 0 0
vn 1 0 0
vn 0 0 -1
vn 1 0 0
vn 0 0 -1
g Plant_Small_A_Yellow_LOD_0
f 3/3/3 2/2/2 1/1/1
f 6/6/6 5/5/5 4/4/4
f 9/9/9 8/8/8 7/7/7
f 12/12/12 11/11/11 10/10/10
f 15/15/15 14/14/14 13/13/13
f 18/18/18 17/17/17 16/16/16
f 21/21/21 20/20/20 19/19/19
f 22/22/22 19/19/19 20/20/20
f 25/25/25 24/24/24 23/23/23
f 26/26/26 23/23/23 24/24/24
f 29/29/29 28/28/28 27/27/27
f 30/30/30 27/27/27 28/28/28
f 33/33/33 32/32/32 31/31/31
f 34/34/34 31/31/31 32/32/32
f 37/37/37 36/36/36 35/35/35
f 38/38/38 35/35/35 36/36/36
f 41/41/41 40/40/40 39/39/39
f 42/42/42 39/39/39 40/40/40
f 45/45/45 44/44/44 43/43/43
f 46/46/46 43/43/43 44/44/44
f 43/43/43 46/46/46 47/47/47
f 48/48/48 47/47/47 46/46/46
f 47/47/47 48/48/48 49/49/49
f 50/50/50 49/49/49 48/48/48
f 53/53/53 52/52/52 51/51/51
f 54/54/54 51/51/51 52/52/52
f 57/57/57 56/56/56 55/55/55
f 58/58/58 55/55/55 56/56/56
f 61/61/61 60/60/60 59/59/59
f 60/60/60 61/61/61 62/62/62
f 63/63/63 62/62/62 61/61/61
f 66/66/66 65/65/65 64/64/64
f 67/67/67 64/64/64 65/65/65
f 64/64/64 67/67/67 68/68/68
f 71/71/71 70/70/70 69/69/69
f 72/72/72 69/69/69 70/70/70
f 69/69/69 72/72/72 73/73/73
f 76/76/76 75/75/75 74/74/74
f 76/76/76 74/74/74 77/77/77
f 78/78/78 74/74/74 75/75/75
f 79/79/79 77/77/77 74/74/74
f 78/78/78 75/75/75 80/80/80
f 77/77/77 79/79/79 81/81/81
f 80/80/80 81/81/81 79/79/79
f 81/81/81 80/80/80 75/75/75
f 84/84/84 83/83/83 82/82/82
f 85/85/85 82/82/82 83/83/83
f 82/82/82 86/86/86 84/84/84
f 83/83/83 87/87/87 85/85/85
f 88/88/88 84/84/84 86/86/86
f 89/89/89 85/85/85 87/87/87
f 86/86/86 89/89/89 88/88/88
f 87/87/87 88/88/88 89/89/89
