g Plant_Small_A_Pink_LOD
v -0.03756756 0.1268387 0.06308496
v -0.1495171 0.1329732 0.1301913
v -0.04939711 0.1452422 0.04898709
v -0.04939711 0.1452422 0.04898709
v -0.1495171 0.1329732 0.1301913
v -0.06122667 0.1268387 0.03488916
v -0.09898013 0.1622511 0.01121104
v -0.1966485 0.1683857 -0.0246979
v -0.09578443 0.1806547 -0.006912887
v -0.09578443 0.1806547 -0.006912887
v -0.1966485 0.1683857 -0.0246979
v -0.09258872 0.1622512 -0.02503681
v 0.01814401 0.2023394 0.08887386
v -0.0002595186 0.2084739 0.191294
v -0.0002595186 0.220743 0.08887386
v -0.0002595186 0.220743 0.08887386
v -0.0002595186 0.2084739 0.191294
v -0.01866299 0.2023394 0.08887386
v 0.09181063 0.3299891 -0.09181046
v -0.09181026 0.3016259 -0.09181035
v 0.09181063 0.3016259 -0.09181046
v -0.09181026 0.3299891 -0.09181035
v -0.09181026 0.3299891 -0.09181035
v -0.09181024 0.3016259 0.09181038
v -0.09181026 0.3016259 -0.09181035
v -0.09181024 0.3299891 0.09181038
v -0.09181024 0.3299891 0.09181038
v 0.09181066 0.3016259 0.09181038
v -0.09181024 0.3016259 0.09181038
v 0.09181066 0.3299891 0.09181038
v 0.09181066 0.3299891 0.09181038
v 0.09181063 0.3016259 -0.09181046
v 0.09181066 0.3016259 0.09181038
v 0.09181063 0.3299891 -0.09181046
v -0.09181024 0.3299891 0.09181038
v 0.09181063 0.3299891 -0.09181046
v 0.09181066 0.3299891 0.09181038
v -0.09181026 0.3299891 -0.09181035
v 0.04466964 0.3758858 -0.04466954
v -0.04466964 0.3758858 0.04466968
v -0.04466964 0.3758858 -0.04466954
v 0.04466964 0.3758858 0.04466968
v 5.960464E-08 -4.474735E-08 -0.1080792
v -0.1080792 0.2464593 1.788139E-07
v -0.1080792 -1.023349E-07 -6.266204E-24
v 5.960464E-08 0.2464593 -0.1080791
v 0.1080793 -1.023349E-07 -6.266204E-24
v 0.1080793 0.2464593 1.192093E-07
v 5.960464E-08 -1.152189E-07 0.1080793
v 5.960464E-08 0.2464593 0.1080794
v -0.1080792 -1.023349E-07 -6.266204E-24
v 5.960464E-08 0.2464593 0.1080794
v 5.960464E-08 -1.152189E-07 0.1080793
v -0.1080792 0.2464593 1.788139E-07
v 5.960464E-08 0.2464593 -0.1080791
v 5.960464E-08 0.2464593 0.1080794
v -0.1080792 0.2464593 1.788139E-07
v 0.1080793 0.2464593 1.192093E-07
v -0.3756477 0.09015176 0.3199376
v -0.2996525 0.1306105 0.1920127
v -0.2364699 0.1306105 0.2673107
v -0.1791914 0.1437895 0.08821845
v -0.1133347 0.1437895 0.1667034
v -0.3575803 0.166023 -0.003168881
v -0.1835697 0.179202 -0.07440937
v -0.2013608 0.179202 0.02648902
v -0.3405116 0.166023 -0.09997022
v -0.4873565 0.1255643 -0.07595742
v 0.04888797 0.2061112 0.3460423
v -0.05148679 0.2192903 0.1870462
v 0.05096805 0.2192903 0.1870462
v -0.04940671 0.2061112 0.3460423
v -0.0002593398 0.1656525 0.4864866
v -0.04466964 0.3758858 0.04466968
v 0.04466964 0.3299891 0.04466968
v -0.04466964 0.3299891 0.04466968
v -0.04466964 0.3299891 -0.04466954
v 0.04466964 0.3758858 0.04466968
v -0.04466964 0.3758858 -0.04466954
v 0.04466964 0.3758858 -0.04466954
v 0.04466964 0.3299891 -0.04466954
v 0 0.2474782 0.0848316
v -0.08483155 0.3016259 5.929106E-08
v 0 0.3016259 0.08483161
v -0.08483155 0.2474782 5.692419E-08
v 0.08483155 0.2474782 5.692419E-08
v 0 0.3016259 -0.08483148
v 0.08483155 0.3016259 5.929106E-08
v 0 0.2474782 -0.08483148
vt 0.5383295 0.8920572
vt 0.5591615 0.8931674
vt 0.5383295 0.8953876
vt 0.5383295 0.8953876
vt 0.5591615 0.8931674
vt 0.5383295 0.8920572
vt 0.5383295 0.8920572
vt 0.5591615 0.8931674
vt 0.5383295 0.8953876
vt 0.5383295 0.8953876
vt 0.5591615 0.8931674
vt 0.5383295 0.8920572
vt 0.5383295 0.8920572
vt 0.5591615 0.8931674
vt 0.5383295 0.8953876
vt 0.5383295 0.8953876
vt 0.5591615 0.8931674
vt 0.5383295 0.8920572
vt 0.8577539 0.7816384
vt 0.8307825 0.8063859
vt 0.8577539 0.7794714
vt 0.8329635 0.8063859
vt 0.8329635 0.8063859
vt 0.8577539 0.7794714
vt 0.8307825 0.8063859
vt 0.8577539 0.7816384
vt 0.8577539 0.7816384
vt 0.830803 0.8063859
vt 0.8577539 0.7794714
vt 0.8329635 0.8063859
vt 0.8329635 0.8063859
vt 0.8577539 0.7794714
vt 0.830803 0.8063859
vt 0.8577539 0.7816384
vt 0.8577539 0.7816384
vt 0.8577539 0.7816384
vt 0.8329635 0.8063859
vt 0.8329635 0.8063859
vt 0.8267004 0.7776119
vt 0.8267004 0.7776119
vt 0.8267004 0.7776119
vt 0.8267004 0.7776119
vt 0.5279163 0.8983682
vt 0.5279163 0.9252436
vt 0.5279163 0.8983682
vt 0.5279163 0.9252436
vt 0.5107707 0.8983682
vt 0.5107707 0.9252436
vt 0.5107707 0.8983682
vt 0.5107707 0.9252436
vt 0.5279163 0.8983682
vt 0.5107707 0.9252436
vt 0.5107707 0.8983682
vt 0.5279163 0.9252436
vt 0.5279163 0.9252436
vt 0.5107707 0.9252436
vt 0.5279163 0.9252436
vt 0.5107707 0.9252436
vt 0.5536443 0.8803594
vt 0.5318446 0.8853396
vt 0.5318446 0.8853396
vt 0.5060614 0.8847526
vt 0.5060614 0.8847557
vt 0.5318446 0.8853396
vt 0.5060614 0.8847526
vt 0.5060614 0.8847557
vt 0.5318446 0.8853396
vt 0.5536443 0.8803594
vt 0.5318446 0.8853396
vt 0.5060614 0.8847526
vt 0.5060614 0.8847557
vt 0.5318446 0.8853396
vt 0.5536443 0.8803594
vt 0.8267004 0.7776119
vt 0.8267004 0.7689357
vt 0.8267004 0.7689357
vt 0.8267004 0.7689357
vt 0.8267004 0.7776119
vt 0.8267004 0.7776119
vt 0.8267004 0.7776119
vt 0.8267004 0.7689357
vt 0.8518304 0.7769326
vt 0.844027 0.7769326
vt 0.844027 0.7769326
vt 0.8518304 0.7769326
vt 0.8518304 0.7769326
vt 0.844027 0.7769326
vt 0.844027 0.7769326
vt 0.8518304 0.7769326
vn 0.3926978 0.7049039 0.5906766
vn -0.07406308 0.9955012 0.05909375
vn -0.06817494 0.9954649 0.06634799
vn -0.06817494 0.9954649 0.06634799
vn -0.07406308 0.9955012 0.05909375
vn -0.4962811 0.7060197 -0.5052139
vn -0.2054701 0.7045829 0.6792238
vn -0.1171341 0.9929013 -0.02065289
vn -0.1171341 0.9929013 -0.02065269
vn -0.1171341 0.9929013 -0.02065269
vn -0.1171341 0.9929013 -0.02065289
vn 0.03922874 0.7045836 -0.7085359
vn 0.7045836 0.7045836 0.08440319
vn 0 0.9929013 0.1189412
vn 0 0.9929013 0.1189412
vn 0 0.9929013 0.1189412
vn 0 0.9929013 0.1189412
vn -0.7045848 0.7045825 0.08440305
vn 0.7071064 0 -0.7071071
vn -0.7071069 0 -0.7071065
vn 0.7071065 0 -0.707107
vn -0.707107 0 -0.7071065
vn -0.707107 0 -0.7071065
vn -0.7071067 0 0.7071068
vn -0.7071069 0 -0.7071065
vn -0.7071066 0 0.7071069
vn -0.7071066 0 0.7071069
vn 0.7071067 0 0.7071068
vn -0.7071067 0 0.7071068
vn 0.7071068 0 0.7071066
vn 0.7071068 0 0.7071066
vn 0.7071065 0 -0.707107
vn 0.7071067 0 0.7071068
vn 0.7071064 0 -0.7071071
vn 0 1 0
vn 0 1 0
vn 0 1 0
vn 0 1 0
vn 0 1 0
vn 0 1 0
vn 0 1 0
vn 0 1 0
vn 0 0 -1
vn -1 0 0
vn -1 0 0
vn 0 0 -1
vn 1 0 0
vn 1 0 0
vn 0 0 1
vn 0 0 1
vn -1 0 0
vn 0 0 1
vn 0 0 1
vn -1 0 0
vn 0 1 0
vn 0 1 0
vn 0 1 0
vn 0 1 0
vn -0.2120558 0.960922 0.1779362
vn -0.1294224 0.9856248 0.1085985
vn -0.1294224 0.9856248 0.1085985
vn -0.06327972 0.9965823 0.05309807
vn -0.06327978 0.9965823 0.05309805
vn -0.1663822 0.9856248 -0.02933755
vn -0.0813508 0.9965823 -0.01434428
vn -0.08135082 0.9965823 -0.01434433
vn -0.1663822 0.9856248 -0.02933752
vn -0.2726138 0.960922 -0.048069
vn 0 0.9856248 0.168949
vn 0 0.9965823 0.08260575
vn 0 0.9965823 0.08260575
vn 0 0.9856248 0.168949
vn 0 0.960922 0.2768193
vn -0.7071068 0 0.7071067
vn 0.7071068 0 0.7071067
vn -0.7071068 0 0.7071068
vn -0.7071067 0 -0.7071068
vn 0.7071068 0 0.7071068
vn -0.7071068 0 -0.7071067
vn 0.7071067 0 -0.7071068
vn 0.7071068 0 -0.7071067
vn 0 0 1
vn -1 0 0
vn 0 0 1
vn -1 0 0
vn 1 0 0
vn 0 0 -1
vn 1 0 0
vn 0 0 -1
g Plant_Small_A_Pink_LOD_0
f 3/3/3 2/2/2 1/1/1
f 6/6/6 5/5/5 4/4/4
f 9/9/9 8/8/8 7/7/7
f 12/12/12 11/11/11 10/10/10
f 15/15/15 14/14/14 13/13/13
f 18/18/18 17/17/17 16/16/16
f 21/21/21 20/20/20 19/19/19
f 22/22/22 19/19/19 20/20/20
f 25/25/25 24/24/24 23/23/23
f 26/26/26 23/23/23 24/24/24
f 29/29/29 28/28/28 27/27/27
f 30/30/30 27/27/27 28/28/28
f 33/33/33 32/32/32 31/31/31
f 34/34/34 31/31/31 32/32/32
f 37/37/37 36/36/36 35/35/35
f 38/38/38 35/35/35 36/36/36
f 41/41/41 40/40/40 39/39/39
f 42/42/42 39/39/39 40/40/40
f 45/45/45 44/44/44 43/43/43
f 46/46/46 43/43/43 44/44/44
f 43/43/43 46/46/46 47/47/47
f 48/48/48 47/47/47 46/46/46
f 47/47/47 48/48/48 49/49/49
f 50/50/50 49/49/49 48/48/48
f 53/53/53 52/52/52 51/51/51
f 54/54/54 51/51/51 52/52/52
f 57/57/57 56/56/56 55/55/55
f 58/58/58 55/55/55 56/56/56
f 61/61/61 60/60/60 59/59/59
f 60/60/60 61/61/61 62/62/62
f 63/63/63 62/62/62 61/61/61
f 66/66/66 65/65/65 64/64/64
f 67/67/67 64/64/64 65/65/65
f 64/64/64 67/67/67 68/68/68
f 71/71/71 70/70/70 69/69/69
f 72/72/72 69/69/69 70/70/70
f 69/69/69 72/72/72 73/73/73
f 76/76/76 75/75/75 74/74/74
f 76/76/76 74/74/74 77/77/77
f 78/78/78 74/74/74 75/75/75
f 79/79/79 77/77/77 74/74/74
f 78/78/78 75/75/75 80/80/80
f 77/77/77 79/79/79 81/81/81
f 80/80/80 81/81/81 79/79/79
f 81/81/81 80/80/80 75/75/75
f 84/84/84 83/83/83 82/82/82
f 85/85/85 82/82/82 83/83/83
f 82/82/82 86/86/86 84/84/84
f 83/83/83 87/87/87 85/85/85
f 88/88/88 84/84/84 86/86/86
f 89/89/89 85/85/85 87/87/87
f 86/86/86 89/89/89 88/88/88
f 87/87/87 88/88/88 89/89/89
