g polySurface7
v 1.278977E-16 0.0048 0.0216
v -0.00464 0.00571 0.0216
v 1.278977E-16 0.0168 0.0216
v 1.278977E-16 0.0168 0.0216
v -0.00464 0.00571 0.0216
v -0.00853 0.00831 0.0216
v -0.00853 0.00831 0.0216
v -0.01113 0.01221 0.0216
v 1.278977E-16 0.0168 0.0216
v 1.278977E-16 0.0168 0.0216
v -0.01113 0.01221 0.0216
v -0.01205 0.0168 0.0216
v -0.01205 0.0168 0.0216
v -0.01113 0.02139 0.0216
v 1.278977E-16 0.0168 0.0216
v -0.01113 0.02139 0.0216
v -0.00853 0.02528 0.0216
v 1.278977E-16 0.0168 0.0216
v -0.00853 0.02528 0.0216
v -0.00464 0.02789 0.0216
v 1.278977E-16 0.0168 0.0216
v 1.278977E-16 0.0168 0.0216
v -0.00464 0.02789 0.0216
v 1.278977E-16 0.0288 0.0216
v 1.278977E-16 0.0048 0.0216
v 1.278977E-16 0.0168 0.0216
v 0.00464 0.00571 0.0216
v 1.278977E-16 0.0168 0.0216
v 0.00853 0.00831 0.0216
v 0.00464 0.00571 0.0216
v 0.00853 0.00831 0.0216
v 1.278977E-16 0.0168 0.0216
v 0.01113 0.01221 0.0216
v 1.278977E-16 0.0168 0.0216
v 0.01205 0.0168 0.0216
v 0.01113 0.01221 0.0216
v 0.01205 0.0168 0.0216
v 1.278977E-16 0.0168 0.0216
v 0.01113 0.02139 0.0216
v 0.01113 0.02139 0.0216
v 1.278977E-16 0.0168 0.0216
v 0.00853 0.02528 0.0216
v 0.00853 0.02528 0.0216
v 1.278977E-16 0.0168 0.0216
v 0.00464 0.02789 0.0216
v 1.278977E-16 0.0168 0.0216
v 1.278977E-16 0.0288 0.0216
v 0.00464 0.02789 0.0216
v 1.278977E-16 0.0048 0.01195
v -0.00464 0.00571 0.01195
v -0.00464 0.00571 0.0216
v 1.278977E-16 0.0048 0.0216
v -0.00464 0.00571 0.01195
v -0.00853 0.00832 0.01195
v -0.00853 0.00831 0.0216
v -0.00464 0.00571 0.0216
v -0.00853 0.00832 0.01195
v -0.01113 0.01221 0.01195
v -0.01113 0.01221 0.0216
v -0.00853 0.00831 0.0216
v -0.01113 0.01221 0.01195
v -0.01205 0.0168 0.01195
v -0.01205 0.0168 0.0216
v -0.01113 0.01221 0.0216
v -0.01205 0.0168 0.01195
v -0.01113 0.02139 0.01195
v -0.01113 0.02139 0.0216
v -0.01205 0.0168 0.0216
v -0.01113 0.02139 0.01195
v -0.00853 0.02529 0.01195
v -0.00853 0.02528 0.0216
v -0.01113 0.02139 0.0216
v -0.00853 0.02529 0.01195
v -0.00464 0.02789 0.01195
v -0.00464 0.02789 0.0216
v -0.00853 0.02528 0.0216
v -0.00464 0.02789 0.01195
v 1.278977E-16 0.0288 0.01195
v 1.278977E-16 0.0288 0.0216
v -0.00464 0.02789 0.0216
v 1.278977E-16 0.0048 0.01195
v 1.278977E-16 0.0048 0.0216
v 0.00464 0.00571 0.0216
v 0.00464 0.00571 0.01195
v 0.00464 0.00571 0.01195
v 0.00464 0.00571 0.0216
v 0.00853 0.00831 0.0216
v 0.00853 0.00832 0.01195
v 0.00853 0.00832 0.01195
v 0.00853 0.00831 0.0216
v 0.01113 0.01221 0.0216
v 0.01113 0.01221 0.01195
v 0.01113 0.01221 0.01195
v 0.01113 0.01221 0.0216
v 0.01205 0.0168 0.0216
v 0.01205 0.0168 0.01195
v 0.01205 0.0168 0.01195
v 0.01205 0.0168 0.0216
v 0.01113 0.02139 0.0216
v 0.01113 0.02139 0.01195
v 0.01113 0.02139 0.01195
v 0.01113 0.02139 0.0216
v 0.00853 0.02528 0.0216
v 0.00853 0.02529 0.01195
v 0.00853 0.02529 0.01195
v 0.00853 0.02528 0.0216
v 0.00464 0.02789 0.0216
v 0.00464 0.02789 0.01195
v 0.00464 0.02789 0.01195
v 0.00464 0.02789 0.0216
v 1.278977E-16 0.0288 0.0216
v 1.278977E-16 0.0288 0.01195
vt 0.3094 0.5317
vt 0.1018 0.5317
vt 0.1985 0.0172
vt 0.1985 0.0172
vt 0.1018 0.5317
vt 0.3094 0.5317
vt 0.3094 0.5317
vt 0.1018 0.5317
vt 0.1985 0.0172
vt 0.1985 0.0172
vt 0.1018 0.5317
vt 0.3094 0.5317
vt 0.3094 0.5317
vt 0.1018 0.5317
vt 0.1985 0.0172
vt 0.1018 0.5317
vt 0.3094 0.5317
vt 0.1985 0.0172
vt 0.3094 0.5317
vt 0.1018 0.5317
vt 0.1985 0.0172
vt 0.1985 0.0172
vt 0.1018 0.5317
vt 0.3094 0.5317
vt 0.3094 0.5317
vt 0.1985 0.0172
vt 0.1018 0.5317
vt 0.1985 0.0172
vt 0.3094 0.5317
vt 0.1018 0.5317
vt 0.3094 0.5317
vt 0.1985 0.0172
vt 0.1018 0.5317
vt 0.1985 0.0172
vt 0.3094 0.5317
vt 0.1018 0.5317
vt 0.3094 0.5317
vt 0.1985 0.0172
vt 0.1018 0.5317
vt 0.1018 0.5317
vt 0.1985 0.0172
vt 0.3094 0.5317
vt 0.3094 0.5317
vt 0.1985 0.0172
vt 0.1018 0.5317
vt 0.1985 0.0172
vt 0.3094 0.5317
vt 0.1018 0.5317
vt 0.3094 0.9681
vt 0.1018 0.9681
vt 0.1018 0.5317
vt 0.3094 0.5317
vt 0.1018 0.9681
vt 0.3094 0.9681
vt 0.3094 0.5317
vt 0.1018 0.5317
vt 0.3094 0.9681
vt 0.1018 0.9681
vt 0.1018 0.5317
vt 0.3094 0.5317
vt 0.1018 0.9681
vt 0.3094 0.9681
vt 0.3094 0.5317
vt 0.1018 0.5317
vt 0.3094 0.9681
vt 0.1018 0.9681
vt 0.1018 0.5317
vt 0.3094 0.5317
vt 0.1018 0.9681
vt 0.3094 0.9681
vt 0.3094 0.5317
vt 0.1018 0.5317
vt 0.3094 0.9681
vt 0.1018 0.9681
vt 0.1018 0.5317
vt 0.3094 0.5317
vt 0.1018 0.9681
vt 0.3094 0.9681
vt 0.3094 0.5317
vt 0.1018 0.5317
vt 0.3094 0.9681
vt 0.3094 0.5317
vt 0.1018 0.5317
vt 0.1018 0.9681
vt 0.1018 0.9681
vt 0.1018 0.5317
vt 0.3094 0.5317
vt 0.3094 0.9681
vt 0.3094 0.9681
vt 0.3094 0.5317
vt 0.1018 0.5317
vt 0.1018 0.9681
vt 0.1018 0.9681
vt 0.1018 0.5317
vt 0.3094 0.5317
vt 0.3094 0.9681
vt 0.3094 0.9681
vt 0.3094 0.5317
vt 0.1018 0.5317
vt 0.1018 0.9681
vt 0.1018 0.9681
vt 0.1018 0.5317
vt 0.3094 0.5317
vt 0.3094 0.9681
vt 0.3094 0.9681
vt 0.3094 0.5317
vt 0.1018 0.5317
vt 0.1018 0.9681
vt 0.1018 0.9681
vt 0.1018 0.5317
vt 0.3094 0.5317
vt 0.3094 0.9681
vn -1.254475E-07 0 1
vn 2.0924E-07 0 1
vn 0 0 1
vn 0 0 1
vn 2.0924E-07 0 1
vn -1.687116E-07 0 1
vn -1.687116E-07 0 1
vn -1.681207E-07 0 1
vn 0 0 1
vn 0 0 1
vn -1.681207E-07 0 1
vn 0 0 1
vn 0 0 1
vn 1.682169E-07 0 1
vn 0 0 1
vn 1.682169E-07 0 1
vn 0 0 1
vn 0 0 1
vn 0 0 1
vn 0 0 1
vn 0 0 1
vn 0 0 1
vn 0 0 1
vn 0 0 1
vn -1.254475E-07 0 1
vn 0 0 1
vn -3.347839E-07 0 1
vn 0 0 1
vn 0 0 1
vn -3.347839E-07 0 1
vn 0 0 1
vn 0 0 1
vn 0 0 1
vn 0 0 1
vn 0 0 1
vn 0 0 1
vn 0 0 1
vn 0 0 1
vn -1.682169E-07 0 1
vn -1.682169E-07 0 1
vn 0 0 1
vn -1.688469E-07 0 1
vn -1.688469E-07 0 1
vn 0 0 1
vn 0 0 1
vn 0 0 1
vn 0 0 1
vn 0 0 1
vn 0 -1 0
vn -0.3809952 -0.9245771 -0.0002184748
vn -0.3809952 -0.9245771 -0.0002184748
vn 0 -1 0
vn -0.3809952 -0.9245771 -0.0002184748
vn -0.7077152 -0.7064977 -0.0003660828
vn -0.7075866 -0.7066265 -0.0003661496
vn -0.3809952 -0.9245771 -0.0002184748
vn -0.7077152 -0.7064977 -0.0003660828
vn -0.9236717 -0.3831849 -0.0001466642
vn -0.9236717 -0.3831849 -0.0001466642
vn -0.7075866 -0.7066265 -0.0003661496
vn -0.9236717 -0.3831849 -0.0001466642
vn -1 0 0
vn -1 0 0
vn -0.9236717 -0.3831849 -0.0001466642
vn -1 0 0
vn -0.9236717 0.3831848 0.0001466641
vn -0.9236717 0.3831848 0.0001466641
vn -1 0 0
vn -0.9236717 0.3831848 0.0001466641
vn -0.7075867 0.7066265 0.0003662021
vn -0.7077152 0.7064977 0.0003661353
vn -0.9236717 0.3831848 0.0001466641
vn -0.7075867 0.7066265 0.0003662021
vn -0.3809951 0.9245771 0.0002185271
vn -0.3809951 0.9245771 0.0002185271
vn -0.7077152 0.7064977 0.0003661353
vn -0.3809951 0.9245771 0.0002185271
vn 0 1 0
vn 0 1 0
vn -0.3809951 0.9245771 0.0002185271
vn 0 -1 0
vn 0 -1 0
vn 0.3809951 -0.9245771 -0.0002184748
vn 0.3809951 -0.9245771 -0.0002184748
vn 0.3809951 -0.9245771 -0.0002184748
vn 0.3809951 -0.9245771 -0.0002184748
vn 0.7075866 -0.7066265 -0.0003661496
vn 0.7077152 -0.7064977 -0.0003660828
vn 0.7077152 -0.7064977 -0.0003660828
vn 0.7075866 -0.7066265 -0.0003661496
vn 0.9236717 -0.3831849 -0.0001466642
vn 0.9236717 -0.3831849 -0.0001466642
vn 0.9236717 -0.3831849 -0.0001466642
vn 0.9236717 -0.3831849 -0.0001466642
vn 1 0 0
vn 1 0 0
vn 1 0 0
vn 1 0 0
vn 0.9236717 0.3831848 0.0001466641
vn 0.9236717 0.3831848 0.0001466641
vn 0.9236717 0.3831848 0.0001466641
vn 0.9236717 0.3831848 0.0001466641
vn 0.7077152 0.7064977 0.0003661353
vn 0.7075867 0.7066265 0.0003662021
vn 0.7075867 0.7066265 0.0003662021
vn 0.7077152 0.7064977 0.0003661353
vn 0.3809951 0.9245771 0.0002185271
vn 0.3809951 0.9245771 0.0002185271
vn 0.3809951 0.9245771 0.0002185271
vn 0.3809951 0.9245771 0.0002185271
vn 0 1 0
vn 0 1 0
g polySurface7_0
f 3/3/3 2/2/2 1/1/1
f 6/6/6 5/5/5 4/4/4
f 9/9/9 8/8/8 7/7/7
f 12/12/12 11/11/11 10/10/10
f 15/15/15 14/14/14 13/13/13
f 18/18/18 17/17/17 16/16/16
f 21/21/21 20/20/20 19/19/19
f 24/24/24 23/23/23 22/22/22
f 27/27/27 26/26/26 25/25/25
f 30/30/30 29/29/29 28/28/28
f 33/33/33 32/32/32 31/31/31
f 36/36/36 35/35/35 34/34/34
f 39/39/39 38/38/38 37/37/37
f 42/42/42 41/41/41 40/40/40
f 45/45/45 44/44/44 43/43/43
f 48/48/48 47/47/47 46/46/46
f 51/51/51 50/50/50 49/49/49
f 52/52/52 51/51/51 49/49/49
f 55/55/55 54/54/54 53/53/53
f 56/56/56 55/55/55 53/53/53
f 59/59/59 58/58/58 57/57/57
f 60/60/60 59/59/59 57/57/57
f 63/63/63 62/62/62 61/61/61
f 64/64/64 63/63/63 61/61/61
f 67/67/67 66/66/66 65/65/65
f 68/68/68 67/67/67 65/65/65
f 71/71/71 70/70/70 69/69/69
f 72/72/72 71/71/71 69/69/69
f 75/75/75 74/74/74 73/73/73
f 76/76/76 75/75/75 73/73/73
f 79/79/79 78/78/78 77/77/77
f 80/80/80 79/79/79 77/77/77
f 83/83/83 82/82/82 81/81/81
f 84/84/84 83/83/83 81/81/81
f 87/87/87 86/86/86 85/85/85
f 88/88/88 87/87/87 85/85/85
f 91/91/91 90/90/90 89/89/89
f 92/92/92 91/91/91 89/89/89
f 95/95/95 94/94/94 93/93/93
f 96/96/96 95/95/95 93/93/93
f 99/99/99 98/98/98 97/97/97
f 100/100/100 99/99/99 97/97/97
f 103/103/103 102/102/102 101/101/101
f 104/104/104 103/103/103 101/101/101
f 107/107/107 106/106/106 105/105/105
f 108/108/108 107/107/107 105/105/105
f 111/111/111 110/110/110 109/109/109
f 112/112/112 111/111/111 109/109/109
