g Ramp
v -1.200001 3.199998 -0.5507277
v -1.200001 1.515848 -0.5507277
v -1.200002 2.324875 -1.520326
v -1.200003 1.515848 -2.546956
v -0.400003 -1.192093E-07 -5
v -0.400003 0.1016481 -4.99975
v -1.200003 0.1016481 -4.99975
v -1.200003 -1.192093E-07 -5.000001
v -0.400003 0.1016481 -4.99975
v -1.200002 0.7757005 -3.744837
v -1.200003 0.1016481 -4.99975
v -0.4000024 0.7757005 -3.744838
v -1.200003 1.515848 -2.546956
v -0.4000027 1.515848 -2.546957
v -1.200002 2.324875 -1.520326
v -0.4000016 2.324875 -1.520327
v -1.200001 3.199998 -0.5507277
v -0.400001 3.198205 -0.5507282
v -1.200003 1.07226E-07 -2.546956
v -1.200003 -1.192093E-07 -5.000001
v -1.200003 0.1016481 -4.99975
v -1.200002 0.7757005 -3.744837
v -1.200003 0.5052828 -2.546956
v -1.200003 1.010565 -2.546956
v -1.200003 1.515848 -2.546956
v -1.200001 3.39139 -0.2066051
v 1.199997 3.39139 -2.269738E-06
v -1.200001 3.39139 -1.544959E-06
v 1.199997 3.39139 -0.2066058
v -1.200001 3.326154 -0.3859004
v 1.199997 3.326154 -0.3859011
v 0.3999971 3.198205 -0.5507287
v 1.199997 3.199998 -0.5507283
v -0.400001 3.198205 -0.5507282
v -1.200001 3.199998 -0.5507277
v 0.3999971 3.198205 -0.5507287
v -0.400001 3.198205 -0.5507282
v -0.4000016 2.324875 -1.520327
v 0.3999977 2.324875 -1.520327
v -0.4000027 1.515848 -2.546957
v 0.3999982 1.515848 -2.546957
v -0.4000024 0.7757005 -3.744838
v 0.3999976 0.7757005 -3.744838
v -0.400003 0.1016481 -4.99975
v 0.3999978 0.1016481 -4.999751
v -1.200001 1.010565 -0.5507275
v -1.200001 1.515848 -0.5507277
v -1.200001 1.010565 -2.260214E-06
v -1.200001 3.199998 -0.5507277
v -1.200001 3.199998 -2.021796E-06
v -1.200001 3.199998 -2.021796E-06
v -1.200001 3.199998 -0.5507277
v -1.200001 3.326154 -0.3859004
v -1.200001 3.39139 -0.2066051
v -1.200001 3.39139 -1.544959E-06
v -1.200001 3.974295E-08 -2.260214E-06
v -1.200001 7.527462E-08 -0.5507276
v -1.200001 0.5052828 -0.5507276
v -1.200001 1.010565 -2.260214E-06
v -1.200001 1.010565 -0.5507275
v 0.3999978 0.1016481 -4.999751
v -0.400003 0.1016481 -4.99975
v -0.400003 -1.192093E-07 -5
v 0.3999978 -1.192093E-07 -5.000001
v 1.199997 3.199998 -2.746575E-06
v 1.199997 3.326154 -0.3859011
v 1.199997 3.199998 -0.5507283
v 1.199997 3.39139 -0.2066058
v 1.199997 3.39139 -2.269738E-06
v -1.200003 1.010565 -2.546956
v -1.200001 1.010565 -0.5507275
v -1.200001 0.5052828 -0.5507276
v -1.200003 0.5052828 -2.546956
v -1.200001 1.010565 -0.5507275
v -1.200003 1.010565 -2.546956
v -1.200003 1.515848 -2.546956
v -1.200001 1.515848 -0.5507277
v -1.200003 0.5052828 -2.546956
v -1.200001 0.5052828 -0.5507276
v -1.200001 7.527462E-08 -0.5507276
v -1.200003 1.07226E-07 -2.546956
v 1.199997 3.199998 -0.5507283
v 1.199998 2.324875 -1.520327
v 1.199997 1.515848 -0.5507283
v 1.199998 1.515848 -2.546957
v 0.3999978 -1.192093E-07 -5.000001
v 1.199998 -1.192093E-07 -5
v 1.199998 0.1016481 -4.99975
v 0.3999978 0.1016481 -4.999751
v 0.3999978 0.1016481 -4.999751
v 1.199998 0.1016481 -4.99975
v 1.199997 0.7757005 -3.744838
v 0.3999976 0.7757005 -3.744838
v 1.199998 1.515848 -2.546957
v 0.3999982 1.515848 -2.546957
v 1.199998 2.324875 -1.520327
v 0.3999977 2.324875 -1.520327
v 1.199997 3.199998 -0.5507283
v 0.3999971 3.198205 -0.5507287
v 1.199998 1.07226E-07 -2.546957
v 1.199998 0.1016481 -4.99975
v 1.199998 -1.192093E-07 -5
v 1.199997 0.7757005 -3.744838
v 1.199998 0.5052828 -2.546957
v 1.199998 1.010565 -2.546957
v 1.199998 1.515848 -2.546957
v 1.199997 1.010565 -0.550728
v 1.199997 1.010565 -2.508156E-06
v 1.199997 1.515848 -0.5507283
v 1.199997 3.199998 -0.5507283
v 1.199997 3.199998 -2.746575E-06
v 1.199997 -1.986172E-08 -2.508156E-06
v 1.199997 0.5052828 -0.550728
v 1.199997 7.527461E-08 -0.550728
v 1.199997 1.010565 -2.508156E-06
v 1.199997 1.010565 -0.550728
v 1.199998 1.010565 -2.546957
v 1.199998 0.5052828 -2.546957
v 1.199997 0.5052828 -0.550728
v 1.199997 1.010565 -0.550728
v 1.199997 1.010565 -0.550728
v 1.199997 1.515848 -0.5507283
v 1.199998 1.515848 -2.546957
v 1.199998 1.010565 -2.546957
v 1.199998 0.5052828 -2.546957
v 1.199998 1.07226E-07 -2.546957
v 1.199997 7.527461E-08 -0.550728
v 1.199997 0.5052828 -0.550728
v -1.06841 0.02875829 -4.803711
v 1.391444 0.02875823 -5.163933
v 1.068405 0.02875829 -4.80371
v -1.39145 0.02875832 -5.163934
v -1.535194 0.02875833 -5.020189
v 1.068405 0.02875829 -4.80371
v 1.535188 0.0287584 0.1914442
v 1.068404 0.02875839 -0.1962923
v 1.535189 0.02875823 -5.020189
v 1.391444 0.02875823 -5.163933
v 1.068404 0.02875839 -0.1962923
v -1.391447 0.02875846 0.335189
v -1.068408 0.02875844 -0.1962921
v 1.391443 0.02875841 0.3351887
v 1.535188 0.0287584 0.1914442
v -1.068408 0.02875844 -0.1962921
v -1.535194 0.02875833 -5.020189
v -1.06841 0.02875829 -4.803711
v -1.535192 0.02875846 0.1914446
v -1.391447 0.02875846 0.335189
vt 0.1055822 0.7914066
vt 0.1941195 0.7914066
vt 0.1515881 0.8423794
vt 0.1941195 0.8963501
vt 0.004327708 0.7553416
vt 0.004327708 0.7606854
vt 0.04535672 0.7606854
vt 0.04535672 0.7553416
vt 0.004327708 0.7606854
vt 0.04535672 0.8266574
vt 0.04535672 0.7606854
vt 0.004327708 0.8266573
vt 0.04535684 0.8887523
vt 0.004327708 0.8887523
vt 0.04535672 0.9436019
vt 0.004327708 0.9436019
vt 0.04535662 0.9945748
vt 0.004327603 0.9945748
vt 0.1384905 0.9951266
vt 0.1384905 0.8661677
vt 0.1438343 0.8661809
vt 0.1792698 0.9321529
vt 0.1650537 0.9951266
vt 0.1916168 0.9951266
vt 0.21818 0.9951266
vt 0.2157844 0.9060333
vt 0.2266456 0.9458739
vt 0.2266456 0.9060333
vt 0.2157843 0.9458739
vt 0.2063586 0.9060333
vt 0.2063586 0.9458739
vt 0.1976934 0.9325937
vt 0.1976936 0.9458739
vt 0.1976936 0.9193135
vt 0.1976936 0.9060333
vt 0.05213713 0.9942415
vt 0.09419375 0.9942415
vt 0.09419386 0.943269
vt 0.05213713 0.943269
vt 0.09419386 0.8887523
vt 0.05213702 0.8887523
vt 0.09419386 0.8263243
vt 0.05213713 0.8263243
vt 0.09419386 0.7603524
vt 0.05213702 0.7603524
vt 0.2228566 0.7818699
vt 0.1923649 0.7818699
vt 0.2228566 0.7529177
vt 0.1038276 0.7818699
vt 0.1038276 0.7529177
vt 0.2239781 0.9829608
vt 0.2239781 0.9540087
vt 0.2306102 0.9626739
vt 0.2340398 0.9720997
vt 0.2340398 0.9829609
vt 0.1006798 0.8325087
vt 0.1296319 0.8325087
vt 0.1296319 0.8653072
vt 0.1006798 0.8817064
vt 0.1296319 0.8817064
vt 0.05213702 0.7603524
vt 0.09419386 0.7603524
vt 0.09419386 0.7550086
vt 0.05213702 0.7550085
vt 0.2239781 0.9829609
vt 0.2306102 0.9626739
vt 0.2239781 0.9540087
vt 0.2340398 0.9720997
vt 0.2340398 0.9829609
vt 0.2212177 0.8768411
vt 0.2212177 0.789852
vt 0.1991991 0.789852
vt 0.1991991 0.8768411
vt 0.1045877 0.9029367
vt 0.1045877 0.9899259
vt 0.1266063 0.9899259
vt 0.1266063 0.9029367
vt 0.247733 0.876749
vt 0.247733 0.7897598
vt 0.2257144 0.7897598
vt 0.2257144 0.876749
vt 0.1055822 0.7914066
vt 0.1515881 0.8423794
vt 0.1941195 0.7914066
vt 0.1941195 0.8963501
vt 0.04638445 0.7553416
vt 0.004327718 0.7553416
vt 0.004327718 0.7606854
vt 0.04638445 0.7606854
vt 0.04638445 0.7606854
vt 0.004327718 0.7606854
vt 0.004327718 0.8266574
vt 0.04638445 0.8266573
vt 0.004327603 0.8887523
vt 0.04638445 0.8887523
vt 0.004327718 0.9436019
vt 0.04638445 0.9436019
vt 0.004327826 0.9945748
vt 0.04638455 0.9945748
vt 0.1384905 0.9951266
vt 0.1438343 0.8661809
vt 0.1384905 0.8661677
vt 0.1792698 0.9321529
vt 0.1650537 0.9951266
vt 0.1916168 0.9951266
vt 0.21818 0.9951266
vt 0.2228566 0.7818699
vt 0.2228566 0.7529177
vt 0.1923649 0.7818699
vt 0.1038276 0.7818699
vt 0.1038276 0.7529177
vt 0.1006798 0.8325087
vt 0.1296319 0.8653072
vt 0.1296319 0.8325087
vt 0.1006798 0.8817064
vt 0.1296319 0.8817064
vt 0.2212177 0.8768411
vt 0.1991991 0.8768411
vt 0.1991991 0.789852
vt 0.2212177 0.789852
vt 0.1045877 0.9029367
vt 0.1266063 0.9029367
vt 0.1266063 0.9899259
vt 0.1045877 0.9899259
vt 0.247733 0.876749
vt 0.2257144 0.876749
vt 0.2257144 0.7897598
vt 0.247733 0.7897598
vt 0.8479722 0.0655055
vt 0.04681644 8.940697E-08
vt 0.1520279 0.06550559
vt 0.9531835 -5.960464E-08
vt 1 0.0261395
vt 0.1520279 0.06550559
vt 1.102686E-06 0.9738606
vt 0.1520289 0.9033518
vt -5.960464E-08 0.02613962
vt 0.04681644 8.940697E-08
vt 0.1520289 0.9033518
vt 0.9531834 1
vt 0.847972 0.9033517
vt 0.04681754 1
vt 1.102686E-06 0.9738606
vt 0.847972 0.9033517
vt 1 0.0261395
vt 0.8479722 0.0655055
vt 0.9999999 0.9738604
vt 0.9531834 1
vn -1 0 0
vn -1 0 0
vn -1 0 0
vn -1 0 0
vn 0 0.002463968 -0.999997
vn 0 0.002463968 -0.999997
vn 0 0.002465141 -0.999997
vn 0 0.002465141 -0.999997
vn 0 0.88096 -0.4731908
vn 0 0.8662316 -0.4996427
vn 0 0.88096 -0.4731908
vn 0 0.8662316 -0.4996427
vn 0 0.8193987 -0.5732241
vn 0 0.8193987 -0.573224
vn 0.0004161057 0.7644793 -0.6446481
vn 0.0002078558 0.7645615 -0.6445507
vn 0.0008319395 0.7426888 -0.6696362
vn 0.0004159186 0.7428597 -0.669447
vn -1 0 0
vn -1 0 0
vn -1 0 0
vn -1 0 0
vn -1 0 0
vn -1 0 0
vn -1 0 0
vn 0 0.9848172 -0.1735946
vn 0 1 0
vn 0 1 0
vn 0 0.9848172 -0.1735947
vn 0.000753861 0.8767809 -0.4808895
vn -0.0007540393 0.8767809 -0.4808896
vn -0.0001440107 0.7902718 -0.6127566
vn -0.001779408 0.7940973 -0.6077881
vn 0.000143583 0.7902718 -0.6127565
vn 0.001779318 0.7940975 -0.6077878
vn -0.0004164928 0.7428598 -0.6694469
vn 0.0004159186 0.7428597 -0.669447
vn 0.0002078558 0.7645615 -0.6445507
vn -0.0002083785 0.7645615 -0.6445507
vn 0 0.8193987 -0.573224
vn 0 0.8193986 -0.5732241
vn 0 0.8662316 -0.4996427
vn 0 0.8662316 -0.4996427
vn 0 0.88096 -0.4731908
vn 0 0.8809599 -0.4731908
vn -1 0 0
vn -1 0 0
vn -1 0 0
vn -1 0 0
vn -1 0 0
vn -1 0 0
vn -1 0 0
vn -1 0 0
vn -1 0 0
vn -1 0 0
vn -1 0 0
vn -1 0 0
vn -1 0 0
vn -1 0 0
vn -1 0 0
vn 0 0.002461623 -0.999997
vn 0 0.002463968 -0.999997
vn 0 0.002463968 -0.999997
vn 0 0.002461623 -0.999997
vn 1 0 0
vn 1 0 0
vn 1 0 0
vn 1 0 0
vn 1 0 0
vn -1 0 0
vn -1 0 0
vn -1 0 0
vn -1 0 0
vn -1 0 0
vn -1 0 0
vn -1 0 0
vn -1 0 0
vn -1 0 0
vn -1 0 0
vn -1 0 0
vn -1 0 0
vn 1 0 0
vn 1 0 0
vn 1 0 0
vn 1 0 0
vn 0 0.002461623 -0.999997
vn 0 0.00246045 -0.999997
vn 0 0.00246045 -0.999997
vn 0 0.002461623 -0.999997
vn 0 0.8809599 -0.4731908
vn 0 0.8809599 -0.4731908
vn 0 0.8662316 -0.4996428
vn 0 0.8662316 -0.4996427
vn 0 0.8193986 -0.5732242
vn 0 0.8193986 -0.5732241
vn -0.0004163659 0.7644793 -0.6446481
vn -0.0002083785 0.7645615 -0.6445507
vn -0.0008320891 0.7426889 -0.6696361
vn -0.0004164928 0.7428598 -0.6694469
vn 1 0 0
vn 1 0 0
vn 1 0 0
vn 1 0 0
vn 1 0 0
vn 1 0 0
vn 1 0 0
vn 1 0 0
vn 1 0 0
vn 1 0 0
vn 1 0 0
vn 1 0 0
vn 1 0 0
vn 1 0 0
vn 1 0 0
vn 1 0 0
vn 1 0 0
vn 1 0 0
vn 1 0 0
vn 1 0 0
vn 1 0 0
vn 1 0 0
vn 1 0 0
vn 1 0 0
vn 1 0 0
vn 1 0 0
vn 1 0 0
vn 1 0 0
vn 1 0 0
vn 0 1 0
vn 0 1 0
vn 0 1 0
vn 0 1 0
vn 0 1 0
vn 0 1 0
vn 0 1 0
vn 0 1 0
vn 0 1 0
vn 0 1 0
vn 0 1 0
vn 0 1 0
vn 0 1 0
vn 0 1 0
vn 0 1 0
vn 0 1 0
vn 0 1 0
vn 0 1 0
vn 0 1 0
vn 0 1 0
g Ramp_0
f 3/3/3 2/2/2 1/1/1
f 4/4/4 2/2/2 3/3/3
f 7/7/7 6/6/6 5/5/5
f 8/8/8 7/7/7 5/5/5
f 11/11/11 10/10/10 9/9/9
f 10/10/10 12/12/12 9/9/9
f 10/10/10 13/13/13 12/12/12
f 13/13/13 14/14/14 12/12/12
f 13/13/13 15/15/15 14/14/14
f 15/15/15 16/16/16 14/14/14
f 15/15/15 17/17/17 16/16/16
f 17/17/17 18/18/18 16/16/16
f 21/21/21 20/20/20 19/19/19
f 22/22/22 21/21/21 19/19/19
f 19/19/19 23/23/23 22/22/22
f 23/23/23 24/24/24 22/22/22
f 22/22/22 24/24/24 25/25/25
f 28/28/28 27/27/27 26/26/26
f 27/27/27 29/29/29 26/26/26
f 26/26/26 29/29/29 30/30/30
f 29/29/29 31/31/31 30/30/30
f 31/31/31 32/32/32 30/30/30
f 32/32/32 31/31/31 33/33/33
f 32/32/32 34/34/34 30/30/30
f 30/30/30 34/34/34 35/35/35
f 38/38/38 37/37/37 36/36/36
f 39/39/39 38/38/38 36/36/36
f 40/40/40 38/38/38 39/39/39
f 41/41/41 40/40/40 39/39/39
f 42/42/42 40/40/40 41/41/41
f 43/43/43 42/42/42 41/41/41
f 44/44/44 42/42/42 43/43/43
f 45/45/45 44/44/44 43/43/43
f 48/48/48 47/47/47 46/46/46
f 49/49/49 47/47/47 48/48/48
f 50/50/50 49/49/49 48/48/48
f 53/53/53 52/52/52 51/51/51
f 54/54/54 53/53/53 51/51/51
f 55/55/55 54/54/54 51/51/51
f 58/58/58 57/57/57 56/56/56
f 59/59/59 58/58/58 56/56/56
f 60/60/60 58/58/58 59/59/59
f 63/63/63 62/62/62 61/61/61
f 64/64/64 63/63/63 61/61/61
f 67/67/67 66/66/66 65/65/65
f 66/66/66 68/68/68 65/65/65
f 68/68/68 69/69/69 65/65/65
f 72/72/72 71/71/71 70/70/70
f 73/73/73 72/72/72 70/70/70
f 76/76/76 75/75/75 74/74/74
f 77/77/77 76/76/76 74/74/74
f 80/80/80 79/79/79 78/78/78
f 81/81/81 80/80/80 78/78/78
f 84/84/84 83/83/83 82/82/82
f 84/84/84 85/85/85 83/83/83
f 88/88/88 87/87/87 86/86/86
f 89/89/89 88/88/88 86/86/86
f 92/92/92 91/91/91 90/90/90
f 93/93/93 92/92/92 90/90/90
f 94/94/94 92/92/92 93/93/93
f 95/95/95 94/94/94 93/93/93
f 96/96/96 94/94/94 95/95/95
f 97/97/97 96/96/96 95/95/95
f 98/98/98 96/96/96 97/97/97
f 99/99/99 98/98/98 97/97/97
f 102/102/102 101/101/101 100/100/100
f 101/101/101 103/103/103 100/100/100
f 100/100/100 103/103/103 104/104/104
f 104/104/104 103/103/103 105/105/105
f 105/105/105 103/103/103 106/106/106
f 109/109/109 108/108/108 107/107/107
f 109/109/109 110/110/110 108/108/108
f 110/110/110 111/111/111 108/108/108
f 114/114/114 113/113/113 112/112/112
f 113/113/113 115/115/115 112/112/112
f 113/113/113 116/116/116 115/115/115
f 119/119/119 118/118/118 117/117/117
f 120/120/120 119/119/119 117/117/117
f 123/123/123 122/122/122 121/121/121
f 124/124/124 123/123/123 121/121/121
f 127/127/127 126/126/126 125/125/125
f 128/128/128 127/127/127 125/125/125
g Ramp_1
f 131/131/131 130/130/130 129/129/129
f 130/130/130 132/132/132 129/129/129
f 132/132/132 133/133/133 129/129/129
f 136/136/136 135/135/135 134/134/134
f 135/135/135 137/137/137 134/134/134
f 137/137/137 138/138/138 134/134/134
f 141/141/141 140/140/140 139/139/139
f 140/140/140 142/142/142 139/139/139
f 142/142/142 143/143/143 139/139/139
f 146/146/146 145/145/145 144/144/144
f 145/145/145 147/147/147 144/144/144
f 147/147/147 148/148/148 144/144/144
