g Ramp_LOD
v -1.200001 3.199998 -0.5507277
v -1.200001 1.515848 -0.5507277
v -1.200003 1.515848 -2.546956
v -1.200001 3.199998 -2.021796E-06
v -1.200001 3.199998 -0.5507277
v -1.200001 3.39139 -1.544959E-06
v -1.200003 1.515848 -2.546956
v -1.200003 -2.205996E-07 -2.546956
v -1.200003 -1.192093E-07 -5.000001
v 1.199997 3.199998 -2.746575E-06
v 1.199997 3.39139 -2.269738E-06
v 1.199997 3.199998 -0.5507283
v 1.199997 3.199998 -0.5507283
v 1.199998 1.515848 -2.546957
v 1.199997 1.515848 -0.5507283
v 1.199998 7.742364E-08 -2.546957
v 1.199998 1.515848 -2.546957
v 1.199998 -1.192093E-07 -5
v 1.199998 7.742364E-08 -2.546957
v 1.199997 1.515848 -0.5507283
v 1.199998 1.515848 -2.546957
v -0.400003 -1.192093E-07 -5
v -1.200003 1.515848 -2.546956
v -1.200003 -1.192093E-07 -5.000001
v -0.4000027 1.515848 -2.546957
v -1.200001 3.199998 -0.5507277
v -0.400001 3.198205 -0.5507282
v -0.400001 3.198205 -0.5507282
v 0.3999982 1.515848 -2.546957
v 0.3999971 3.198205 -0.5507287
v -0.4000027 1.515848 -2.546957
v 0.3999978 -1.192093E-07 -5.000001
v -0.400003 -1.192093E-07 -5
v -1.200001 3.974295E-08 -2.260214E-06
v -1.200003 -2.205996E-07 -2.546956
v -1.200001 1.515848 -0.5507277
v -1.200003 1.515848 -2.546956
v -1.200001 3.39139 -1.544959E-06
v -1.200001 3.199998 -0.5507277
v -0.400001 3.198205 -0.5507282
v 1.199997 3.39139 -2.269738E-06
v 0.3999971 3.198205 -0.5507287
v 1.199997 3.199998 -0.5507283
v 1.199998 1.515848 -2.546957
v 0.3999978 -1.192093E-07 -5.000001
v 1.199998 -1.192093E-07 -5
v 0.3999982 1.515848 -2.546957
v 1.199997 3.199998 -0.5507283
v 0.3999971 3.198205 -0.5507287
v 1.199997 1.515848 -0.5507283
v 1.199997 3.199998 -2.746575E-06
v 1.199997 3.199998 -0.5507283
v 1.199997 -1.986172E-08 -2.508156E-06
v 1.199998 7.742364E-08 -2.546957
v -1.200001 3.199998 -2.021796E-06
v -1.200001 1.515848 -0.5507277
v -1.200001 3.199998 -0.5507277
v -1.200001 3.974295E-08 -2.260214E-06
v -0.8493682 0.02875829 -4.700694
v 1.535188 0.02875822 -5.163934
v 0.8493636 0.02875829 -4.700693
v -1.535193 0.02875832 -5.163934
v 0.8493636 0.02875829 -4.700693
v 1.535187 0.02875841 0.3351884
v 0.8493627 0.02875838 -0.29931
v 1.535188 0.02875822 -5.163934
v 0.8493627 0.02875838 -0.29931
v -1.53519 0.02875846 0.3351889
v -0.8493665 0.02875843 -0.29931
v 1.535187 0.02875841 0.3351884
v -0.8493665 0.02875843 -0.29931
v -1.535193 0.02875832 -5.163934
v -0.8493682 0.02875829 -4.700694
v -1.53519 0.02875846 0.3351889
vt 0.1055822 0.7914066
vt 0.1941195 0.7914066
vt 0.1941195 0.8963501
vt 0.2239781 0.9829608
vt 0.2239781 0.9540087
vt 0.2340398 0.9829609
vt 0.21818 0.9951266
vt 0.1517721 0.9951266
vt 0.1384905 0.8661677
vt 0.2239781 0.9829609
vt 0.2340398 0.9829609
vt 0.2239781 0.9540087
vt 0.1055822 0.7914066
vt 0.1941195 0.8963501
vt 0.1941195 0.7914066
vt 0.1517721 0.9951266
vt 0.21818 0.9951266
vt 0.1384905 0.8661677
vt 0.1987419 0.7750264
vt 0.1959812 0.7606412
vt 0.2165307 0.7750264
vt 0.004327708 0.7553416
vt 0.04535684 0.8887523
vt 0.04535672 0.7553416
vt 0.004327708 0.8887523
vt 0.04535662 0.9945748
vt 0.004327603 0.9945748
vt 0.09419375 0.9942415
vt 0.05213702 0.8887523
vt 0.05213713 0.9942415
vt 0.09419386 0.8887523
vt 0.05213702 0.7550085
vt 0.09419386 0.7550086
vt 0.2061704 0.7562559
vt 0.1987419 0.7750264
vt 0.2165307 0.7618503
vt 0.2165307 0.7750264
vt 0.2266456 0.9060333
vt 0.1976936 0.9060333
vt 0.1976936 0.9193135
vt 0.2266456 0.9458739
vt 0.1976934 0.9325937
vt 0.1976936 0.9458739
vt 0.004327603 0.8887523
vt 0.04638445 0.7553416
vt 0.004327718 0.7553416
vt 0.04638445 0.8887523
vt 0.004327826 0.9945748
vt 0.04638455 0.9945748
vt 0.1959812 0.7606412
vt 0.1038276 0.7529177
vt 0.1038276 0.7818699
vt 0.2061704 0.7562559
vt 0.1987419 0.7750264
vt 0.1038276 0.7529177
vt 0.1923649 0.7818699
vt 0.1038276 0.7818699
vt 0.2061704 0.7562559
vt -1.173357 0.00559897
vt -1.997921 -0.04683668
vt -1.869301 0.005599059
vt -1.044737 -0.04683682
vt -1.869301 0.005599059
vt -1.99792 0.9270238
vt -1.8693 0.8434452
vt -1.997921 -0.04683668
vt -1.8693 0.8434452
vt -1.044738 0.9270236
vt -1.173357 0.8434451
vt -1.99792 0.9270238
vt -1.173357 0.8434451
vt -1.044737 -0.04683682
vt -1.173357 0.00559897
vt -1.044738 0.9270236
vn -1 0 0
vn -1 0 0
vn -1 0 0
vn -1 0 0
vn -1 0 0
vn -1 0 0
vn -1 0 0
vn -1 0 0
vn -1 0 0
vn 1 0 0
vn 1 0 0
vn 1 0 0
vn 1 0 0
vn 1 0 0
vn 1 0 0
vn 1 0 0
vn 1 0 0
vn 1 0 0
vn 1 0 0
vn 1 0 0
vn 1 0 0
vn 0 0.8506845 -0.5256767
vn 0 0.8096986 -0.586846
vn 0 0.8506845 -0.5256767
vn 8.117825E-05 0.8097902 -0.5867195
vn 0.001388786 0.7645966 -0.6445076
vn 0.0008568997 0.7646611 -0.6444321
vn 0.0008568997 0.7646611 -0.6444321
vn -8.144945E-05 0.8097901 -0.5867196
vn -0.0008572952 0.764661 -0.6444321
vn 8.117825E-05 0.8097902 -0.5867195
vn 0 0.8506844 -0.5256768
vn 0 0.8506845 -0.5256767
vn -1 0 0
vn -1 0 0
vn -1 0 0
vn -1 0 0
vn 0.001267374 0.9442009 -0.3293674
vn 0.002116742 0.9445825 -0.3282675
vn 0.0004241769 0.9438203 -0.3304587
vn -0.0012675 0.9442009 -0.3293674
vn -0.0004244352 0.9438204 -0.3304586
vn -0.002116791 0.9445825 -0.3282675
vn 0 0.8096986 -0.586846
vn 0 0.8506844 -0.5256768
vn 0 0.8506843 -0.5256769
vn -8.144945E-05 0.8097901 -0.5867196
vn -0.001388974 0.7645965 -0.6445078
vn -0.0008572952 0.764661 -0.6444321
vn 1 0 0
vn 1 0 0
vn 1 0 0
vn 1 0 0
vn 1 0 0
vn -1 0 0
vn -1 0 0
vn -1 0 0
vn -1 0 0
vn 0 1 0
vn 0 1 0
vn 0 1 0
vn 0 1 0
vn 0 1 0
vn 0 1 0
vn 0 1 0
vn 0 1 0
vn 0 1 0
vn 0 1 0
vn 0 1 0
vn 0 1 0
vn 0 1 0
vn 0 1 0
vn 0 1 0
vn 0 1 0
g Ramp_LOD_0
f 3/3/3 2/2/2 1/1/1
f 6/6/6 5/5/5 4/4/4
f 9/9/9 8/8/8 7/7/7
f 12/12/12 11/11/11 10/10/10
f 15/15/15 14/14/14 13/13/13
f 18/18/18 17/17/17 16/16/16
f 21/21/21 20/20/20 19/19/19
f 24/24/24 23/23/23 22/22/22
f 25/25/25 22/22/22 23/23/23
f 23/23/23 26/26/26 25/25/25
f 27/27/27 25/25/25 26/26/26
f 30/30/30 29/29/29 28/28/28
f 31/31/31 28/28/28 29/29/29
f 29/29/29 32/32/32 31/31/31
f 33/33/33 31/31/31 32/32/32
f 36/36/36 35/35/35 34/34/34
f 37/37/37 35/35/35 36/36/36
f 40/40/40 39/39/39 38/38/38
f 38/38/38 41/41/41 40/40/40
f 42/42/42 40/40/40 41/41/41
f 43/43/43 42/42/42 41/41/41
f 46/46/46 45/45/45 44/44/44
f 47/47/47 44/44/44 45/45/45
f 44/44/44 47/47/47 48/48/48
f 49/49/49 48/48/48 47/47/47
f 52/52/52 51/51/51 50/50/50
f 53/53/53 50/50/50 51/51/51
f 50/50/50 53/53/53 54/54/54
f 57/57/57 56/56/56 55/55/55
f 58/58/58 55/55/55 56/56/56
g Ramp_LOD_1
f 61/61/61 60/60/60 59/59/59
f 62/62/62 59/59/59 60/60/60
f 65/65/65 64/64/64 63/63/63
f 66/66/66 63/63/63 64/64/64
f 69/69/69 68/68/68 67/67/67
f 70/70/70 67/67/67 68/68/68
f 73/73/73 72/72/72 71/71/71
f 74/74/74 71/71/71 72/72/72
