g Road_Cobble
v -3.75 -3.665715E-06 22.5
v -1.25 -4.073017E-06 25
v -3.75 -4.073017E-06 25
v -1.25 -3.665715E-06 22.5
v 1.25 -4.073017E-06 25
v -3.75 -3.258413E-06 20
v 1.25 -3.665715E-06 22.5
v 3.75 -4.073017E-06 25
v 3.75 -3.665715E-06 22.5
v -1.25 -3.258413E-06 20
v -3.75 -2.851112E-06 17.5
v 1.25 -3.258413E-06 20
v 3.75 -3.258413E-06 20
v -1.25 -2.851112E-06 17.5
v -3.75 -2.44381E-06 15
v -1.25 -2.44381E-06 15
v 1.25 -2.851112E-06 17.5
v 3.75 -2.851112E-06 17.5
v 1.25 -2.44381E-06 15
v 3.75 -2.44381E-06 15
v -3.75 -2.036508E-06 12.5
v -1.25 -2.44381E-06 15
v -3.75 -2.44381E-06 15
v -1.25 -2.036508E-06 12.5
v 1.25 -2.44381E-06 15
v -3.75 -1.629207E-06 10
v 1.25 -2.036508E-06 12.5
v 3.75 -2.44381E-06 15
v 3.75 -2.036508E-06 12.5
v -1.25 -1.629207E-06 10
v -3.75 -1.221905E-06 7.5
v 1.25 -1.629207E-06 10
v 3.75 -1.629207E-06 10
v -1.25 -1.221905E-06 7.5
v -3.75 -8.146034E-07 5
v -1.25 -8.146034E-07 5
v 1.25 -1.221905E-06 7.5
v 3.75 -1.221905E-06 7.5
v 1.25 -8.146034E-07 5
v 3.75 -8.146034E-07 5
v -3.75 -4.073017E-07 2.5
v -1.25 -8.146034E-07 5
v -3.75 -8.146034E-07 5
v -1.25 -4.073017E-07 2.5
v 1.25 -8.146034E-07 5
v -3.75 0 0
v 1.25 -4.073017E-07 2.5
v 3.75 -8.146034E-07 5
v 3.75 -4.073017E-07 2.5
v -1.25 0 0
v -3.75 4.073017E-07 -2.5
v 1.25 0 0
v 3.75 0 0
v -1.25 4.073017E-07 -2.5
v -3.75 8.146034E-07 -5
v -1.25 8.146034E-07 -5
v 1.25 4.073017E-07 -2.5
v 3.75 4.073017E-07 -2.5
v 1.25 8.146034E-07 -5
v 3.75 8.146034E-07 -5
v 3.75 3.665715E-06 -22.5
v 1.25 4.073017E-06 -25
v 3.75 4.073017E-06 -25
v 1.25 3.665715E-06 -22.5
v -1.25 4.073017E-06 -25
v 3.75 3.258413E-06 -20
v -1.25 3.665715E-06 -22.5
v -3.75 4.073017E-06 -25
v -3.75 3.665715E-06 -22.5
v 1.25 3.258413E-06 -20
v 3.75 2.851112E-06 -17.5
v -1.25 3.258413E-06 -20
v -3.75 3.258413E-06 -20
v 1.25 2.851112E-06 -17.5
v 3.75 2.44381E-06 -15
v 1.25 2.44381E-06 -15
v -1.25 2.851112E-06 -17.5
v -3.75 2.851112E-06 -17.5
v -1.25 2.44381E-06 -15
v -3.75 2.44381E-06 -15
v 3.75 2.036508E-06 -12.5
v 1.25 2.44381E-06 -15
v 3.75 2.44381E-06 -15
v 1.25 2.036508E-06 -12.5
v -1.25 2.44381E-06 -15
v 3.75 1.629207E-06 -10
v -1.25 2.036508E-06 -12.5
v -3.75 2.44381E-06 -15
v -3.75 2.036508E-06 -12.5
v 1.25 1.629207E-06 -10
v 3.75 1.221905E-06 -7.5
v -1.25 1.629207E-06 -10
v -3.75 1.629207E-06 -10
v 1.25 1.221905E-06 -7.5
v 3.75 8.146034E-07 -5
v 1.25 8.146034E-07 -5
v -1.25 1.221905E-06 -7.5
v -3.75 1.221905E-06 -7.5
v -1.25 8.146034E-07 -5
v -3.75 8.146034E-07 -5
vt -1.529694E-05 0.2501068
vt 0.3333695 6.824813E-05
vt -1.529694E-05 6.824813E-05
vt 0.3333696 0.2501068
vt 0.6667543 6.824813E-05
vt -1.529694E-05 0.5001453
vt 0.6667544 0.2501068
vt 1.000139 6.824813E-05
vt 1.000139 0.2501068
vt 0.3333696 0.5001453
vt -1.529694E-05 0.7501842
vt 0.6667544 0.5001453
vt 1.000139 0.5001453
vt 0.3333696 0.7501842
vt -1.529694E-05 1.000223
vt 0.3333696 1.000223
vt 0.6667544 0.7501842
vt 1.000139 0.7501842
vt 0.6667544 1.000223
vt 1.000139 1.000223
vt -1.529694E-05 0.2501068
vt 0.3333696 6.824813E-05
vt -1.529694E-05 6.824813E-05
vt 0.3333696 0.2501068
vt 0.6667544 6.824813E-05
vt -1.529694E-05 0.5001453
vt 0.6667544 0.2501068
vt 1.000139 6.824813E-05
vt 1.000139 0.2501068
vt 0.3333696 0.5001453
vt -1.529694E-05 0.7501842
vt 0.6667544 0.5001453
vt 1.000139 0.5001453
vt 0.3333696 0.7501842
vt -1.529694E-05 1.000223
vt 0.3333696 1.000223
vt 0.6667544 0.7501842
vt 1.000139 0.7501842
vt 0.6667544 1.000223
vt 1.000139 1.000223
vt -1.529694E-05 0.2501068
vt 0.3333696 6.824813E-05
vt -1.529694E-05 6.824813E-05
vt 0.3333695 0.2501068
vt 0.6667544 6.824813E-05
vt -1.529694E-05 0.5001453
vt 0.6667543 0.2501068
vt 1.000139 6.824813E-05
vt 1.000139 0.2501068
vt 0.3333695 0.5001453
vt -1.529694E-05 0.7501842
vt 0.6667543 0.5001453
vt 1.000139 0.5001453
vt 0.3333696 0.7501842
vt -1.529694E-05 1.000223
vt 0.3333695 1.000223
vt 0.6667544 0.7501842
vt 1.000139 0.7501842
vt 0.6667543 1.000223
vt 1.000139 1.000223
vt 1.000139 0.7501842
vt 0.6667544 1.000223
vt 1.000139 1.000223
vt 0.6667543 0.7501842
vt 0.3333696 1.000223
vt 1.000139 0.5001453
vt 0.3333695 0.7501842
vt -1.529694E-05 1.000223
vt -1.529694E-05 0.7501842
vt 0.6667543 0.5001453
vt 1.000139 0.2501068
vt 0.3333695 0.5001453
vt -1.529694E-05 0.5001453
vt 0.6667543 0.2501068
vt 1.000139 6.824813E-05
vt 0.6667543 6.824813E-05
vt 0.3333695 0.2501068
vt -1.529694E-05 0.2501068
vt 0.3333695 6.824813E-05
vt -1.529694E-05 6.824813E-05
vt 1.000139 0.7501842
vt 0.6667543 1.000223
vt 1.000139 1.000223
vt 0.6667543 0.7501842
vt 0.3333695 1.000223
vt 1.000139 0.5001453
vt 0.3333695 0.7501842
vt -1.529694E-05 1.000223
vt -1.529694E-05 0.7501842
vt 0.6667543 0.5001453
vt 1.000139 0.2501068
vt 0.3333695 0.5001453
vt -1.529694E-05 0.5001453
vt 0.6667543 0.2501068
vt 1.000139 6.824813E-05
vt 0.6667543 6.824813E-05
vt 0.3333695 0.2501068
vt -1.529694E-05 0.2501068
vt 0.3333695 6.824813E-05
vt -1.529694E-05 6.824813E-05
vn 0 1 0
vn 0 1 0
vn 0 1 0
vn 0 1 0
vn 0 1 0
vn 0 1 0
vn 0 1 0
vn 0 1 0
vn 0 1 0
vn 0 1 0
vn 0 1 0
vn 0 1 0
vn 0 1 0
vn 0 1 0
vn 0 1 0
vn 0 1 0
vn 0 1 0
vn 0 1 0
vn 0 1 0
vn 0 1 0
vn 0 1 0
vn 0 1 0
vn 0 1 0
vn 0 1 0
vn 0 1 0
vn 0 1 0
vn 0 1 0
vn 0 1 0
vn 0 1 0
vn 0 1 0
vn 0 1 0
vn 0 1 0
vn 0 1 0
vn 0 1 0
vn 0 1 0
vn 0 1 0
vn 0 1 0
vn 0 1 0
vn 0 1 0
vn 0 1 0
vn 0 1 0
vn 0 1 0
vn 0 1 0
vn 0 1 0
vn 0 1 0
vn 0 1 0
vn 0 1 0
vn 0 1 0
vn 0 1 0
vn 0 1 0
vn 0 1 0
vn 0 1 0
vn 0 1 0
vn 0 1 0
vn 0 1 0
vn 0 1 0
vn 0 1 0
vn 0 1 0
vn 0 1 0
vn 0 1 0
vn 0 1 0
vn 0 1 0
vn 0 1 0
vn 0 1 0
vn 0 1 0
vn 0 1 0
vn 0 1 0
vn 0 1 0
vn 0 1 0
vn 0 1 0
vn 0 1 0
vn 0 1 0
vn 0 1 0
vn 0 1 0
vn 0 1 0
vn 0 1 0
vn 0 1 0
vn 0 1 0
vn 0 1 0
vn 0 1 0
vn 0 1 0
vn 0 1 0
vn 0 1 0
vn 0 1 0
vn 0 1 0
vn 0 1 0
vn 0 1 0
vn 0 1 0
vn 0 1 0
vn 0 1 0
vn 0 1 0
vn 0 1 0
vn 0 1 0
vn 0 1 0
vn 0 1 0
vn 0 1 0
vn 0 1 0
vn 0 1 0
vn 0 1 0
vn 0 1 0
g Road_Cobble_0
f 3/3/3 2/2/2 1/1/1
f 4/4/4 1/1/1 2/2/2
f 2/2/2 5/5/5 4/4/4
f 1/1/1 4/4/4 6/6/6
f 7/7/7 4/4/4 5/5/5
f 5/5/5 8/8/8 7/7/7
f 9/9/9 7/7/7 8/8/8
f 10/10/10 6/6/6 4/4/4
f 4/4/4 7/7/7 10/10/10
f 6/6/6 10/10/10 11/11/11
f 7/7/7 9/9/9 12/12/12
f 12/12/12 10/10/10 7/7/7
f 13/13/13 12/12/12 9/9/9
f 14/14/14 11/11/11 10/10/10
f 10/10/10 12/12/12 14/14/14
f 11/11/11 14/14/14 15/15/15
f 16/16/16 15/15/15 14/14/14
f 12/12/12 13/13/13 17/17/17
f 17/17/17 14/14/14 12/12/12
f 14/14/14 17/17/17 16/16/16
f 18/18/18 17/17/17 13/13/13
f 19/19/19 16/16/16 17/17/17
f 17/17/17 18/18/18 19/19/19
f 20/20/20 19/19/19 18/18/18
f 23/23/23 22/22/22 21/21/21
f 24/24/24 21/21/21 22/22/22
f 22/22/22 25/25/25 24/24/24
f 21/21/21 24/24/24 26/26/26
f 27/27/27 24/24/24 25/25/25
f 25/25/25 28/28/28 27/27/27
f 29/29/29 27/27/27 28/28/28
f 30/30/30 26/26/26 24/24/24
f 24/24/24 27/27/27 30/30/30
f 26/26/26 30/30/30 31/31/31
f 27/27/27 29/29/29 32/32/32
f 32/32/32 30/30/30 27/27/27
f 33/33/33 32/32/32 29/29/29
f 34/34/34 31/31/31 30/30/30
f 30/30/30 32/32/32 34/34/34
f 31/31/31 34/34/34 35/35/35
f 36/36/36 35/35/35 34/34/34
f 32/32/32 33/33/33 37/37/37
f 37/37/37 34/34/34 32/32/32
f 34/34/34 37/37/37 36/36/36
f 38/38/38 37/37/37 33/33/33
f 39/39/39 36/36/36 37/37/37
f 37/37/37 38/38/38 39/39/39
f 40/40/40 39/39/39 38/38/38
f 43/43/43 42/42/42 41/41/41
f 44/44/44 41/41/41 42/42/42
f 42/42/42 45/45/45 44/44/44
f 41/41/41 44/44/44 46/46/46
f 47/47/47 44/44/44 45/45/45
f 45/45/45 48/48/48 47/47/47
f 49/49/49 47/47/47 48/48/48
f 50/50/50 46/46/46 44/44/44
f 44/44/44 47/47/47 50/50/50
f 46/46/46 50/50/50 51/51/51
f 47/47/47 49/49/49 52/52/52
f 52/52/52 50/50/50 47/47/47
f 53/53/53 52/52/52 49/49/49
f 54/54/54 51/51/51 50/50/50
f 50/50/50 52/52/52 54/54/54
f 51/51/51 54/54/54 55/55/55
f 56/56/56 55/55/55 54/54/54
f 52/52/52 53/53/53 57/57/57
f 57/57/57 54/54/54 52/52/52
f 54/54/54 57/57/57 56/56/56
f 58/58/58 57/57/57 53/53/53
f 59/59/59 56/56/56 57/57/57
f 57/57/57 58/58/58 59/59/59
f 60/60/60 59/59/59 58/58/58
f 63/63/63 62/62/62 61/61/61
f 64/64/64 61/61/61 62/62/62
f 62/62/62 65/65/65 64/64/64
f 61/61/61 64/64/64 66/66/66
f 67/67/67 64/64/64 65/65/65
f 65/65/65 68/68/68 67/67/67
f 69/69/69 67/67/67 68/68/68
f 70/70/70 66/66/66 64/64/64
f 64/64/64 67/67/67 70/70/70
f 66/66/66 70/70/70 71/71/71
f 67/67/67 69/69/69 72/72/72
f 72/72/72 70/70/70 67/67/67
f 73/73/73 72/72/72 69/69/69
f 74/74/74 71/71/71 70/70/70
f 70/70/70 72/72/72 74/74/74
f 71/71/71 74/74/74 75/75/75
f 76/76/76 75/75/75 74/74/74
f 72/72/72 73/73/73 77/77/77
f 77/77/77 74/74/74 72/72/72
f 74/74/74 77/77/77 76/76/76
f 78/78/78 77/77/77 73/73/73
f 79/79/79 76/76/76 77/77/77
f 77/77/77 78/78/78 79/79/79
f 80/80/80 79/79/79 78/78/78
f 83/83/83 82/82/82 81/81/81
f 84/84/84 81/81/81 82/82/82
f 82/82/82 85/85/85 84/84/84
f 81/81/81 84/84/84 86/86/86
f 87/87/87 84/84/84 85/85/85
f 85/85/85 88/88/88 87/87/87
f 89/89/89 87/87/87 88/88/88
f 90/90/90 86/86/86 84/84/84
f 84/84/84 87/87/87 90/90/90
f 86/86/86 90/90/90 91/91/91
f 87/87/87 89/89/89 92/92/92
f 92/92/92 90/90/90 87/87/87
f 93/93/93 92/92/92 89/89/89
f 94/94/94 91/91/91 90/90/90
f 90/90/90 92/92/92 94/94/94
f 91/91/91 94/94/94 95/95/95
f 96/96/96 95/95/95 94/94/94
f 92/92/92 93/93/93 97/97/97
f 97/97/97 94/94/94 92/92/92
f 94/94/94 97/97/97 96/96/96
f 98/98/98 97/97/97 93/93/93
f 99/99/99 96/96/96 97/97/97
f 97/97/97 98/98/98 99/99/99
f 100/100/100 99/99/99 98/98/98
