g RoundShadow
v 0.3722066 0 -0.6446809
v 1.049803 0 -0.6061042
v 0.6446809 0 -0.3722067
v 1.212208 0 4.195523E-17
v 0.7444134 0 -5.051612E-08
v 1.049803 0 0.6061049
v 0.6446806 0 0.3722072
v 0.6061036 -1.110223E-16 1.049804
v 0.3722063 0 0.6446811
v -5.635706E-07 -1.110223E-16 1.212208
v -3.398563E-07 0 0.7444134
v -0.644681 0 0.3722065
v -5.298731E-08 0 -0.7444133
v -0.6061046 -1.110223E-16 1.049803
v -0.3722069 0 0.6446807
v -1.049803 0 0.606104
v -1.212208 0 -1.830384E-07
v -0.7444133 0 -1.397389E-07
v 0.6446809 0 -0.3722067
v 0.7444134 0 -5.051612E-08
v 0.3722066 0 -0.6446809
v 0.6061041 1.110223E-16 -1.049803
v -5.298731E-08 1.110223E-16 -1.212208
v -0.6446809 0 -0.3722067
v -0.7444133 0 -1.397389E-07
v -1.049803 0 -0.6061043
v -0.6061043 1.110223E-16 -1.049803
v -0.3722067 0 -0.6446809
vt 0.06698731 0.75
vt 0.25 0.9330127
vt 0.25 0.9330127
vt 0.5 1
vt 0.5 1
vt 0.7500002 0.9330125
vt 0.7500002 0.9330125
vt 0.9330128 0.7499998
vt 0.9330128 0.7499998
vt 1 0.4999998
vt 1 0.4999998
vt 0.7499999 0.06698725
vt 0 0.5
vt 0.9330126 0.2499999
vt 0.9330126 0.2499999
vt 0.7499999 0.06698725
vt 0.4999999 0
vt 0.4999999 0
vt 0.25 0.9330127
vt 0.5 1
vt 0.06698731 0.75
vt 0.06698731 0.75
vt 0 0.5
vt 0.25 0.06698731
vt 0.4999999 0
vt 0.25 0.06698731
vt 0.06698731 0.2499999
vt 0.06698731 0.2499999
vn 0 1 0
vn 0 1 0
vn 0 1 0
vn 0 1 0
vn 0 1 0
vn 0 1 0
vn 0 1 0
vn 0 1 0
vn 0 1 0
vn 0 1 0
vn 0 1 0
vn 0 1 0
vn 0 1 0
vn 0 1 0
vn 0 1 0
vn 0 1 0
vn 0 1 0
vn 0 1 0
vn 0 1 0
vn 0 1 0
vn 0 1 0
vn 0 1 0
vn 0 1 0
vn 0 1 0
vn 0 1 0
vn 0 1 0
vn 0 1 0
vn 0 1 0
g RoundShadow_0
f 3/3/3 2/2/2 1/1/1
f 2/2/2 3/3/3 4/4/4
f 5/5/5 4/4/4 3/3/3
f 4/4/4 5/5/5 6/6/6
f 7/7/7 6/6/6 5/5/5
f 6/6/6 7/7/7 8/8/8
f 9/9/9 8/8/8 7/7/7
f 8/8/8 9/9/9 10/10/10
f 11/11/11 10/10/10 9/9/9
f 9/9/9 7/7/7 11/11/11
f 11/11/11 7/7/7 12/12/12
f 12/12/12 7/7/7 13/13/13
f 10/10/10 11/11/11 14/14/14
f 15/15/15 14/14/14 11/11/11
f 15/15/15 11/11/11 12/12/12
f 14/14/14 15/15/15 16/16/16
f 12/12/12 16/16/16 15/15/15
f 16/16/16 12/12/12 17/17/17
f 18/18/18 17/17/17 12/12/12
f 13/13/13 7/7/7 19/19/19
f 19/19/19 7/7/7 20/20/20
f 21/21/21 13/13/13 19/19/19
f 21/21/21 22/22/22 13/13/13
f 22/22/22 21/21/21 2/2/2
f 23/23/23 13/13/13 22/22/22
f 24/24/24 12/12/12 13/13/13
f 25/25/25 12/12/12 24/24/24
f 17/17/17 25/25/25 26/26/26
f 24/24/24 26/26/26 25/25/25
f 26/26/26 24/24/24 27/27/27
f 27/27/27 28/28/28 23/23/23
f 13/13/13 23/23/23 28/28/28
f 28/28/28 27/27/27 24/24/24
f 28/28/28 24/24/24 13/13/13
