g Sat_Lowest
v 0.1840781 -0.05035792 -0.1840781
v 0.2603257 -0.0809577 -8.058644E-09
v 0.2603257 -0.05035793 -6.721085E-09
v 0.1840781 -0.0809577 -0.1840781
v -1.248493E-08 -0.05035792 -0.2603257
v 0.1840781 -0.0809577 -0.1840781
v 0.1840781 -0.05035792 -0.1840781
v -1.248493E-08 -0.08095769 -0.2603257
v -0.1840781 -0.05035792 -0.1840781
v -1.248493E-08 -0.08095769 -0.2603257
v -1.248493E-08 -0.05035792 -0.2603257
v -0.1840781 -0.0809577 -0.1840781
v -0.2603257 -0.05035793 1.603731E-08
v -0.1840781 -0.0809577 -0.1840781
v -0.1840781 -0.05035792 -0.1840781
v -0.2603257 -0.0809577 1.469975E-08
v -0.184078 -0.05035794 0.1840781
v -0.2603257 -0.0809577 1.469975E-08
v -0.2603257 -0.05035793 1.603731E-08
v -0.184078 -0.08095771 0.1840781
v 1.998622E-09 -0.05035794 0.2603257
v -0.184078 -0.08095771 0.1840781
v -0.184078 -0.05035794 0.1840781
v 1.998622E-09 -0.08095772 0.2603257
v 0.1840781 -0.05035794 0.1840781
v 1.998622E-09 -0.08095772 0.2603257
v 1.998622E-09 -0.05035794 0.2603257
v 0.1840781 -0.08095771 0.1840781
v 0.2603257 -0.05035793 -6.721085E-09
v 0.1840781 -0.08095771 0.1840781
v 0.1840781 -0.05035794 0.1840781
v 0.2603257 -0.0809577 -8.058644E-09
v 0.05170261 0.08088626 4.348672E-09
v -3.65147E-09 0.08088626 -0.08353589
v 0.08353589 0.08088626 3.535651E-09
v 9.961555E-10 0.08088626 0.08353589
v -2.47228E-09 0.08088626 -0.0517026
v 8.324623E-10 0.08088626 0.05170261
v -0.08353589 0.08088626 1.083859E-08
v -0.05170261 0.08088626 8.672555E-09
v -0.08353589 0.02305012 8.310492E-09
v 9.961555E-10 0.08088626 0.08353589
v 9.961555E-10 0.02305012 0.08353589
v 0.08353589 0.02305012 1.007553E-09
v -0.08353589 0.08088626 1.083859E-08
v 0.08353589 0.08088626 3.535651E-09
v -3.65147E-09 0.02305013 -0.08353589
v -3.65147E-09 0.08088626 -0.08353589
v 0.1840781 -0.05035792 -0.1840781
v -8.068201E-09 -0.001803008 -0.1719308
v -1.248493E-08 -0.05035792 -0.2603257
v -0.1840781 -0.05035792 -0.1840781
v 0.1719308 -0.001803015 -2.338747E-09
v 0.2603257 -0.05035793 -6.721085E-09
v 0.1840781 -0.05035794 0.1840781
v -0.1719308 -0.001803015 1.269192E-08
v -0.2603257 -0.05035793 1.603731E-08
v -0.184078 -0.05035794 0.1840781
v 1.497389E-09 -0.001803023 0.1719308
v 1.998622E-09 -0.05035794 0.2603257
v 0.08353589 0.02305012 1.007553E-09
v -3.65147E-09 0.02305013 -0.08353589
v 9.961555E-10 0.02305012 0.08353589
v -0.08353589 0.02305012 8.310492E-09
v 0.05170261 -0.06065056 -1.838099E-09
v 0.1840781 -0.08095771 0.1840781
v 0.2603257 -0.0809577 -8.058644E-09
v 0.1840781 -0.0809577 -0.1840781
v 8.324623E-10 -0.06065056 0.05170261
v 1.998622E-09 -0.08095772 0.2603257
v -0.184078 -0.08095771 0.1840781
v -2.47228E-09 -0.06065055 -0.05170261
v -1.248493E-08 -0.08095769 -0.2603257
v -0.1840781 -0.0809577 -0.1840781
v -0.05170261 -0.06065056 2.485784E-09
v -0.2603257 -0.0809577 1.469975E-08
v -2.47228E-09 -0.06065055 -0.05170261
v 0.05170261 0.08088626 4.348672E-09
v 0.05170261 -0.06065056 -1.838099E-09
v -2.47228E-09 0.08088626 -0.0517026
v 8.324623E-10 0.08088626 0.05170261
v -0.05170261 -0.06065056 2.485784E-09
v 8.324623E-10 -0.06065056 0.05170261
v -0.05170261 0.08088626 8.672555E-09
vt 0.06843704 0.8227929
vt 0.06632048 0.8231719
vt 0.06632048 0.8227929
vt 0.06843704 0.8231719
vt 0.06632048 0.8227929
vt 0.06843704 0.8231719
vt 0.06843704 0.8227929
vt 0.06632048 0.8231719
vt 0.06843704 0.8227929
vt 0.06632048 0.8231719
vt 0.06632048 0.8227929
vt 0.06843704 0.8231719
vt 0.06632048 0.8227929
vt 0.06843704 0.8231719
vt 0.06843704 0.8227929
vt 0.06632048 0.8231719
vt 0.06843704 0.8227929
vt 0.06632048 0.8231719
vt 0.06632048 0.8227929
vt 0.06843704 0.8231719
vt 0.06632048 0.8227929
vt 0.06843704 0.8231719
vt 0.06843704 0.8227929
vt 0.06632048 0.8231719
vt 0.06843704 0.8227929
vt 0.06632048 0.8231719
vt 0.06632048 0.8227929
vt 0.06843704 0.8231719
vt 0.06632048 0.8227929
vt 0.06843704 0.8231719
vt 0.06843704 0.8227929
vt 0.06632048 0.8231719
vt 0.0643332 0.8282031
vt 0.06497365 0.8271683
vt 0.06393886 0.8282031
vt 0.06497365 0.8292379
vt 0.06497365 0.8275626
vt 0.06497365 0.8288436
vt 0.06600851 0.8282031
vt 0.06561416 0.8282031
vt 0.06333995 0.8261028
vt 0.06333995 0.8253863
vt 0.06333995 0.8261028
vt 0.06333995 0.8261028
vt 0.06333995 0.8253863
vt 0.06333995 0.8253863
vt 0.06333995 0.8261028
vt 0.06333995 0.8253863
vt 0.06897378 0.8242335
vt 0.07125407 0.824384
vt 0.07125407 0.8232889
vt 0.07353443 0.8242335
vt 0.06912422 0.8265138
vt 0.06802922 0.8265138
vt 0.06897378 0.8287941
vt 0.07338393 0.8265138
vt 0.07447892 0.8265138
vt 0.07353443 0.8287941
vt 0.07125407 0.8286436
vt 0.07125407 0.8297387
vt 0.07021928 0.8265138
vt 0.07125407 0.825479
vt 0.07125407 0.8275486
vt 0.07228893 0.8265138
vt 0.07061362 0.833066
vt 0.06897378 0.8307856
vt 0.06802922 0.833066
vt 0.06897378 0.8353463
vt 0.07125407 0.8324255
vt 0.07125407 0.8298411
vt 0.07353443 0.8307856
vt 0.07125407 0.8337064
vt 0.07125407 0.8362908
vt 0.07353443 0.8353463
vt 0.07189459 0.833066
vt 0.07447892 0.833066
vt 0.06454825 0.824247
vt 0.06454825 0.8224937
vt 0.06454825 0.824247
vt 0.06454825 0.8224937
vt 0.06454825 0.8224937
vt 0.06454825 0.824247
vt 0.06454825 0.824247
vt 0.06454825 0.8224937
vn 0.7071067 0 -0.7071068
vn 1 0 0
vn 1 0 0
vn 0.7071068 0 -0.7071068
vn 0 0 -1
vn 0.7071068 0 -0.7071068
vn 0.7071067 0 -0.7071068
vn 0 0 -1
vn -0.7071068 0 -0.7071067
vn 0 0 -1
vn 0 0 -1
vn -0.7071066 0 -0.7071068
vn -1 0 0
vn -0.7071066 0 -0.7071068
vn -0.7071068 0 -0.7071067
vn -1 0 0
vn -0.7071068 0 0.7071068
vn -1 0 0
vn -1 0 0
vn -0.7071066 0 0.7071068
vn 0 0 1
vn -0.7071066 0 0.7071068
vn -0.7071068 0 0.7071068
vn 0 0 1
vn 0.7071066 0 0.7071068
vn 0 0 1
vn 0 0 1
vn 0.7071068 0 0.7071068
vn 1 0 0
vn 0.7071068 0 0.7071068
vn 0.7071066 0 0.7071068
vn 1 0 0
vn 0 1 0
vn 0 1 0
vn 0 1 0
vn 0 1 0
vn 0 1 0
vn 0 1 0
vn 0 1 0
vn 0 1 0
vn -1 0 0
vn 0 0 1
vn 0 0 1
vn 1 0 0
vn -1 0 0
vn 1 0 0
vn 0 0 -1
vn 0 0 -1
vn 0.2799461 0.9182922 -0.279946
vn 0 0.9328937 -0.3601518
vn 0 0.8764765 -0.4814445
vn -0.2799461 0.9182922 -0.279946
vn 0.3601519 0.9328937 0
vn 0.4814445 0.8764765 0
vn 0.279946 0.9182922 0.2799461
vn -0.3601519 0.9328937 0
vn -0.4814445 0.8764765 0
vn -0.279946 0.918292 0.2799461
vn 0 0.9328937 0.3601519
vn 0 0.8764765 0.4814445
vn 0.2706655 0.9626735 0
vn 0 0.9626735 -0.2706654
vn 0 0.9626734 0.2706655
vn -0.2706655 0.9626734 0
vn -0.07722323 -0.9970138 0
vn -0.06787655 -0.9953821 -0.06787661
vn -0.09688102 -0.9952959 0
vn -0.06787657 -0.9953821 0.0678765
vn 0 -0.9970138 -0.07722327
vn 0 -0.9952959 -0.09688106
vn 0.06787654 -0.9953821 -0.06787661
vn 0 -0.9970138 0.07722316
vn 0 -0.9952959 0.09688096
vn 0.06787658 -0.9953821 0.0678765
vn 0.07722323 -0.9970138 0
vn 0.09688101 -0.9952959 0
vn 0 0 1
vn -1 0 0
vn -1 0 0
vn 0 0 1
vn 0 0 -1
vn 1 0 0
vn 0 0 -1
vn 1 0 0
g Sat_Lowest_0
f 3/3/3 2/2/2 1/1/1
f 4/4/4 1/1/1 2/2/2
f 7/7/7 6/6/6 5/5/5
f 8/8/8 5/5/5 6/6/6
f 11/11/11 10/10/10 9/9/9
f 12/12/12 9/9/9 10/10/10
f 15/15/15 14/14/14 13/13/13
f 16/16/16 13/13/13 14/14/14
f 19/19/19 18/18/18 17/17/17
f 20/20/20 17/17/17 18/18/18
f 23/23/23 22/22/22 21/21/21
f 24/24/24 21/21/21 22/22/22
f 27/27/27 26/26/26 25/25/25
f 28/28/28 25/25/25 26/26/26
f 31/31/31 30/30/30 29/29/29
f 32/32/32 29/29/29 30/30/30
f 35/35/35 34/34/34 33/33/33
f 35/35/35 33/33/33 36/36/36
f 37/37/37 33/33/33 34/34/34
f 38/38/38 36/36/36 33/33/33
f 34/34/34 39/39/39 37/37/37
f 38/38/38 40/40/40 36/36/36
f 40/40/40 37/37/37 39/39/39
f 39/39/39 36/36/36 40/40/40
f 43/43/43 42/42/42 41/41/41
f 43/43/43 44/44/44 42/42/42
f 45/45/45 41/41/41 42/42/42
f 46/46/46 42/42/42 44/44/44
f 41/41/41 45/45/45 47/47/47
f 46/46/46 44/44/44 48/48/48
f 47/47/47 48/48/48 44/44/44
f 48/48/48 47/47/47 45/45/45
f 51/51/51 50/50/50 49/49/49
f 51/51/51 52/52/52 50/50/50
f 49/49/49 50/50/50 53/53/53
f 54/54/54 49/49/49 53/53/53
f 54/54/54 53/53/53 55/55/55
f 52/52/52 56/56/56 50/50/50
f 57/57/57 56/56/56 52/52/52
f 57/57/57 58/58/58 56/56/56
f 55/55/55 53/53/53 59/59/59
f 58/58/58 59/59/59 56/56/56
f 60/60/60 55/55/55 59/59/59
f 60/60/60 59/59/59 58/58/58
f 53/53/53 50/50/50 61/61/61
f 62/62/62 61/61/61 50/50/50
f 50/50/50 56/56/56 62/62/62
f 61/61/61 63/63/63 53/53/53
f 59/59/59 53/53/53 63/63/63
f 64/64/64 62/62/62 56/56/56
f 63/63/63 64/64/64 59/59/59
f 56/56/56 59/59/59 64/64/64
f 67/67/67 66/66/66 65/65/65
f 67/67/67 65/65/65 68/68/68
f 66/66/66 69/69/69 65/65/65
f 70/70/70 69/69/69 66/66/66
f 70/70/70 71/71/71 69/69/69
f 68/68/68 65/65/65 72/72/72
f 73/73/73 68/68/68 72/72/72
f 73/73/73 72/72/72 74/74/74
f 71/71/71 75/75/75 69/69/69
f 74/74/74 72/72/72 75/75/75
f 76/76/76 75/75/75 71/71/71
f 76/76/76 74/74/74 75/75/75
f 79/79/79 78/78/78 77/77/77
f 80/80/80 77/77/77 78/78/78
f 78/78/78 79/79/79 81/81/81
f 77/77/77 80/80/80 82/82/82
f 83/83/83 81/81/81 79/79/79
f 84/84/84 82/82/82 80/80/80
f 81/81/81 83/83/83 84/84/84
f 82/82/82 84/84/84 83/83/83
