g Sat_Low
v 0.04941354 -0.08616581 4.357288E-09
v 0.2268105 -0.08095772 -0.1309491
v 0.03375005 -0.08616581 -0.03375009
v -1.144793E-08 -0.08095772 -0.2618982
v 0.1309491 -0.08095772 -0.2268105
v -5.051869E-08 -0.08616581 -0.04941358
v -0.1309491 -0.08095772 -0.2268105
v -0.03375015 -0.08616581 -0.0337501
v -0.2618982 -0.08095772 -3.954552E-08
v -0.03375015 -0.08616581 -0.0337501
v -0.2268105 -0.08095772 -0.1309491
v -0.04941364 -0.08616581 -3.103955E-09
v -0.2268105 -0.08095772 0.130949
v -0.03375016 -0.08616581 0.03375009
v -1.217597E-07 -0.08095772 0.2618982
v -0.1309492 -0.08095772 0.2268104
v -7.133173E-08 -0.08616581 0.04941358
v 0.1309489 -0.08095772 0.2268105
v 0.03375003 -0.08616581 0.03375013
v 0.2618982 -0.08095772 -4.957231E-18
v 0.03375003 -0.08616581 0.03375013
v 0.2268104 -0.08095772 0.1309492
v 0.1309491 -0.08095772 -0.2268105
v 0.03375005 -0.08616581 -0.03375009
v 0.2268105 -0.08095772 -0.1309491
v -1.144793E-08 -0.08095772 -0.2618982
v -5.051869E-08 -0.08616581 -0.04941358
v -0.1309491 -0.08095772 -0.2268105
v -0.2268105 -0.08095772 -0.1309491
v -0.03375015 -0.08616581 -0.0337501
v 0.04941354 -0.08616581 4.357288E-09
v 0.2618982 -0.08095772 -4.957231E-18
v 0.03375003 -0.08616581 0.03375013
v 0.2268104 -0.08095772 0.1309492
v 0.1309489 -0.08095772 0.2268105
v -0.2618982 -0.08095772 -3.954552E-08
v -0.04941364 -0.08616581 -3.103955E-09
v -0.2268105 -0.08095772 0.130949
v -0.1309492 -0.08095772 0.2268104
v -0.03375016 -0.08616581 0.03375009
v -7.133173E-08 -0.08616581 0.04941358
v -1.217597E-07 -0.08095772 0.2618982
v 0.2268105 -0.04722445 -0.1309491
v 0.1166007 -0.002269821 -0.1166007
v 0.1309491 -0.04722445 -0.2268105
v -1.144793E-08 -0.04722445 -0.2618982
v 0.1707153 -0.002269821 1.945505E-09
v 0.2618982 -0.04722445 -2.891664E-18
v -2.821425E-08 -0.002269821 -0.1707153
v -0.1309491 -0.04722445 -0.2268105
v 0.1166006 -0.002269821 0.1166008
v 0.2268104 -0.04722445 0.1309492
v 0.1309489 -0.04722445 0.2268105
v -0.1166007 -0.002269816 -0.1166007
v -0.2268105 -0.04722445 -0.1309491
v -0.2618982 -0.04722445 -3.954552E-08
v -1.001197E-07 -0.002269821 0.1707153
v -1.217597E-07 -0.04722445 0.2618982
v -0.1707153 -0.002269821 -2.383178E-08
v -0.2268105 -0.04722445 0.130949
v -0.1166008 -0.002269816 0.1166007
v -0.1309492 -0.04722445 0.2268104
v 0.07953236 0.0244101 3.891009E-09
v 0.05432155 0.0244101 0.05432167
v 0.05432158 0.0244101 -0.05432162
v -7.847969E-08 0.0244101 0.0795324
v -0.05432169 0.0244101 0.05432162
v -4.498056E-08 0.0244101 -0.07953238
v -0.07953244 0.0244101 -8.118047E-09
v -0.05432167 0.0244101 -0.05432163
v 0.2618982 -0.08095772 -4.957231E-18
v 0.2268105 -0.04722445 -0.1309491
v 0.2268105 -0.08095772 -0.1309491
v 0.2618982 -0.04722445 -2.891664E-18
v 0.1309491 -0.04722445 -0.2268105
v 0.2268104 -0.08095772 0.1309492
v 0.1309491 -0.08095772 -0.2268105
v 0.2268104 -0.04722445 0.1309492
v -1.144793E-08 -0.04722445 -0.2618982
v 0.1309489 -0.08095772 0.2268105
v -1.144793E-08 -0.08095772 -0.2618982
v 0.1309489 -0.04722445 0.2268105
v -0.1309491 -0.04722445 -0.2268105
v -1.217597E-07 -0.08095772 0.2618982
v -0.1309491 -0.08095772 -0.2268105
v -1.217597E-07 -0.04722445 0.2618982
v -0.2268105 -0.04722445 -0.1309491
v -0.1309492 -0.08095772 0.2268104
v -0.2268105 -0.08095772 -0.1309491
v -0.1309492 -0.04722445 0.2268104
v -0.2618982 -0.04722445 -3.954552E-08
v -0.2268105 -0.08095772 0.130949
v -0.2618982 -0.08095772 -3.954552E-08
v -0.2268105 -0.04722445 0.130949
v 0.05432158 0.07956406 -0.05432162
v 0.07953236 0.0244101 3.891009E-09
v 0.07953236 0.07956406 3.891009E-09
v 0.05432158 0.0244101 -0.05432162
v 0.05432155 0.0244101 0.05432167
v -4.498056E-08 0.07956406 -0.07953238
v 0.05432155 0.07956406 0.05432167
v -4.498056E-08 0.0244101 -0.07953238
v -7.847969E-08 0.0244101 0.0795324
v -0.05432167 0.07956406 -0.05432163
v -7.847969E-08 0.07956406 0.0795324
v -0.05432167 0.0244101 -0.05432163
v -0.05432169 0.0244101 0.05432162
v -0.07953244 0.07956406 -8.118047E-09
v -0.05432169 0.07956406 0.05432162
v -0.07953244 0.0244101 -8.118047E-09
v 0.03375005 0.07956407 -0.03375009
v 0.07953236 0.07956406 3.891009E-09
v 0.04941354 0.07956407 4.357288E-09
v 0.05432158 0.07956406 -0.05432162
v 0.05432155 0.07956406 0.05432167
v -5.051869E-08 0.07956407 -0.04941358
v 0.03375003 0.07956407 0.03375013
v -4.498056E-08 0.07956406 -0.07953238
v -7.847969E-08 0.07956406 0.0795324
v -0.03375015 0.07956407 -0.0337501
v -7.133173E-08 0.07956407 0.04941358
v -0.05432167 0.07956406 -0.05432163
v -0.05432169 0.07956406 0.05432162
v -0.04941364 0.07956407 -3.103955E-09
v -0.03375016 0.07956407 0.03375009
v -0.07953244 0.07956406 -8.118047E-09
v 0.03375005 -0.08616581 -0.03375009
v 0.04941354 0.07956407 4.357288E-09
v 0.04941354 -0.08616581 4.357288E-09
v 0.03375005 0.07956407 -0.03375009
v 0.03375003 0.07956407 0.03375013
v -5.051869E-08 -0.08616581 -0.04941358
v 0.03375003 -0.08616581 0.03375013
v -5.051869E-08 0.07956407 -0.04941358
v -7.133173E-08 0.07956407 0.04941358
v -0.03375015 -0.08616581 -0.0337501
v -7.133173E-08 -0.08616581 0.04941358
v -0.03375015 0.07956407 -0.0337501
v -0.03375016 0.07956407 0.03375009
v -0.04941364 -0.08616581 -3.103955E-09
v -0.03375016 -0.08616581 0.03375009
v -0.04941364 0.07956407 -3.103955E-09
vt 0.08589499 0.932076
vt 0.08486013 0.9359382
vt 0.08344649 0.9373518
vt 0.07817069 0.9398003
vt 0.08203284 0.9387655
vt 0.07817069 0.9398003
vt 0.07430853 0.9387655
vt 0.07289489 0.9373518
vt 0.07044639 0.932076
vt 0.07289489 0.9373518
vt 0.07148124 0.9359382
vt 0.07044639 0.932076
vt 0.07148124 0.9282138
vt 0.07289489 0.9268002
vt 0.07817069 0.9243517
vt 0.07430853 0.9253865
vt 0.07817069 0.9243517
vt 0.08203283 0.9253865
vt 0.08344648 0.9268002
vt 0.08589499 0.932076
vt 0.08344648 0.9268002
vt 0.08486013 0.9282138
vt 0.08203284 0.9387655
vt 0.08344649 0.9373518
vt 0.08486013 0.9359382
vt 0.07817069 0.9398003
vt 0.07817069 0.9398003
vt 0.07430853 0.9387655
vt 0.07148124 0.9359382
vt 0.07289489 0.9373518
vt 0.08589499 0.932076
vt 0.08589499 0.932076
vt 0.08344648 0.9268002
vt 0.08486013 0.9282138
vt 0.08203283 0.9253865
vt 0.07044639 0.932076
vt 0.07044639 0.932076
vt 0.07148124 0.9282138
vt 0.07430853 0.9253865
vt 0.07289489 0.9268002
vt 0.07817069 0.9243517
vt 0.07817069 0.9243517
vt 0.08486013 0.9359382
vt 0.08160965 0.935515
vt 0.08203284 0.9387655
vt 0.07817069 0.9398003
vt 0.08320569 0.932076
vt 0.08589499 0.932076
vt 0.07817069 0.937111
vt 0.07430853 0.9387655
vt 0.08160965 0.928637
vt 0.08486013 0.9282138
vt 0.08203283 0.9253865
vt 0.07473172 0.935515
vt 0.07148124 0.9359382
vt 0.07044639 0.932076
vt 0.07817069 0.9270411
vt 0.07817069 0.9243517
vt 0.07313569 0.932076
vt 0.07148124 0.9282138
vt 0.07473172 0.928637
vt 0.07430853 0.9253865
vt 0.08051638 0.932076
vt 0.07977282 0.9304739
vt 0.07977282 0.9336782
vt 0.07817069 0.9297303
vt 0.07656854 0.9304739
vt 0.07817069 0.9344217
vt 0.07582499 0.932076
vt 0.07656854 0.9336782
vt 0.08589499 0.932076
vt 0.08486013 0.9359382
vt 0.08486013 0.9359382
vt 0.08589499 0.932076
vt 0.08203284 0.9387655
vt 0.08486013 0.9282138
vt 0.08203284 0.9387655
vt 0.08486013 0.9282138
vt 0.07817069 0.9398003
vt 0.08203283 0.9253865
vt 0.07817069 0.9398003
vt 0.08203283 0.9253865
vt 0.07430853 0.9387655
vt 0.07817069 0.9243517
vt 0.07430853 0.9387655
vt 0.07817069 0.9243517
vt 0.07148124 0.9359382
vt 0.07430853 0.9253865
vt 0.07148124 0.9359382
vt 0.07430853 0.9253865
vt 0.07044639 0.932076
vt 0.07148124 0.9282138
vt 0.07044639 0.932076
vt 0.07148124 0.9282138
vt 0.07977282 0.9336782
vt 0.08051638 0.932076
vt 0.08051638 0.932076
vt 0.07977282 0.9336782
vt 0.07977282 0.9304739
vt 0.07817069 0.9344217
vt 0.07977282 0.9304739
vt 0.07817069 0.9344217
vt 0.07817069 0.9297303
vt 0.07656854 0.9336782
vt 0.07817069 0.9297303
vt 0.07656854 0.9336782
vt 0.07656854 0.9304739
vt 0.07582499 0.932076
vt 0.07656854 0.9304739
vt 0.07582499 0.932076
vt 0.0791661 0.9330714
vt 0.08051638 0.932076
vt 0.07962807 0.932076
vt 0.07977282 0.9336782
vt 0.07977282 0.9304739
vt 0.07817069 0.9335334
vt 0.0791661 0.9310806
vt 0.07817069 0.9344217
vt 0.07817069 0.9297303
vt 0.07717527 0.9330714
vt 0.07817069 0.9306186
vt 0.07656854 0.9336782
vt 0.07656854 0.9304739
vt 0.0767133 0.932076
vt 0.07717527 0.9310806
vt 0.07582499 0.932076
vt 0.0791661 0.9330714
vt 0.07962807 0.932076
vt 0.07962807 0.932076
vt 0.0791661 0.9330714
vt 0.0791661 0.9310806
vt 0.07817069 0.9335334
vt 0.0791661 0.9310806
vt 0.07817069 0.9335334
vt 0.07817069 0.9306186
vt 0.07717527 0.9330714
vt 0.07817069 0.9306186
vt 0.07717527 0.9330714
vt 0.07717527 0.9310806
vt 0.0767133 0.932076
vt 0.07717527 0.9310806
vt 0.0767133 0.932076
vn 0.0218607 -0.9997095 -0.01014559
vn 0.0218607 -0.9997095 -0.01014559
vn 0.0218607 -0.9997095 -0.01014559
vn 0.006367186 -0.9996973 -0.02376267
vn 0.006367186 -0.9996973 -0.02376267
vn -0.01014559 -0.9997095 -0.02186071
vn -0.01014559 -0.9997095 -0.02186071
vn -0.01014559 -0.9997095 -0.02186071
vn -0.02376267 -0.9996973 -0.006367191
vn -0.02376267 -0.9996973 -0.006367191
vn -0.02376267 -0.9996973 -0.006367191
vn -0.02186071 -0.9997095 0.01014559
vn -0.02186071 -0.9997095 0.01014559
vn -0.02186071 -0.9997095 0.01014559
vn -0.006367199 -0.9996973 0.02376267
vn -0.006367199 -0.9996973 0.02376267
vn 0.01014558 -0.9997095 0.02186071
vn 0.01014558 -0.9997095 0.02186072
vn 0.01014558 -0.9997095 0.02186071
vn 0.02376266 -0.9996973 0.006367193
vn 0.02376266 -0.9996973 0.006367194
vn 0.02376266 -0.9996973 0.006367193
vn 0.01793711 -0.9996783 -0.01793711
vn 0.01793711 -0.9996783 -0.01793711
vn 0.02450255 -0.9996783 -0.006565439
vn 0.01137119 -0.9996351 -0.02450149
vn 0.01137118 -0.9996351 -0.02450149
vn -0.00656544 -0.9996783 -0.02450255
vn -0.01793712 -0.9996783 -0.01793712
vn -0.01793712 -0.9996783 -0.01793712
vn 0.02450255 -0.9996783 -0.006565438
vn 0.02450255 -0.9996783 -0.006565439
vn 0.0179371 -0.9996783 0.01793712
vn 0.0179371 -0.9996783 0.01793712
vn 0.006565427 -0.9996783 0.02450255
vn -0.0245015 -0.9996351 -0.01137119
vn -0.0245015 -0.9996351 -0.01137119
vn -0.02450256 -0.9996783 0.006565437
vn -0.01793712 -0.9996783 0.01793711
vn -0.01793712 -0.9996783 0.01793711
vn -0.01137119 -0.9996351 0.02450149
vn -0.0113712 -0.9996351 0.02450149
vn 0.3671533 0.9061701 -0.2098909
vn 0.2464518 0.9336871 -0.2597884
vn 0.1803529 0.9187382 -0.3512735
vn 0.01621912 0.9057879 -0.4234208
vn 0.3714727 0.9282317 0.01984578
vn 0.4234208 0.9057879 0.01621917
vn 0.01984568 0.9282317 -0.3714728
vn -0.2098909 0.9061701 -0.3671534
vn 0.2597883 0.9336871 0.2464519
vn 0.3512733 0.9187382 0.180353
vn 0.2098907 0.9061701 0.3671534
vn -0.2597885 0.9336871 -0.2464518
vn -0.3512735 0.9187381 -0.1803529
vn -0.4234208 0.9057878 -0.01621917
vn -0.01984585 0.9282317 0.3714728
vn -0.01621929 0.9057879 0.4234208
vn -0.3714729 0.9282317 -0.01984571
vn -0.3671535 0.90617 0.2098909
vn -0.2464519 0.933687 0.2597884
vn -0.180353 0.9187381 0.3512735
vn 0.2808235 0.9597594 0
vn 0.2049975 0.9570538 0.2049977
vn 0.2049975 0.9570539 -0.2049975
vn 0 0.9597594 0.2808236
vn -0.2049977 0.9570538 0.2049975
vn 0 0.9597594 -0.2808235
vn -0.2808236 0.9597594 0
vn -0.2049976 0.9570538 -0.2049976
vn 1 0 0
vn 0.8660254 0 -0.5
vn 0.8660254 0 -0.5
vn 1 0 0
vn 0.5 0 -0.8660254
vn 0.8660253 0 0.5000004
vn 0.5000001 0 -0.8660254
vn 0.8660251 0 0.5000005
vn 0 0 -1
vn 0.4999995 0 0.8660258
vn 0 0 -1
vn 0.4999995 0 0.8660257
vn -0.5 0 -0.8660254
vn 0 0 1
vn -0.5 0 -0.8660254
vn 0 0 1
vn -0.8660253 0 -0.5000001
vn -0.5000003 0 0.8660253
vn -0.8660254 0 -0.5
vn -0.5000004 0 0.8660253
vn -1 0 0
vn -0.8660255 0 0.4999999
vn -1 0 0
vn -0.8660255 0 0.4999997
vn 0.7071068 0 -0.7071068
vn 1 0 0
vn 1 0 0
vn 0.7071068 0 -0.7071068
vn 0.7071064 0 0.7071071
vn 0 0 -1
vn 0.7071065 0 0.7071071
vn 0 0 -1
vn 0 0 1
vn -0.7071066 0 -0.7071068
vn 0 0 1
vn -0.7071066 0 -0.7071068
vn -0.7071069 0 0.7071066
vn -1 0 0
vn -0.7071069 0 0.7071066
vn -1 0 0
vn 0 1 0
vn 0 1 0
vn 0 1 0
vn 0 1 0
vn 0 1 0
vn 0 1 0
vn 0 1 0
vn 0 1 0
vn 0 1 0
vn 0 1 0
vn 0 1 0
vn 0 1 0
vn 0 1 0
vn 0 1 0
vn 0 1 0
vn 0 1 0
vn -0.7071067 0 0.7071068
vn -1 0 0
vn -1 0 0
vn -0.7071068 0 0.7071068
vn -0.7071065 0 -0.7071071
vn 0 0 1
vn -0.7071065 0 -0.7071071
vn 0 0 1
vn 0 0 -1
vn 0.7071067 0 0.7071068
vn 0 0 -1
vn 0.7071066 0 0.7071068
vn 0.7071069 0 -0.7071066
vn 1 0 0
vn 0.7071069 0 -0.7071066
vn 1 0 0
g Sat_Low_0
f 3/3/3 2/2/2 1/1/1
f 5/5/5 3/3/3 4/4/4
f 8/8/8 7/7/7 6/6/6
f 11/11/11 10/10/10 9/9/9
f 14/14/14 13/13/13 12/12/12
f 16/16/16 14/14/14 15/15/15
f 19/19/19 18/18/18 17/17/17
f 22/22/22 21/21/21 20/20/20
f 25/25/25 24/24/24 23/23/23
f 27/27/27 26/26/26 24/24/24
f 26/26/26 27/27/27 28/28/28
f 28/28/28 30/30/30 29/29/29
f 32/32/32 31/31/31 25/25/25
f 31/31/31 32/32/32 33/33/33
f 35/35/35 33/33/33 34/34/34
f 37/37/37 36/36/36 30/30/30
f 36/36/36 37/37/37 38/38/38
f 38/38/38 40/40/40 39/39/39
f 42/42/42 41/41/41 35/35/35
f 41/41/41 42/42/42 40/40/40
f 45/45/45 44/44/44 43/43/43
f 45/45/45 46/46/46 44/44/44
f 44/44/44 47/47/47 43/43/43
f 48/48/48 43/43/43 47/47/47
f 49/49/49 44/44/44 46/46/46
f 46/46/46 50/50/50 49/49/49
f 47/47/47 51/51/51 48/48/48
f 52/52/52 48/48/48 51/51/51
f 52/52/52 51/51/51 53/53/53
f 54/54/54 49/49/49 50/50/50
f 55/55/55 54/54/54 50/50/50
f 55/55/55 56/56/56 54/54/54
f 51/51/51 57/57/57 53/53/53
f 58/58/58 53/53/53 57/57/57
f 59/59/59 54/54/54 56/56/56
f 56/56/56 60/60/60 59/59/59
f 57/57/57 61/61/61 58/58/58
f 61/61/61 59/59/59 60/60/60
f 62/62/62 58/58/58 61/61/61
f 62/62/62 61/61/61 60/60/60
f 47/47/47 63/63/63 51/51/51
f 64/64/64 51/51/51 63/63/63
f 51/51/51 64/64/64 57/57/57
f 63/63/63 47/47/47 65/65/65
f 66/66/66 57/57/57 64/64/64
f 57/57/57 66/66/66 61/61/61
f 44/44/44 65/65/65 47/47/47
f 67/67/67 61/61/61 66/66/66
f 61/61/61 67/67/67 59/59/59
f 65/65/65 44/44/44 68/68/68
f 69/69/69 59/59/59 67/67/67
f 49/49/49 68/68/68 44/44/44
f 59/59/59 69/69/69 54/54/54
f 68/68/68 49/49/49 70/70/70
f 54/54/54 70/70/70 49/49/49
f 70/70/70 54/54/54 69/69/69
f 73/73/73 72/72/72 71/71/71
f 74/74/74 71/71/71 72/72/72
f 72/72/72 73/73/73 75/75/75
f 71/71/71 74/74/74 76/76/76
f 77/77/77 75/75/75 73/73/73
f 78/78/78 76/76/76 74/74/74
f 75/75/75 77/77/77 79/79/79
f 76/76/76 78/78/78 80/80/80
f 81/81/81 79/79/79 77/77/77
f 82/82/82 80/80/80 78/78/78
f 79/79/79 81/81/81 83/83/83
f 80/80/80 82/82/82 84/84/84
f 85/85/85 83/83/83 81/81/81
f 86/86/86 84/84/84 82/82/82
f 83/83/83 85/85/85 87/87/87
f 84/84/84 86/86/86 88/88/88
f 89/89/89 87/87/87 85/85/85
f 90/90/90 88/88/88 86/86/86
f 87/87/87 89/89/89 91/91/91
f 88/88/88 90/90/90 92/92/92
f 93/93/93 91/91/91 89/89/89
f 94/94/94 92/92/92 90/90/90
f 91/91/91 93/93/93 94/94/94
f 92/92/92 94/94/94 93/93/93
f 97/97/97 96/96/96 95/95/95
f 98/98/98 95/95/95 96/96/96
f 96/96/96 97/97/97 99/99/99
f 95/95/95 98/98/98 100/100/100
f 101/101/101 99/99/99 97/97/97
f 102/102/102 100/100/100 98/98/98
f 99/99/99 101/101/101 103/103/103
f 100/100/100 102/102/102 104/104/104
f 105/105/105 103/103/103 101/101/101
f 106/106/106 104/104/104 102/102/102
f 103/103/103 105/105/105 107/107/107
f 104/104/104 106/106/106 108/108/108
f 109/109/109 107/107/107 105/105/105
f 110/110/110 108/108/108 106/106/106
f 107/107/107 109/109/109 110/110/110
f 108/108/108 110/110/110 109/109/109
f 113/113/113 112/112/112 111/111/111
f 114/114/114 111/111/111 112/112/112
f 112/112/112 113/113/113 115/115/115
f 111/111/111 114/114/114 116/116/116
f 117/117/117 115/115/115 113/113/113
f 118/118/118 116/116/116 114/114/114
f 115/115/115 117/117/117 119/119/119
f 116/116/116 118/118/118 120/120/120
f 121/121/121 119/119/119 117/117/117
f 122/122/122 120/120/120 118/118/118
f 119/119/119 121/121/121 123/123/123
f 120/120/120 122/122/122 124/124/124
f 125/125/125 123/123/123 121/121/121
f 126/126/126 124/124/124 122/122/122
f 123/123/123 125/125/125 126/126/126
f 124/124/124 126/126/126 125/125/125
f 129/129/129 128/128/128 127/127/127
f 130/130/130 127/127/127 128/128/128
f 128/128/128 129/129/129 131/131/131
f 127/127/127 130/130/130 132/132/132
f 133/133/133 131/131/131 129/129/129
f 134/134/134 132/132/132 130/130/130
f 131/131/131 133/133/133 135/135/135
f 132/132/132 134/134/134 136/136/136
f 137/137/137 135/135/135 133/133/133
f 138/138/138 136/136/136 134/134/134
f 135/135/135 137/137/137 139/139/139
f 136/136/136 138/138/138 140/140/140
f 141/141/141 139/139/139 137/137/137
f 142/142/142 140/140/140 138/138/138
f 139/139/139 141/141/141 142/142/142
f 140/140/140 142/142/142 141/141/141
