g shadow3
v 0.2443451 0.01502579 -0.2443451
v -0.3746849 0.01502579 -0.4992425
v 0.3746849 0.01502579 -0.4992425
v 0.4992425 0.01502579 -0.3746849
v -0.2443451 0.01502579 -0.2443451
v -0.4992425 0.01502579 -0.3746849
v -0.4992425 0.01502579 0.3746849
v 0.2443451 0.01502579 0.2443451
v 0.4992425 0.01502579 0.3746849
v 0.3746849 0.01502579 0.4992425
v -0.2443451 0.01502579 0.2443451
v -0.3746849 0.01502579 0.4992425
vt 0.3124937 0.3124937
vt 0.8752533 6.891787E-08
vt 0.1247466 2.421439E-08
vt 0 0.1247462
vt 0.6875063 0.312494
vt 1 0.1247466
vt 1 0.8752534
vt 0.3124937 0.6875063
vt 0 0.8752534
vt 0.1247462 1
vt 0.6875063 0.6875062
vt 0.8752534 1
vn 0 1 0
vn 0 1 0
vn 0 1 0
vn 0 1 0
vn 0 1 0
vn 0 1 0
vn 0 1 0
vn 0 1 0
vn 0 1 0
vn 0 1 0
vn 0 1 0
vn 0 1 0
g shadow3_0
f 3/3/3 2/2/2 1/1/1
f 3/3/3 1/1/1 4/4/4
f 2/2/2 5/5/5 1/1/1
f 6/6/6 5/5/5 2/2/2
f 5/5/5 6/6/6 7/7/7
f 1/1/1 8/8/8 4/4/4
f 8/8/8 9/9/9 4/4/4
f 9/9/9 8/8/8 10/10/10
f 11/11/11 5/5/5 7/7/7
f 8/8/8 11/11/11 10/10/10
f 12/12/12 11/11/11 7/7/7
f 11/11/11 12/12/12 10/10/10
