g Shadow
v 0.859385 1.914021E-09 -0.859385
v 1.25 1.914021E-09 -1.25
v 1.25 1.914021E-09 1.25
v -1.25 1.914021E-09 -1.25
v 0.859385 1.914021E-09 0.859385
v -0.859385 1.914021E-09 -0.859385
v -1.25 1.914021E-09 1.25
v -0.859385 1.914021E-09 0.859385
vt 0.9 0.9
vt 1 1
vt 1 0
vt 0 1
vt 0.9 0.1
vt 0.09999999 0.9
vt 0 0
vt 0.1 0.1
vn 0 1 0
vn 0 1 0
vn 0 1 0
vn 0 1 0
vn 0 1 0
vn 0 1 0
vn 0 1 0
vn 0 1 0
g Shadow_0
f 3/3/3 2/2/2 1/1/1
f 1/1/1 2/2/2 4/4/4
f 5/5/5 3/3/3 1/1/1
f 6/6/6 1/1/1 4/4/4
f 3/3/3 5/5/5 7/7/7
f 6/6/6 4/4/4 7/7/7
f 5/5/5 8/8/8 7/7/7
f 8/8/8 6/6/6 7/7/7
