g SmallStud_1
v -0.06353428 0.02040214 0.03676374
v 7.117991E-05 0.073786 0.07348636
v 7.117991E-05 0.02040214 0.07348636
v -0.06353428 0.073786 0.03676374
v -0.06353429 0.02040214 -0.03668151
v -0.06353429 0.073786 -0.03668151
v 7.117976E-05 0.02040214 -0.07340413
v 7.117976E-05 0.073786 -0.07340413
v 0.06367664 0.02040214 -0.0366815
v 0.06367664 0.073786 -0.0366815
v 0.06367665 0.02040214 0.03676375
v 0.06367665 0.073786 0.03676375
v 7.117991E-05 0.02040214 0.07348636
v 7.117991E-05 0.073786 0.07348636
v 7.117991E-05 0.073786 0.07348636
v 0.06367664 0.073786 -0.0366815
v 0.06367665 0.073786 0.03676375
v -0.06353429 0.073786 -0.03668151
v -0.06353428 0.073786 0.03676374
v 7.117976E-05 0.073786 -0.07340413
v 0.08465955 -0.003726236 0.04861442
v -7.879089E-06 -0.07378599 0.09749722
v -7.879089E-06 -0.003726236 0.09749722
v 0.08465955 -0.07378599 0.04861442
v 0.08465955 -0.003726236 -0.04915116
v 0.08465955 -0.07378599 -0.04915116
v -7.947038E-06 -0.003726236 -0.09803392
v -7.947038E-06 -0.07378599 -0.09803392
v -0.08467538 -0.003726236 -0.04915113
v -0.08467538 -0.07378599 -0.04915113
v -0.08467536 -0.003726236 0.04861445
v -0.08467536 -0.07378599 0.04861445
v -7.879089E-06 -0.003726236 0.09749722
v -7.879089E-06 -0.07378599 0.09749722
v -7.947038E-06 -0.07378599 -0.09803392
v 0.08465955 -0.07378599 0.04861442
v 0.08465955 -0.07378599 -0.04915116
v -0.08467536 -0.07378599 0.04861445
v -0.08467538 -0.07378599 -0.04915113
v -7.879089E-06 -0.07378599 0.09749722
v 0.1027494 0.02040212 0.05932236
v -3.362784E-08 -0.008593542 0.1186448
v -3.362784E-08 0.02040212 0.1186448
v 0.1027494 -0.008593542 0.05932236
v 0.1027494 0.02040212 -0.05932243
v 0.1027494 -0.008593542 -0.05932243
v -3.332982E-08 0.02040212 -0.1186448
v -3.332982E-08 -0.008593542 -0.1186448
v -0.1027494 0.02040212 -0.05932239
v -0.1027494 -0.008593542 -0.05932239
v -0.1027494 0.02040212 0.05932239
v -0.1027494 -0.008593542 0.05932239
v -3.362784E-08 0.02040212 0.1186448
v -3.362784E-08 -0.008593542 0.1186448
v -3.332982E-08 -0.008593542 -0.1186448
v 0.1027494 -0.008593542 0.05932236
v 0.1027494 -0.008593542 -0.05932243
v -0.1027494 -0.008593542 0.05932239
v -0.1027494 -0.008593542 -0.05932239
v -3.362784E-08 -0.008593542 0.1186448
v -0.1027494 0.02040212 0.05932239
v -0.1027494 0.02040212 -0.05932239
v -3.332982E-08 0.02040212 -0.1186448
v 0.1027494 0.02040212 0.05932236
v 0.1027494 0.02040212 -0.05932243
v -3.362784E-08 0.02040212 0.1186448
vt 0.7839325 0.3991783
vt 0.8053058 0.4147134
vt 0.8053058 0.3991783
vt 0.7839325 0.4147134
vt 0.7625592 0.3991783
vt 0.7625592 0.4147134
vt 0.7411864 0.3991783
vt 0.7411864 0.4147134
vt 0.7198136 0.3991783
vt 0.7198136 0.4147134
vt 0.6984408 0.3991783
vt 0.6984408 0.4147134
vt 0.6770681 0.3991783
vt 0.6770681 0.4147134
vt 0.9318026 0.04486704
vt 0.8997432 0.06337678
vt 0.9211162 0.06337678
vt 0.8997432 0.02635765
vt 0.9211162 0.02635789
vt 0.8890573 0.04486704
vt 0.4988626 0.4281587
vt 0.4704121 0.4077711
vt 0.4704121 0.4281587
vt 0.4988626 0.4077711
vt 0.5273131 0.4281587
vt 0.5273131 0.4077711
vt 0.5557631 0.4281587
vt 0.5557631 0.4077711
vt 0.584214 0.4281587
vt 0.584214 0.4077711
vt 0.612664 0.4281587
vt 0.612664 0.4077711
vt 0.6411141 0.4281587
vt 0.6411141 0.4077711
vt 0.2325816 0.5869978
vt 0.2752571 0.5623592
vt 0.2468073 0.5623592
vt 0.2752571 0.6116362
vt 0.2468073 0.6116362
vt 0.2894826 0.5869978
vt 0.4861099 0.4552027
vt 0.4519383 0.4470178
vt 0.4519383 0.4552027
vt 0.4861099 0.4470178
vt 0.5194217 0.4552027
vt 0.5194217 0.4470178
vt 0.5552627 0.4552027
vt 0.5552627 0.4470178
vt 0.5884734 0.4552027
vt 0.5884734 0.4470178
vt 0.6207734 0.4552027
vt 0.6207734 0.4470178
vt 0.6533267 0.4552027
vt 0.6533267 0.4470178
vt 0.5471551 0.5641377
vt 0.5778986 0.5463881
vt 0.5574033 0.5463881
vt 0.5778986 0.5818871
vt 0.5574031 0.5818871
vt 0.5881464 0.5641376
vt 0.9818871 0.02742964
vt 0.9613916 0.02742964
vt 0.9511437 0.04517913
vt 0.9818871 0.06292862
vt 0.9613919 0.06292862
vt 0.9921349 0.04517913
vn -0.8660253 0 0.5000002
vn -1.609231E-07 0 1
vn -1.609231E-07 0 1
vn -0.8660253 0 0.5000002
vn -0.8660253 0 -0.5000002
vn -0.8660253 0 -0.5000002
vn 0 0 -1
vn 0 0 -1
vn 0.8660253 0 -0.5000001
vn 0.8660253 0 -0.5000001
vn 0.8660253 0 0.5000001
vn 0.8660253 0 0.5000001
vn -1.609231E-07 0 1
vn -1.609231E-07 0 1
vn 0 1 0
vn 0 1 0
vn 0 1 0
vn 0 1 0
vn 0 1 0
vn 0 1 0
vn 0.8660256 0 0.4999998
vn 1.637627E-07 0 1
vn 1.637627E-07 0 1
vn 0.8660256 0 0.4999998
vn 0.8660253 0 -0.5000001
vn 0.8660253 0 -0.5000001
vn -1.637627E-07 0 -1
vn -1.637627E-07 0 -1
vn -0.8660256 0 -0.4999997
vn -0.8660256 0 -0.4999997
vn -0.8660253 0 0.5000001
vn -0.8660253 0 0.5000001
vn 1.637627E-07 0 1
vn 1.637627E-07 0 1
vn 0 -1 0
vn 0 -1 0
vn 0 -1 0
vn 0 -1 0
vn 0 -1 0
vn 0 -1 0
vn 0.8660253 0 0.5000001
vn 1.630264E-07 0 1
vn 1.630264E-07 0 1
vn 0.8660253 0 0.5000001
vn 0.8660253 0 -0.5000002
vn 0.8660253 0 -0.5000002
vn -1.834047E-07 0 -1
vn -1.834047E-07 0 -1
vn -0.8660255 0 -0.4999999
vn -0.8660255 0 -0.4999999
vn -0.8660255 0 0.4999999
vn -0.8660255 0 0.4999999
vn 1.630264E-07 0 1
vn 1.630264E-07 0 1
vn 0 -1 0
vn 0 -1 0
vn 0 -1 0
vn 0 -1 0
vn 0 -1 0
vn 0 -1 0
vn 0 1 0
vn 0 1 0
vn 0 1 0
vn 0 1 0
vn 0 1 0
vn 0 1 1.251677E-07
g SmallStud_1_0
f 3/3/3 2/2/2 1/1/1
f 2/2/2 4/4/4 1/1/1
f 1/1/1 4/4/4 5/5/5
f 4/4/4 6/6/6 5/5/5
f 5/5/5 6/6/6 7/7/7
f 6/6/6 8/8/8 7/7/7
f 7/7/7 8/8/8 9/9/9
f 8/8/8 10/10/10 9/9/9
f 9/9/9 10/10/10 11/11/11
f 10/10/10 12/12/12 11/11/11
f 11/11/11 12/12/12 13/13/13
f 12/12/12 14/14/14 13/13/13
f 17/17/17 16/16/16 15/15/15
f 16/16/16 18/18/18 15/15/15
f 18/18/18 19/19/19 15/15/15
f 16/16/16 20/20/20 18/18/18
f 23/23/23 22/22/22 21/21/21
f 22/22/22 24/24/24 21/21/21
f 21/21/21 24/24/24 25/25/25
f 24/24/24 26/26/26 25/25/25
f 25/25/25 26/26/26 27/27/27
f 26/26/26 28/28/28 27/27/27
f 27/27/27 28/28/28 29/29/29
f 28/28/28 30/30/30 29/29/29
f 29/29/29 30/30/30 31/31/31
f 30/30/30 32/32/32 31/31/31
f 31/31/31 32/32/32 33/33/33
f 32/32/32 34/34/34 33/33/33
f 37/37/37 36/36/36 35/35/35
f 36/36/36 38/38/38 35/35/35
f 38/38/38 39/39/39 35/35/35
f 36/36/36 40/40/40 38/38/38
f 43/43/43 42/42/42 41/41/41
f 42/42/42 44/44/44 41/41/41
f 41/41/41 44/44/44 45/45/45
f 44/44/44 46/46/46 45/45/45
f 45/45/45 46/46/46 47/47/47
f 46/46/46 48/48/48 47/47/47
f 47/47/47 48/48/48 49/49/49
f 48/48/48 50/50/50 49/49/49
f 49/49/49 50/50/50 51/51/51
f 50/50/50 52/52/52 51/51/51
f 51/51/51 52/52/52 53/53/53
f 52/52/52 54/54/54 53/53/53
f 57/57/57 56/56/56 55/55/55
f 56/56/56 58/58/58 55/55/55
f 58/58/58 59/59/59 55/55/55
f 56/56/56 60/60/60 58/58/58
f 63/63/63 62/62/62 61/61/61
f 63/63/63 61/61/61 64/64/64
f 65/65/65 63/63/63 64/64/64
f 61/61/61 66/66/66 64/64/64
