g Soccer_Connect
v 0 -0.04978554 0.06952161
v 0.0491592 0.00413063 0.04915921
v 0.0491592 -0.04978554 0.04915921
v 0 0.00413063 0.06952161
v -0.0491592 -0.04978554 0.04915921
v -0.0491592 0.00413063 0.04915921
v -0.06952161 -0.04978554 0
v -0.06952161 0.00413063 0
v -0.0491592 -0.04978554 -0.04915921
v -0.0491592 0.00413063 -0.04915921
v 0 0.00413063 -0.06952162
v 0 -0.04978554 -0.06952162
v 0.0491592 -0.04978554 -0.04915921
v 0.0491592 0.00413063 -0.04915921
v 0.06952167 -0.04978554 0
v 0.06952167 0.00413063 0
v 0.0491592 -0.04978554 0.04915921
v 0.0491592 0.00413063 0.04915921
v 0 0.00413063 0.02680857
v 0.01895653 0.05872635 0.01895651
v 0.01895653 0.00413063 0.01895652
v 0 0.05872635 0.02680857
v -0.01895653 0.00413063 0.01895652
v -0.01895653 0.05872635 0.01895651
v -0.02680857 0.00413063 -1.192093E-09
v -0.02680857 0.05872635 -1.192093E-09
v -0.01895653 0.00413063 -0.01895652
v -0.01895653 0.05872635 -0.01895653
v 0 0.00413063 -0.02680858
v 0 0.05872635 -0.02680858
v 0.01895653 0.00413063 -0.01895652
v 0.01895653 0.05872635 -0.01895653
v 0.02680859 0.00413063 -1.192093E-09
v 0.02680859 0.05872635 -1.192093E-09
v 0.01895653 0.00413063 0.01895652
v 0.01895653 0.05872635 0.01895651
v 0 -0.1801836 0.06952161
v 0.0491592 -0.04978554 0.04915921
v 0.0491592 -0.1801836 0.04915921
v 0 -0.04978554 0.06952161
v -0.0491592 -0.1801836 0.04915921
v -0.0491592 -0.04978554 0.04915921
v -0.06952161 -0.1801836 0
v -0.06952161 -0.04978554 0
v -0.0491592 -0.1801836 -0.04915921
v -0.0491592 -0.04978554 -0.04915921
v 0 -0.1801836 -0.06952162
v 0 -0.04978554 -0.06952162
v 0.0491592 -0.1801836 -0.04915921
v 0.0491592 -0.04978554 -0.04915921
v 0.06952167 -0.1801836 0
v 0.06952167 -0.04978554 0
v 0.0491592 -0.1801836 0.04915921
v 0.0491592 -0.04978554 0.04915921
v 0.04242557 -0.1801836 0.0424256
v 0.04242557 -0.2157494 0.0424256
v 0 -0.2157494 0.05999885
v 0 -0.1801836 0.05999885
v -0.0424256 -0.2157494 0.0424256
v -0.0424256 -0.1801836 0.0424256
v -0.05999885 -0.2157494 -1.192093E-09
v -0.05999885 -0.1801836 -1.192093E-09
v -0.0424256 -0.2157494 -0.0424256
v -0.0424256 -0.1801836 -0.0424256
v 0 -0.2157494 -0.05999885
v 0 -0.1801836 -0.05999885
v 0.04242557 -0.2157494 -0.0424256
v 0.04242557 -0.1801836 -0.0424256
v 0.05999885 -0.2157494 -1.192093E-09
v 0.05999885 -0.1801836 -1.192093E-09
v 0.04242557 -0.2157494 0.0424256
v 0.04242557 -0.1801836 0.0424256
v 0 -0.2157494 -0.05999885
v -0.0424256 -0.2157494 -0.0424256
v 0 -0.2157494 -1.192093E-09
v 0.04242557 -0.2157494 -0.0424256
v -0.05999885 -0.2157494 -1.192093E-09
v 0.05999885 -0.2157494 -1.192093E-09
v -0.0424256 -0.2157494 0.0424256
v 0.04242557 -0.2157494 0.0424256
v 0 -0.2157494 0.05999885
v 0.02680859 0.05872635 -1.192093E-09
v 0 0.05872635 -3.576279E-09
v 0.01895653 0.05872635 -0.01895653
v 0.01895653 0.05872635 0.01895651
v 0 0.05872635 -0.02680858
v 0 0.05872635 0.02680857
v -0.01895653 0.05872635 -0.01895653
v -0.01895653 0.05872635 0.01895651
v -0.02680857 0.05872635 -1.192093E-09
v 0.06952167 0.00413063 0
v 0.02680859 0.00413063 -1.192093E-09
v 0.01895653 0.00413063 -0.01895652
v 0.0491592 0.00413063 -0.04915921
v 0.0491592 0.00413063 0.04915921
v 0 0.00413063 -0.02680858
v 0.01895653 0.00413063 0.01895652
v 0 0.00413063 -0.06952162
v 0 0.00413063 0.06952161
v -0.01895653 0.00413063 -0.01895652
v 0 0.00413063 0.02680857
v -0.0491592 0.00413063 -0.04915921
v -0.0491592 0.00413063 0.04915921
v -0.02680857 0.00413063 -1.192093E-09
v -0.01895653 0.00413063 0.01895652
v -0.06952161 0.00413063 0
v 0 -0.1801836 -0.06952162
v 0 -0.1801836 -0.05999885
v 0.04242557 -0.1801836 -0.0424256
v -0.0491592 -0.1801836 -0.04915921
v 0.0491592 -0.1801836 -0.04915921
v -0.0424256 -0.1801836 -0.0424256
v 0.05999885 -0.1801836 -1.192093E-09
v -0.06952161 -0.1801836 0
v 0.06952167 -0.1801836 0
v -0.05999885 -0.1801836 -1.192093E-09
v 0.04242557 -0.1801836 0.0424256
v -0.0491592 -0.1801836 0.04915921
v 0.0491592 -0.1801836 0.04915921
v -0.0424256 -0.1801836 0.0424256
v 0 -0.1801836 0.05999885
v 0 -0.1801836 0.06952161
vt 0.9276209 0.7077485
vt 0.9329877 0.7747335
vt 0.9329877 0.7077485
vt 0.9276209 0.7747335
vt 0.9222541 0.7077485
vt 0.9222541 0.7747335
vt 0.9168873 0.7077485
vt 0.9168873 0.7747335
vt 0.9115203 0.7077485
vt 0.9115203 0.7747335
vt 0.9061535 0.7747335
vt 0.9061535 0.7077485
vt 0.9007867 0.7077485
vt 0.9007867 0.7747335
vt 0.8954198 0.7077485
vt 0.8954198 0.7747335
vt 0.8900529 0.7077485
vt 0.8900529 0.7747335
vt 0.9253756 0.7940545
vt 0.9300879 0.8618839
vt 0.9300879 0.7940545
vt 0.9253756 0.8618839
vt 0.9206632 0.7940545
vt 0.9206632 0.8618839
vt 0.915951 0.7940545
vt 0.915951 0.8618839
vt 0.9112387 0.7940545
vt 0.9112387 0.8618839
vt 0.9065263 0.7940545
vt 0.9065264 0.8618839
vt 0.901814 0.7940545
vt 0.901814 0.8618839
vt 0.8971016 0.7940545
vt 0.8971017 0.8618839
vt 0.8923894 0.7940545
vt 0.8923894 0.8618839
vt 0.9861439 0.7713421
vt 0.9912971 0.9333475
vt 0.9912971 0.7713421
vt 0.9861439 0.9333475
vt 0.9809908 0.7713421
vt 0.9809908 0.9333475
vt 0.9758377 0.7713421
vt 0.9758377 0.9333475
vt 0.9706845 0.7713421
vt 0.9706845 0.9333475
vt 0.9655314 0.7713421
vt 0.9655314 0.9333475
vt 0.9603783 0.7713421
vt 0.9603783 0.9333475
vt 0.9552252 0.7713421
vt 0.9552252 0.9333475
vt 0.950072 0.7713421
vt 0.950072 0.9333475
vt 0.9863592 0.753547
vt 0.9863592 0.7093603
vt 0.981912 0.7093603
vt 0.981912 0.753547
vt 0.9774647 0.7093603
vt 0.9774647 0.753547
vt 0.9730173 0.7093603
vt 0.9730173 0.753547
vt 0.9685701 0.7093603
vt 0.9685701 0.753547
vt 0.9641228 0.7093603
vt 0.9641228 0.753547
vt 0.9596756 0.7093603
vt 0.9596756 0.753547
vt 0.9552283 0.7093603
vt 0.9552283 0.753547
vt 0.950781 0.7093603
vt 0.950781 0.753547
vt 0.1146254 0.6828772
vt 0.1021113 0.6526657
vt 0.07189994 0.6828772
vt 0.1021113 0.7130887
vt 0.07189994 0.6401518
vt 0.07189994 0.7256026
vt 0.04168847 0.6526657
vt 0.04168847 0.7130886
vt 0.02917462 0.6828772
vt 0.8318786 0.7788653
vt 0.8318786 0.7930195
vt 0.8418871 0.783011
vt 0.8218702 0.783011
vt 0.8460326 0.7930195
vt 0.8177245 0.7930195
vt 0.8418871 0.8030279
vt 0.8218702 0.8030279
vt 0.8318786 0.8071735
vt 0.8318786 0.7423478
vt 0.8318786 0.7734798
vt 0.8456953 0.7792028
vt 0.8677088 0.7571893
vt 0.7960485 0.7571893
vt 0.8514183 0.7930195
vt 0.818062 0.7792028
vt 0.8825501 0.7930194
vt 0.781207 0.7930195
vt 0.8456953 0.8068361
vt 0.8123389 0.7930195
vt 0.8677088 0.8288496
vt 0.7960485 0.8288496
vt 0.8318786 0.8125591
vt 0.818062 0.8068361
vt 0.8318786 0.843691
vt 0.1310237 0.6828769
vt 0.1229252 0.6828766
vt 0.1079803 0.7189563
vt 0.1137068 0.6410703
vt 0.1137068 0.7246838
vt 0.1079803 0.6467963
vt 0.07190003 0.7339005
vt 0.07190003 0.6237549
vt 0.07190003 0.7420019
vt 0.07190003 0.6318495
vt 0.03581977 0.7189564
vt 0.0300934 0.6410703
vt 0.0300934 0.7246838
vt 0.03581977 0.6467963
vt 0.02087488 0.6828766
vt 0.01277641 0.6828766
vn 0 0 1
vn 0.7071066 0 0.7071069
vn 0.7071066 0 0.7071069
vn 0 0 1
vn -0.7071068 0 0.7071066
vn -0.7071066 0 0.7071068
vn -1 0 0
vn -1 0 0
vn -0.7071068 0 -0.7071066
vn -0.7071068 0 -0.7071068
vn 0 0 -1
vn 0 0 -1
vn 0.7071066 0 -0.7071069
vn 0.7071066 0 -0.7071069
vn 1 0 0
vn 1 0 0
vn 0.7071066 0 0.7071069
vn 0.7071066 0 0.7071069
vn 0 0 1
vn 0.7071068 0 0.7071066
vn 0.7071069 0 0.7071066
vn 0 0 1
vn -0.707107 1.09067E-07 0.7071065
vn -0.707107 1.09067E-07 0.7071065
vn -1 1.09067E-07 0
vn -1 1.09067E-07 0
vn -0.7071071 0 -0.7071064
vn -0.7071071 0 -0.7071065
vn 0 0 -1
vn 0 0 -1
vn 0.7071069 0 -0.7071066
vn 0.7071069 0 -0.7071066
vn 1 0 0
vn 1 0 0
vn 0.7071069 0 0.7071066
vn 0.7071068 0 0.7071066
vn 0 0 1
vn 0.7071066 0 0.7071069
vn 0.7071066 0 0.7071069
vn 0 0 1
vn -0.7071069 0 0.7071066
vn -0.7071068 0 0.7071066
vn -1 0 0
vn -1 0 0
vn -0.7071069 0 -0.7071066
vn -0.7071068 0 -0.7071066
vn 0 0 -1
vn 0 0 -1
vn 0.7071066 0 -0.7071069
vn 0.7071066 0 -0.7071069
vn 1 0 0
vn 1 0 0
vn 0.7071066 0 0.7071069
vn 0.7071066 0 0.7071069
vn 0.7071064 0 0.7071072
vn 0.7071064 0 0.7071072
vn 0 0 1
vn 0 0 1
vn -0.707107 0 0.7071065
vn -0.707107 0 0.7071065
vn -1 0 0
vn -1 0 0
vn -0.7071071 0 -0.7071064
vn -0.7071071 0 -0.7071064
vn 0 0 -1
vn 0 0 -1
vn 0.7071064 0 -0.7071072
vn 0.7071064 0 -0.7071072
vn 1 0 0
vn 1 0 0
vn 0.7071064 0 0.7071072
vn 0.7071064 0 0.7071072
vn 0 -1 0
vn 0 -1 -1.19889E-06
vn 0 -1 -2.997226E-07
vn 0 -1 -5.994451E-07
vn 0 -1 -1.19889E-06
vn 0 -1 0
vn 0 -1 0
vn 0 -1 5.994451E-07
vn 0 -1 0
vn 0 1 0
vn 0 1 0
vn 0 1 0
vn 0 1 0
vn 0 1 0
vn 0 1 0
vn 0 1 0
vn 0 1 0
vn 0 1 6.005069E-06
vn 0 1 -1.048918E-06
vn 0 1 -1.048918E-06
vn 0 1 -3.146757E-06
vn 0 1 -3.146757E-06
vn 0 1 2.097838E-06
vn 0 1 -2.097838E-06
vn 0 1 2.097839E-06
vn 0 1 -2.097838E-06
vn 0 1 2.097838E-06
vn 0 1 0
vn 0 1 2.097839E-06
vn 0 1 0
vn 0 1 1.048919E-06
vn 0 1 1.04892E-06
vn 0 1 1.048919E-06
vn 0 1 1.04892E-06
vn 0 -1 -2.624367E-06
vn 0 -1 -2.624367E-06
vn 0 -1 0
vn 0 -1 -5.248736E-06
vn 0 -1 0
vn 0 -1 -5.248736E-06
vn 0 -1 -8.747859E-07
vn 0 -1 -8.747891E-07
vn 0 -1 -8.747861E-07
vn 0 -1 -8.747895E-07
vn 0 -1 0
vn 0 -1 5.248738E-06
vn 0 -1 0
vn 0 -1 5.248737E-06
vn 0 -1 4.373948E-06
vn 0 -1 4.373948E-06
g Soccer_Connect_0
f 3/3/3 2/2/2 1/1/1
f 2/2/2 4/4/4 1/1/1
f 1/1/1 4/4/4 5/5/5
f 4/4/4 6/6/6 5/5/5
f 5/5/5 6/6/6 7/7/7
f 6/6/6 8/8/8 7/7/7
f 7/7/7 8/8/8 9/9/9
f 8/8/8 10/10/10 9/9/9
f 9/9/9 10/10/10 11/11/11
f 12/12/12 9/9/9 11/11/11
f 12/12/12 11/11/11 13/13/13
f 11/11/11 14/14/14 13/13/13
f 13/13/13 14/14/14 15/15/15
f 14/14/14 16/16/16 15/15/15
f 15/15/15 16/16/16 17/17/17
f 16/16/16 18/18/18 17/17/17
f 21/21/21 20/20/20 19/19/19
f 20/20/20 22/22/22 19/19/19
f 19/19/19 22/22/22 23/23/23
f 22/22/22 24/24/24 23/23/23
f 23/23/23 24/24/24 25/25/25
f 24/24/24 26/26/26 25/25/25
f 25/25/25 26/26/26 27/27/27
f 26/26/26 28/28/28 27/27/27
f 27/27/27 28/28/28 29/29/29
f 28/28/28 30/30/30 29/29/29
f 29/29/29 30/30/30 31/31/31
f 30/30/30 32/32/32 31/31/31
f 31/31/31 32/32/32 33/33/33
f 32/32/32 34/34/34 33/33/33
f 33/33/33 34/34/34 35/35/35
f 34/34/34 36/36/36 35/35/35
f 39/39/39 38/38/38 37/37/37
f 38/38/38 40/40/40 37/37/37
f 37/37/37 40/40/40 41/41/41
f 40/40/40 42/42/42 41/41/41
f 41/41/41 42/42/42 43/43/43
f 42/42/42 44/44/44 43/43/43
f 43/43/43 44/44/44 45/45/45
f 44/44/44 46/46/46 45/45/45
f 45/45/45 46/46/46 47/47/47
f 46/46/46 48/48/48 47/47/47
f 47/47/47 48/48/48 49/49/49
f 48/48/48 50/50/50 49/49/49
f 49/49/49 50/50/50 51/51/51
f 50/50/50 52/52/52 51/51/51
f 51/51/51 52/52/52 53/53/53
f 52/52/52 54/54/54 53/53/53
f 57/57/57 56/56/56 55/55/55
f 58/58/58 57/57/57 55/55/55
f 59/59/59 57/57/57 58/58/58
f 60/60/60 59/59/59 58/58/58
f 61/61/61 59/59/59 60/60/60
f 62/62/62 61/61/61 60/60/60
f 63/63/63 61/61/61 62/62/62
f 64/64/64 63/63/63 62/62/62
f 65/65/65 63/63/63 64/64/64
f 66/66/66 65/65/65 64/64/64
f 67/67/67 65/65/65 66/66/66
f 68/68/68 67/67/67 66/66/66
f 69/69/69 67/67/67 68/68/68
f 70/70/70 69/69/69 68/68/68
f 71/71/71 69/69/69 70/70/70
f 72/72/72 71/71/71 70/70/70
f 75/75/75 74/74/74 73/73/73
f 75/75/75 73/73/73 76/76/76
f 77/77/77 74/74/74 75/75/75
f 75/75/75 76/76/76 78/78/78
f 79/79/79 77/77/77 75/75/75
f 75/75/75 78/78/78 80/80/80
f 81/81/81 79/79/79 75/75/75
f 81/81/81 75/75/75 80/80/80
f 84/84/84 83/83/83 82/82/82
f 82/82/82 83/83/83 85/85/85
f 86/86/86 83/83/83 84/84/84
f 85/85/85 83/83/83 87/87/87
f 88/88/88 83/83/83 86/86/86
f 87/87/87 83/83/83 89/89/89
f 90/90/90 83/83/83 88/88/88
f 89/89/89 83/83/83 90/90/90
f 93/93/93 92/92/92 91/91/91
f 94/94/94 93/93/93 91/91/91
f 91/91/91 92/92/92 95/95/95
f 96/96/96 93/93/93 94/94/94
f 92/92/92 97/97/97 95/95/95
f 98/98/98 96/96/96 94/94/94
f 95/95/95 97/97/97 99/99/99
f 100/100/100 96/96/96 98/98/98
f 97/97/97 101/101/101 99/99/99
f 102/102/102 100/100/100 98/98/98
f 99/99/99 101/101/101 103/103/103
f 104/104/104 100/100/100 102/102/102
f 101/101/101 105/105/105 103/103/103
f 106/106/106 104/104/104 102/102/102
f 103/103/103 105/105/105 106/106/106
f 105/105/105 104/104/104 106/106/106
f 109/109/109 108/108/108 107/107/107
f 107/107/107 108/108/108 110/110/110
f 111/111/111 109/109/109 107/107/107
f 108/108/108 112/112/112 110/110/110
f 113/113/113 109/109/109 111/111/111
f 110/110/110 112/112/112 114/114/114
f 115/115/115 113/113/113 111/111/111
f 112/112/112 116/116/116 114/114/114
f 117/117/117 113/113/113 115/115/115
f 114/114/114 116/116/116 118/118/118
f 119/119/119 117/117/117 115/115/115
f 116/116/116 120/120/120 118/118/118
f 121/121/121 117/117/117 119/119/119
f 118/118/118 120/120/120 122/122/122
f 122/122/122 121/121/121 119/119/119
f 120/120/120 121/121/121 122/122/122
