g Star
v -0.2009681 0.2040736 0.1398247
v -0.4593805 0.1951288 0.04632626
v -0.2009681 0.238288 0.06645174
v -0.4593805 0.1609144 0.1196992
v -0.5146022 0.1445748 0.11208
v -0.5146022 0.1787892 0.03870698
v -0.5411788 0.1187861 0.1000545
v -0.5411788 0.1530004 0.02668147
v -0.5391103 0.08354818 0.08362277
v -0.5391103 0.1177625 0.01024978
v -0.5083967 0.03886114 0.06278487
v -0.5083967 0.07307554 -0.0105881
v -0.3410513 -0.110528 -0.0962038
v -0.3410514 -0.1447424 -0.02283081
v 0.2083587 0.1911188 0.1337839
v 0.08321471 0.4347348 0.1580565
v 0.2083587 0.2253332 0.06041088
v 0.08321472 0.4005205 0.2314295
v 0.04900388 0.4430696 0.2512704
v 0.04900386 0.477284 0.1778974
v 0.01372921 0.4580081 0.2582363
v 0.01372917 0.4922224 0.1848633
v 0.3212532 -0.1657036 -0.0326051
v 0.5023224 0.04108729 -0.02550431
v 0.3212533 -0.1314892 -0.1059781
v 0.5023224 0.006872887 0.04786865
v 0.5364007 0.0495093 0.06775034
v 0.5364007 0.08372367 -0.005622643
v 0.5411764 0.08453058 0.08408104
v 0.5411764 0.118745 0.01070807
v 0.5166494 0.1119367 0.09686071
v 0.5166494 0.1461511 0.02348775
v 0.4628198 0.1317277 0.1060894
v 0.4628199 0.1659421 0.03271641
v 0.2083587 0.2253332 0.06041088
v 0.2083587 0.1911188 0.1337839
v -0.01830091 -0.3732772 -0.1293983
v 0.21875 -0.4418064 -0.2506813
v -0.0183009 -0.3390628 -0.2027713
v 0.21875 -0.4760208 -0.1773084
v 0.2740224 -0.4922192 -0.1848618
v 0.2740224 -0.4580048 -0.2582348
v 0.3122486 -0.4855134 -0.1817348
v 0.3122486 -0.451299 -0.2551078
v 0.3334286 -0.4559034 -0.1679274
v 0.3334287 -0.421689 -0.2413004
v 0.3375625 -0.4033892 -0.1434397
v 0.3375625 -0.3691748 -0.2168127
v 0.3212533 -0.1314892 -0.1059781
v 0.3212532 -0.1657036 -0.0326051
v -0.3410514 -0.1447424 -0.02283081
v -0.3756151 -0.3466035 -0.2062876
v -0.3410513 -0.110528 -0.0962038
v -0.3756151 -0.3808179 -0.1329146
v -0.3755331 -0.4334654 -0.1574645
v -0.3755331 -0.399251 -0.2308375
v -0.3566837 -0.4643422 -0.1718626
v -0.3566837 -0.4301279 -0.2452356
v -0.3190668 -0.4734484 -0.1761089
v -0.3190668 -0.4392341 -0.2494819
v -0.2626823 -0.4607839 -0.1702033
v -0.2626823 -0.4265695 -0.2435763
v -0.0183009 -0.3390628 -0.2027713
v -0.01830091 -0.3732772 -0.1293983
v -0.2009681 0.238288 0.06645174
v -0.06001173 0.4050535 0.2335432
v -0.2009681 0.2040736 0.1398247
v -0.06001174 0.4392678 0.1601702
v -0.02260937 0.4795504 0.1789543
v -0.02260933 0.4453361 0.2523273
v 0.01372917 0.4922224 0.1848633
v 0.01372921 0.4580081 0.2582363
v -0.1038565 0.03835358 0.1545413
v 0.003971194 0.1695214 0.2157059
v 0.1014406 0.03185614 0.1515115
v -0.01224011 -0.2512156 0.01951304
v -0.174115 -0.1365944 0.07296173
v -0.2784385 -0.003119221 0.1352022
v -0.1845433 -0.2998912 -0.003184794
v 0.1580626 -0.1471075 0.06805947
v 0.1558969 -0.3106658 -0.008209011
v 0.2724053 -0.02055287 0.1270729
v -0.06001173 0.4050535 0.2335432
v -0.1038565 0.03835358 0.1545413
v -0.2009681 0.2040736 0.1398247
v 0.003971194 0.1695214 0.2157059
v -0.02260933 0.4453361 0.2523273
v 0.01372921 0.4580081 0.2582363
v -0.2784385 -0.003119221 0.1352022
v -0.2009681 0.2040736 0.1398247
v -0.1038565 0.03835358 0.1545413
v -0.4593805 0.1609144 0.1196992
v -0.5146022 0.1445748 0.11208
v -0.5411788 0.1187861 0.1000545
v -0.5411788 0.1187861 0.1000545
v -0.2784385 -0.003119221 0.1352022
v -0.5391103 0.08354818 0.08362277
v -0.5083967 0.03886114 0.06278487
v -0.174115 -0.1365944 0.07296173
v -0.3410514 -0.1447424 -0.02283081
v -0.1845433 -0.2998912 -0.003184794
v -0.3410514 -0.1447424 -0.02283081
v -0.174115 -0.1365944 0.07296173
v -0.3756151 -0.3808179 -0.1329146
v -0.3755331 -0.4334654 -0.1574645
v -0.3566837 -0.4643422 -0.1718626
v -0.3566837 -0.4643422 -0.1718626
v -0.1845433 -0.2998912 -0.003184794
v -0.3190668 -0.4734484 -0.1761089
v -0.2626823 -0.4607839 -0.1702033
v -0.01224011 -0.2512156 0.01951304
v -0.01830091 -0.3732772 -0.1293983
v 0.1558969 -0.3106658 -0.008209011
v -0.01830091 -0.3732772 -0.1293983
v -0.01224011 -0.2512156 0.01951304
v 0.21875 -0.4760208 -0.1773084
v 0.2740224 -0.4922192 -0.1848618
v 0.3122486 -0.4855134 -0.1817348
v 0.3122486 -0.4855134 -0.1817348
v 0.1558969 -0.3106658 -0.008209011
v 0.3334286 -0.4559034 -0.1679274
v 0.3375625 -0.4033892 -0.1434397
v 0.1580626 -0.1471075 0.06805947
v 0.3212532 -0.1657036 -0.0326051
v 0.2724053 -0.02055287 0.1270729
v 0.3212532 -0.1657036 -0.0326051
v 0.1580626 -0.1471075 0.06805947
v 0.5023224 0.006872887 0.04786865
v 0.5364007 0.0495093 0.06775034
v 0.5411764 0.08453058 0.08408104
v 0.5411764 0.08453058 0.08408104
v 0.2724053 -0.02055287 0.1270729
v 0.5166494 0.1119367 0.09686071
v 0.4628198 0.1317277 0.1060894
v 0.1014406 0.03185614 0.1515115
v 0.2083587 0.1911188 0.1337839
v 0.003971194 0.1695214 0.2157059
v 0.2083587 0.1911188 0.1337839
v 0.1014406 0.03185614 0.1515115
v 0.08321472 0.4005205 0.2314295
v 0.04900388 0.4430696 0.2512704
v 0.01372921 0.4580081 0.2582363
v -0.1038565 0.1430387 -0.06995674
v 0.1014406 0.1365413 -0.07298652
v 0.003971213 0.2742065 -0.008792164
v -0.01224008 -0.1465305 -0.204985
v -0.1741149 -0.03190929 -0.1515363
v -0.2784385 0.1015659 -0.08929586
v -0.1845433 -0.1952061 -0.2276829
v 0.1580627 -0.0424223 -0.1564386
v 0.2724053 0.08413225 -0.09742521
v 0.155897 -0.2059807 -0.2327071
v -0.1038565 0.1430387 -0.06995674
v -0.06001174 0.4392678 0.1601702
v -0.2009681 0.238288 0.06645174
v 0.003971213 0.2742065 -0.008792164
v -0.02260937 0.4795504 0.1789543
v 0.01372917 0.4922224 0.1848633
v -0.2009681 0.238288 0.06645174
v -0.2784385 0.1015659 -0.08929586
v -0.1038565 0.1430387 -0.06995674
v -0.4593805 0.1951288 0.04632626
v -0.5146022 0.1787892 0.03870698
v -0.5411788 0.1530004 0.02668147
v -0.5411788 0.1530004 0.02668147
v -0.5391103 0.1177625 0.01024978
v -0.2784385 0.1015659 -0.08929586
v -0.5083967 0.07307554 -0.0105881
v -0.1741149 -0.03190929 -0.1515363
v -0.3410513 -0.110528 -0.0962038
v -0.3410513 -0.110528 -0.0962038
v -0.1845433 -0.1952061 -0.2276829
v -0.1741149 -0.03190929 -0.1515363
v -0.3756151 -0.3466035 -0.2062876
v -0.3755331 -0.399251 -0.2308375
v -0.3566837 -0.4301279 -0.2452356
v -0.3566837 -0.4301279 -0.2452356
v -0.3190668 -0.4392341 -0.2494819
v -0.1845433 -0.1952061 -0.2276829
v -0.2626823 -0.4265695 -0.2435763
v -0.01224008 -0.1465305 -0.204985
v -0.0183009 -0.3390628 -0.2027713
v -0.0183009 -0.3390628 -0.2027713
v 0.155897 -0.2059807 -0.2327071
v -0.01224008 -0.1465305 -0.204985
v 0.21875 -0.4418064 -0.2506813
v 0.2740224 -0.4580048 -0.2582348
v 0.3122486 -0.451299 -0.2551078
v 0.3122486 -0.451299 -0.2551078
v 0.3334287 -0.421689 -0.2413004
v 0.155897 -0.2059807 -0.2327071
v 0.3375625 -0.3691748 -0.2168127
v 0.1580627 -0.0424223 -0.1564386
v 0.3212533 -0.1314892 -0.1059781
v 0.3212533 -0.1314892 -0.1059781
v 0.2724053 0.08413225 -0.09742521
v 0.1580627 -0.0424223 -0.1564386
v 0.5023224 0.04108729 -0.02550431
v 0.5364007 0.08372367 -0.005622643
v 0.5411764 0.118745 0.01070807
v 0.5411764 0.118745 0.01070807
v 0.5166494 0.1461511 0.02348775
v 0.2724053 0.08413225 -0.09742521
v 0.4628199 0.1659421 0.03271641
v 0.1014406 0.1365413 -0.07298652
v 0.2083587 0.2253332 0.06041088
v 0.2083587 0.2253332 0.06041088
v 0.003971213 0.2742065 -0.008792164
v 0.1014406 0.1365413 -0.07298652
v 0.08321471 0.4347348 0.1580565
v 0.04900386 0.477284 0.1778974
v 0.01372917 0.4922224 0.1848633
vt 0.6900501 0.3659133
vt 0.6805694 0.3485886
vt 0.6805694 0.3659133
vt 0.6900501 0.3485886
vt 0.6900501 0.3448864
vt 0.6805694 0.3448864
vt 0.6900501 0.3429787
vt 0.6805694 0.3429787
vt 0.6900501 0.3403721
vt 0.6805694 0.3403721
vt 0.6900501 0.3370663
vt 0.6805694 0.3370663
vt 0.6805694 0.3234845
vt 0.6900501 0.3234845
vt 0.6900501 0.3659133
vt 0.6805694 0.3807806
vt 0.6805694 0.3659133
vt 0.6900501 0.3807806
vt 0.6900501 0.3837605
vt 0.6805694 0.3837605
vt 0.6900501 0.3863708
vt 0.6805694 0.3863708
vt 0.6900501 0.3234845
vt 0.6805694 0.3370663
vt 0.6805694 0.3234845
vt 0.6900501 0.3370663
vt 0.6900501 0.3403721
vt 0.6805694 0.3403721
vt 0.6900501 0.3429787
vt 0.6805694 0.3429787
vt 0.6900501 0.3448864
vt 0.6805694 0.3448864
vt 0.6900501 0.3485886
vt 0.6805694 0.3485886
vt 0.6805694 0.3659133
vt 0.6900501 0.3659133
vt 0.6900499 0.2771562
vt 0.6805694 0.2935404
vt 0.6805694 0.2771562
vt 0.6900501 0.2935404
vt 0.6900501 0.2973206
vt 0.6805694 0.2973206
vt 0.6900501 0.2998425
vt 0.6805694 0.2998425
vt 0.6900501 0.3021364
vt 0.6805694 0.3021364
vt 0.6900501 0.3060211
vt 0.6805694 0.3060211
vt 0.6805694 0.3234845
vt 0.6900501 0.3234845
vt 0.6900501 0.3234845
vt 0.6805694 0.3060211
vt 0.6805694 0.3234845
vt 0.6900501 0.3060211
vt 0.6900501 0.3021265
vt 0.6805694 0.3021265
vt 0.6900501 0.2998425
vt 0.6805694 0.2998425
vt 0.6900501 0.2973206
vt 0.6805694 0.2973206
vt 0.6900501 0.2935404
vt 0.6805694 0.2935404
vt 0.6805694 0.2771562
vt 0.6900501 0.2771562
vt 0.6805694 0.3659133
vt 0.6900501 0.3807806
vt 0.6900501 0.3659133
vt 0.6805694 0.3807806
vt 0.6805694 0.3837605
vt 0.6900501 0.3837605
vt 0.6805694 0.3863708
vt 0.6900501 0.3863708
vt 0.8526888 0.5021687
vt 0.8195468 0.5516524
vt 0.7862867 0.5021007
vt 0.8193619 0.3966571
vt 0.8731301 0.4370011
vt 0.9085504 0.4849336
vt 0.8743944 0.3767975
vt 0.7656897 0.4368909
vt 0.7642813 0.3766845
vt 0.7303839 0.4847507
vt 0.8427969 0.6246285
vt 0.8526888 0.5021687
vt 0.8857406 0.5490825
vt 0.8195468 0.5516524
vt 0.8312337 0.6398737
vt 0.8196583 0.6449475
vt 0.9085504 0.4849336
vt 0.8857406 0.5490825
vt 0.8526888 0.5021687
vt 0.9686609 0.5302783
vt 0.9862888 0.5236413
vt 0.9945415 0.5138515
vt 0.9945415 0.5138515
vt 0.9085504 0.4849336
vt 0.9934193 0.500909
vt 0.9829219 0.4848137
vt 0.8731301 0.4370011
vt 0.9264975 0.4191495
vt 0.8743944 0.3767975
vt 0.9264975 0.4191495
vt 0.8731301 0.4370011
vt 0.9346206 0.3318935
vt 0.9339155 0.3125226
vt 0.9274287 0.3013746
vt 0.9274287 0.3013746
vt 0.8743944 0.3767975
vt 0.9151599 0.2984495
vt 0.8971089 0.3037475
vt 0.8193619 0.3966571
vt 0.8192924 0.3387108
vt 0.7642813 0.3766845
vt 0.8192924 0.3387108
vt 0.8193619 0.3966571
vt 0.7413926 0.3035877
vt 0.723329 0.2982528
vt 0.711067 0.3011527
vt 0.711067 0.3011527
vt 0.7642813 0.3766845
vt 0.7046068 0.3122874
vt 0.703948 0.3316569
vt 0.7656897 0.4368909
vt 0.7122796 0.4189297
vt 0.7303839 0.4847507
vt 0.7122796 0.4189297
vt 0.7656897 0.4368909
vt 0.6560117 0.4844784
vt 0.6455526 0.5005522
vt 0.6444612 0.5134925
vt 0.6444612 0.5134925
vt 0.7303839 0.4847507
vt 0.6527375 0.5232992
vt 0.6703814 0.5299724
vt 0.7862867 0.5021007
vt 0.7533467 0.5489468
vt 0.8195468 0.5516524
vt 0.7533467 0.5489468
vt 0.7862867 0.5021007
vt 0.7964712 0.624581
vt 0.8080708 0.63985
vt 0.8196583 0.6449475
vt 0.8526888 0.5021687
vt 0.7862867 0.5021007
vt 0.8195468 0.5516524
vt 0.8193619 0.3966571
vt 0.8731301 0.4370011
vt 0.9085504 0.4849336
vt 0.8743944 0.3767975
vt 0.7656897 0.4368909
vt 0.7303839 0.4847507
vt 0.7642813 0.3766845
vt 0.8526888 0.5021687
vt 0.8427969 0.6246285
vt 0.8857406 0.5490825
vt 0.8195468 0.5516524
vt 0.8312337 0.6398737
vt 0.8196583 0.6449475
vt 0.8857406 0.5490825
vt 0.9085504 0.4849336
vt 0.8526888 0.5021687
vt 0.9686609 0.5302783
vt 0.9862888 0.5236413
vt 0.9945415 0.5138515
vt 0.9945415 0.5138515
vt 0.9934193 0.500909
vt 0.9085504 0.4849336
vt 0.9829219 0.4848137
vt 0.8731301 0.4370011
vt 0.9264975 0.4191495
vt 0.9264975 0.4191495
vt 0.8743944 0.3767975
vt 0.8731301 0.4370011
vt 0.9346206 0.3318935
vt 0.9339155 0.3125226
vt 0.9274287 0.3013746
vt 0.9274287 0.3013746
vt 0.9151599 0.2984495
vt 0.8743944 0.3767975
vt 0.8971089 0.3037475
vt 0.8193619 0.3966571
vt 0.8192924 0.3387108
vt 0.8192924 0.3387108
vt 0.7642813 0.3766845
vt 0.8193619 0.3966571
vt 0.7413926 0.3035877
vt 0.723329 0.2982528
vt 0.711067 0.3011527
vt 0.711067 0.3011527
vt 0.7046068 0.3122874
vt 0.7642813 0.3766845
vt 0.703948 0.3316569
vt 0.7656897 0.4368909
vt 0.7122796 0.4189297
vt 0.7122796 0.4189297
vt 0.7303839 0.4847507
vt 0.7656897 0.4368909
vt 0.6560117 0.4844784
vt 0.6455526 0.5005522
vt 0.6444612 0.5134925
vt 0.6444612 0.5134925
vt 0.6527375 0.5232993
vt 0.7303839 0.4847507
vt 0.6703814 0.5299724
vt 0.7862867 0.5021007
vt 0.7533467 0.5489468
vt 0.7533467 0.5489468
vt 0.8195468 0.5516524
vt 0.7862867 0.5021007
vt 0.7964712 0.624581
vt 0.8080708 0.63985
vt 0.8196583 0.6449475
vn -0.1812308 0.8912999 0.4156199
vn -0.2463417 0.8783782 0.4095944
vn -0.1812308 0.8912999 0.4156199
vn -0.2463416 0.8783782 0.4095943
vn -0.537561 0.7642213 0.3563622
vn -0.5375611 0.7642213 0.3563621
vn -0.9396926 0.3099757 0.144544
vn -0.9396926 0.3099755 0.1445439
vn -0.9538102 -0.2722639 -0.1269587
vn -0.9538102 -0.2722639 -0.1269585
vn -0.8116875 -0.5293671 -0.2468476
vn -0.8116877 -0.5293671 -0.2468474
vn -0.7709743 -0.5771968 -0.2691514
vn -0.7709743 -0.5771968 -0.2691515
vn 0.8793041 0.4316389 0.2012761
vn 0.8456241 0.4837681 0.2255843
vn 0.8793041 0.4316389 0.2012761
vn 0.8456239 0.4837684 0.2255843
vn 0.6358392 0.6995078 0.3261858
vn 0.6358382 0.6995088 0.3261858
vn 0.03489891 0.9057561 0.4223601
vn 0.03489812 0.9057562 0.4223598
vn 0.7246709 -0.6245325 -0.2912239
vn 0.7689661 -0.579393 -0.2701755
vn 0.7246709 -0.6245326 -0.2912237
vn 0.7689661 -0.579393 -0.2701756
vn 0.9305307 -0.3319024 -0.1547687
vn 0.9305305 -0.3319031 -0.1547686
vn 0.961262 0.2498112 0.1164895
vn 0.961262 0.2498112 0.1164895
vn 0.5950713 0.7283748 0.3396473
vn 0.5950709 0.728375 0.3396474
vn 0.313348 0.8606644 0.401335
vn 0.3133482 0.8606642 0.4013351
vn 0.2493908 0.8776712 0.4092647
vn 0.2493909 0.8776712 0.4092646
vn -0.431433 -0.8176211 -0.3812629
vn -0.3703771 -0.8418526 -0.3925622
vn -0.4314331 -0.8176211 -0.3812629
vn -0.3703771 -0.8418526 -0.3925623
vn -0.06073991 -0.9046345 -0.4218378
vn -0.06074031 -0.9046345 -0.4218377
vn 0.5591926 -0.7513636 -0.350366
vn 0.5591924 -0.7513638 -0.3503659
vn 0.9482253 -0.2878422 -0.1342221
vn 0.9482254 -0.2878419 -0.1342222
vn 0.9999896 -0.004130788 -0.001925875
vn 0.9999896 -0.004130309 -0.001926001
vn 0.9980719 0.05625268 0.02623172
vn 0.9980719 0.05625266 0.02623185
vn -0.991311 0.1192151 0.05559056
vn -0.9978716 0.05909966 0.02755855
vn -0.991311 0.1192152 0.05559052
vn -0.9978716 0.05909968 0.02755859
vn -0.9680701 -0.2271928 -0.1059417
vn -0.9680702 -0.2271928 -0.1059416
vn -0.6156616 -0.7141804 -0.3330275
vn -0.6156626 -0.7141799 -0.3330268
vn -0.009036723 -0.9062712 -0.4226002
vn -0.009037032 -0.9062712 -0.4226002
vn 0.3046793 -0.8632176 -0.4025245
vn 0.3046797 -0.8632174 -0.4025247
vn 0.3674516 -0.8429049 -0.3930528
vn 0.3674516 -0.842905 -0.3930529
vn -0.84394 0.4861777 0.2267084
vn -0.8063294 0.5360508 0.2499646
vn -0.84394 0.4861776 0.2267084
vn -0.8063295 0.5360507 0.2499645
vn -0.5804499 0.7380028 0.3441363
vn -0.5804503 0.7380028 0.3441359
vn 0.03489812 0.9057562 0.4223598
vn 0.03489891 0.9057561 0.4223601
vn 0 -0.4226182 0.9063078
vn 0 -0.4226182 0.9063078
vn 0 -0.4226182 0.9063078
vn 0 -0.4226182 0.9063078
vn 0 -0.4226182 0.9063078
vn 0 -0.4226182 0.9063078
vn 0 -0.4226182 0.9063078
vn 0 -0.4226182 0.9063078
vn 0 -0.4226182 0.9063078
vn 0 -0.4226183 0.9063078
vn -0.3235316 -0.154265 0.9335575
vn -0.3653148 -0.1541036 0.9180399
vn -0.3915541 -0.1488122 0.9080421
vn -0.3189393 -0.1593139 0.9342895
vn -0.1730524 -0.1460045 0.9740306
vn -0.1107012 -0.1412874 0.9837598
vn -0.104196 -0.002406572 0.9945538
vn -0.09547946 0.01349394 0.9953399
vn -0.1149628 0.02082771 0.9931514
vn -0.110621 -0.02813049 0.9934645
vn -0.1941527 -0.1589037 0.9680157
vn -0.2252863 -0.2113353 0.9510959
vn -0.3078319 -0.4168789 0.8552494
vn -0.3367595 -0.5910724 0.7329574
vn -0.3191232 -0.4700877 0.8229082
vn -0.3422363 -0.5926542 0.7291332
vn -0.3490502 -0.624492 0.6986943
vn -0.357701 -0.642175 0.6779833
vn -0.4298689 -0.3540726 0.8305692
vn -0.4411968 -0.3398916 0.8305535
vn -0.4526591 -0.3529347 0.8188632
vn -0.4092436 -0.3704463 0.83384
vn -0.3121078 -0.4922614 0.8125684
vn -0.2697347 -0.5372918 0.7990999
vn -0.07954997 -0.6719589 0.7363036
vn 0.1108101 -0.7398537 0.6635795
vn -0.0241769 -0.6961411 0.7174978
vn 0.1120181 -0.7442462 0.6584448
vn 0.1495895 -0.7558311 0.6374499
vn 0.1704825 -0.7654528 0.6204979
vn -0.1614778 -0.7434573 0.6489962
vn -0.1771953 -0.7470849 0.6406763
vn -0.1647962 -0.7595111 0.6292737
vn -0.1423059 -0.7336256 0.6644866
vn 0.001259207 -0.6969461 0.7171224
vn 0.05858082 -0.6763306 0.7342651
vn 0.2586671 -0.5540154 0.7913017
vn 0.4052437 -0.4000469 0.8220341
vn 0.3041809 -0.5117665 0.8034731
vn 0.4114671 -0.3995461 0.819181
vn 0.4415015 -0.3666145 0.8189446
vn 0.4630648 -0.3482799 0.8150288
vn 0.33007 -0.6324441 0.7007626
vn 0.3316838 -0.6453584 0.6881121
vn 0.3508094 -0.6370266 0.6863891
vn 0.3212938 -0.6157668 0.7194453
vn 0.312886 -0.4900908 0.8135806
vn 0.3059396 -0.436305 0.8461909
vn 0.2394148 -0.2260419 0.9442381
vn 0.1396442 -0.04125335 0.989342
vn 0.2121707 -0.1717629 0.9620193
vn 0.1422823 -0.03491743 0.9892101
vn 0.1232733 0.005273647 0.9923587
vn 0.1157072 0.03282493 0.9927408
vn 0.3654721 -0.1744495 0.914329
vn 0.382187 -0.1752949 0.9073064
vn 0.381608 -0.1547506 0.9112779
vn 0.3408753 -0.1797467 0.922765
vn 0.192115 -0.1575617 0.9686414
vn 0.1305009 -0.1489213 0.9801999
vn 0 0.4226182 -0.9063078
vn 0 0.4226182 -0.9063078
vn 0 0.4226183 -0.9063078
vn 0 0.4226181 -0.9063078
vn 0 0.4226182 -0.9063078
vn 0 0.4226182 -0.9063078
vn 0 0.4226181 -0.9063078
vn 0 0.4226182 -0.9063079
vn 0 0.4226181 -0.9063078
vn 0 0.422618 -0.9063079
vn -0.3653145 0.6042035 -0.708155
vn -0.3235316 0.6159866 -0.7182533
vn -0.3915539 0.5999459 -0.6976752
vn -0.318939 0.6133022 -0.7225913
vn -0.1730513 0.6523009 -0.737941
vn -0.1106994 0.6627859 -0.7405812
vn -0.09547921 0.7711483 -0.6294553
vn -0.1041957 0.7603256 -0.6411306
vn -0.1149626 0.7741858 -0.6224306
vn -0.1106208 0.742956 -0.660136
vn -0.1941525 0.6394017 -0.7439559
vn -0.2252861 0.5927382 -0.773245
vn -0.3078316 0.3871946 -0.8690916
vn -0.319123 0.3282178 -0.8890634
vn -0.3367593 0.1815438 -0.9239237
vn -0.3422361 0.1775977 -0.9226773
vn -0.34905 0.1338149 -0.9275007
vn -0.3577007 0.106583 -0.9277339
vn -0.4411965 0.4177627 -0.7942417
vn -0.4298688 0.4086595 -0.805115
vn -0.4526589 0.4004235 -0.7967189
vn -0.4092435 0.4006402 -0.8197604
vn -0.312108 0.3060442 -0.8994029
vn -0.269735 0.2667817 -0.9252408
vn -0.07955004 0.1321145 -0.9880372
vn -0.02417677 0.1021643 -0.9944738
vn 0.1108103 0.03276248 -0.9933014
vn 0.1120186 0.0260054 -0.9933658
vn 0.1495899 0.002475825 -0.988745
vn 0.1704829 -0.01669496 -0.9852192
vn -0.177195 0.01056949 -0.9841191
vn -0.1614774 0.01927477 -0.9866881
vn -0.1647957 -0.006153093 -0.9863085
vn -0.1423056 0.03746101 -0.9891137
vn 0.001259504 0.1013593 -0.994849
vn 0.05858101 0.1277428 -0.9900758
vn 0.258667 0.2500579 -0.9330394
vn 0.304181 0.286539 -0.9084984
vn 0.4052439 0.3725693 -0.834847
vn 0.4114676 0.370706 -0.8326293
vn 0.4415016 0.3916925 -0.8072505
vn 0.4630651 0.400478 -0.7906884
vn 0.3316841 0.112296 -0.9366831
vn 0.3300702 0.1302878 -0.9349217
vn 0.3508096 0.1163317 -0.929193
vn 0.321294 0.1553196 -0.9341552
vn 0.3128862 0.3082142 -0.8983909
vn 0.3059399 0.3677678 -0.8781502
vn 0.2394149 0.5780312 -0.7801028
vn 0.212171 0.6265422 -0.7499523
vn 0.1396444 0.7313626 -0.667539
vn 0.1422825 0.7353341 -0.6626005
vn 0.1232735 0.7635806 -0.6338363
vn 0.1157073 0.7815829 -0.6129763
vn 0.3821873 0.5823596 -0.7174889
vn 0.3654723 0.5882825 -0.7213554
vn 0.3816083 0.5986075 -0.7043041
vn 0.3408769 0.5913392 -0.7308357
vn 0.1921138 0.6407437 -0.7433302
vn 0.130498 0.6551523 -0.7441408
g Star_0
f 3/3/3 2/2/2 1/1/1
f 4/4/4 1/1/1 2/2/2
f 4/4/4 2/2/2 5/5/5
f 6/6/6 5/5/5 2/2/2
f 5/5/5 6/6/6 7/7/7
f 8/8/8 7/7/7 6/6/6
f 7/7/7 8/8/8 9/9/9
f 10/10/10 9/9/9 8/8/8
f 9/9/9 10/10/10 11/11/11
f 12/12/12 11/11/11 10/10/10
f 12/12/12 13/13/13 11/11/11
f 14/14/14 11/11/11 13/13/13
f 17/17/17 16/16/16 15/15/15
f 18/18/18 15/15/15 16/16/16
f 18/18/18 16/16/16 19/19/19
f 20/20/20 19/19/19 16/16/16
f 19/19/19 20/20/20 21/21/21
f 22/22/22 21/21/21 20/20/20
f 25/25/25 24/24/24 23/23/23
f 26/26/26 23/23/23 24/24/24
f 26/26/26 24/24/24 27/27/27
f 28/28/28 27/27/27 24/24/24
f 27/27/27 28/28/28 29/29/29
f 30/30/30 29/29/29 28/28/28
f 29/29/29 30/30/30 31/31/31
f 32/32/32 31/31/31 30/30/30
f 31/31/31 32/32/32 33/33/33
f 34/34/34 33/33/33 32/32/32
f 34/34/34 35/35/35 33/33/33
f 36/36/36 33/33/33 35/35/35
f 39/39/39 38/38/38 37/37/37
f 40/40/40 37/37/37 38/38/38
f 40/40/40 38/38/38 41/41/41
f 42/42/42 41/41/41 38/38/38
f 41/41/41 42/42/42 43/43/43
f 44/44/44 43/43/43 42/42/42
f 43/43/43 44/44/44 45/45/45
f 46/46/46 45/45/45 44/44/44
f 45/45/45 46/46/46 47/47/47
f 48/48/48 47/47/47 46/46/46
f 48/48/48 49/49/49 47/47/47
f 50/50/50 47/47/47 49/49/49
f 53/53/53 52/52/52 51/51/51
f 54/54/54 51/51/51 52/52/52
f 54/54/54 52/52/52 55/55/55
f 56/56/56 55/55/55 52/52/52
f 55/55/55 56/56/56 57/57/57
f 58/58/58 57/57/57 56/56/56
f 57/57/57 58/58/58 59/59/59
f 60/60/60 59/59/59 58/58/58
f 59/59/59 60/60/60 61/61/61
f 62/62/62 61/61/61 60/60/60
f 62/62/62 63/63/63 61/61/61
f 64/64/64 61/61/61 63/63/63
f 67/67/67 66/66/66 65/65/65
f 68/68/68 65/65/65 66/66/66
f 68/68/68 66/66/66 69/69/69
f 70/70/70 69/69/69 66/66/66
f 69/69/69 70/70/70 71/71/71
f 72/72/72 71/71/71 70/70/70
f 75/75/75 74/74/74 73/73/73
f 76/76/76 75/75/75 73/73/73
f 77/77/77 76/76/76 73/73/73
f 78/78/78 77/77/77 73/73/73
f 79/79/79 76/76/76 77/77/77
f 80/80/80 75/75/75 76/76/76
f 81/81/81 80/80/80 76/76/76
f 82/82/82 75/75/75 80/80/80
f 85/85/85 84/84/84 83/83/83
f 86/86/86 83/83/83 84/84/84
f 83/83/83 86/86/86 87/87/87
f 87/87/87 86/86/86 88/88/88
f 91/91/91 90/90/90 89/89/89
f 92/92/92 89/89/89 90/90/90
f 93/93/93 89/89/89 92/92/92
f 94/94/94 89/89/89 93/93/93
f 97/97/97 96/96/96 95/95/95
f 98/98/98 96/96/96 97/97/97
f 96/96/96 98/98/98 99/99/99
f 100/100/100 99/99/99 98/98/98
f 103/103/103 102/102/102 101/101/101
f 104/104/104 101/101/101 102/102/102
f 105/105/105 101/101/101 104/104/104
f 106/106/106 101/101/101 105/105/105
f 109/109/109 108/108/108 107/107/107
f 110/110/110 108/108/108 109/109/109
f 108/108/108 110/110/110 111/111/111
f 112/112/112 111/111/111 110/110/110
f 115/115/115 114/114/114 113/113/113
f 116/116/116 113/113/113 114/114/114
f 117/117/117 113/113/113 116/116/116
f 118/118/118 113/113/113 117/117/117
f 121/121/121 120/120/120 119/119/119
f 122/122/122 120/120/120 121/121/121
f 120/120/120 122/122/122 123/123/123
f 124/124/124 123/123/123 122/122/122
f 127/127/127 126/126/126 125/125/125
f 128/128/128 125/125/125 126/126/126
f 129/129/129 125/125/125 128/128/128
f 130/130/130 125/125/125 129/129/129
f 133/133/133 132/132/132 131/131/131
f 134/134/134 132/132/132 133/133/133
f 132/132/132 134/134/134 135/135/135
f 136/136/136 135/135/135 134/134/134
f 139/139/139 138/138/138 137/137/137
f 140/140/140 137/137/137 138/138/138
f 141/141/141 137/137/137 140/140/140
f 142/142/142 137/137/137 141/141/141
f 145/145/145 144/144/144 143/143/143
f 144/144/144 146/146/146 143/143/143
f 146/146/146 147/147/147 143/143/143
f 147/147/147 148/148/148 143/143/143
f 146/146/146 149/149/149 147/147/147
f 150/150/150 146/146/146 144/144/144
f 144/144/144 151/151/151 150/150/150
f 150/150/150 152/152/152 146/146/146
f 155/155/155 154/154/154 153/153/153
f 156/156/156 153/153/153 154/154/154
f 156/156/156 154/154/154 157/157/157
f 156/156/156 157/157/157 158/158/158
f 161/161/161 160/160/160 159/159/159
f 162/162/162 159/159/159 160/160/160
f 160/160/160 163/163/163 162/162/162
f 160/160/160 164/164/164 163/163/163
f 167/167/167 166/166/166 165/165/165
f 167/167/167 168/168/168 166/166/166
f 167/167/167 169/169/169 168/168/168
f 170/170/170 168/168/168 169/169/169
f 173/173/173 172/172/172 171/171/171
f 174/174/174 171/171/171 172/172/172
f 172/172/172 175/175/175 174/174/174
f 172/172/172 176/176/176 175/175/175
f 179/179/179 178/178/178 177/177/177
f 179/179/179 180/180/180 178/178/178
f 179/179/179 181/181/181 180/180/180
f 182/182/182 180/180/180 181/181/181
f 185/185/185 184/184/184 183/183/183
f 186/186/186 183/183/183 184/184/184
f 184/184/184 187/187/187 186/186/186
f 184/184/184 188/188/188 187/187/187
f 191/191/191 190/190/190 189/189/189
f 191/191/191 192/192/192 190/190/190
f 191/191/191 193/193/193 192/192/192
f 194/194/194 192/192/192 193/193/193
f 197/197/197 196/196/196 195/195/195
f 198/198/198 195/195/195 196/196/196
f 196/196/196 199/199/199 198/198/198
f 196/196/196 200/200/200 199/199/199
f 203/203/203 202/202/202 201/201/201
f 203/203/203 204/204/204 202/202/202
f 203/203/203 205/205/205 204/204/204
f 206/206/206 204/204/204 205/205/205
f 209/209/209 208/208/208 207/207/207
f 210/210/210 207/207/207 208/208/208
f 208/208/208 211/211/211 210/210/210
f 208/208/208 212/212/212 211/211/211
