g StudGold_MidLOD
v -0.3457826 0.2231092 0.2659013
v -0.3457827 -0.2659013 -0.2231091
v -0.48901 -0.02139604 0.02139608
v -0.3457827 -0.2659013 -0.2231091
v 0.3457814 -0.2659014 -0.2231091
v 9.45877E-08 -0.3671784 -0.3243861
v -0.3457827 -0.1794559 -0.3095545
v 9.45877E-08 -0.3671784 -0.3243861
v 1.077035E-07 -0.280733 -0.4108315
v -0.3457827 -0.2659013 -0.2231091
v -0.48901 0.06504932 -0.06504931
v -0.48901 -0.02139604 0.02139608
v -0.3457826 0.3095546 0.1794559
v -0.3457826 0.2231092 0.2659013
v 1.504541E-07 0.4108315 0.280733
v 1.373383E-07 0.3243862 0.3671784
v 0.3457814 -0.2659014 -0.2231091
v 1.077035E-07 -0.280733 -0.4108315
v 9.45877E-08 -0.3671784 -0.3243861
v 0.3457814 -0.179456 -0.3095545
v 0.48901 -0.02139615 0.02139612
v 0.48901 0.06504922 -0.06504926
v 0.3457815 0.2231091 0.2659013
v 0.3457815 0.3095545 0.1794559
v 1.373383E-07 0.3243862 0.3671784
v 1.504541E-07 0.4108315 0.280733
v 0.3457815 0.2231091 0.2659013
v -0.3457826 0.2231092 0.2659013
v 1.373383E-07 0.3243862 0.3671784
v 0.3457814 -0.2659014 -0.2231091
v 0.48901 -0.02139615 0.02139612
v -0.3457827 -0.2659013 -0.2231091
v -4.350152E-05 0.06505635 -0.06504389
v 0.48901 0.06504922 -0.06504926
v 0.3457815 0.3095545 0.1794559
v 1.504541E-07 0.4108315 0.280733
v 0.3457814 -0.179456 -0.3095545
v 0.48901 0.06504922 -0.06504926
v -4.350152E-05 0.06505635 -0.06504389
v 1.077035E-07 -0.280733 -0.4108315
v -0.3457827 -0.1794559 -0.3095545
v 1.077035E-07 -0.280733 -0.4108315
v -4.350152E-05 0.06505635 -0.06504389
v -0.48901 0.06504932 -0.06504931
v -0.3457826 0.3095546 0.1794559
v -0.48901 0.06504932 -0.06504931
v -4.350152E-05 0.06505635 -0.06504389
v 1.504541E-07 0.4108315 0.280733
v -0.2098235 0.2134167 0.08331744
v -7.878212E-07 0.4361469 -0.001697928
v -8.111672E-07 0.2822741 0.1521748
v -0.2098234 0.3672894 -0.07055537
v -0.3072025 0.06504967 -0.0650496
v -0.3072024 0.2189224 -0.2189224
v -0.2098233 -0.08331747 -0.2134167
v -0.2098232 0.07055525 -0.3672895
v -5.996051E-07 -0.1521748 -0.2822739
v -5.762591E-07 0.001697987 -0.4361467
v 0.2098219 0.3672894 -0.07055533
v -8.111672E-07 0.2822741 0.1521748
v -7.878212E-07 0.4361469 -0.001697928
v 0.2098219 0.2134166 0.08331743
v 0.307201 0.2189222 -0.2189221
v 0.3072009 0.06504964 -0.06504954
v 0.2098218 0.07055517 -0.3672891
v 0.2098218 -0.08331737 -0.2134165
v -5.762591E-07 0.001697987 -0.4361467
v -5.996051E-07 -0.1521748 -0.2822739
v 0.307201 0.2189222 -0.2189221
v -5.762591E-07 0.001697987 -0.4361467
v 0.2098218 0.07055517 -0.3672891
v 0.2098219 0.3672894 -0.07055533
v -7.878212E-07 0.4361469 -0.001697928
v -5.762591E-07 0.001697987 -0.4361467
v -0.3072024 0.2189224 -0.2189224
v -0.2098232 0.07055525 -0.3672895
v -0.2098234 0.3672894 -0.07055537
v -7.878212E-07 0.4361469 -0.001697928
v -0.2848738 -0.01748675 0.4203579
v -5.810614E-07 0.2735262 0.3163179
v -8.494493E-07 0.07599974 0.5138444
v -0.2848735 0.1800396 0.2228315
v -0.4170837 -0.2189223 0.2189224
v -0.4170836 -0.02139585 0.02139595
v -0.2848734 -0.4203579 0.01748683
v -0.2848734 -0.2228315 -0.1800396
v -6.474933E-07 -0.5138444 -0.07599962
v -6.17524E-07 -0.316318 -0.2735261
v 0.284872 0.1800396 0.2228314
v -8.494493E-07 0.07599974 0.5138444
v -5.810614E-07 0.2735262 0.3163179
v 0.284872 -0.01748682 0.4203579
v 0.417082 -0.02139593 0.021396
v 0.4170819 -0.2189223 0.2189225
v 0.2848721 -0.2228314 -0.1800394
v 0.2848719 -0.4203578 0.01748703
v -6.17524E-07 -0.316318 -0.2735261
v -6.474933E-07 -0.5138444 -0.07599962
v 0.284872 -0.01748682 0.4203579
v -6.474933E-07 -0.5138444 -0.07599962
v -8.494493E-07 0.07599974 0.5138444
v 0.2848719 -0.4203578 0.01748703
v 0.4170819 -0.2189223 0.2189225
v -0.2848734 -0.4203579 0.01748683
v -8.494493E-07 0.07599974 0.5138444
v -6.474933E-07 -0.5138444 -0.07599962
v -0.2848738 -0.01748675 0.4203579
v -0.4170837 -0.2189223 0.2189224
vt 0.4581544 0.8832253
vt 0.4581544 0.8829635
vt 0.3907164 0.7204152
vt 0.4581544 0.8829635
vt 0.4581209 0.8829635
vt 0.6208556 0.950293
vt 0.2420395 0.2682229
vt 0.3253652 0.03171962
vt 0.2420395 0.03171962
vt 0.3253652 0.2682229
vt 0.2420395 0.5047258
vt 0.3253652 0.5047258
vt 0.2420395 0.7412288
vt 0.3253647 0.7412288
vt 0.2420395 0.9777318
vt 0.3253647 0.9777318
vt 0.3253647 0.2682229
vt 0.2420391 0.03171962
vt 0.3253647 0.03171962
vt 0.2420391 0.2682229
vt 0.3253647 0.5047258
vt 0.2420391 0.5047258
vt 0.3253647 0.7412288
vt 0.2420395 0.7412288
vt 0.3253647 0.9777318
vt 0.2420395 0.9777318
vt 0.4581209 0.8832253
vt 0.4581544 0.8832253
vt 0.6208556 0.9506633
vt 0.4581209 0.8829635
vt 0.3907138 0.7204152
vt 0.4581544 0.8829635
vt 0.9712586 0.02883236
vt 0.6379857 0.02883836
vt 0.7356083 0.2645069
vt 0.9712881 0.3621286
vt 0.7356083 0.2654609
vt 0.6379857 0.02883836
vt 0.9712586 0.02883236
vt 0.9712881 0.3634728
vt 0.736003 0.2654609
vt 0.9712881 0.3634728
vt 0.9712586 0.02883236
vt 0.6385452 0.02883836
vt 0.736003 0.2645069
vt 0.6385452 0.02883836
vt 0.9712586 0.02883236
vt 0.9712881 0.3621286
vt 0.3795846 0.4625433
vt 0.5279038 0.6064435
vt 0.3795846 0.6064437
vt 0.5279036 0.4625433
vt 0.3795846 0.3186431
vt 0.527904 0.3186431
vt 0.3795846 0.174743
vt 0.527904 0.174743
vt 0.3795846 0.03084299
vt 0.527904 0.03084299
vt 0.527904 0.4634314
vt 0.3795846 0.6064437
vt 0.5279038 0.6064435
vt 0.3795846 0.4634314
vt 0.5279036 0.3204194
vt 0.3795846 0.3204194
vt 0.5279036 0.1774073
vt 0.3795846 0.1774073
vt 0.527904 0.03439499
vt 0.3795846 0.03439499
vt 0.7728235 0.4279481
vt 0.5634388 0.2185636
vt 0.7064515 0.284936
vt 0.7064515 0.5709602
vt 0.5634388 0.6373321
vt 0.5634388 0.2185636
vt 0.7725908 0.4279479
vt 0.7062922 0.2849357
vt 0.7062925 0.5709602
vt 0.5634388 0.6373321
vt 0.01131076 0.7501215
vt 0.2017081 0.9882984
vt 0.01131094 0.9882984
vt 0.2017077 0.7501215
vt 0.01131076 0.5119441
vt 0.2017077 0.5119441
vt 0.01131053 0.2665606
vt 0.2017077 0.2665606
vt 0.01131053 0.0211771
vt 0.2017077 0.0211771
vt 0.2017079 0.7490925
vt 0.01131094 0.9882984
vt 0.2017081 0.9882984
vt 0.01131064 0.7490925
vt 0.2017079 0.5098858
vt 0.01131076 0.5098858
vt 0.2017077 0.2634729
vt 0.01131076 0.2634729
vt 0.2017077 0.01705997
vt 0.01131076 0.01705997
vt 0.7907292 0.8995891
vt 0.9679285 0.4615996
vt 0.9679286 0.9820822
vt 0.7907292 0.5440928
vt 0.7084907 0.721841
vt 0.7901807 0.5440928
vt 0.9679286 0.9820822
vt 0.9679285 0.4615996
vt 0.7901804 0.8995891
vt 0.7076872 0.721841
vn 0 -0.7071067 0.7071068
vn 0 -0.7071068 0.7071068
vn 0 -0.7071067 0.7071068
vn 0 -0.7071068 0.7071068
vn 0 -0.7071067 0.7071068
vn 0 -0.7071068 0.7071067
vn -0.7071068 -0.5 -0.5
vn 0 -0.7071069 -0.7071066
vn 0 -0.7071069 -0.7071066
vn -0.7071066 -0.5 -0.5
vn -1 0 0
vn -1 0 0
vn -0.7071066 0.5000001 0.4999999
vn -0.7071066 0.5000002 0.5
vn 0 0.7071068 0.7071066
vn 0 0.7071068 0.7071067
vn 0.7071062 -0.5000004 -0.5000004
vn 0 -0.7071069 -0.7071066
vn 0 -0.7071069 -0.7071066
vn 0.7071062 -0.5000004 -0.5000004
vn 1 0 0
vn 1 0 0
vn 0.7071062 0.5000004 0.5000003
vn 0.7071062 0.5000004 0.5000003
vn 0 0.7071068 0.7071067
vn 0 0.7071068 0.7071066
vn 0 -0.7071067 0.7071068
vn 0 -0.7071067 0.7071068
vn 0 -0.7071068 0.7071067
vn 0 -0.7071067 0.7071068
vn 0 -0.7071067 0.7071068
vn 0 -0.7071068 0.7071068
vn 0 0.7071067 -0.7071068
vn 0 0.7071067 -0.7071068
vn 0 0.707108 -0.7071056
vn 0 0.7071085 -0.707105
vn 0 0.7071055 -0.707108
vn 0 0.7071067 -0.7071068
vn 0 0.7071067 -0.7071068
vn 0 0.707105 -0.7071085
vn 0 0.7071055 -0.707108
vn 0 0.707105 -0.7071085
vn 0 0.7071067 -0.7071068
vn 0 0.7071067 -0.7071068
vn 0 0.707108 -0.7071056
vn 0 0.7071067 -0.7071068
vn 0 0.7071067 -0.7071068
vn 0 0.7071085 -0.707105
vn -0.7071068 0.5000001 0.4999998
vn 0 0.7071067 0.7071068
vn 0 0.7071067 0.7071068
vn -0.707107 0.5 0.4999995
vn -1 0 0
vn -1 0 0
vn -0.7071064 -0.5000002 -0.5000002
vn -0.7071065 -0.5000002 -0.5000002
vn 0 -0.7071068 -0.7071067
vn 0 -0.7071068 -0.7071067
vn 0.7071066 0.5000001 0.5000001
vn 0 0.7071067 0.7071068
vn 0 0.7071067 0.7071068
vn 0.7071066 0.5 0.5
vn 1 0 0
vn 1 0 0
vn 0.7071066 -0.5000002 -0.4999999
vn 0.7071068 -0.5 -0.4999998
vn 0 -0.7071068 -0.7071067
vn 0 -0.7071068 -0.7071067
vn 0 0.7071063 -0.7071072
vn 0 0.7071065 -0.7071069
vn 0 0.7071062 -0.7071073
vn 0 0.7071066 -0.7071069
vn 0 0.7071067 -0.7071068
vn 0 0.7071065 -0.7071069
vn 0 0.7071067 -0.7071068
vn 0 0.7071067 -0.7071068
vn 0 0.7071067 -0.7071068
vn 0 0.7071067 -0.7071068
vn -0.7071067 0.5000005 0.4999995
vn 0 0.7071068 0.7071068
vn 0 0.7071068 0.7071067
vn -0.7071064 0.5000007 0.4999997
vn -1 0 0
vn -1 0 0
vn -0.7071065 -0.5000002 -0.5000002
vn -0.7071064 -0.5000002 -0.5000002
vn 0 -0.7071069 -0.7071066
vn 0 -0.7071069 -0.7071066
vn 0.7071068 0.4999999 0.5
vn 0 0.7071068 0.7071067
vn 0 0.7071068 0.7071068
vn 0.7071066 0.5 0.5
vn 1 0 0
vn 1 0 0
vn 0.7071069 -0.5000002 -0.4999996
vn 0.7071069 -0.5000002 -0.4999996
vn 0 -0.7071069 -0.7071066
vn 0 -0.7071069 -0.7071066
vn 0 -0.7071066 0.7071068
vn 0 -0.7071066 0.7071068
vn 0 -0.7071067 0.7071068
vn 0 -0.7071066 0.7071069
vn 0 -0.7071066 0.7071069
vn 0 -0.7071066 0.7071068
vn 0 -0.7071067 0.7071068
vn 0 -0.7071066 0.7071068
vn 0 -0.7071067 0.7071068
vn 0 -0.7071067 0.7071068
g StudGold_MidLOD_0
f 3/3/3 2/2/2 1/1/1
f 6/6/6 5/5/5 4/4/4
f 9/9/9 8/8/8 7/7/7
f 10/10/10 7/7/7 8/8/8
f 7/7/7 10/10/10 11/11/11
f 12/12/12 11/11/11 10/10/10
f 11/11/11 12/12/12 13/13/13
f 14/14/14 13/13/13 12/12/12
f 13/13/13 14/14/14 15/15/15
f 16/16/16 15/15/15 14/14/14
f 19/19/19 18/18/18 17/17/17
f 20/20/20 17/17/17 18/18/18
f 17/17/17 20/20/20 21/21/21
f 22/22/22 21/21/21 20/20/20
f 21/21/21 22/22/22 23/23/23
f 24/24/24 23/23/23 22/22/22
f 23/23/23 24/24/24 25/25/25
f 26/26/26 25/25/25 24/24/24
f 29/29/29 28/28/28 27/27/27
f 28/28/28 30/30/30 27/27/27
f 30/30/30 31/31/31 27/27/27
f 32/32/32 30/30/30 28/28/28
f 35/35/35 34/34/34 33/33/33
f 33/33/33 36/36/36 35/35/35
f 39/39/39 38/38/38 37/37/37
f 39/39/39 37/37/37 40/40/40
f 43/43/43 42/42/42 41/41/41
f 43/43/43 41/41/41 44/44/44
f 47/47/47 46/46/46 45/45/45
f 47/47/47 45/45/45 48/48/48
f 51/51/51 50/50/50 49/49/49
f 52/52/52 49/49/49 50/50/50
f 49/49/49 52/52/52 53/53/53
f 54/54/54 53/53/53 52/52/52
f 53/53/53 54/54/54 55/55/55
f 56/56/56 55/55/55 54/54/54
f 55/55/55 56/56/56 57/57/57
f 58/58/58 57/57/57 56/56/56
f 61/61/61 60/60/60 59/59/59
f 62/62/62 59/59/59 60/60/60
f 59/59/59 62/62/62 63/63/63
f 64/64/64 63/63/63 62/62/62
f 63/63/63 64/64/64 65/65/65
f 66/66/66 65/65/65 64/64/64
f 65/65/65 66/66/66 67/67/67
f 68/68/68 67/67/67 66/66/66
f 71/71/71 70/70/70 69/69/69
f 70/70/70 72/72/72 69/69/69
f 73/73/73 72/72/72 70/70/70
f 76/76/76 75/75/75 74/74/74
f 75/75/75 77/77/77 74/74/74
f 77/77/77 78/78/78 74/74/74
f 81/81/81 80/80/80 79/79/79
f 82/82/82 79/79/79 80/80/80
f 79/79/79 82/82/82 83/83/83
f 84/84/84 83/83/83 82/82/82
f 83/83/83 84/84/84 85/85/85
f 86/86/86 85/85/85 84/84/84
f 85/85/85 86/86/86 87/87/87
f 88/88/88 87/87/87 86/86/86
f 91/91/91 90/90/90 89/89/89
f 92/92/92 89/89/89 90/90/90
f 89/89/89 92/92/92 93/93/93
f 94/94/94 93/93/93 92/92/92
f 93/93/93 94/94/94 95/95/95
f 96/96/96 95/95/95 94/94/94
f 95/95/95 96/96/96 97/97/97
f 98/98/98 97/97/97 96/96/96
f 101/101/101 100/100/100 99/99/99
f 102/102/102 99/99/99 100/100/100
f 103/103/103 99/99/99 102/102/102
f 106/106/106 105/105/105 104/104/104
f 107/107/107 104/104/104 105/105/105
f 108/108/108 104/104/104 107/107/107
