g Tree_A
v 0.3982929 2.858605 0.1204563
v 0.366961 2.857464 0.1204563
v 0.3984057 3.027363 0.1204564
v -0.5209589 3.252646 0.4170424
v -0.06002671 3.870296 0.2358586
v -0.06002671 3.384041 0.4649127
v -0.6413398 3.732111 0.1842364
v -0.06002671 4.396223 -0.426195
v -0.8538734 2.857074 0.2372744
v -0.7519172 4.222423 -0.487399
v -0.06002671 4.490093 -0.8671982
v -1.089596 3.30321 -0.1330611
v -1.294808 2.65503 -0.4796366
v -1.037722 2.353029 0.01558
v -0.6802624 4.343257 -0.9543
v -0.06002671 4.429756 -1.277128
v -0.9476647 3.94302 -1.37645
v -0.06002671 4.180868 -1.67897
v -0.06002671 3.676119 -2.090143
v -1.014585 3.310565 -1.720539
v -1.250552 3.687256 -0.810239
v -1.382233 2.98474 -1.281233
v -0.8739052 2.564833 -1.915939
v -1.252053 2.002906 -0.7144847
v -1.030832 1.804266 -0.1832002
v -0.9199814 1.312515 -0.3855516
v -1.259665 2.306878 -1.474576
v -0.6945344 2.028646 -1.975934
v -1.094462 1.471109 -0.9019204
v -0.5790247 0.8561195 -0.5889975
v -1.046381 1.811524 -1.631351
v -0.6747779 0.9798671 -1.101041
v -0.06002671 0.616662 -0.773508
v -0.06002671 0.7709404 -1.292243
v -0.06002671 1.255863 -1.81649
v -0.06002671 1.609674 -2.004722
v -0.06002671 3.384041 0.4649127
v -0.06002671 2.771119 -0.5202883
v -0.5209589 3.252646 0.4170424
v -0.8538734 2.857074 0.2372744
v -1.037722 2.353029 0.01558
v -1.030832 1.804266 -0.1832002
v -0.9199814 1.312515 -0.3855516
v -0.5790247 0.8561195 -0.5889975
v -0.06002671 0.616662 -0.773508
v -0.06002671 3.870296 0.2358586
v 0.4009055 3.252646 0.4170424
v -0.06002671 3.384041 0.4649127
v 0.5212864 3.732111 0.1842364
v -0.06002671 4.396223 -0.426195
v 0.7338199 2.857074 0.2372744
v 0.6318638 4.222423 -0.487399
v -0.06002671 4.490093 -0.8671982
v 0.9695425 3.30321 -0.1330611
v 1.174755 2.65503 -0.4796366
v 0.9176689 2.353029 0.01558
v 0.560209 4.343257 -0.9543
v -0.06002671 4.429756 -1.277128
v 0.8276113 3.94302 -1.37645
v -0.06002671 4.180868 -1.67897
v -0.06002671 3.676119 -2.090143
v 0.8945316 3.310565 -1.720539
v 1.130498 3.687256 -0.810239
v 1.262179 2.98474 -1.281233
v 0.7538518 2.564833 -1.915939
v 1.132 2.002906 -0.7144847
v 0.9107782 1.804266 -0.1832002
v 0.799928 1.312515 -0.3855516
v 1.139611 2.306878 -1.474576
v 0.574481 2.028646 -1.975934
v 0.974409 1.471109 -0.9019204
v 0.4589713 0.8561195 -0.5889975
v 0.9263279 1.811524 -1.631351
v 0.5547245 0.9798671 -1.101041
v -0.06002671 0.616662 -0.773508
v -0.06002671 0.7709404 -1.292243
v -0.06002671 1.255863 -1.81649
v -0.06002671 1.609674 -2.004722
v -0.06002671 3.384041 0.4649127
v 0.4009055 3.252646 0.4170424
v -0.06002671 2.771119 -0.5202883
v 0.7338199 2.857074 0.2372744
v 0.9176689 2.353029 0.01558
v 0.9107782 1.804266 -0.1832002
v 0.799928 1.312515 -0.3855516
v 0.4589713 0.8561195 -0.5889975
v -0.06002671 0.616662 -0.773508
v -0.1129208 3.190557 0.1285933
v 0.06734478 4.053116E-06 0.1285933
v -0.1315941 3.576279E-06 0.1285933
v -0.01833766 3.188105 0.1285933
v -0.2610254 2.414235 0.1155828
v -0.3210752 2.43876 0.1155828
v -0.267792 3.422121 0.1155828
v -0.4545677 2.374772 0.1155828
v -0.4549717 2.274738 0.1155828
v -0.08178458 1.389459 0.1216382
v -0.3816795 1.808571 0.1216382
v -0.07123783 1.540467 0.1216382
v -0.4694825 1.791861 0.1216382
v -0.5035018 3.308275 0.1216382
v -0.5883489 2.200062 0.1155828
v -0.6408384 2.136895 0.1155828
v -0.90092 2.90136 0.1155828
v -0.461477 2.198976 0.1155828
v -0.4601609 2.124583 0.1155828
v 0.2090938 2.34926 0.1259622
v 0.1511261 2.351975 0.1259622
v 0.1755437 3.56271 0.1259621
v -0.002125472 2.118189 0.1259622
v -0.001798093 1.984999 0.1259622
v 0.3473787 2.857841 0.1241919
v 0.1923658 2.539969 0.1241919
v 0.1884334 2.619107 0.1241919
v 0.3694355 2.827448 0.1241919
v 0.5509197 2.93999 0.1241919
vt 0.9575617 0.8002976
vt 0.9817148 0.8002976
vt 0.9696382 0.7914311
vt 0.7604146 0.9343457
vt 0.7058836 0.9920234
vt 0.7598224 0.9837142
vt 0.7106394 0.9375666
vt 0.6226671 0.9835395
vt 0.769598 0.8776476
vt 0.6432722 0.9250739
vt 0.5805359 0.9638135
vt 0.7130062 0.8791381
vt 0.7183248 0.814943
vt 0.7776382 0.8164136
vt 0.6080266 0.9147717
vt 0.5503923 0.9318687
vt 0.6045429 0.8682034
vt 0.5292257 0.8910868
vt 0.51657 0.8321587
vt 0.6037165 0.8151799
vt 0.6531299 0.867934
vt 0.650323 0.8072366
vt 0.6049911 0.7550945
vt 0.7250203 0.7539274
vt 0.7851351 0.7527444
vt 0.781237 0.6901088
vt 0.6553243 0.7544208
vt 0.6087593 0.7083988
vt 0.7241595 0.6996205
vt 0.7671686 0.6193303
vt 0.6535075 0.710391
vt 0.712138 0.6353893
vt 0.7391931 0.5577581
vt 0.6807608 0.5734294
vt 0.6127998 0.6118104
vt 0.5808316 0.6430498
vt 0.9253435 0.9868494
vt 0.9253435 0.8070353
vt 0.855929 0.966777
vt 0.8190476 0.9156507
vt 0.7978363 0.8326842
vt 0.7966661 0.7844152
vt 0.8097365 0.736238
vt 0.8471365 0.6791128
vt 0.9253435 0.6381307
vt 0.7058836 0.9920234
vt 0.7604146 0.9343457
vt 0.7598224 0.9837142
vt 0.7106394 0.9375666
vt 0.6226671 0.9835395
vt 0.769598 0.8776476
vt 0.6432722 0.9250739
vt 0.5805359 0.9638135
vt 0.7130062 0.8791381
vt 0.7183248 0.814943
vt 0.7776382 0.8164136
vt 0.6080266 0.9147717
vt 0.5503923 0.9318687
vt 0.6045429 0.8682034
vt 0.5292257 0.8910868
vt 0.51657 0.8321587
vt 0.6037165 0.8151799
vt 0.6531299 0.867934
vt 0.650323 0.8072366
vt 0.6049911 0.7550945
vt 0.7250203 0.7539274
vt 0.7851351 0.7527444
vt 0.781237 0.6901088
vt 0.6553243 0.7544208
vt 0.6087593 0.7083988
vt 0.7241595 0.6996205
vt 0.7671686 0.6193303
vt 0.6535075 0.710391
vt 0.712138 0.6353893
vt 0.7391931 0.5577581
vt 0.6807608 0.5734294
vt 0.6127998 0.6118104
vt 0.5808316 0.6430498
vt 0.9253435 0.9868494
vt 0.855929 0.966777
vt 0.9253435 0.8070353
vt 0.8190476 0.9156507
vt 0.7978363 0.8326842
vt 0.7966661 0.7844152
vt 0.8097365 0.736238
vt 0.8471365 0.6791128
vt 0.9253435 0.6381307
vt 0.9817148 0.8070713
vt 0.9575617 0.9387916
vt 0.9817148 0.9387916
vt 0.9575617 0.8070713
vt 0.9817148 0.9525775
vt 0.9575617 0.9525775
vt 0.9696382 0.9898645
vt 0.9575617 0.940411
vt 0.9817148 0.940411
vt 0.9817148 0.7852635
vt 0.9575617 0.7553661
vt 0.9575617 0.7852635
vt 0.9817148 0.7553661
vt 0.9696382 0.6963484
vt 0.9575617 0.5538437
vt 0.9817148 0.5538437
vt 0.9696382 0.5383872
vt 0.9575617 0.5714236
vt 0.9817148 0.5714236
vt 0.9817148 0.5935804
vt 0.9575617 0.5935804
vt 0.9696382 0.6421891
vt 0.9575617 0.5744337
vt 0.9817148 0.5744337
vt 0.9575617 0.6671846
vt 0.9817148 0.6441821
vt 0.9575617 0.6441821
vt 0.9817148 0.6671846
vt 0.9696382 0.6834617
vn 0 0 1
vn 0 0 1
vn 0 0 1
vn -0.4525422 0.3022812 0.8389467
vn 0 0.6293777 0.7770995
vn 0 0.4261442 0.9046553
vn -0.4825327 0.5015928 0.7180298
vn 0 0.9069178 0.4213075
vn -0.7831068 0.1120226 0.6117145
vn -0.5580299 0.7568592 0.3402451
vn 0 0.9989129 0.04661411
vn -0.8351706 0.2216532 0.5033486
vn -0.9565614 -0.02571016 0.2903951
vn -0.9032443 -0.04286742 0.4269802
vn -0.5260489 0.8434975 -0.1085567
vn 0 0.9199163 -0.3921148
vn -0.6759378 0.5822375 -0.4517827
vn 0 0.7464398 -0.6654528
vn 0 0.5895138 -0.8077582
vn -0.7467821 0.2990743 -0.5940295
vn -0.905356 0.41965 0.06499491
vn -0.9580123 0.1048622 -0.2668637
vn -0.7398837 -0.05451893 -0.670522
vn -0.9672654 -0.219504 0.127341
vn -0.9263102 -0.2266467 0.3009662
vn -0.8614647 -0.4833895 0.1556061
vn -0.9017836 -0.1412074 -0.4084691
vn -0.5552412 -0.3252465 -0.7654555
vn -0.8847739 -0.4630912 -0.05216911
vn -0.6324213 -0.7729835 -0.0503958
vn -0.7298108 -0.3821805 -0.5668458
vn -0.6017002 -0.7301541 -0.3237777
vn 0 -0.9739188 -0.2268967
vn 0 -0.8627591 -0.5056153
vn 0 -0.6312892 -0.7755475
vn 0 -0.4696796 -0.8828369
vn 0 -0.8490924 0.5282443
vn 0 -0.5197755 0.8543029
vn 0.3276557 -0.7651743 0.5542112
vn 0.5279039 -0.5813529 0.6191497
vn 0.5630357 -0.3685938 0.739682
vn 0.5253341 -0.2431959 0.8154017
vn 0.4162518 -0.1627772 0.8945603
vn 0.3161831 -0.1194589 0.941147
vn 0 -0.1167294 0.9931638
vn 0 0.6293777 0.7770995
vn 0.4525423 0.3022812 0.8389467
vn 0 0.4261442 0.9046553
vn 0.4825327 0.5015928 0.7180298
vn 0 0.9069178 0.4213075
vn 0.7831068 0.1120226 0.6117146
vn 0.5580299 0.7568592 0.3402451
vn 0 0.9989129 0.04661411
vn 0.8351706 0.2216532 0.5033488
vn 0.9565614 -0.02571022 0.2903951
vn 0.9032443 -0.04286751 0.4269803
vn 0.5260489 0.8434975 -0.1085567
vn 0 0.9199163 -0.3921148
vn 0.6759378 0.5822375 -0.4517827
vn 0 0.7464398 -0.6654528
vn 0 0.5895138 -0.8077582
vn 0.7467821 0.2990743 -0.5940295
vn 0.905356 0.41965 0.0649949
vn 0.9580123 0.1048622 -0.2668638
vn 0.7398837 -0.05451893 -0.670522
vn 0.9672654 -0.219504 0.127341
vn 0.9263102 -0.2266467 0.3009662
vn 0.8614647 -0.4833895 0.1556061
vn 0.9017836 -0.1412074 -0.4084691
vn 0.5552412 -0.3252464 -0.7654555
vn 0.8847739 -0.4630912 -0.05216911
vn 0.6324213 -0.7729835 -0.0503958
vn 0.7298108 -0.3821805 -0.5668458
vn 0.6017002 -0.730154 -0.3237777
vn 0 -0.9739188 -0.2268967
vn 0 -0.8627591 -0.5056153
vn 0 -0.6312892 -0.7755475
vn 0 -0.4696796 -0.8828369
vn 0 -0.8490924 0.5282443
vn -0.3276558 -0.7651743 0.5542112
vn 0 -0.5197755 0.8543029
vn -0.5279039 -0.5813529 0.6191497
vn -0.5630356 -0.3685938 0.739682
vn -0.5253342 -0.2431959 0.8154016
vn -0.4162517 -0.1627772 0.8945602
vn -0.3161831 -0.1194589 0.941147
vn 0 -0.1167294 0.9931638
vn 0 0 1
vn 0 0 1
vn 0 0 1
vn 0 0 1
vn 0 0 1
vn 0 0 1
vn 0 0 1
vn 0 0 1
vn 0 0 1
vn 0 0 1
vn 0 0 1
vn 0 0 1
vn 0 0 1
vn 0 0 1
vn 0 0 1
vn 0 0 1
vn 0 0 1
vn 0 0 1
vn 0 0 1
vn 0 0 1
vn 0 0 1
vn 0 0 1
vn 0 0 1
vn 0 0 1
vn 0 0 1
vn 0 0 1
vn 0 0 1
vn 0 0 1
vn 0 0 1
g Tree_A_0
f 3/3/3 2/2/2 1/1/1
f 6/6/6 5/5/5 4/4/4
f 7/7/7 4/4/4 5/5/5
f 5/5/5 8/8/8 7/7/7
f 4/4/4 7/7/7 9/9/9
f 10/10/10 7/7/7 8/8/8
f 8/8/8 11/11/11 10/10/10
f 12/12/12 9/9/9 7/7/7
f 7/7/7 10/10/10 12/12/12
f 12/12/12 13/13/13 9/9/9
f 14/14/14 9/9/9 13/13/13
f 15/15/15 10/10/10 11/11/11
f 16/16/16 15/15/15 11/11/11
f 16/16/16 17/17/17 15/15/15
f 15/15/15 17/17/17 10/10/10
f 18/18/18 17/17/17 16/16/16
f 18/18/18 19/19/19 17/17/17
f 20/20/20 17/17/17 19/19/19
f 21/21/21 12/12/12 10/10/10
f 21/21/21 10/10/10 17/17/17
f 17/17/17 20/20/20 21/21/21
f 12/12/12 21/21/21 13/13/13
f 22/22/22 21/21/21 20/20/20
f 22/22/22 13/13/13 21/21/21
f 20/20/20 23/23/23 22/22/22
f 13/13/13 24/24/24 14/14/14
f 13/13/13 22/22/22 24/24/24
f 25/25/25 14/14/14 24/24/24
f 25/25/25 24/24/24 26/26/26
f 27/27/27 22/22/22 23/23/23
f 27/27/27 24/24/24 22/22/22
f 23/23/23 28/28/28 27/27/27
f 29/29/29 26/26/26 24/24/24
f 24/24/24 27/27/27 29/29/29
f 26/26/26 29/29/29 30/30/30
f 31/31/31 27/27/27 28/28/28
f 31/31/31 29/29/29 27/27/27
f 32/32/32 30/30/30 29/29/29
f 32/32/32 29/29/29 31/31/31
f 30/30/30 32/32/32 33/33/33
f 34/34/34 33/33/33 32/32/32
f 34/34/34 32/32/32 35/35/35
f 35/35/35 32/32/32 31/31/31
f 31/31/31 28/28/28 35/35/35
f 36/36/36 35/35/35 28/28/28
f 39/39/39 38/38/38 37/37/37
f 40/40/40 38/38/38 39/39/39
f 41/41/41 38/38/38 40/40/40
f 42/42/42 38/38/38 41/41/41
f 43/43/43 38/38/38 42/42/42
f 44/44/44 38/38/38 43/43/43
f 45/45/45 38/38/38 44/44/44
f 48/48/48 47/47/47 46/46/46
f 49/49/49 46/46/46 47/47/47
f 46/46/46 49/49/49 50/50/50
f 47/47/47 51/51/51 49/49/49
f 52/52/52 50/50/50 49/49/49
f 50/50/50 52/52/52 53/53/53
f 54/54/54 49/49/49 51/51/51
f 49/49/49 54/54/54 52/52/52
f 54/54/54 51/51/51 55/55/55
f 56/56/56 55/55/55 51/51/51
f 57/57/57 53/53/53 52/52/52
f 57/57/57 58/58/58 53/53/53
f 59/59/59 58/58/58 57/57/57
f 57/57/57 52/52/52 59/59/59
f 59/59/59 60/60/60 58/58/58
f 60/60/60 59/59/59 61/61/61
f 62/62/62 61/61/61 59/59/59
f 63/63/63 52/52/52 54/54/54
f 63/63/63 59/59/59 52/52/52
f 59/59/59 63/63/63 62/62/62
f 54/54/54 55/55/55 63/63/63
f 64/64/64 62/62/62 63/63/63
f 64/64/64 63/63/63 55/55/55
f 62/62/62 64/64/64 65/65/65
f 55/55/55 56/56/56 66/66/66
f 55/55/55 66/66/66 64/64/64
f 67/67/67 66/66/66 56/56/56
f 67/67/67 68/68/68 66/66/66
f 69/69/69 65/65/65 64/64/64
f 69/69/69 64/64/64 66/66/66
f 65/65/65 69/69/69 70/70/70
f 71/71/71 66/66/66 68/68/68
f 66/66/66 71/71/71 69/69/69
f 68/68/68 72/72/72 71/71/71
f 73/73/73 70/70/70 69/69/69
f 73/73/73 69/69/69 71/71/71
f 74/74/74 71/71/71 72/72/72
f 71/71/71 74/74/74 73/73/73
f 72/72/72 75/75/75 74/74/74
f 76/76/76 74/74/74 75/75/75
f 76/76/76 77/77/77 74/74/74
f 74/74/74 77/77/77 73/73/73
f 73/73/73 77/77/77 70/70/70
f 78/78/78 70/70/70 77/77/77
f 81/81/81 80/80/80 79/79/79
f 81/81/81 82/82/82 80/80/80
f 81/81/81 83/83/83 82/82/82
f 81/81/81 84/84/84 83/83/83
f 81/81/81 85/85/85 84/84/84
f 81/81/81 86/86/86 85/85/85
f 81/81/81 87/87/87 86/86/86
f 90/90/90 89/89/89 88/88/88
f 91/91/91 88/88/88 89/89/89
f 94/94/94 93/93/93 92/92/92
f 93/93/93 95/95/95 92/92/92
f 96/96/96 92/92/92 95/95/95
f 99/99/99 98/98/98 97/97/97
f 100/100/100 97/97/97 98/98/98
f 101/101/101 100/100/100 98/98/98
f 104/104/104 103/103/103 102/102/102
f 102/102/102 103/103/103 105/105/105
f 106/106/106 105/105/105 103/103/103
f 109/109/109 108/108/108 107/107/107
f 108/108/108 110/110/110 107/107/107
f 111/111/111 107/107/107 110/110/110
f 114/114/114 113/113/113 112/112/112
f 115/115/115 112/112/112 113/113/113
f 116/116/116 112/112/112 115/115/115
