g VortexSpiral
v 16.64603 1.341833 -0.1327593
v 13.46186 -0.8415719 4.406638
v 14.16298 -1.341833 0.1327593
v 15.91312 1.842094 4.883447
v 11.50649 -0.3413111 8.26079
v 13.69989 2.342355 9.454551
v 8.479971 0.1589499 11.34593
v 10.21131 2.842615 13.14552
v 4.664037 0.6592109 13.37486
v 5.772142 3.342876 15.61275
v 0.413918 1.159471 14.1587
v 0.7956372 3.843137 16.62656
v -3.874731 1.659732 13.62448
v -4.254934 4.343397 16.09258
v -7.802678 2.159993 11.82194
v -8.909409 4.843657 14.06051
v -11.00426 2.660253 8.918874
v -12.73449 5.343918 10.71953
v -13.18144 3.160513 5.185534
v -15.3741 5.844178 6.380648
v -14.13153 3.660773 0.9694664
v -16.5825 6.344439 1.447778
v -13.7661 4.161034 -3.336853
v -16.24722 6.844699 -3.619865
v -12.11916 4.661294 -7.332533
v -14.39945 7.344959 -8.350522
v -9.344024 5.161554 -10.64562
v -11.21122 7.845219 -12.30382
v -5.69904 5.661815 -12.96769
v -6.979316 8.345479 -15.11174
v -1.523523 6.162076 -14.08257
v -2.097689 8.84574 -16.51288
v 2.793824 6.662336 -13.88649
v 2.979211 9.346001 -16.37681
v 6.851082 7.162597 -12.39769
v 7.778767 9.846262 -14.71619
v 10.27057 7.662858 -9.754767
v 11.85419 10.34652 -11.68562
v 12.73395 8.163119 -6.203748
v 14.82609 10.84678 -7.567207
v 14.01191 8.66338 -2.075223
v 16.4178 11.34704 -2.744365
v 13.98547 9.163639 2.246487
v 16.48115 11.8473 2.333956
v 12.6571 9.6639 6.359076
v 15.01024 12.34757 7.195023
v 10.15047 10.16416 9.879681
v 12.142 12.84783 11.38627
v 6.698897 10.66442 12.48058
v 8.14344 13.34809 14.51757
v 2.623731 11.16468 13.91963
v 3.386801 13.84835 16.29739
v -1.695695 11.66494 14.06288
v -1.685122 14.34861 16.56007
v -5.857255 12.16521 12.897
v -6.600173 14.84887 15.28114
v -9.473557 12.66546 10.53051
v -10.9008 15.34913 12.57967
v -12.20795 13.16572 7.183729
v -14.18666 15.84939 8.70714
v -13.80589 13.66599 3.168192
v -16.15187 16.34965 4.02403
v -14.11862 14.16625 -1.142281
v -16.61346 16.84991 -1.033683
v -13.11701 14.66651 -5.346409
v -15.52848 17.35017 -5.995148
v -10.89433 15.16677 -9.052826
v -12.99793 17.85043 -10.39852
v -7.657474 15.66703 -11.91651
v -9.257389 18.35069 -13.83388
v -3.707764 16.16729 -13.67086
v -4.655046 18.85095 -15.98143
v 0.5871088 16.66755 -14.15257
v 0.3806465 19.35122 -16.64123
v 4.827315 17.16781 -13.3168
v 5.380886 19.85148 -15.75187
v 8.618155 17.66807 -11.24133
v 9.88022 20.35174 -13.39615
v 11.60669 18.16833 -8.119409
v 13.45977 20.85199 -9.793365
v 13.51877 18.66859 -4.232936
v 15.78235 21.35226 -5.287565
vt 1 1
vt 0.9719784 0
vt 1 0
vt 0.9732656 1
vt 0.9473128 0
vt 0.948433 1
vt 0.9226835 0
vt 0.923677 1
vt 0.8980694 0
vt 0.8989879 1
vt 0.8734099 0
vt 0.8743104 1
vt 0.8486165 0
vt 0.8495612 1
vt 0.8236205 0
vt 0.824662 1
vt 0.7983899 0
vt 0.7995711 1
vt 0.7729596 0
vt 0.7743075 1
vt 0.7474298 0
vt 0.7489507 1
vt 0.7219387 0
vt 0.7236186 1
vt 0.6966169 0
vt 0.6984261 1
vt 0.6715437 0
vt 0.6734437 1
vt 0.6467227 0
vt 0.6486732 1
vt 0.6220874 0
vt 0.6240503 1
vt 0.5975248 0
vt 0.5994654 1
vt 0.5729116 0
vt 0.5747987 1
vt 0.5481513 0
vt 0.5499576 1
vt 0.5232028 0
vt 0.5249052 1
vt 0.4980915 0
vt 0.4996746 1
vt 0.4728982 0
vt 0.4743576 1
vt 0.4477272 0
vt 0.4490713 1
vt 0.4226662 0
vt 0.423916 1
vt 0.3977543 0
vt 0.3989408 1
vt 0.3729731 0
vt 0.3741324 1
vt 0.3482586 0
vt 0.3494274 1
vt 0.3235297 0
vt 0.3247415 1
vt 0.298721 0
vt 0.3000019 1
vt 0.2738093 0
vt 0.2751754 1
vt 0.248824 0
vt 0.2502796 1
vt 0.2238364 0
vt 0.2253749 1
vt 0.1989296 0
vt 0.2005363 1
vt 0.1741623 0
vt 0.1758183 1
vt 0.1495404 0
vt 0.1512267 1
vt 0.1250081 0
vt 0.1267086 1
vt 0.1004607 0
vt 0.1021622 1
vt 0.07577261 0
vt 0.07746451 1
vt 0.05083409 0
vt 0.05250691 1
vt 0.02558911 0
vt 0.02723361 1
vt 0 0
vt 0 1
vn -0.7217087 0.6668835 -0.1854803
vn -0.6829145 0.6674598 -0.2968591
vn -0.7293282 0.6553808 -0.1963577
vn -0.6770532 0.6783289 -0.2854278
vn -0.5618209 0.6672469 -0.4890182
vn -0.5596007 0.6783525 -0.4761143
vn -0.388213 0.6672469 -0.6356667
vn -0.3899873 0.6783525 -0.6226939
vn -0.1784658 0.6672469 -0.7231401
vn -0.184069 0.6783526 -0.7113061
vn 0.04789513 0.6672471 -0.7432948
vn 0.03898434 0.6783528 -0.7337014
vn 0.2697973 0.6672472 -0.6942555
vn 0.2584086 0.6783527 -0.6877954
vn 0.4665838 0.6672472 -0.5805865
vn 0.4537773 0.6783527 -0.5778614
vn 0.6199353 0.6672471 -0.4128699
vn 0.6069031 0.6783527 -0.4141333
vn 0.7155758 0.6672471 -0.2067187
vn 0.7035311 0.6783525 -0.2118531
vn 0.7446024 0.6672468 0.0186766
vn 0.7346666 0.6783525 0.01014932
vn 0.7043124 0.667247 0.2423332
vn 0.6974103 0.6783527 0.2312068
vn 0.598457 0.6672469 0.4434306
vn 0.5952312 0.6783527 0.4307406
vn 0.4368902 0.6672473 0.603248
vn 0.437641 0.6783528 0.590176
vn 0.2346525 0.667247 0.7069084
vn 0.2393102 0.6783527 0.6946713
vn 0.01057083 0.6672473 0.7447612
vn 0.01870135 0.6783529 0.7344982
vn -0.2144951 0.6672472 0.7132832
vn -0.2036484 0.6783528 0.7059497
vn -0.4195932 0.6672473 0.6154045
vn -0.4070399 0.6783527 0.6116829
vn -0.5856303 0.6672475 0.4602367
vn -0.5725396 0.6783529 0.4604736
vn -0.6971509 0.6672473 0.2622246
vn -0.6847407 0.6783526 0.266398
vn -0.7437724 0.6672469 0.03980152
vn -0.7331981 0.6783525 0.04752314
vn -0.7211546 0.6672469 -0.1863265
vn -0.7134008 0.6783527 -0.1757757
vn -0.6314033 0.6672472 -0.3951091
vn -0.6271917 0.6783527 -0.3827118
vn -0.4828735 0.6672469 -0.5671107
vn -0.4825963 0.6783525 -0.5540204
vn -0.2893924 0.667247 -0.6863188
vn -0.2930753 0.6783527 -0.6737541
vn -0.06897122 0.6672474 -0.741636
vn -0.07627121 0.6783528 -0.7307668
vn 0.1578706 0.6672472 -0.7279136
vn 0.1476327 0.6783527 -0.7197515
vn 0.3700157 0.6672471 -0.6464285
vn 0.3577932 0.6783525 -0.6417333
vn 0.5477157 0.6672469 -0.5047663
vn 0.534646 0.6783525 -0.5039756
vn 0.674428 0.667247 -0.3161146
vn 0.6617281 0.6783527 -0.3193017
vn 0.7383566 0.6672471 -0.09803498
vn 0.7272092 0.6783526 -0.1049027
vn 0.7335504 0.667247 0.1291709
vn 0.7249928 0.6783525 0.1192616
vn 0.6604566 0.6672472 0.3443521
vn 0.6552854 0.6783528 0.3323229
vn 0.52588 0.6672474 0.5274761
vn 0.5245767 0.678353 0.514448
vn 0.3423484 0.6672472 0.6614974
vn 0.3450343 0.6783528 0.6486824
vn 0.1269468 0.6672472 0.7339383
vn 0.1333717 0.6783527 0.72253
vn -0.1002724 0.6672467 0.7380563
vn -0.09070673 0.6783522 0.7291163
vn -0.3181574 0.6672468 0.6734669
vn -0.3063407 0.6783525 0.6678273
vn -0.5064241 0.6672472 0.5461829
vn -0.4934564 0.678353 0.5443692
vn -0.6475149 0.6672539 0.3680988
vn -0.6346586 0.67832 0.3702571
vn -0.6908726 0.6704311 0.2705866
vn -0.679162 0.6807248 0.2745044
g VortexSpiral_0
f 3/3/3 2/2/2 1/1/1
f 4/4/4 1/1/1 2/2/2
f 2/2/2 5/5/5 4/4/4
f 6/6/6 4/4/4 5/5/5
f 5/5/5 7/7/7 6/6/6
f 8/8/8 6/6/6 7/7/7
f 7/7/7 9/9/9 8/8/8
f 10/10/10 8/8/8 9/9/9
f 9/9/9 11/11/11 10/10/10
f 12/12/12 10/10/10 11/11/11
f 11/11/11 13/13/13 12/12/12
f 14/14/14 12/12/12 13/13/13
f 13/13/13 15/15/15 14/14/14
f 16/16/16 14/14/14 15/15/15
f 15/15/15 17/17/17 16/16/16
f 18/18/18 16/16/16 17/17/17
f 17/17/17 19/19/19 18/18/18
f 20/20/20 18/18/18 19/19/19
f 19/19/19 21/21/21 20/20/20
f 22/22/22 20/20/20 21/21/21
f 21/21/21 23/23/23 22/22/22
f 24/24/24 22/22/22 23/23/23
f 23/23/23 25/25/25 24/24/24
f 26/26/26 24/24/24 25/25/25
f 25/25/25 27/27/27 26/26/26
f 28/28/28 26/26/26 27/27/27
f 27/27/27 29/29/29 28/28/28
f 30/30/30 28/28/28 29/29/29
f 29/29/29 31/31/31 30/30/30
f 32/32/32 30/30/30 31/31/31
f 31/31/31 33/33/33 32/32/32
f 34/34/34 32/32/32 33/33/33
f 33/33/33 35/35/35 34/34/34
f 36/36/36 34/34/34 35/35/35
f 35/35/35 37/37/37 36/36/36
f 38/38/38 36/36/36 37/37/37
f 37/37/37 39/39/39 38/38/38
f 40/40/40 38/38/38 39/39/39
f 39/39/39 41/41/41 40/40/40
f 42/42/42 40/40/40 41/41/41
f 41/41/41 43/43/43 42/42/42
f 44/44/44 42/42/42 43/43/43
f 43/43/43 45/45/45 44/44/44
f 46/46/46 44/44/44 45/45/45
f 45/45/45 47/47/47 46/46/46
f 48/48/48 46/46/46 47/47/47
f 47/47/47 49/49/49 48/48/48
f 50/50/50 48/48/48 49/49/49
f 49/49/49 51/51/51 50/50/50
f 52/52/52 50/50/50 51/51/51
f 51/51/51 53/53/53 52/52/52
f 54/54/54 52/52/52 53/53/53
f 53/53/53 55/55/55 54/54/54
f 56/56/56 54/54/54 55/55/55
f 55/55/55 57/57/57 56/56/56
f 58/58/58 56/56/56 57/57/57
f 57/57/57 59/59/59 58/58/58
f 60/60/60 58/58/58 59/59/59
f 59/59/59 61/61/61 60/60/60
f 62/62/62 60/60/60 61/61/61
f 61/61/61 63/63/63 62/62/62
f 64/64/64 62/62/62 63/63/63
f 63/63/63 65/65/65 64/64/64
f 66/66/66 64/64/64 65/65/65
f 65/65/65 67/67/67 66/66/66
f 68/68/68 66/66/66 67/67/67
f 67/67/67 69/69/69 68/68/68
f 70/70/70 68/68/68 69/69/69
f 69/69/69 71/71/71 70/70/70
f 72/72/72 70/70/70 71/71/71
f 71/71/71 73/73/73 72/72/72
f 74/74/74 72/72/72 73/73/73
f 73/73/73 75/75/75 74/74/74
f 76/76/76 74/74/74 75/75/75
f 75/75/75 77/77/77 76/76/76
f 78/78/78 76/76/76 77/77/77
f 77/77/77 79/79/79 78/78/78
f 80/80/80 78/78/78 79/79/79
f 79/79/79 81/81/81 80/80/80
f 82/82/82 80/80/80 81/81/81
