g Vortex_Base
v -2.406092 -7.406849E-16 12.0963
v -0.9601688 6.447203 18.85467
v -4.58694 6.138938 18.22838
v 1.349038E-05 -7.551957E-16 12.33328
v 2.369272 4.392999 16.7336
v 8.34465E-06 7.547834E-14 5.597725
v -1.092055 7.548493E-14 5.490167
v 1.092071 1.323284E-13 5.490165
v 2.406118 -7.406846E-16 12.0963
v 5.790871 5.051903 16.29382
v 2.142166 7.550444E-14 5.171621
v 4.719756 -6.977095E-16 11.39446
v 9.517496 6.447204 15.67629
v 3.109939 7.553611E-14 4.654335
v 6.852018 -6.279218E-16 10.25474
v 11.94857 5.755756 12.9041
v 3.958199 3.171633E-13 3.958184
v 8.72096 -5.340033E-16 8.720936
v 13.43696 4.678402 9.615208
v 4.654346 1.893175E-13 3.109922
v 10.25476 -4.195633E-16 6.851989
v 16.46354 6.447203 7.212486
v 5.171632 1.893768E-13 2.142148
v 11.39448 -2.889998E-16 4.719725
v 16.91463 5.720569 3.550866
v 5.490172 5.443795E-14 1.092052
v 12.09631 -1.473302E-16 2.406085
v 15.7318 3.964369 -0.004628729
v 5.597731 3.281774E-13 -1.928852E-06
v 12.33328 4.174591E-23 -6.817624E-07
v 17.53673 6.447203 -3.683894
v 5.490171 5.81244E-14 -1.092064
v 12.0963 1.473314E-16 -2.406104
v 15.25866 4.953201 -6.722697
v 5.171628 3.175368E-13 -2.142159
v 11.39447 2.890009E-16 -4.719744
v 14.43925 6.059367 -10.2942
v 4.654343 -2.366273E-13 -3.109932
v 10.25475 4.195643E-16 -6.852005
v 12.2684 6.27394 -13.23322
v 3.958194 1.897503E-13 -3.958192
v 8.720949 5.340039E-16 -8.720946
v 8.239901 3.812842 -13.77353
v 3.109933 2.040038E-13 -4.654342
v 6.852005 6.279223E-16 -10.25475
v 5.648159 4.62474 -15.95858
v 2.14216 1.756138E-13 -5.171627
v 4.719743 6.977097E-16 -11.39446
v 2.719079 6.447203 -18.50154
v 1.092065 7.615728E-14 -5.49017
v 2.406106 7.406848E-16 -12.0963
v -0.9601851 5.04293 -17.63811
v 3.099442E-06 2.182724E-13 -5.597729
v 2.51251E-06 7.551957E-16 -12.33328
v -4.639451 6.447204 -18.50155
v -1.092059 7.615728E-14 -5.49017
v -2.406101 7.406848E-16 -12.0963
vt 0.4392807 0.3889841
vt 0.4705307 1
vt 0.4392807 1
vt 0.4705307 0.3889841
vt 0.5017808 1
vt 0.4705307 0
vt 0.4392807 0
vt 0.5017808 0
vt 0.5017808 0.3889841
vt 0.5330308 1
vt 0.5330308 0
vt 0.5330308 0.3889841
vt 0.5642809 1
vt 0.5642809 0
vt 0.5642809 0.3889841
vt 0.5955308 1
vt 0.5955308 0
vt 0.5955308 0.3889841
vt 0.6267809 1
vt 0.6267809 0
vt 0.6267809 0.3889841
vt 0.6580309 1
vt 0.6580309 0
vt 0.6580309 0.3889841
vt 0.6892808 1
vt 0.6892808 0
vt 0.6892808 0.3889841
vt 0.7205306 1
vt 0.7205306 0
vt 0.7205306 0.3889841
vt 0.7517806 1
vt 0.7517806 0
vt 0.7517806 0.3889841
vt 0.7830306 1
vt 0.7830306 0
vt 0.7830306 0.3889841
vt 0.8142806 1
vt 0.8142806 0
vt 0.8142806 0.3889841
vt 0.8455306 1
vt 0.8455306 0
vt 0.8455306 0.3889841
vt 0.8767806 1
vt 0.8767806 0
vt 0.8767806 0.3889841
vt 0.9080306 1
vt 0.9080306 0
vt 0.9080306 0.3889841
vt 0.9392806 1
vt 0.9392806 0
vt 0.9392806 0.3889841
vt 0.9705306 1
vt 0.9705306 0
vt 0.9705306 0.3889841
vt 1 1
vt 1 0
vt 1 0.3889841
vn 0.03690658 0.9124588 -0.4075008
vn 0.03201362 0.7161235 -0.697239
vn 0.06302708 0.7153596 -0.6959082
vn 0.007525336 0.917956 -0.3966106
vn -0.1069637 0.7144071 -0.6915066
vn 0 1 0
vn 0 1 0
vn 0 1 0
vn -0.0749586 0.9172344 -0.3912317
vn -0.2957712 0.6959451 -0.6543546
vn 0 1 0
vn -0.1660554 0.9122271 -0.3745229
vn -0.4115182 0.6817908 -0.6048256
vn 0 1 0
vn -0.2370552 0.9076931 -0.3462627
vn -0.5048267 0.6743125 -0.5389368
vn 0 1 0
vn -0.300538 0.9052413 -0.3003583
vn -0.6204692 0.6655518 -0.4147998
vn 0 1 0
vn -0.3584437 0.9028937 -0.2372787
vn -0.6992427 0.6580188 -0.2794119
vn 0 1 0
vn -0.4019759 0.9007517 -0.1645045
vn -0.7366605 0.6543459 -0.1707706
vn 0 1 0
vn -0.4289473 0.8994542 -0.08358351
vn -0.7581758 0.6520464 0.002184054
vn 0 1 0
vn -0.4382106 0.8988723 -0.0002806901
vn -0.7392671 0.6544811 0.1585521
vn 0 1 0
vn -0.4287103 0.8995588 0.08367496
vn -0.6948541 0.6586834 0.2886415
vn 0 1 0
vn -0.4014689 0.9008537 0.165183
vn -0.6109681 0.6655128 0.4287314
vn 0 1 0
vn -0.358513 0.9026845 0.2379689
vn -0.5400504 0.6722097 0.5064381
vn 0 1 0
vn -0.3051598 0.9052359 0.2956781
vn -0.4073807 0.6907476 0.5974185
vn 0 1 0
vn -0.2353872 0.9103501 0.3403755
vn -0.2290748 0.7030582 0.6732265
vn 0 1 0
vn -0.1490183 0.9140209 0.3773053
vn -0.1290983 0.7064976 0.6958411
vn 0 1 0
vn -0.07958749 0.9148468 0.3958801
vn 0.008802215 0.7195875 0.6943459
vn 0 1 0
vn -0.002761938 0.9188313 0.394641
vn 0.09658456 0.7234822 0.6835532
vn 0 1 0
vn 0.0563505 0.9153021 0.3988066
g Vortex_Base_0
f 3/3/3 2/2/2 1/1/1
f 2/2/2 4/4/4 1/1/1
f 2/2/2 5/5/5 4/4/4
f 4/4/4 6/6/6 1/1/1
f 6/6/6 7/7/7 1/1/1
f 8/8/8 6/6/6 4/4/4
f 5/5/5 9/9/9 4/4/4
f 9/9/9 8/8/8 4/4/4
f 5/5/5 10/10/10 9/9/9
f 11/11/11 8/8/8 9/9/9
f 10/10/10 12/12/12 9/9/9
f 12/12/12 11/11/11 9/9/9
f 10/10/10 13/13/13 12/12/12
f 14/14/14 11/11/11 12/12/12
f 13/13/13 15/15/15 12/12/12
f 15/15/15 14/14/14 12/12/12
f 13/13/13 16/16/16 15/15/15
f 17/17/17 14/14/14 15/15/15
f 16/16/16 18/18/18 15/15/15
f 18/18/18 17/17/17 15/15/15
f 16/16/16 19/19/19 18/18/18
f 20/20/20 17/17/17 18/18/18
f 19/19/19 21/21/21 18/18/18
f 21/21/21 20/20/20 18/18/18
f 19/19/19 22/22/22 21/21/21
f 23/23/23 20/20/20 21/21/21
f 22/22/22 24/24/24 21/21/21
f 24/24/24 23/23/23 21/21/21
f 22/22/22 25/25/25 24/24/24
f 26/26/26 23/23/23 24/24/24
f 25/25/25 27/27/27 24/24/24
f 27/27/27 26/26/26 24/24/24
f 25/25/25 28/28/28 27/27/27
f 29/29/29 26/26/26 27/27/27
f 28/28/28 30/30/30 27/27/27
f 30/30/30 29/29/29 27/27/27
f 28/28/28 31/31/31 30/30/30
f 32/32/32 29/29/29 30/30/30
f 31/31/31 33/33/33 30/30/30
f 33/33/33 32/32/32 30/30/30
f 31/31/31 34/34/34 33/33/33
f 35/35/35 32/32/32 33/33/33
f 34/34/34 36/36/36 33/33/33
f 36/36/36 35/35/35 33/33/33
f 34/34/34 37/37/37 36/36/36
f 38/38/38 35/35/35 36/36/36
f 37/37/37 39/39/39 36/36/36
f 39/39/39 38/38/38 36/36/36
f 37/37/37 40/40/40 39/39/39
f 41/41/41 38/38/38 39/39/39
f 40/40/40 42/42/42 39/39/39
f 42/42/42 41/41/41 39/39/39
f 40/40/40 43/43/43 42/42/42
f 44/44/44 41/41/41 42/42/42
f 43/43/43 45/45/45 42/42/42
f 45/45/45 44/44/44 42/42/42
f 43/43/43 46/46/46 45/45/45
f 47/47/47 44/44/44 45/45/45
f 46/46/46 48/48/48 45/45/45
f 48/48/48 47/47/47 45/45/45
f 46/46/46 49/49/49 48/48/48
f 50/50/50 47/47/47 48/48/48
f 49/49/49 51/51/51 48/48/48
f 51/51/51 50/50/50 48/48/48
f 49/49/49 52/52/52 51/51/51
f 53/53/53 50/50/50 51/51/51
f 52/52/52 54/54/54 51/51/51
f 54/54/54 53/53/53 51/51/51
f 52/52/52 55/55/55 54/54/54
f 56/56/56 53/53/53 54/54/54
f 55/55/55 57/57/57 54/54/54
f 57/57/57 56/56/56 54/54/54
