g WallBigCorner
v 0.04290925 3.300687 -2.78884
v 0.07265712 3.300687 -0.9847722
v -0.5985661 3.300687 -2.147365
v 0.9489286 3.300687 -1.219569
v 1.225585 1.429814 -0.313549
v 1.289685 -3.139891E-08 -1.310874
v 1.420985 -1.370566E-08 -0.313549
v 1.100943 1.429814 -1.260301
v 0.98243 1.904777 -0.313549
v 0.2923603 -5.510432E-08 -3.038291
v 0.8660731 1.904777 -1.197367
v 0.1541914 1.429814 -2.900122
v -1.435057 -4.689637E-08 -4.035616
v -0.01774524 1.904777 -2.728186
v -1.48563 1.429814 -3.846874
v -2.432382 -2.673448E-08 -4.166916
v -1.548563 1.904777 -3.612004
v -2.432382 1.429814 -3.971516
v -2.432382 1.904777 -3.728361
v 1.068208 2.84386 -0.313549
v 0.8434333 2.790691 -1.191301
v 0.9589915 2.790691 -0.313549
v 0.9489286 2.84386 -1.219569
v -0.03431879 2.790691 -2.711612
v 0.04290925 2.843859 -2.78884
v -1.554629 2.790691 -3.589364
v -1.526362 2.84386 -3.694859
v -2.432382 2.790691 -3.704922
v -2.432382 2.84386 -3.814139
v -2.432382 3.300687 -3.814139
v -1.761158 3.300687 -2.818588
v -2.432382 3.300687 -2.906956
v -1.526362 3.300687 -3.694859
v -0.5985661 3.300687 -2.147365
v 0.04290925 3.300687 -2.78884
v 0.1610254 3.300687 -0.313549
v 0.9489286 3.300687 -1.219569
v 1.068208 3.300687 -0.313549
v 0.07265712 3.300687 -0.9847722
v -2.432382 3.300687 -2.906956
v -1.761159 3.171067E-07 -2.818588
v -2.432382 3.674002E-07 -2.906956
v -1.761158 3.300687 -2.818588
v -0.5985661 2.381344E-07 -2.147365
v -0.5985661 3.300687 -2.147365
v 0.07265712 1.806405E-07 -0.9847722
v 0.07265712 3.300687 -0.9847722
v 0.1610254 1.558244E-07 -0.313549
v 0.1610254 3.300687 -0.313549
v 1.068208 3.300687 -0.313549
v 0.9489286 2.84386 -1.219569
v 1.068208 2.84386 -0.313549
v 0.9489286 3.300687 -1.219569
v 0.04290925 2.843859 -2.78884
v 0.04290925 3.300687 -2.78884
v -1.526362 2.84386 -3.694859
v -1.526362 3.300687 -3.694859
v -2.432382 2.84386 -3.814139
v -2.432382 3.300687 -3.814139
v -2.432382 1.904777 -3.728361
v -1.554629 2.790691 -3.589364
v -2.432382 2.790691 -3.704922
v -1.548563 1.904777 -3.612004
v -0.01774524 1.904777 -2.728186
v -0.03431879 2.790691 -2.711612
v 0.8660731 1.904777 -1.197367
v 0.8434333 2.790691 -1.191301
v 0.9589915 2.790691 -0.313549
v 0.98243 1.904777 -0.313549
v 1.183101 2.891535 -0.627099
v 1.529432 -1.370566E-08 1.430511E-06
v 1.183101 2.891535 1.430511E-06
v 1.529432 -1.370566E-08 -0.627099
v 1.183101 2.891535 -0.627099
v -4.470348E-07 -1.370566E-08 -0.627099
v 1.529432 -1.370566E-08 -0.627099
v 1.183101 3.435507 -0.627099
v -2.130866E-06 3.435507 -0.627099
v 1.529432 -1.370566E-08 1.430511E-06
v -4.470348E-07 -1.370566E-08 1.430511E-06
v 1.183101 2.891535 1.430511E-06
v 1.183101 3.435507 1.430511E-06
v -2.130866E-06 3.435507 1.430511E-06
v 1.183101 2.891535 1.430511E-06
v 1.183101 3.435507 -0.627099
v 1.183101 2.891535 -0.627099
v 1.183101 3.435507 1.430511E-06
v -2.130866E-06 3.435507 -0.627099
v 1.183101 3.435507 1.430511E-06
v -2.130866E-06 3.435507 1.430511E-06
v 1.183101 3.435507 -0.627099
v -2.130866E-06 3.435507 1.430511E-06
v -4.470348E-07 -1.370566E-08 -0.627099
v -2.130866E-06 3.435507 -0.627099
v -4.470348E-07 -1.370566E-08 1.430511E-06
vt 0.0914502 0.7409425
vt 0.144951 0.8227478
vt 0.0914502 0.8227478
vt 0.144951 0.7409425
vt 0.1749496 0.5208205
vt 0.1488169 0.4054955
vt 0.1749496 0.4054955
vt 0.1488169 0.5208205
vt 0.1749496 0.5805686
vt 0.0879291 0.4054955
vt 0.1488169 0.5805686
vt 0.0879291 0.5208205
vt 0.03327017 0.4054955
vt 0.0879291 0.5805686
vt 0.03327017 0.5208205
vt 0.009935781 0.4054955
vt 0.03327017 0.5805686
vt 0.009935781 0.5208205
vt 0.009935781 0.5805686
vt 0.1735613 0.6982887
vt 0.144951 0.6884371
vt 0.1735613 0.6884371
vt 0.144951 0.6982887
vt 0.0914502 0.6884371
vt 0.0914502 0.6982887
vt 0.03799095 0.6884371
vt 0.03799095 0.6982887
vt 0.009560152 0.6884371
vt 0.009560152 0.6982887
vt 0.009560152 0.7409425
vt 0.03799095 0.8227478
vt 0.009560152 0.8227478
vt 0.03799095 0.7409425
vt 0.0914502 0.8227478
vt 0.0914502 0.7409425
vt 0.1735613 0.8227478
vt 0.144951 0.7409425
vt 0.1735613 0.7409425
vt 0.144951 0.8227478
vt 0.01538314 0.9165088
vt 0.04007436 0.923718
vt 0.04007436 0.9165088
vt 0.01538314 0.923718
vt 0.04007436 0.93787
vt 0.01538314 0.93787
vt 0.04007436 0.952022
vt 0.01538314 0.952022
vt 0.04007436 0.9604705
vt 0.01538314 0.9604705
vt 0.1735613 0.7409425
vt 0.144951 0.6982887
vt 0.1735613 0.6982887
vt 0.144951 0.7409425
vt 0.0914502 0.6982887
vt 0.0914502 0.7409425
vt 0.03799095 0.6982887
vt 0.03799095 0.7409425
vt 0.009560152 0.6982887
vt 0.009560152 0.7409425
vt 0.009935781 0.5805686
vt 0.03327017 0.6484019
vt 0.009935781 0.6484019
vt 0.03327017 0.5805686
vt 0.0879291 0.5805686
vt 0.0879291 0.6484019
vt 0.1488169 0.5805686
vt 0.1488169 0.6484019
vt 0.1749496 0.6484019
vt 0.1749496 0.5805686
vt 0.07517865 0.8778263
vt 0.1888788 0.8377007
vt 0.07517865 0.8377007
vt 0.1888788 0.8778263
vt 0.07652395 0.9662379
vt 0.1902241 0.890536
vt 0.1902241 0.9883984
vt 0.05513402 0.9662379
vt 0.05513402 0.8905358
vt 0.1902241 0.9883984
vt 0.1902241 0.8905361
vt 0.07652395 0.966238
vt 0.05513402 0.966238
vt 0.05513402 0.890536
vt 0.07517865 0.8377007
vt 0.05378876 0.8778263
vt 0.07517865 0.8778263
vt 0.05378876 0.8377007
vt 0.007267012 0.8778263
vt 0.05378876 0.8377007
vt 0.007267012 0.8377007
vt 0.05378876 0.8778263
vt 0.01492998 0.9137017
vt 0.04062979 0.9060681
vt 0.01492998 0.9060681
vt 0.04062979 0.9137017
vn 0 1 0
vn 0 1 0
vn 0 1 0
vn 0 1 0
vn 0.9477574 0.2935766 -0.1247747
vn 0.9385865 0.1351274 -0.3174839
vn 0.9824677 0.1342653 -0.1293444
vn 0.9055142 0.2935068 -0.3064277
vn 0.8840837 0.4526025 -0.1163918
vn 0.7005947 0.1354029 -0.7005948
vn 0.8421537 0.4548276 -0.2896703
vn 0.6762525 0.2921729 -0.6762525
vn 0.317484 0.1351274 -0.9385865
vn 0.6294196 0.4556995 -0.6294196
vn 0.3064276 0.2935069 -0.9055142
vn 0.1293444 0.1342654 -0.9824677
vn 0.2896703 0.4548277 -0.8421537
vn 0.1247745 0.2935768 -0.9477574
vn 0.1163918 0.4526025 -0.8840837
vn 0.4369819 -0.8976287 -0.05752975
vn 0.4141522 -0.8986421 -0.144639
vn 0.4369819 -0.8976287 -0.05752974
vn 0.4159424 -0.8988156 -0.1382844
vn 0.3095053 -0.8991179 -0.3095053
vn 0.3095053 -0.8991179 -0.3095054
vn 0.1446389 -0.8986422 -0.4141519
vn 0.1382842 -0.8988157 -0.4159421
vn 0.0575299 -0.8976287 -0.4369818
vn 0.0575299 -0.8976287 -0.4369818
vn 0 1 0
vn 0 1 0
vn 0 1 0
vn 0 1 0
vn 0 1 0
vn 0 1 0
vn 0 1 0
vn 0 1 0
vn 0 1 0
vn 0 1 0
vn -0.1305261 0 0.9914449
vn -0.3214394 0 0.9469302
vn -0.1305261 0 0.9914449
vn -0.3214395 0 0.9469302
vn -0.7071068 0 0.7071067
vn -0.7071068 0 0.7071067
vn -0.9469302 0 0.3214395
vn -0.9469302 0 0.3214395
vn -0.9914449 0 0.1305263
vn -0.9914449 0 0.1305263
vn 0.9914449 0 -0.1305263
vn 0.9469302 0 -0.3214395
vn 0.9914449 0 -0.1305263
vn 0.9469302 0 -0.3214395
vn 0.7071067 0 -0.7071068
vn 0.7071067 0 -0.7071068
vn 0.3214396 0 -0.9469302
vn 0.3214396 0 -0.9469302
vn 0.1305265 0 -0.9914449
vn 0.1305265 0 -0.9914449
vn 0.1304814 0.02622165 -0.9911039
vn 0.3215319 0.02639075 -0.9465309
vn 0.1304816 0.02622145 -0.9911039
vn 0.3211249 0.02639162 -0.946669
vn 0.7068594 0.02644758 -0.7068595
vn 0.7068594 0.02644752 -0.7068595
vn 0.946669 0.02639127 -0.3211251
vn 0.9465309 0.02639049 -0.321532
vn 0.991104 0.02622145 -0.1304813
vn 0.991104 0.02622145 -0.1304813
vn 0.9929033 0.1189241 0
vn 0.9929033 0.1189241 0
vn 0.9929033 0.1189241 0
vn 0.9929033 0.1189241 0
vn 0 0 -1
vn 0 0 -1
vn 0 0 -1
vn 0 0 -1
vn 0 0 -1
vn 0 0 1
vn 0 0 1
vn 0 0 1
vn 0 0 1
vn 0 0 1
vn 1 0 0
vn 1 0 0
vn 1 0 0
vn 1 0 0
vn 0 1 0
vn 0 1 0
vn 0 1 0
vn 0 1 0
vn -1 0 0
vn -1 0 0
vn -1 0 0
vn -1 0 0
g WallBigCorner_0
f 3/3/3 2/2/2 1/1/1
f 4/4/4 1/1/1 2/2/2
f 7/7/7 6/6/6 5/5/5
f 8/8/8 5/5/5 6/6/6
f 5/5/5 8/8/8 9/9/9
f 6/6/6 10/10/10 8/8/8
f 11/11/11 9/9/9 8/8/8
f 12/12/12 8/8/8 10/10/10
f 8/8/8 12/12/12 11/11/11
f 10/10/10 13/13/13 12/12/12
f 14/14/14 11/11/11 12/12/12
f 15/15/15 12/12/12 13/13/13
f 12/12/12 15/15/15 14/14/14
f 13/13/13 16/16/16 15/15/15
f 17/17/17 14/14/14 15/15/15
f 18/18/18 15/15/15 16/16/16
f 15/15/15 18/18/18 17/17/17
f 19/19/19 17/17/17 18/18/18
f 22/22/22 21/21/21 20/20/20
f 23/23/23 20/20/20 21/21/21
f 21/21/21 24/24/24 23/23/23
f 25/25/25 23/23/23 24/24/24
f 24/24/24 26/26/26 25/25/25
f 27/27/27 25/25/25 26/26/26
f 26/26/26 28/28/28 27/27/27
f 29/29/29 27/27/27 28/28/28
f 32/32/32 31/31/31 30/30/30
f 33/33/33 30/30/30 31/31/31
f 31/31/31 34/34/34 33/33/33
f 35/35/35 33/33/33 34/34/34
f 38/38/38 37/37/37 36/36/36
f 39/39/39 36/36/36 37/37/37
f 42/42/42 41/41/41 40/40/40
f 43/43/43 40/40/40 41/41/41
f 41/41/41 44/44/44 43/43/43
f 45/45/45 43/43/43 44/44/44
f 44/44/44 46/46/46 45/45/45
f 47/47/47 45/45/45 46/46/46
f 46/46/46 48/48/48 47/47/47
f 49/49/49 47/47/47 48/48/48
f 52/52/52 51/51/51 50/50/50
f 53/53/53 50/50/50 51/51/51
f 51/51/51 54/54/54 53/53/53
f 55/55/55 53/53/53 54/54/54
f 54/54/54 56/56/56 55/55/55
f 57/57/57 55/55/55 56/56/56
f 56/56/56 58/58/58 57/57/57
f 59/59/59 57/57/57 58/58/58
f 62/62/62 61/61/61 60/60/60
f 63/63/63 60/60/60 61/61/61
f 63/63/63 61/61/61 64/64/64
f 65/65/65 64/64/64 61/61/61
f 64/64/64 65/65/65 66/66/66
f 67/67/67 66/66/66 65/65/65
f 67/67/67 68/68/68 66/66/66
f 69/69/69 66/66/66 68/68/68
f 72/72/72 71/71/71 70/70/70
f 73/73/73 70/70/70 71/71/71
f 76/76/76 75/75/75 74/74/74
f 74/74/74 75/75/75 77/77/77
f 78/78/78 77/77/77 75/75/75
f 81/81/81 80/80/80 79/79/79
f 81/81/81 82/82/82 80/80/80
f 83/83/83 80/80/80 82/82/82
f 86/86/86 85/85/85 84/84/84
f 87/87/87 84/84/84 85/85/85
f 90/90/90 89/89/89 88/88/88
f 91/91/91 88/88/88 89/89/89
f 94/94/94 93/93/93 92/92/92
f 95/95/95 92/92/92 93/93/93
