g WallBig
v 1.420985 -2.277809E-07 -0.3135514
v 1.225585 1.429814 -3.868854
v 1.420985 -2.277809E-07 -3.868854
v 1.225585 1.429814 -0.3135514
v 0.98243 1.904777 -3.868854
v 0.98243 1.904777 -0.3135514
v 1.068208 2.843859 -3.868854
v 0.9589915 2.790691 -0.3135514
v 1.068208 2.843859 -0.3135514
v 0.9589915 2.790691 -3.868854
v 1.068208 3.300687 -0.3135514
v 0.1610254 3.300687 -3.868854
v 1.068208 3.300687 -3.868854
v 0.1610254 3.300687 -0.3135514
v 0.1610254 3.300687 -0.3135514
v 0.1610254 1.112792E-07 -3.868854
v 0.1610254 3.300687 -3.868854
v 0.1610254 -5.825082E-08 -0.3135514
v 1.068208 3.300687 -3.868854
v 1.068208 2.843859 -0.3135514
v 1.068208 3.300687 -0.3135514
v 1.068208 2.843859 -3.868854
v 0.98243 1.904777 -0.3135514
v 0.9589915 2.790691 -3.868854
v 0.98243 1.904777 -3.868854
v 0.9589915 2.790691 -0.3135514
v 1.529432 -2.277809E-07 -9.536743E-07
v 1.183101 2.891535 -0.6271014
v 1.529432 -2.277809E-07 -0.6271014
v 1.183101 2.891535 -9.536743E-07
v 1.183101 3.435507 -0.6271014
v 1.183101 3.435507 -9.536743E-07
v 1.183101 2.891535 -0.6271014
v -4.470348E-07 -2.277809E-07 -0.6271014
v 1.529432 -2.277809E-07 -0.6271014
v 1.183101 3.435507 -0.6271014
v -2.130866E-06 3.435507 -0.6271014
v 1.529432 -2.277809E-07 -9.536743E-07
v -4.470348E-07 -2.277809E-07 -9.536743E-07
v 1.183101 2.891535 -9.536743E-07
v 1.183101 3.435507 -9.536743E-07
v -2.130866E-06 3.435507 -9.536743E-07
v -2.130866E-06 3.435507 -0.6271014
v 1.183101 3.435507 -9.536743E-07
v -2.130866E-06 3.435507 -9.536743E-07
v 1.183101 3.435507 -0.6271014
v -2.130866E-06 3.435507 -9.536743E-07
v -4.470348E-07 -2.277809E-07 -0.6271014
v -2.130866E-06 3.435507 -0.6271014
v -4.470348E-07 -2.277809E-07 -9.536743E-07
vt 0.1814434 0.4054954
vt 0.009935775 0.5208205
vt 0.009935775 0.4054954
vt 0.1814434 0.5208205
vt 0.009935775 0.5805686
vt 0.1814434 0.5805686
vt 0.009560153 0.698281
vt 0.1814435 0.6884371
vt 0.1814435 0.698281
vt 0.009560153 0.6884371
vt 0.1814435 0.7409425
vt 0.009560153 0.8227478
vt 0.009560153 0.7409425
vt 0.1814435 0.8227478
vt 0.01538314 0.9604705
vt 0.04007436 0.9165088
vt 0.01538314 0.9165088
vt 0.04007436 0.9604705
vt 0.009560153 0.7409425
vt 0.1814435 0.698281
vt 0.1814435 0.7409425
vt 0.009560153 0.698281
vt 0.1814434 0.5805686
vt 0.009935775 0.6479046
vt 0.009935775 0.5805686
vt 0.1814434 0.6479046
vt 0.1888788 0.8377007
vt 0.07517865 0.8778263
vt 0.1888788 0.8778263
vt 0.07517865 0.8377007
vt 0.05378876 0.8778263
vt 0.05378876 0.8377007
vt 0.07652395 0.9662377
vt 0.1902241 0.890536
vt 0.1902241 0.9883984
vt 0.05513402 0.9662377
vt 0.05513402 0.8905358
vt 0.1902241 0.9883984
vt 0.1902241 0.8905361
vt 0.07652395 0.966238
vt 0.05513402 0.966238
vt 0.05513402 0.8905358
vt 0.007267012 0.8778263
vt 0.05378876 0.8377007
vt 0.007267012 0.8377007
vt 0.05378876 0.8778263
vt 0.01492998 0.9137017
vt 0.04062979 0.9060681
vt 0.01492998 0.9060681
vt 0.04062979 0.9137017
vn 0.9907906 0.1354028 0
vn 0.9540002 0.2998058 0
vn 0.9907906 0.1354028 0
vn 0.9540002 0.2998058 0
vn 0.8901336 0.4556997 0
vn 0.8901336 0.4556997 0
vn 0.4377068 -0.8991178 0
vn 0.4377068 -0.8991178 0
vn 0.4377068 -0.8991178 0
vn 0.4377068 -0.8991178 0
vn 0 1 0
vn 0 1 0
vn 0 1 0
vn 0 1 0
vn -1 0 0
vn -1 0 0
vn -1 0 0
vn -1 0 0
vn 1 0 0
vn 1 0 0
vn 1 0 0
vn 1 0 0
vn 0.9996502 0.02644756 0
vn 0.9996502 0.02644756 0
vn 0.9996502 0.02644756 0
vn 0.9996502 0.02644756 0
vn 0.9929033 0.1189241 0
vn 0.9982242 0.05956784 0
vn 0.9929033 0.1189241 0
vn 0.9982242 0.05956784 0
vn 1 0 0
vn 1 0 0
vn 0 0 -1
vn 0 0 -1
vn 0 0 -1
vn 0 0 -1
vn 0 0 -1
vn 0 0 1
vn 0 0 1
vn 0 0 1
vn 0 0 1
vn 0 0 1
vn 0 1 0
vn 0 1 0
vn 0 1 0
vn 0 1 0
vn -1 0 0
vn -1 0 0
vn -1 0 0
vn -1 0 0
g WallBig_0
f 3/3/3 2/2/2 1/1/1
f 4/4/4 1/1/1 2/2/2
f 2/2/2 5/5/5 4/4/4
f 6/6/6 4/4/4 5/5/5
f 9/9/9 8/8/8 7/7/7
f 10/10/10 7/7/7 8/8/8
f 13/13/13 12/12/12 11/11/11
f 14/14/14 11/11/11 12/12/12
f 17/17/17 16/16/16 15/15/15
f 18/18/18 15/15/15 16/16/16
f 21/21/21 20/20/20 19/19/19
f 22/22/22 19/19/19 20/20/20
f 25/25/25 24/24/24 23/23/23
f 26/26/26 23/23/23 24/24/24
f 29/29/29 28/28/28 27/27/27
f 30/30/30 27/27/27 28/28/28
f 28/28/28 31/31/31 30/30/30
f 32/32/32 30/30/30 31/31/31
f 35/35/35 34/34/34 33/33/33
f 33/33/33 34/34/34 36/36/36
f 37/37/37 36/36/36 34/34/34
f 40/40/40 39/39/39 38/38/38
f 40/40/40 41/41/41 39/39/39
f 42/42/42 39/39/39 41/41/41
f 45/45/45 44/44/44 43/43/43
f 46/46/46 43/43/43 44/44/44
f 49/49/49 48/48/48 47/47/47
f 50/50/50 47/47/47 48/48/48
