g Watermelon
v -0.1215122 0.07724152 -0.001443489
v -0.1215122 0.1253273 -0.001443489
v -0.105185 0.1253273 0.05949054
v -0.105185 0.07724152 0.05949054
v -0.1156885 0.02874367 -0.001443488
v -0.06057816 0.1253273 0.1040976
v -0.1001415 0.02874367 0.05657863
v -0.08441099 -0.01215218 -0.001443488
v -0.06057816 0.07724152 0.1040976
v 0.0003559971 0.1253273 0.1204248
v -0.07305434 -0.01215218 0.04093996
v -0.04979247 -0.035933 -0.001443489
v -0.04307394 -0.035933 0.02363071
v 0.0003559971 0.07724152 0.1204248
v 0.06129022 0.1253273 0.1040976
v -0.05766623 0.02874367 0.09905397
v -0.04202745 -0.01215218 0.07196686
v -0.0247182 -0.035933 0.04198633
v 0.06129022 0.07724152 0.1040976
v 0.105897 0.1253273 0.05949054
v 0.0003559971 0.02874367 0.1146009
v 0.0003559971 -0.01215218 0.08332346
v 0.0003559971 -0.035933 0.04870493
v 0.105897 0.07724152 0.05949054
v 0.1222243 0.1253273 -0.001443489
v 0.1222243 0.07724152 -0.001443489
v 0.05837829 0.02874367 0.09905397
v 0.04273945 -0.01215218 0.07196686
v 0.02543027 -0.035933 0.04198633
v 0.1008535 0.02874367 0.05657863
v 0.1164005 0.02874367 -0.001443488
v 0.0737664 -0.01215218 0.04093996
v 0.04378593 -0.035933 0.02363071
v 0.08512306 -0.01215218 -0.001443488
v 0.05050453 -0.035933 -0.001443489
v 0.1222243 0.07724152 -0.001443489
v 0.1222243 0.1253273 -0.001443489
v 0.105897 0.1253273 -0.06237765
v 0.105897 0.07724152 -0.06237765
v 0.1164005 0.02874367 -0.001443488
v 0.06129022 0.1253273 -0.1069845
v 0.1008535 0.02874367 -0.05946577
v 0.08512306 -0.01215218 -0.001443488
v 0.06129022 0.07724152 -0.1069845
v 0.0003559971 0.1253273 -0.1233118
v 0.0737664 -0.01215218 -0.04382702
v 0.05050453 -0.035933 -0.001443489
v 0.04378593 -0.035933 -0.02651776
v 0.0003559971 0.07724152 -0.1233118
v -0.06057816 0.1253273 -0.1069845
v 0.05837829 0.02874367 -0.101941
v 0.04273945 -0.01215218 -0.07485394
v 0.02543027 -0.035933 -0.04487343
v -0.06057816 0.07724152 -0.1069845
v -0.105185 0.1253273 -0.06237765
v 0.0003559971 0.02874367 -0.117488
v 0.0003559971 -0.01215218 -0.0862105
v 0.0003559971 -0.035933 -0.051592
v -0.105185 0.07724152 -0.06237765
v -0.1215122 0.1253273 -0.001443489
v -0.1215122 0.07724152 -0.001443489
v -0.05766623 0.02874367 -0.101941
v -0.04202745 -0.01215218 -0.07485394
v -0.0247182 -0.035933 -0.04487343
v -0.1001415 0.02874367 -0.05946577
v -0.1156885 0.02874367 -0.001443488
v -0.07305434 -0.01215218 -0.04382702
v -0.04307394 -0.035933 -0.02651776
v -0.08441099 -0.01215218 -0.001443488
v -0.04979247 -0.035933 -0.001443489
v 0.0003559971 -0.06817924 -0.051592
v 0.0003559971 -0.06817924 -0.001443489
v 0.02543027 -0.06817924 -0.04487343
v 0.04378593 -0.06817924 -0.02651776
v 0.05050453 -0.06817924 -0.001443489
v -0.0247182 -0.06817924 -0.04487343
v 0.0003559971 -0.06817924 -0.001443489
v 0.0003559971 -0.06817924 -0.051592
v -0.04307394 -0.06817924 -0.02651776
v -0.04979247 -0.06817924 -0.001443489
v -0.04307394 -0.06817924 0.02363071
v 0.0003559971 -0.06817924 -0.001443489
v -0.04979247 -0.06817924 -0.001443489
v -0.0247182 -0.06817924 0.04198633
v 0.0003559971 -0.06817924 0.04870493
v 0.02543027 -0.06817924 0.04198633
v 0.0003559971 -0.06817924 -0.001443489
v 0.0003559971 -0.06817924 0.04870493
v 0.04378593 -0.06817924 0.02363071
v 0.05050453 -0.06817924 -0.001443489
v -0.04979247 -0.035933 -0.001443489
v -0.04979247 -0.06817924 -0.001443489
v -0.04307394 -0.06817924 -0.02651776
v -0.04307394 -0.035933 -0.02651776
v -0.0247182 -0.06817924 -0.04487343
v -0.0247182 -0.035933 -0.04487343
v 0.0003559971 -0.06817924 -0.051592
v 0.0003559971 -0.035933 -0.051592
v 0.02543027 -0.06817924 -0.04487343
v 0.02543027 -0.035933 -0.04487343
v 0.04378593 -0.06817924 -0.02651776
v 0.04378593 -0.035933 -0.02651776
v 0.05050453 -0.06817924 -0.001443489
v 0.05050453 -0.035933 -0.001443489
v -0.04307394 -0.035933 0.02363071
v -0.04979247 -0.06817924 -0.001443489
v -0.04979247 -0.035933 -0.001443489
v -0.04307394 -0.06817924 0.02363071
v -0.0247182 -0.035933 0.04198633
v -0.0247182 -0.06817924 0.04198633
v 0.0003559971 -0.035933 0.04870493
v 0.0003559971 -0.06817924 0.04870493
v 0.02543027 -0.035933 0.04198633
v 0.02543027 -0.06817924 0.04198633
v 0.04378593 -0.035933 0.02363071
v 0.04378593 -0.06817924 0.02363071
v 0.05050453 -0.035933 -0.001443489
v 0.05050453 -0.06817924 -0.001443489
v 0.105897 0.1253273 -0.06237765
v 0.0003559971 0.1253273 -0.001443489
v 0.06129022 0.1253273 -0.1069845
v 0.1222243 0.1253273 -0.001443489
v 0.0003559971 0.1253273 -0.1233118
v 0.105897 0.1253273 0.05949054
v -0.06057816 0.1253273 -0.1069845
v 0.06129022 0.1253273 0.1040976
v -0.105185 0.1253273 -0.06237765
v 0.0003559971 0.1253273 0.1204248
v -0.1215122 0.1253273 -0.001443489
v -0.06057816 0.1253273 0.1040976
v -0.105185 0.1253273 0.05949054
vt 0.2481563 0.5793867
vt 0.2467526 0.6010894
vt 0.272815 0.6010893
vt 0.2737787 0.5793868
vt 0.2541177 0.5566778
vt 0.2954357 0.6010893
vt 0.2769474 0.5566778
vt 0.2673486 0.5377517
vt 0.2958931 0.5793868
vt 0.3165828 0.6010894
vt 0.2825896 0.5377517
vt 0.2779287 0.5286161
vt 0.2874367 0.5286161
vt 0.3165859 0.5793868
vt 0.3377333 0.6010894
vt 0.2971649 0.5566778
vt 0.2993376 0.5377517
vt 0.3011985 0.5286161
vt 0.3372803 0.5793868
vt 0.3603698 0.6010893
vt 0.3165742 0.5566778
vt 0.3165774 0.5377517
vt 0.3165859 0.5286161
vt 0.359382 0.5793868
vt 0.3864393 0.6010894
vt 0.3850342 0.5793868
vt 0.336004 0.5566778
vt 0.3338365 0.5377517
vt 0.3319635 0.5286161
vt 0.3562447 0.5566778
vt 0.3790563 0.5566779
vt 0.3505726 0.5377518
vt 0.3457407 0.5286161
vt 0.365828 0.5377518
vt 0.3552501 0.5286161
vt 0.3850355 0.5793867
vt 0.3864393 0.6010894
vt 0.3603768 0.6010893
vt 0.3594131 0.5793868
vt 0.3790741 0.5566778
vt 0.3377562 0.6010893
vt 0.3562444 0.5566778
vt 0.3658432 0.5377517
vt 0.3372987 0.5793868
vt 0.3166091 0.6010894
vt 0.3506022 0.5377517
vt 0.3552632 0.5286161
vt 0.3457552 0.5286161
vt 0.3166058 0.5793868
vt 0.2954585 0.6010894
vt 0.336027 0.5566778
vt 0.3338542 0.5377517
vt 0.3319933 0.5286161
vt 0.2959115 0.5793868
vt 0.272822 0.6010893
vt 0.3166176 0.5566778
vt 0.3166144 0.5377517
vt 0.3166059 0.5286161
vt 0.2738098 0.5793868
vt 0.2467526 0.6010894
vt 0.2481578 0.5793868
vt 0.2971878 0.5566778
vt 0.2993553 0.5377517
vt 0.3012284 0.5286161
vt 0.2769471 0.5566778
vt 0.2541355 0.5566779
vt 0.2826192 0.5377518
vt 0.2874511 0.5286161
vt 0.2673638 0.5377518
vt 0.2779455 0.5286161
vt 0.2313414 0.6408982
vt 0.2515286 0.6611593
vt 0.2239153 0.6537064
vt 0.2238886 0.6685115
vt 0.2312676 0.6813464
vt 0.2239153 0.6537066
vt 0.2515286 0.6611593
vt 0.2313414 0.6408982
vt 0.2238886 0.6685115
vt 0.2312676 0.6813464
vt 0.2238885 0.6685115
vt 0.2515286 0.6611593
vt 0.2312676 0.6813464
vt 0.2239153 0.6537064
vt 0.2313414 0.6408984
vt 0.2239153 0.6537064
vt 0.2515286 0.6611593
vt 0.2313414 0.6408984
vt 0.2238886 0.6685115
vt 0.2312676 0.6813464
vt 0.3857527 0.6311411
vt 0.3857527 0.6109104
vt 0.3612442 0.6109104
vt 0.3612442 0.6311411
vt 0.3377665 0.6109104
vt 0.3377665 0.6311409
vt 0.3162525 0.6109104
vt 0.3162525 0.6311411
vt 0.2947391 0.6109104
vt 0.2947391 0.6311409
vt 0.2712609 0.6109104
vt 0.2712609 0.6311411
vt 0.2467526 0.6109105
vt 0.2467526 0.6311411
vt 0.361931 0.6311409
vt 0.3864393 0.6109105
vt 0.3864393 0.6311411
vt 0.361931 0.6109104
vt 0.3384529 0.6311411
vt 0.3384529 0.6109104
vt 0.3169394 0.6311411
vt 0.3169394 0.6109104
vt 0.2954256 0.6311411
vt 0.2954256 0.6109104
vt 0.2719477 0.6311411
vt 0.2719477 0.6109104
vt 0.2474392 0.6311411
vt 0.2474392 0.6109104
vt 0.3537003 0.6537156
vt 0.3178544 0.7158026
vt 0.3799415 0.6799567
vt 0.3178544 0.6441106
vt 0.3895464 0.7158027
vt 0.2820084 0.6537156
vt 0.3799415 0.7516488
vt 0.2557674 0.6799567
vt 0.3537004 0.7778897
vt 0.2461625 0.7158025
vt 0.3178545 0.7874945
vt 0.2557674 0.7516488
vt 0.2820084 0.77789
vn -0.9982654 -0.05887334 0
vn -1 0 0
vn -0.8660258 0 0.4999993
vn -0.8645234 -0.0588737 0.4991325
vn -0.9382416 -0.3459806 0
vn -0.500001 0 0.8660248
vn -0.8125411 -0.3459809 0.4691207
vn -0.7334187 -0.6797771 0
vn -0.4991334 -0.05887436 0.8645228
vn 0 0 1
vn -0.635159 -0.6797769 0.3667102
vn -0.5662156 -0.8242572 0
vn -0.4903565 -0.824257 0.2831094
vn 0 -0.0588746 0.9982654
vn 0.500001 0 0.8660248
vn -0.4691211 -0.3459813 0.8125407
vn -0.3667094 -0.6797768 0.6351596
vn -0.2831071 -0.824257 0.4903577
vn 0.4991335 -0.05887435 0.8645227
vn 0.8660256 0 0.4999998
vn 0 -0.3459814 0.9382414
vn 0 -0.6797767 0.7334191
vn 0 -0.8242572 0.5662156
vn 0.8645235 -0.0588741 0.4991321
vn 1 0 0
vn 0.9982654 -0.05887412 -1.315735E-07
vn 0.4691213 -0.3459813 0.8125405
vn 0.3667094 -0.6797773 0.6351592
vn 0.2831075 -0.8242575 0.4903566
vn 0.8125413 -0.3459809 0.4691204
vn 0.9382417 -0.3459806 1.189719E-07
vn 0.6351594 -0.6797766 0.36671
vn 0.4903565 -0.8242577 0.2831074
vn 0.7334194 -0.6797764 3.884425E-07
vn 0.5662151 -0.8242575 0
vn 0.9982654 -0.05887412 -1.315735E-07
vn 1 0 0
vn 0.8660256 0 -0.4999998
vn 0.8645235 -0.05887388 -0.4991322
vn 0.9382417 -0.3459806 1.189719E-07
vn 0.5000004 0 -0.8660253
vn 0.8125413 -0.3459809 -0.4691204
vn 0.7334194 -0.6797764 3.884425E-07
vn 0.499133 -0.05887387 -0.8645231
vn 0 0 -1
vn 0.6351596 -0.6797768 -0.3667095
vn 0.5662151 -0.8242575 0
vn 0.4903568 -0.8242573 -0.283108
vn 0 -0.05887391 -0.9982654
vn -0.5000004 0 -0.8660253
vn 0.4691209 -0.3459809 -0.8125409
vn 0.3667091 -0.679777 -0.6351596
vn 0.2831073 -0.824257 -0.4903577
vn -0.499133 -0.05887388 -0.8645231
vn -0.8660258 0 -0.4999993
vn 0 -0.3459807 -0.9382416
vn 0 -0.6797768 -0.7334191
vn 0 -0.8242568 -0.5662161
vn -0.8645235 -0.05887359 -0.4991322
vn -1 0 0
vn -0.9982654 -0.05887334 0
vn -0.4691209 -0.3459812 -0.8125408
vn -0.3667095 -0.6797771 -0.6351591
vn -0.2831074 -0.8242574 -0.490357
vn -0.8125411 -0.3459809 -0.4691206
vn -0.9382416 -0.3459806 0
vn -0.6351591 -0.6797772 -0.3667094
vn -0.490357 -0.8242572 -0.283108
vn -0.7334187 -0.6797771 0
vn -0.5662156 -0.8242572 0
vn 0 -1 0
vn 0 -1 -4.044954E-07
vn 0 -1 -2.426965E-06
vn 0 -1 -2.426964E-06
vn 0 -1 0
vn 0 -1 0
vn 0 -1 -4.044954E-07
vn 0 -1 0
vn 0 -1 0
vn 0 -1 0
vn 0 -1 0
vn 0 -1 -4.044954E-07
vn 0 -1 0
vn 0 -1 0
vn 0 -1 0
vn 0 -1 0
vn 0 -1 -4.044954E-07
vn 0 -1 0
vn 0 -1 0
vn 0 -1 0
vn -1 0 0
vn -1 0 0
vn -0.8660256 0 -0.4999997
vn -0.8660256 0 -0.4999997
vn -0.4999987 0 -0.866026
vn -0.4999987 0 -0.866026
vn 0 0 -1
vn 0 0 -1
vn 0.4999991 0 -0.866026
vn 0.4999991 0 -0.866026
vn 0.8660256 0 -0.4999998
vn 0.8660256 0 -0.4999998
vn 1 0 0
vn 1 0 0
vn -0.866025 0 0.5000007
vn -1 0 0
vn -1 0 0
vn -0.866025 0 0.5000007
vn -0.4999985 0 0.8660263
vn -0.4999985 0 0.8660263
vn 0 0 1
vn 0 0 1
vn 0.4999988 0 0.866026
vn 0.4999988 0 0.866026
vn 0.8660249 0 0.5000008
vn 0.8660249 0 0.5000008
vn 1 0 0
vn 1 0 0
vn 0 1 0
vn 0 1 0
vn 0 1 0
vn 0 1 0
vn 0 1 0
vn 0 1 0
vn 0 1 0
vn 0 1 0
vn 0 1 -1.643837E-06
vn 0 1 0
vn 0 1 0
vn 0 1 0
vn 0 1 1.643838E-06
g Watermelon_0
f 3/3/3 2/2/2 1/1/1
f 4/4/4 3/3/3 1/1/1
f 1/1/1 5/5/5 4/4/4
f 6/6/6 3/3/3 4/4/4
f 5/5/5 7/7/7 4/4/4
f 5/5/5 8/8/8 7/7/7
f 9/9/9 6/6/6 4/4/4
f 4/4/4 7/7/7 9/9/9
f 10/10/10 6/6/6 9/9/9
f 8/8/8 11/11/11 7/7/7
f 8/8/8 12/12/12 11/11/11
f 12/12/12 13/13/13 11/11/11
f 14/14/14 10/10/10 9/9/9
f 15/15/15 10/10/10 14/14/14
f 7/7/7 16/16/16 9/9/9
f 7/7/7 11/11/11 16/16/16
f 9/9/9 16/16/16 14/14/14
f 11/11/11 13/13/13 17/17/17
f 11/11/11 17/17/17 16/16/16
f 13/13/13 18/18/18 17/17/17
f 19/19/19 15/15/15 14/14/14
f 20/20/20 15/15/15 19/19/19
f 16/16/16 21/21/21 14/14/14
f 16/16/16 17/17/17 21/21/21
f 14/14/14 21/21/21 19/19/19
f 17/17/17 18/18/18 22/22/22
f 17/17/17 22/22/22 21/21/21
f 18/18/18 23/23/23 22/22/22
f 24/24/24 20/20/20 19/19/19
f 25/25/25 20/20/20 24/24/24
f 26/26/26 25/25/25 24/24/24
f 21/21/21 27/27/27 19/19/19
f 21/21/21 22/22/22 27/27/27
f 19/19/19 27/27/27 24/24/24
f 22/22/22 23/23/23 28/28/28
f 22/22/22 28/28/28 27/27/27
f 23/23/23 29/29/29 28/28/28
f 24/24/24 30/30/30 26/26/26
f 27/27/27 30/30/30 24/24/24
f 27/27/27 28/28/28 30/30/30
f 30/30/30 31/31/31 26/26/26
f 28/28/28 29/29/29 32/32/32
f 28/28/28 32/32/32 30/30/30
f 30/30/30 32/32/32 31/31/31
f 29/29/29 33/33/33 32/32/32
f 32/32/32 34/34/34 31/31/31
f 32/32/32 33/33/33 34/34/34
f 33/33/33 35/35/35 34/34/34
f 38/38/38 37/37/37 36/36/36
f 39/39/39 38/38/38 36/36/36
f 36/36/36 40/40/40 39/39/39
f 41/41/41 38/38/38 39/39/39
f 40/40/40 42/42/42 39/39/39
f 40/40/40 43/43/43 42/42/42
f 44/44/44 41/41/41 39/39/39
f 39/39/39 42/42/42 44/44/44
f 45/45/45 41/41/41 44/44/44
f 43/43/43 46/46/46 42/42/42
f 43/43/43 47/47/47 46/46/46
f 47/47/47 48/48/48 46/46/46
f 49/49/49 45/45/45 44/44/44
f 50/50/50 45/45/45 49/49/49
f 42/42/42 51/51/51 44/44/44
f 42/42/42 46/46/46 51/51/51
f 44/44/44 51/51/51 49/49/49
f 46/46/46 48/48/48 52/52/52
f 46/46/46 52/52/52 51/51/51
f 48/48/48 53/53/53 52/52/52
f 54/54/54 50/50/50 49/49/49
f 55/55/55 50/50/50 54/54/54
f 51/51/51 56/56/56 49/49/49
f 51/51/51 52/52/52 56/56/56
f 49/49/49 56/56/56 54/54/54
f 52/52/52 53/53/53 57/57/57
f 52/52/52 57/57/57 56/56/56
f 53/53/53 58/58/58 57/57/57
f 59/59/59 55/55/55 54/54/54
f 60/60/60 55/55/55 59/59/59
f 61/61/61 60/60/60 59/59/59
f 56/56/56 62/62/62 54/54/54
f 56/56/56 57/57/57 62/62/62
f 54/54/54 62/62/62 59/59/59
f 57/57/57 58/58/58 63/63/63
f 57/57/57 63/63/63 62/62/62
f 58/58/58 64/64/64 63/63/63
f 59/59/59 65/65/65 61/61/61
f 62/62/62 65/65/65 59/59/59
f 62/62/62 63/63/63 65/65/65
f 65/65/65 66/66/66 61/61/61
f 63/63/63 64/64/64 67/67/67
f 63/63/63 67/67/67 65/65/65
f 65/65/65 67/67/67 66/66/66
f 64/64/64 68/68/68 67/67/67
f 67/67/67 69/69/69 66/66/66
f 67/67/67 68/68/68 69/69/69
f 68/68/68 70/70/70 69/69/69
f 73/73/73 72/72/72 71/71/71
f 74/74/74 72/72/72 73/73/73
f 75/75/75 72/72/72 74/74/74
f 78/78/78 77/77/77 76/76/76
f 76/76/76 77/77/77 79/79/79
f 79/79/79 77/77/77 80/80/80
f 83/83/83 82/82/82 81/81/81
f 81/81/81 82/82/82 84/84/84
f 84/84/84 82/82/82 85/85/85
f 88/88/88 87/87/87 86/86/86
f 86/86/86 87/87/87 89/89/89
f 89/89/89 87/87/87 90/90/90
f 93/93/93 92/92/92 91/91/91
f 94/94/94 93/93/93 91/91/91
f 95/95/95 93/93/93 94/94/94
f 96/96/96 95/95/95 94/94/94
f 97/97/97 95/95/95 96/96/96
f 98/98/98 97/97/97 96/96/96
f 99/99/99 97/97/97 98/98/98
f 100/100/100 99/99/99 98/98/98
f 101/101/101 99/99/99 100/100/100
f 102/102/102 101/101/101 100/100/100
f 103/103/103 101/101/101 102/102/102
f 104/104/104 103/103/103 102/102/102
f 107/107/107 106/106/106 105/105/105
f 106/106/106 108/108/108 105/105/105
f 105/105/105 108/108/108 109/109/109
f 108/108/108 110/110/110 109/109/109
f 109/109/109 110/110/110 111/111/111
f 110/110/110 112/112/112 111/111/111
f 111/111/111 112/112/112 113/113/113
f 112/112/112 114/114/114 113/113/113
f 113/113/113 114/114/114 115/115/115
f 114/114/114 116/116/116 115/115/115
f 115/115/115 116/116/116 117/117/117
f 116/116/116 118/118/118 117/117/117
f 121/121/121 120/120/120 119/119/119
f 119/119/119 120/120/120 122/122/122
f 123/123/123 120/120/120 121/121/121
f 122/122/122 120/120/120 124/124/124
f 125/125/125 120/120/120 123/123/123
f 124/124/124 120/120/120 126/126/126
f 127/127/127 120/120/120 125/125/125
f 126/126/126 120/120/120 128/128/128
f 129/129/129 120/120/120 127/127/127
f 128/128/128 120/120/120 130/130/130
f 131/131/131 120/120/120 129/129/129
f 130/130/130 120/120/120 131/131/131
