g Wheel_Standard
v -0.01286974 -0.05279724 -0.1970419
v -0.162549 -0.1019964 -0.1766629
v -0.01286975 -0.1019964 -0.1766629
v -0.162549 -0.05279722 -0.1970419
v -0.01286973 -2.324214E-08 -0.2039928
v -0.162549 -2.417437E-09 -0.2039928
v -0.01286972 0.05279734 -0.1970418
v -0.162549 0.05279737 -0.1970419
v -0.01286975 -0.1019964 -0.1766629
v -0.162549 -0.1019964 -0.1766629
v -0.162549 -0.1442447 -0.1442447
v -0.01286975 -0.1442447 -0.1442447
v -0.01286975 -0.1442447 -0.1442447
v -0.162549 -0.1442447 -0.1442447
v -0.1625491 -0.176663 -0.1019964
v -0.01286976 -0.176663 -0.1019964
v -0.162549 -0.1970419 -0.05279723
v -0.01286975 -0.1970419 -0.05279723
v -0.01286975 -0.1970419 -0.05279723
v -0.162549 -0.1970419 -0.05279723
v -0.162549 -0.2039928 -1.212968E-08
v -0.01286975 -0.2039928 -1.867236E-08
v -0.01286975 -0.2039928 -1.867236E-08
v -0.162549 -0.2039928 -1.212968E-08
v -0.162549 -0.1970419 0.0527972
v -0.01286975 -0.1970419 0.05279719
v -0.162549 -0.176663 0.1019964
v -0.01286975 -0.176663 0.1019964
v -0.01286975 -0.176663 0.1019964
v -0.162549 -0.176663 0.1019964
v -0.162549 -0.1442447 0.1442447
v -0.01286974 -0.1442447 0.1442446
v -0.01286974 -0.1442447 0.1442446
v -0.162549 -0.1442447 0.1442447
v -0.162549 -0.1019965 0.1766629
v -0.01286973 -0.1019965 0.1766629
v -0.162549 -0.05279729 0.1970419
v -0.01286972 -0.0527973 0.1970419
v -0.162549 -8.185543E-08 0.2039928
v -0.01286972 -1.026801E-07 0.2039928
v -0.162549 0.05279713 0.1970419
v -0.01286971 0.05279711 0.1970419
v -0.162549 0.1019963 0.176663
v -0.01286969 0.1019963 0.176663
v -0.01286969 0.1019963 0.176663
v -0.162549 0.1019963 0.176663
v -0.162549 0.1442446 0.1442448
v -0.01286969 0.1442446 0.1442448
v -0.01286969 0.1442446 0.1442448
v -0.162549 0.1442446 0.1442448
v -0.162549 0.1766629 0.1019965
v -0.01286969 0.1766629 0.1019965
v -0.162549 0.1970419 0.0527973
v -0.01286969 0.1970418 0.05279729
v -0.162549 0.2039928 9.81101E-08
v -0.01286969 0.2039928 9.156741E-08
v -0.01286969 0.2039928 9.156741E-08
v -0.162549 0.2039928 9.81101E-08
v -0.162549 0.1970419 -0.05279711
v -0.01286969 0.1970419 -0.05279712
v -0.01286969 0.1970419 -0.05279712
v -0.162549 0.1970419 -0.05279711
v -0.162549 0.176663 -0.1019963
v -0.0128697 0.176663 -0.1019963
v -0.0128697 0.176663 -0.1019963
v -0.162549 0.176663 -0.1019963
v -0.162549 0.1442448 -0.1442446
v -0.0128697 0.1442447 -0.1442446
v -0.162549 0.1019965 -0.1766629
v -0.01286971 0.1019965 -0.1766629
v -0.01286971 0.1019965 -0.1766629
v -0.162549 0.1019965 -0.1766629
v -0.162549 0.05279737 -0.1970419
v -0.01286972 0.05279734 -0.1970418
v -0.01286975 -0.1970419 -0.05279723
v -0.01286975 -0.2039928 -1.867236E-08
v -2.235174E-08 -0.1911231 -1.691224E-08
v -2.235174E-08 -0.1655174 -0.09556153
v -0.01286976 -0.176663 -0.1019964
v 7.450581E-09 -3.142577E-08 1.758086E-08
v -0.01286975 -0.1442447 -0.1442447
v -1.490116E-08 -0.09556156 -0.1655174
v -0.01286975 -0.1019964 -0.1766629
v 0 -2.543675E-08 -0.1911231
v -0.01286974 -0.05279724 -0.1970419
v -0.01286973 -2.324214E-08 -0.2039928
v -0.01286972 -0.0527973 0.1970419
v -0.01286972 -1.026801E-07 0.2039928
v 1.490116E-08 -9.986161E-08 0.1911231
v 0 -0.09556159 0.1655174
v -0.01286973 -0.1019965 0.1766629
v 7.450581E-09 -3.142577E-08 1.758086E-08
v -0.01286974 -0.1442447 0.1442446
v -7.450581E-09 -0.1655175 0.09556149
v -0.01286975 -0.176663 0.1019964
v -2.235174E-08 -0.1911231 -1.691224E-08
v -0.01286975 -0.1970419 0.05279719
v -0.01286975 -0.2039928 -1.867236E-08
v -0.01286969 0.1970418 0.05279729
v -0.01286969 0.2039928 9.156741E-08
v 4.470348E-08 0.191123 8.637259E-08
v 3.72529E-08 0.1655173 0.09556158
v -0.01286969 0.1766629 0.1019965
v 7.450581E-09 -3.142577E-08 1.758086E-08
v -0.01286969 0.1442446 0.1442448
v 2.980232E-08 0.09556142 0.1655175
v -0.01286969 0.1019963 0.176663
v 1.490116E-08 -9.986161E-08 0.1911231
v -0.01286971 0.05279711 0.1970419
v -0.01286972 -1.026801E-07 0.2039928
v 0 -2.543675E-08 -0.1911231
v -0.01286972 0.05279734 -0.1970418
v -0.01286973 -2.324214E-08 -0.2039928
v 1.490116E-08 0.09556162 -0.1655173
v -0.01286971 0.1019965 -0.1766629
v 7.450581E-09 -3.142577E-08 1.758086E-08
v -0.0128697 0.1442447 -0.1442446
v 2.235174E-08 0.1655174 -0.09556144
v -0.0128697 0.176663 -0.1019963
v 4.470348E-08 0.191123 8.637259E-08
v -0.01286969 0.1970419 -0.05279712
v -0.01286969 0.2039928 9.156741E-08
v -0.162549 -0.1019964 -0.1766629
v -0.162549 -0.05279722 -0.1970419
v -0.1754187 -0.09556156 -0.1655174
v -0.162549 -0.1442447 -0.1442447
v -0.1754187 -1.775334E-09 -0.1911231
v -0.162549 -2.417437E-09 -0.2039928
v -0.162549 0.05279737 -0.1970419
v -0.1754188 -0.1655174 -0.09556153
v -0.1625491 -0.176663 -0.1019964
v -0.162549 -0.1970419 -0.05279723
v -0.1754187 0.09556164 -0.1655174
v -0.162549 0.1019965 -0.1766629
v -0.162549 0.1442448 -0.1442446
v -0.1754187 -1.882745E-08 1.917582E-08
v -0.1754188 -0.1911231 -9.627578E-09
v -0.1754187 0.1655175 -0.09556144
v -0.162549 -0.2039928 -1.212968E-08
v -0.162549 0.176663 -0.1019963
v -0.162549 -0.1970419 0.0527972
v -0.162549 0.1970419 -0.05279711
v -0.1754188 -0.1655175 0.09556152
v -0.162549 -0.176663 0.1019964
v -0.162549 -0.1442447 0.1442447
v -0.1754187 0.1911231 9.365727E-08
v -0.162549 0.2039928 9.81101E-08
v -0.162549 0.1970419 0.0527973
v -0.1754187 -0.09556159 0.1655174
v -0.162549 -0.1019965 0.1766629
v -0.162549 -0.05279729 0.1970419
v -0.1754187 0.1655174 0.0955616
v -0.162549 0.1766629 0.1019965
v -0.162549 0.1442446 0.1442448
v -0.1754187 -7.62011E-08 0.1911231
v -0.162549 -8.185543E-08 0.2039928
v -0.162549 0.05279713 0.1970419
v -0.1754187 0.09556145 0.1655175
v -0.162549 0.1019963 0.176663
vt -0.08190376 0.2483313
vt 0.08190376 0.1997243
vt -0.08190376 0.1997243
vt 0.08190376 0.2483313
vt -0.08190374 0.3004931
vt 0.08190376 0.3004931
vt -0.08190375 0.352655
vt 0.08190352 0.3526551
vt 0.9207924 0.1997243
vt 1.079208 0.1997243
vt 1.079208 0.1579845
vt 0.9207924 0.1579845
vt -0.08190374 0.1579845
vt 0.08190376 0.1579845
vt 0.08190376 0.1162446
vt -0.08190375 0.1162445
vt 0.08190376 0.06763756
vt -0.08190376 0.06763756
vt 0.9207924 0.06763756
vt 1.079208 0.06763757
vt 1.079208 0.01547575
vt 0.9207924 0.01547575
vt 0.9207924 0.01547575
vt 1.079208 0.01547575
vt 1.079208 0.06763744
vt 0.9207924 0.06763744
vt 1.079208 0.1162444
vt 0.9207924 0.1162444
vt -0.08190376 0.1162444
vt 0.08190376 0.1162444
vt 0.08190376 0.1579844
vt -0.08190376 0.1579844
vt 0.9207924 0.1579844
vt 1.079208 0.1579844
vt 1.079208 0.1997241
vt 0.9207924 0.1997241
vt 1.079208 0.2483312
vt 0.9207924 0.2483312
vt 1.079208 0.3004929
vt 0.9207924 0.3004929
vt 1.079208 0.3526547
vt 0.9207924 0.3526547
vt 1.079208 0.4012617
vt 0.9207924 0.4012617
vt -0.08190375 0.4012617
vt 0.08190376 0.4012617
vt 0.08190376 0.4430015
vt -0.08190376 0.4430015
vt 0.9207926 0.4430015
vt 1.079207 0.4430015
vt 1.079207 0.4847414
vt 0.9207926 0.4847413
vt 1.079207 0.5333483
vt 0.9207926 0.5333483
vt 1.079208 0.5855104
vt 0.9207924 0.5855104
vt -0.08190376 0.5855104
vt 0.08190376 0.5855104
vt 0.08190376 0.5333487
vt -0.08190376 0.5333487
vt 0.9207924 0.5333487
vt 1.079208 0.5333486
vt 1.079208 0.4847416
vt 0.9207924 0.4847417
vt -0.08190374 0.4847416
vt 0.08190376 0.4847416
vt 0.08190376 0.4430019
vt -0.08190376 0.4430018
vt 0.08190376 0.401262
vt -0.08190377 0.401262
vt 0.9207924 0.401262
vt 1.079208 0.4012621
vt 1.079208 0.3526551
vt 0.9207924 0.352655
vt 0.3240239 0.8975441
vt 0.3354433 0.9842836
vt 0.3142999 0.9842836
vt 0.2722328 0.8272871
vt 0.2905436 0.8167154
vt 0 0.9842833
vt 0.2372841 0.7473063
vt 0.1573034 0.7123577
vt 0.1678752 0.6940469
vt 0 0.6702902
vt 0.08704656 0.6605665
vt 0 0.6491467
vt 0.08704656 0.6605665
vt 0 0.6491467
vt 0 0.6702902
vt 0.1573034 0.7123577
vt 0.167875 0.6940469
vt 0 0.9842833
vt 0.2372841 0.7473063
vt 0.2722327 0.8272871
vt 0.2905436 0.8167154
vt 0.3142999 0.9842836
vt 0.3240239 0.897544
vt 0.3354433 0.9842836
vt 0.6773756 0.8975436
vt 0.665956 0.9842833
vt 0.6870995 0.9842833
vt 0.7291666 0.8272868
vt 0.7108558 0.8167149
vt 1 0.9842833
vt 0.7641155 0.7473059
vt 0.8440961 0.7123572
vt 0.8335245 0.6940464
vt 1 0.6702902
vt 0.914353 0.6605663
vt 1 0.6491467
vt 1 0.6702902
vt 0.9143528 0.6605664
vt 1 0.6491467
vt 0.8440959 0.7123575
vt 0.8335241 0.6940467
vt 1 0.9842833
vt 0.7641151 0.7473063
vt 0.7291666 0.827287
vt 0.7108558 0.8167154
vt 0.6870995 0.9842833
vt 0.6773756 0.8975437
vt 0.665956 0.9842833
vt 0.8414536 0.2315938
vt 0.8802968 0.3253694
vt 0.8202097 0.2438589
vt 0.7796631 0.1510668
vt 0.8690152 0.4260032
vt 0.8935454 0.4260032
vt 0.8802967 0.5266371
vt 0.686871 0.11052
vt 0.6991361 0.08927624
vt 0.6053604 0.05043312
vt 0.8202097 0.6081476
vt 0.8414536 0.6204127
vt 0.7796629 0.7009397
vt 0.5047266 0.4260031
vt 0.5047268 0.06171464
vt 0.6868708 0.7414863
vt 0.5047268 0.03718444
vt 0.6991359 0.7627301
vt 0.4040932 0.05043309
vt 0.6053602 0.8015733
vt 0.3225826 0.11052
vt 0.3103175 0.08927621
vt 0.2297905 0.1510667
vt 0.5047265 0.7902915
vt 0.5047265 0.8148219
vt 0.404093 0.8015732
vt 0.1892437 0.2438588
vt 0.168 0.2315937
vt 0.1291568 0.3253693
vt 0.3225824 0.7414861
vt 0.3103172 0.7627299
vt 0.2297903 0.7009393
vt 0.1404383 0.426003
vt 0.115908 0.4260029
vt 0.1291568 0.5266367
vt 0.1892436 0.6081472
vt 0.1679998 0.6204123
vn 0.4382101 -0.2326455 -0.8682442
vn -0.371876 -0.4641413 -0.8039162
vn 0.3718759 -0.4641414 -0.8039161
vn -0.4382105 -0.2326454 -0.868244
vn 0.3718759 0 -0.9282826
vn -0.371876 0 -0.9282824
vn 0.4382102 0.2326457 -0.8682441
vn -0.4382097 0.2326459 -0.8682443
vn 0.3718759 -0.4641414 -0.8039161
vn -0.371876 -0.4641413 -0.8039162
vn -0.4382098 -0.6355988 -0.6355992
vn 0.43821 -0.635599 -0.635599
vn 0.43821 -0.635599 -0.635599
vn -0.4382098 -0.6355988 -0.6355992
vn -0.371876 -0.8039161 -0.4641414
vn 0.3718756 -0.8039162 -0.4641413
vn -0.4382099 -0.8682443 -0.2326453
vn 0.43821 -0.8682443 -0.2326454
vn 0.43821 -0.8682443 -0.2326454
vn -0.4382099 -0.8682443 -0.2326453
vn -0.3718758 -0.9282826 0
vn 0.3718759 -0.9282826 0
vn 0.3718759 -0.9282826 0
vn -0.3718758 -0.9282826 0
vn -0.4382101 -0.8682442 0.2326452
vn 0.43821 -0.8682443 0.2326452
vn -0.3718761 -0.8039161 0.4641412
vn 0.3718759 -0.8039163 0.4641412
vn 0.3718759 -0.8039163 0.4641412
vn -0.3718761 -0.8039161 0.4641412
vn -0.4382099 -0.635599 0.635599
vn 0.43821 -0.6355991 0.6355988
vn 0.43821 -0.6355991 0.6355988
vn -0.4382099 -0.635599 0.635599
vn -0.3718761 -0.4641415 0.8039159
vn 0.3718759 -0.4641416 0.803916
vn -0.4382105 -0.2326455 0.868244
vn 0.43821 -0.2326457 0.8682442
vn -0.3718757 0 0.9282826
vn 0.3718759 0 0.9282824
vn -0.4382098 0.2326451 0.8682443
vn 0.43821 0.232645 0.8682443
vn -0.371876 0.4641408 0.8039164
vn 0.3718758 0.4641407 0.8039165
vn 0.3718758 0.4641407 0.8039165
vn -0.371876 0.4641408 0.8039164
vn -0.4382103 0.6355986 0.6355991
vn 0.4382103 0.6355985 0.6355991
vn 0.4382103 0.6355985 0.6355991
vn -0.4382103 0.6355986 0.6355991
vn -0.3718756 0.8039162 0.4641414
vn 0.3718762 0.803916 0.4641413
vn -0.43821 0.8682441 0.232646
vn 0.43821 0.8682441 0.2326459
vn -0.3718759 0.9282824 0
vn 0.371876 0.9282824 0
vn 0.371876 0.9282824 0
vn -0.3718759 0.9282824 0
vn -0.4382098 0.8682445 -0.232645
vn 0.4382101 0.8682443 -0.232645
vn 0.4382101 0.8682443 -0.232645
vn -0.4382098 0.8682445 -0.232645
vn -0.371876 0.8039166 -0.4641405
vn 0.371876 0.8039165 -0.4641407
vn 0.371876 0.8039165 -0.4641407
vn -0.371876 0.8039166 -0.4641405
vn -0.4382104 0.6355992 -0.6355983
vn 0.4382103 0.6355992 -0.6355985
vn -0.3718755 0.4641415 -0.8039162
vn 0.3718763 0.4641414 -0.8039159
vn 0.3718763 0.4641414 -0.8039159
vn -0.3718755 0.4641415 -0.8039162
vn -0.4382097 0.2326459 -0.8682443
vn 0.4382102 0.2326457 -0.8682441
vn 0.43821 -0.8682443 -0.2326454
vn 0.3718759 -0.9282826 0
vn 0.9126737 -0.4086893 0
vn 0.9126735 -0.3539354 -0.2043448
vn 0.3718756 -0.8039162 -0.4641413
vn 1 0 0
vn 0.43821 -0.635599 -0.635599
vn 0.9126737 -0.2043448 -0.3539352
vn 0.3718759 -0.4641414 -0.8039161
vn 0.9126735 0 -0.4086893
vn 0.4382101 -0.2326455 -0.8682442
vn 0.3718759 0 -0.9282826
vn 0.43821 -0.2326457 0.8682442
vn 0.3718759 0 0.9282824
vn 0.9126737 0 0.4086893
vn 0.9126737 -0.2043448 0.3539351
vn 0.3718759 -0.4641416 0.803916
vn 1 0 0
vn 0.43821 -0.6355991 0.6355988
vn 0.9126737 -0.3539354 0.2043446
vn 0.3718759 -0.8039163 0.4641412
vn 0.9126737 -0.4086893 0
vn 0.43821 -0.8682443 0.2326452
vn 0.3718759 -0.9282826 0
vn 0.43821 0.8682441 0.2326459
vn 0.371876 0.9282824 0
vn 0.9126737 0.4086892 0
vn 0.9126738 0.353935 0.2043446
vn 0.3718762 0.803916 0.4641413
vn 1 0 0
vn 0.4382103 0.6355985 0.6355991
vn 0.9126737 0.2043443 0.3539355
vn 0.3718758 0.4641407 0.8039165
vn 0.9126737 0 0.4086893
vn 0.43821 0.232645 0.8682443
vn 0.3718759 0 0.9282824
vn 0.9126735 0 -0.4086893
vn 0.4382102 0.2326457 -0.8682441
vn 0.3718759 0 -0.9282826
vn 0.9126738 0.2043445 -0.3539349
vn 0.3718763 0.4641414 -0.8039159
vn 1 0 0
vn 0.4382103 0.6355992 -0.6355985
vn 0.9126737 0.3539352 -0.2043444
vn 0.371876 0.8039165 -0.4641407
vn 0.9126737 0.4086892 0
vn 0.4382101 0.8682443 -0.232645
vn 0.371876 0.9282824 0
vn -0.371876 -0.4641413 -0.8039162
vn -0.4382105 -0.2326454 -0.868244
vn -0.9126738 -0.2043444 -0.353935
vn -0.4382098 -0.6355988 -0.6355992
vn -0.9126737 0 -0.4086891
vn -0.371876 0 -0.9282824
vn -0.4382097 0.2326459 -0.8682443
vn -0.9126738 -0.353935 -0.2043446
vn -0.371876 -0.8039161 -0.4641414
vn -0.4382099 -0.8682443 -0.2326453
vn -0.9126735 0.2043448 -0.3539353
vn -0.3718755 0.4641415 -0.8039162
vn -0.4382104 0.6355992 -0.6355983
vn -1 0 0
vn -0.9126737 -0.4086892 0
vn -0.9126738 0.3539354 -0.204344
vn -0.3718758 -0.9282826 0
vn -0.371876 0.8039166 -0.4641405
vn -0.4382101 -0.8682442 0.2326452
vn -0.4382098 0.8682445 -0.232645
vn -0.9126738 -0.3539349 0.2043447
vn -0.3718761 -0.8039161 0.4641412
vn -0.4382099 -0.635599 0.635599
vn -0.9126737 0.4086891 0
vn -0.3718759 0.9282824 0
vn -0.43821 0.8682441 0.232646
vn -0.9126738 -0.2043445 0.3539349
vn -0.3718761 -0.4641415 0.8039159
vn -0.4382105 -0.2326455 0.868244
vn -0.9126737 0.3539353 0.2043447
vn -0.3718756 0.8039162 0.4641414
vn -0.4382103 0.6355986 0.6355991
vn -0.9126737 0 0.4086893
vn -0.3718757 0 0.9282826
vn -0.4382098 0.2326451 0.8682443
vn -0.9126737 0.2043444 0.3539352
vn -0.371876 0.4641408 0.8039164
g Wheel_Standard_0
f 3/3/3 2/2/2 1/1/1
f 2/2/2 4/4/4 1/1/1
f 1/1/1 4/4/4 5/5/5
f 4/4/4 6/6/6 5/5/5
f 5/5/5 6/6/6 7/7/7
f 6/6/6 8/8/8 7/7/7
f 11/11/11 10/10/10 9/9/9
f 12/12/12 11/11/11 9/9/9
f 15/15/15 14/14/14 13/13/13
f 16/16/16 15/15/15 13/13/13
f 17/17/17 15/15/15 16/16/16
f 18/18/18 17/17/17 16/16/16
f 21/21/21 20/20/20 19/19/19
f 22/22/22 21/21/21 19/19/19
f 25/25/25 24/24/24 23/23/23
f 26/26/26 25/25/25 23/23/23
f 27/27/27 25/25/25 26/26/26
f 28/28/28 27/27/27 26/26/26
f 31/31/31 30/30/30 29/29/29
f 32/32/32 31/31/31 29/29/29
f 35/35/35 34/34/34 33/33/33
f 36/36/36 35/35/35 33/33/33
f 37/37/37 35/35/35 36/36/36
f 38/38/38 37/37/37 36/36/36
f 39/39/39 37/37/37 38/38/38
f 40/40/40 39/39/39 38/38/38
f 41/41/41 39/39/39 40/40/40
f 42/42/42 41/41/41 40/40/40
f 43/43/43 41/41/41 42/42/42
f 44/44/44 43/43/43 42/42/42
f 47/47/47 46/46/46 45/45/45
f 48/48/48 47/47/47 45/45/45
f 51/51/51 50/50/50 49/49/49
f 52/52/52 51/51/51 49/49/49
f 53/53/53 51/51/51 52/52/52
f 54/54/54 53/53/53 52/52/52
f 55/55/55 53/53/53 54/54/54
f 56/56/56 55/55/55 54/54/54
f 59/59/59 58/58/58 57/57/57
f 60/60/60 59/59/59 57/57/57
f 63/63/63 62/62/62 61/61/61
f 64/64/64 63/63/63 61/61/61
f 67/67/67 66/66/66 65/65/65
f 68/68/68 67/67/67 65/65/65
f 69/69/69 67/67/67 68/68/68
f 70/70/70 69/69/69 68/68/68
f 73/73/73 72/72/72 71/71/71
f 74/74/74 73/73/73 71/71/71
f 77/77/77 76/76/76 75/75/75
f 78/78/78 77/77/77 75/75/75
f 79/79/79 78/78/78 75/75/75
f 78/78/78 80/80/80 77/77/77
f 78/78/78 79/79/79 81/81/81
f 82/82/82 80/80/80 78/78/78
f 82/82/82 78/78/78 81/81/81
f 83/83/83 82/82/82 81/81/81
f 84/84/84 80/80/80 82/82/82
f 82/82/82 83/83/83 85/85/85
f 84/84/84 82/82/82 85/85/85
f 86/86/86 84/84/84 85/85/85
f 89/89/89 88/88/88 87/87/87
f 90/90/90 89/89/89 87/87/87
f 91/91/91 90/90/90 87/87/87
f 90/90/90 92/92/92 89/89/89
f 90/90/90 91/91/91 93/93/93
f 94/94/94 92/92/92 90/90/90
f 94/94/94 90/90/90 93/93/93
f 95/95/95 94/94/94 93/93/93
f 96/96/96 92/92/92 94/94/94
f 94/94/94 95/95/95 97/97/97
f 96/96/96 94/94/94 97/97/97
f 98/98/98 96/96/96 97/97/97
f 101/101/101 100/100/100 99/99/99
f 102/102/102 101/101/101 99/99/99
f 103/103/103 102/102/102 99/99/99
f 102/102/102 104/104/104 101/101/101
f 102/102/102 103/103/103 105/105/105
f 106/106/106 104/104/104 102/102/102
f 106/106/106 102/102/102 105/105/105
f 107/107/107 106/106/106 105/105/105
f 108/108/108 104/104/104 106/106/106
f 106/106/106 107/107/107 109/109/109
f 108/108/108 106/106/106 109/109/109
f 110/110/110 108/108/108 109/109/109
f 113/113/113 112/112/112 111/111/111
f 111/111/111 112/112/112 114/114/114
f 114/114/114 112/112/112 115/115/115
f 114/114/114 116/116/116 111/111/111
f 114/114/114 115/115/115 117/117/117
f 118/118/118 116/116/116 114/114/114
f 118/118/118 114/114/114 117/117/117
f 119/119/119 118/118/118 117/117/117
f 120/120/120 116/116/116 118/118/118
f 118/118/118 119/119/119 121/121/121
f 120/120/120 118/118/118 121/121/121
f 122/122/122 120/120/120 121/121/121
f 125/125/125 124/124/124 123/123/123
f 123/123/123 126/126/126 125/125/125
f 127/127/127 124/124/124 125/125/125
f 128/128/128 124/124/124 127/127/127
f 127/127/127 129/129/129 128/128/128
f 125/125/125 126/126/126 130/130/130
f 130/130/130 126/126/126 131/131/131
f 131/131/131 132/132/132 130/130/130
f 133/133/133 129/129/129 127/127/127
f 134/134/134 129/129/129 133/133/133
f 133/133/133 135/135/135 134/134/134
f 127/127/127 125/125/125 136/136/136
f 125/125/125 130/130/130 136/136/136
f 133/133/133 127/127/127 136/136/136
f 130/130/130 137/137/137 136/136/136
f 130/130/130 132/132/132 137/137/137
f 138/138/138 133/133/133 136/136/136
f 138/138/138 135/135/135 133/133/133
f 137/137/137 132/132/132 139/139/139
f 140/140/140 135/135/135 138/138/138
f 139/139/139 141/141/141 137/137/137
f 138/138/138 142/142/142 140/140/140
f 137/137/137 141/141/141 143/143/143
f 137/137/137 143/143/143 136/136/136
f 143/143/143 141/141/141 144/144/144
f 144/144/144 145/145/145 143/143/143
f 146/146/146 142/142/142 138/138/138
f 146/146/146 138/138/138 136/136/136
f 147/147/147 142/142/142 146/146/146
f 146/146/146 148/148/148 147/147/147
f 143/143/143 145/145/145 149/149/149
f 143/143/143 149/149/149 136/136/136
f 149/149/149 145/145/145 150/150/150
f 150/150/150 151/151/151 149/149/149
f 152/152/152 148/148/148 146/146/146
f 152/152/152 146/146/146 136/136/136
f 153/153/153 148/148/148 152/152/152
f 152/152/152 154/154/154 153/153/153
f 149/149/149 151/151/151 155/155/155
f 149/149/149 155/155/155 136/136/136
f 155/155/155 151/151/151 156/156/156
f 156/156/156 157/157/157 155/155/155
f 158/158/158 154/154/154 152/152/152
f 158/158/158 152/152/152 136/136/136
f 155/155/155 158/158/158 136/136/136
f 155/155/155 157/157/157 158/158/158
f 159/159/159 154/154/154 158/158/158
f 158/158/158 157/157/157 159/159/159
