g X_BottomRight_5
v 0.1337342 0.01993101 -0.02531802
v 0.1344636 0.021711 -0.02707889
v 0.1344636 0.01993101 -0.02707889
v 0.1337342 0.021711 -0.02531802
v 0.1319733 0.01993101 -0.02458865
v 0.1319733 0.021711 -0.02458865
v 0.1302125 0.01993101 -0.02531802
v 0.1302125 0.021711 -0.02531802
v 0.1294831 0.01993101 -0.02707889
v 0.1294831 0.021711 -0.02707889
v 0.1302125 0.01993101 -0.02883974
v 0.1302125 0.021711 -0.02883974
v 0.1319733 0.01993101 -0.02956912
v 0.1319733 0.021711 -0.02956912
v 0.1337342 0.01993101 -0.02883974
v 0.1337342 0.021711 -0.02883974
v 0.1344636 0.01993101 -0.02707889
v 0.1344636 0.021711 -0.02707889
v 0.1337342 0.01993101 -0.01731802
v 0.1344636 0.021711 -0.01907887
v 0.1344636 0.01993101 -0.01907887
v 0.1337342 0.021711 -0.01731802
v 0.1319733 0.01993101 -0.01658864
v 0.1319733 0.021711 -0.01658864
v 0.1302125 0.01993101 -0.01731802
v 0.1302125 0.021711 -0.01731802
v 0.1294831 0.01993101 -0.01907887
v 0.1294831 0.021711 -0.01907887
v 0.1302125 0.01993101 -0.02083974
v 0.1302125 0.021711 -0.02083974
v 0.1319733 0.01993101 -0.02156911
v 0.1319733 0.021711 -0.02156911
v 0.1337342 0.01993101 -0.02083974
v 0.1337342 0.021711 -0.02083974
v 0.1344636 0.01993101 -0.01907887
v 0.1344636 0.021711 -0.01907887
v 0.1256813 0.01993101 -0.02537678
v 0.1264107 0.021711 -0.02713764
v 0.1264107 0.01993101 -0.02713764
v 0.1256813 0.021711 -0.02537678
v 0.1239204 0.01993101 -0.02464741
v 0.1239204 0.021711 -0.02464741
v 0.1221596 0.01993101 -0.02537678
v 0.1221596 0.021711 -0.02537678
v 0.1214302 0.01993101 -0.02713764
v 0.1214302 0.021711 -0.02713764
v 0.1221596 0.01993101 -0.0288985
v 0.1221596 0.021711 -0.0288985
v 0.1239204 0.01993101 -0.02962787
v 0.1239204 0.021711 -0.02962787
v 0.1256813 0.01993101 -0.0288985
v 0.1256813 0.021711 -0.0288985
v 0.1264107 0.01993101 -0.02713764
v 0.1264107 0.021711 -0.02713764
v 0.1256813 0.01993101 -0.01731802
v 0.1264107 0.021711 -0.01907888
v 0.1264107 0.01993101 -0.01907888
v 0.1256813 0.021711 -0.01731802
v 0.1239204 0.01993101 -0.01658864
v 0.1239204 0.021711 -0.01658864
v 0.1221596 0.01993101 -0.01731802
v 0.1221596 0.021711 -0.01731802
v 0.1214302 0.01993101 -0.01907888
v 0.1214302 0.021711 -0.01907888
v 0.1221596 0.01993101 -0.02083974
v 0.1221596 0.021711 -0.02083974
v 0.1239204 0.01993101 -0.02156911
v 0.1239204 0.021711 -0.02156911
v 0.1256813 0.01993101 -0.02083974
v 0.1256813 0.021711 -0.02083974
v 0.1264107 0.01993101 -0.01907888
v 0.1264107 0.021711 -0.01907888
v 0.1199733 0.0005924117 -0.01507888
v 0.1199733 0.01993694 -0.01507888
v 0.1359384 0.01993694 -0.01507888
v 0.1359384 0.0005924117 -0.01507888
v 0.1199733 0.01993694 -0.01507888
v 0.1199733 0.01993694 -0.031023
v 0.1359384 0.01993694 -0.031023
v 0.1359384 0.01993694 -0.01507888
v 0.1199733 0.01993694 -0.031023
v 0.1199733 0.0005924117 -0.031023
v 0.1359384 0.0005924117 -0.031023
v 0.1359384 0.01993694 -0.031023
v 0.1199733 0.0005924117 -0.031023
v 0.1199733 0.0005924117 -0.01507888
v 0.1359384 0.0005924117 -0.01507888
v 0.1359384 0.0005924117 -0.031023
v 0.1359384 0.0005924117 -0.01507888
v 0.1359384 0.01993694 -0.01507888
v 0.1359384 0.01993694 -0.031023
v 0.1359384 0.0005924117 -0.031023
v 0.1199733 0.0005924117 -0.031023
v 0.1199733 0.01993694 -0.031023
v 0.1199733 0.01993694 -0.01507888
v 0.1199733 0.0005924117 -0.01507888
v 0.1337342 0.021711 -0.02883974
v 0.1319733 0.021711 -0.02707889
v 0.1319733 0.021711 -0.02956912
v 0.1344636 0.021711 -0.02707889
v 0.1302125 0.021711 -0.02883974
v 0.1337342 0.021711 -0.02531802
v 0.1294831 0.021711 -0.02707889
v 0.1319733 0.021711 -0.02458865
v 0.1302125 0.021711 -0.02531802
v 0.1337342 0.021711 -0.02083974
v 0.1319733 0.021711 -0.01907887
v 0.1319733 0.021711 -0.02156911
v 0.1344636 0.021711 -0.01907887
v 0.1302125 0.021711 -0.02083974
v 0.1337342 0.021711 -0.01731802
v 0.1294831 0.021711 -0.01907887
v 0.1319733 0.021711 -0.01658864
v 0.1302125 0.021711 -0.01731802
v 0.1256813 0.021711 -0.0288985
v 0.1239204 0.021711 -0.02713764
v 0.1239204 0.021711 -0.02962787
v 0.1264107 0.021711 -0.02713764
v 0.1221596 0.021711 -0.0288985
v 0.1256813 0.021711 -0.02537678
v 0.1214302 0.021711 -0.02713764
v 0.1239204 0.021711 -0.02464741
v 0.1221596 0.021711 -0.02537678
v 0.1256813 0.021711 -0.02083974
v 0.1239204 0.021711 -0.01907888
v 0.1239204 0.021711 -0.02156911
v 0.1264107 0.021711 -0.01907888
v 0.1221596 0.021711 -0.02083974
v 0.1256813 0.021711 -0.01731802
v 0.1214302 0.021711 -0.01907888
v 0.1239204 0.021711 -0.01658864
v 0.1221596 0.021711 -0.01731802
vt 0.1038657 0.3641228
vt 0.07248968 0.3706052
vt 0.1038657 0.3706052
vt 0.07248968 0.3641228
vt 0.1038657 0.3580851
vt 0.07248968 0.3580851
vt 0.1038657 0.3519282
vt 0.07248968 0.3519282
vt 0.1038657 0.3456524
vt 0.07248968 0.3456524
vt 0.1038657 0.3392584
vt 0.07248968 0.3392584
vt 0.1038657 0.3327464
vt 0.07248968 0.3327464
vt 0.1038657 0.3261148
vt 0.07248968 0.3261148
vt 0.1038657 0.3206247
vt 0.07248968 0.3206247
vt 0.1038657 0.3641236
vt 0.07248968 0.3706052
vt 0.1038657 0.3706052
vt 0.07248968 0.3641236
vt 0.1038657 0.3580851
vt 0.07248968 0.3580851
vt 0.1038657 0.3519282
vt 0.07248968 0.3519282
vt 0.1038657 0.3456532
vt 0.07248968 0.3456532
vt 0.1038657 0.3392584
vt 0.07248968 0.3392584
vt 0.1038657 0.3327464
vt 0.07248968 0.3327464
vt 0.1038657 0.3261148
vt 0.07248968 0.3261148
vt 0.1038657 0.3206247
vt 0.07248968 0.3206247
vt 0.1038641 0.3641236
vt 0.07248831 0.3706059
vt 0.1038641 0.3706059
vt 0.07248831 0.3641236
vt 0.1038641 0.3580851
vt 0.07248831 0.3580851
vt 0.1038641 0.3519282
vt 0.07248831 0.3519282
vt 0.1038641 0.3456524
vt 0.07248831 0.3456524
vt 0.1038641 0.3392584
vt 0.07248831 0.3392584
vt 0.1038641 0.3327456
vt 0.07248831 0.3327456
vt 0.1038641 0.3261148
vt 0.07248831 0.3261148
vt 0.1038641 0.3206247
vt 0.07248831 0.3206247
vt 0.1038641 0.3641236
vt 0.07248831 0.3706059
vt 0.1038641 0.3706059
vt 0.07248831 0.3641236
vt 0.1038641 0.3580851
vt 0.07248831 0.3580851
vt 0.1038641 0.3519282
vt 0.07248831 0.3519282
vt 0.1038641 0.3456524
vt 0.07248831 0.3456524
vt 0.1038641 0.3392584
vt 0.07248831 0.3392584
vt 0.1038641 0.3327456
vt 0.07248831 0.3327456
vt 0.1038641 0.3261148
vt 0.07248831 0.3261148
vt 0.1038641 0.3206247
vt 0.07248831 0.3206247
vt 0.5598811 0.637329
vt 0.5598811 0.7437416
vt 0.6477033 0.7437416
vt 0.6477033 0.637329
vt 0.7725508 0.6612899
vt 0.7725508 0.7489975
vt 0.8603739 0.7489975
vt 0.8603739 0.6612899
vt 0.4721738 0.7437416
vt 0.4721738 0.637329
vt 0.3843516 0.637329
vt 0.3843516 0.7437416
vt 0.5515078 0.2743855
vt 0.5515078 0.3620929
vt 0.6393301 0.3620929
vt 0.6393301 0.2743855
vt 0.6477033 0.637329
vt 0.6477033 0.7437416
vt 0.7354108 0.7437416
vt 0.7354108 0.637329
vt 0.4721738 0.637329
vt 0.4721738 0.7437416
vt 0.5598811 0.7437416
vt 0.5598811 0.637329
vt 0.0147894 0.3629516
vt 0.03282201 0.3449195
vt 0.007320642 0.3449195
vt 0.03282201 0.3704209
vt 0.0147894 0.3268866
vt 0.05085415 0.3629516
vt 0.03282201 0.3194181
vt 0.0583235 0.3449195
vt 0.05085415 0.3268866
vt 0.0147894 0.3629516
vt 0.03282201 0.3449195
vt 0.007320642 0.3449195
vt 0.03282201 0.3704209
vt 0.0147894 0.3268866
vt 0.05085415 0.3629516
vt 0.03282201 0.3194181
vt 0.0583235 0.3449195
vt 0.05085415 0.3268866
vt 0.01478887 0.3629508
vt 0.032821 0.3449187
vt 0.007320106 0.3449187
vt 0.032821 0.3704201
vt 0.01478887 0.3268866
vt 0.05085337 0.3629508
vt 0.032821 0.3194173
vt 0.05832213 0.3449187
vt 0.05085337 0.3268866
vt 0.01478887 0.3629508
vt 0.032821 0.3449187
vt 0.007320106 0.3449187
vt 0.032821 0.3704201
vt 0.01478887 0.3268866
vt 0.05085337 0.3629508
vt 0.032821 0.3194173
vt 0.05832213 0.3449187
vt 0.05085337 0.3268866
vn 0.7071068 0 0.7071066
vn 1 0 0
vn 1 0 0
vn 0.7071068 0 0.7071066
vn 0 0 1
vn 0 0 1
vn -0.7071068 0 0.7071066
vn -0.7071068 0 0.7071066
vn -1 0 0
vn -1 0 0
vn -0.7071071 0 -0.7071064
vn -0.7071071 0 -0.7071064
vn 0 0 -1
vn 0 0 -1
vn 0.7071071 0 -0.7071064
vn 0.7071071 0 -0.7071064
vn 1 0 0
vn 1 0 0
vn 0.7071069 0 0.7071066
vn 1 0 0
vn 1 0 0
vn 0.7071069 0 0.7071066
vn 0 0 1
vn 0 0 1
vn -0.7071069 0 0.7071066
vn -0.7071069 0 0.7071066
vn -1 0 0
vn -1 0 0
vn -0.7071068 0 -0.7071066
vn -0.7071068 0 -0.7071066
vn 0 0 -1
vn 0 0 -1
vn 0.7071068 0 -0.7071066
vn 0.7071068 0 -0.7071066
vn 1 0 0
vn 1 0 0
vn 0.7071069 0 0.7071066
vn 1 0 0
vn 1 0 0
vn 0.7071069 0 0.7071066
vn 0 0 1
vn 0 0 1
vn -0.7071069 0 0.7071066
vn -0.7071069 0 0.7071066
vn -1 0 0
vn -1 0 0
vn -0.7071071 0 -0.7071064
vn -0.7071071 0 -0.7071064
vn 0 0 -1
vn 0 0 -1
vn 0.7071071 0 -0.7071064
vn 0.7071071 0 -0.7071064
vn 1 0 0
vn 1 0 0
vn 0.7071069 0 0.7071066
vn 1 0 0
vn 1 0 0
vn 0.7071069 0 0.7071066
vn 0 0 1
vn 0 0 1
vn -0.7071069 0 0.7071066
vn -0.7071069 0 0.7071066
vn -1 0 0
vn -1 0 0
vn -0.7071071 0 -0.7071064
vn -0.7071071 0 -0.7071064
vn 0 0 -1
vn 0 0 -1
vn 0.7071071 0 -0.7071064
vn 0.7071071 0 -0.7071064
vn 1 0 0
vn 1 0 0
vn 0 0 1
vn 0 0 1
vn 0 0 1
vn 0 0 1
vn 0 1 0
vn 0 1 0
vn 0 1 0
vn 0 1 0
vn 0 0 -1
vn 0 0 -1
vn 0 0 -1
vn 0 0 -1
vn 0 -1 0
vn 0 -1 0
vn 0 -1 0
vn 0 -1 0
vn 1 0 0
vn 1 0 0
vn 1 0 0
vn 1 0 0
vn -1 0 0
vn -1 0 0
vn -1 0 0
vn -1 0 0
vn 0 1 0
vn 0 1 0
vn 0 1 0
vn 0 1 6.796475E-07
vn 0 1 -6.796515E-07
vn 0 1 6.79647E-07
vn 0 1 -6.796502E-07
vn 0 1 0
vn 0 1 0
vn 0 1 0
vn 0 1 0
vn 0 1 0
vn 0 1 6.796465E-07
vn 0 1 -6.79647E-07
vn 0 1 6.796515E-07
vn 0 1 -6.796513E-07
vn 0 1 0
vn 0 1 0
vn 0 1 -1.359308E-06
vn 0 1 0
vn 0 1 0
vn 0 1 -6.796507E-07
vn 0 1 -6.79654E-07
vn 0 1 6.79654E-07
vn 0 1 6.796507E-07
vn 0 1 0
vn 0 1 1.359308E-06
vn 0 1 -1.359308E-06
vn 0 1 0
vn 0 1 0
vn 0 1 -6.796507E-07
vn 0 1 -6.79654E-07
vn 0 1 6.79654E-07
vn 0 1 6.796507E-07
vn 0 1 0
vn 0 1 1.359308E-06
g X_BottomRight_5_0
f 3/3/3 2/2/2 1/1/1
f 2/2/2 4/4/4 1/1/1
f 1/1/1 4/4/4 5/5/5
f 4/4/4 6/6/6 5/5/5
f 5/5/5 6/6/6 7/7/7
f 6/6/6 8/8/8 7/7/7
f 7/7/7 8/8/8 9/9/9
f 8/8/8 10/10/10 9/9/9
f 9/9/9 10/10/10 11/11/11
f 10/10/10 12/12/12 11/11/11
f 11/11/11 12/12/12 13/13/13
f 12/12/12 14/14/14 13/13/13
f 13/13/13 14/14/14 15/15/15
f 14/14/14 16/16/16 15/15/15
f 15/15/15 16/16/16 17/17/17
f 16/16/16 18/18/18 17/17/17
f 21/21/21 20/20/20 19/19/19
f 20/20/20 22/22/22 19/19/19
f 19/19/19 22/22/22 23/23/23
f 22/22/22 24/24/24 23/23/23
f 23/23/23 24/24/24 25/25/25
f 24/24/24 26/26/26 25/25/25
f 25/25/25 26/26/26 27/27/27
f 26/26/26 28/28/28 27/27/27
f 27/27/27 28/28/28 29/29/29
f 28/28/28 30/30/30 29/29/29
f 29/29/29 30/30/30 31/31/31
f 30/30/30 32/32/32 31/31/31
f 31/31/31 32/32/32 33/33/33
f 32/32/32 34/34/34 33/33/33
f 33/33/33 34/34/34 35/35/35
f 34/34/34 36/36/36 35/35/35
f 39/39/39 38/38/38 37/37/37
f 38/38/38 40/40/40 37/37/37
f 37/37/37 40/40/40 41/41/41
f 40/40/40 42/42/42 41/41/41
f 41/41/41 42/42/42 43/43/43
f 42/42/42 44/44/44 43/43/43
f 43/43/43 44/44/44 45/45/45
f 44/44/44 46/46/46 45/45/45
f 45/45/45 46/46/46 47/47/47
f 46/46/46 48/48/48 47/47/47
f 47/47/47 48/48/48 49/49/49
f 48/48/48 50/50/50 49/49/49
f 49/49/49 50/50/50 51/51/51
f 50/50/50 52/52/52 51/51/51
f 51/51/51 52/52/52 53/53/53
f 52/52/52 54/54/54 53/53/53
f 57/57/57 56/56/56 55/55/55
f 56/56/56 58/58/58 55/55/55
f 55/55/55 58/58/58 59/59/59
f 58/58/58 60/60/60 59/59/59
f 59/59/59 60/60/60 61/61/61
f 60/60/60 62/62/62 61/61/61
f 61/61/61 62/62/62 63/63/63
f 62/62/62 64/64/64 63/63/63
f 63/63/63 64/64/64 65/65/65
f 64/64/64 66/66/66 65/65/65
f 65/65/65 66/66/66 67/67/67
f 66/66/66 68/68/68 67/67/67
f 67/67/67 68/68/68 69/69/69
f 68/68/68 70/70/70 69/69/69
f 69/69/69 70/70/70 71/71/71
f 70/70/70 72/72/72 71/71/71
f 75/75/75 74/74/74 73/73/73
f 76/76/76 75/75/75 73/73/73
f 79/79/79 78/78/78 77/77/77
f 80/80/80 79/79/79 77/77/77
f 83/83/83 82/82/82 81/81/81
f 84/84/84 83/83/83 81/81/81
f 87/87/87 86/86/86 85/85/85
f 88/88/88 87/87/87 85/85/85
f 91/91/91 90/90/90 89/89/89
f 92/92/92 91/91/91 89/89/89
f 95/95/95 94/94/94 93/93/93
f 96/96/96 95/95/95 93/93/93
f 99/99/99 98/98/98 97/97/97
f 97/97/97 98/98/98 100/100/100
f 101/101/101 98/98/98 99/99/99
f 100/100/100 98/98/98 102/102/102
f 103/103/103 98/98/98 101/101/101
f 102/102/102 98/98/98 104/104/104
f 105/105/105 98/98/98 103/103/103
f 104/104/104 98/98/98 105/105/105
f 108/108/108 107/107/107 106/106/106
f 106/106/106 107/107/107 109/109/109
f 110/110/110 107/107/107 108/108/108
f 109/109/109 107/107/107 111/111/111
f 112/112/112 107/107/107 110/110/110
f 111/111/111 107/107/107 113/113/113
f 114/114/114 107/107/107 112/112/112
f 113/113/113 107/107/107 114/114/114
f 117/117/117 116/116/116 115/115/115
f 115/115/115 116/116/116 118/118/118
f 119/119/119 116/116/116 117/117/117
f 118/118/118 116/116/116 120/120/120
f 121/121/121 116/116/116 119/119/119
f 120/120/120 116/116/116 122/122/122
f 123/123/123 116/116/116 121/121/121
f 122/122/122 116/116/116 123/123/123
f 126/126/126 125/125/125 124/124/124
f 124/124/124 125/125/125 127/127/127
f 128/128/128 125/125/125 126/126/126
f 127/127/127 125/125/125 129/129/129
f 130/130/130 125/125/125 128/128/128
f 129/129/129 125/125/125 131/131/131
f 132/132/132 125/125/125 130/130/130
f 131/131/131 125/125/125 132/132/132
