g Zobo_001:Zobo_Tail
v -0.00204 -0.0226378 -0.05822884
v 1.421085E-16 -0.0246678 -0.02508884
v 1.421085E-16 -0.0246678 -0.05822884
v -0.00204 -0.0226378 -0.02508884
v 1.421085E-16 -0.0205978 -0.05822884
v 1.421085E-16 -0.0205978 -0.02508884
v 0.00251 -0.0173078 -0.01668884
v -0.00242 -0.0164878 -0.01975884
v 0.00251 -0.0164878 -0.01975884
v -0.00242 -0.0173078 -0.01668884
v 0.00251 -0.0195578 -0.01443884
v -0.00242 -0.0195578 -0.01443884
v 0.00251 -0.0226378 -0.01360884
v -0.00242 -0.0226378 -0.01360884
v 0.00251 -0.0257078 -0.01443884
v -0.00242 -0.0257078 -0.01443884
v 0.00251 -0.0279578 -0.01668884
v -0.00242 -0.0279578 -0.01668884
v 0.00251 -0.0287878 -0.01975884
v -0.00242 -0.0287878 -0.01975884
v 0.00251 -0.0164878 -0.01975884
v -0.00242 -0.0164878 -0.01975884
v -0.00242 -0.0173078 -0.02283884
v 0.00251 -0.0173078 -0.02283884
v -0.00242 -0.0195578 -0.02508884
v 0.00251 -0.0195578 -0.02508884
v -0.00242 -0.0226378 -0.02590884
v 0.00251 -0.0226378 -0.02590884
v -0.00242 -0.0257078 -0.02508884
v 0.00251 -0.0257078 -0.02508884
v -0.00242 -0.0279578 -0.02283884
v 0.00251 -0.0279578 -0.02283884
v -0.00242 -0.0287878 -0.01975884
v 0.00251 -0.0287878 -0.01975884
v -0.00242 -0.0195578 -0.01443884
v -0.00242 -0.0164878 -0.01975884
v -0.00242 -0.0173078 -0.01668884
v -0.00242 -0.0279578 -0.01668884
v -0.00242 -0.0287878 -0.01975884
v -0.00242 -0.0257078 -0.01443884
v -0.00242 -0.0226378 -0.01360884
v 0.00204 -0.0226378 -0.05822884
v 1.421085E-16 -0.0246678 -0.05822884
v 1.421085E-16 -0.0246678 -0.02508884
v 0.00204 -0.0226378 -0.02508884
v 1.421085E-16 -0.0205978 -0.05822884
v 1.421085E-16 -0.0205978 -0.02508884
v 0.00251 -0.0226378 -0.01360884
v 0.00251 -0.0279578 -0.01668884
v 0.00251 -0.0257078 -0.01443884
v 0.00251 -0.0164878 -0.01975884
v 0.00251 -0.0287878 -0.01975884
v 0.00251 -0.0173078 -0.01668884
v 0.00251 -0.0195578 -0.01443884
v -0.00242 -0.0173078 -0.02283884
v -0.00242 -0.0226378 -0.02590884
v -0.00242 -0.0195578 -0.02508884
v -0.00242 -0.0287878 -0.01975884
v -0.00242 -0.0164878 -0.01975884
v -0.00242 -0.0279578 -0.02283884
v -0.00242 -0.0257078 -0.02508884
v 0.00251 -0.0279578 -0.02283884
v 0.00251 -0.0226378 -0.02590884
v 0.00251 -0.0257078 -0.02508884
v 0.00251 -0.0164878 -0.01975884
v 0.00251 -0.0287878 -0.01975884
v 0.00251 -0.0173078 -0.02283884
v 0.00251 -0.0195578 -0.02508884
v -0.00204 -0.0202278 -0.06416885
v 1.421085E-16 -0.0205978 -0.06528884
v 1.421085E-16 -0.0191078 -0.06379884
v 1.421085E-16 -0.0226378 -0.06583884
v -0.00204 -0.0191078 -0.06175885
v 1.421085E-16 -0.0185578 -0.06175885
v -0.00204 -0.0202278 -0.05934884
v 1.421085E-16 -0.0191078 -0.05971884
v 1.421085E-16 -0.0205978 -0.05822884
v -0.00204 -0.0226378 -0.05822884
v -0.00353 -0.0205978 -0.06175885
v -0.00204 -0.0226378 -0.06528884
v 1.421085E-16 -0.0246678 -0.06528884
v -0.00353 -0.0226378 -0.05971884
v -0.00353 -0.0226378 -0.06379884
v -0.00204 -0.0250478 -0.06416885
v 1.421085E-16 -0.0261678 -0.06379884
v 1.421085E-16 -0.0267078 -0.06175885
v -0.00408 -0.0226378 -0.06175885
v -0.00353 -0.0246678 -0.06175885
v -0.00204 -0.0250478 -0.05934884
v 1.421085E-16 -0.0246678 -0.05822884
v 1.421085E-16 -0.0261678 -0.05971884
v -0.00204 -0.0261678 -0.06175885
v 0.00204 -0.0202278 -0.06416885
v 1.421085E-16 -0.0191078 -0.06379884
v 1.421085E-16 -0.0205978 -0.06528884
v 1.421085E-16 -0.0226378 -0.06583884
v 0.00204 -0.0191078 -0.06175885
v 1.421085E-16 -0.0185578 -0.06175885
v 0.00204 -0.0202278 -0.05934884
v 1.421085E-16 -0.0191078 -0.05971884
v 1.421085E-16 -0.0205978 -0.05822884
v 0.00204 -0.0226378 -0.05822884
v 0.00353 -0.0205978 -0.06175885
v 0.00204 -0.0226378 -0.06528884
v 1.421085E-16 -0.0246678 -0.06528884
v 0.00353 -0.0226378 -0.05971884
v 0.00353 -0.0226378 -0.06379884
v 0.00204 -0.0250478 -0.06416885
v 1.421085E-16 -0.0261678 -0.06379884
v 1.421085E-16 -0.0267078 -0.06175885
v 0.00408 -0.0226378 -0.06175885
v 0.00353 -0.0246678 -0.06175885
v 0.00204 -0.0250478 -0.05934884
v 1.421085E-16 -0.0246678 -0.05822884
v 1.421085E-16 -0.0261678 -0.05971884
v 0.00204 -0.0261678 -0.06175885
vt 0.1658 0.0875
vt 0.1903 0.1655
vt 0.1903 0.0875
vt 0.1658 0.1655
vt 0.1385 0.0875
vt 0.1385 0.1655
vt 0.0287 0.048
vt 0.0125 0.0141
vt 0.0125 0.048
vt 0.0287 0.0141
vt 0.0445 0.048
vt 0.0445 0.0141
vt 0.0607 0.048
vt 0.0607 0.0141
vt 0.0769 0.048
vt 0.0769 0.0141
vt 0.093 0.048
vt 0.093 0.0141
vt 0.1093 0.048
vt 0.1093 0.0141
vt 0.0125 0.048
vt 0.0125 0.0141
vt 0.0287 0.0141
vt 0.0287 0.048
vt 0.0444 0.0141
vt 0.0444 0.048
vt 0.0606 0.0141
vt 0.0606 0.048
vt 0.0769 0.0141
vt 0.0769 0.048
vt 0.093 0.0141
vt 0.093 0.048
vt 0.1093 0.0141
vt 0.1093 0.048
vt 0.1489 0.0199
vt 0.1332 0.0108
vt 0.1422 0.0133
vt 0.1422 0.0447
vt 0.1332 0.0471
vt 0.1489 0.0381
vt 0.1513 0.029
vt 0.1658 0.0875
vt 0.1903 0.0875
vt 0.1903 0.1655
vt 0.1658 0.1655
vt 0.1385 0.0875
vt 0.1385 0.1655
vt 0.1513 0.029
vt 0.1423 0.0448
vt 0.1489 0.0381
vt 0.1332 0.0109
vt 0.1332 0.0472
vt 0.1423 0.0133
vt 0.1489 0.02
vt 0.1423 0.0133
vt 0.1513 0.029
vt 0.1489 0.0199
vt 0.1332 0.0471
vt 0.1332 0.0108
vt 0.1423 0.0447
vt 0.1489 0.0381
vt 0.1422 0.0448
vt 0.1513 0.029
vt 0.1489 0.0381
vt 0.1332 0.0109
vt 0.1332 0.0472
vt 0.1422 0.0133
vt 0.1489 0.02
vt 0.0448 0.1444
vt 0.0197 0.1529
vt 0.0393 0.1693
vt 0.0125 0.1209
vt 0.0684 0.1538
vt 0.0684 0.1755
vt 0.0909 0.1444
vt 0.0965 0.1693
vt 0.1142 0.1529
vt 0.1087 0.1209
vt 0.0684 0.1366
vt 0.034 0.1209
vt 0.0199 0.0892
vt 0.0861 0.1209
vt 0.0521 0.1209
vt 0.0448 0.0974
vt 0.0393 0.0727
vt 0.0684 0.0667
vt 0.0684 0.1209
vt 0.0684 0.1053
vt 0.0909 0.0974
vt 0.1142 0.0892
vt 0.0965 0.0727
vt 0.0684 0.0881
vt 0.0448 0.1444
vt 0.0393 0.1693
vt 0.0197 0.1529
vt 0.0125 0.1209
vt 0.0684 0.1538
vt 0.0684 0.1755
vt 0.0909 0.1444
vt 0.0965 0.1693
vt 0.1142 0.1529
vt 0.1087 0.1209
vt 0.0684 0.1366
vt 0.034 0.1209
vt 0.0199 0.0892
vt 0.0861 0.1209
vt 0.0521 0.1209
vt 0.0448 0.0974
vt 0.0393 0.0727
vt 0.0684 0.0667
vt 0.0684 0.1209
vt 0.0684 0.1053
vt 0.0909 0.0974
vt 0.1142 0.0892
vt 0.0965 0.0727
vt 0.0684 0.0881
vn -0.9991783 -1.064942E-05 0.0405277
vn 0 -1 0
vn 0 -0.9992359 0.03908438
vn -1 0 0
vn 0 0.9992404 0.0389708
vn 0 1 0
vn 0 0.8661314 0.4998165
vn 0 1 0
vn 0 1 0
vn 0 0.8661314 0.4998165
vn 0 0.5003318 0.8658338
vn 0 0.5003318 0.8658338
vn 0 0 1
vn 0 0 1
vn 0 -0.5010363 0.8654262
vn 0 -0.5010363 0.8654262
vn 0 -0.8654262 0.5010362
vn 0 -0.8654262 0.5010362
vn 0 -1 0
vn 0 -1 0
vn 0 1 0
vn 0 1 0
vn 0 0.8665372 -0.4991125
vn 0 0.8665372 -0.4991125
vn 0 0.4991124 -0.8665373
vn 0 0.4991124 -0.8665373
vn 0 0 -1
vn 0 0 -1
vn 0 -0.4998163 -0.8661315
vn 0 -0.4998163 -0.8661315
vn 0 -0.8658338 -0.5003318
vn 0 -0.8658338 -0.5003318
vn 0 -1 0
vn 0 -1 0
vn -1 0 0
vn -1 0 0
vn -1 0 0
vn -1 0 0
vn -1 0 0
vn -1 0 0
vn -1 0 0
vn 0.9991783 -1.064842E-05 0.04052769
vn 0 -0.9992359 0.03908438
vn 0 -1 0
vn 1 0 0
vn 0 0.9992404 0.0389708
vn 0 1 0
vn 1 0 0
vn 1 0 0
vn 1 0 0
vn 1 0 0
vn 1 0 0
vn 1 0 0
vn 1 0 0
vn -1 0 0
vn -1 0 0
vn -1 0 0
vn -1 0 0
vn -1 0 0
vn -1 0 0
vn -1 0 0
vn 1 0 0
vn 1 0 0
vn 1 0 0
vn 1 0 0
vn 1 0 0
vn 1 0 0
vn 1 0 0
vn -0.5042884 0.6106111 -0.6106122
vn -8.462021E-07 0.4324293 -0.9016679
vn 0 0.9016674 -0.4324302
vn -4.805316E-07 3.884832E-05 -1
vn -0.4605711 0.8876228 0
vn 3.306267E-07 1 0
vn -0.5288332 0.6481264 0.5479668
vn 3.514995E-07 0.9016675 0.4324301
vn 0 0.9992404 0.0389708
vn -0.9991783 -1.064942E-05 0.0405277
vn -0.8556497 0.5175554 0
vn -0.4603873 -1.207323E-07 -0.8877181
vn 0 -0.4324116 -0.9016764
vn -0.855724 -0.0001092068 0.5174326
vn -0.8557234 -0.000109367 -0.5174335
vn -0.5039594 -0.6116287 -0.6098651
vn 1.564262E-07 -0.9019216 -0.4318996
vn 2.449309E-07 -1 0
vn -1 2.803629E-05 0
vn -0.8559259 -0.5170985 -1.221329E-07
vn -0.5283223 -0.6488579 0.5475939
vn 0 -0.9992359 0.03908438
vn 1.59685E-07 -0.9019217 0.4318994
vn -0.4604626 -0.887679 0
vn 0.504288 0.6106113 -0.6106124
vn 0 0.9016674 -0.4324302
vn -8.462021E-07 0.4324293 -0.9016679
vn -4.805316E-07 3.884832E-05 -1
vn 0.4605717 0.8876224 0
vn 3.306267E-07 1 0
vn 0.5288343 0.6481259 0.5479664
vn 3.514995E-07 0.9016675 0.4324301
vn 0 0.9992404 0.0389708
vn 0.9991783 -1.064842E-05 0.04052769
vn 0.85565 0.5175549 -2.163007E-07
vn 0.4603868 0 -0.8877184
vn 0 -0.4324116 -0.9016764
vn 0.8557242 -0.0001093432 0.5174323
vn 0.8557236 -0.0001091599 -0.5174333
vn 0.5039597 -0.6116284 -0.609865
vn 1.564262E-07 -0.9019216 -0.4318996
vn 2.449309E-07 -1 0
vn 1 2.803629E-05 0
vn 0.8559262 -0.5170981 0
vn 0.5283222 -0.6488578 0.547594
vn 0 -0.9992359 0.03908438
vn 1.59685E-07 -0.9019217 0.4318994
vn 0.460463 -0.8876789 0
g Zobo_001:Zobo_Tail_0
f 3/3/3 2/2/2 1/1/1
f 2/2/2 4/4/4 1/1/1
f 1/1/1 4/4/4 5/5/5
f 4/4/4 6/6/6 5/5/5
f 9/9/9 8/8/8 7/7/7
f 8/8/8 10/10/10 7/7/7
f 7/7/7 10/10/10 11/11/11
f 10/10/10 12/12/12 11/11/11
f 11/11/11 12/12/12 13/13/13
f 12/12/12 14/14/14 13/13/13
f 13/13/13 14/14/14 15/15/15
f 14/14/14 16/16/16 15/15/15
f 15/15/15 16/16/16 17/17/17
f 16/16/16 18/18/18 17/17/17
f 17/17/17 18/18/18 19/19/19
f 18/18/18 20/20/20 19/19/19
f 23/23/23 22/22/22 21/21/21
f 24/24/24 23/23/23 21/21/21
f 25/25/25 23/23/23 24/24/24
f 26/26/26 25/25/25 24/24/24
f 27/27/27 25/25/25 26/26/26
f 28/28/28 27/27/27 26/26/26
f 29/29/29 27/27/27 28/28/28
f 30/30/30 29/29/29 28/28/28
f 31/31/31 29/29/29 30/30/30
f 32/32/32 31/31/31 30/30/30
f 33/33/33 31/31/31 32/32/32
f 34/34/34 33/33/33 32/32/32
f 37/37/37 36/36/36 35/35/35
f 36/36/36 38/38/38 35/35/35
f 39/39/39 38/38/38 36/36/36
f 38/38/38 40/40/40 35/35/35
f 40/40/40 41/41/41 35/35/35
f 44/44/44 43/43/43 42/42/42
f 45/45/45 44/44/44 42/42/42
f 45/45/45 42/42/42 46/46/46
f 47/47/47 45/45/45 46/46/46
f 50/50/50 49/49/49 48/48/48
f 49/49/49 51/51/51 48/48/48
f 52/52/52 51/51/51 49/49/49
f 51/51/51 53/53/53 48/48/48
f 53/53/53 54/54/54 48/48/48
f 57/57/57 56/56/56 55/55/55
f 56/56/56 58/58/58 55/55/55
f 55/55/55 58/58/58 59/59/59
f 60/60/60 58/58/58 56/56/56
f 61/61/61 60/60/60 56/56/56
f 64/64/64 63/63/63 62/62/62
f 63/63/63 65/65/65 62/62/62
f 62/62/62 65/65/65 66/66/66
f 67/67/67 65/65/65 63/63/63
f 68/68/68 67/67/67 63/63/63
f 71/71/71 70/70/70 69/69/69
f 69/69/69 70/70/70 72/72/72
f 69/69/69 73/73/73 71/71/71
f 73/73/73 74/74/74 71/71/71
f 73/73/73 75/75/75 74/74/74
f 75/75/75 76/76/76 74/74/74
f 77/77/77 76/76/76 75/75/75
f 77/77/77 75/75/75 78/78/78
f 73/73/73 79/79/79 75/75/75
f 73/73/73 69/69/69 79/79/79
f 80/80/80 69/69/69 72/72/72
f 80/80/80 72/72/72 81/81/81
f 78/78/78 75/75/75 82/82/82
f 75/75/75 79/79/79 82/82/82
f 69/69/69 83/83/83 79/79/79
f 80/80/80 83/83/83 69/69/69
f 84/84/84 80/80/80 81/81/81
f 80/80/80 84/84/84 83/83/83
f 81/81/81 85/85/85 84/84/84
f 84/84/84 85/85/85 86/86/86
f 79/79/79 83/83/83 87/87/87
f 82/82/82 79/79/79 87/87/87
f 83/83/83 88/88/88 87/87/87
f 84/84/84 88/88/88 83/83/83
f 88/88/88 82/82/82 87/87/87
f 78/78/78 82/82/82 89/89/89
f 89/89/89 82/82/82 88/88/88
f 90/90/90 78/78/78 89/89/89
f 91/91/91 90/90/90 89/89/89
f 92/92/92 84/84/84 86/86/86
f 92/92/92 88/88/88 84/84/84
f 92/92/92 89/89/89 88/88/88
f 92/92/92 86/86/86 91/91/91
f 89/89/89 92/92/92 91/91/91
f 95/95/95 94/94/94 93/93/93
f 95/95/95 93/93/93 96/96/96
f 97/97/97 93/93/93 94/94/94
f 98/98/98 97/97/97 94/94/94
f 99/99/99 97/97/97 98/98/98
f 100/100/100 99/99/99 98/98/98
f 100/100/100 101/101/101 99/99/99
f 99/99/99 101/101/101 102/102/102
f 103/103/103 97/97/97 99/99/99
f 93/93/93 97/97/97 103/103/103
f 93/93/93 104/104/104 96/96/96
f 96/96/96 104/104/104 105/105/105
f 99/99/99 102/102/102 106/106/106
f 103/103/103 99/99/99 106/106/106
f 107/107/107 93/93/93 103/103/103
f 107/107/107 104/104/104 93/93/93
f 104/104/104 108/108/108 105/105/105
f 108/108/108 104/104/104 107/107/107
f 109/109/109 105/105/105 108/108/108
f 109/109/109 108/108/108 110/110/110
f 107/107/107 103/103/103 111/111/111
f 103/103/103 106/106/106 111/111/111
f 112/112/112 107/107/107 111/111/111
f 112/112/112 108/108/108 107/107/107
f 106/106/106 112/112/112 111/111/111
f 106/106/106 102/102/102 113/113/113
f 106/106/106 113/113/113 112/112/112
f 102/102/102 114/114/114 113/113/113
f 114/114/114 115/115/115 113/113/113
f 108/108/108 116/116/116 110/110/110
f 112/112/112 116/116/116 108/108/108
f 113/113/113 116/116/116 112/112/112
f 116/116/116 113/113/113 115/115/115
f 110/110/110 116/116/116 115/115/115
